<?xml version="1.0" encoding="UTF-8" standalone="no"?><svg xmlns="http://www.w3.org/2000/svg" xmlns:xlink="http://www.w3.org/1999/xlink" contentScriptType="application/ecmascript" contentStyleType="text/css" height="1426px" preserveAspectRatio="none" style="width:580px;height:1426px;" version="1.1" viewBox="0 0 580 1426" width="580px" zoomAndPan="magnify"><defs><filter height="300%" id="f16viee1zzruhi" width="300%" x="-1" y="-1"><feGaussianBlur result="blurOut" stdDeviation="4.0"/><feColorMatrix in="blurOut" result="blurOut2" type="matrix" values="0 0 0 0 0 0 0 0 0 0 0 0 0 0 0 0 0 0 .4 0"/><feOffset dx="8.0" dy="8.0" in="blurOut2" result="blurOut3"/><feBlend in="SourceGraphic" in2="blurOut3" mode="normal"/></filter></defs><g><!--class productTable--><rect fill="#F8F8F8" filter="url(#f16viee1zzruhi)" height="151.3438" id="productTable" style="stroke: #383838; stroke-width: 3.0;" width="226" x="12" y="314"/><ellipse cx="50.1" cy="346" fill="#C3C3C3" rx="22" ry="22" style="stroke: #383838; stroke-width: 2.0;"/><path d="M51.9438,340.7813 L51.9438,354.0938 L54.2563,354.0938 Q55.475,354.0938 55.9906,354.5625 Q56.5063,355.0313 56.5063,355.8125 Q56.5063,356.5625 55.9906,357.0313 Q55.475,357.5 54.2563,357.5 L46.2875,357.5 Q45.0375,357.5 44.5219,357.0313 Q44.0063,356.5625 44.0063,355.7813 Q44.0063,355.0313 44.5219,354.5625 Q45.0375,354.0938 46.2875,354.0938 L48.5375,354.0938 L48.5375,340.7813 L44.85,340.7813 L44.85,344 Q44.85,345.2188 44.3813,345.75 Q43.9125,346.2813 43.1625,346.2813 Q42.4125,346.2813 41.9438,345.75 Q41.475,345.2188 41.475,344 L41.475,337.375 L59.1,337.375 L59.1,344 Q59.1,345.2188 58.6156,345.75 Q58.1313,346.2813 57.3813,346.2813 Q56.6313,346.2813 56.1625,345.75 Q55.6938,345.2188 55.6938,344 L55.6938,340.7813 L51.9438,340.7813 Z "/><text fill="#000000" font-family="sans-serif" font-size="24" lengthAdjust="spacingAndGlyphs" textLength="144" x="79.9" y="355.8203">productTable</text><line style="stroke: #383838; stroke-width: 3.0;" x1="14" x2="236" y1="378" y2="378"/><text fill="#000000" font-family="sans-serif" font-size="22" font-weight="bold" lengthAdjust="spacingAndGlyphs" textLength="112" x="24" y="408.8379">PK: idProd</text><text fill="#000000" font-family="sans-serif" font-size="22" lengthAdjust="spacingAndGlyphs" textLength="84" x="142" y="408.8379">INTEGER</text><line style="stroke: #383838; stroke-width: 2.0;" x1="14" x2="236" y1="421.6719" y2="421.6719"/><text fill="#000000" font-family="sans-serif" font-size="22" lengthAdjust="spacingAndGlyphs" textLength="130" x="24" y="452.5098">product TEXT</text><!--class countryTable--><rect fill="#F8F8F8" filter="url(#f16viee1zzruhi)" height="151.3438" id="countryTable" style="stroke: #383838; stroke-width: 3.0;" width="262" x="296" y="1254"/><ellipse cx="352.1" cy="1286" fill="#C3C3C3" rx="22" ry="22" style="stroke: #383838; stroke-width: 2.0;"/><path d="M353.9438,1280.7813 L353.9438,1294.0938 L356.2563,1294.0938 Q357.475,1294.0938 357.9906,1294.5625 Q358.5063,1295.0313 358.5063,1295.8125 Q358.5063,1296.5625 357.9906,1297.0313 Q357.475,1297.5 356.2563,1297.5 L348.2875,1297.5 Q347.0375,1297.5 346.5219,1297.0313 Q346.0063,1296.5625 346.0063,1295.7813 Q346.0063,1295.0313 346.5219,1294.5625 Q347.0375,1294.0938 348.2875,1294.0938 L350.5375,1294.0938 L350.5375,1280.7813 L346.85,1280.7813 L346.85,1284 Q346.85,1285.2188 346.3813,1285.75 Q345.9125,1286.2813 345.1625,1286.2813 Q344.4125,1286.2813 343.9438,1285.75 Q343.475,1285.2188 343.475,1284 L343.475,1277.375 L361.1,1277.375 L361.1,1284 Q361.1,1285.2188 360.6156,1285.75 Q360.1313,1286.2813 359.3813,1286.2813 Q358.6313,1286.2813 358.1625,1285.75 Q357.6938,1285.2188 357.6938,1284 L357.6938,1280.7813 L353.9438,1280.7813 Z "/><text fill="#000000" font-family="sans-serif" font-size="24" lengthAdjust="spacingAndGlyphs" textLength="140" x="385.9" y="1295.8203">countryTable</text><line style="stroke: #383838; stroke-width: 3.0;" x1="298" x2="556" y1="1318" y2="1318"/><text fill="#000000" font-family="sans-serif" font-size="22" font-weight="bold" lengthAdjust="spacingAndGlyphs" textLength="148" x="308" y="1348.8379">PK: idCountry</text><text fill="#000000" font-family="sans-serif" font-size="22" lengthAdjust="spacingAndGlyphs" textLength="84" x="462" y="1348.8379">INTEGER</text><line style="stroke: #383838; stroke-width: 2.0;" x1="298" x2="556" y1="1361.6719" y2="1361.6719"/><text fill="#000000" font-family="sans-serif" font-size="22" lengthAdjust="spacingAndGlyphs" textLength="130" x="308" y="1392.5098">country TEXT</text><!--class cityTable--><rect fill="#F8F8F8" filter="url(#f16viee1zzruhi)" height="179.0156" id="cityTable" style="stroke: #383838; stroke-width: 3.0;" width="216" x="319" y="954"/><ellipse cx="374.2" cy="986" fill="#C3C3C3" rx="22" ry="22" style="stroke: #383838; stroke-width: 2.0;"/><path d="M376.0438,980.7813 L376.0438,994.0938 L378.3563,994.0938 Q379.575,994.0938 380.0906,994.5625 Q380.6063,995.0313 380.6063,995.8125 Q380.6063,996.5625 380.0906,997.0313 Q379.575,997.5 378.3563,997.5 L370.3875,997.5 Q369.1375,997.5 368.6219,997.0313 Q368.1063,996.5625 368.1063,995.7813 Q368.1063,995.0313 368.6219,994.5625 Q369.1375,994.0938 370.3875,994.0938 L372.6375,994.0938 L372.6375,980.7813 L368.95,980.7813 L368.95,984 Q368.95,985.2188 368.4813,985.75 Q368.0125,986.2813 367.2625,986.2813 Q366.5125,986.2813 366.0438,985.75 Q365.575,985.2188 365.575,984 L365.575,977.375 L383.2,977.375 L383.2,984 Q383.2,985.2188 382.7156,985.75 Q382.2313,986.2813 381.4813,986.2813 Q380.7313,986.2813 380.2625,985.75 Q379.7938,985.2188 379.7938,984 L379.7938,980.7813 L376.0438,980.7813 Z "/><text fill="#000000" font-family="sans-serif" font-size="24" lengthAdjust="spacingAndGlyphs" textLength="96" x="407.8" y="995.8203">cityTable</text><line style="stroke: #383838; stroke-width: 3.0;" x1="321" x2="533" y1="1018" y2="1018"/><text fill="#000000" font-family="sans-serif" font-size="22" font-weight="bold" lengthAdjust="spacingAndGlyphs" textLength="102" x="331" y="1048.8379">PK: idCity</text><text fill="#000000" font-family="sans-serif" font-size="22" lengthAdjust="spacingAndGlyphs" textLength="84" x="439" y="1048.8379">INTEGER</text><text fill="#000000" font-family="sans-serif" font-size="22" font-weight="bold" lengthAdjust="spacingAndGlyphs" textLength="32" x="331" y="1076.5098">FK:</text><text fill="#000000" font-family="sans-serif" font-size="22" lengthAdjust="spacingAndGlyphs" textLength="130" x="369" y="1076.5098">country TEXT</text><line style="stroke: #383838; stroke-width: 2.0;" x1="321" x2="533" y1="1089.3438" y2="1089.3438"/><text fill="#000000" font-family="sans-serif" font-size="22" lengthAdjust="spacingAndGlyphs" textLength="90" x="331" y="1120.1816">city TEXT</text><!--class customerTable--><rect fill="#F8F8F8" filter="url(#f16viee1zzruhi)" height="234.3594" id="customerTable" style="stroke: #383838; stroke-width: 3.0;" width="230" x="312" y="600"/><ellipse cx="342" cy="632" fill="#C3C3C3" rx="22" ry="22" style="stroke: #383838; stroke-width: 2.0;"/><path d="M343.8438,626.7813 L343.8438,640.0938 L346.1563,640.0938 Q347.375,640.0938 347.8906,640.5625 Q348.4063,641.0313 348.4063,641.8125 Q348.4063,642.5625 347.8906,643.0313 Q347.375,643.5 346.1563,643.5 L338.1875,643.5 Q336.9375,643.5 336.4219,643.0313 Q335.9063,642.5625 335.9063,641.7813 Q335.9063,641.0313 336.4219,640.5625 Q336.9375,640.0938 338.1875,640.0938 L340.4375,640.0938 L340.4375,626.7813 L336.75,626.7813 L336.75,630 Q336.75,631.2188 336.2813,631.75 Q335.8125,632.2813 335.0625,632.2813 Q334.3125,632.2813 333.8438,631.75 Q333.375,631.2188 333.375,630 L333.375,623.375 L351,623.375 L351,630 Q351,631.2188 350.5156,631.75 Q350.0313,632.2813 349.2813,632.2813 Q348.5313,632.2813 348.0625,631.75 Q347.5938,631.2188 347.5938,630 L347.5938,626.7813 L343.8438,626.7813 Z "/><text fill="#000000" font-family="sans-serif" font-size="24" lengthAdjust="spacingAndGlyphs" textLength="166" x="370" y="641.8203">customerTable</text><line style="stroke: #383838; stroke-width: 3.0;" x1="314" x2="540" y1="664" y2="664"/><text fill="#000000" font-family="sans-serif" font-size="22" font-weight="bold" lengthAdjust="spacingAndGlyphs" textLength="112" x="324" y="694.8379">PK: idCust</text><text fill="#000000" font-family="sans-serif" font-size="22" lengthAdjust="spacingAndGlyphs" textLength="84" x="442" y="694.8379">INTEGER</text><text fill="#000000" font-family="sans-serif" font-size="22" font-weight="bold" lengthAdjust="spacingAndGlyphs" textLength="32" x="324" y="722.5098">FK:</text><text fill="#000000" font-family="sans-serif" font-size="22" lengthAdjust="spacingAndGlyphs" textLength="90" x="362" y="722.5098">city TEXT</text><line style="stroke: #383838; stroke-width: 2.0;" x1="314" x2="540" y1="735.3438" y2="735.3438"/><text fill="#000000" font-family="sans-serif" font-size="22" lengthAdjust="spacingAndGlyphs" textLength="136" x="324" y="766.1816">address TEXT</text><text fill="#000000" font-family="sans-serif" font-size="22" lengthAdjust="spacingAndGlyphs" textLength="104" x="324" y="793.8535">email TEXT</text><text fill="#000000" font-family="sans-serif" font-size="22" lengthAdjust="spacingAndGlyphs" textLength="108" x="324" y="821.5254">name TEXT</text><!--class orderTable--><rect fill="#F8F8F8" filter="url(#f16viee1zzruhi)" height="179.0156" id="orderTable" style="stroke: #383838; stroke-width: 3.0;" width="238" x="308" y="300"/><ellipse cx="362.3" cy="332" fill="#C3C3C3" rx="22" ry="22" style="stroke: #383838; stroke-width: 2.0;"/><path d="M364.1438,326.7813 L364.1438,340.0938 L366.4563,340.0938 Q367.675,340.0938 368.1906,340.5625 Q368.7063,341.0313 368.7063,341.8125 Q368.7063,342.5625 368.1906,343.0313 Q367.675,343.5 366.4563,343.5 L358.4875,343.5 Q357.2375,343.5 356.7219,343.0313 Q356.2063,342.5625 356.2063,341.7813 Q356.2063,341.0313 356.7219,340.5625 Q357.2375,340.0938 358.4875,340.0938 L360.7375,340.0938 L360.7375,326.7813 L357.05,326.7813 L357.05,330 Q357.05,331.2188 356.5813,331.75 Q356.1125,332.2813 355.3625,332.2813 Q354.6125,332.2813 354.1438,331.75 Q353.675,331.2188 353.675,330 L353.675,323.375 L371.3,323.375 L371.3,330 Q371.3,331.2188 370.8156,331.75 Q370.3313,332.2813 369.5813,332.2813 Q368.8313,332.2813 368.3625,331.75 Q367.8938,331.2188 367.8938,330 L367.8938,326.7813 L364.1438,326.7813 Z "/><text fill="#000000" font-family="sans-serif" font-size="24" lengthAdjust="spacingAndGlyphs" textLength="120" x="395.7" y="341.8203">orderTable</text><line style="stroke: #383838; stroke-width: 3.0;" x1="310" x2="544" y1="364" y2="364"/><text fill="#000000" font-family="sans-serif" font-size="22" font-weight="bold" lengthAdjust="spacingAndGlyphs" textLength="124" x="320" y="394.8379">PK: idOrder</text><text fill="#000000" font-family="sans-serif" font-size="22" lengthAdjust="spacingAndGlyphs" textLength="84" x="450" y="394.8379">INTEGER</text><text fill="#000000" font-family="sans-serif" font-size="22" font-weight="bold" lengthAdjust="spacingAndGlyphs" textLength="32" x="320" y="422.5098">FK:</text><text fill="#000000" font-family="sans-serif" font-size="22" lengthAdjust="spacingAndGlyphs" textLength="148" x="358" y="422.5098">custId INTEGER</text><line style="stroke: #383838; stroke-width: 2.0;" x1="310" x2="544" y1="435.3438" y2="435.3438"/><text fill="#000000" font-family="sans-serif" font-size="22" lengthAdjust="spacingAndGlyphs" textLength="102" x="320" y="466.1816">date DATE</text><!--class orderProductTable--><rect fill="#F8F8F8" filter="url(#f16viee1zzruhi)" height="163.0156" id="orderProductTable" style="stroke: #383838; stroke-width: 3.0;" width="268" x="141" y="16"/><ellipse cx="171" cy="48" fill="#C3C3C3" rx="22" ry="22" style="stroke: #383838; stroke-width: 2.0;"/><path d="M172.8438,42.7813 L172.8438,56.0938 L175.1563,56.0938 Q176.375,56.0938 176.8906,56.5625 Q177.4063,57.0313 177.4063,57.8125 Q177.4063,58.5625 176.8906,59.0313 Q176.375,59.5 175.1563,59.5 L167.1875,59.5 Q165.9375,59.5 165.4219,59.0313 Q164.9063,58.5625 164.9063,57.7813 Q164.9063,57.0313 165.4219,56.5625 Q165.9375,56.0938 167.1875,56.0938 L169.4375,56.0938 L169.4375,42.7813 L165.75,42.7813 L165.75,46 Q165.75,47.2188 165.2813,47.75 Q164.8125,48.2813 164.0625,48.2813 Q163.3125,48.2813 162.8438,47.75 Q162.375,47.2188 162.375,46 L162.375,39.375 L180,39.375 L180,46 Q180,47.2188 179.5156,47.75 Q179.0313,48.2813 178.2813,48.2813 Q177.5313,48.2813 177.0625,47.75 Q176.5938,47.2188 176.5938,46 L176.5938,42.7813 L172.8438,42.7813 Z "/><text fill="#000000" font-family="sans-serif" font-size="24" lengthAdjust="spacingAndGlyphs" textLength="204" x="199" y="57.8203">orderProductTable</text><line style="stroke: #383838; stroke-width: 3.0;" x1="143" x2="407" y1="80" y2="80"/><text fill="#000000" font-family="sans-serif" font-size="22" font-weight="bold" lengthAdjust="spacingAndGlyphs" textLength="122" x="153" y="110.8379">PK: orderId</text><text fill="#000000" font-family="sans-serif" font-size="22" lengthAdjust="spacingAndGlyphs" textLength="84" x="281" y="110.8379">INTEGER</text><text fill="#000000" font-family="sans-serif" font-size="22" font-weight="bold" lengthAdjust="spacingAndGlyphs" textLength="32" x="153" y="138.5098">FK:</text><text fill="#000000" font-family="sans-serif" font-size="22" lengthAdjust="spacingAndGlyphs" textLength="158" x="191" y="138.5098">orderId INTEGER</text><text fill="#000000" font-family="sans-serif" font-size="22" font-weight="bold" lengthAdjust="spacingAndGlyphs" textLength="32" x="153" y="166.1816">FK:</text><text fill="#000000" font-family="sans-serif" font-size="22" lengthAdjust="spacingAndGlyphs" textLength="180" x="191" y="166.1816">productId INTEGER</text><!--link cityTable to countryTable--><path d="M427,1134.492 C427,1172.786 427,1216.9146 427,1253.5452 " fill="none" id="cityTable-countryTable" style="stroke: #383838; stroke-width: 2.0;"/><text fill="#000000" font-family="sans-serif" font-size="26" lengthAdjust="spacingAndGlyphs" textLength="44" x="380.0438" y="1175.9055">0..n</text><text fill="#000000" font-family="sans-serif" font-size="26" lengthAdjust="spacingAndGlyphs" textLength="44" x="379.0813" y="1232.188">1..1</text><!--link customerTable to cityTable--><path d="M427,834.13 C427,873.532 427,916.85 427,953.846 " fill="none" id="customerTable-cityTable" style="stroke: #383838; stroke-width: 2.0;"/><text fill="#000000" font-family="sans-serif" font-size="26" lengthAdjust="spacingAndGlyphs" textLength="44" x="380.3188" y="877.3664">0..n</text><text fill="#000000" font-family="sans-serif" font-size="26" lengthAdjust="spacingAndGlyphs" textLength="44" x="379.4938" y="932.0524">1..1</text><!--link orderTable to customerTable--><path d="M427,480.22 C427,517.084 427,560.212 427,599.488 " fill="none" id="orderTable-customerTable" style="stroke: #383838; stroke-width: 2.0;"/><text fill="#000000" font-family="sans-serif" font-size="26" lengthAdjust="spacingAndGlyphs" textLength="44" x="379.9063" y="522.2661">0..n</text><text fill="#000000" font-family="sans-serif" font-size="26" lengthAdjust="spacingAndGlyphs" textLength="44" x="380.3188" y="578.2274">1..1</text><!--link orderProductTable to orderTable--><path d="M358.5,180.116 C358.5,217.394 358.5,261.596 358.5,299.798 " fill="none" id="orderProductTable-orderTable" style="stroke: #383838; stroke-width: 2.0;"/><text fill="#000000" font-family="sans-serif" font-size="26" lengthAdjust="spacingAndGlyphs" textLength="44" x="323.9172" y="222.2594">0..n</text><text fill="#000000" font-family="sans-serif" font-size="26" lengthAdjust="spacingAndGlyphs" textLength="44" x="300.0766" y="277.9968">1..1</text><!--link orderProductTable to productTable--><path d="M189.5,180.116 C189.5,221.95 189.5,272.5 189.5,313.506 " fill="none" id="orderProductTable-productTable" style="stroke: #383838; stroke-width: 2.0;"/><text fill="#000000" font-family="sans-serif" font-size="26" lengthAdjust="spacingAndGlyphs" textLength="44" x="129.0391" y="222.2594">0..n</text><text fill="#000000" font-family="sans-serif" font-size="26" lengthAdjust="spacingAndGlyphs" textLength="44" x="153.0703" y="292.1418">1..1</text><!--
@startuml

skinparam monochrome true
skinparam linetype ortho
scale 2


hide methods
hide stereotypes

class productTable << (T,#FFAAAA) >> {
	<b>PK: idProd</b> INTEGER
	- - -
	product TEXT
}

class countryTable << (T,#FFAAAA) >> {
	<b>PK: idCountry</b> INTEGER
	- - -
	country TEXT
}

class cityTable << (T,#FFAAAA) >> {
	<b>PK: idCity</b> INTEGER
	<b>FK: </b>country TEXT
	- - -
	city TEXT
}

class customerTable << (T,#FFAAAA) >> {
	<b>PK: idCust</b> INTEGER
	<b>FK: </b>city TEXT
	- - -
	address TEXT
	email TEXT
	name TEXT
}

class orderTable << (T,#FFAAAA) >> {
	<b>PK: idOrder</b> INTEGER
	<b>FK: </b>custId INTEGER
	- - -
	date DATE
}

class orderProductTable << (T,#FFAAAA) >> {
	<b>PK: orderId</b> INTEGER
	<b>FK: </b>orderId INTEGER
	<b>FK: </b>productId INTEGER
}

cityTable "0..n" - - "1..1" countryTable
customerTable "0..n" - - "1..1" cityTable
orderTable "0..n" - - "1..1" customerTable
orderProductTable "0..n" - - "1..1" orderTable
orderProductTable "0..n" - - "1..1" productTable

@enduml

PlantUML version 1.2017.19(Sun Nov 12 22:46:22 AEDT 2017)
(GPL source distribution)
Java Runtime: Java(TM) SE Runtime Environment
JVM: Java HotSpot(TM) 64-Bit Server VM
Java Version: 1.8.0_151-b12
Operating System: Windows Server 2012 R2
OS Version: 6.3
Default Encoding: UTF-8
Language: en
Country: US
--></g></svg>