<?xml version="1.0" encoding="UTF-8" standalone="no"?><svg xmlns="http://www.w3.org/2000/svg" xmlns:xlink="http://www.w3.org/1999/xlink" contentScriptType="application/ecmascript" contentStyleType="text/css" height="347px" preserveAspectRatio="none" style="width:397px;height:347px;" version="1.1" viewBox="0 0 397 347" width="397px" zoomAndPan="magnify"><defs><filter height="300%" id="f1j75jiq8kcujc" width="300%" x="-1" y="-1"><feGaussianBlur result="blurOut" stdDeviation="2.0"/><feColorMatrix in="blurOut" result="blurOut2" type="matrix" values="0 0 0 0 0 0 0 0 0 0 0 0 0 0 0 0 0 0 .4 0"/><feOffset dx="4.0" dy="4.0" in="blurOut2" result="blurOut3"/><feBlend in="SourceGraphic" in2="blurOut3" mode="normal"/></filter></defs><g><line style="stroke: #A80036; stroke-width: 1.0; stroke-dasharray: 5.0,5.0;" x1="25" x2="25" y1="87.6094" y2="259.3672"/><line style="stroke: #A80036; stroke-width: 1.0; stroke-dasharray: 5.0,5.0;" x1="120" x2="120" y1="87.6094" y2="259.3672"/><line style="stroke: #A80036; stroke-width: 1.0; stroke-dasharray: 5.0,5.0;" x1="181" x2="181" y1="87.6094" y2="259.3672"/><line style="stroke: #A80036; stroke-width: 1.0; stroke-dasharray: 5.0,5.0;" x1="242" x2="242" y1="87.6094" y2="259.3672"/><line style="stroke: #A80036; stroke-width: 1.0; stroke-dasharray: 5.0,5.0;" x1="303" x2="303" y1="87.6094" y2="259.3672"/><line style="stroke: #A80036; stroke-width: 1.0; stroke-dasharray: 5.0,5.0;" x1="364" x2="364" y1="87.6094" y2="259.3672"/><text fill="#000000" font-family="sans-serif" font-size="14" lengthAdjust="spacingAndGlyphs" textLength="29" x="8" y="84.5332">User</text><ellipse cx="25.5" cy="13" fill="#FEFECE" filter="url(#f1j75jiq8kcujc)" rx="8" ry="8" style="stroke: #A80036; stroke-width: 2.0;"/><path d="M25.5,21 L25.5,48 M12.5,29 L38.5,29 M25.5,48 L12.5,63 M25.5,48 L38.5,63 " fill="#FEFECE" filter="url(#f1j75jiq8kcujc)" style="stroke: #A80036; stroke-width: 2.0;"/><text fill="#000000" font-family="sans-serif" font-size="14" lengthAdjust="spacingAndGlyphs" textLength="29" x="8" y="272.9004">User</text><ellipse cx="25.5" cy="285.9766" fill="#FEFECE" filter="url(#f1j75jiq8kcujc)" rx="8" ry="8" style="stroke: #A80036; stroke-width: 2.0;"/><path d="M25.5,293.9766 L25.5,320.9766 M12.5,301.9766 L38.5,301.9766 M25.5,320.9766 L12.5,335.9766 M25.5,320.9766 L38.5,335.9766 " fill="#FEFECE" filter="url(#f1j75jiq8kcujc)" style="stroke: #A80036; stroke-width: 2.0;"/><rect fill="#FEFECE" filter="url(#f1j75jiq8kcujc)" height="31.6094" style="stroke: #A80036; stroke-width: 1.5;" width="47" x="95" y="51"/><text fill="#000000" font-family="sans-serif" font-size="14" lengthAdjust="spacingAndGlyphs" textLength="33" x="102" y="72.5332">Foo2</text><rect fill="#FEFECE" filter="url(#f1j75jiq8kcujc)" height="31.6094" style="stroke: #A80036; stroke-width: 1.5;" width="47" x="95" y="258.3672"/><text fill="#000000" font-family="sans-serif" font-size="14" lengthAdjust="spacingAndGlyphs" textLength="33" x="102" y="279.9004">Foo2</text><rect fill="#FEFECE" filter="url(#f1j75jiq8kcujc)" height="31.6094" style="stroke: #A80036; stroke-width: 1.5;" width="47" x="156" y="51"/><text fill="#000000" font-family="sans-serif" font-size="14" lengthAdjust="spacingAndGlyphs" textLength="33" x="163" y="72.5332">Foo3</text><rect fill="#FEFECE" filter="url(#f1j75jiq8kcujc)" height="31.6094" style="stroke: #A80036; stroke-width: 1.5;" width="47" x="156" y="258.3672"/><text fill="#000000" font-family="sans-serif" font-size="14" lengthAdjust="spacingAndGlyphs" textLength="33" x="163" y="279.9004">Foo3</text><rect fill="#FEFECE" filter="url(#f1j75jiq8kcujc)" height="31.6094" style="stroke: #A80036; stroke-width: 1.5;" width="47" x="217" y="51"/><text fill="#000000" font-family="sans-serif" font-size="14" lengthAdjust="spacingAndGlyphs" textLength="33" x="224" y="72.5332">Foo4</text><rect fill="#FEFECE" filter="url(#f1j75jiq8kcujc)" height="31.6094" style="stroke: #A80036; stroke-width: 1.5;" width="47" x="217" y="258.3672"/><text fill="#000000" font-family="sans-serif" font-size="14" lengthAdjust="spacingAndGlyphs" textLength="33" x="224" y="279.9004">Foo4</text><rect fill="#FEFECE" filter="url(#f1j75jiq8kcujc)" height="31.6094" style="stroke: #A80036; stroke-width: 1.5;" width="47" x="278" y="51"/><text fill="#000000" font-family="sans-serif" font-size="14" lengthAdjust="spacingAndGlyphs" textLength="33" x="285" y="72.5332">Foo5</text><rect fill="#FEFECE" filter="url(#f1j75jiq8kcujc)" height="31.6094" style="stroke: #A80036; stroke-width: 1.5;" width="47" x="278" y="258.3672"/><text fill="#000000" font-family="sans-serif" font-size="14" lengthAdjust="spacingAndGlyphs" textLength="33" x="285" y="279.9004">Foo5</text><rect fill="#FEFECE" filter="url(#f1j75jiq8kcujc)" height="31.6094" style="stroke: #A80036; stroke-width: 1.5;" width="47" x="339" y="51"/><text fill="#000000" font-family="sans-serif" font-size="14" lengthAdjust="spacingAndGlyphs" textLength="33" x="346" y="72.5332">Foo6</text><rect fill="#FEFECE" filter="url(#f1j75jiq8kcujc)" height="31.6094" style="stroke: #A80036; stroke-width: 1.5;" width="47" x="339" y="258.3672"/><text fill="#000000" font-family="sans-serif" font-size="14" lengthAdjust="spacingAndGlyphs" textLength="33" x="346" y="279.9004">Foo6</text><polygon fill="#A80036" points="108.5,115.6094,118.5,119.6094,108.5,123.6094,112.5,119.6094" style="stroke: #A80036; stroke-width: 1.0;"/><line style="stroke: #A80036; stroke-width: 1.0;" x1="25.5" x2="114.5" y1="119.6094" y2="119.6094"/><text fill="#000000" font-family="sans-serif" font-size="13" lengthAdjust="spacingAndGlyphs" textLength="71" x="32.5" y="115.1045">To boundary</text><polygon fill="#A80036" points="169.5,145.9609,179.5,149.9609,169.5,153.9609,173.5,149.9609" style="stroke: #A80036; stroke-width: 1.0;"/><line style="stroke: #A80036; stroke-width: 1.0;" x1="25.5" x2="175.5" y1="149.9609" y2="149.9609"/><text fill="#000000" font-family="sans-serif" font-size="13" lengthAdjust="spacingAndGlyphs" textLength="57" x="32.5" y="145.4561">To control</text><polygon fill="#A80036" points="230.5,176.3125,240.5,180.3125,230.5,184.3125,234.5,180.3125" style="stroke: #A80036; stroke-width: 1.0;"/><line style="stroke: #A80036; stroke-width: 1.0;" x1="25.5" x2="236.5" y1="180.3125" y2="180.3125"/><text fill="#000000" font-family="sans-serif" font-size="13" lengthAdjust="spacingAndGlyphs" textLength="50" x="32.5" y="175.8076">To entity</text><polygon fill="#A80036" points="291.5,206.6641,301.5,210.6641,291.5,214.6641,295.5,210.6641" style="stroke: #A80036; stroke-width: 1.0;"/><line style="stroke: #A80036; stroke-width: 1.0;" x1="25.5" x2="297.5" y1="210.6641" y2="210.6641"/><text fill="#000000" font-family="sans-serif" font-size="13" lengthAdjust="spacingAndGlyphs" textLength="71" x="32.5" y="206.1592">To database</text><polygon fill="#A80036" points="352.5,237.0156,362.5,241.0156,352.5,245.0156,356.5,241.0156" style="stroke: #A80036; stroke-width: 1.0;"/><line style="stroke: #A80036; stroke-width: 1.0;" x1="25.5" x2="358.5" y1="241.0156" y2="241.0156"/><text fill="#000000" font-family="sans-serif" font-size="13" lengthAdjust="spacingAndGlyphs" textLength="80" x="32.5" y="236.5107">To collections</text><!--
@startuml

actor User

User -> Foo2 : To boundary
User -> Foo3 : To control
User -> Foo4 : To entity
User -> Foo5 : To database
User -> Foo6 : To collections

@enduml

PlantUML version 1.2017.19(Sun Nov 12 22:46:22 AEDT 2017)
(GPL source distribution)
Java Runtime: Java(TM) SE Runtime Environment
JVM: Java HotSpot(TM) 64-Bit Server VM
Java Version: 1.8.0_151-b12
Operating System: Windows Server 2012 R2
OS Version: 6.3
Default Encoding: UTF-8
Language: en
Country: US
--></g></svg>