<?xml version="1.0" encoding="UTF-8" standalone="no"?><svg xmlns="http://www.w3.org/2000/svg" xmlns:xlink="http://www.w3.org/1999/xlink" contentScriptType="application/ecmascript" contentStyleType="text/css" height="441px" preserveAspectRatio="none" style="width:1251px;height:441px;" version="1.1" viewBox="0 0 1251 441" width="1251px" zoomAndPan="magnify"><defs><filter height="300%" id="fywiyrvl9wxls" width="300%" x="-1" y="-1"><feGaussianBlur result="blurOut" stdDeviation="2.0"/><feColorMatrix in="blurOut" result="blurOut2" type="matrix" values="0 0 0 0 0 0 0 0 0 0 0 0 0 0 0 0 0 0 .4 0"/><feOffset dx="4.0" dy="4.0" in="blurOut2" result="blurOut3"/><feBlend in="SourceGraphic" in2="blurOut3" mode="normal"/></filter></defs><g><text fill="#000000" font-family="sans-serif" font-size="18" lengthAdjust="spacingAndGlyphs" textLength="130" x="571" y="18.6855">Use Case: PMO</text><!--cluster OFFLINE_APP--><polygon fill="#FFFFFF" filter="url(#fywiyrvl9wxls)" points="189.5,197.6406,199.5,187.6406,1229.5,187.6406,1229.5,419.6406,1219.5,429.6406,189.5,429.6406,189.5,197.6406" style="stroke: #000000; stroke-width: 2.0;"/><line style="stroke: #000000; stroke-width: 2.0;" x1="1219.5" x2="1228.5" y1="197.6406" y2="188.6406"/><line style="stroke: #000000; stroke-width: 2.0;" x1="189.5" x2="1219.5" y1="197.6406" y2="197.6406"/><line style="stroke: #000000; stroke-width: 2.0;" x1="1219.5" x2="1219.5" y1="197.6406" y2="429.6406"/><text fill="#000000" font-family="sans-serif" font-size="14" font-weight="bold" lengthAdjust="spacingAndGlyphs" textLength="30" x="690.5" y="215.1738">iPad</text><!--cluster dashboard--><polygon fill="#FFFFFF" filter="url(#fywiyrvl9wxls)" points="229.5,258.6406,310.5,258.6406,317.5,282.25,527.5,282.25,527.5,383.6406,229.5,383.6406,229.5,258.6406" style="stroke: #000000; stroke-width: 2.0;"/><line style="stroke: #000000; stroke-width: 2.0;" x1="229.5" x2="317.5" y1="282.25" y2="282.25"/><text fill="#000000" font-family="sans-serif" font-size="14" font-weight="bold" lengthAdjust="spacingAndGlyphs" textLength="75" x="233.5" y="275.1738">dashboard</text><text fill="#000000" font-family="sans-serif" font-size="14" font-style="italic" lengthAdjust="spacingAndGlyphs" textLength="48" x="358.5" y="298.7832">«page»</text><!--cluster pack--><polygon fill="#FFFFFF" filter="url(#fywiyrvl9wxls)" points="551.5,244.6406,590.5,244.6406,597.5,268.25,1197.5,268.25,1197.5,397.6406,551.5,397.6406,551.5,244.6406" style="stroke: #000000; stroke-width: 2.0;"/><line style="stroke: #000000; stroke-width: 2.0;" x1="551.5" x2="597.5" y1="268.25" y2="268.25"/><text fill="#000000" font-family="sans-serif" font-size="14" font-weight="bold" lengthAdjust="spacingAndGlyphs" textLength="33" x="555.5" y="261.1738">pack</text><text fill="#000000" font-family="sans-serif" font-size="14" font-style="italic" lengthAdjust="spacingAndGlyphs" textLength="48" x="854.5" y="284.7832">«page»</text><ellipse cx="277.4616" cy="340.3099" fill="#FEFECE" filter="url(#fywiyrvl9wxls)" rx="31.9616" ry="26.1693" style="stroke: #A80036; stroke-width: 1.5;"/><text fill="#000000" font-family="sans-serif" font-size="14" lengthAdjust="spacingAndGlyphs" textLength="40" x="257.4616" y="337.6617">review</text><text fill="#000000" font-family="sans-serif" font-size="14" lengthAdjust="spacingAndGlyphs" textLength="35" x="259.9616" y="355.2711">alerts</text><ellipse cx="380.564" cy="340.042" fill="#FEFECE" filter="url(#fywiyrvl9wxls)" rx="35.564" ry="27.4014" style="stroke: #A80036; stroke-width: 1.5;"/><text fill="#000000" font-family="sans-serif" font-size="14" lengthAdjust="spacingAndGlyphs" textLength="43" x="359.064" y="335.8246">search</text><text fill="#000000" font-family="sans-serif" font-size="14" lengthAdjust="spacingAndGlyphs" textLength="47" x="357.064" y="353.4339">content</text><ellipse cx="481.4284" cy="340.1834" fill="#FEFECE" filter="url(#fywiyrvl9wxls)" rx="29.9284" ry="24.5427" style="stroke: #A80036; stroke-width: 1.5;"/><text fill="#000000" font-family="sans-serif" font-size="14" lengthAdjust="spacingAndGlyphs" textLength="32" x="465.4284" y="336.965">open</text><text fill="#000000" font-family="sans-serif" font-size="14" lengthAdjust="spacingAndGlyphs" textLength="30" x="466.4284" y="354.5744">pack</text><ellipse cx="605.5397" cy="339.9935" fill="#FEFECE" filter="url(#fywiyrvl9wxls)" rx="38.0397" ry="25.8528" style="stroke: #A80036; stroke-width: 1.5;"/><text fill="#000000" font-family="sans-serif" font-size="14" lengthAdjust="spacingAndGlyphs" textLength="54" x="578.5397" y="339.5371">navigate</text><text fill="#000000" font-family="sans-serif" font-size="14" lengthAdjust="spacingAndGlyphs" textLength="30" x="590.5397" y="357.1464">pack</text><ellipse cx="707.7234" cy="340.1193" fill="#FEFECE" filter="url(#fywiyrvl9wxls)" rx="29.2234" ry="23.9787" style="stroke: #A80036; stroke-width: 1.5;"/><text fill="#000000" font-family="sans-serif" font-size="14" lengthAdjust="spacingAndGlyphs" textLength="29" x="693.2234" y="336.7488">read</text><text fill="#000000" font-family="sans-serif" font-size="14" lengthAdjust="spacingAndGlyphs" textLength="28" x="693.7234" y="354.3582">brief</text><ellipse cx="827.4197" cy="340.0574" fill="#FEFECE" filter="url(#fywiyrvl9wxls)" rx="55.4197" ry="41.4168" style="stroke: #A80036; stroke-width: 1.5;"/><text fill="#000000" font-family="sans-serif" font-size="14" lengthAdjust="spacingAndGlyphs" textLength="83" x="785.9197" y="330.6969">if policy brief.</text><line style="stroke: #A80036; stroke-width: 1.0;" x1="773.6417" x2="881.1978" y1="333.7731" y2="333.7731"/><text fill="#000000" font-family="sans-serif" font-size="14" lengthAdjust="spacingAndGlyphs" textLength="34" x="810.4197" y="352.3063">make</text><text fill="#000000" font-family="sans-serif" font-size="14" lengthAdjust="spacingAndGlyphs" textLength="52" x="801.4197" y="369.9157">decision</text><ellipse cx="958.7014" cy="340.1263" fill="#FEFECE" filter="url(#fywiyrvl9wxls)" rx="40.2014" ry="25.9857" style="stroke: #A80036; stroke-width: 1.5;"/><text fill="#000000" font-family="sans-serif" font-size="14" lengthAdjust="spacingAndGlyphs" textLength="34" x="941.7014" y="333.7904">make</text><text fill="#000000" font-family="sans-serif" font-size="14" lengthAdjust="spacingAndGlyphs" textLength="57" x="930.2014" y="351.3997">comment</text><ellipse cx="1107.449" cy="340.2304" fill="#FEFECE" filter="url(#fywiyrvl9wxls)" rx="73.449" ry="17.0898" style="stroke: #A80036; stroke-width: 1.5;"/><text fill="#000000" font-family="sans-serif" font-size="14" lengthAdjust="spacingAndGlyphs" textLength="110" x="1052.449" y="345.5351">read\attachments</text><!--entity User--><ellipse cx="655.5" cy="58.25" fill="#FFA07A" filter="url(#fywiyrvl9wxls)" rx="8" ry="8" style="stroke: #000000; stroke-width: 2.0;"/><path d="M655.5,66.25 L655.5,93.25 M642.5,74.25 L668.5,74.25 M655.5,93.25 L642.5,108.25 M655.5,93.25 L668.5,108.25 " fill="#FFA07A" filter="url(#fywiyrvl9wxls)" style="stroke: #000000; stroke-width: 2.0;"/><text fill="#000000" font-family="sans-serif" font-size="14" lengthAdjust="spacingAndGlyphs" textLength="29" x="641" y="129.7832">User</text><text fill="#000000" font-family="sans-serif" font-size="14" font-style="italic" lengthAdjust="spacingAndGlyphs" textLength="60" x="625.5" y="45.1738">«person»</text><!--entity MI--><rect fill="#FEFECE" filter="url(#fywiyrvl9wxls)" height="55.2188" style="stroke: #A80036; stroke-width: 1.5;" width="89" x="6" y="312.6406"/><rect fill="#FEFECE" height="5" style="stroke: #A80036; stroke-width: 1.5;" width="10" x="1" y="317.6406"/><rect fill="#FEFECE" height="5" style="stroke: #A80036; stroke-width: 1.5;" width="10" x="1" y="357.8594"/><text fill="#000000" font-family="sans-serif" font-size="14" font-style="italic" lengthAdjust="spacingAndGlyphs" textLength="60" x="20.5" y="337.1738">«system»</text><text fill="#000000" font-family="sans-serif" font-size="14" lengthAdjust="spacingAndGlyphs" textLength="69" x="16" y="354.7832">Mobile Iron</text><!--link User to review\nalerts--><path d="M625.5,81.7156 C561.611,81.4416 411.14,90.0756 327.5,171.6406 C288.283,209.8846 279.511,277.4686 277.748,314.0066 " fill="none" id="User-review\nalerts" style="stroke: #A80036; stroke-width: 1.0;"/><!--link User to search\ncontent--><path d="M625.415,86.4476 C577.917,94.0416 485.608,115.4796 433.5,171.6406 C396.78,211.2166 385.501,276.1386 382.036,312.4386 " fill="none" id="User-search\ncontent" style="stroke: #A80036; stroke-width: 1.0;"/><!--link User to open\npack--><path d="M625.239,102.6166 C602.455,118.9326 571.784,143.7856 551.5,171.6406 C518.012,217.6276 496.948,282.0356 487.436,316.0266 " fill="none" id="User-open\npack" style="stroke: #A80036; stroke-width: 1.0;"/><!--link User to navigate\npack--><path d="M645.741,132.7056 C635.112,187.2316 618.539,272.2496 610.378,314.1176 " fill="none" id="User-navigate\npack" style="stroke: #A80036; stroke-width: 1.0;"/><!--link User to read\nbrief--><path d="M665.65,132.7056 C676.911,188.2526 694.587,275.4426 702.894,316.4226 " fill="none" id="User-read\nbrief" style="stroke: #A80036; stroke-width: 1.0;"/><!--link User to RA--><path d="M685.946,104.3826 C707.342,120.8946 735.439,145.2086 754.5,171.6406 C783.074,211.2636 803.687,263.8296 815.577,299.4276 " fill="none" id="User-RA" style="stroke: #A80036; stroke-width: 1.0;"/><!--link User to make\ncomment--><path d="M685.538,85.3136 C736.652,91.4426 840.797,111.0286 900.5,171.6406 C939.372,211.1036 952.255,277.8816 956.478,314.0526 " fill="none" id="User-make\ncomment" style="stroke: #A80036; stroke-width: 1.0;"/><!--link User to read\attachments--><path d="M685.595,82.2336 C752.268,82.8546 914.563,92.9476 1016.5,171.6406 C1068.24,211.5816 1094.31,289.5886 1103.52,323.1546 " fill="none" id="User-read\attachments" style="stroke: #A80036; stroke-width: 1.0;"/><!--link MI to OFFLINE_APP--><path d="M100.3947,340.1406 C120.6664,340.1406 143.6184,340.1406 162.1168,340.1406 C171.366,340.1406 179.5018,340.1406 185.6324,340.1406 C186.3988,340.1406 187.1338,340.1406 187.8357,340.1406 C188.1867,340.1406 188.5293,340.1406 188.8636,340.1406 C189.0307,340.1406 189.1956,340.1406 189.3585,340.1406 " fill="none" id="MI-OFFLINE_APP" style="stroke: #A80036; stroke-width: 1.0;"/><polygon fill="#A80036" points="95.0038,340.1406,104.0038,344.1406,100.0038,340.1406,104.0038,336.1406,95.0038,340.1406" style="stroke: #A80036; stroke-width: 1.0;"/><text fill="#000000" font-family="sans-serif" font-size="13" lengthAdjust="spacingAndGlyphs" textLength="66" x="113.07" y="333.6357">Secured by</text><!--
@startuml
skinparam handwritten false
skinparam actor {
    backgroundColor<<person>> LightSalmon
    borderColor<<person>> Black
}


' uncomment the line below if you're using computer with a retina display
' skinparam dpi 300
' we use bold for primary key
' green color for unique
' and underscore for not_null
' other tags available:
' <i></i>
' <back:COLOR></color>, where color is a color name or html color code
' (#FFAACC)
' see: http://plantuml.com/classes.html#More
title Use Case: PMO

actor :User: <<person>>

node "iPad" as OFFLINE_APP {    

    folder "dashboard" <<page>> {
        :User: -down- (review\nalerts)     
        :User: -down- (search\ncontent) 
        :User: -down- (open\npack)
    }

    folder "pack" <<page>> {
        :User: -down- (navigate\npack)
        :User: -down- (read\nbrief)

        usecase RA as "if policy brief.
        - -
        make
        decision"

        :User: -down- RA
        :User: -down- (make\ncomment)
        :User: -down- (read\attachments)
    }    
}

component "Mobile Iron" <<system>> as MI
OFFLINE_APP -left-> MI : Secured by

@enduml

PlantUML version 1.2017.19(Sun Nov 12 22:46:22 AEDT 2017)
(GPL source distribution)
Java Runtime: Java(TM) SE Runtime Environment
JVM: Java HotSpot(TM) 64-Bit Server VM
Java Version: 1.8.0_151-b12
Operating System: Windows Server 2012 R2
OS Version: 6.3
Default Encoding: UTF-8
Language: en
Country: US
--></g></svg>