<?xml version="1.0" encoding="UTF-8" standalone="no"?><svg xmlns="http://www.w3.org/2000/svg" xmlns:xlink="http://www.w3.org/1999/xlink" contentScriptType="application/ecmascript" contentStyleType="text/css" height="269px" preserveAspectRatio="none" style="width:2136px;height:269px;" version="1.1" viewBox="0 0 2136 269" width="2136px" zoomAndPan="magnify"><defs><filter height="300%" id="fsyu69novh0js" width="300%" x="-1" y="-1"><feGaussianBlur result="blurOut" stdDeviation="2.0"/><feColorMatrix in="blurOut" result="blurOut2" type="matrix" values="0 0 0 0 0 0 0 0 0 0 0 0 0 0 0 0 0 0 .4 0"/><feOffset dx="4.0" dy="4.0" in="blurOut2" result="blurOut3"/><feBlend in="SourceGraphic" in2="blurOut3" mode="normal"/></filter></defs><g><text fill="#000000" font-family="sans-serif" font-size="18" lengthAdjust="spacingAndGlyphs" textLength="143" x="999.5" y="18.6855">Use Case: DSuite</text><!--cluster DSuite--><polygon fill="#FFFFFF" filter="url(#fsyu69novh0js)" points="86.5,129.6406,138.5,129.6406,145.5,153.25,1535.5,153.25,1535.5,245.6406,86.5,245.6406,86.5,129.6406" style="stroke: #000000; stroke-width: 2.0;"/><line style="stroke: #000000; stroke-width: 2.0;" x1="86.5" x2="145.5" y1="153.25" y2="153.25"/><text fill="#000000" font-family="sans-serif" font-size="14" font-weight="bold" lengthAdjust="spacingAndGlyphs" textLength="46" x="90.5" y="146.1738">DSuite</text><ellipse cx="1483.734" cy="207.5923" fill="#FEFECE" filter="url(#fsyu69novh0js)" rx="36.234" ry="15.4517" style="stroke: #A80036; stroke-width: 1.5;"/><text fill="#000000" font-family="sans-serif" font-size="14" lengthAdjust="spacingAndGlyphs" textLength="47" x="1460.234" y="212.897">Notified</text><ellipse cx="1373.6127" cy="207.5923" fill="#FEFECE" filter="url(#fsyu69novh0js)" rx="34.1127" ry="15.4517" style="stroke: #A80036; stroke-width: 1.5;"/><text fill="#000000" font-family="sans-serif" font-size="14" lengthAdjust="spacingAndGlyphs" textLength="44" x="1351.6127" y="212.897">Decide</text><ellipse cx="1280.7132" cy="207.5923" fill="#FEFECE" filter="url(#fsyu69novh0js)" rx="24.2132" ry="15.4517" style="stroke: #A80036; stroke-width: 1.5;"/><text fill="#000000" font-family="sans-serif" font-size="14" lengthAdjust="spacingAndGlyphs" textLength="30" x="1265.7132" y="212.897">Chat</text><ellipse cx="992.7046" cy="207.5923" fill="#FEFECE" filter="url(#fsyu69novh0js)" rx="53.2046" ry="15.4517" style="stroke: #A80036; stroke-width: 1.5;"/><text fill="#000000" font-family="sans-serif" font-size="14" lengthAdjust="spacingAndGlyphs" textLength="71" x="957.2046" y="212.897">CRUA Brief</text><ellipse cx="536.3051" cy="207.5923" fill="#FEFECE" filter="url(#fsyu69novh0js)" rx="43.3051" ry="15.4517" style="stroke: #A80036; stroke-width: 1.5;"/><text fill="#000000" font-family="sans-serif" font-size="14" lengthAdjust="spacingAndGlyphs" textLength="57" x="507.8051" y="212.897">Workflow</text><ellipse cx="201.6681" cy="207.8743" fill="#FEFECE" filter="url(#fsyu69novh0js)" rx="99.1681" ry="22.2336" style="stroke: #A80036; stroke-width: 1.5;"/><text fill="#000000" font-family="sans-serif" font-size="14" lengthAdjust="spacingAndGlyphs" textLength="171" x="116.1681" y="213.1789">Submit Cross Domain Pack</text><ellipse cx="849.6188" cy="207.5923" fill="#FEFECE" filter="url(#fsyu69novh0js)" rx="54.6188" ry="15.4517" style="stroke: #A80036; stroke-width: 1.5;"/><text fill="#000000" font-family="sans-serif" font-size="14" lengthAdjust="spacingAndGlyphs" textLength="73" x="813.1188" y="212.897">CRUA Pack</text><ellipse cx="687.6711" cy="207.5748" fill="#FEFECE" filter="url(#fsyu69novh0js)" rx="72.6711" ry="16.9342" style="stroke: #A80036; stroke-width: 1.5;"/><text fill="#000000" font-family="sans-serif" font-size="14" lengthAdjust="spacingAndGlyphs" textLength="108" x="633.6711" y="212.8795">CRUA Navigation</text><ellipse cx="396.4828" cy="207.5923" fill="#FEFECE" filter="url(#fsyu69novh0js)" rx="60.9828" ry="15.4517" style="stroke: #A80036; stroke-width: 1.5;"/><text fill="#000000" font-family="sans-serif" font-size="14" lengthAdjust="spacingAndGlyphs" textLength="82" x="355.4828" y="212.897">CRUA Group</text><!--entity P_VIP--><ellipse cx="36.5" cy="184.25" fill="#FEFECE" filter="url(#fsyu69novh0js)" rx="8" ry="8" style="stroke: #A80036; stroke-width: 2.0;"/><path d="M36.5,192.25 L36.5,219.25 M23.5,200.25 L49.5,200.25 M36.5,219.25 L23.5,234.25 M36.5,219.25 L49.5,234.25 " fill="#FEFECE" filter="url(#fsyu69novh0js)" style="stroke: #A80036; stroke-width: 2.0;"/><text fill="#000000" font-family="sans-serif" font-size="14" lengthAdjust="spacingAndGlyphs" textLength="21" x="26" y="255.7832">VIP</text><text fill="#000000" font-family="sans-serif" font-size="14" font-style="italic" lengthAdjust="spacingAndGlyphs" textLength="61" x="6" y="171.1738">«Person»</text><!--entity P_PMO--><ellipse cx="1616.5" cy="184.25" fill="#FEFECE" filter="url(#fsyu69novh0js)" rx="8" ry="8" style="stroke: #A80036; stroke-width: 2.0;"/><path d="M1616.5,192.25 L1616.5,219.25 M1603.5,200.25 L1629.5,200.25 M1616.5,219.25 L1603.5,234.25 M1616.5,219.25 L1629.5,234.25 " fill="#FEFECE" filter="url(#fsyu69novh0js)" style="stroke: #A80036; stroke-width: 2.0;"/><text fill="#000000" font-family="sans-serif" font-size="14" lengthAdjust="spacingAndGlyphs" textLength="31" x="1601" y="255.7832">PMO</text><text fill="#000000" font-family="sans-serif" font-size="14" font-style="italic" lengthAdjust="spacingAndGlyphs" textLength="61" x="1586" y="171.1738">«Person»</text><!--entity P_OFFICER--><ellipse cx="1862.5" cy="184.25" fill="#FEFECE" filter="url(#fsyu69novh0js)" rx="8" ry="8" style="stroke: #A80036; stroke-width: 2.0;"/><path d="M1862.5,192.25 L1862.5,219.25 M1849.5,200.25 L1875.5,200.25 M1862.5,219.25 L1849.5,234.25 M1862.5,219.25 L1875.5,234.25 " fill="#FEFECE" filter="url(#fsyu69novh0js)" style="stroke: #A80036; stroke-width: 2.0;"/><text fill="#000000" font-family="sans-serif" font-size="14" lengthAdjust="spacingAndGlyphs" textLength="138" x="1793.5" y="255.7832">Departmental Officers</text><text fill="#000000" font-family="sans-serif" font-size="14" font-style="italic" lengthAdjust="spacingAndGlyphs" textLength="61" x="1832" y="171.1738">«Person»</text><!--entity P_PACK_OWNER--><ellipse cx="1720.5" cy="184.25" fill="#FEFECE" filter="url(#fsyu69novh0js)" rx="8" ry="8" style="stroke: #A80036; stroke-width: 2.0;"/><path d="M1720.5,192.25 L1720.5,219.25 M1707.5,200.25 L1733.5,200.25 M1720.5,219.25 L1707.5,234.25 M1720.5,219.25 L1733.5,234.25 " fill="#FEFECE" filter="url(#fsyu69novh0js)" style="stroke: #A80036; stroke-width: 2.0;"/><text fill="#000000" font-family="sans-serif" font-size="14" lengthAdjust="spacingAndGlyphs" textLength="76" x="1682.5" y="255.7832">Pack Owner</text><text fill="#000000" font-family="sans-serif" font-size="14" font-style="italic" lengthAdjust="spacingAndGlyphs" textLength="61" x="1690" y="171.1738">«Person»</text><!--entity P_ADMIN--><ellipse cx="1997.5" cy="184.25" fill="#FEFECE" filter="url(#fsyu69novh0js)" rx="8" ry="8" style="stroke: #A80036; stroke-width: 2.0;"/><path d="M1997.5,192.25 L1997.5,219.25 M1984.5,200.25 L2010.5,200.25 M1997.5,219.25 L1984.5,234.25 M1997.5,219.25 L2010.5,234.25 " fill="#FEFECE" filter="url(#fsyu69novh0js)" style="stroke: #A80036; stroke-width: 2.0;"/><text fill="#000000" font-family="sans-serif" font-size="14" lengthAdjust="spacingAndGlyphs" textLength="39" x="1978" y="255.7832">Admin</text><text fill="#000000" font-family="sans-serif" font-size="14" font-style="italic" lengthAdjust="spacingAndGlyphs" textLength="61" x="1967" y="171.1738">«Person»</text><!--entity P_EXTERNAL--><ellipse cx="2093.5" cy="184.25" fill="#FEFECE" filter="url(#fsyu69novh0js)" rx="8" ry="8" style="stroke: #A80036; stroke-width: 2.0;"/><path d="M2093.5,192.25 L2093.5,219.25 M2080.5,200.25 L2106.5,200.25 M2093.5,219.25 L2080.5,234.25 M2093.5,219.25 L2106.5,234.25 " fill="#FEFECE" filter="url(#fsyu69novh0js)" style="stroke: #A80036; stroke-width: 2.0;"/><text fill="#000000" font-family="sans-serif" font-size="14" lengthAdjust="spacingAndGlyphs" textLength="51" x="2068" y="255.7832">External</text><text fill="#000000" font-family="sans-serif" font-size="14" font-style="italic" lengthAdjust="spacingAndGlyphs" textLength="61" x="2063" y="171.1738">«Person»</text><!--link P_VIP to 2--><path d="M55.0717,156.3016 C62.6332,142.6306 72.8863,129.4936 86.5,121.6406 C150.456,84.7486 1341.67,118.7236 1415.5,118.6406 C1429.72,118.6246 1435.71,110.6896 1447.5,118.6406 C1469.92,133.7586 1478.38,165.4635 1481.57,186.6575 " fill="none" id="P_VIP-2" style="stroke: #A80036; stroke-width: 1.0; stroke-dasharray: 7.0,7.0;"/><polygon fill="#A80036" points="1482.28,191.8029,1485.0225,182.3436,1481.6019,186.8491,1477.0964,183.4285,1482.28,191.8029" style="stroke: #A80036; stroke-width: 1.0;"/><text fill="#000000" font-family="sans-serif" font-size="13" lengthAdjust="spacingAndGlyphs" textLength="30" x="1416.5" y="110.1357">Uses</text><!--link P_VIP to 3--><path d="M55.1322,156.4066 C62.6958,142.7376 72.9349,129.5766 86.5,121.6406 C177.807,68.2196 218.714,118.4816 324.5,118.6406 C435.278,118.8076 1225.09,67.0796 1321.5,121.6406 C1346.24,135.6426 1360.55,166.6593 1367.69,187.3597 " fill="none" id="P_VIP-3" style="stroke: #A80036; stroke-width: 1.0; stroke-dasharray: 7.0,7.0;"/><polygon fill="#A80036" points="1369.27,192.1253,1370.242,182.3246,1367.7002,187.3782,1362.6465,184.8363,1369.27,192.1253" style="stroke: #A80036; stroke-width: 1.0;"/><text fill="#000000" font-family="sans-serif" font-size="13" lengthAdjust="spacingAndGlyphs" textLength="30" x="293.5" y="110.1357">Uses</text><!--link P_VIP to 4--><path d="M55.0818,156.3196 C62.6436,142.6486 72.8944,129.5076 86.5,121.6406 C133.44,94.4996 1009.29,111.1926 1062.5,121.6406 C1136.93,136.2556 1218.56,175.1899 1257.44,195.2743 " fill="none" id="P_VIP-4" style="stroke: #A80036; stroke-width: 1.0; stroke-dasharray: 7.0,7.0;"/><polygon fill="#A80036" points="1261.96,197.6272,1255.8111,189.9337,1257.5211,195.3259,1252.1289,197.0359,1261.96,197.6272" style="stroke: #A80036; stroke-width: 1.0;"/><text fill="#000000" font-family="sans-serif" font-size="13" lengthAdjust="spacingAndGlyphs" textLength="30" x="782.5" y="110.1357">Uses</text><!--link P_PMO to 2--><path d="M1585.61,207.6406 C1567.58,207.6406 1544.6,207.6406 1525.01,207.6406 " fill="none" id="P_PMO-2" style="stroke: #A80036; stroke-width: 1.0; stroke-dasharray: 7.0,7.0;"/><polygon fill="#A80036" points="1519.84,207.6406,1528.84,211.6406,1524.84,207.6406,1528.84,203.6406,1519.84,207.6406" style="stroke: #A80036; stroke-width: 1.0;"/><text fill="#000000" font-family="sans-serif" font-size="13" lengthAdjust="spacingAndGlyphs" textLength="30" x="1537.75" y="201.1357">Uses</text><!--link P_PMO to 4--><path d="M1585.73,162.3342 C1572.33,146.4596 1555.17,130.4156 1535.5,121.6406 C1484.75,98.9976 1466.07,119.3076 1410.5,118.6406 C1370.92,118.1656 1354.4,99.6456 1321.5,121.6406 C1299.32,136.4706 1288.81,166.7628 1284.07,187.1397 " fill="none" id="P_PMO-4" style="stroke: #A80036; stroke-width: 1.0; stroke-dasharray: 7.0,7.0;"/><polygon fill="#A80036" points="1282.99,192.0912,1288.8213,184.1542,1284.0587,187.2068,1281.0061,182.4442,1282.99,192.0912" style="stroke: #A80036; stroke-width: 1.0;"/><text fill="#000000" font-family="sans-serif" font-size="13" lengthAdjust="spacingAndGlyphs" textLength="30" x="1379.5" y="110.1357">Uses</text><!--link P_PMO to 5--><path d="M1585.81,162.1548 C1572.42,146.2566 1555.24,130.2436 1535.5,121.6406 C1433.18,77.0566 1051.01,115.5076 1045.5,118.6406 C1019.88,133.2026 1005.344,165.587 998.198,187.012 " fill="none" id="P_PMO-5" style="stroke: #A80036; stroke-width: 1.0; stroke-dasharray: 7.0,7.0;"/><polygon fill="#A80036" points="996.621,191.9387,1003.1758,184.5879,998.1462,187.177,995.5571,182.1475,996.621,191.9387" style="stroke: #A80036; stroke-width: 1.0;"/><text fill="#000000" font-family="sans-serif" font-size="13" lengthAdjust="spacingAndGlyphs" textLength="30" x="1046.5" y="110.1357">Uses</text><!--link P_PACK_OWNER to 4--><path d="M1698.41,156.2376 C1689.9,142.5636 1678.71,129.4416 1664.5,121.6406 C1607.81,90.5256 1438.17,118.9736 1373.5,118.6406 C1350.35,118.5216 1340.1,107.8636 1321.5,121.6406 C1300.18,137.4306 1289.48,167.1972 1284.46,187.2264 " fill="none" id="P_PACK_OWNER-4" style="stroke: #A80036; stroke-width: 1.0; stroke-dasharray: 7.0,7.0;"/><polygon fill="#A80036" points="1283.31,192.0943,1289.2842,184.2643,1284.4671,187.2301,1281.5014,182.413,1283.31,192.0943" style="stroke: #A80036; stroke-width: 1.0;"/><text fill="#000000" font-family="sans-serif" font-size="13" lengthAdjust="spacingAndGlyphs" textLength="30" x="1342.5" y="110.1357">Uses</text><!--link P_PACK_OWNER to 5--><path d="M1698.42,156.2186 C1689.91,142.5446 1678.72,129.4266 1664.5,121.6406 C1592.08,81.9886 1308.12,106.0956 1238.5,121.6406 C1160.81,138.9896 1073.7,173.1183 1026.82,192.764 " fill="none" id="P_PACK_OWNER-5" style="stroke: #A80036; stroke-width: 1.0; stroke-dasharray: 7.0,7.0;"/><polygon fill="#A80036" points="1022.14,194.7356,1031.9865,194.9512,1026.7524,192.8054,1028.8982,187.5714,1022.14,194.7356" style="stroke: #A80036; stroke-width: 1.0;"/><text fill="#000000" font-family="sans-serif" font-size="13" lengthAdjust="spacingAndGlyphs" textLength="30" x="1268.5" y="110.1357">Uses</text><!--link P_PACK_OWNER to 8--><path d="M1698.43,156.1946 C1689.92,142.5186 1678.73,129.4066 1664.5,121.6406 C1607.73,90.6636 1147.16,118.0386 1082.5,118.6406 C1010.94,119.3076 986.061,90.7556 921.5,121.6406 C892.758,135.3906 871.344,166.6967 859.632,187.4996 " fill="none" id="P_PACK_OWNER-8" style="stroke: #A80036; stroke-width: 1.0; stroke-dasharray: 7.0,7.0;"/><polygon fill="#A80036" points="857.142,192.0272,864.9836,186.0683,859.5512,187.6459,857.9735,182.2135,857.142,192.0272" style="stroke: #A80036; stroke-width: 1.0;"/><text fill="#000000" font-family="sans-serif" font-size="13" lengthAdjust="spacingAndGlyphs" textLength="30" x="1083.5" y="110.1357">Uses</text><!--link P_PACK_OWNER to 9--><path d="M1698.43,156.1976 C1689.92,142.5226 1678.73,129.4096 1664.5,121.6406 C1602.06,87.5496 861.912,87.3636 777.5,121.6406 C745.024,134.8276 717.574,165.8243 701.817,186.771 " fill="none" id="P_PACK_OWNER-9" style="stroke: #A80036; stroke-width: 1.0; stroke-dasharray: 7.0,7.0;"/><polygon fill="#A80036" points="698.823,190.8181,707.3917,185.9625,701.797,186.7988,700.9607,181.2041,698.823,190.8181" style="stroke: #A80036; stroke-width: 1.0;"/><text fill="#000000" font-family="sans-serif" font-size="13" lengthAdjust="spacingAndGlyphs" textLength="30" x="1120.5" y="110.1357">Uses</text><!--link P_OFFICER to 2--><path d="M1823.8,156.4486 C1810.46,142.6026 1794.34,129.3326 1776.5,121.6406 C1720.98,97.7006 1700.95,117.3816 1640.5,118.6406 C1608.48,119.3076 1597.79,108.6846 1568.5,121.6406 C1536.78,135.6726 1510.59,167.4225 1496.01,188.17 " fill="none" id="P_OFFICER-2" style="stroke: #A80036; stroke-width: 1.0; stroke-dasharray: 7.0,7.0;"/><polygon fill="#A80036" points="1493.08,192.4199,1501.4844,187.2851,1495.9202,188.3049,1494.9004,182.7408,1493.08,192.4199" style="stroke: #A80036; stroke-width: 1.0;"/><text fill="#000000" font-family="sans-serif" font-size="13" lengthAdjust="spacingAndGlyphs" textLength="30" x="1641.5" y="110.1357">Uses</text><!--link P_OFFICER to 4--><path d="M1823.9,156.2066 C1810.57,142.3506 1794.42,129.1356 1776.5,121.6406 C1668.58,76.5056 1308.81,115.3396 1304.5,118.6406 C1283.89,134.4306 1279.76,165.956 1279.51,186.9281 " fill="none" id="P_OFFICER-4" style="stroke: #A80036; stroke-width: 1.0; stroke-dasharray: 7.0,7.0;"/><polygon fill="#A80036" points="1279.52,192.0166,1283.5015,183.0084,1279.5097,187.0166,1275.5015,183.0249,1279.52,192.0166" style="stroke: #A80036; stroke-width: 1.0;"/><text fill="#000000" font-family="sans-serif" font-size="13" lengthAdjust="spacingAndGlyphs" textLength="30" x="1305.5" y="110.1357">Uses</text><!--link P_OFFICER to 6--><path d="M1824.34,156.6396 C1810.93,142.6186 1794.62,129.2016 1776.5,121.6406 C1775.39,121.1756 621.42,109.1996 597.5,121.6406 C571.039,135.4036 553.551,166.4853 544.332,187.2648 " fill="none" id="P_OFFICER-6" style="stroke: #A80036; stroke-width: 1.0; stroke-dasharray: 7.0,7.0;"/><polygon fill="#A80036" points="542.274,192.0496,549.5041,185.3619,544.2493,187.4563,542.1549,182.2015,542.274,192.0496" style="stroke: #A80036; stroke-width: 1.0;"/><text fill="#000000" font-family="sans-serif" font-size="13" lengthAdjust="spacingAndGlyphs" textLength="30" x="1157.5" y="110.1357">Uses</text><!--link P_ADMIN to 10--><path d="M1980.08,156.3696 C1972.84,142.6996 1962.9,129.5476 1949.5,121.6406 C1914.24,100.8346 512.954,105.0986 475.5,121.6406 C444.854,135.1756 420.855,167.0697 407.691,187.9824 " fill="none" id="P_ADMIN-10" style="stroke: #A80036; stroke-width: 1.0; stroke-dasharray: 7.0,7.0;"/><polygon fill="#A80036" points="405.048,192.2676,413.1772,186.7073,407.6728,188.012,406.3681,182.5076,405.048,192.2676" style="stroke: #A80036; stroke-width: 1.0;"/><text fill="#000000" font-family="sans-serif" font-size="13" lengthAdjust="spacingAndGlyphs" textLength="30" x="1231.5" y="110.1357">Uses</text><!--link P_EXTERNAL to 7--><path d="M2076.09,156.3636 C2068.84,142.6936 2058.9,129.5426 2045.5,121.6406 C2004.15,97.2636 363.053,106.5096 317.5,121.6406 C281.515,133.5936 247.559,161.4426 225.796,182.2312 " fill="none" id="P_EXTERNAL-7" style="stroke: #A80036; stroke-width: 1.0; stroke-dasharray: 7.0,7.0;"/><polygon fill="#A80036" points="222.144,185.7639,231.3943,182.3828,225.7383,182.2881,225.833,176.632,222.144,185.7639" style="stroke: #A80036; stroke-width: 1.0;"/><text fill="#000000" font-family="sans-serif" font-size="13" lengthAdjust="spacingAndGlyphs" textLength="30" x="1194.5" y="110.1357">Uses</text><!--
@startuml
title Use Case: DSuite
actor "VIP" <<Person>>  as P_VIP 
actor "PMO" <<Person>>  as P_PMO 
actor "Departmental Officers" <<Person>>  as P_OFFICER 
actor "Pack Owner" <<Person>>  as P_PACK_OWNER 
actor "Admin" <<Person>>  as P_ADMIN 
actor "External" <<Person>>  as P_EXTERNAL 

package "DSuite" {
  (Notified) as 2
  (Decide) as 3
  (Chat) as 4
  (CRUA Brief) as 5
  (Workflow) as 6
  (Submit Cross Domain Pack) as 7
  (CRUA Pack) as 8
  (CRUA Navigation) as 9
  (CRUA Group) as 10
}

P_VIP .> 2 : Uses
P_VIP .> 3 : Uses
P_VIP .> 4 : Uses

P_PMO .> 2 : Uses
P_PMO .> 4 : Uses
P_PMO .> 5 : Uses

P_PACK_OWNER .> 4 : Uses
P_PACK_OWNER .> 5 : Uses
P_PACK_OWNER .> 8 : Uses
P_PACK_OWNER .> 9 : Uses

P_OFFICER .> 2 : Uses
P_OFFICER .> 4 : Uses
P_OFFICER .> 6 : Uses

P_ADMIN .> 10 : Uses

P_EXTERNAL .> 7 : Uses


@enduml

PlantUML version 1.2017.19(Sun Nov 12 22:46:22 AEDT 2017)
(GPL source distribution)
Java Runtime: Java(TM) SE Runtime Environment
JVM: Java HotSpot(TM) 64-Bit Server VM
Java Version: 1.8.0_151-b12
Operating System: Windows Server 2012 R2
OS Version: 6.3
Default Encoding: UTF-8
Language: en
Country: US
--></g></svg>