<?xml version="1.0" encoding="UTF-8" standalone="no"?><svg xmlns="http://www.w3.org/2000/svg" xmlns:xlink="http://www.w3.org/1999/xlink" contentScriptType="application/ecmascript" contentStyleType="text/css" height="1229px" preserveAspectRatio="none" style="width:746px;height:1229px;" version="1.1" viewBox="0 0 746 1229" width="746px" zoomAndPan="magnify"><defs><filter height="300%" id="f1ujidldrneak2" width="300%" x="-1" y="-1"><feGaussianBlur result="blurOut" stdDeviation="2.0"/><feColorMatrix in="blurOut" result="blurOut2" type="matrix" values="0 0 0 0 0 0 0 0 0 0 0 0 0 0 0 0 0 0 .4 0"/><feOffset dx="4.0" dy="4.0" in="blurOut2" result="blurOut3"/><feBlend in="SourceGraphic" in2="blurOut3" mode="normal"/></filter></defs><g><rect fill="#FFFFFF" filter="url(#f1ujidldrneak2)" height="914.8438" style="stroke: #A80036; stroke-width: 1.0;" width="10" x="126" y="207.3125"/><rect fill="#FFFFFF" filter="url(#f1ujidldrneak2)" height="705.0859" style="stroke: #A80036; stroke-width: 1.0;" width="10" x="320.5" y="342.7188"/><rect fill="#FFFFFF" filter="url(#f1ujidldrneak2)" height="368.7188" style="stroke: #A80036; stroke-width: 1.0;" width="10" x="330.5" y="560.6797"/><rect fill="#FFFFFF" filter="url(#f1ujidldrneak2)" height="270.6641" style="stroke: #A80036; stroke-width: 1.0;" width="10" x="330.5" y="560.6797"/><rect fill="#FFFFFF" filter="url(#f1ujidldrneak2)" height="35.3516" style="stroke: #A80036; stroke-width: 1.0;" width="10" x="335.5" y="765.6406"/><rect fill="#FFFFFF" filter="url(#f1ujidldrneak2)" height="195.1094" style="stroke: #A80036; stroke-width: 1.0;" width="10" x="575.5" y="696.9375"/><rect fill="#FFFFFF" filter="url(#f1ujidldrneak2)" height="379.2188" style="stroke: #A80036; stroke-width: 1.0;" width="10" x="678" y="610.8828"/><rect fill="#FFFFFF" filter="url(#f1ujidldrneak2)" height="243.8125" style="stroke: #000000; stroke-width: 2.0;" width="589" x="48" y="656.5859"/><line style="stroke: #A80036; stroke-width: 1.0; stroke-dasharray: 5.0,5.0;" x1="23" x2="23" y1="87.6094" y2="1140.5078"/><line style="stroke: #A80036; stroke-width: 1.0; stroke-dasharray: 5.0,5.0;" x1="131" x2="131" y1="87.6094" y2="1140.5078"/><line style="stroke: #A80036; stroke-width: 1.0; stroke-dasharray: 5.0,5.0;" x1="238" x2="238" y1="87.6094" y2="1140.5078"/><line style="stroke: #A80036; stroke-width: 1.0; stroke-dasharray: 5.0,5.0;" x1="325" x2="325" y1="87.6094" y2="1140.5078"/><line style="stroke: #A80036; stroke-width: 1.0; stroke-dasharray: 5.0,5.0;" x1="580" x2="580" y1="87.6094" y2="1140.5078"/><line style="stroke: #A80036; stroke-width: 1.0; stroke-dasharray: 5.0,5.0;" x1="683" x2="683" y1="87.6094" y2="1140.5078"/><text fill="#000000" font-family="sans-serif" font-size="14" lengthAdjust="spacingAndGlyphs" textLength="21" x="9.5" y="84.5332">run</text><ellipse cx="23" cy="13" fill="#FEFECE" filter="url(#f1ujidldrneak2)" rx="8" ry="8" style="stroke: #A80036; stroke-width: 2.0;"/><path d="M23,21 L23,48 M10,29 L36,29 M23,48 L10,63 M23,48 L36,63 " fill="#FEFECE" filter="url(#f1ujidldrneak2)" style="stroke: #A80036; stroke-width: 2.0;"/><text fill="#000000" font-family="sans-serif" font-size="14" lengthAdjust="spacingAndGlyphs" textLength="21" x="9.5" y="1154.041">run</text><ellipse cx="23" cy="1167.1172" fill="#FEFECE" filter="url(#f1ujidldrneak2)" rx="8" ry="8" style="stroke: #A80036; stroke-width: 2.0;"/><path d="M23,1175.1172 L23,1202.1172 M10,1183.1172 L36,1183.1172 M23,1202.1172 L10,1217.1172 M23,1202.1172 L36,1217.1172 " fill="#FEFECE" filter="url(#f1ujidldrneak2)" style="stroke: #A80036; stroke-width: 2.0;"/><rect fill="#FEFECE" filter="url(#f1ujidldrneak2)" height="49.2188" style="stroke: #A80036; stroke-width: 1.5;" width="142" x="58" y="33.3906"/><text fill="#000000" font-family="sans-serif" font-size="14" font-style="italic" lengthAdjust="spacingAndGlyphs" textLength="128" x="65" y="54.3906">«PUML_Generator»</text><text fill="#000000" font-family="sans-serif" font-size="14" lengthAdjust="spacingAndGlyphs" textLength="24" x="117" y="72">gen</text><rect fill="#FEFECE" filter="url(#f1ujidldrneak2)" height="49.2188" style="stroke: #A80036; stroke-width: 1.5;" width="142" x="58" y="1139.5078"/><text fill="#000000" font-family="sans-serif" font-size="14" font-style="italic" lengthAdjust="spacingAndGlyphs" textLength="128" x="65" y="1160.5078">«PUML_Generator»</text><text fill="#000000" font-family="sans-serif" font-size="14" lengthAdjust="spacingAndGlyphs" textLength="24" x="117" y="1178.1172">gen</text><text fill="#000000" font-family="sans-serif" font-size="14" lengthAdjust="spacingAndGlyphs" textLength="19" x="226" y="84.5332">ast</text><path d="M218,42 L218,66 M218,54 L235,54 " fill="#FEFECE" filter="url(#f1ujidldrneak2)" style="stroke: #A80036; stroke-width: 2.0;"/><ellipse cx="247" cy="54" fill="#FEFECE" filter="url(#f1ujidldrneak2)" rx="12" ry="12" style="stroke: #A80036; stroke-width: 2.0;"/><text fill="#000000" font-family="sans-serif" font-size="14" lengthAdjust="spacingAndGlyphs" textLength="19" x="226" y="1154.041">ast</text><path d="M218,1161.1172 L218,1185.1172 M218,1173.1172 L235,1173.1172 " fill="#FEFECE" filter="url(#f1ujidldrneak2)" style="stroke: #A80036; stroke-width: 2.0;"/><ellipse cx="247" cy="1173.1172" fill="#FEFECE" filter="url(#f1ujidldrneak2)" rx="12" ry="12" style="stroke: #A80036; stroke-width: 2.0;"/><rect fill="#FEFECE" filter="url(#f1ujidldrneak2)" height="49.2188" style="stroke: #A80036; stroke-width: 1.5;" width="99" x="274" y="33.3906"/><text fill="#000000" font-family="sans-serif" font-size="14" font-style="italic" lengthAdjust="spacingAndGlyphs" textLength="85" x="281" y="54.3906">«TreeVisitor»</text><text fill="#000000" font-family="sans-serif" font-size="14" lengthAdjust="spacingAndGlyphs" textLength="37" x="305" y="72">visitor</text><rect fill="#FEFECE" filter="url(#f1ujidldrneak2)" height="49.2188" style="stroke: #A80036; stroke-width: 1.5;" width="99" x="274" y="1139.5078"/><text fill="#000000" font-family="sans-serif" font-size="14" font-style="italic" lengthAdjust="spacingAndGlyphs" textLength="85" x="281" y="1160.5078">«TreeVisitor»</text><text fill="#000000" font-family="sans-serif" font-size="14" lengthAdjust="spacingAndGlyphs" textLength="37" x="305" y="1178.1172">visitor</text><rect fill="#FEFECE" filter="url(#f1ujidldrneak2)" height="49.2188" style="stroke: #A80036; stroke-width: 1.5;" width="89" x="534" y="33.3906"/><text fill="#000000" font-family="sans-serif" font-size="14" font-style="italic" lengthAdjust="spacingAndGlyphs" textLength="75" x="541" y="54.3906">«ClassInfo»</text><text fill="#000000" font-family="sans-serif" font-size="14" lengthAdjust="spacingAndGlyphs" textLength="55" x="551" y="72">classinfo</text><rect fill="#FEFECE" filter="url(#f1ujidldrneak2)" height="49.2188" style="stroke: #A80036; stroke-width: 1.5;" width="89" x="534" y="1139.5078"/><text fill="#000000" font-family="sans-serif" font-size="14" font-style="italic" lengthAdjust="spacingAndGlyphs" textLength="75" x="541" y="1160.5078">«ClassInfo»</text><text fill="#000000" font-family="sans-serif" font-size="14" lengthAdjust="spacingAndGlyphs" textLength="55" x="551" y="1178.1172">classinfo</text><rect fill="#FEFECE" filter="url(#f1ujidldrneak2)" height="49.2188" style="stroke: #A80036; stroke-width: 1.5;" width="88" x="637" y="33.3906"/><text fill="#000000" font-family="sans-serif" font-size="14" font-style="italic" lengthAdjust="spacingAndGlyphs" textLength="74" x="644" y="54.3906">«CodeInfo»</text><text fill="#000000" font-family="sans-serif" font-size="14" lengthAdjust="spacingAndGlyphs" textLength="54" x="654" y="72">codeinfo</text><rect fill="#FEFECE" filter="url(#f1ujidldrneak2)" height="49.2188" style="stroke: #A80036; stroke-width: 1.5;" width="88" x="637" y="1139.5078"/><text fill="#000000" font-family="sans-serif" font-size="14" font-style="italic" lengthAdjust="spacingAndGlyphs" textLength="74" x="644" y="1160.5078">«CodeInfo»</text><text fill="#000000" font-family="sans-serif" font-size="14" lengthAdjust="spacingAndGlyphs" textLength="54" x="654" y="1178.1172">codeinfo</text><rect fill="#FFFFFF" filter="url(#f1ujidldrneak2)" height="914.8438" style="stroke: #A80036; stroke-width: 1.0;" width="10" x="126" y="207.3125"/><rect fill="#FFFFFF" filter="url(#f1ujidldrneak2)" height="705.0859" style="stroke: #A80036; stroke-width: 1.0;" width="10" x="320.5" y="342.7188"/><rect fill="#FFFFFF" filter="url(#f1ujidldrneak2)" height="368.7188" style="stroke: #A80036; stroke-width: 1.0;" width="10" x="330.5" y="560.6797"/><rect fill="#FFFFFF" filter="url(#f1ujidldrneak2)" height="270.6641" style="stroke: #A80036; stroke-width: 1.0;" width="10" x="330.5" y="560.6797"/><rect fill="#FFFFFF" filter="url(#f1ujidldrneak2)" height="35.3516" style="stroke: #A80036; stroke-width: 1.0;" width="10" x="335.5" y="765.6406"/><rect fill="#FFFFFF" filter="url(#f1ujidldrneak2)" height="195.1094" style="stroke: #A80036; stroke-width: 1.0;" width="10" x="575.5" y="696.9375"/><rect fill="#FFFFFF" filter="url(#f1ujidldrneak2)" height="379.2188" style="stroke: #A80036; stroke-width: 1.0;" width="10" x="678" y="610.8828"/><rect fill="#EEEEEE" filter="url(#f1ujidldrneak2)" height="3" style="stroke: #EEEEEE; stroke-width: 1.0;" width="731" x="3" y="118.7852"/><line style="stroke: #000000; stroke-width: 1.0;" x1="3" x2="734" y1="118.7852" y2="118.7852"/><line style="stroke: #000000; stroke-width: 1.0;" x1="3" x2="734" y1="121.7852" y2="121.7852"/><rect fill="#EEEEEE" filter="url(#f1ujidldrneak2)" height="24.3516" style="stroke: #000000; stroke-width: 2.0;" width="52" x="342.5" y="107.6094"/><text fill="#000000" font-family="sans-serif" font-size="13" font-weight="bold" lengthAdjust="spacingAndGlyphs" textLength="34" x="348.5" y="125.1045">setup</text><line style="stroke: #A80036; stroke-width: 1.0;" x1="23" x2="65" y1="164.3125" y2="164.3125"/><line style="stroke: #A80036; stroke-width: 1.0;" x1="65" x2="65" y1="164.3125" y2="177.3125"/><line style="stroke: #A80036; stroke-width: 1.0;" x1="24" x2="65" y1="177.3125" y2="177.3125"/><polygon fill="#A80036" points="34,173.3125,24,177.3125,34,181.3125,30,177.3125" style="stroke: #A80036; stroke-width: 1.0;"/><text fill="#000000" font-family="sans-serif" font-size="13" lengthAdjust="spacingAndGlyphs" textLength="62" x="30" y="159.4561">load config</text><polygon fill="#A80036" points="114,203.3125,124,207.3125,114,211.3125,118,207.3125" style="stroke: #A80036; stroke-width: 1.0;"/><line style="stroke: #A80036; stroke-width: 1.0;" x1="23" x2="120" y1="207.3125" y2="207.3125"/><text fill="#000000" font-family="sans-serif" font-size="13" lengthAdjust="spacingAndGlyphs" textLength="65" x="30" y="202.8076">new(config)</text><polygon fill="#A80036" points="114,233.6641,124,237.6641,114,241.6641,118,237.6641" style="stroke: #A80036; stroke-width: 1.0;"/><line style="stroke: #A80036; stroke-width: 1.0;" x1="23" x2="120" y1="237.6641" y2="237.6641"/><text fill="#000000" font-family="sans-serif" font-size="13" lengthAdjust="spacingAndGlyphs" textLength="47" x="30" y="233.1592">header()</text><rect fill="#EEEEEE" filter="url(#f1ujidldrneak2)" height="3" style="stroke: #EEEEEE; stroke-width: 1.0;" width="731" x="3" y="267.1914"/><line style="stroke: #000000; stroke-width: 1.0;" x1="3" x2="734" y1="267.1914" y2="267.1914"/><line style="stroke: #000000; stroke-width: 1.0;" x1="3" x2="734" y1="270.1914" y2="270.1914"/><rect fill="#EEEEEE" filter="url(#f1ujidldrneak2)" height="24.3516" style="stroke: #000000; stroke-width: 2.0;" width="112" x="312.5" y="256.0156"/><text fill="#000000" font-family="sans-serif" font-size="13" font-weight="bold" lengthAdjust="spacingAndGlyphs" textLength="94" x="318.5" y="273.5107">for each srcfile</text><polygon fill="#A80036" points="114,308.3672,124,312.3672,114,316.3672,118,312.3672" style="stroke: #A80036; stroke-width: 1.0;"/><line style="stroke: #A80036; stroke-width: 1.0;" x1="23" x2="120" y1="312.3672" y2="312.3672"/><text fill="#000000" font-family="sans-serif" font-size="13" lengthAdjust="spacingAndGlyphs" textLength="79" x="30" y="307.8623">do_file(srcfile)</text><polygon fill="#A80036" points="308.5,338.7188,318.5,342.7188,308.5,346.7188,312.5,342.7188" style="stroke: #A80036; stroke-width: 1.0;"/><line style="stroke: #A80036; stroke-width: 1.0;" x1="136" x2="314.5" y1="342.7188" y2="342.7188"/><text fill="#000000" font-family="sans-serif" font-size="13" lengthAdjust="spacingAndGlyphs" textLength="94" x="143" y="338.2139">new(srcfile, gen)</text><polygon fill="#A80036" points="308.5,369.0703,318.5,373.0703,308.5,377.0703,312.5,373.0703" style="stroke: #A80036; stroke-width: 1.0;"/><line style="stroke: #A80036; stroke-width: 1.0;" x1="136" x2="314.5" y1="373.0703" y2="373.0703"/><text fill="#000000" font-family="sans-serif" font-size="13" lengthAdjust="spacingAndGlyphs" textLength="40" x="143" y="368.5654">parse()</text><line style="stroke: #A80036; stroke-width: 1.0;" x1="136" x2="178" y1="403.7734" y2="403.7734"/><line style="stroke: #A80036; stroke-width: 1.0;" x1="178" x2="178" y1="403.7734" y2="416.7734"/><line style="stroke: #A80036; stroke-width: 1.0;" x1="137" x2="178" y1="416.7734" y2="416.7734"/><polygon fill="#A80036" points="147,412.7734,137,416.7734,147,420.7734,143,416.7734" style="stroke: #A80036; stroke-width: 1.0;"/><text fill="#000000" font-family="sans-serif" font-size="13" lengthAdjust="spacingAndGlyphs" textLength="57" x="143" y="398.917">start_file()</text><polygon fill="#A80036" points="308.5,442.7734,318.5,446.7734,308.5,450.7734,312.5,446.7734" style="stroke: #A80036; stroke-width: 1.0;"/><line style="stroke: #A80036; stroke-width: 1.0;" x1="136" x2="314.5" y1="446.7734" y2="446.7734"/><text fill="#000000" font-family="sans-serif" font-size="13" lengthAdjust="spacingAndGlyphs" textLength="59" x="143" y="442.2686">visit_tree()</text><polygon fill="#A80036" points="249.5,473.125,239.5,477.125,249.5,481.125,245.5,477.125" style="stroke: #A80036; stroke-width: 1.0;"/><line style="stroke: #A80036; stroke-width: 1.0;" x1="243.5" x2="319.5" y1="477.125" y2="477.125"/><text fill="#000000" font-family="sans-serif" font-size="13" lengthAdjust="spacingAndGlyphs" textLength="58" x="255.5" y="472.6201">parse(src)</text><polygon fill="#A80036" points="308.5,503.4766,318.5,507.4766,308.5,511.4766,312.5,507.4766" style="stroke: #A80036; stroke-width: 1.0;"/><line style="stroke: #A80036; stroke-width: 1.0;" x1="238.5" x2="314.5" y1="507.4766" y2="507.4766"/><text fill="#000000" font-family="sans-serif" font-size="13" lengthAdjust="spacingAndGlyphs" textLength="22" x="245.5" y="502.9717">tree</text><line style="stroke: #A80036; stroke-width: 1.0;" x1="330.5" x2="377.5" y1="548.0313" y2="548.0313"/><line style="stroke: #A80036; stroke-width: 1.0;" x1="377.5" x2="377.5" y1="548.0313" y2="561.0313"/><line style="stroke: #A80036; stroke-width: 1.0;" x1="336.5" x2="377.5" y1="561.0313" y2="561.0313"/><polygon fill="#A80036" points="346.5,557.0313,336.5,561.0313,346.5,565.0313,342.5,561.0313" style="stroke: #A80036; stroke-width: 1.0;"/><text fill="#000000" font-family="sans-serif" font-size="13" lengthAdjust="spacingAndGlyphs" textLength="52" x="342.5" y="543.1748">visit(tree)</text><polygon fill="#FBFB77" filter="url(#f1ujidldrneak2)" points="233,520.8281,233,579.8281,311,579.8281,311,530.8281,301,520.8281,233,520.8281" style="stroke: #A80036; stroke-width: 1.0;"/><line style="stroke: #A80036; stroke-width: 1.0;" x1="301" x2="301" y1="520.8281" y2="530.8281"/><line style="stroke: #A80036; stroke-width: 1.0;" x1="311" x2="301" y1="530.8281" y2="530.8281"/><text fill="#000000" font-family="sans-serif" font-size="13" lengthAdjust="spacingAndGlyphs" textLength="56" x="239" y="539.3232">according</text><text fill="#000000" font-family="sans-serif" font-size="13" lengthAdjust="spacingAndGlyphs" textLength="43" x="239" y="555.6748">to each</text><text fill="#000000" font-family="sans-serif" font-size="13" lengthAdjust="spacingAndGlyphs" textLength="57" x="239" y="572.0264">node type</text><polygon fill="#A80036" points="666,606.8828,676,610.8828,666,614.8828,670,610.8828" style="stroke: #A80036; stroke-width: 1.0;"/><line style="stroke: #A80036; stroke-width: 1.0;" x1="340.5" x2="672" y1="610.8828" y2="610.8828"/><text fill="#000000" font-family="sans-serif" font-size="13" lengthAdjust="spacingAndGlyphs" textLength="105" x="347.5" y="606.3779">new(modulename)</text><line style="stroke: #A80036; stroke-width: 1.0;" x1="676" x2="666" y1="641.2344" y2="637.2344"/><line style="stroke: #A80036; stroke-width: 1.0;" x1="340.5" x2="677" y1="641.2344" y2="641.2344"/><text fill="#000000" font-family="sans-serif" font-size="13" lengthAdjust="spacingAndGlyphs" textLength="163" x="347.5" y="636.7295">[Assign] add_variable(name)</text><rect fill="none" height="243.8125" style="stroke: #000000; stroke-width: 2.0;" width="589" x="48" y="656.5859"/><polygon fill="#EEEEEE" points="48,656.5859,121,656.5859,121,664.5859,111,674.5859,48,674.5859,48,656.5859" style="stroke: #000000; stroke-width: 2.0;"/><text fill="#000000" font-family="sans-serif" font-size="13" font-weight="bold" lengthAdjust="spacingAndGlyphs" textLength="28" x="63" y="671.0811">loop</text><text fill="#000000" font-family="sans-serif" font-size="11" font-weight="bold" lengthAdjust="spacingAndGlyphs" textLength="105" x="136" y="670.0049">[for each ClassDef]</text><line style="stroke: #A80036; stroke-width: 1.0;" x1="573.5" x2="563.5" y1="696.9375" y2="692.9375"/><line style="stroke: #A80036; stroke-width: 1.0;" x1="340.5" x2="574.5" y1="696.9375" y2="696.9375"/><text fill="#000000" font-family="sans-serif" font-size="13" lengthAdjust="spacingAndGlyphs" textLength="158" x="347.5" y="692.4326">[ClassDef] new(classname)</text><line style="stroke: #A80036; stroke-width: 1.0;" x1="573.5" x2="563.5" y1="727.2891" y2="723.2891"/><line style="stroke: #A80036; stroke-width: 1.0;" x1="340.5" x2="574.5" y1="727.2891" y2="727.2891"/><text fill="#000000" font-family="sans-serif" font-size="13" lengthAdjust="spacingAndGlyphs" textLength="167" x="347.5" y="722.7842">[Assign] add_classvar(name)</text><line style="stroke: #A80036; stroke-width: 1.0;" x1="340.5" x2="387.5" y1="752.9922" y2="752.9922"/><line style="stroke: #A80036; stroke-width: 1.0;" x1="387.5" x2="387.5" y1="752.9922" y2="765.9922"/><line style="stroke: #A80036; stroke-width: 1.0;" x1="346.5" x2="387.5" y1="765.9922" y2="765.9922"/><line style="stroke: #A80036; stroke-width: 1.0;" x1="346.5" x2="356.5" y1="765.9922" y2="761.9922"/><text fill="#000000" font-family="sans-serif" font-size="13" lengthAdjust="spacingAndGlyphs" textLength="73" x="352.5" y="748.1357">[FunctionDef</text><text fill="#000000" font-family="sans-serif" font-size="13" lengthAdjust="spacingAndGlyphs" text-decoration="underline" textLength="17" x="429.5" y="748.1357">init</text><line style="stroke: #000000; stroke-width: 1.0;" x1="429.5" x2="446.5" y1="750.1357" y2="750.1357"/><text fill="#000000" font-family="sans-serif" font-size="13" lengthAdjust="spacingAndGlyphs" textLength="4" x="446.5" y="748.1357">]</text><line style="stroke: #A80036; stroke-width: 1.0;" x1="573.5" x2="563.5" y1="800.9922" y2="796.9922"/><line style="stroke: #A80036; stroke-width: 1.0;" x1="340.5" x2="574.5" y1="800.9922" y2="800.9922"/><text fill="#000000" font-family="sans-serif" font-size="13" lengthAdjust="spacingAndGlyphs" textLength="206" x="347.5" y="796.4873">[Assign to self] add_member(name)</text><line style="stroke: #A80036; stroke-width: 1.0;" x1="573.5" x2="563.5" y1="831.3438" y2="827.3438"/><line style="stroke: #A80036; stroke-width: 1.0;" x1="335.5" x2="574.5" y1="831.3438" y2="831.3438"/><text fill="#000000" font-family="sans-serif" font-size="13" lengthAdjust="spacingAndGlyphs" textLength="188" x="342.5" y="826.8389">[FunctionDef] add_method(node)</text><polygon fill="#A80036" points="563.5,857.6953,573.5,861.6953,563.5,865.6953,567.5,861.6953" style="stroke: #A80036; stroke-width: 1.0;"/><line style="stroke: #A80036; stroke-width: 1.0;" x1="335.5" x2="569.5" y1="861.6953" y2="861.6953"/><text fill="#000000" font-family="sans-serif" font-size="13" lengthAdjust="spacingAndGlyphs" textLength="57" x="342.5" y="857.1904">done(gen)</text><polygon fill="#A80036" points="147,888.0469,137,892.0469,147,896.0469,143,892.0469" style="stroke: #A80036; stroke-width: 1.0;"/><line style="stroke: #A80036; stroke-width: 1.0;" x1="141" x2="579.5" y1="892.0469" y2="892.0469"/><text fill="#000000" font-family="sans-serif" font-size="13" lengthAdjust="spacingAndGlyphs" textLength="111" x="153" y="887.542">print_classinfo(self)</text><line style="stroke: #A80036; stroke-width: 1.0;" x1="676" x2="666" y1="929.3984" y2="925.3984"/><line style="stroke: #A80036; stroke-width: 1.0;" x1="330.5" x2="677" y1="929.3984" y2="929.3984"/><text fill="#000000" font-family="sans-serif" font-size="13" lengthAdjust="spacingAndGlyphs" textLength="190" x="337.5" y="924.8936">[FunctionDef] add_function(node)</text><polygon fill="#A80036" points="666,955.75,676,959.75,666,963.75,670,959.75" style="stroke: #A80036; stroke-width: 1.0;"/><line style="stroke: #A80036; stroke-width: 1.0;" x1="330.5" x2="672" y1="959.75" y2="959.75"/><text fill="#000000" font-family="sans-serif" font-size="13" lengthAdjust="spacingAndGlyphs" textLength="57" x="337.5" y="955.2451">done(gen)</text><polygon fill="#A80036" points="147,986.1016,137,990.1016,147,994.1016,143,990.1016" style="stroke: #A80036; stroke-width: 1.0;"/><line style="stroke: #A80036; stroke-width: 1.0;" x1="141" x2="682" y1="990.1016" y2="990.1016"/><text fill="#000000" font-family="sans-serif" font-size="13" lengthAdjust="spacingAndGlyphs" textLength="108" x="153" y="985.5967">print_codeinfo(self)</text><line style="stroke: #A80036; stroke-width: 1.0;" x1="136" x2="178" y1="1020.8047" y2="1020.8047"/><line style="stroke: #A80036; stroke-width: 1.0;" x1="178" x2="178" y1="1020.8047" y2="1033.8047"/><line style="stroke: #A80036; stroke-width: 1.0;" x1="137" x2="178" y1="1033.8047" y2="1033.8047"/><polygon fill="#A80036" points="147,1029.8047,137,1033.8047,147,1037.8047,143,1033.8047" style="stroke: #A80036; stroke-width: 1.0;"/><text fill="#000000" font-family="sans-serif" font-size="13" lengthAdjust="spacingAndGlyphs" textLength="52" x="143" y="1015.9482">end_file()</text><polygon fill="#A80036" points="313.5,1048.8047,323.5,1048.8047,313.5,1052.8047" style="stroke: #A80036; stroke-width: 1.0;"/><line style="stroke: #A80036; stroke-width: 1.0;" x1="136" x2="324.5" y1="1047.8047" y2="1047.8047"/><rect fill="#EEEEEE" filter="url(#f1ujidldrneak2)" height="3" style="stroke: #EEEEEE; stroke-width: 1.0;" width="731" x="3" y="1076.9805"/><line style="stroke: #000000; stroke-width: 1.0;" x1="3" x2="734" y1="1076.9805" y2="1076.9805"/><line style="stroke: #000000; stroke-width: 1.0;" x1="3" x2="734" y1="1079.9805" y2="1079.9805"/><rect fill="#EEEEEE" filter="url(#f1ujidldrneak2)" height="24.3516" style="stroke: #000000; stroke-width: 2.0;" width="82" x="327.5" y="1065.8047"/><text fill="#000000" font-family="sans-serif" font-size="13" font-weight="bold" lengthAdjust="spacingAndGlyphs" textLength="64" x="333.5" y="1083.2998">tear down</text><polygon fill="#A80036" points="119,1118.1563,129,1122.1563,119,1126.1563,123,1122.1563" style="stroke: #A80036; stroke-width: 1.0;"/><line style="stroke: #A80036; stroke-width: 1.0;" x1="23" x2="125" y1="1122.1563" y2="1122.1563"/><text fill="#000000" font-family="sans-serif" font-size="13" lengthAdjust="spacingAndGlyphs" textLength="40" x="30" y="1117.6514">footer()</text><!--
@startuml
actor run
participant gen <<PUML_Generator>>
boundary ast
participant visitor <<TreeVisitor>>
participant classinfo <<ClassInfo>>
participant codeinfo <<CodeInfo>>

== setup ==
run -> run : load config
run -> gen : new(config)
activate gen
run -> gen : header()

== for each srcfile ==
run -> gen : do_file(srcfile)
gen -> visitor : new(srcfile, gen)
activate visitor
gen -> visitor : parse()
gen -> gen : start_file()
gen -> visitor : visit_tree()
visitor -> ast : parse(src)
visitor <- ast : tree
visitor -> visitor : visit(tree)
activate visitor
note left
     according
     to each
     node type
end note
activate visitor
visitor -> codeinfo : new(modulename)
activate codeinfo
visitor -\\ codeinfo : [Assign] add_variable(name)
loop for each ClassDef
''create classinfo
visitor -\\ classinfo : [ClassDef] new(classname)
activate classinfo
visitor -\\ classinfo : [Assign] add_classvar(name)
visitor -\\ visitor : [FunctionDef __init__]
activate visitor
visitor -\\ classinfo : [Assign to self] add_member(name)
deactivate visitor
visitor -\\ classinfo : [FunctionDef] add_method(node)
deactivate visitor
visitor -> classinfo : done(gen)
classinfo -> gen : print_classinfo(self)
deactivate classinfo
end
visitor -\\ codeinfo : [FunctionDef] add_function(node)
deactivate visitor
visitor -> codeinfo : done(gen)
codeinfo -> gen : print_codeinfo(self)
deactivate codeinfo
gen -> gen : end_file()
gen -/ visitor
deactivate visitor

== tear down ==
run -> gen : footer()
deactivate gen
@enduml

PlantUML version 1.2017.19(Sun Nov 12 22:46:22 AEDT 2017)
(GPL source distribution)
Java Runtime: Java(TM) SE Runtime Environment
JVM: Java HotSpot(TM) 64-Bit Server VM
Java Version: 1.8.0_151-b12
Operating System: Windows Server 2012 R2
OS Version: 6.3
Default Encoding: UTF-8
Language: en
Country: US
--></g></svg>