<?xml version="1.0" encoding="UTF-8" standalone="no"?><svg xmlns="http://www.w3.org/2000/svg" xmlns:xlink="http://www.w3.org/1999/xlink" contentScriptType="application/ecmascript" contentStyleType="text/css" height="613px" preserveAspectRatio="none" style="width:1314px;height:613px;" version="1.1" viewBox="0 0 1314 613" width="1314px" zoomAndPan="magnify"><defs><filter height="300%" id="f8181g8wan9su" width="300%" x="-1" y="-1"><feGaussianBlur result="blurOut" stdDeviation="2.0"/><feColorMatrix in="blurOut" result="blurOut2" type="matrix" values="0 0 0 0 0 0 0 0 0 0 0 0 0 0 0 0 0 0 .4 0"/><feOffset dx="4.0" dy="4.0" in="blurOut2" result="blurOut3"/><feBlend in="SourceGraphic" in2="blurOut3" mode="normal"/></filter></defs><g><!--class user--><rect fill="#FEFECE" filter="url(#f8181g8wan9su)" height="117.3672" id="user" style="stroke: #A80036; stroke-width: 1.5;" width="197" x="412" y="8"/><ellipse cx="427" cy="28.0938" fill="#FFAAAA" rx="11" ry="11" style="stroke: #A80036; stroke-width: 1.0;"/><path d="M427.9219,25.4844 L427.9219,32.1406 L429.0781,32.1406 Q429.6875,32.1406 429.9453,32.375 Q430.2031,32.6094 430.2031,33 Q430.2031,33.375 429.9453,33.6094 Q429.6875,33.8438 429.0781,33.8438 L425.0938,33.8438 Q424.4688,33.8438 424.2109,33.6094 Q423.9531,33.375 423.9531,32.9844 Q423.9531,32.6094 424.2109,32.375 Q424.4688,32.1406 425.0938,32.1406 L426.2188,32.1406 L426.2188,25.4844 L424.375,25.4844 L424.375,27.0938 Q424.375,27.7031 424.1406,27.9688 Q423.9063,28.2344 423.5313,28.2344 Q423.1563,28.2344 422.9219,27.9688 Q422.6875,27.7031 422.6875,27.0938 L422.6875,23.7813 L431.5,23.7813 L431.5,27.0938 Q431.5,27.7031 431.2578,27.9688 Q431.0156,28.2344 430.6406,28.2344 Q430.2656,28.2344 430.0313,27.9688 Q429.7969,27.7031 429.7969,27.0938 L429.7969,25.4844 L427.9219,25.4844 Z "/><text fill="#000000" font-family="sans-serif" font-size="12" lengthAdjust="spacingAndGlyphs" textLength="25" x="511" y="25.457">user</text><text fill="#000000" font-family="sans-serif" font-size="12" lengthAdjust="spacingAndGlyphs" textLength="165" x="441" y="40.5508">(a system user, a real person)</text><line style="stroke: #A80036; stroke-width: 1.5;" x1="413" x2="608" y1="48.1875" y2="48.1875"/><text fill="#000000" font-family="sans-serif" font-size="11" font-weight="bold" lengthAdjust="spacingAndGlyphs" textLength="10" x="418" y="63.6064">id</text><text fill="#000000" font-family="sans-serif" font-size="11" lengthAdjust="spacingAndGlyphs" textLength="42" x="431" y="63.6064">INTEGER</text><text fill="#000000" font-family="sans-serif" font-size="11" lengthAdjust="spacingAndGlyphs" text-decoration="underline" textLength="35" x="418" y="77.4424">caption</text><line style="stroke: #000000; stroke-width: 1.0;" x1="418" x2="453" y1="79.4424" y2="79.4424"/><text fill="#000000" font-family="sans-serif" font-size="11" lengthAdjust="spacingAndGlyphs" textLength="70" x="456" y="77.4424">VARCHAR[64]</text><text fill="#000000" font-family="sans-serif" font-size="11" lengthAdjust="spacingAndGlyphs" text-decoration="underline" textLength="30" x="418" y="91.2783">fname</text><line style="stroke: #000000; stroke-width: 1.0;" x1="418" x2="448" y1="93.2783" y2="93.2783"/><text fill="#000000" font-family="sans-serif" font-size="11" lengthAdjust="spacingAndGlyphs" textLength="70" x="451" y="91.2783">VARCHAR[64]</text><text fill="#000000" font-family="sans-serif" font-size="11" lengthAdjust="spacingAndGlyphs" text-decoration="underline" textLength="28" x="418" y="105.1143">lname</text><line style="stroke: #000000; stroke-width: 1.0;" x1="418" x2="446" y1="107.1143" y2="107.1143"/><text fill="#000000" font-family="sans-serif" font-size="11" lengthAdjust="spacingAndGlyphs" textLength="70" x="449" y="105.1143">VARCHAR[64]</text><text fill="#000000" font-family="sans-serif" font-size="11" lengthAdjust="spacingAndGlyphs" text-decoration="underline" textLength="24" x="418" y="118.9502">email</text><line style="stroke: #000000; stroke-width: 1.0;" x1="418" x2="442" y1="120.9502" y2="120.9502"/><text fill="#000000" font-family="sans-serif" font-size="11" lengthAdjust="spacingAndGlyphs" textLength="70" x="445" y="118.9502">VARCHAR[64]</text><!--class profile--><rect fill="#FEFECE" filter="url(#f8181g8wan9su)" height="75.8594" id="profile" style="stroke: #A80036; stroke-width: 1.5;" width="151" x="6" y="219"/><ellipse cx="21" cy="239.0938" fill="#FFAAAA" rx="11" ry="11" style="stroke: #A80036; stroke-width: 1.0;"/><path d="M21.9219,236.4844 L21.9219,243.1406 L23.0781,243.1406 Q23.6875,243.1406 23.9453,243.375 Q24.2031,243.6094 24.2031,244 Q24.2031,244.375 23.9453,244.6094 Q23.6875,244.8438 23.0781,244.8438 L19.0938,244.8438 Q18.4688,244.8438 18.2109,244.6094 Q17.9531,244.375 17.9531,243.9844 Q17.9531,243.6094 18.2109,243.375 Q18.4688,243.1406 19.0938,243.1406 L20.2188,243.1406 L20.2188,236.4844 L18.375,236.4844 L18.375,238.0938 Q18.375,238.7031 18.1406,238.9688 Q17.9063,239.2344 17.5313,239.2344 Q17.1563,239.2344 16.9219,238.9688 Q16.6875,238.7031 16.6875,238.0938 L16.6875,234.7813 L25.5,234.7813 L25.5,238.0938 Q25.5,238.7031 25.2578,238.9688 Q25.0156,239.2344 24.6406,239.2344 Q24.2656,239.2344 24.0313,238.9688 Q23.7969,238.7031 23.7969,238.0938 L23.7969,236.4844 L21.9219,236.4844 Z "/><text fill="#000000" font-family="sans-serif" font-size="12" lengthAdjust="spacingAndGlyphs" textLength="34" x="77.5" y="236.457">profile</text><text fill="#000000" font-family="sans-serif" font-size="12" lengthAdjust="spacingAndGlyphs" textLength="119" x="35" y="251.5508">(a place for user junk)</text><line style="stroke: #A80036; stroke-width: 1.5;" x1="7" x2="156" y1="259.1875" y2="259.1875"/><text fill="#000000" font-family="sans-serif" font-size="11" font-weight="bold" lengthAdjust="spacingAndGlyphs" textLength="10" x="12" y="274.6064">id</text><text fill="#000000" font-family="sans-serif" font-size="11" lengthAdjust="spacingAndGlyphs" textLength="42" x="25" y="274.6064">INTEGER</text><text fill="#000000" font-family="sans-serif" font-size="11" lengthAdjust="spacingAndGlyphs" text-decoration="underline" textLength="35" x="12" y="288.4424">caption</text><line style="stroke: #000000; stroke-width: 1.0;" x1="12" x2="47" y1="290.4424" y2="290.4424"/><text fill="#000000" font-family="sans-serif" font-size="11" lengthAdjust="spacingAndGlyphs" textLength="70" x="50" y="288.4424">VARCHAR[64]</text><!--class apps--><rect fill="#FEFECE" filter="url(#f8181g8wan9su)" height="75.8594" id="apps" style="stroke: #A80036; stroke-width: 1.5;" width="120" x="21.5" y="373"/><ellipse cx="41" cy="393.0938" fill="#FFAAAA" rx="11" ry="11" style="stroke: #A80036; stroke-width: 1.0;"/><path d="M41.9219,390.4844 L41.9219,397.1406 L43.0781,397.1406 Q43.6875,397.1406 43.9453,397.375 Q44.2031,397.6094 44.2031,398 Q44.2031,398.375 43.9453,398.6094 Q43.6875,398.8438 43.0781,398.8438 L39.0938,398.8438 Q38.4688,398.8438 38.2109,398.6094 Q37.9531,398.375 37.9531,397.9844 Q37.9531,397.6094 38.2109,397.375 Q38.4688,397.1406 39.0938,397.1406 L40.2188,397.1406 L40.2188,390.4844 L38.375,390.4844 L38.375,392.0938 Q38.375,392.7031 38.1406,392.9688 Q37.9063,393.2344 37.5313,393.2344 Q37.1563,393.2344 36.9219,392.9688 Q36.6875,392.7031 36.6875,392.0938 L36.6875,388.7813 L45.5,388.7813 L45.5,392.0938 Q45.5,392.7031 45.2578,392.9688 Q45.0156,393.2344 44.6406,393.2344 Q44.2656,393.2344 44.0313,392.9688 Q43.7969,392.7031 43.7969,392.0938 L43.7969,390.4844 L41.9219,390.4844 Z "/><text fill="#000000" font-family="sans-serif" font-size="12" lengthAdjust="spacingAndGlyphs" textLength="28" x="81" y="390.457">apps</text><text fill="#000000" font-family="sans-serif" font-size="12" lengthAdjust="spacingAndGlyphs" textLength="78" x="56" y="405.5508">(a list of apps)</text><line style="stroke: #A80036; stroke-width: 1.5;" x1="22.5" x2="140.5" y1="413.1875" y2="413.1875"/><text fill="#000000" font-family="sans-serif" font-size="11" font-weight="bold" lengthAdjust="spacingAndGlyphs" textLength="10" x="27.5" y="428.6064">id</text><text fill="#000000" font-family="sans-serif" font-size="11" lengthAdjust="spacingAndGlyphs" textLength="42" x="40.5" y="428.6064">INTEGER</text><text fill="#000000" font-family="sans-serif" font-size="11" lengthAdjust="spacingAndGlyphs" text-decoration="underline" textLength="35" x="27.5" y="442.4424">caption</text><line style="stroke: #000000; stroke-width: 1.0;" x1="27.5" x2="62.5" y1="444.4424" y2="444.4424"/><text fill="#000000" font-family="sans-serif" font-size="11" lengthAdjust="spacingAndGlyphs" textLength="70" x="65.5" y="442.4424">VARCHAR[64]</text><!--class id_source--><rect fill="#FEFECE" filter="url(#f8181g8wan9su)" height="67.6719" id="id_source" style="stroke: #A80036; stroke-width: 1.5;" width="120" x="192.5" y="223"/><ellipse cx="211.55" cy="239" fill="#FFAAAA" rx="11" ry="11" style="stroke: #A80036; stroke-width: 1.0;"/><path d="M212.4719,236.3906 L212.4719,243.0469 L213.6281,243.0469 Q214.2375,243.0469 214.4953,243.2813 Q214.7531,243.5156 214.7531,243.9063 Q214.7531,244.2813 214.4953,244.5156 Q214.2375,244.75 213.6281,244.75 L209.6438,244.75 Q209.0188,244.75 208.7609,244.5156 Q208.5031,244.2813 208.5031,243.8906 Q208.5031,243.5156 208.7609,243.2813 Q209.0188,243.0469 209.6438,243.0469 L210.7688,243.0469 L210.7688,236.3906 L208.925,236.3906 L208.925,238 Q208.925,238.6094 208.6906,238.875 Q208.4563,239.1406 208.0813,239.1406 Q207.7063,239.1406 207.4719,238.875 Q207.2375,238.6094 207.2375,238 L207.2375,234.6875 L216.05,234.6875 L216.05,238 Q216.05,238.6094 215.8078,238.875 Q215.5656,239.1406 215.1906,239.1406 Q214.8156,239.1406 214.5813,238.875 Q214.3469,238.6094 214.3469,238 L214.3469,236.3906 L212.4719,236.3906 Z "/><text fill="#000000" font-family="sans-serif" font-size="12" lengthAdjust="spacingAndGlyphs" textLength="79" x="226.45" y="243.9102">identity source</text><line style="stroke: #A80036; stroke-width: 1.5;" x1="193.5" x2="311.5" y1="255" y2="255"/><text fill="#000000" font-family="sans-serif" font-size="11" font-weight="bold" lengthAdjust="spacingAndGlyphs" textLength="10" x="198.5" y="270.4189">id</text><text fill="#000000" font-family="sans-serif" font-size="11" lengthAdjust="spacingAndGlyphs" textLength="42" x="211.5" y="270.4189">INTEGER</text><text fill="#000000" font-family="sans-serif" font-size="11" lengthAdjust="spacingAndGlyphs" text-decoration="underline" textLength="35" x="198.5" y="284.2549">caption</text><line style="stroke: #000000; stroke-width: 1.0;" x1="198.5" x2="233.5" y1="286.2549" y2="286.2549"/><text fill="#000000" font-family="sans-serif" font-size="11" lengthAdjust="spacingAndGlyphs" textLength="70" x="236.5" y="284.2549">VARCHAR[64]</text><!--class role--><rect fill="#FEFECE" filter="url(#f8181g8wan9su)" height="75.8594" id="role" style="stroke: #A80036; stroke-width: 1.5;" width="270" x="375.5" y="219"/><ellipse cx="390.5" cy="239.0938" fill="#FFAAAA" rx="11" ry="11" style="stroke: #A80036; stroke-width: 1.0;"/><path d="M391.4219,236.4844 L391.4219,243.1406 L392.5781,243.1406 Q393.1875,243.1406 393.4453,243.375 Q393.7031,243.6094 393.7031,244 Q393.7031,244.375 393.4453,244.6094 Q393.1875,244.8438 392.5781,244.8438 L388.5938,244.8438 Q387.9688,244.8438 387.7109,244.6094 Q387.4531,244.375 387.4531,243.9844 Q387.4531,243.6094 387.7109,243.375 Q387.9688,243.1406 388.5938,243.1406 L389.7188,243.1406 L389.7188,236.4844 L387.875,236.4844 L387.875,238.0938 Q387.875,238.7031 387.6406,238.9688 Q387.4063,239.2344 387.0313,239.2344 Q386.6563,239.2344 386.4219,238.9688 Q386.1875,238.7031 386.1875,238.0938 L386.1875,234.7813 L395,234.7813 L395,238.0938 Q395,238.7031 394.7578,238.9688 Q394.5156,239.2344 394.1406,239.2344 Q393.7656,239.2344 393.5313,238.9688 Q393.2969,238.7031 393.2969,238.0938 L393.2969,236.4844 L391.4219,236.4844 Z "/><text fill="#000000" font-family="sans-serif" font-size="12" lengthAdjust="spacingAndGlyphs" textLength="21" x="513" y="236.457">role</text><text fill="#000000" font-family="sans-serif" font-size="12" lengthAdjust="spacingAndGlyphs" textLength="238" x="404.5" y="251.5508">(aa assignment of operations and features)</text><line style="stroke: #A80036; stroke-width: 1.5;" x1="376.5" x2="644.5" y1="259.1875" y2="259.1875"/><text fill="#000000" font-family="sans-serif" font-size="11" font-weight="bold" lengthAdjust="spacingAndGlyphs" textLength="10" x="381.5" y="274.6064">id</text><text fill="#000000" font-family="sans-serif" font-size="11" lengthAdjust="spacingAndGlyphs" textLength="42" x="394.5" y="274.6064">INTEGER</text><text fill="#000000" font-family="sans-serif" font-size="11" lengthAdjust="spacingAndGlyphs" text-decoration="underline" textLength="35" x="381.5" y="288.4424">caption</text><line style="stroke: #000000; stroke-width: 1.0;" x1="381.5" x2="416.5" y1="290.4424" y2="290.4424"/><text fill="#000000" font-family="sans-serif" font-size="11" lengthAdjust="spacingAndGlyphs" textLength="70" x="419.5" y="288.4424">VARCHAR[64]</text><!--class feature--><rect fill="#FEFECE" filter="url(#f8181g8wan9su)" height="75.8594" id="feature" style="stroke: #A80036; stroke-width: 1.5;" width="157" x="692" y="373"/><ellipse cx="707" cy="393.0938" fill="#FFAAAA" rx="11" ry="11" style="stroke: #A80036; stroke-width: 1.0;"/><path d="M707.9219,390.4844 L707.9219,397.1406 L709.0781,397.1406 Q709.6875,397.1406 709.9453,397.375 Q710.2031,397.6094 710.2031,398 Q710.2031,398.375 709.9453,398.6094 Q709.6875,398.8438 709.0781,398.8438 L705.0938,398.8438 Q704.4688,398.8438 704.2109,398.6094 Q703.9531,398.375 703.9531,397.9844 Q703.9531,397.6094 704.2109,397.375 Q704.4688,397.1406 705.0938,397.1406 L706.2188,397.1406 L706.2188,390.4844 L704.375,390.4844 L704.375,392.0938 Q704.375,392.7031 704.1406,392.9688 Q703.9063,393.2344 703.5313,393.2344 Q703.1563,393.2344 702.9219,392.9688 Q702.6875,392.7031 702.6875,392.0938 L702.6875,388.7813 L711.5,388.7813 L711.5,392.0938 Q711.5,392.7031 711.2578,392.9688 Q711.0156,393.2344 710.6406,393.2344 Q710.2656,393.2344 710.0313,392.9688 Q709.7969,392.7031 709.7969,392.0938 L709.7969,390.4844 L707.9219,390.4844 Z "/><text fill="#000000" font-family="sans-serif" font-size="12" lengthAdjust="spacingAndGlyphs" textLength="38" x="764.5" y="390.457">feature</text><text fill="#000000" font-family="sans-serif" font-size="12" lengthAdjust="spacingAndGlyphs" textLength="125" x="721" y="405.5508">(a group of operations)</text><line style="stroke: #A80036; stroke-width: 1.5;" x1="693" x2="848" y1="413.1875" y2="413.1875"/><text fill="#000000" font-family="sans-serif" font-size="11" font-weight="bold" lengthAdjust="spacingAndGlyphs" textLength="10" x="698" y="428.6064">id</text><text fill="#000000" font-family="sans-serif" font-size="11" lengthAdjust="spacingAndGlyphs" textLength="42" x="711" y="428.6064">INTEGER</text><text fill="#000000" font-family="sans-serif" font-size="11" lengthAdjust="spacingAndGlyphs" text-decoration="underline" textLength="35" x="698" y="442.4424">caption</text><line style="stroke: #000000; stroke-width: 1.0;" x1="698" x2="733" y1="444.4424" y2="444.4424"/><text fill="#000000" font-family="sans-serif" font-size="11" lengthAdjust="spacingAndGlyphs" textLength="70" x="736" y="442.4424">VARCHAR[64]</text><!--class operation--><rect fill="#FEFECE" filter="url(#f8181g8wan9su)" height="75.8594" id="operation" style="stroke: #A80036; stroke-width: 1.5;" width="249" x="646" y="527"/><ellipse cx="661" cy="547.0938" fill="#FFAAAA" rx="11" ry="11" style="stroke: #A80036; stroke-width: 1.0;"/><path d="M661.9219,544.4844 L661.9219,551.1406 L663.0781,551.1406 Q663.6875,551.1406 663.9453,551.375 Q664.2031,551.6094 664.2031,552 Q664.2031,552.375 663.9453,552.6094 Q663.6875,552.8438 663.0781,552.8438 L659.0938,552.8438 Q658.4688,552.8438 658.2109,552.6094 Q657.9531,552.375 657.9531,551.9844 Q657.9531,551.6094 658.2109,551.375 Q658.4688,551.1406 659.0938,551.1406 L660.2188,551.1406 L660.2188,544.4844 L658.375,544.4844 L658.375,546.0938 Q658.375,546.7031 658.1406,546.9688 Q657.9063,547.2344 657.5313,547.2344 Q657.1563,547.2344 656.9219,546.9688 Q656.6875,546.7031 656.6875,546.0938 L656.6875,542.7813 L665.5,542.7813 L665.5,546.0938 Q665.5,546.7031 665.2578,546.9688 Q665.0156,547.2344 664.6406,547.2344 Q664.2656,547.2344 664.0313,546.9688 Q663.7969,546.7031 663.7969,546.0938 L663.7969,544.4844 L661.9219,544.4844 Z "/><text fill="#000000" font-family="sans-serif" font-size="12" lengthAdjust="spacingAndGlyphs" textLength="52" x="757.5" y="544.457">operation</text><text fill="#000000" font-family="sans-serif" font-size="12" lengthAdjust="spacingAndGlyphs" textLength="217" x="675" y="559.5508">(an act that can be performed by a user)</text><line style="stroke: #A80036; stroke-width: 1.5;" x1="647" x2="894" y1="567.1875" y2="567.1875"/><text fill="#000000" font-family="sans-serif" font-size="11" font-weight="bold" lengthAdjust="spacingAndGlyphs" textLength="10" x="652" y="582.6064">id</text><text fill="#000000" font-family="sans-serif" font-size="11" lengthAdjust="spacingAndGlyphs" textLength="42" x="665" y="582.6064">INTEGER</text><text fill="#000000" font-family="sans-serif" font-size="11" lengthAdjust="spacingAndGlyphs" text-decoration="underline" textLength="35" x="652" y="596.4424">caption</text><line style="stroke: #000000; stroke-width: 1.0;" x1="652" x2="687" y1="598.4424" y2="598.4424"/><text fill="#000000" font-family="sans-serif" font-size="11" lengthAdjust="spacingAndGlyphs" textLength="70" x="690" y="596.4424">VARCHAR[64]</text><!--link user to profile--><path d="M411.887,75.8 C338.859,85.721 239.45,107.454 164.5,155 C139.394,170.926 118.248,197.001 103.5839,218.667 " fill="none" id="user-profile" style="stroke: #A80036; stroke-width: 1.0; stroke-dasharray: 7.0,7.0;"/><text fill="#000000" font-family="sans-serif" font-size="13" lengthAdjust="spacingAndGlyphs" textLength="89" x="165.5" y="177.4951">A User's Profile</text><text fill="#000000" font-family="sans-serif" font-size="13" lengthAdjust="spacingAndGlyphs" textLength="7" x="397.069" y="73.3941">1</text><text fill="#000000" font-family="sans-serif" font-size="13" lengthAdjust="spacingAndGlyphs" textLength="20" x="85.6608" y="208.2409">0..*</text><!--link profile to apps--><path d="M81.5,295.183 C81.5,318.826 81.5,349.318 81.5,372.937 " fill="none" id="profile-apps" style="stroke: #A80036; stroke-width: 1.0; stroke-dasharray: 7.0,7.0;"/><text fill="#000000" font-family="sans-serif" font-size="13" lengthAdjust="spacingAndGlyphs" textLength="156" x="82.5" y="339.4951">Apps a user has access to</text><text fill="#000000" font-family="sans-serif" font-size="13" lengthAdjust="spacingAndGlyphs" textLength="7" x="73.9203" y="316.3679">1</text><text fill="#000000" font-family="sans-serif" font-size="13" lengthAdjust="spacingAndGlyphs" textLength="20" x="59.7188" y="362.271">0..*</text><!--link user to id_source--><path d="M411.929,84.195 C366.554,96.616 315.392,118.084 281.5,155 C264.597,173.411 257.48,201.042 254.516,222.752 " fill="none" id="user-id_source" style="stroke: #A80036; stroke-width: 1.0; stroke-dasharray: 7.0,7.0;"/><text fill="#000000" font-family="sans-serif" font-size="13" lengthAdjust="spacingAndGlyphs" textLength="94" x="343.5" y="169.4951">Identity Sources</text><text fill="#000000" font-family="sans-serif" font-size="13" lengthAdjust="spacingAndGlyphs" textLength="216" x="282.5" y="185.8467">(i.e. Vangard, ADFS, Active Directory</text><text fill="#000000" font-family="sans-serif" font-size="13" lengthAdjust="spacingAndGlyphs" textLength="7" x="397.1142" y="99.6568">1</text><text fill="#000000" font-family="sans-serif" font-size="13" lengthAdjust="spacingAndGlyphs" textLength="20" x="232.9941" y="212.2584">1..*</text><!--link user to role--><path d="M507.963,125.285 C507.372,145.445 507.035,168.222 507.5,189 C507.716,198.662 508.108,209.101 508.538,218.799 " fill="none" id="user-role" style="stroke: #A80036; stroke-width: 1.0; stroke-dasharray: 7.0,7.0;"/><text fill="#000000" font-family="sans-serif" font-size="13" lengthAdjust="spacingAndGlyphs" textLength="219" x="508.5" y="177.4951">A user identity may be assigned roles</text><text fill="#000000" font-family="sans-serif" font-size="13" lengthAdjust="spacingAndGlyphs" textLength="7" x="500.2272" y="146.9186">1</text><text fill="#000000" font-family="sans-serif" font-size="13" lengthAdjust="spacingAndGlyphs" textLength="20" x="486.4073" y="208.1084">0..*</text><!--link user to feature--><path d="M609.097,83.318 C653.376,95.52 702.339,117.058 732.5,155 C782.635,218.068 781.054,318.515 775.697,372.597 " fill="none" id="user-feature" style="stroke: #A80036; stroke-width: 1.0; stroke-dasharray: 7.0,7.0;"/><text fill="#000000" font-family="sans-serif" font-size="13" lengthAdjust="spacingAndGlyphs" textLength="237" x="778.5" y="262.4951">A user identity may be assigned features</text><text fill="#000000" font-family="sans-serif" font-size="13" lengthAdjust="spacingAndGlyphs" textLength="7" x="616.9138" y="81.4876">1</text><text fill="#000000" font-family="sans-serif" font-size="13" lengthAdjust="spacingAndGlyphs" textLength="20" x="754.8715" y="362.1589">0..*</text><!--link user to operation--><path d="M609.062,82.37 C743.852,104.95 974.706,152.412 1024.5,219 C1062.37,269.638 1063.43,421.81 999.5,497 C973.338,527.7691 933.887,544.8195 895.064,554.1377 " fill="none" id="user-operation" style="stroke: #A80036; stroke-width: 1.0; stroke-dasharray: 7.0,7.0;"/><text fill="#000000" font-family="sans-serif" font-size="13" lengthAdjust="spacingAndGlyphs" textLength="251" x="1051.5" y="339.4951">A user identity may be assigned operations</text><text fill="#000000" font-family="sans-serif" font-size="13" lengthAdjust="spacingAndGlyphs" textLength="7" x="616.8761" y="97.6921">1</text><text fill="#000000" font-family="sans-serif" font-size="13" lengthAdjust="spacingAndGlyphs" textLength="20" x="902.8435" y="550.5566">0..*</text><!--link role to feature--><path d="M514.936,295.1 C518.797,311.905 526.013,330.716 539.5,343 C581.738,381.472 609.683,356.899 664.5,373 C673.383,375.609 682.619,378.524 691.771,381.541 " fill="none" id="role-feature" style="stroke: #A80036; stroke-width: 1.0; stroke-dasharray: 7.0,7.0;"/><text fill="#000000" font-family="sans-serif" font-size="13" lengthAdjust="spacingAndGlyphs" textLength="187" x="540.5" y="339.4951">A role may be assigned features</text><text fill="#000000" font-family="sans-serif" font-size="13" lengthAdjust="spacingAndGlyphs" textLength="7" x="508.091" y="316.2712">1</text><text fill="#000000" font-family="sans-serif" font-size="13" lengthAdjust="spacingAndGlyphs" textLength="20" x="663.8686" y="375.7218">0..*</text><!--link role to operation--><path d="M487.635,295.051 C465.535,336.128 439.694,402.689 471.5,449 C510.701,506.0778 582.491,534.8377 645.9,549.3236 " fill="none" id="role-operation" style="stroke: #A80036; stroke-width: 1.0; stroke-dasharray: 7.0,7.0;"/><text fill="#000000" font-family="sans-serif" font-size="13" lengthAdjust="spacingAndGlyphs" textLength="201" x="472.5" y="416.4951">A role may be assigned operations</text><text fill="#000000" font-family="sans-serif" font-size="13" lengthAdjust="spacingAndGlyphs" textLength="7" x="476.2683" y="316.2141">1</text><text fill="#000000" font-family="sans-serif" font-size="13" lengthAdjust="spacingAndGlyphs" textLength="20" x="618.1184" y="545.4642">0..*</text><!--link feature to operation--><path d="M770.5,449.183 C770.5,472.826 770.5,503.3185 770.5,526.9374 " fill="none" id="feature-operation" style="stroke: #A80036; stroke-width: 1.0; stroke-dasharray: 7.0,7.0;"/><text fill="#000000" font-family="sans-serif" font-size="13" lengthAdjust="spacingAndGlyphs" textLength="219" x="771.5" y="493.4951">A feature may be assigned operations</text><text fill="#000000" font-family="sans-serif" font-size="13" lengthAdjust="spacingAndGlyphs" textLength="7" x="762.9203" y="470.3679">1</text><text fill="#000000" font-family="sans-serif" font-size="13" lengthAdjust="spacingAndGlyphs" textLength="20" x="748.7188" y="516.2715">0..*</text><!--
@startuml
skinparam handwritten false
skinparam actor {
    backgroundColor<<person>> LightSalmon
    borderColor<<person>> Black
}


' uncomment the line below if you're using computer with a retina display
' skinparam dpi 300
' we use bold for primary key
' green color for unique
' and underscore for not_null
' other tags available:
' <i></i>
' <back:COLOR></color>, where color is a color name or html color code
' (#FFAACC)
' see: http://plantuml.com/classes.html#More

hide methods
hide stereotypes


' entities

class user as "user\n(a system user, a real person)" << (T,#FFAAAA) >> {
    <b>id</b> INTEGER
    <u>caption</u> VARCHAR[64]
    <u>fname</u> VARCHAR[64]
    <u>lname</u> VARCHAR[64]
    <u>email</u> VARCHAR[64]
}

class profile as "profile\n(a place for user junk)" << (T,#FFAAAA) >> {
    <b>id</b> INTEGER
    <u>caption</u> VARCHAR[64]
}

class apps as "apps\n(a list of apps)" << (T,#FFAAAA) >> {
    <b>id</b> INTEGER
    <u>caption</u> VARCHAR[64]
}

class id_source as "identity source" << (T,#FFAAAA) >> {
    <b>id</b> INTEGER
    <u>caption</u> VARCHAR[64] 
}

class role as "role\n(aa assignment of operations and features)" << (T,#FFAAAA) >> {
    <b>id</b> INTEGER
    <u>caption</u> VARCHAR[64]
}

class feature as "feature\n(a group of operations)" << (T,#FFAAAA) >> {
    <b>id</b> INTEGER
    <u>caption</u> VARCHAR[64]
}

class operation as "operation\n(an act that can be performed by a user)" << (T,#FFAAAA) >> {
    <b>id</b> INTEGER
    <u>caption</u> VARCHAR[64]
}

' relationships


user "1" .. "0..*" profile : "A User's Profile"
profile "1" .. "0..*" apps : "Apps a user has access to"


user "1" .. "1..*" id_source : "Identity Sources\n(i.e. Vangard, ADFS, Active Directory"

user "1" .. "0..*" role : "A user identity may be assigned roles"
user "1" .. "0..*" feature : "A user identity may be assigned features"
user "1" .. "0..*" operation : "A user identity may be assigned operations"

role "1" .. "0..*" feature : "A role may be assigned features"
role "1" .. "0..*" operation : "A role may be assigned operations"

feature "1" .. "0..*" operation : "A feature may be assigned operations"

@enduml

PlantUML version 1.2017.19(Sun Nov 12 22:46:22 AEDT 2017)
(GPL source distribution)
Java Runtime: Java(TM) SE Runtime Environment
JVM: Java HotSpot(TM) 64-Bit Server VM
Java Version: 1.8.0_151-b12
Operating System: Windows Server 2012 R2
OS Version: 6.3
Default Encoding: UTF-8
Language: en
Country: US
--></g></svg>