<?xml version="1.0" encoding="UTF-8" standalone="no"?><svg xmlns="http://www.w3.org/2000/svg" xmlns:xlink="http://www.w3.org/1999/xlink" contentScriptType="application/ecmascript" contentStyleType="text/css" height="780px" preserveAspectRatio="none" style="width:1096px;height:780px;" version="1.1" viewBox="0 0 1096 780" width="1096px" zoomAndPan="magnify"><defs><filter height="300%" id="fggbo2n33gu2f" width="300%" x="-1" y="-1"><feGaussianBlur result="blurOut" stdDeviation="2.0"/><feColorMatrix in="blurOut" result="blurOut2" type="matrix" values="0 0 0 0 0 0 0 0 0 0 0 0 0 0 0 0 0 0 .4 0"/><feOffset dx="4.0" dy="4.0" in="blurOut2" result="blurOut3"/><feBlend in="SourceGraphic" in2="blurOut3" mode="normal"/></filter></defs><g><text fill="#000000" font-family="sans-serif" font-size="18" lengthAdjust="spacingAndGlyphs" textLength="125" x="489" y="18.6855">Roles &amp; Access</text><!--class identity--><rect fill="#FEFECE" filter="url(#fggbo2n33gu2f)" height="48.1875" id="identity" style="stroke: #A80036; stroke-width: 1.5;" width="113" x="432.5" y="30.6406"/><ellipse cx="447.5" cy="50.7344" fill="#FFAAAA" rx="11" ry="11" style="stroke: #A80036; stroke-width: 1.0;"/><path d="M448.4219,48.125 L448.4219,54.7813 L449.5781,54.7813 Q450.1875,54.7813 450.4453,55.0156 Q450.7031,55.25 450.7031,55.6406 Q450.7031,56.0156 450.4453,56.25 Q450.1875,56.4844 449.5781,56.4844 L445.5938,56.4844 Q444.9688,56.4844 444.7109,56.25 Q444.4531,56.0156 444.4531,55.625 Q444.4531,55.25 444.7109,55.0156 Q444.9688,54.7813 445.5938,54.7813 L446.7188,54.7813 L446.7188,48.125 L444.875,48.125 L444.875,49.7344 Q444.875,50.3438 444.6406,50.6094 Q444.4063,50.875 444.0313,50.875 Q443.6563,50.875 443.4219,50.6094 Q443.1875,50.3438 443.1875,49.7344 L443.1875,46.4219 L452,46.4219 L452,49.7344 Q452,50.3438 451.7578,50.6094 Q451.5156,50.875 451.1406,50.875 Q450.7656,50.875 450.5313,50.6094 Q450.2969,50.3438 450.2969,49.7344 L450.2969,48.125 L448.4219,48.125 Z "/><text fill="#000000" font-family="sans-serif" font-size="12" lengthAdjust="spacingAndGlyphs" textLength="38" x="483" y="48.0977">identity</text><text fill="#000000" font-family="sans-serif" font-size="12" lengthAdjust="spacingAndGlyphs" textLength="81" x="461.5" y="63.1914">(a real person)</text><line style="stroke: #A80036; stroke-width: 1.5;" x1="433.5" x2="544.5" y1="70.8281" y2="70.8281"/><!--class profile--><rect fill="#FEFECE" filter="url(#fggbo2n33gu2f)" height="48.1875" id="profile" style="stroke: #A80036; stroke-width: 1.5;" width="143" x="310.5" y="328.6406"/><ellipse cx="325.5" cy="348.7344" fill="#FFAAAA" rx="11" ry="11" style="stroke: #A80036; stroke-width: 1.0;"/><path d="M326.4219,346.125 L326.4219,352.7813 L327.5781,352.7813 Q328.1875,352.7813 328.4453,353.0156 Q328.7031,353.25 328.7031,353.6406 Q328.7031,354.0156 328.4453,354.25 Q328.1875,354.4844 327.5781,354.4844 L323.5938,354.4844 Q322.9688,354.4844 322.7109,354.25 Q322.4531,354.0156 322.4531,353.625 Q322.4531,353.25 322.7109,353.0156 Q322.9688,352.7813 323.5938,352.7813 L324.7188,352.7813 L324.7188,346.125 L322.875,346.125 L322.875,347.7344 Q322.875,348.3438 322.6406,348.6094 Q322.4063,348.875 322.0313,348.875 Q321.6563,348.875 321.4219,348.6094 Q321.1875,348.3438 321.1875,347.7344 L321.1875,344.4219 L330,344.4219 L330,347.7344 Q330,348.3438 329.7578,348.6094 Q329.5156,348.875 329.1406,348.875 Q328.7656,348.875 328.5313,348.6094 Q328.2969,348.3438 328.2969,347.7344 L328.2969,346.125 L326.4219,346.125 Z "/><text fill="#000000" font-family="sans-serif" font-size="12" lengthAdjust="spacingAndGlyphs" textLength="34" x="378" y="346.0977">profile</text><text fill="#000000" font-family="sans-serif" font-size="12" lengthAdjust="spacingAndGlyphs" textLength="111" x="339.5" y="361.1914">(app related identity)</text><line style="stroke: #A80036; stroke-width: 1.5;" x1="311.5" x2="452.5" y1="368.8281" y2="368.8281"/><!--class personalisation--><rect fill="#FEFECE" filter="url(#fggbo2n33gu2f)" height="63.2813" id="personalisation" style="stroke: #A80036; stroke-width: 1.5;" width="138" x="6" y="454.6406"/><ellipse cx="21" cy="482.2813" fill="#FFAAAA" rx="11" ry="11" style="stroke: #A80036; stroke-width: 1.0;"/><path d="M21.9219,479.6719 L21.9219,486.3281 L23.0781,486.3281 Q23.6875,486.3281 23.9453,486.5625 Q24.2031,486.7969 24.2031,487.1875 Q24.2031,487.5625 23.9453,487.7969 Q23.6875,488.0313 23.0781,488.0313 L19.0938,488.0313 Q18.4688,488.0313 18.2109,487.7969 Q17.9531,487.5625 17.9531,487.1719 Q17.9531,486.7969 18.2109,486.5625 Q18.4688,486.3281 19.0938,486.3281 L20.2188,486.3281 L20.2188,479.6719 L18.375,479.6719 L18.375,481.2813 Q18.375,481.8906 18.1406,482.1563 Q17.9063,482.4219 17.5313,482.4219 Q17.1563,482.4219 16.9219,482.1563 Q16.6875,481.8906 16.6875,481.2813 L16.6875,477.9688 L25.5,477.9688 L25.5,481.2813 Q25.5,481.8906 25.2578,482.1563 Q25.0156,482.4219 24.6406,482.4219 Q24.2656,482.4219 24.0313,482.1563 Q23.7969,481.8906 23.7969,481.2813 L23.7969,479.6719 L21.9219,479.6719 Z "/><text fill="#000000" font-family="sans-serif" font-size="12" lengthAdjust="spacingAndGlyphs" textLength="86" x="45" y="472.0977">personalisation</text><text fill="#000000" font-family="sans-serif" font-size="12" lengthAdjust="spacingAndGlyphs" textLength="85" x="45.5" y="487.1914">(KVP to support</text><text fill="#000000" font-family="sans-serif" font-size="12" lengthAdjust="spacingAndGlyphs" textLength="106" x="35" y="502.2852">app customisation)</text><line style="stroke: #A80036; stroke-width: 1.5;" x1="7" x2="143" y1="509.9219" y2="509.9219"/><!--class app--><rect fill="#FEFECE" filter="url(#fggbo2n33gu2f)" height="48.1875" id="app" style="stroke: #A80036; stroke-width: 1.5;" width="159" x="302.5" y="187.6406"/><ellipse cx="317.5" cy="207.7344" fill="#FFAAAA" rx="11" ry="11" style="stroke: #A80036; stroke-width: 1.0;"/><path d="M318.4219,205.125 L318.4219,211.7813 L319.5781,211.7813 Q320.1875,211.7813 320.4453,212.0156 Q320.7031,212.25 320.7031,212.6406 Q320.7031,213.0156 320.4453,213.25 Q320.1875,213.4844 319.5781,213.4844 L315.5938,213.4844 Q314.9688,213.4844 314.7109,213.25 Q314.4531,213.0156 314.4531,212.625 Q314.4531,212.25 314.7109,212.0156 Q314.9688,211.7813 315.5938,211.7813 L316.7188,211.7813 L316.7188,205.125 L314.875,205.125 L314.875,206.7344 Q314.875,207.3438 314.6406,207.6094 Q314.4063,207.875 314.0313,207.875 Q313.6563,207.875 313.4219,207.6094 Q313.1875,207.3438 313.1875,206.7344 L313.1875,203.4219 L322,203.4219 L322,206.7344 Q322,207.3438 321.7578,207.6094 Q321.5156,207.875 321.1406,207.875 Q320.7656,207.875 320.5313,207.6094 Q320.2969,207.3438 320.2969,206.7344 L320.2969,205.125 L318.4219,205.125 Z "/><text fill="#000000" font-family="sans-serif" font-size="12" lengthAdjust="spacingAndGlyphs" textLength="21" x="384.5" y="205.0977">app</text><text fill="#000000" font-family="sans-serif" font-size="12" lengthAdjust="spacingAndGlyphs" textLength="127" x="331.5" y="220.1914">(available applications)</text><line style="stroke: #A80036; stroke-width: 1.5;" x1="303.5" x2="460.5" y1="227.8281" y2="227.8281"/><!--class id_source--><rect fill="#FEFECE" filter="url(#fggbo2n33gu2f)" height="78.375" id="id_source" style="stroke: #A80036; stroke-width: 1.5;" width="111" x="541.5" y="172.6406"/><ellipse cx="556.5" cy="207.8281" fill="#FFAAAA" rx="11" ry="11" style="stroke: #A80036; stroke-width: 1.0;"/><path d="M557.4219,205.2188 L557.4219,211.875 L558.5781,211.875 Q559.1875,211.875 559.4453,212.1094 Q559.7031,212.3438 559.7031,212.7344 Q559.7031,213.1094 559.4453,213.3438 Q559.1875,213.5781 558.5781,213.5781 L554.5938,213.5781 Q553.9688,213.5781 553.7109,213.3438 Q553.4531,213.1094 553.4531,212.7188 Q553.4531,212.3438 553.7109,212.1094 Q553.9688,211.875 554.5938,211.875 L555.7188,211.875 L555.7188,205.2188 L553.875,205.2188 L553.875,206.8281 Q553.875,207.4375 553.6406,207.7031 Q553.4063,207.9688 553.0313,207.9688 Q552.6563,207.9688 552.4219,207.7031 Q552.1875,207.4375 552.1875,206.8281 L552.1875,203.5156 L561,203.5156 L561,206.8281 Q561,207.4375 560.7578,207.7031 Q560.5156,207.9688 560.1406,207.9688 Q559.7656,207.9688 559.5313,207.7031 Q559.2969,207.4375 559.2969,206.8281 L559.2969,205.2188 L557.4219,205.2188 Z "/><text fill="#000000" font-family="sans-serif" font-size="12" lengthAdjust="spacingAndGlyphs" textLength="79" x="570.5" y="190.0977">identity source</text><text fill="#000000" font-family="sans-serif" font-size="12" lengthAdjust="spacingAndGlyphs" textLength="51" x="584.5" y="205.1914">(where is</text><text fill="#000000" font-family="sans-serif" font-size="12" lengthAdjust="spacingAndGlyphs" textLength="61" x="579.5" y="220.2852">this identity</text><text fill="#000000" font-family="sans-serif" font-size="12" lengthAdjust="spacingAndGlyphs" textLength="29" x="595.5" y="235.3789">from)</text><line style="stroke: #A80036; stroke-width: 1.5;" x1="542.5" x2="651.5" y1="243.0156" y2="243.0156"/><!--class role--><rect fill="#FEFECE" filter="url(#fggbo2n33gu2f)" height="48.1875" id="role" style="stroke: #A80036; stroke-width: 1.5;" width="171" x="179.5" y="462.1406"/><ellipse cx="194.5" cy="482.2344" fill="#FFAAAA" rx="11" ry="11" style="stroke: #A80036; stroke-width: 1.0;"/><path d="M195.4219,479.625 L195.4219,486.2813 L196.5781,486.2813 Q197.1875,486.2813 197.4453,486.5156 Q197.7031,486.75 197.7031,487.1406 Q197.7031,487.5156 197.4453,487.75 Q197.1875,487.9844 196.5781,487.9844 L192.5938,487.9844 Q191.9688,487.9844 191.7109,487.75 Q191.4531,487.5156 191.4531,487.125 Q191.4531,486.75 191.7109,486.5156 Q191.9688,486.2813 192.5938,486.2813 L193.7188,486.2813 L193.7188,479.625 L191.875,479.625 L191.875,481.2344 Q191.875,481.8438 191.6406,482.1094 Q191.4063,482.375 191.0313,482.375 Q190.6563,482.375 190.4219,482.1094 Q190.1875,481.8438 190.1875,481.2344 L190.1875,477.9219 L199,477.9219 L199,481.2344 Q199,481.8438 198.7578,482.1094 Q198.5156,482.375 198.1406,482.375 Q197.7656,482.375 197.5313,482.1094 Q197.2969,481.8438 197.2969,481.2344 L197.2969,479.625 L195.4219,479.625 Z "/><text fill="#000000" font-family="sans-serif" font-size="12" lengthAdjust="spacingAndGlyphs" textLength="21" x="267.5" y="479.5977">role</text><text fill="#000000" font-family="sans-serif" font-size="12" lengthAdjust="spacingAndGlyphs" textLength="139" x="208.5" y="494.6914">(operations and features)</text><line style="stroke: #A80036; stroke-width: 1.5;" x1="180.5" x2="349.5" y1="502.3281" y2="502.3281"/><!--class feature--><rect fill="#FEFECE" filter="url(#fggbo2n33gu2f)" height="48.1875" id="feature" style="stroke: #A80036; stroke-width: 1.5;" width="147" x="454.5" y="595.6406"/><ellipse cx="469.5" cy="615.7344" fill="#FFAAAA" rx="11" ry="11" style="stroke: #A80036; stroke-width: 1.0;"/><path d="M470.4219,613.125 L470.4219,619.7813 L471.5781,619.7813 Q472.1875,619.7813 472.4453,620.0156 Q472.7031,620.25 472.7031,620.6406 Q472.7031,621.0156 472.4453,621.25 Q472.1875,621.4844 471.5781,621.4844 L467.5938,621.4844 Q466.9688,621.4844 466.7109,621.25 Q466.4531,621.0156 466.4531,620.625 Q466.4531,620.25 466.7109,620.0156 Q466.9688,619.7813 467.5938,619.7813 L468.7188,619.7813 L468.7188,613.125 L466.875,613.125 L466.875,614.7344 Q466.875,615.3438 466.6406,615.6094 Q466.4063,615.875 466.0313,615.875 Q465.6563,615.875 465.4219,615.6094 Q465.1875,615.3438 465.1875,614.7344 L465.1875,611.4219 L474,611.4219 L474,614.7344 Q474,615.3438 473.7578,615.6094 Q473.5156,615.875 473.1406,615.875 Q472.7656,615.875 472.5313,615.6094 Q472.2969,615.3438 472.2969,614.7344 L472.2969,613.125 L470.4219,613.125 Z "/><text fill="#000000" font-family="sans-serif" font-size="12" lengthAdjust="spacingAndGlyphs" textLength="38" x="522" y="613.0977">feature</text><text fill="#000000" font-family="sans-serif" font-size="12" lengthAdjust="spacingAndGlyphs" textLength="115" x="483.5" y="628.1914">(group of operations)</text><line style="stroke: #A80036; stroke-width: 1.5;" x1="455.5" x2="600.5" y1="635.8281" y2="635.8281"/><!--class operation--><rect fill="#FEFECE" filter="url(#fggbo2n33gu2f)" height="48.1875" id="operation" style="stroke: #A80036; stroke-width: 1.5;" width="113" x="471.5" y="721.6406"/><ellipse cx="486.5" cy="741.7344" fill="#FFAAAA" rx="11" ry="11" style="stroke: #A80036; stroke-width: 1.0;"/><path d="M487.4219,739.125 L487.4219,745.7813 L488.5781,745.7813 Q489.1875,745.7813 489.4453,746.0156 Q489.7031,746.25 489.7031,746.6406 Q489.7031,747.0156 489.4453,747.25 Q489.1875,747.4844 488.5781,747.4844 L484.5938,747.4844 Q483.9688,747.4844 483.7109,747.25 Q483.4531,747.0156 483.4531,746.625 Q483.4531,746.25 483.7109,746.0156 Q483.9688,745.7813 484.5938,745.7813 L485.7188,745.7813 L485.7188,739.125 L483.875,739.125 L483.875,740.7344 Q483.875,741.3438 483.6406,741.6094 Q483.4063,741.875 483.0313,741.875 Q482.6563,741.875 482.4219,741.6094 Q482.1875,741.3438 482.1875,740.7344 L482.1875,737.4219 L491,737.4219 L491,740.7344 Q491,741.3438 490.7578,741.6094 Q490.5156,741.875 490.1406,741.875 Q489.7656,741.875 489.5313,741.6094 Q489.2969,741.3438 489.2969,740.7344 L489.2969,739.125 L487.4219,739.125 Z "/><text fill="#000000" font-family="sans-serif" font-size="12" lengthAdjust="spacingAndGlyphs" textLength="52" x="515" y="739.0977">operation</text><text fill="#000000" font-family="sans-serif" font-size="12" lengthAdjust="spacingAndGlyphs" textLength="81" x="500.5" y="754.1914">(an atomic act)</text><line style="stroke: #A80036; stroke-width: 1.5;" x1="472.5" x2="583.5" y1="761.8281" y2="761.8281"/><!--link identity to app--><path d="M432.271,69.3076 C411.867,77.2566 390.953,89.6136 379,108.6406 C364.204,132.1926 368.685,165.2206 374.363,187.2426 " fill="none" id="identity-app" style="stroke: #A80036; stroke-width: 1.0; stroke-dasharray: 7.0,7.0;"/><text fill="#000000" font-family="sans-serif" font-size="13" lengthAdjust="spacingAndGlyphs" textLength="173" x="380" y="131.1357">Apps a identity has access to</text><text fill="#000000" font-family="sans-serif" font-size="13" lengthAdjust="spacingAndGlyphs" textLength="7" x="417.5542" y="67.6675">1</text><text fill="#000000" font-family="sans-serif" font-size="13" lengthAdjust="spacingAndGlyphs" textLength="20" x="350.064" y="176.8607">0..*</text><!--link identity to id_source--><path d="M526.729,78.7736 C537.958,87.0866 549.515,97.2556 558,108.6406 C572.049,127.4896 581.638,152.0096 587.792,172.2846 " fill="none" id="identity-id_source" style="stroke: #A80036; stroke-width: 1.0; stroke-dasharray: 7.0,7.0;"/><text fill="#000000" font-family="sans-serif" font-size="13" lengthAdjust="spacingAndGlyphs" textLength="94" x="639" y="123.1357">Identity Sources</text><text fill="#000000" font-family="sans-serif" font-size="13" lengthAdjust="spacingAndGlyphs" textLength="216" x="578" y="139.4873">(i.e. Vangard, ADFS, Active Directory</text><text fill="#000000" font-family="sans-serif" font-size="13" lengthAdjust="spacingAndGlyphs" textLength="7" x="528.5002" y="100.5238">1</text><text fill="#000000" font-family="sans-serif" font-size="13" lengthAdjust="spacingAndGlyphs" textLength="20" x="564.4906" y="161.6384">1..*</text><!--link app to profile--><path d="M382,235.9056 C382,261.5646 382,302.6106 382,328.2996 " fill="none" id="app-profile" style="stroke: #A80036; stroke-width: 1.0; stroke-dasharray: 7.0,7.0;"/><text fill="#000000" font-family="sans-serif" font-size="13" lengthAdjust="spacingAndGlyphs" textLength="173" x="383" y="295.1357">Apps a identity has access to</text><text fill="#000000" font-family="sans-serif" font-size="13" lengthAdjust="spacingAndGlyphs" textLength="7" x="374.1469" y="257.2853">1</text><text fill="#000000" font-family="sans-serif" font-size="13" lengthAdjust="spacingAndGlyphs" textLength="7" x="374.1469" y="317.9316">1</text><!--link profile to role--><path d="M310.265,365.5486 C286.762,373.2286 263.088,385.8616 249,406.6406 C237.917,422.9876 244.052,445.3526 251.714,462.0296 " fill="none" id="profile-role" style="stroke: #A80036; stroke-width: 1.0; stroke-dasharray: 7.0,7.0;"/><text fill="#000000" font-family="sans-serif" font-size="13" lengthAdjust="spacingAndGlyphs" textLength="236" x="250" y="421.1357">A identity identity may be assigned roles</text><text fill="#000000" font-family="sans-serif" font-size="13" lengthAdjust="spacingAndGlyphs" textLength="7" x="295.5064" y="381.2083">1</text><text fill="#000000" font-family="sans-serif" font-size="13" lengthAdjust="spacingAndGlyphs" textLength="20" x="225.747" y="451.3173">0..*</text><!--link profile to feature--><path d="M453.615,376.4546 C467.864,384.0056 481.379,393.8666 491,406.6406 C533.931,463.6436 533.397,553.5986 530.358,595.6036 " fill="none" id="profile-feature" style="stroke: #A80036; stroke-width: 1.0; stroke-dasharray: 7.0,7.0;"/><text fill="#000000" font-family="sans-serif" font-size="13" lengthAdjust="spacingAndGlyphs" textLength="254" x="531" y="491.6357">A identity identity may be assigned features</text><text fill="#000000" font-family="sans-serif" font-size="13" lengthAdjust="spacingAndGlyphs" textLength="7" x="461.5152" y="396.927">1</text><text fill="#000000" font-family="sans-serif" font-size="13" lengthAdjust="spacingAndGlyphs" textLength="20" x="508.3997" y="584.9103">0..*</text><!--link profile to operation--><path d="M453.689,360.7116 C560.273,372.8706 752.465,401.6946 794,454.6406 C833.727,505.2826 814.018,633.5916 757,691.6406 C733.337,715.7314 644.561,730.8245 584.75,738.4851 " fill="none" id="profile-operation" style="stroke: #A80036; stroke-width: 1.0; stroke-dasharray: 7.0,7.0;"/><text fill="#000000" font-family="sans-serif" font-size="13" lengthAdjust="spacingAndGlyphs" textLength="268" x="816" y="562.1357">A identity identity may be assigned operations</text><text fill="#000000" font-family="sans-serif" font-size="13" lengthAdjust="spacingAndGlyphs" textLength="7" x="461.4429" y="358.2225">1</text><text fill="#000000" font-family="sans-serif" font-size="13" lengthAdjust="spacingAndGlyphs" textLength="20" x="592.468" y="734.2374">0..*</text><!--link profile to personalisation--><path d="M310.373,360.6796 C264.356,367.5116 204.523,380.8346 157,406.6406 C135.005,418.5846 114.652,437.9976 99.7251,454.5286 " fill="none" id="profile-personalisation" style="stroke: #A80036; stroke-width: 1.0; stroke-dasharray: 7.0,7.0;"/><text fill="#000000" font-family="sans-serif" font-size="13" lengthAdjust="spacingAndGlyphs" textLength="77" x="158" y="421.1357">personal stuff</text><text fill="#000000" font-family="sans-serif" font-size="13" lengthAdjust="spacingAndGlyphs" textLength="7" x="295.6255" y="358.1872">1</text><text fill="#000000" font-family="sans-serif" font-size="13" lengthAdjust="spacingAndGlyphs" textLength="7" x="97.1028" y="443.861">1</text><!--link role to feature--><path d="M268.896,510.4666 C273.075,528.1636 281.487,551.7416 298,565.6406 C298.779,566.2966 387.314,586.5826 454.296,601.8616 " fill="none" id="role-feature" style="stroke: #A80036; stroke-width: 1.0; stroke-dasharray: 7.0,7.0;"/><text fill="#000000" font-family="sans-serif" font-size="13" lengthAdjust="spacingAndGlyphs" textLength="187" x="299" y="562.1357">A role may be assigned features</text><text fill="#000000" font-family="sans-serif" font-size="13" lengthAdjust="spacingAndGlyphs" textLength="7" x="261.9925" y="531.8612">1</text><text fill="#000000" font-family="sans-serif" font-size="13" lengthAdjust="spacingAndGlyphs" textLength="20" x="426.5795" y="596.9878">0..*</text><!--link role to operation--><path d="M250.455,510.1466 C231.828,542.8516 205.195,603.2876 234,643.6406 C287.932,719.194 402.109,738.8156 471.231,743.5576 " fill="none" id="role-operation" style="stroke: #A80036; stroke-width: 1.0; stroke-dasharray: 7.0,7.0;"/><text fill="#000000" font-family="sans-serif" font-size="13" lengthAdjust="spacingAndGlyphs" textLength="201" x="235" y="625.1357">A role may be assigned operations</text><text fill="#000000" font-family="sans-serif" font-size="13" lengthAdjust="spacingAndGlyphs" textLength="7" x="238.831" y="531.8643">1</text><text fill="#000000" font-family="sans-serif" font-size="13" lengthAdjust="spacingAndGlyphs" textLength="20" x="443.5108" y="739.8964">0..*</text><!--link feature to operation--><path d="M528,643.6736 C528,665.8056 528,699.0789 528,721.3103 " fill="none" id="feature-operation" style="stroke: #A80036; stroke-width: 1.0; stroke-dasharray: 7.0,7.0;"/><text fill="#000000" font-family="sans-serif" font-size="13" lengthAdjust="spacingAndGlyphs" textLength="219" x="529" y="688.1357">A feature may be assigned operations</text><text fill="#000000" font-family="sans-serif" font-size="13" lengthAdjust="spacingAndGlyphs" textLength="7" x="520.1031" y="665.3982">1</text><text fill="#000000" font-family="sans-serif" font-size="13" lengthAdjust="spacingAndGlyphs" textLength="20" x="505.5625" y="710.9449">0..*</text><!--
@startuml
skinparam handwritten false
skinparam actor {
    backgroundColor<<person>> LightSalmon
    borderColor<<person>> Black
}


' uncomment the line below if you're using computer with a retina display
' skinparam dpi 300
' we use bold for primary key
' green color for unique
' and underscore for not_null
' other tags available:
' <i></i>
' <back:COLOR></color>, where color is a color name or html color code
' (#FFAACC)
' see: http://plantuml.com/classes.html#More

hide methods
hide stereotypes



title Roles & Access

' entities

class identity as "identity\n(a real person)" << (T,#FFAAAA) >> {
}

class profile as "profile\n(app related identity)" << (T,#FFAAAA) >> {
}

class personalisation as "personalisation\n(KVP to support\napp customisation)" << (T,#FFAAAA) >> {
}

class app as "app\n(available applications)" << (T,#FFAAAA) >> {
}

class id_source as "identity source\n(where is\nthis identity\nfrom)" << (T,#FFAAAA) >> {
}

class role as "role\n(operations and features)" << (T,#FFAAAA) >> {
}

class feature as "feature\n(group of operations)" << (T,#FFAAAA) >> {
}

class operation as "operation\n(an atomic act)" << (T,#FFAAAA) >> {
}

' relationships


identity "1" .. "0..*" app : "Apps a identity has access to"
identity "1" .. "1..*" id_source : "Identity Sources\n(i.e. Vangard, ADFS, Active Directory"

app  "1" .. "1" profile : "Apps a identity has access to"

profile "1" .. "0..*" role : "A identity identity may be assigned roles"
profile "1" .. "0..*" feature : "A identity identity may be assigned features"
profile "1" .. "0..*" operation : "A identity identity may be assigned operations"

profile "1" .. "1" personalisation : "personal stuff"

role "1" .. "0..*" feature : "A role may be assigned features"
role "1" .. "0..*" operation : "A role may be assigned operations"

feature "1" .. "0..*" operation : "A feature may be assigned operations"

@enduml

PlantUML version 1.2017.19(Sun Nov 12 22:46:22 AEDT 2017)
(GPL source distribution)
Java Runtime: Java(TM) SE Runtime Environment
JVM: Java HotSpot(TM) 64-Bit Server VM
Java Version: 1.8.0_151-b12
Operating System: Windows Server 2012 R2
OS Version: 6.3
Default Encoding: UTF-8
Language: en
Country: US
--></g></svg>