<?xml version="1.0" encoding="UTF-8" standalone="no"?><svg xmlns="http://www.w3.org/2000/svg" xmlns:xlink="http://www.w3.org/1999/xlink" contentScriptType="application/ecmascript" contentStyleType="text/css" height="202px" preserveAspectRatio="none" style="width:390px;height:202px;" version="1.1" viewBox="0 0 390 202" width="390px" zoomAndPan="magnify"><defs/><g><text fill="#000000" font-family="sans-serif" font-size="12" lengthAdjust="spacingAndGlyphs" textLength="23" x="7" y="36.5508">Title</text><line style="stroke: #AAAAAA; stroke-width: 1.0;" x1="7" x2="71" y1="43.6875" y2="43.6875"/><line style="stroke: #AAAAAA; stroke-width: 1.0;" x1="7" x2="71" y1="45.6875" y2="45.6875"/><text fill="#000000" font-family="sans-serif" font-size="12" lengthAdjust="spacingAndGlyphs" textLength="63" x="7" y="61.6445">Description</text><line style="stroke: #AAAAAA; stroke-width: 1.0;" x1="7" x2="71" y1="69.7813" y2="69.7813"/><rect fill="#EEEEEE" height="19.0938" rx="5" ry="5" style="stroke: #000000; stroke-width: 2.5;" width="36" x="9.5" y="76.7813"/><text fill="#000000" font-family="sans-serif" font-size="12" lengthAdjust="spacingAndGlyphs" textLength="26" x="14.5" y="91.2383">View</text><rect fill="#EEEEEE" height="19.0938" rx="5" ry="5" style="stroke: #000000; stroke-width: 2.5;" width="52" x="74.5" y="76.7813"/><text fill="#000000" font-family="sans-serif" font-size="12" lengthAdjust="spacingAndGlyphs" textLength="36" x="82.5" y="91.2383">Parent</text><text fill="#000000" font-family="sans-serif" font-size="12" lengthAdjust="spacingAndGlyphs" textLength="23" x="133" y="36.5508">Title</text><line style="stroke: #AAAAAA; stroke-width: 1.0;" x1="133" x2="197" y1="43.6875" y2="43.6875"/><line style="stroke: #AAAAAA; stroke-width: 1.0;" x1="133" x2="197" y1="45.6875" y2="45.6875"/><text fill="#000000" font-family="sans-serif" font-size="12" lengthAdjust="spacingAndGlyphs" textLength="63" x="133" y="61.6445">Description</text><line style="stroke: #AAAAAA; stroke-width: 1.0;" x1="133" x2="197" y1="69.7813" y2="69.7813"/><rect fill="#EEEEEE" height="19.0938" rx="5" ry="5" style="stroke: #000000; stroke-width: 2.5;" width="36" x="135.5" y="76.7813"/><text fill="#000000" font-family="sans-serif" font-size="12" lengthAdjust="spacingAndGlyphs" textLength="26" x="140.5" y="91.2383">View</text><rect fill="#EEEEEE" height="19.0938" rx="5" ry="5" style="stroke: #000000; stroke-width: 2.5;" width="52" x="200.5" y="76.7813"/><text fill="#000000" font-family="sans-serif" font-size="12" lengthAdjust="spacingAndGlyphs" textLength="36" x="208.5" y="91.2383">Parent</text><text fill="#000000" font-family="sans-serif" font-size="12" lengthAdjust="spacingAndGlyphs" textLength="23" x="259" y="36.5508">Title</text><line style="stroke: #AAAAAA; stroke-width: 1.0;" x1="259" x2="323" y1="43.6875" y2="43.6875"/><line style="stroke: #AAAAAA; stroke-width: 1.0;" x1="259" x2="323" y1="45.6875" y2="45.6875"/><text fill="#000000" font-family="sans-serif" font-size="12" lengthAdjust="spacingAndGlyphs" textLength="63" x="259" y="61.6445">Description</text><line style="stroke: #AAAAAA; stroke-width: 1.0;" x1="259" x2="323" y1="69.7813" y2="69.7813"/><rect fill="#EEEEEE" height="19.0938" rx="5" ry="5" style="stroke: #000000; stroke-width: 2.5;" width="36" x="261.5" y="76.7813"/><text fill="#000000" font-family="sans-serif" font-size="12" lengthAdjust="spacingAndGlyphs" textLength="26" x="266.5" y="91.2383">View</text><rect fill="#EEEEEE" height="19.0938" rx="5" ry="5" style="stroke: #000000; stroke-width: 2.5;" width="52" x="326.5" y="76.7813"/><text fill="#000000" font-family="sans-serif" font-size="12" lengthAdjust="spacingAndGlyphs" textLength="36" x="334.5" y="91.2383">Parent</text><text fill="#000000" font-family="sans-serif" font-size="12" lengthAdjust="spacingAndGlyphs" textLength="23" x="7" y="131.9258">Title</text><line style="stroke: #AAAAAA; stroke-width: 1.0;" x1="7" x2="71" y1="139.0625" y2="139.0625"/><line style="stroke: #AAAAAA; stroke-width: 1.0;" x1="7" x2="71" y1="141.0625" y2="141.0625"/><text fill="#000000" font-family="sans-serif" font-size="12" lengthAdjust="spacingAndGlyphs" textLength="63" x="7" y="157.0195">Description</text><line style="stroke: #AAAAAA; stroke-width: 1.0;" x1="7" x2="71" y1="165.1563" y2="165.1563"/><rect fill="#EEEEEE" height="19.0938" rx="5" ry="5" style="stroke: #000000; stroke-width: 2.5;" width="36" x="9.5" y="172.1563"/><text fill="#000000" font-family="sans-serif" font-size="12" lengthAdjust="spacingAndGlyphs" textLength="26" x="14.5" y="186.6133">View</text><rect fill="#EEEEEE" height="19.0938" rx="5" ry="5" style="stroke: #000000; stroke-width: 2.5;" width="52" x="74.5" y="172.1563"/><text fill="#000000" font-family="sans-serif" font-size="12" lengthAdjust="spacingAndGlyphs" textLength="36" x="82.5" y="186.6133">Parent</text><text fill="#000000" font-family="sans-serif" font-size="12" lengthAdjust="spacingAndGlyphs" textLength="23" x="133" y="131.9258">Title</text><line style="stroke: #AAAAAA; stroke-width: 1.0;" x1="133" x2="197" y1="139.0625" y2="139.0625"/><line style="stroke: #AAAAAA; stroke-width: 1.0;" x1="133" x2="197" y1="141.0625" y2="141.0625"/><text fill="#000000" font-family="sans-serif" font-size="12" lengthAdjust="spacingAndGlyphs" textLength="63" x="133" y="157.0195">Description</text><line style="stroke: #AAAAAA; stroke-width: 1.0;" x1="133" x2="197" y1="165.1563" y2="165.1563"/><rect fill="#EEEEEE" height="19.0938" rx="5" ry="5" style="stroke: #000000; stroke-width: 2.5;" width="36" x="135.5" y="172.1563"/><text fill="#000000" font-family="sans-serif" font-size="12" lengthAdjust="spacingAndGlyphs" textLength="26" x="140.5" y="186.6133">View</text><rect fill="#EEEEEE" height="19.0938" rx="5" ry="5" style="stroke: #000000; stroke-width: 2.5;" width="52" x="200.5" y="172.1563"/><text fill="#000000" font-family="sans-serif" font-size="12" lengthAdjust="spacingAndGlyphs" textLength="36" x="208.5" y="186.6133">Parent</text><text fill="#000000" font-family="sans-serif" font-size="12" lengthAdjust="spacingAndGlyphs" textLength="23" x="259" y="131.9258">Title</text><line style="stroke: #AAAAAA; stroke-width: 1.0;" x1="259" x2="323" y1="139.0625" y2="139.0625"/><line style="stroke: #AAAAAA; stroke-width: 1.0;" x1="259" x2="323" y1="141.0625" y2="141.0625"/><text fill="#000000" font-family="sans-serif" font-size="12" lengthAdjust="spacingAndGlyphs" textLength="63" x="259" y="157.0195">Description</text><line style="stroke: #AAAAAA; stroke-width: 1.0;" x1="259" x2="323" y1="165.1563" y2="165.1563"/><rect fill="#EEEEEE" height="19.0938" rx="5" ry="5" style="stroke: #000000; stroke-width: 2.5;" width="36" x="261.5" y="172.1563"/><text fill="#000000" font-family="sans-serif" font-size="12" lengthAdjust="spacingAndGlyphs" textLength="26" x="266.5" y="186.6133">View</text><rect fill="#EEEEEE" height="19.0938" rx="5" ry="5" style="stroke: #000000; stroke-width: 2.5;" width="52" x="326.5" y="172.1563"/><text fill="#000000" font-family="sans-serif" font-size="12" lengthAdjust="spacingAndGlyphs" textLength="36" x="334.5" y="186.6133">Parent</text><line style="stroke: #000000; stroke-width: 1.0;" x1="5" x2="131" y1="5" y2="5"/><line style="stroke: #000000; stroke-width: 1.0;" x1="257" x2="383" y1="100.375" y2="100.375"/><line style="stroke: #000000; stroke-width: 1.0;" x1="131" x2="257" y1="5" y2="5"/><line style="stroke: #000000; stroke-width: 1.0;" x1="257" x2="383" y1="5" y2="5"/><line style="stroke: #000000; stroke-width: 1.0;" x1="5" x2="131" y1="117.4688" y2="117.4688"/><line style="stroke: #000000; stroke-width: 1.0;" x1="131" x2="257" y1="117.4688" y2="117.4688"/><line style="stroke: #000000; stroke-width: 1.0;" x1="5" x2="131" y1="22.0938" y2="22.0938"/><line style="stroke: #000000; stroke-width: 1.0;" x1="257" x2="383" y1="117.4688" y2="117.4688"/><line style="stroke: #000000; stroke-width: 1.0;" x1="131" x2="257" y1="22.0938" y2="22.0938"/><line style="stroke: #000000; stroke-width: 1.0;" x1="257" x2="383" y1="22.0938" y2="22.0938"/><line style="stroke: #000000; stroke-width: 1.0;" x1="5" x2="131" y1="195.75" y2="195.75"/><line style="stroke: #000000; stroke-width: 1.0;" x1="131" x2="257" y1="195.75" y2="195.75"/><line style="stroke: #000000; stroke-width: 1.0;" x1="257" x2="383" y1="195.75" y2="195.75"/><line style="stroke: #000000; stroke-width: 1.0;" x1="5" x2="131" y1="100.375" y2="100.375"/><line style="stroke: #000000; stroke-width: 1.0;" x1="131" x2="257" y1="100.375" y2="100.375"/><line style="stroke: #000000; stroke-width: 1.0;" x1="5" x2="5" y1="5" y2="22.0938"/><line style="stroke: #000000; stroke-width: 1.0;" x1="257" x2="257" y1="100.375" y2="117.4688"/><line style="stroke: #000000; stroke-width: 1.0;" x1="383" x2="383" y1="100.375" y2="117.4688"/><line style="stroke: #000000; stroke-width: 1.0;" x1="131" x2="131" y1="5" y2="22.0938"/><line style="stroke: #000000; stroke-width: 1.0;" x1="257" x2="257" y1="5" y2="22.0938"/><line style="stroke: #000000; stroke-width: 1.0;" x1="383" x2="383" y1="5" y2="22.0938"/><line style="stroke: #000000; stroke-width: 1.0;" x1="5" x2="5" y1="117.4688" y2="195.75"/><line style="stroke: #000000; stroke-width: 1.0;" x1="131" x2="131" y1="117.4688" y2="195.75"/><line style="stroke: #000000; stroke-width: 1.0;" x1="5" x2="5" y1="22.0938" y2="100.375"/><line style="stroke: #000000; stroke-width: 1.0;" x1="257" x2="257" y1="117.4688" y2="195.75"/><line style="stroke: #000000; stroke-width: 1.0;" x1="383" x2="383" y1="117.4688" y2="195.75"/><line style="stroke: #000000; stroke-width: 1.0;" x1="131" x2="131" y1="22.0938" y2="100.375"/><line style="stroke: #000000; stroke-width: 1.0;" x1="257" x2="257" y1="22.0938" y2="100.375"/><line style="stroke: #000000; stroke-width: 1.0;" x1="383" x2="383" y1="22.0938" y2="100.375"/><line style="stroke: #000000; stroke-width: 1.0;" x1="5" x2="5" y1="100.375" y2="117.4688"/><line style="stroke: #000000; stroke-width: 1.0;" x1="131" x2="131" y1="100.375" y2="117.4688"/></g></svg>