<?xml version="1.0" encoding="UTF-8" standalone="no"?><svg xmlns="http://www.w3.org/2000/svg" xmlns:xlink="http://www.w3.org/1999/xlink" contentScriptType="application/ecmascript" contentStyleType="text/css" height="287px" preserveAspectRatio="none" style="width:838px;height:287px;" version="1.1" viewBox="0 0 838 287" width="838px" zoomAndPan="magnify"><defs/><g><path d="M752,7 L752,8 L760,8 L760,7 L752,7 M752,9.969 L752,10.969 L760,10.969 L760,9.969 L752,9.969 M752,12.969 L752,13.969 L760,13.969 L760,12.969 L752,12.969 " fill="#000000" style="stroke: ; stroke-width: 0.0; stroke-dasharray: ;"/><text fill="#000000" font-family="sans-serif" font-size="12" lengthAdjust="spacingAndGlyphs" textLength="121" x="16" y="35.5508">Hot Topics &lt;&lt;folder&gt;&gt;</text><text fill="#000000" font-family="sans-serif" font-size="12" lengthAdjust="spacingAndGlyphs" textLength="102" x="26" y="50.6445">Topic 1 &lt;&lt;folder&gt;&gt;</text><text fill="#000000" font-family="sans-serif" font-size="12" lengthAdjust="spacingAndGlyphs" textLength="120" x="36" y="65.7383">Topic Brief &lt;&lt;folder&gt;&gt;</text><text fill="#000000" font-family="sans-serif" font-size="12" lengthAdjust="spacingAndGlyphs" textLength="96" x="46" y="80.832">Brief &lt;&lt;artefact&gt;&gt;</text><text fill="#000000" font-family="sans-serif" font-size="12" lengthAdjust="spacingAndGlyphs" textLength="117" x="46" y="95.9258">Discuss &lt;&lt;artefact&gt;&gt;</text><text fill="#000000" font-family="sans-serif" font-size="12" lengthAdjust="spacingAndGlyphs" textLength="166" x="46" y="111.0195">Recommentation &lt;&lt;artefact&gt;&gt;</text><text fill="#000000" font-family="sans-serif" font-size="12" lengthAdjust="spacingAndGlyphs" textLength="120" x="46" y="126.1133">Decision &lt;&lt;artefact&gt;&gt;</text><text fill="#000000" font-family="sans-serif" font-size="12" lengthAdjust="spacingAndGlyphs" textLength="130" x="46" y="141.207">Attachments &lt;&lt;folder&gt;&gt;</text><text fill="#000000" font-family="sans-serif" font-size="12" lengthAdjust="spacingAndGlyphs" textLength="142" x="56" y="156.3008">Attachment 1 &lt;&lt;artefact&gt;&gt;</text><text fill="#000000" font-family="sans-serif" font-size="12" lengthAdjust="spacingAndGlyphs" textLength="142" x="56" y="171.3945">Attachment 2 &lt;&lt;artefact&gt;&gt;</text><text fill="#000000" font-family="sans-serif" font-size="12" lengthAdjust="spacingAndGlyphs" textLength="102" x="26" y="186.4883">Topic 2 &lt;&lt;folder&gt;&gt;</text><text fill="#000000" font-family="sans-serif" font-size="12" lengthAdjust="spacingAndGlyphs" textLength="120" x="36" y="201.582">Topic Brief &lt;&lt;folder&gt;&gt;</text><text fill="#000000" font-family="sans-serif" font-size="12" lengthAdjust="spacingAndGlyphs" textLength="96" x="46" y="216.6758">Brief &lt;&lt;artefact&gt;&gt;</text><text fill="#000000" font-family="sans-serif" font-size="12" lengthAdjust="spacingAndGlyphs" textLength="117" x="46" y="231.7695">Discuss &lt;&lt;artefact&gt;&gt;</text><text fill="#000000" font-family="sans-serif" font-size="12" lengthAdjust="spacingAndGlyphs" textLength="166" x="46" y="246.8633">Recommentation &lt;&lt;artefact&gt;&gt;</text><text fill="#000000" font-family="sans-serif" font-size="12" lengthAdjust="spacingAndGlyphs" textLength="120" x="46" y="261.957">Decision &lt;&lt;artefact&gt;&gt;</text><text fill="#000000" font-family="sans-serif" font-size="12" lengthAdjust="spacingAndGlyphs" textLength="132" x="46" y="277.0508">Attachment &lt;&lt;artefact&gt;&gt;</text><rect fill="none" height="2" style="stroke: #888888; stroke-width: 1.0;" width="2" x="9" y="29.6406"/><rect fill="none" height="2" style="stroke: #888888; stroke-width: 1.0;" width="2" x="19" y="44.7344"/><line style="stroke: #888888; stroke-width: 1.0;" x1="10" x2="10" y1="32.6406" y2="45.7344"/><line style="stroke: #888888; stroke-width: 1.0;" x1="10" x2="18" y1="45.7344" y2="45.7344"/><rect fill="none" height="2" style="stroke: #888888; stroke-width: 1.0;" width="2" x="29" y="59.8281"/><line style="stroke: #888888; stroke-width: 1.0;" x1="20" x2="20" y1="47.7344" y2="60.8281"/><line style="stroke: #888888; stroke-width: 1.0;" x1="20" x2="28" y1="60.8281" y2="60.8281"/><line style="stroke: #888888; stroke-width: 1.0;" x1="30" x2="30" y1="62.8281" y2="75.9219"/><line style="stroke: #888888; stroke-width: 1.0;" x1="30" x2="38" y1="75.9219" y2="75.9219"/><line style="stroke: #888888; stroke-width: 1.0;" x1="30" x2="30" y1="62.8281" y2="91.0156"/><line style="stroke: #888888; stroke-width: 1.0;" x1="30" x2="38" y1="91.0156" y2="91.0156"/><line style="stroke: #888888; stroke-width: 1.0;" x1="30" x2="30" y1="62.8281" y2="106.1094"/><line style="stroke: #888888; stroke-width: 1.0;" x1="30" x2="38" y1="106.1094" y2="106.1094"/><line style="stroke: #888888; stroke-width: 1.0;" x1="30" x2="30" y1="62.8281" y2="121.2031"/><line style="stroke: #888888; stroke-width: 1.0;" x1="30" x2="38" y1="121.2031" y2="121.2031"/><rect fill="none" height="2" style="stroke: #888888; stroke-width: 1.0;" width="2" x="39" y="135.2969"/><line style="stroke: #888888; stroke-width: 1.0;" x1="30" x2="30" y1="62.8281" y2="136.2969"/><line style="stroke: #888888; stroke-width: 1.0;" x1="30" x2="38" y1="136.2969" y2="136.2969"/><line style="stroke: #888888; stroke-width: 1.0;" x1="40" x2="40" y1="138.2969" y2="151.3906"/><line style="stroke: #888888; stroke-width: 1.0;" x1="40" x2="48" y1="151.3906" y2="151.3906"/><line style="stroke: #888888; stroke-width: 1.0;" x1="40" x2="40" y1="138.2969" y2="166.4844"/><line style="stroke: #888888; stroke-width: 1.0;" x1="40" x2="48" y1="166.4844" y2="166.4844"/><rect fill="none" height="2" style="stroke: #888888; stroke-width: 1.0;" width="2" x="19" y="180.5781"/><line style="stroke: #888888; stroke-width: 1.0;" x1="10" x2="10" y1="32.6406" y2="181.5781"/><line style="stroke: #888888; stroke-width: 1.0;" x1="10" x2="18" y1="181.5781" y2="181.5781"/><rect fill="none" height="2" style="stroke: #888888; stroke-width: 1.0;" width="2" x="29" y="195.6719"/><line style="stroke: #888888; stroke-width: 1.0;" x1="20" x2="20" y1="183.5781" y2="196.6719"/><line style="stroke: #888888; stroke-width: 1.0;" x1="20" x2="28" y1="196.6719" y2="196.6719"/><line style="stroke: #888888; stroke-width: 1.0;" x1="30" x2="30" y1="198.6719" y2="211.7656"/><line style="stroke: #888888; stroke-width: 1.0;" x1="30" x2="38" y1="211.7656" y2="211.7656"/><line style="stroke: #888888; stroke-width: 1.0;" x1="30" x2="30" y1="198.6719" y2="226.8594"/><line style="stroke: #888888; stroke-width: 1.0;" x1="30" x2="38" y1="226.8594" y2="226.8594"/><line style="stroke: #888888; stroke-width: 1.0;" x1="30" x2="30" y1="198.6719" y2="241.9531"/><line style="stroke: #888888; stroke-width: 1.0;" x1="30" x2="38" y1="241.9531" y2="241.9531"/><line style="stroke: #888888; stroke-width: 1.0;" x1="30" x2="30" y1="198.6719" y2="257.0469"/><line style="stroke: #888888; stroke-width: 1.0;" x1="30" x2="38" y1="257.0469" y2="257.0469"/><line style="stroke: #888888; stroke-width: 1.0;" x1="30" x2="30" y1="198.6719" y2="272.1406"/><line style="stroke: #888888; stroke-width: 1.0;" x1="30" x2="38" y1="272.1406" y2="272.1406"/><text fill="#000000" font-family="sans-serif" font-size="12" lengthAdjust="spacingAndGlyphs" textLength="96" x="217" y="36.5508">Recommendaton</text><line style="stroke: #AAAAAA; stroke-width: 1.0;" x1="217" x2="749" y1="44.6875" y2="44.6875"/><text fill="#000000" font-family="sans-serif" font-size="12" lengthAdjust="spacingAndGlyphs" textLength="433" x="217" y="61.6445">Diam et egestas luctus, ante enim sodales ligula, eget pellentesque nisl lectus</text><line style="stroke: #AAAAAA; stroke-width: 1.0; stroke-dasharray: 1.0,2.0;" x1="217" x2="749" y1="69.7813" y2="69.7813"/><text fill="#000000" font-family="sans-serif" font-size="12" lengthAdjust="spacingAndGlyphs" textLength="63" x="217" y="86.7383">Discussion</text><line style="stroke: #AAAAAA; stroke-width: 1.0;" x1="217" x2="749" y1="94.875" y2="94.875"/><text fill="#000000" font-family="sans-serif" font-size="12" lengthAdjust="spacingAndGlyphs" textLength="155" x="217" y="111.832">Lorem ipsum dolor sit amet,</text><line style="stroke: #AAAAAA; stroke-width: 1.0; stroke-dasharray: 1.0,2.0;" x1="217" x2="749" y1="119.9688" y2="119.9688"/><text fill="#000000" font-family="sans-serif" font-size="12" lengthAdjust="spacingAndGlyphs" textLength="146" x="217" y="136.9258">consectetur adipiscing elit.</text><text fill="#000000" font-family="sans-serif" font-size="12" lengthAdjust="spacingAndGlyphs" textLength="224" x="217" y="154.0195">Sed pharetra iaculis enim at consectetur.</text><line style="stroke: #AAAAAA; stroke-width: 1.0; stroke-dasharray: 1.0,2.0;" x1="217" x2="749" y1="162.1563" y2="162.1563"/><text fill="#000000" font-family="sans-serif" font-size="12" lengthAdjust="spacingAndGlyphs" textLength="204" x="217" y="179.1133">Proin at congue leo, non vehicula dui.</text><line style="stroke: #AAAAAA; stroke-width: 1.0; stroke-dasharray: 1.0,2.0;" x1="217" x2="749" y1="187.25" y2="187.25"/><text fill="#000000" font-family="sans-serif" font-size="12" lengthAdjust="spacingAndGlyphs" textLength="25" x="217" y="204.207">Brief</text><line style="stroke: #AAAAAA; stroke-width: 1.0;" x1="217" x2="749" y1="212.3438" y2="212.3438"/><text fill="#000000" font-family="sans-serif" font-size="12" lengthAdjust="spacingAndGlyphs" textLength="531" x="217" y="229.3008">Lorem ipsum dolor sit amet, consectetur adipiscing elit. Sed pharetra iaculis enim at consectetur.</text><line style="stroke: #AAAAAA; stroke-width: 1.0; stroke-dasharray: 1.0,2.0;" x1="217" x2="749" y1="237.4375" y2="237.4375"/><text fill="#000000" font-family="sans-serif" font-size="12" lengthAdjust="spacingAndGlyphs" textLength="77" x="752" y="36.5508">Related Items</text><line style="stroke: #AAAAAA; stroke-width: 1.0;" x1="752" x2="830" y1="44.6875" y2="44.6875"/><text fill="#000000" font-family="sans-serif" font-size="12" lengthAdjust="spacingAndGlyphs" textLength="42" x="752" y="61.6445">(Item 1)</text><text fill="#000000" font-family="sans-serif" font-size="12" lengthAdjust="spacingAndGlyphs" textLength="42" x="752" y="78.7383">(Item 2)</text><text fill="#000000" font-family="sans-serif" font-size="12" lengthAdjust="spacingAndGlyphs" textLength="42" x="752" y="95.832">(Item 3)</text><line style="stroke: #000000; stroke-width: 1.0;" x1="5" x2="215" y1="5" y2="5"/><line style="stroke: #000000; stroke-width: 1.0;" x1="750" x2="831" y1="280.6875" y2="280.6875"/><line style="stroke: #000000; stroke-width: 1.0;" x1="215" x2="750" y1="5" y2="5"/><line style="stroke: #000000; stroke-width: 1.0;" x1="750" x2="831" y1="5" y2="5"/><line style="stroke: #000000; stroke-width: 1.0;" x1="5" x2="215" y1="280.6875" y2="280.6875"/><line style="stroke: #000000; stroke-width: 1.0;" x1="215" x2="750" y1="280.6875" y2="280.6875"/><line style="stroke: #000000; stroke-width: 1.0;" x1="5" x2="5" y1="5" y2="22.0938"/><line style="stroke: #000000; stroke-width: 1.0;" x1="831" x2="831" y1="22.0938" y2="280.6875"/><line style="stroke: #000000; stroke-width: 1.0;" x1="831" x2="831" y1="5" y2="22.0938"/><line style="stroke: #000000; stroke-width: 1.0;" x1="5" x2="5" y1="22.0938" y2="280.6875"/></g></svg>