<?xml version="1.0" encoding="UTF-8" standalone="no"?><svg xmlns="http://www.w3.org/2000/svg" xmlns:xlink="http://www.w3.org/1999/xlink" contentScriptType="application/ecmascript" contentStyleType="text/css" height="994px" preserveAspectRatio="none" style="width:641px;height:994px;" version="1.1" viewBox="0 0 641 994" width="641px" zoomAndPan="magnify"><defs><filter height="300%" id="ftaubvrvdtvwj" width="300%" x="-1" y="-1"><feGaussianBlur result="blurOut" stdDeviation="2.0"/><feColorMatrix in="blurOut" result="blurOut2" type="matrix" values="0 0 0 0 0 0 0 0 0 0 0 0 0 0 0 0 0 0 .4 0"/><feOffset dx="4.0" dy="4.0" in="blurOut2" result="blurOut3"/><feBlend in="SourceGraphic" in2="blurOut3" mode="normal"/></filter></defs><g><!--class jurisdiction--><rect fill="#FEFECE" filter="url(#ftaubvrvdtvwj)" height="75.8594" id="jurisdiction" style="stroke: #A80036; stroke-width: 1.5;" width="207" x="146" y="8"/><ellipse cx="161" cy="28.0938" fill="#FFAAAA" rx="11" ry="11" style="stroke: #A80036; stroke-width: 1.0;"/><path d="M161.9219,25.4844 L161.9219,32.1406 L163.0781,32.1406 Q163.6875,32.1406 163.9453,32.375 Q164.2031,32.6094 164.2031,33 Q164.2031,33.375 163.9453,33.6094 Q163.6875,33.8438 163.0781,33.8438 L159.0938,33.8438 Q158.4688,33.8438 158.2109,33.6094 Q157.9531,33.375 157.9531,32.9844 Q157.9531,32.6094 158.2109,32.375 Q158.4688,32.1406 159.0938,32.1406 L160.2188,32.1406 L160.2188,25.4844 L158.375,25.4844 L158.375,27.0938 Q158.375,27.7031 158.1406,27.9688 Q157.9063,28.2344 157.5313,28.2344 Q157.1563,28.2344 156.9219,27.9688 Q156.6875,27.7031 156.6875,27.0938 L156.6875,23.7813 L165.5,23.7813 L165.5,27.0938 Q165.5,27.7031 165.2578,27.9688 Q165.0156,28.2344 164.6406,28.2344 Q164.2656,28.2344 164.0313,27.9688 Q163.7969,27.7031 163.7969,27.0938 L163.7969,25.4844 L161.9219,25.4844 Z "/><text fill="#000000" font-family="sans-serif" font-size="12" lengthAdjust="spacingAndGlyphs" textLength="60" x="232.5" y="25.457">jurisdiction</text><text fill="#000000" font-family="sans-serif" font-size="12" lengthAdjust="spacingAndGlyphs" textLength="175" x="175" y="40.5508">(Department or Business Entity)</text><line style="stroke: #A80036; stroke-width: 1.5;" x1="147" x2="352" y1="48.1875" y2="48.1875"/><text fill="#000000" font-family="sans-serif" font-size="11" font-weight="bold" lengthAdjust="spacingAndGlyphs" textLength="10" x="152" y="63.6064">id</text><text fill="#000000" font-family="sans-serif" font-size="11" lengthAdjust="spacingAndGlyphs" textLength="42" x="165" y="63.6064">INTEGER</text><text fill="#000000" font-family="sans-serif" font-size="11" lengthAdjust="spacingAndGlyphs" text-decoration="underline" textLength="35" x="152" y="77.4424">caption</text><line style="stroke: #000000; stroke-width: 1.0;" x1="152" x2="187" y1="79.4424" y2="79.4424"/><text fill="#000000" font-family="sans-serif" font-size="11" lengthAdjust="spacingAndGlyphs" textLength="70" x="190" y="77.4424">VARCHAR[32]</text><!--class group--><rect fill="#FEFECE" filter="url(#ftaubvrvdtvwj)" height="90.9531" id="group" style="stroke: #A80036; stroke-width: 1.5;" width="203" x="148" y="162"/><ellipse cx="163" cy="189.6406" fill="#FFAAAA" rx="11" ry="11" style="stroke: #A80036; stroke-width: 1.0;"/><path d="M163.9219,187.0313 L163.9219,193.6875 L165.0781,193.6875 Q165.6875,193.6875 165.9453,193.9219 Q166.2031,194.1563 166.2031,194.5469 Q166.2031,194.9219 165.9453,195.1563 Q165.6875,195.3906 165.0781,195.3906 L161.0938,195.3906 Q160.4688,195.3906 160.2109,195.1563 Q159.9531,194.9219 159.9531,194.5313 Q159.9531,194.1563 160.2109,193.9219 Q160.4688,193.6875 161.0938,193.6875 L162.2188,193.6875 L162.2188,187.0313 L160.375,187.0313 L160.375,188.6406 Q160.375,189.25 160.1406,189.5156 Q159.9063,189.7813 159.5313,189.7813 Q159.1563,189.7813 158.9219,189.5156 Q158.6875,189.25 158.6875,188.6406 L158.6875,185.3281 L167.5,185.3281 L167.5,188.6406 Q167.5,189.25 167.2578,189.5156 Q167.0156,189.7813 166.6406,189.7813 Q166.2656,189.7813 166.0313,189.5156 Q165.7969,189.25 165.7969,188.6406 L165.7969,187.0313 L163.9219,187.0313 Z "/><text fill="#000000" font-family="sans-serif" font-size="12" lengthAdjust="spacingAndGlyphs" textLength="32" x="246.5" y="179.457">group</text><text fill="#000000" font-family="sans-serif" font-size="12" lengthAdjust="spacingAndGlyphs" textLength="171" x="177" y="194.5508">(A collection of briefing material</text><text fill="#000000" font-family="sans-serif" font-size="12" lengthAdjust="spacingAndGlyphs" textLength="144" x="190.5" y="209.6445">owned by a business unit)</text><line style="stroke: #A80036; stroke-width: 1.5;" x1="149" x2="350" y1="217.2813" y2="217.2813"/><text fill="#000000" font-family="sans-serif" font-size="11" font-weight="bold" lengthAdjust="spacingAndGlyphs" textLength="10" x="154" y="232.7002">id</text><text fill="#000000" font-family="sans-serif" font-size="11" lengthAdjust="spacingAndGlyphs" textLength="42" x="167" y="232.7002">INTEGER</text><text fill="#000000" font-family="sans-serif" font-size="11" lengthAdjust="spacingAndGlyphs" text-decoration="underline" textLength="35" x="154" y="246.5361">caption</text><line style="stroke: #000000; stroke-width: 1.0;" x1="154" x2="189" y1="248.5361" y2="248.5361"/><text fill="#000000" font-family="sans-serif" font-size="11" lengthAdjust="spacingAndGlyphs" textLength="70" x="192" y="246.5361">VARCHAR[32]</text><!--class pack--><rect fill="#FEFECE" filter="url(#ftaubvrvdtvwj)" height="90.9531" id="pack" style="stroke: #A80036; stroke-width: 1.5;" width="203" x="148" y="331"/><ellipse cx="163" cy="358.6406" fill="#FFAAAA" rx="11" ry="11" style="stroke: #A80036; stroke-width: 1.0;"/><path d="M163.9219,356.0313 L163.9219,362.6875 L165.0781,362.6875 Q165.6875,362.6875 165.9453,362.9219 Q166.2031,363.1563 166.2031,363.5469 Q166.2031,363.9219 165.9453,364.1563 Q165.6875,364.3906 165.0781,364.3906 L161.0938,364.3906 Q160.4688,364.3906 160.2109,364.1563 Q159.9531,363.9219 159.9531,363.5313 Q159.9531,363.1563 160.2109,362.9219 Q160.4688,362.6875 161.0938,362.6875 L162.2188,362.6875 L162.2188,356.0313 L160.375,356.0313 L160.375,357.6406 Q160.375,358.25 160.1406,358.5156 Q159.9063,358.7813 159.5313,358.7813 Q159.1563,358.7813 158.9219,358.5156 Q158.6875,358.25 158.6875,357.6406 L158.6875,354.3281 L167.5,354.3281 L167.5,357.6406 Q167.5,358.25 167.2578,358.5156 Q167.0156,358.7813 166.6406,358.7813 Q166.2656,358.7813 166.0313,358.5156 Q165.7969,358.25 165.7969,357.6406 L165.7969,356.0313 L163.9219,356.0313 Z "/><text fill="#000000" font-family="sans-serif" font-size="12" lengthAdjust="spacingAndGlyphs" textLength="26" x="249.5" y="348.457">pack</text><text fill="#000000" font-family="sans-serif" font-size="12" lengthAdjust="spacingAndGlyphs" textLength="171" x="177" y="363.5508">(A collection of briefing material</text><text fill="#000000" font-family="sans-serif" font-size="12" lengthAdjust="spacingAndGlyphs" textLength="125" x="200" y="378.6445">with a unified purpose)</text><line style="stroke: #A80036; stroke-width: 1.5;" x1="149" x2="350" y1="386.2813" y2="386.2813"/><text fill="#000000" font-family="sans-serif" font-size="11" font-weight="bold" lengthAdjust="spacingAndGlyphs" textLength="10" x="154" y="401.7002">id</text><text fill="#000000" font-family="sans-serif" font-size="11" lengthAdjust="spacingAndGlyphs" textLength="42" x="167" y="401.7002">INTEGER</text><text fill="#000000" font-family="sans-serif" font-size="11" lengthAdjust="spacingAndGlyphs" text-decoration="underline" textLength="35" x="154" y="415.5361">caption</text><line style="stroke: #000000; stroke-width: 1.0;" x1="154" x2="189" y1="417.5361" y2="417.5361"/><text fill="#000000" font-family="sans-serif" font-size="11" lengthAdjust="spacingAndGlyphs" textLength="70" x="192" y="415.5361">VARCHAR[32]</text><!--class folder--><rect fill="#FEFECE" filter="url(#ftaubvrvdtvwj)" height="75.8594" id="folder" style="stroke: #A80036; stroke-width: 1.5;" width="222" x="138.5" y="500"/><ellipse cx="153.5" cy="520.0938" fill="#FFAAAA" rx="11" ry="11" style="stroke: #A80036; stroke-width: 1.0;"/><path d="M154.4219,517.4844 L154.4219,524.1406 L155.5781,524.1406 Q156.1875,524.1406 156.4453,524.375 Q156.7031,524.6094 156.7031,525 Q156.7031,525.375 156.4453,525.6094 Q156.1875,525.8438 155.5781,525.8438 L151.5938,525.8438 Q150.9688,525.8438 150.7109,525.6094 Q150.4531,525.375 150.4531,524.9844 Q150.4531,524.6094 150.7109,524.375 Q150.9688,524.1406 151.5938,524.1406 L152.7188,524.1406 L152.7188,517.4844 L150.875,517.4844 L150.875,519.0938 Q150.875,519.7031 150.6406,519.9688 Q150.4063,520.2344 150.0313,520.2344 Q149.6563,520.2344 149.4219,519.9688 Q149.1875,519.7031 149.1875,519.0938 L149.1875,515.7813 L158,515.7813 L158,519.0938 Q158,519.7031 157.7578,519.9688 Q157.5156,520.2344 157.1406,520.2344 Q156.7656,520.2344 156.5313,519.9688 Q156.2969,519.7031 156.2969,519.0938 L156.2969,517.4844 L154.4219,517.4844 Z "/><text fill="#000000" font-family="sans-serif" font-size="12" lengthAdjust="spacingAndGlyphs" textLength="31" x="247" y="517.457">folder</text><text fill="#000000" font-family="sans-serif" font-size="12" lengthAdjust="spacingAndGlyphs" textLength="190" x="167.5" y="532.5508">(Building block for pack navigation)</text><line style="stroke: #A80036; stroke-width: 1.5;" x1="139.5" x2="359.5" y1="540.1875" y2="540.1875"/><text fill="#000000" font-family="sans-serif" font-size="11" font-weight="bold" lengthAdjust="spacingAndGlyphs" textLength="10" x="144.5" y="555.6064">id</text><text fill="#000000" font-family="sans-serif" font-size="11" lengthAdjust="spacingAndGlyphs" textLength="42" x="157.5" y="555.6064">INTEGER</text><text fill="#000000" font-family="sans-serif" font-size="11" lengthAdjust="spacingAndGlyphs" text-decoration="underline" textLength="35" x="144.5" y="569.4424">caption</text><line style="stroke: #000000; stroke-width: 1.0;" x1="144.5" x2="179.5" y1="571.4424" y2="571.4424"/><text fill="#000000" font-family="sans-serif" font-size="11" lengthAdjust="spacingAndGlyphs" textLength="70" x="182.5" y="569.4424">VARCHAR[32]</text><!--class artifact--><rect fill="#FEFECE" filter="url(#ftaubvrvdtvwj)" height="90.9531" id="artifact" style="stroke: #A80036; stroke-width: 1.5;" width="181" x="6" y="654"/><ellipse cx="21" cy="681.6406" fill="#FFAAAA" rx="11" ry="11" style="stroke: #A80036; stroke-width: 1.0;"/><path d="M21.9219,679.0313 L21.9219,685.6875 L23.0781,685.6875 Q23.6875,685.6875 23.9453,685.9219 Q24.2031,686.1563 24.2031,686.5469 Q24.2031,686.9219 23.9453,687.1563 Q23.6875,687.3906 23.0781,687.3906 L19.0938,687.3906 Q18.4688,687.3906 18.2109,687.1563 Q17.9531,686.9219 17.9531,686.5313 Q17.9531,686.1563 18.2109,685.9219 Q18.4688,685.6875 19.0938,685.6875 L20.2188,685.6875 L20.2188,679.0313 L18.375,679.0313 L18.375,680.6406 Q18.375,681.25 18.1406,681.5156 Q17.9063,681.7813 17.5313,681.7813 Q17.1563,681.7813 16.9219,681.5156 Q16.6875,681.25 16.6875,680.6406 L16.6875,677.3281 L25.5,677.3281 L25.5,680.6406 Q25.5,681.25 25.2578,681.5156 Q25.0156,681.7813 24.6406,681.7813 Q24.2656,681.7813 24.0313,681.5156 Q23.7969,681.25 23.7969,680.6406 L23.7969,679.0313 L21.9219,679.0313 Z "/><text fill="#000000" font-family="sans-serif" font-size="12" lengthAdjust="spacingAndGlyphs" textLength="36" x="90" y="671.457">artifact</text><text fill="#000000" font-family="sans-serif" font-size="12" lengthAdjust="spacingAndGlyphs" textLength="149" x="35" y="686.5508">(an item that can be viewed</text><text fill="#000000" font-family="sans-serif" font-size="12" lengthAdjust="spacingAndGlyphs" textLength="139" x="40" y="701.6445">a brief, chat, decision etc)</text><line style="stroke: #A80036; stroke-width: 1.5;" x1="7" x2="186" y1="709.2813" y2="709.2813"/><text fill="#000000" font-family="sans-serif" font-size="11" font-weight="bold" lengthAdjust="spacingAndGlyphs" textLength="10" x="12" y="724.7002">id</text><text fill="#000000" font-family="sans-serif" font-size="11" lengthAdjust="spacingAndGlyphs" textLength="42" x="25" y="724.7002">INTEGER</text><text fill="#000000" font-family="sans-serif" font-size="11" lengthAdjust="spacingAndGlyphs" text-decoration="underline" textLength="35" x="12" y="738.5361">caption</text><line style="stroke: #000000; stroke-width: 1.0;" x1="12" x2="47" y1="740.5361" y2="740.5361"/><text fill="#000000" font-family="sans-serif" font-size="11" lengthAdjust="spacingAndGlyphs" textLength="70" x="50" y="738.5361">VARCHAR[32]</text><!--class ext_key_sp--><rect fill="#FEFECE" filter="url(#ftaubvrvdtvwj)" height="81.5078" id="ext_key_sp" style="stroke: #A80036; stroke-width: 1.5;" width="164" x="156.5" y="902"/><ellipse cx="171.5" cy="918" fill="#FFAAAA" rx="11" ry="11" style="stroke: #A80036; stroke-width: 1.0;"/><path d="M172.4219,915.3906 L172.4219,922.0469 L173.5781,922.0469 Q174.1875,922.0469 174.4453,922.2813 Q174.7031,922.5156 174.7031,922.9063 Q174.7031,923.2813 174.4453,923.5156 Q174.1875,923.75 173.5781,923.75 L169.5938,923.75 Q168.9688,923.75 168.7109,923.5156 Q168.4531,923.2813 168.4531,922.8906 Q168.4531,922.5156 168.7109,922.2813 Q168.9688,922.0469 169.5938,922.0469 L170.7188,922.0469 L170.7188,915.3906 L168.875,915.3906 L168.875,917 Q168.875,917.6094 168.6406,917.875 Q168.4063,918.1406 168.0313,918.1406 Q167.6563,918.1406 167.4219,917.875 Q167.1875,917.6094 167.1875,917 L167.1875,913.6875 L176,913.6875 L176,917 Q176,917.6094 175.7578,917.875 Q175.5156,918.1406 175.1406,918.1406 Q174.7656,918.1406 174.5313,917.875 Q174.2969,917.6094 174.2969,917 L174.2969,915.3906 L172.4219,915.3906 Z "/><text fill="#000000" font-family="sans-serif" font-size="12" lengthAdjust="spacingAndGlyphs" textLength="132" x="185.5" y="922.9102">sharepoint key mapping</text><line style="stroke: #A80036; stroke-width: 1.5;" x1="157.5" x2="319.5" y1="934" y2="934"/><text fill="#000000" font-family="sans-serif" font-size="11" font-weight="bold" lengthAdjust="spacingAndGlyphs" textLength="45" x="162.5" y="949.4189">web_url</text><text fill="#000000" font-family="sans-serif" font-size="11" lengthAdjust="spacingAndGlyphs" textLength="70" x="210.5" y="949.4189">VARCHAR[32]</text><text fill="#000000" font-family="sans-serif" font-size="11" font-weight="bold" lengthAdjust="spacingAndGlyphs" textLength="33" x="162.5" y="963.2549">list_id</text><text fill="#000000" font-family="sans-serif" font-size="11" lengthAdjust="spacingAndGlyphs" textLength="24" x="198.5" y="963.2549">GUID</text><text fill="#000000" font-family="sans-serif" font-size="11" font-weight="bold" lengthAdjust="spacingAndGlyphs" textLength="41" x="162.5" y="977.0908">item_id</text><text fill="#000000" font-family="sans-serif" font-size="11" lengthAdjust="spacingAndGlyphs" textLength="42" x="206.5" y="977.0908">INTEGER</text><!--link jurisdiction to group--><path d="M249.5,84.396 C249.5,105.968 249.5,133.364 249.5,156.738 " fill="none" id="jurisdiction-group" style="stroke: #A80036; stroke-width: 1.0;"/><polygon fill="#A80036" points="249.5,161.968,253.5,152.968,249.5,156.968,245.5,152.968,249.5,161.968" style="stroke: #A80036; stroke-width: 1.0;"/><text fill="#000000" font-family="sans-serif" font-size="13" lengthAdjust="spacingAndGlyphs" textLength="216" x="250.5" y="128.4951">A jurisdiction has one or more groups</text><text fill="#000000" font-family="sans-serif" font-size="13" lengthAdjust="spacingAndGlyphs" textLength="7" x="241.9422" y="105.3247">1</text><text fill="#000000" font-family="sans-serif" font-size="13" lengthAdjust="spacingAndGlyphs" textLength="5" x="244.1172" y="151.2965">*</text><!--link group to pack--><path d="M249.5,253.253 C249.5,275.619 249.5,302.75 249.5,325.766 " fill="none" id="group-pack" style="stroke: #A80036; stroke-width: 1.0;"/><polygon fill="#A80036" points="249.5,330.913,253.5,321.913,249.5,325.913,245.5,321.913,249.5,330.913" style="stroke: #A80036; stroke-width: 1.0;"/><text fill="#000000" font-family="sans-serif" font-size="13" lengthAdjust="spacingAndGlyphs" textLength="182" x="250.5" y="297.4951">A group has one or more packs</text><text fill="#000000" font-family="sans-serif" font-size="13" lengthAdjust="spacingAndGlyphs" textLength="7" x="242.0078" y="274.3351">1</text><text fill="#000000" font-family="sans-serif" font-size="13" lengthAdjust="spacingAndGlyphs" textLength="5" x="244.1172" y="320.2331">*</text><!--link pack to folder--><path d="M249.5,422.354 C249.5,444.959 249.5,472.224 249.5,494.492 " fill="none" id="pack-folder" style="stroke: #A80036; stroke-width: 1.0;"/><polygon fill="#A80036" points="249.5,499.747,253.5,490.747,249.5,494.747,245.5,490.747,249.5,499.747" style="stroke: #A80036; stroke-width: 1.0;"/><text fill="#000000" font-family="sans-serif" font-size="13" lengthAdjust="spacingAndGlyphs" textLength="232" x="250.5" y="466.4951">A pack has one or more 1st level folders</text><text fill="#000000" font-family="sans-serif" font-size="13" lengthAdjust="spacingAndGlyphs" textLength="7" x="242.0078" y="443.4504">1</text><text fill="#000000" font-family="sans-serif" font-size="13" lengthAdjust="spacingAndGlyphs" textLength="5" x="244.0547" y="489.0471">*</text><!--link folder to folder--><path d="M360.588,524.507 C381.09,526.192 395.5,530.689 395.5,538 C395.5,544.682 383.461,549.014 365.733,550.996 " fill="none" id="folder-folder" style="stroke: #A80036; stroke-width: 1.0;"/><polygon fill="#A80036" points="360.588,551.493,369.9313,554.6079,365.5648,551.0116,369.1611,546.6451,360.588,551.493" style="stroke: #A80036; stroke-width: 1.0;"/><text fill="#000000" font-family="sans-serif" font-size="13" lengthAdjust="spacingAndGlyphs" textLength="154" x="401.5" y="543.4951">A folder has many children</text><text fill="#000000" font-family="sans-serif" font-size="13" lengthAdjust="spacingAndGlyphs" textLength="7" x="368.645" y="520.5082">1</text><text fill="#000000" font-family="sans-serif" font-size="13" lengthAdjust="spacingAndGlyphs" textLength="5" x="368.5747" y="549.3916">*</text><!--link folder to artifact--><path d="M161.239,576.128 C148.309,584.488 136.129,594.4 126.5,606 C116.425,618.138 109.708,633.738 105.2395,648.656 " fill="none" id="folder-artifact" style="stroke: #A80036; stroke-width: 1.0;"/><polygon fill="#A80036" points="103.8088,653.683,110.1193,646.1214,105.1772,648.8739,102.4247,643.9319,103.8088,653.683" style="stroke: #A80036; stroke-width: 1.0;"/><text fill="#000000" font-family="sans-serif" font-size="13" lengthAdjust="spacingAndGlyphs" textLength="237" x="127.5" y="620.4951">A folder may have zero to many artifact s</text><text fill="#000000" font-family="sans-serif" font-size="13" lengthAdjust="spacingAndGlyphs" textLength="7" x="139.0411" y="597.3038">1</text><text fill="#000000" font-family="sans-serif" font-size="13" lengthAdjust="spacingAndGlyphs" textLength="5" x="99.5151" y="643.303">*</text><!--link folder to ext_key_sp--><path d="M341.531,576.037 C352.676,584.271 362.555,594.168 369.5,606 C422.371,696.074 415.587,747.273 369.5,841 C358.095,864.194 338.518,883.563 317.925,898.9293 " fill="none" id="folder-ext_key_sp" style="stroke: #A80036; stroke-width: 1.0; stroke-dasharray: 7.0,7.0;"/><polygon fill="#A80036" points="313.795,901.9492,323.4209,899.8656,317.831,898.9979,318.6988,893.4079,313.795,901.9492" style="stroke: #A80036; stroke-width: 1.0;"/><text fill="#000000" font-family="sans-serif" font-size="13" lengthAdjust="spacingAndGlyphs" textLength="228" x="397.5" y="789.4951">A folder may be managed in Sharepoint</text><text fill="#000000" font-family="sans-serif" font-size="13" lengthAdjust="spacingAndGlyphs" textLength="7" x="349.7473" y="597.487">1</text><text fill="#000000" font-family="sans-serif" font-size="13" lengthAdjust="spacingAndGlyphs" textLength="22" x="302.8457" y="891.0862">0..1</text><!--link artifact to ext_key_sp--><path d="M93.115,745.224 C92.8874,774.22 96.4282,811.875 112.5,841 C125.008,863.667 144.887,883.123 165.192,898.7351 " fill="none" id="artifact-ext_key_sp" style="stroke: #A80036; stroke-width: 1.0; stroke-dasharray: 7.0,7.0;"/><polygon fill="#A80036" points="169.257,901.8061,164.4877,893.189,165.2677,898.7918,159.6649,899.5718,169.257,901.8061" style="stroke: #A80036; stroke-width: 1.0;"/><text fill="#000000" font-family="sans-serif" font-size="13" lengthAdjust="spacingAndGlyphs" textLength="247" x="113.5" y="837.4951">An artifact  may be managed in Sharepoint</text><text fill="#000000" font-family="sans-serif" font-size="13" lengthAdjust="spacingAndGlyphs" textLength="7" x="85.1468" y="766.3021">1</text><text fill="#000000" font-family="sans-serif" font-size="13" lengthAdjust="spacingAndGlyphs" textLength="22" x="133.9668" y="891.2234">0..1</text><!--
@startuml
skinparam handwritten false
skinparam actor {
    backgroundColor<<person>> LightSalmon
    borderColor<<person>> Black
}


' uncomment the line below if you're using computer with a retina display
' skinparam dpi 300
' we use bold for primary key
' green color for unique
' and underscore for not_null
' other tags available:
' <i></i>
' <back:COLOR></color>, where color is a color name or html color code
' (#FFAACC)
' see: http://plantuml.com/classes.html#More

hide methods
hide stereotypes

' entities

class jurisdiction as "jurisdiction\n(Department or Business Entity)" << (T,#FFAAAA) >> {
    <b>id</b> INTEGER
    <u>caption</u> VARCHAR[32]
}

class group as "group\n(A collection of briefing material\nowned by a business unit)" << (T,#FFAAAA) >> {
    <b>id</b> INTEGER
    <u>caption</u> VARCHAR[32]
}

class pack as "pack\n(A collection of briefing material\nwith a unified purpose)" << (T,#FFAAAA) >> {
    <b>id</b> INTEGER
    <u>caption</u> VARCHAR[32]
}


class folder as "folder\n(Building block for pack navigation)" << (T,#FFAAAA) >> {
    <b>id</b> INTEGER
    <u>caption</u> VARCHAR[32]
}

class artifact  as "artifact \n(an item that can be viewed\na brief, chat, decision etc)" << (T,#FFAAAA) >> {
    <b>id</b> INTEGER
    <u>caption</u> VARCHAR[32]
}


class ext_key_sp as "sharepoint key mapping" << (T,#FFAAAA) >> {
    <b>web_url</b> VARCHAR[32]
    <b>list_id</b> GUID
    <b>item_id</b> INTEGER
}


' relationships
' one-to-one relationship

' one-to-many relationship
jurisdiction "1" - -> "*" group : "A jurisdiction has one or more groups"
group "1" - -> "*" pack : "A group has one or more packs"
pack "1" - -> "*" folder : "A pack has one or more 1st level folders"
folder "1" - -> "*" folder : "A folder has many children"
folder "1" - -> "*" artifact  : "A folder may have zero to many artifact s"

folder "1" ...> "0..1" ext_key_sp : "A folder may be managed in Sharepoint "
artifact  "1" ...> "0..1" ext_key_sp : "An artifact  may be managed in Sharepoint "

' many to many relationship



@enduml

PlantUML version 1.2017.19(Sun Nov 12 22:46:22 AEDT 2017)
(GPL source distribution)
Java Runtime: Java(TM) SE Runtime Environment
JVM: Java HotSpot(TM) 64-Bit Server VM
Java Version: 1.8.0_151-b12
Operating System: Windows Server 2012 R2
OS Version: 6.3
Default Encoding: UTF-8
Language: en
Country: US
--></g></svg>