<?xml version="1.0" encoding="UTF-8" standalone="no"?><svg xmlns="http://www.w3.org/2000/svg" xmlns:xlink="http://www.w3.org/1999/xlink" contentScriptType="application/ecmascript" contentStyleType="text/css" height="830px" preserveAspectRatio="none" style="width:674px;height:830px;" version="1.1" viewBox="0 0 674 830" width="674px" zoomAndPan="magnify"><defs><filter height="300%" id="ftw5esja32559" width="300%" x="-1" y="-1"><feGaussianBlur result="blurOut" stdDeviation="2.0"/><feColorMatrix in="blurOut" result="blurOut2" type="matrix" values="0 0 0 0 0 0 0 0 0 0 0 0 0 0 0 0 0 0 .4 0"/><feOffset dx="4.0" dy="4.0" in="blurOut2" result="blurOut3"/><feBlend in="SourceGraphic" in2="blurOut3" mode="normal"/></filter></defs><g><text fill="#000000" font-family="sans-serif" font-size="18" lengthAdjust="spacingAndGlyphs" textLength="98" x="292" y="18.6855">ERD : Topic</text><!--class user--><rect fill="#FEFECE" filter="url(#ftw5esja32559)" height="53.8359" id="user" style="stroke: #A80036; stroke-width: 1.5;" width="67" x="389.5" y="224.6406"/><ellipse cx="409" cy="240.6406" fill="#FFAAAA" rx="11" ry="11" style="stroke: #A80036; stroke-width: 1.0;"/><path d="M409.9219,238.0313 L409.9219,244.6875 L411.0781,244.6875 Q411.6875,244.6875 411.9453,244.9219 Q412.2031,245.1563 412.2031,245.5469 Q412.2031,245.9219 411.9453,246.1563 Q411.6875,246.3906 411.0781,246.3906 L407.0938,246.3906 Q406.4688,246.3906 406.2109,246.1563 Q405.9531,245.9219 405.9531,245.5313 Q405.9531,245.1563 406.2109,244.9219 Q406.4688,244.6875 407.0938,244.6875 L408.2188,244.6875 L408.2188,238.0313 L406.375,238.0313 L406.375,239.6406 Q406.375,240.25 406.1406,240.5156 Q405.9063,240.7813 405.5313,240.7813 Q405.1563,240.7813 404.9219,240.5156 Q404.6875,240.25 404.6875,239.6406 L404.6875,236.3281 L413.5,236.3281 L413.5,239.6406 Q413.5,240.25 413.2578,240.5156 Q413.0156,240.7813 412.6406,240.7813 Q412.2656,240.7813 412.0313,240.5156 Q411.7969,240.25 411.7969,239.6406 L411.7969,238.0313 L409.9219,238.0313 Z "/><text fill="#000000" font-family="sans-serif" font-size="12" lengthAdjust="spacingAndGlyphs" textLength="25" x="424" y="245.5508">user</text><line style="stroke: #A80036; stroke-width: 1.5;" x1="390.5" x2="455.5" y1="256.6406" y2="256.6406"/><text fill="#000000" font-family="sans-serif" font-size="11" font-weight="bold" lengthAdjust="spacingAndGlyphs" textLength="10" x="395.5" y="272.0596">id</text><text fill="#000000" font-family="sans-serif" font-size="11" lengthAdjust="spacingAndGlyphs" textLength="42" x="408.5" y="272.0596">INTEGER</text><!--class topic--><rect fill="#FEFECE" filter="url(#ftw5esja32559)" height="67.6719" id="topic" style="stroke: #A80036; stroke-width: 1.5;" width="123" x="183.5" y="217.6406"/><ellipse cx="227.75" cy="233.6406" fill="#FFAAAA" rx="11" ry="11" style="stroke: #A80036; stroke-width: 1.0;"/><path d="M228.6719,231.0313 L228.6719,237.6875 L229.8281,237.6875 Q230.4375,237.6875 230.6953,237.9219 Q230.9531,238.1563 230.9531,238.5469 Q230.9531,238.9219 230.6953,239.1563 Q230.4375,239.3906 229.8281,239.3906 L225.8438,239.3906 Q225.2188,239.3906 224.9609,239.1563 Q224.7031,238.9219 224.7031,238.5313 Q224.7031,238.1563 224.9609,237.9219 Q225.2188,237.6875 225.8438,237.6875 L226.9688,237.6875 L226.9688,231.0313 L225.125,231.0313 L225.125,232.6406 Q225.125,233.25 224.8906,233.5156 Q224.6563,233.7813 224.2813,233.7813 Q223.9063,233.7813 223.6719,233.5156 Q223.4375,233.25 223.4375,232.6406 L223.4375,229.3281 L232.25,229.3281 L232.25,232.6406 Q232.25,233.25 232.0078,233.5156 Q231.7656,233.7813 231.3906,233.7813 Q231.0156,233.7813 230.7813,233.5156 Q230.5469,233.25 230.5469,232.6406 L230.5469,231.0313 L228.6719,231.0313 Z "/><text fill="#000000" font-family="sans-serif" font-size="12" lengthAdjust="spacingAndGlyphs" textLength="26" x="248.25" y="238.5508">topic</text><line style="stroke: #A80036; stroke-width: 1.5;" x1="184.5" x2="305.5" y1="249.6406" y2="249.6406"/><text fill="#000000" font-family="sans-serif" font-size="11" font-weight="bold" lengthAdjust="spacingAndGlyphs" textLength="10" x="189.5" y="265.0596">id</text><text fill="#000000" font-family="sans-serif" font-size="11" lengthAdjust="spacingAndGlyphs" textLength="42" x="202.5" y="265.0596">INTEGER</text><text fill="#000000" font-family="sans-serif" font-size="11" lengthAdjust="spacingAndGlyphs" text-decoration="underline" textLength="66" x="189.5" y="278.8955">type_of_topic</text><line style="stroke: #000000; stroke-width: 1.0;" x1="189.5" x2="255.5" y1="280.8955" y2="280.8955"/><text fill="#000000" font-family="sans-serif" font-size="11" lengthAdjust="spacingAndGlyphs" textLength="42" x="258.5" y="278.8955">INTEGER</text><!--class type_of_topic--><rect fill="#FEFECE" filter="url(#ftw5esja32559)" height="81.5078" id="type_of_topic" style="stroke: #A80036; stroke-width: 1.5;" width="127" x="181.5" y="384.1406"/><ellipse cx="206.85" cy="400.1406" fill="#FFAAAA" rx="11" ry="11" style="stroke: #A80036; stroke-width: 1.0;"/><path d="M207.7719,397.5313 L207.7719,404.1875 L208.9281,404.1875 Q209.5375,404.1875 209.7953,404.4219 Q210.0531,404.6563 210.0531,405.0469 Q210.0531,405.4219 209.7953,405.6563 Q209.5375,405.8906 208.9281,405.8906 L204.9438,405.8906 Q204.3188,405.8906 204.0609,405.6563 Q203.8031,405.4219 203.8031,405.0313 Q203.8031,404.6563 204.0609,404.4219 Q204.3188,404.1875 204.9438,404.1875 L206.0688,404.1875 L206.0688,397.5313 L204.225,397.5313 L204.225,399.1406 Q204.225,399.75 203.9906,400.0156 Q203.7563,400.2813 203.3813,400.2813 Q203.0063,400.2813 202.7719,400.0156 Q202.5375,399.75 202.5375,399.1406 L202.5375,395.8281 L211.35,395.8281 L211.35,399.1406 Q211.35,399.75 211.1078,400.0156 Q210.8656,400.2813 210.4906,400.2813 Q210.1156,400.2813 209.8813,400.0156 Q209.6469,399.75 209.6469,399.1406 L209.6469,397.5313 L207.7719,397.5313 Z "/><text fill="#000000" font-family="sans-serif" font-size="12" lengthAdjust="spacingAndGlyphs" textLength="72" x="223.15" y="405.0508">type_of_topic</text><line style="stroke: #A80036; stroke-width: 1.5;" x1="182.5" x2="307.5" y1="416.1406" y2="416.1406"/><text fill="#000000" font-family="sans-serif" font-size="11" font-weight="bold" lengthAdjust="spacingAndGlyphs" textLength="10" x="187.5" y="431.5596">id</text><text fill="#000000" font-family="sans-serif" font-size="11" lengthAdjust="spacingAndGlyphs" textLength="42" x="200.5" y="431.5596">INTEGER</text><text fill="#000000" font-family="sans-serif" font-size="11" lengthAdjust="spacingAndGlyphs" text-decoration="underline" textLength="35" x="187.5" y="445.3955">caption</text><line style="stroke: #000000; stroke-width: 1.0;" x1="187.5" x2="222.5" y1="447.3955" y2="447.3955"/><text fill="#000000" font-family="sans-serif" font-size="11" lengthAdjust="spacingAndGlyphs" textLength="70" x="225.5" y="445.3955">VARCHAR[64]</text><text fill="#000000" font-family="sans-serif" font-size="11" lengthAdjust="spacingAndGlyphs" text-decoration="underline" textLength="31" x="187.5" y="459.2314">details</text><line style="stroke: #000000; stroke-width: 1.0;" x1="187.5" x2="218.5" y1="461.2314" y2="461.2314"/><text fill="#000000" font-family="sans-serif" font-size="11" lengthAdjust="spacingAndGlyphs" textLength="81" x="221.5" y="459.2314">VARCHAR[MAX]</text><!--class attribute--><rect fill="#FEFECE" filter="url(#ftw5esja32559)" height="123.0156" id="attribute" style="stroke: #A80036; stroke-width: 1.5;" width="140" x="6" y="363.6406"/><ellipse cx="49.8" cy="379.6406" fill="#FFAAAA" rx="11" ry="11" style="stroke: #A80036; stroke-width: 1.0;"/><path d="M50.7219,377.0313 L50.7219,383.6875 L51.8781,383.6875 Q52.4875,383.6875 52.7453,383.9219 Q53.0031,384.1563 53.0031,384.5469 Q53.0031,384.9219 52.7453,385.1563 Q52.4875,385.3906 51.8781,385.3906 L47.8938,385.3906 Q47.2688,385.3906 47.0109,385.1563 Q46.7531,384.9219 46.7531,384.5313 Q46.7531,384.1563 47.0109,383.9219 Q47.2688,383.6875 47.8938,383.6875 L49.0188,383.6875 L49.0188,377.0313 L47.175,377.0313 L47.175,378.6406 Q47.175,379.25 46.9406,379.5156 Q46.7063,379.7813 46.3313,379.7813 Q45.9563,379.7813 45.7219,379.5156 Q45.4875,379.25 45.4875,378.6406 L45.4875,375.3281 L54.3,375.3281 L54.3,378.6406 Q54.3,379.25 54.0578,379.5156 Q53.8156,379.7813 53.4406,379.7813 Q53.0656,379.7813 52.8313,379.5156 Q52.5969,379.25 52.5969,378.6406 L52.5969,377.0313 L50.7219,377.0313 Z "/><text fill="#000000" font-family="sans-serif" font-size="12" lengthAdjust="spacingAndGlyphs" textLength="44" x="70.2" y="384.5508">attribute</text><line style="stroke: #A80036; stroke-width: 1.5;" x1="7" x2="145" y1="395.6406" y2="395.6406"/><text fill="#008000" font-family="sans-serif" font-size="11" lengthAdjust="spacingAndGlyphs" textLength="23" x="12" y="411.0596">topic</text><text fill="#000000" font-family="sans-serif" font-size="11" lengthAdjust="spacingAndGlyphs" textLength="42" x="38" y="411.0596">INTEGER</text><text fill="#008000" font-family="sans-serif" font-size="11" lengthAdjust="spacingAndGlyphs" textLength="82" x="12" y="424.8955">type_of_attribute</text><text fill="#000000" font-family="sans-serif" font-size="11" lengthAdjust="spacingAndGlyphs" textLength="42" x="97" y="424.8955">INTEGER</text><text fill="#000000" font-family="sans-serif" font-size="11" lengthAdjust="spacingAndGlyphs" textLength="114" x="12" y="438.7314">Value NVARCHAR[666]</text><text fill="#000000" font-family="sans-serif" font-size="11" lengthAdjust="spacingAndGlyphs" textLength="112" x="12" y="452.5674">Text NVARCHAR[MAX]</text><text fill="#000000" font-family="sans-serif" font-size="11" lengthAdjust="spacingAndGlyphs" text-decoration="underline" textLength="29" x="12" y="466.4033">active</text><line style="stroke: #000000; stroke-width: 1.0;" x1="12" x2="41" y1="468.4033" y2="468.4033"/><text fill="#000000" font-family="sans-serif" font-size="11" lengthAdjust="spacingAndGlyphs" textLength="42" x="44" y="466.4033">INTEGER</text><text fill="#000000" font-family="sans-serif" font-size="11" lengthAdjust="spacingAndGlyphs" text-decoration="underline" textLength="56" x="12" y="480.2393">lastupdated</text><line style="stroke: #000000; stroke-width: 1.0;" x1="12" x2="68" y1="482.2393" y2="482.2393"/><text fill="#000000" font-family="sans-serif" font-size="11" lengthAdjust="spacingAndGlyphs" textLength="69" x="71" y="480.2393">UTCDATETIME</text><!--class type_of_attribute--><rect fill="#FEFECE" filter="url(#ftw5esja32559)" height="95.3438" id="type_of_attribute" style="stroke: #A80036; stroke-width: 1.5;" width="127" x="286.5" y="564.6406"/><ellipse cx="303.75" cy="580.6406" fill="#FFAAAA" rx="11" ry="11" style="stroke: #A80036; stroke-width: 1.0;"/><path d="M304.6719,578.0313 L304.6719,584.6875 L305.8281,584.6875 Q306.4375,584.6875 306.6953,584.9219 Q306.9531,585.1563 306.9531,585.5469 Q306.9531,585.9219 306.6953,586.1563 Q306.4375,586.3906 305.8281,586.3906 L301.8438,586.3906 Q301.2188,586.3906 300.9609,586.1563 Q300.7031,585.9219 300.7031,585.5313 Q300.7031,585.1563 300.9609,584.9219 Q301.2188,584.6875 301.8438,584.6875 L302.9688,584.6875 L302.9688,578.0313 L301.125,578.0313 L301.125,579.6406 Q301.125,580.25 300.8906,580.5156 Q300.6563,580.7813 300.2813,580.7813 Q299.9063,580.7813 299.6719,580.5156 Q299.4375,580.25 299.4375,579.6406 L299.4375,576.3281 L308.25,576.3281 L308.25,579.6406 Q308.25,580.25 308.0078,580.5156 Q307.7656,580.7813 307.3906,580.7813 Q307.0156,580.7813 306.7813,580.5156 Q306.5469,580.25 306.5469,579.6406 L306.5469,578.0313 L304.6719,578.0313 Z "/><text fill="#000000" font-family="sans-serif" font-size="12" lengthAdjust="spacingAndGlyphs" textLength="90" x="318.25" y="585.5508">type_of_attribute</text><line style="stroke: #A80036; stroke-width: 1.5;" x1="287.5" x2="412.5" y1="596.6406" y2="596.6406"/><text fill="#000000" font-family="sans-serif" font-size="11" font-weight="bold" lengthAdjust="spacingAndGlyphs" textLength="10" x="292.5" y="612.0596">id</text><text fill="#000000" font-family="sans-serif" font-size="11" lengthAdjust="spacingAndGlyphs" textLength="42" x="305.5" y="612.0596">INTEGER</text><text fill="#000000" font-family="sans-serif" font-size="11" lengthAdjust="spacingAndGlyphs" text-decoration="underline" textLength="35" x="292.5" y="625.8955">caption</text><line style="stroke: #000000; stroke-width: 1.0;" x1="292.5" x2="327.5" y1="627.8955" y2="627.8955"/><text fill="#000000" font-family="sans-serif" font-size="11" lengthAdjust="spacingAndGlyphs" textLength="70" x="330.5" y="625.8955">VARCHAR[64]</text><text fill="#000000" font-family="sans-serif" font-size="11" lengthAdjust="spacingAndGlyphs" text-decoration="underline" textLength="31" x="292.5" y="639.7314">details</text><line style="stroke: #000000; stroke-width: 1.0;" x1="292.5" x2="323.5" y1="641.7314" y2="641.7314"/><text fill="#000000" font-family="sans-serif" font-size="11" lengthAdjust="spacingAndGlyphs" textLength="81" x="326.5" y="639.7314">VARCHAR[MAX]</text><text fill="#000000" font-family="sans-serif" font-size="11" lengthAdjust="spacingAndGlyphs" textLength="96" x="292.5" y="653.5674">displayhint INTEGER</text><!--class display_hint--><rect fill="#FEFECE" filter="url(#ftw5esja32559)" height="81.5078" id="display_hint" style="stroke: #A80036; stroke-width: 1.5;" width="127" x="362.5" y="737.6406"/><ellipse cx="390.55" cy="753.6406" fill="#FFAAAA" rx="11" ry="11" style="stroke: #A80036; stroke-width: 1.0;"/><path d="M391.4719,751.0313 L391.4719,757.6875 L392.6281,757.6875 Q393.2375,757.6875 393.4953,757.9219 Q393.7531,758.1563 393.7531,758.5469 Q393.7531,758.9219 393.4953,759.1563 Q393.2375,759.3906 392.6281,759.3906 L388.6438,759.3906 Q388.0188,759.3906 387.7609,759.1563 Q387.5031,758.9219 387.5031,758.5313 Q387.5031,758.1563 387.7609,757.9219 Q388.0188,757.6875 388.6438,757.6875 L389.7688,757.6875 L389.7688,751.0313 L387.925,751.0313 L387.925,752.6406 Q387.925,753.25 387.6906,753.5156 Q387.4563,753.7813 387.0813,753.7813 Q386.7063,753.7813 386.4719,753.5156 Q386.2375,753.25 386.2375,752.6406 L386.2375,749.3281 L395.05,749.3281 L395.05,752.6406 Q395.05,753.25 394.8078,753.5156 Q394.5656,753.7813 394.1906,753.7813 Q393.8156,753.7813 393.5813,753.5156 Q393.3469,753.25 393.3469,752.6406 L393.3469,751.0313 L391.4719,751.0313 Z "/><text fill="#000000" font-family="sans-serif" font-size="12" lengthAdjust="spacingAndGlyphs" textLength="66" x="407.45" y="758.5508">display_hint</text><line style="stroke: #A80036; stroke-width: 1.5;" x1="363.5" x2="488.5" y1="769.6406" y2="769.6406"/><text fill="#000000" font-family="sans-serif" font-size="11" font-weight="bold" lengthAdjust="spacingAndGlyphs" textLength="10" x="368.5" y="785.0596">id</text><text fill="#000000" font-family="sans-serif" font-size="11" lengthAdjust="spacingAndGlyphs" textLength="42" x="381.5" y="785.0596">INTEGER</text><text fill="#000000" font-family="sans-serif" font-size="11" lengthAdjust="spacingAndGlyphs" text-decoration="underline" textLength="35" x="368.5" y="798.8955">caption</text><line style="stroke: #000000; stroke-width: 1.0;" x1="368.5" x2="403.5" y1="800.8955" y2="800.8955"/><text fill="#000000" font-family="sans-serif" font-size="11" lengthAdjust="spacingAndGlyphs" textLength="70" x="406.5" y="798.8955">VARCHAR[64]</text><text fill="#000000" font-family="sans-serif" font-size="11" lengthAdjust="spacingAndGlyphs" text-decoration="underline" textLength="31" x="368.5" y="812.7314">format</text><line style="stroke: #000000; stroke-width: 1.0;" x1="368.5" x2="399.5" y1="814.7314" y2="814.7314"/><text fill="#000000" font-family="sans-serif" font-size="11" lengthAdjust="spacingAndGlyphs" textLength="81" x="402.5" y="812.7314">VARCHAR[MAX]</text><!--class relationship--><rect fill="#FEFECE" filter="url(#ftw5esja32559)" height="109.1797" id="relationship" style="stroke: #A80036; stroke-width: 1.5;" width="168" x="285" y="30.6406"/><ellipse cx="332.25" cy="46.6406" fill="#FFAAAA" rx="11" ry="11" style="stroke: #A80036; stroke-width: 1.0;"/><path d="M333.1719,44.0313 L333.1719,50.6875 L334.3281,50.6875 Q334.9375,50.6875 335.1953,50.9219 Q335.4531,51.1563 335.4531,51.5469 Q335.4531,51.9219 335.1953,52.1563 Q334.9375,52.3906 334.3281,52.3906 L330.3438,52.3906 Q329.7188,52.3906 329.4609,52.1563 Q329.2031,51.9219 329.2031,51.5313 Q329.2031,51.1563 329.4609,50.9219 Q329.7188,50.6875 330.3438,50.6875 L331.4688,50.6875 L331.4688,44.0313 L329.625,44.0313 L329.625,45.6406 Q329.625,46.25 329.3906,46.5156 Q329.1563,46.7813 328.7813,46.7813 Q328.4063,46.7813 328.1719,46.5156 Q327.9375,46.25 327.9375,45.6406 L327.9375,42.3281 L336.75,42.3281 L336.75,45.6406 Q336.75,46.25 336.5078,46.5156 Q336.2656,46.7813 335.8906,46.7813 Q335.5156,46.7813 335.2813,46.5156 Q335.0469,46.25 335.0469,45.6406 L335.0469,44.0313 L333.1719,44.0313 Z "/><text fill="#000000" font-family="sans-serif" font-size="12" lengthAdjust="spacingAndGlyphs" textLength="65" x="352.75" y="51.5508">relationship</text><line style="stroke: #A80036; stroke-width: 1.5;" x1="286" x2="452" y1="62.6406" y2="62.6406"/><text fill="#000000" font-family="sans-serif" font-size="11" font-weight="bold" lengthAdjust="spacingAndGlyphs" textLength="10" x="291" y="78.0596">id</text><text fill="#000000" font-family="sans-serif" font-size="11" lengthAdjust="spacingAndGlyphs" textLength="42" x="304" y="78.0596">INTEGER</text><text fill="#000000" font-family="sans-serif" font-size="11" lengthAdjust="spacingAndGlyphs" text-decoration="underline" textLength="111" x="291" y="91.8955">relationship_to_topic_1</text><line style="stroke: #000000; stroke-width: 1.0;" x1="291" x2="402" y1="93.8955" y2="93.8955"/><text fill="#000000" font-family="sans-serif" font-size="11" lengthAdjust="spacingAndGlyphs" textLength="42" x="405" y="91.8955">INTEGER</text><text fill="#000000" font-family="sans-serif" font-size="11" lengthAdjust="spacingAndGlyphs" text-decoration="underline" textLength="111" x="291" y="105.7314">relationship_to_topic_2</text><line style="stroke: #000000; stroke-width: 1.0;" x1="291" x2="402" y1="107.7314" y2="107.7314"/><text fill="#000000" font-family="sans-serif" font-size="11" lengthAdjust="spacingAndGlyphs" textLength="42" x="405" y="105.7314">INTEGER</text><text fill="#000000" font-family="sans-serif" font-size="11" lengthAdjust="spacingAndGlyphs" text-decoration="underline" textLength="98" x="291" y="119.5674">type_of_relationship</text><line style="stroke: #000000; stroke-width: 1.0;" x1="291" x2="389" y1="121.5674" y2="121.5674"/><text fill="#000000" font-family="sans-serif" font-size="11" lengthAdjust="spacingAndGlyphs" textLength="42" x="392" y="119.5674">INTEGER</text><text fill="#000000" font-family="sans-serif" font-size="11" lengthAdjust="spacingAndGlyphs" text-decoration="underline" textLength="35" x="291" y="133.4033">caption</text><line style="stroke: #000000; stroke-width: 1.0;" x1="291" x2="326" y1="135.4033" y2="135.4033"/><text fill="#000000" font-family="sans-serif" font-size="11" lengthAdjust="spacingAndGlyphs" textLength="70" x="329" y="133.4033">VARCHAR[64]</text><!--class type_of_relationship--><rect fill="#FEFECE" filter="url(#ftw5esja32559)" height="81.5078" id="type_of_relationship" style="stroke: #A80036; stroke-width: 1.5;" width="143" x="520.5" y="384.1406"/><ellipse cx="535.5" cy="400.1406" fill="#FFAAAA" rx="11" ry="11" style="stroke: #A80036; stroke-width: 1.0;"/><path d="M536.4219,397.5313 L536.4219,404.1875 L537.5781,404.1875 Q538.1875,404.1875 538.4453,404.4219 Q538.7031,404.6563 538.7031,405.0469 Q538.7031,405.4219 538.4453,405.6563 Q538.1875,405.8906 537.5781,405.8906 L533.5938,405.8906 Q532.9688,405.8906 532.7109,405.6563 Q532.4531,405.4219 532.4531,405.0313 Q532.4531,404.6563 532.7109,404.4219 Q532.9688,404.1875 533.5938,404.1875 L534.7188,404.1875 L534.7188,397.5313 L532.875,397.5313 L532.875,399.1406 Q532.875,399.75 532.6406,400.0156 Q532.4063,400.2813 532.0313,400.2813 Q531.6563,400.2813 531.4219,400.0156 Q531.1875,399.75 531.1875,399.1406 L531.1875,395.8281 L540,395.8281 L540,399.1406 Q540,399.75 539.7578,400.0156 Q539.5156,400.2813 539.1406,400.2813 Q538.7656,400.2813 538.5313,400.0156 Q538.2969,399.75 538.2969,399.1406 L538.2969,397.5313 L536.4219,397.5313 Z "/><text fill="#000000" font-family="sans-serif" font-size="12" lengthAdjust="spacingAndGlyphs" textLength="111" x="549.5" y="405.0508">type_of_relationship</text><line style="stroke: #A80036; stroke-width: 1.5;" x1="521.5" x2="662.5" y1="416.1406" y2="416.1406"/><text fill="#000000" font-family="sans-serif" font-size="11" font-weight="bold" lengthAdjust="spacingAndGlyphs" textLength="10" x="526.5" y="431.5596">id</text><text fill="#000000" font-family="sans-serif" font-size="11" lengthAdjust="spacingAndGlyphs" textLength="42" x="539.5" y="431.5596">INTEGER</text><text fill="#000000" font-family="sans-serif" font-size="11" lengthAdjust="spacingAndGlyphs" text-decoration="underline" textLength="35" x="526.5" y="445.3955">caption</text><line style="stroke: #000000; stroke-width: 1.0;" x1="526.5" x2="561.5" y1="447.3955" y2="447.3955"/><text fill="#000000" font-family="sans-serif" font-size="11" lengthAdjust="spacingAndGlyphs" textLength="70" x="564.5" y="445.3955">VARCHAR[64]</text><text fill="#000000" font-family="sans-serif" font-size="11" lengthAdjust="spacingAndGlyphs" text-decoration="underline" textLength="31" x="526.5" y="459.2314">details</text><line style="stroke: #000000; stroke-width: 1.0;" x1="526.5" x2="557.5" y1="461.2314" y2="461.2314"/><text fill="#000000" font-family="sans-serif" font-size="11" lengthAdjust="spacingAndGlyphs" textLength="81" x="560.5" y="459.2314">VARCHAR[MAX]</text><!--link topic to type_of_topic--><path d="M245,285.7076 C245,313.7406 245,354.0376 245,383.9316 " fill="none" id="topic-type_of_topic" style="stroke: #A80036; stroke-width: 1.0; stroke-dasharray: 7.0,7.0;"/><text fill="#000000" font-family="sans-serif" font-size="13" lengthAdjust="spacingAndGlyphs" textLength="21" x="246" y="330.1357">Is a</text><text fill="#000000" font-family="sans-serif" font-size="13" lengthAdjust="spacingAndGlyphs" textLength="5" x="239.5547" y="306.7565">*</text><text fill="#000000" font-family="sans-serif" font-size="13" lengthAdjust="spacingAndGlyphs" textLength="7" x="237.4203" y="373.3464">1</text><!--link attribute to type_of_attribute--><path d="M146.075,474.4326 C152.131,478.5716 158.17,482.6856 164,486.6406 C204.518,514.1276 250.209,544.7166 286.166,568.6956 " fill="none" id="attribute-type_of_attribute" style="stroke: #A80036; stroke-width: 1.0; stroke-dasharray: 7.0,7.0;"/><text fill="#000000" font-family="sans-serif" font-size="13" lengthAdjust="spacingAndGlyphs" textLength="21" x="232" y="531.1357">Is a</text><text fill="#000000" font-family="sans-serif" font-size="13" lengthAdjust="spacingAndGlyphs" textLength="5" x="154.0129" y="476.4624">*</text><text fill="#000000" font-family="sans-serif" font-size="13" lengthAdjust="spacingAndGlyphs" textLength="7" x="271.3805" y="560.2429">1</text><!--link type_of_attribute to display_hint--><path d="M371.575,659.8396 C382.897,684.3466 396.629,714.0666 407.466,737.5243 " fill="none" id="type_of_attribute-display_hint" style="stroke: #A80036; stroke-width: 1.0; stroke-dasharray: 7.0,7.0;"/><text fill="#000000" font-family="sans-serif" font-size="13" lengthAdjust="spacingAndGlyphs" textLength="23" x="394" y="704.1357">Has</text><text fill="#000000" font-family="sans-serif" font-size="13" lengthAdjust="spacingAndGlyphs" textLength="7" x="367.2298" y="681.5161">0</text><text fill="#000000" font-family="sans-serif" font-size="13" lengthAdjust="spacingAndGlyphs" textLength="5" x="398.8508" y="726.6501">*</text><!--link topic to attribute--><path d="M207.568,285.7416 C197.175,295.2196 186.002,305.6846 176,315.6406 C160.749,330.8206 144.739,347.7206 130.112,363.5776 " fill="none" id="topic-attribute" style="stroke: #A80036; stroke-width: 1.0; stroke-dasharray: 7.0,7.0;"/><text fill="#000000" font-family="sans-serif" font-size="13" lengthAdjust="spacingAndGlyphs" textLength="59" x="177" y="330.1357">Has many</text><text fill="#000000" font-family="sans-serif" font-size="13" lengthAdjust="spacingAndGlyphs" textLength="7" x="193.277" y="306.7965">1</text><text fill="#000000" font-family="sans-serif" font-size="13" lengthAdjust="spacingAndGlyphs" textLength="5" x="131.4022" y="352.6152">*</text><!--link relationship to type_of_relationship--><path d="M418.759,139.8476 C458.047,184.3626 512.195,250.6496 549,315.6406 C561.231,337.2386 571.603,363.0106 579.094,384.0166 " fill="none" id="relationship-type_of_relationship" style="stroke: #A80036; stroke-width: 1.0; stroke-dasharray: 7.0,7.0;"/><text fill="#000000" font-family="sans-serif" font-size="13" lengthAdjust="spacingAndGlyphs" textLength="21" x="532" y="257.1357">Is a</text><text fill="#000000" font-family="sans-serif" font-size="13" lengthAdjust="spacingAndGlyphs" textLength="5" x="419.8141" y="161.3881">*</text><text fill="#000000" font-family="sans-serif" font-size="13" lengthAdjust="spacingAndGlyphs" textLength="7" x="569.2742" y="373.1411">1</text><!--link relationship to topic--><path d="M354.813,139.6636 C348.848,156.0756 340.738,173.5136 330,187.6406 C321.553,198.7546 310.63,208.8226 299.445,217.4856 " fill="none" id="relationship-topic" style="stroke: #A80036; stroke-width: 1.0; stroke-dasharray: 7.0,7.0;"/><text fill="#000000" font-family="sans-serif" font-size="13" lengthAdjust="spacingAndGlyphs" textLength="82" x="343" y="184.1357">Relationship 1</text><text fill="#000000" font-family="sans-serif" font-size="13" lengthAdjust="spacingAndGlyphs" textLength="7" x="345.5469" y="161.1805">1</text><text fill="#000000" font-family="sans-serif" font-size="13" lengthAdjust="spacingAndGlyphs" textLength="5" x="304.6717" y="206.7484">*</text><!--link relationship to topic--><path d="M284.79,122.3316 C266.108,134.5246 248.7,150.1316 238,169.6406 C230.126,183.9966 230.825,201.9736 233.945,217.3426 " fill="none" id="relationship-topic" style="stroke: #A80036; stroke-width: 1.0; stroke-dasharray: 7.0,7.0;"/><text fill="#000000" font-family="sans-serif" font-size="13" lengthAdjust="spacingAndGlyphs" textLength="82" x="239" y="184.1357">Relationship 2</text><text fill="#000000" font-family="sans-serif" font-size="13" lengthAdjust="spacingAndGlyphs" textLength="7" x="269.9783" y="122.4342">1</text><text fill="#000000" font-family="sans-serif" font-size="13" lengthAdjust="spacingAndGlyphs" textLength="5" x="226.3611" y="206.8395">*</text><!--link user to type_of_topic--><path d="M389.236,268.0686 C367.29,279.1976 338.967,295.7336 318,315.6406 C297.173,335.4156 279.104,362.1406 266.153,384.1176 " fill="none" id="user-type_of_topic" style="stroke: #A80036; stroke-width: 1.0; stroke-dasharray: 7.0,7.0;"/><text fill="#000000" font-family="sans-serif" font-size="13" lengthAdjust="spacingAndGlyphs" textLength="33" x="319" y="330.1357">Owns</text><text fill="#000000" font-family="sans-serif" font-size="13" lengthAdjust="spacingAndGlyphs" textLength="7" x="374.5503" y="267.3552">0</text><text fill="#000000" font-family="sans-serif" font-size="13" lengthAdjust="spacingAndGlyphs" textLength="5" x="264.359" y="373.2594">*</text><!--link user to type_of_relationship--><path d="M450.416,278.7806 C462.095,290.0276 475.81,303.3826 488,315.6406 C510.263,338.0276 534.714,363.4906 554.312,384.1216 " fill="none" id="user-type_of_relationship" style="stroke: #A80036; stroke-width: 1.0; stroke-dasharray: 7.0,7.0;"/><text fill="#000000" font-family="sans-serif" font-size="13" lengthAdjust="spacingAndGlyphs" textLength="33" x="507" y="330.1357">Owns</text><text fill="#000000" font-family="sans-serif" font-size="13" lengthAdjust="spacingAndGlyphs" textLength="7" x="448.6476" y="300.019">0</text><text fill="#000000" font-family="sans-serif" font-size="13" lengthAdjust="spacingAndGlyphs" textLength="5" x="542.4047" y="373.2641">*</text><!--link user to type_of_attribute--><path d="M417.691,278.7116 C405.437,338.8926 375.039,488.1756 359.49,564.5366 " fill="none" id="user-type_of_attribute" style="stroke: #A80036; stroke-width: 1.0; stroke-dasharray: 7.0,7.0;"/><text fill="#000000" font-family="sans-serif" font-size="13" lengthAdjust="spacingAndGlyphs" textLength="33" x="401" y="430.6357">Owns</text><text fill="#000000" font-family="sans-serif" font-size="13" lengthAdjust="spacingAndGlyphs" textLength="7" x="408.764" y="299.9349">0</text><text fill="#000000" font-family="sans-serif" font-size="13" lengthAdjust="spacingAndGlyphs" textLength="5" x="355.5167" y="553.8655">*</text><!--link user to display_hint--><path d="M429.201,278.9176 C434.127,301.2916 440.577,334.3686 443,363.6406 C454.333,500.5696 439.292,663.6306 430.923,737.6071 " fill="none" id="user-display_hint" style="stroke: #A80036; stroke-width: 1.0; stroke-dasharray: 7.0,7.0;"/><text fill="#000000" font-family="sans-serif" font-size="13" lengthAdjust="spacingAndGlyphs" textLength="33" x="448" y="531.1357">Owns</text><text fill="#000000" font-family="sans-serif" font-size="13" lengthAdjust="spacingAndGlyphs" textLength="7" x="422.7918" y="300.186">0</text><text fill="#000000" font-family="sans-serif" font-size="13" lengthAdjust="spacingAndGlyphs" textLength="5" x="426.3395" y="726.7471">*</text><!--
@startuml
skinparam handwritten false
skinparam actor {
    backgroundColor<<person>> LightSalmon
    borderColor<<person>> Black
}


' uncomment the line below if you're using computer with a retina display
' skinparam dpi 300
' we use bold for primary key
' green color for unique
' and underscore for not_null
' other tags available:
' <i></i>
' <back:COLOR></color>, where color is a color name or html color code
' (#FFAACC)
' see: http://plantuml.com/classes.html#More

hide methods
hide stereotypes

title ERD : Topic

' entities

class user as "user" << (T,#FFAAAA) >> {
    <b>id</b> INTEGER
}

class topic as "topic" << (T,#FFAAAA) >> {
    <b>id</b> INTEGER
    <u>type_of_topic</u> INTEGER
}

class type_of_topic as "type_of_topic" << (T,#FFAAAA) >> {
    <b>id</b> INTEGER
    <u>caption</u> VARCHAR[64]
    <u>details</u> VARCHAR[MAX]
    
}

class attribute as "attribute" << (T,#FFAAAA) >> {
    <color:green>topic</color> INTEGER
    <color:green>type_of_attribute</color> INTEGER
    Value NVARCHAR[666]
    Text NVARCHAR[MAX]
    <u>active</u> INTEGER
    <u>lastupdated</u> UTCDATETIME    
}

class type_of_attribute as "type_of_attribute" << (T,#FFAAAA) >> {
    <b>id</b> INTEGER
    <u>caption</u> VARCHAR[64]
    <u>details</u> VARCHAR[MAX]
    displayhint INTEGER
}

class display_hint as "display_hint" << (T,#FFAAAA) >> {
    <b>id</b> INTEGER
    <u>caption</u> VARCHAR[64]
    <u>format</u> VARCHAR[MAX]
}


class relationship as "relationship" << (T,#FFAAAA) >> {
    <b>id</b> INTEGER
    <u>relationship_to_topic_1</u> INTEGER
    <u>relationship_to_topic_2</u> INTEGER
    <u>type_of_relationship</u> INTEGER
    <u>caption</u> VARCHAR[64]
}


class type_of_relationship as "type_of_relationship" << (T,#FFAAAA) >> {
    <b>id</b> INTEGER
    <u>caption</u> VARCHAR[64]
    <u>details</u> VARCHAR[MAX]
}

' relationships

topic "*".."1" type_of_topic : "Is a"
attribute "*".."1" type_of_attribute :  "Is a"
type_of_attribute "0".."*" display_hint : "Has"

topic "1".."*" attribute : "Has many"
relationship "*".."1" type_of_relationship :  "Is a"

relationship "1" .. "*" topic :  "Relationship 1"
relationship "1" .. "*" topic :  "Relationship 2"

user "0".."*" type_of_topic : "Owns"
user "0".."*" type_of_relationship : "Owns"
user "0".."*" type_of_attribute : "Owns"
user "0".."*" display_hint : "Owns"

@enduml

PlantUML version 1.2017.19(Sun Nov 12 22:46:22 AEDT 2017)
(GPL source distribution)
Java Runtime: Java(TM) SE Runtime Environment
JVM: Java HotSpot(TM) 64-Bit Server VM
Java Version: 1.8.0_151-b12
Operating System: Windows Server 2012 R2
OS Version: 6.3
Default Encoding: UTF-8
Language: en
Country: US
--></g></svg>