<?xml version="1.0" encoding="UTF-8" standalone="no"?><svg xmlns="http://www.w3.org/2000/svg" xmlns:xlink="http://www.w3.org/1999/xlink" contentScriptType="application/ecmascript" contentStyleType="text/css" height="816px" preserveAspectRatio="none" style="width:437px;height:816px;" version="1.1" viewBox="0 0 437 816" width="437px" zoomAndPan="magnify"><defs><filter height="300%" id="f19optlgjc3r2" width="300%" x="-1" y="-1"><feGaussianBlur result="blurOut" stdDeviation="2.0"/><feColorMatrix in="blurOut" result="blurOut2" type="matrix" values="0 0 0 0 0 0 0 0 0 0 0 0 0 0 0 0 0 0 .4 0"/><feOffset dx="4.0" dy="4.0" in="blurOut2" result="blurOut3"/><feBlend in="SourceGraphic" in2="blurOut3" mode="normal"/></filter></defs><g><text fill="#000000" font-family="sans-serif" font-size="18" lengthAdjust="spacingAndGlyphs" textLength="101" x="171.5" y="18.6855">Virtual Table</text><!--class thing--><rect fill="#FEFECE" filter="url(#f19optlgjc3r2)" height="95.3438" id="thing" style="stroke: #A80036; stroke-width: 1.5;" width="123" x="35.5" y="217.6406"/><ellipse cx="79.3" cy="233.6406" fill="#FFAAAA" rx="11" ry="11" style="stroke: #A80036; stroke-width: 1.0;"/><path d="M80.2219,231.0313 L80.2219,237.6875 L81.3781,237.6875 Q81.9875,237.6875 82.2453,237.9219 Q82.5031,238.1563 82.5031,238.5469 Q82.5031,238.9219 82.2453,239.1563 Q81.9875,239.3906 81.3781,239.3906 L77.3938,239.3906 Q76.7688,239.3906 76.5109,239.1563 Q76.2531,238.9219 76.2531,238.5313 Q76.2531,238.1563 76.5109,237.9219 Q76.7688,237.6875 77.3938,237.6875 L78.5188,237.6875 L78.5188,231.0313 L76.675,231.0313 L76.675,232.6406 Q76.675,233.25 76.4406,233.5156 Q76.2063,233.7813 75.8313,233.7813 Q75.4563,233.7813 75.2219,233.5156 Q74.9875,233.25 74.9875,232.6406 L74.9875,229.3281 L83.8,229.3281 L83.8,232.6406 Q83.8,233.25 83.5578,233.5156 Q83.3156,233.7813 82.9406,233.7813 Q82.5656,233.7813 82.3313,233.5156 Q82.0969,233.25 82.0969,232.6406 L82.0969,231.0313 L80.2219,231.0313 Z "/><text fill="#000000" font-family="sans-serif" font-size="12" lengthAdjust="spacingAndGlyphs" textLength="27" x="99.7" y="238.5508">thing</text><line style="stroke: #A80036; stroke-width: 1.5;" x1="36.5" x2="157.5" y1="249.6406" y2="249.6406"/><text fill="#000000" font-family="sans-serif" font-size="11" font-weight="bold" lengthAdjust="spacingAndGlyphs" textLength="10" x="41.5" y="265.0596">id</text><text fill="#000000" font-family="sans-serif" font-size="11" lengthAdjust="spacingAndGlyphs" textLength="42" x="54.5" y="265.0596">INTEGER</text><text fill="#000000" font-family="sans-serif" font-size="11" lengthAdjust="spacingAndGlyphs" text-decoration="underline" textLength="66" x="41.5" y="278.8955">type_of_thing</text><line style="stroke: #000000; stroke-width: 1.0;" x1="41.5" x2="107.5" y1="280.8955" y2="280.8955"/><text fill="#000000" font-family="sans-serif" font-size="11" lengthAdjust="spacingAndGlyphs" textLength="42" x="110.5" y="278.8955">INTEGER</text><text fill="#000000" font-family="sans-serif" font-size="11" lengthAdjust="spacingAndGlyphs" text-decoration="underline" textLength="35" x="41.5" y="292.7314">caption</text><line style="stroke: #000000; stroke-width: 1.0;" x1="41.5" x2="76.5" y1="294.7314" y2="294.7314"/><text fill="#000000" font-family="sans-serif" font-size="11" lengthAdjust="spacingAndGlyphs" textLength="70" x="79.5" y="292.7314">VARCHAR[64]</text><text fill="#000000" font-family="sans-serif" font-size="11" lengthAdjust="spacingAndGlyphs" text-decoration="underline" textLength="31" x="41.5" y="306.5674">details</text><line style="stroke: #000000; stroke-width: 1.0;" x1="41.5" x2="72.5" y1="308.5674" y2="308.5674"/><text fill="#000000" font-family="sans-serif" font-size="11" lengthAdjust="spacingAndGlyphs" textLength="70" x="75.5" y="306.5674">VARCHAR[64]</text><!--class type_of_thing--><rect fill="#FEFECE" filter="url(#f19optlgjc3r2)" height="67.6719" id="type_of_thing" style="stroke: #A80036; stroke-width: 1.5;" width="120" x="6" y="411.1406"/><ellipse cx="27.75" cy="427.1406" fill="#FFAAAA" rx="11" ry="11" style="stroke: #A80036; stroke-width: 1.0;"/><path d="M28.6719,424.5313 L28.6719,431.1875 L29.8281,431.1875 Q30.4375,431.1875 30.6953,431.4219 Q30.9531,431.6563 30.9531,432.0469 Q30.9531,432.4219 30.6953,432.6563 Q30.4375,432.8906 29.8281,432.8906 L25.8438,432.8906 Q25.2188,432.8906 24.9609,432.6563 Q24.7031,432.4219 24.7031,432.0313 Q24.7031,431.6563 24.9609,431.4219 Q25.2188,431.1875 25.8438,431.1875 L26.9688,431.1875 L26.9688,424.5313 L25.125,424.5313 L25.125,426.1406 Q25.125,426.75 24.8906,427.0156 Q24.6563,427.2813 24.2813,427.2813 Q23.9063,427.2813 23.6719,427.0156 Q23.4375,426.75 23.4375,426.1406 L23.4375,422.8281 L32.25,422.8281 L32.25,426.1406 Q32.25,426.75 32.0078,427.0156 Q31.7656,427.2813 31.3906,427.2813 Q31.0156,427.2813 30.7813,427.0156 Q30.5469,426.75 30.5469,426.1406 L30.5469,424.5313 L28.6719,424.5313 Z "/><text fill="#000000" font-family="sans-serif" font-size="12" lengthAdjust="spacingAndGlyphs" textLength="73" x="43.25" y="432.0508">type_of_thing</text><line style="stroke: #A80036; stroke-width: 1.5;" x1="7" x2="125" y1="443.1406" y2="443.1406"/><text fill="#000000" font-family="sans-serif" font-size="11" font-weight="bold" lengthAdjust="spacingAndGlyphs" textLength="10" x="12" y="458.5596">id</text><text fill="#000000" font-family="sans-serif" font-size="11" lengthAdjust="spacingAndGlyphs" textLength="42" x="25" y="458.5596">INTEGER</text><text fill="#000000" font-family="sans-serif" font-size="11" lengthAdjust="spacingAndGlyphs" text-decoration="underline" textLength="35" x="12" y="472.3955">caption</text><line style="stroke: #000000; stroke-width: 1.0;" x1="12" x2="47" y1="474.3955" y2="474.3955"/><text fill="#000000" font-family="sans-serif" font-size="11" lengthAdjust="spacingAndGlyphs" textLength="70" x="50" y="472.3955">VARCHAR[64]</text><!--class attribute--><rect fill="#FEFECE" filter="url(#f19optlgjc3r2)" height="109.1797" id="attribute" style="stroke: #A80036; stroke-width: 1.5;" width="139" x="161.5" y="390.6406"/><ellipse cx="204.85" cy="406.6406" fill="#FFAAAA" rx="11" ry="11" style="stroke: #A80036; stroke-width: 1.0;"/><path d="M205.7719,404.0313 L205.7719,410.6875 L206.9281,410.6875 Q207.5375,410.6875 207.7953,410.9219 Q208.0531,411.1563 208.0531,411.5469 Q208.0531,411.9219 207.7953,412.1563 Q207.5375,412.3906 206.9281,412.3906 L202.9438,412.3906 Q202.3188,412.3906 202.0609,412.1563 Q201.8031,411.9219 201.8031,411.5313 Q201.8031,411.1563 202.0609,410.9219 Q202.3188,410.6875 202.9438,410.6875 L204.0688,410.6875 L204.0688,404.0313 L202.225,404.0313 L202.225,405.6406 Q202.225,406.25 201.9906,406.5156 Q201.7563,406.7813 201.3813,406.7813 Q201.0063,406.7813 200.7719,406.5156 Q200.5375,406.25 200.5375,405.6406 L200.5375,402.3281 L209.35,402.3281 L209.35,405.6406 Q209.35,406.25 209.1078,406.5156 Q208.8656,406.7813 208.4906,406.7813 Q208.1156,406.7813 207.8813,406.5156 Q207.6469,406.25 207.6469,405.6406 L207.6469,404.0313 L205.7719,404.0313 Z "/><text fill="#000000" font-family="sans-serif" font-size="12" lengthAdjust="spacingAndGlyphs" textLength="44" x="225.15" y="411.5508">attribute</text><line style="stroke: #A80036; stroke-width: 1.5;" x1="162.5" x2="299.5" y1="422.6406" y2="422.6406"/><text fill="#000000" font-family="sans-serif" font-size="11" font-weight="bold" lengthAdjust="spacingAndGlyphs" textLength="10" x="167.5" y="438.0596">id</text><text fill="#000000" font-family="sans-serif" font-size="11" lengthAdjust="spacingAndGlyphs" textLength="42" x="180.5" y="438.0596">INTEGER</text><text fill="#000000" font-family="sans-serif" font-size="11" lengthAdjust="spacingAndGlyphs" text-decoration="underline" textLength="23" x="167.5" y="451.8955">thing</text><line style="stroke: #000000; stroke-width: 1.0;" x1="167.5" x2="190.5" y1="453.8955" y2="453.8955"/><text fill="#000000" font-family="sans-serif" font-size="11" lengthAdjust="spacingAndGlyphs" textLength="42" x="193.5" y="451.8955">INTEGER</text><text fill="#000000" font-family="sans-serif" font-size="11" lengthAdjust="spacingAndGlyphs" text-decoration="underline" textLength="82" x="167.5" y="465.7314">type_of_attribute</text><line style="stroke: #000000; stroke-width: 1.0;" x1="167.5" x2="249.5" y1="467.7314" y2="467.7314"/><text fill="#000000" font-family="sans-serif" font-size="11" lengthAdjust="spacingAndGlyphs" textLength="42" x="252.5" y="465.7314">INTEGER</text><text fill="#000000" font-family="sans-serif" font-size="11" lengthAdjust="spacingAndGlyphs" text-decoration="underline" textLength="35" x="167.5" y="479.5674">caption</text><line style="stroke: #000000; stroke-width: 1.0;" x1="167.5" x2="202.5" y1="481.5674" y2="481.5674"/><text fill="#000000" font-family="sans-serif" font-size="11" lengthAdjust="spacingAndGlyphs" textLength="70" x="205.5" y="479.5674">VARCHAR[64]</text><text fill="#000000" font-family="sans-serif" font-size="11" lengthAdjust="spacingAndGlyphs" text-decoration="underline" textLength="31" x="167.5" y="493.4033">details</text><line style="stroke: #000000; stroke-width: 1.0;" x1="167.5" x2="198.5" y1="495.4033" y2="495.4033"/><text fill="#000000" font-family="sans-serif" font-size="11" lengthAdjust="spacingAndGlyphs" textLength="70" x="201.5" y="493.4033">VARCHAR[64]</text><!--class type_of_attribute--><rect fill="#FEFECE" filter="url(#f19optlgjc3r2)" height="67.6719" id="type_of_attribute" style="stroke: #A80036; stroke-width: 1.5;" width="122" x="139" y="584.6406"/><ellipse cx="154" cy="600.6406" fill="#FFAAAA" rx="11" ry="11" style="stroke: #A80036; stroke-width: 1.0;"/><path d="M154.9219,598.0313 L154.9219,604.6875 L156.0781,604.6875 Q156.6875,604.6875 156.9453,604.9219 Q157.2031,605.1563 157.2031,605.5469 Q157.2031,605.9219 156.9453,606.1563 Q156.6875,606.3906 156.0781,606.3906 L152.0938,606.3906 Q151.4688,606.3906 151.2109,606.1563 Q150.9531,605.9219 150.9531,605.5313 Q150.9531,605.1563 151.2109,604.9219 Q151.4688,604.6875 152.0938,604.6875 L153.2188,604.6875 L153.2188,598.0313 L151.375,598.0313 L151.375,599.6406 Q151.375,600.25 151.1406,600.5156 Q150.9063,600.7813 150.5313,600.7813 Q150.1563,600.7813 149.9219,600.5156 Q149.6875,600.25 149.6875,599.6406 L149.6875,596.3281 L158.5,596.3281 L158.5,599.6406 Q158.5,600.25 158.2578,600.5156 Q158.0156,600.7813 157.6406,600.7813 Q157.2656,600.7813 157.0313,600.5156 Q156.7969,600.25 156.7969,599.6406 L156.7969,598.0313 L154.9219,598.0313 Z "/><text fill="#000000" font-family="sans-serif" font-size="12" lengthAdjust="spacingAndGlyphs" textLength="90" x="168" y="605.5508">type_of_attribute</text><line style="stroke: #A80036; stroke-width: 1.5;" x1="140" x2="260" y1="616.6406" y2="616.6406"/><text fill="#000000" font-family="sans-serif" font-size="11" font-weight="bold" lengthAdjust="spacingAndGlyphs" textLength="10" x="145" y="632.0596">id</text><text fill="#000000" font-family="sans-serif" font-size="11" lengthAdjust="spacingAndGlyphs" textLength="42" x="158" y="632.0596">INTEGER</text><text fill="#000000" font-family="sans-serif" font-size="11" lengthAdjust="spacingAndGlyphs" text-decoration="underline" textLength="35" x="145" y="645.8955">caption</text><line style="stroke: #000000; stroke-width: 1.0;" x1="145" x2="180" y1="647.8955" y2="647.8955"/><text fill="#000000" font-family="sans-serif" font-size="11" lengthAdjust="spacingAndGlyphs" textLength="70" x="183" y="645.8955">VARCHAR[64]</text><!--class data_value--><rect fill="#FEFECE" filter="url(#f19optlgjc3r2)" height="81.5078" id="data_value" style="stroke: #A80036; stroke-width: 1.5;" width="122" x="296" y="577.6406"/><ellipse cx="321.35" cy="593.6406" fill="#FFAAAA" rx="11" ry="11" style="stroke: #A80036; stroke-width: 1.0;"/><path d="M322.2719,591.0313 L322.2719,597.6875 L323.4281,597.6875 Q324.0375,597.6875 324.2953,597.9219 Q324.5531,598.1563 324.5531,598.5469 Q324.5531,598.9219 324.2953,599.1563 Q324.0375,599.3906 323.4281,599.3906 L319.4438,599.3906 Q318.8188,599.3906 318.5609,599.1563 Q318.3031,598.9219 318.3031,598.5313 Q318.3031,598.1563 318.5609,597.9219 Q318.8188,597.6875 319.4438,597.6875 L320.5688,597.6875 L320.5688,591.0313 L318.725,591.0313 L318.725,592.6406 Q318.725,593.25 318.4906,593.5156 Q318.2563,593.7813 317.8813,593.7813 Q317.5063,593.7813 317.2719,593.5156 Q317.0375,593.25 317.0375,592.6406 L317.0375,589.3281 L325.85,589.3281 L325.85,592.6406 Q325.85,593.25 325.6078,593.5156 Q325.3656,593.7813 324.9906,593.7813 Q324.6156,593.7813 324.3813,593.5156 Q324.1469,593.25 324.1469,592.6406 L324.1469,591.0313 L322.2719,591.0313 Z "/><text fill="#000000" font-family="sans-serif" font-size="12" lengthAdjust="spacingAndGlyphs" textLength="67" x="337.65" y="598.5508">data_values</text><line style="stroke: #A80036; stroke-width: 1.5;" x1="297" x2="417" y1="609.6406" y2="609.6406"/><text fill="#000000" font-family="sans-serif" font-size="11" font-weight="bold" lengthAdjust="spacingAndGlyphs" textLength="10" x="302" y="625.0596">id</text><text fill="#000000" font-family="sans-serif" font-size="11" lengthAdjust="spacingAndGlyphs" textLength="42" x="315" y="625.0596">INTEGER</text><text fill="#000000" font-family="sans-serif" font-size="11" lengthAdjust="spacingAndGlyphs" text-decoration="underline" textLength="39" x="302" y="638.8955">attribute</text><line style="stroke: #000000; stroke-width: 1.0;" x1="302" x2="341" y1="640.8955" y2="640.8955"/><text fill="#000000" font-family="sans-serif" font-size="11" lengthAdjust="spacingAndGlyphs" textLength="42" x="344" y="638.8955">INTEGER</text><text fill="#000000" font-family="sans-serif" font-size="11" lengthAdjust="spacingAndGlyphs" text-decoration="underline" textLength="26" x="302" y="652.7314">value</text><line style="stroke: #000000; stroke-width: 1.0;" x1="302" x2="328" y1="654.7314" y2="654.7314"/><text fill="#000000" font-family="sans-serif" font-size="11" lengthAdjust="spacingAndGlyphs" textLength="81" x="331" y="652.7314">VARCHAR[MAX]</text><!--class type_of_data_value--><rect fill="#FEFECE" filter="url(#f19optlgjc3r2)" height="67.6719" id="type_of_data_value" style="stroke: #A80036; stroke-width: 1.5;" width="138" x="288" y="737.6406"/><ellipse cx="303" cy="753.6406" fill="#FFAAAA" rx="11" ry="11" style="stroke: #A80036; stroke-width: 1.0;"/><path d="M303.9219,751.0313 L303.9219,757.6875 L305.0781,757.6875 Q305.6875,757.6875 305.9453,757.9219 Q306.2031,758.1563 306.2031,758.5469 Q306.2031,758.9219 305.9453,759.1563 Q305.6875,759.3906 305.0781,759.3906 L301.0938,759.3906 Q300.4688,759.3906 300.2109,759.1563 Q299.9531,758.9219 299.9531,758.5313 Q299.9531,758.1563 300.2109,757.9219 Q300.4688,757.6875 301.0938,757.6875 L302.2188,757.6875 L302.2188,751.0313 L300.375,751.0313 L300.375,752.6406 Q300.375,753.25 300.1406,753.5156 Q299.9063,753.7813 299.5313,753.7813 Q299.1563,753.7813 298.9219,753.5156 Q298.6875,753.25 298.6875,752.6406 L298.6875,749.3281 L307.5,749.3281 L307.5,752.6406 Q307.5,753.25 307.2578,753.5156 Q307.0156,753.7813 306.6406,753.7813 Q306.2656,753.7813 306.0313,753.5156 Q305.7969,753.25 305.7969,752.6406 L305.7969,751.0313 L303.9219,751.0313 Z "/><text fill="#000000" font-family="sans-serif" font-size="12" lengthAdjust="spacingAndGlyphs" textLength="106" x="317" y="758.5508">type_of_data_value</text><line style="stroke: #A80036; stroke-width: 1.5;" x1="289" x2="425" y1="769.6406" y2="769.6406"/><text fill="#000000" font-family="sans-serif" font-size="11" font-weight="bold" lengthAdjust="spacingAndGlyphs" textLength="10" x="294" y="785.0596">id</text><text fill="#000000" font-family="sans-serif" font-size="11" lengthAdjust="spacingAndGlyphs" textLength="42" x="307" y="785.0596">INTEGER</text><text fill="#000000" font-family="sans-serif" font-size="11" lengthAdjust="spacingAndGlyphs" text-decoration="underline" textLength="35" x="294" y="798.8955">caption</text><line style="stroke: #000000; stroke-width: 1.0;" x1="294" x2="329" y1="800.8955" y2="800.8955"/><text fill="#000000" font-family="sans-serif" font-size="11" lengthAdjust="spacingAndGlyphs" textLength="70" x="332" y="798.8955">VARCHAR[64]</text><!--class relationship--><rect fill="#FEFECE" filter="url(#f19optlgjc3r2)" height="109.1797" id="relationship" style="stroke: #A80036; stroke-width: 1.5;" width="168" x="97" y="30.6406"/><ellipse cx="144.25" cy="46.6406" fill="#FFAAAA" rx="11" ry="11" style="stroke: #A80036; stroke-width: 1.0;"/><path d="M145.1719,44.0313 L145.1719,50.6875 L146.3281,50.6875 Q146.9375,50.6875 147.1953,50.9219 Q147.4531,51.1563 147.4531,51.5469 Q147.4531,51.9219 147.1953,52.1563 Q146.9375,52.3906 146.3281,52.3906 L142.3438,52.3906 Q141.7188,52.3906 141.4609,52.1563 Q141.2031,51.9219 141.2031,51.5313 Q141.2031,51.1563 141.4609,50.9219 Q141.7188,50.6875 142.3438,50.6875 L143.4688,50.6875 L143.4688,44.0313 L141.625,44.0313 L141.625,45.6406 Q141.625,46.25 141.3906,46.5156 Q141.1563,46.7813 140.7813,46.7813 Q140.4063,46.7813 140.1719,46.5156 Q139.9375,46.25 139.9375,45.6406 L139.9375,42.3281 L148.75,42.3281 L148.75,45.6406 Q148.75,46.25 148.5078,46.5156 Q148.2656,46.7813 147.8906,46.7813 Q147.5156,46.7813 147.2813,46.5156 Q147.0469,46.25 147.0469,45.6406 L147.0469,44.0313 L145.1719,44.0313 Z "/><text fill="#000000" font-family="sans-serif" font-size="12" lengthAdjust="spacingAndGlyphs" textLength="65" x="164.75" y="51.5508">relationship</text><line style="stroke: #A80036; stroke-width: 1.5;" x1="98" x2="264" y1="62.6406" y2="62.6406"/><text fill="#000000" font-family="sans-serif" font-size="11" font-weight="bold" lengthAdjust="spacingAndGlyphs" textLength="10" x="103" y="78.0596">id</text><text fill="#000000" font-family="sans-serif" font-size="11" lengthAdjust="spacingAndGlyphs" textLength="42" x="116" y="78.0596">INTEGER</text><text fill="#000000" font-family="sans-serif" font-size="11" lengthAdjust="spacingAndGlyphs" text-decoration="underline" textLength="111" x="103" y="91.8955">relationship_to_thing_1</text><line style="stroke: #000000; stroke-width: 1.0;" x1="103" x2="214" y1="93.8955" y2="93.8955"/><text fill="#000000" font-family="sans-serif" font-size="11" lengthAdjust="spacingAndGlyphs" textLength="42" x="217" y="91.8955">INTEGER</text><text fill="#000000" font-family="sans-serif" font-size="11" lengthAdjust="spacingAndGlyphs" text-decoration="underline" textLength="111" x="103" y="105.7314">relationship_to_thing_2</text><line style="stroke: #000000; stroke-width: 1.0;" x1="103" x2="214" y1="107.7314" y2="107.7314"/><text fill="#000000" font-family="sans-serif" font-size="11" lengthAdjust="spacingAndGlyphs" textLength="42" x="217" y="105.7314">INTEGER</text><text fill="#000000" font-family="sans-serif" font-size="11" lengthAdjust="spacingAndGlyphs" text-decoration="underline" textLength="98" x="103" y="119.5674">type_of_relationship</text><line style="stroke: #000000; stroke-width: 1.0;" x1="103" x2="201" y1="121.5674" y2="121.5674"/><text fill="#000000" font-family="sans-serif" font-size="11" lengthAdjust="spacingAndGlyphs" textLength="42" x="204" y="119.5674">INTEGER</text><text fill="#000000" font-family="sans-serif" font-size="11" lengthAdjust="spacingAndGlyphs" text-decoration="underline" textLength="35" x="103" y="133.4033">caption</text><line style="stroke: #000000; stroke-width: 1.0;" x1="103" x2="138" y1="135.4033" y2="135.4033"/><text fill="#000000" font-family="sans-serif" font-size="11" lengthAdjust="spacingAndGlyphs" textLength="70" x="141" y="133.4033">VARCHAR[64]</text><!--class type_of_relationship--><rect fill="#FEFECE" filter="url(#f19optlgjc3r2)" height="67.6719" id="type_of_relationship" style="stroke: #A80036; stroke-width: 1.5;" width="143" x="233.5" y="231.1406"/><ellipse cx="248.5" cy="247.1406" fill="#FFAAAA" rx="11" ry="11" style="stroke: #A80036; stroke-width: 1.0;"/><path d="M249.4219,244.5313 L249.4219,251.1875 L250.5781,251.1875 Q251.1875,251.1875 251.4453,251.4219 Q251.7031,251.6563 251.7031,252.0469 Q251.7031,252.4219 251.4453,252.6563 Q251.1875,252.8906 250.5781,252.8906 L246.5938,252.8906 Q245.9688,252.8906 245.7109,252.6563 Q245.4531,252.4219 245.4531,252.0313 Q245.4531,251.6563 245.7109,251.4219 Q245.9688,251.1875 246.5938,251.1875 L247.7188,251.1875 L247.7188,244.5313 L245.875,244.5313 L245.875,246.1406 Q245.875,246.75 245.6406,247.0156 Q245.4063,247.2813 245.0313,247.2813 Q244.6563,247.2813 244.4219,247.0156 Q244.1875,246.75 244.1875,246.1406 L244.1875,242.8281 L253,242.8281 L253,246.1406 Q253,246.75 252.7578,247.0156 Q252.5156,247.2813 252.1406,247.2813 Q251.7656,247.2813 251.5313,247.0156 Q251.2969,246.75 251.2969,246.1406 L251.2969,244.5313 L249.4219,244.5313 Z "/><text fill="#000000" font-family="sans-serif" font-size="12" lengthAdjust="spacingAndGlyphs" textLength="111" x="262.5" y="252.0508">type_of_relationship</text><line style="stroke: #A80036; stroke-width: 1.5;" x1="234.5" x2="375.5" y1="263.1406" y2="263.1406"/><text fill="#000000" font-family="sans-serif" font-size="11" font-weight="bold" lengthAdjust="spacingAndGlyphs" textLength="10" x="239.5" y="278.5596">id</text><text fill="#000000" font-family="sans-serif" font-size="11" lengthAdjust="spacingAndGlyphs" textLength="42" x="252.5" y="278.5596">INTEGER</text><text fill="#000000" font-family="sans-serif" font-size="11" lengthAdjust="spacingAndGlyphs" text-decoration="underline" textLength="35" x="239.5" y="292.3955">caption</text><line style="stroke: #000000; stroke-width: 1.0;" x1="239.5" x2="274.5" y1="294.3955" y2="294.3955"/><text fill="#000000" font-family="sans-serif" font-size="11" lengthAdjust="spacingAndGlyphs" textLength="70" x="277.5" y="292.3955">VARCHAR[64]</text><!--link thing to type_of_thing--><path d="M88.8551,312.9076 C83.4914,343.7066 76.5978,383.2886 71.7905,410.8916 " fill="none" id="thing-type_of_thing" style="stroke: #A80036; stroke-width: 1.0; stroke-dasharray: 7.0,7.0;"/><text fill="#000000" font-family="sans-serif" font-size="13" lengthAdjust="spacingAndGlyphs" textLength="21" x="85" y="357.1357">Is a</text><text fill="#000000" font-family="sans-serif" font-size="13" lengthAdjust="spacingAndGlyphs" textLength="7" x="80.1448" y="334.5941">1</text><text fill="#000000" font-family="sans-serif" font-size="13" lengthAdjust="spacingAndGlyphs" textLength="5" x="67.4178" y="400.3978">*</text><!--link attribute to type_of_attribute--><path d="M221.276,499.9336 C216.269,527.6356 210.323,560.5296 205.992,584.4926 " fill="none" id="attribute-type_of_attribute" style="stroke: #A80036; stroke-width: 1.0; stroke-dasharray: 7.0,7.0;"/><text fill="#000000" font-family="sans-serif" font-size="13" lengthAdjust="spacingAndGlyphs" textLength="21" x="217" y="544.1357">Is a</text><text fill="#000000" font-family="sans-serif" font-size="13" lengthAdjust="spacingAndGlyphs" textLength="7" x="212.5817" y="521.4851">1</text><text fill="#000000" font-family="sans-serif" font-size="13" lengthAdjust="spacingAndGlyphs" textLength="5" x="201.6795" y="573.7568">*</text><!--link attribute to data_value--><path d="M270.521,499.9336 C288.925,524.9836 310.448,554.2786 327.418,577.3766 " fill="none" id="attribute-data_value" style="stroke: #A80036; stroke-width: 1.0; stroke-dasharray: 7.0,7.0;"/><text fill="#000000" font-family="sans-serif" font-size="13" lengthAdjust="spacingAndGlyphs" textLength="34" x="307" y="544.1357">Has a</text><text fill="#000000" font-family="sans-serif" font-size="13" lengthAdjust="spacingAndGlyphs" textLength="7" x="268.1362" y="521.4851">1</text><text fill="#000000" font-family="sans-serif" font-size="13" lengthAdjust="spacingAndGlyphs" textLength="5" x="317.1044" y="566.7823">*</text><!--link thing to attribute--><path d="M132.207,312.9076 C150.119,336.7016 171.978,365.7386 190.577,390.4446 " fill="none" id="thing-attribute" style="stroke: #A80036; stroke-width: 1.0; stroke-dasharray: 7.0,7.0;"/><text fill="#000000" font-family="sans-serif" font-size="13" lengthAdjust="spacingAndGlyphs" textLength="59" x="170" y="357.1357">Has many</text><text fill="#000000" font-family="sans-serif" font-size="13" lengthAdjust="spacingAndGlyphs" textLength="7" x="129.864" y="334.5941">1</text><text fill="#000000" font-family="sans-serif" font-size="13" lengthAdjust="spacingAndGlyphs" textLength="5" x="180.0775" y="379.9178">*</text><!--link relationship to type_of_relationship--><path d="M220.719,139.7976 C227.878,149.6696 235.217,159.9246 242,169.6406 C256.109,189.8506 271.46,212.8546 283.476,231.1056 " fill="none" id="relationship-type_of_relationship" style="stroke: #A80036; stroke-width: 1.0; stroke-dasharray: 7.0,7.0;"/><text fill="#000000" font-family="sans-serif" font-size="13" lengthAdjust="spacingAndGlyphs" textLength="21" x="256" y="184.1357">Is a</text><text fill="#000000" font-family="sans-serif" font-size="13" lengthAdjust="spacingAndGlyphs" textLength="7" x="218.3596" y="161.3317">1</text><text fill="#000000" font-family="sans-serif" font-size="13" lengthAdjust="spacingAndGlyphs" textLength="5" x="273.7463" y="220.392">*</text><!--link data_value to type_of_data_value--><path d="M357,659.7096 C357,683.9986 357,714.6156 357,737.5278 " fill="none" id="data_value-type_of_data_value" style="stroke: #A80036; stroke-width: 1.0; stroke-dasharray: 7.0,7.0;"/><text fill="#000000" font-family="sans-serif" font-size="13" lengthAdjust="spacingAndGlyphs" textLength="21" x="358" y="704.1357">Is a</text><text fill="#000000" font-family="sans-serif" font-size="13" lengthAdjust="spacingAndGlyphs" textLength="7" x="349.4641" y="680.783">1</text><text fill="#000000" font-family="sans-serif" font-size="13" lengthAdjust="spacingAndGlyphs" textLength="5" x="351.5078" y="726.7989">*</text><!--link relationship to thing--><path d="M96.6819,124.6066 C79.5763,136.5066 63.8324,151.4086 54,169.6406 C45.7864,184.8706 49.7798,201.9676 57.9801,217.3886 " fill="none" id="relationship-thing" style="stroke: #A80036; stroke-width: 1.0; stroke-dasharray: 7.0,7.0;"/><text fill="#000000" font-family="sans-serif" font-size="13" lengthAdjust="spacingAndGlyphs" textLength="82" x="55" y="184.1357">Relationship 1</text><text fill="#000000" font-family="sans-serif" font-size="13" lengthAdjust="spacingAndGlyphs" textLength="7" x="82.135" y="124.8132">1</text><text fill="#000000" font-family="sans-serif" font-size="13" lengthAdjust="spacingAndGlyphs" textLength="5" x="46.8819" y="206.6957">*</text><!--link relationship to thing--><path d="M162.28,139.7846 C156.312,155.4386 149.338,172.4216 142,187.6406 C137.248,197.4946 131.671,207.7676 126.092,217.4686 " fill="none" id="relationship-thing" style="stroke: #A80036; stroke-width: 1.0; stroke-dasharray: 7.0,7.0;"/><text fill="#000000" font-family="sans-serif" font-size="13" lengthAdjust="spacingAndGlyphs" textLength="82" x="151" y="184.1357">Relationship 2</text><text fill="#000000" font-family="sans-serif" font-size="13" lengthAdjust="spacingAndGlyphs" textLength="7" x="152.4331" y="161.317">1</text><text fill="#000000" font-family="sans-serif" font-size="13" lengthAdjust="spacingAndGlyphs" textLength="5" x="124.9977" y="206.7875">*</text><!--
@startuml
skinparam handwritten false
skinparam actor {
    backgroundColor<<person>> LightSalmon
    borderColor<<person>> Black
}


' uncomment the line below if you're using computer with a retina display
' skinparam dpi 300
' we use bold for primary key
' green color for unique
' and underscore for not_null
' other tags available:
' <i></i>
' <back:COLOR></color>, where color is a color name or html color code
' (#FFAACC)
' see: http://plantuml.com/classes.html#More

hide methods
hide stereotypes

title Virtual Table

' entities

class thing as "thing" << (T,#FFAAAA) >> {
    <b>id</b> INTEGER
    <u>type_of_thing</u> INTEGER
    <u>caption</u> VARCHAR[64]
    <u>details</u> VARCHAR[64]
}

class type_of_thing as "type_of_thing" << (T,#FFAAAA) >> {
    <b>id</b> INTEGER
    <u>caption</u> VARCHAR[64]
}


class attribute as "attribute" << (T,#FFAAAA) >> {
    <b>id</b> INTEGER
    <u>thing</u> INTEGER
    <u>type_of_attribute</u> INTEGER
    <u>caption</u> VARCHAR[64]
    <u>details</u> VARCHAR[64]
}

class type_of_attribute as "type_of_attribute" << (T,#FFAAAA) >> {
    <b>id</b> INTEGER
    <u>caption</u> VARCHAR[64]
}

class data_value as "data_values" << (T,#FFAAAA) >> {
    <b>id</b> INTEGER
    <u>attribute</u> INTEGER
    <u>value</u> VARCHAR[MAX]
}

class type_of_data_value as "type_of_data_value" << (T,#FFAAAA) >> {
    <b>id</b> INTEGER
    <u>caption</u> VARCHAR[64]
}


class relationship as "relationship" << (T,#FFAAAA) >> {
    <b>id</b> INTEGER
    <u>relationship_to_thing_1</u> INTEGER
    <u>relationship_to_thing_2</u> INTEGER
    <u>type_of_relationship</u> INTEGER
    <u>caption</u> VARCHAR[64]
}


class type_of_relationship as "type_of_relationship" << (T,#FFAAAA) >> {
    <b>id</b> INTEGER
    <u>caption</u> VARCHAR[64]
}

' relationships

thing "1".."*" type_of_thing : "Is a"
attribute "1".."*" type_of_attribute :  "Is a"
attribute "1".."*" data_value :  "Has a"

thing "1".."*" attribute : "Has many"
relationship "1".."*" type_of_relationship :  "Is a"
data_value "1".."*" type_of_data_value :  "Is a"

relationship "1" .. "*" thing :  "Relationship 1"
relationship "1" .. "*" thing :  "Relationship 2"

@enduml

PlantUML version 1.2017.19(Sun Nov 12 22:46:22 AEDT 2017)
(GPL source distribution)
Java Runtime: Java(TM) SE Runtime Environment
JVM: Java HotSpot(TM) 64-Bit Server VM
Java Version: 1.8.0_151-b12
Operating System: Windows Server 2012 R2
OS Version: 6.3
Default Encoding: UTF-8
Language: en
Country: US
--></g></svg>