<?xml version="1.0" encoding="UTF-8" standalone="no"?><svg xmlns="http://www.w3.org/2000/svg" xmlns:xlink="http://www.w3.org/1999/xlink" contentScriptType="application/ecmascript" contentStyleType="text/css" height="261px" preserveAspectRatio="none" style="width:188px;height:261px;" version="1.1" viewBox="0 0 188 261" width="188px" zoomAndPan="magnify"><defs><filter height="300%" id="fo1u2uqxrnu54" width="300%" x="-1" y="-1"><feGaussianBlur result="blurOut" stdDeviation="2.0"/><feColorMatrix in="blurOut" result="blurOut2" type="matrix" values="0 0 0 0 0 0 0 0 0 0 0 0 0 0 0 0 0 0 .4 0"/><feOffset dx="4.0" dy="4.0" in="blurOut2" result="blurOut3"/><feBlend in="SourceGraphic" in2="blurOut3" mode="normal"/></filter></defs><g><!--cluster DSuite--><path d="M25,164 C25,161 27,159 30,159 C33,159 35,161 35,164 C35,161 37,159 40,159 C43,159 45,161 45,164 C45,161 47,159 50,159 C53,159 55,161 55,164 C55,161 57,159 60,159 C63,159 65,161 65,164 C65,161 67,159 70,159 C73,159 75,161 75,164 C75,161 77,159 80,159 C83,159 85,161 85,164 C85,161 87,159 90,159 C93,159 95,161 95,164 C95,161 97,159 100,159 C103,159 105,161 105,164 C105,161 107,159 110,159 C113,159 115,161 115,164 C115,161 117,159 120,159 C123,159 125,161 125,164 C125,161 127,159 130,159 C133,159 135,161 135,164 C138,164 140,166 140,169 C140,172 138,174 135,174 C138,174 140,176 140,179 C140,182 138,184 135,184 C138,184 140,186 140,189 C140,192 138,194 135,194 C138,194 140,196 140,199 C140,202 138,204 135,204 C138,204 140,206 140,209 C140,212 138,214 135,214 C138,214 140,216 140,219 C140,222 138,224 135,224 C138,224 140,226 140,229 C140,232 138,234 135,234 C138,234 140,236 140,239 C140,242 138,244 135,244 C135,247 132,249 130,249 C127,249 125,247 125,244 C125,247 122,249 120,249 C117,249 115,247 115,244 C115,247 112,249 110,249 C107,249 105,247 105,244 C105,247 102,249 100,249 C97,249 95,247 95,244 C95,247 92,249 90,249 C87,249 85,247 85,244 C85,247 82,249 80,249 C77,249 75,247 75,244 C75,247 72,249 70,249 C67,249 65,247 65,244 C65,247 62,249 60,249 C57,249 55,247 55,244 C55,247 52,249 50,249 C47,249 45,247 45,244 C45,247 42,249 40,249 C37,249 35,247 35,244 C35,247 32,249 30,249 C27,249 25,247 25,244 C22,244 20,242 20,239 C20,236 22,234 25,234 C22,234 20,232 20,229 C20,226 22,224 25,224 C22,224 20,222 20,219 C20,216 22,214 25,214 C22,214 20,212 20,209 C20,206 22,204 25,204 C22,204 20,202 20,199 C20,196 22,194 25,194 C22,194 20,192 20,189 C20,186 22,184 25,184 C22,184 20,182 20,179 C20,176 22,174 25,174 C22,174 20,172 20,169 C20,166 22,164 25,164 " fill="#FFFFFF" filter="url(#fo1u2uqxrnu54)" style="stroke: #000000; stroke-width: 2.0;"/><text fill="#000000" font-family="sans-serif" font-size="14" font-weight="bold" lengthAdjust="spacingAndGlyphs" textLength="46" x="56" y="184.5332">DSuite</text><!--entity Security--><polygon fill="#FFFFFF" filter="url(#fo1u2uqxrnu54)" points="38.5,193,95.5,193,102.5,216.6094,119.5,216.6094,119.5,233.6094,38.5,233.6094,38.5,193" style="stroke: #000000; stroke-width: 1.5;"/><line style="stroke: #000000; stroke-width: 1.5;" x1="38.5" x2="102.5" y1="216.6094" y2="216.6094"/><text fill="#000000" font-family="sans-serif" font-size="14" lengthAdjust="spacingAndGlyphs" textLength="51" x="42.5" y="210.5332">Security</text><!--entity Guest--><ellipse cx="79" cy="18" fill="#FEFECE" filter="url(#fo1u2uqxrnu54)" rx="8" ry="8" style="stroke: #A80036; stroke-width: 2.0;"/><path d="M79,26 L79,53 M66,34 L92,34 M79,53 L66,68 M79,53 L92,68 " fill="#FEFECE" filter="url(#fo1u2uqxrnu54)" style="stroke: #A80036; stroke-width: 2.0;"/><text fill="#000000" font-family="sans-serif" font-size="14" lengthAdjust="spacingAndGlyphs" textLength="38" x="60" y="89.5332">Guest</text><!--link Guest to Security--><path d="M79,93.381 C79,123.303 79,162.555 79,187.6597 " fill="none" id="Guest-Security" style="stroke: #A80036; stroke-width: 1.0; stroke-dasharray: 7.0,7.0;"/><polygon fill="#A80036" points="79,192.7935,83,183.7935,79,187.7935,75,183.7935,79,192.7935" style="stroke: #A80036; stroke-width: 1.0;"/><text fill="#000000" font-family="sans-serif" font-size="13" lengthAdjust="spacingAndGlyphs" textLength="96" x="80" y="137.4951">Request Access</text><!--
@startuml

actor Guest

cloud "DSuite" {

  package Security {
   
  }

}

Guest .down.> Security : Request Access

@enduml

PlantUML version 1.2017.19(Sun Nov 12 22:46:22 AEDT 2017)
(GPL source distribution)
Java Runtime: Java(TM) SE Runtime Environment
JVM: Java HotSpot(TM) 64-Bit Server VM
Java Version: 1.8.0_151-b12
Operating System: Windows Server 2012 R2
OS Version: 6.3
Default Encoding: UTF-8
Language: en
Country: US
--></g></svg>