<?xml version="1.0" encoding="UTF-8" standalone="no"?><svg xmlns="http://www.w3.org/2000/svg" xmlns:xlink="http://www.w3.org/1999/xlink" contentScriptType="application/ecmascript" contentStyleType="text/css" height="2018px" preserveAspectRatio="none" style="width:1152px;height:2018px;" version="1.1" viewBox="0 0 1152 2018" width="1152px" zoomAndPan="magnify"><defs><filter height="300%" id="f1wmne5jch5w9g" width="300%" x="-1" y="-1"><feGaussianBlur result="blurOut" stdDeviation="2.0"/><feColorMatrix in="blurOut" result="blurOut2" type="matrix" values="0 0 0 0 0 0 0 0 0 0 0 0 0 0 0 0 0 0 .4 0"/><feOffset dx="4.0" dy="4.0" in="blurOut2" result="blurOut3"/><feBlend in="SourceGraphic" in2="blurOut3" mode="normal"/></filter></defs><g><!--cluster DSuite--><path d="M25,31 C25,28 27,26 30,26 C33,26 35,28 35,31 C35,28 37,26 40,26 C43,26 45,28 45,31 C45,28 47,26 50,26 C53,26 55,28 55,31 C55,28 57,26 60,26 C63,26 65,28 65,31 C65,28 67,26 70,26 C73,26 75,28 75,31 C75,28 77,26 80,26 C83,26 85,28 85,31 C85,28 87,26 90,26 C93,26 95,28 95,31 C95,28 97,26 100,26 C103,26 105,28 105,31 C105,28 107,26 110,26 C113,26 115,28 115,31 C115,28 117,26 120,26 C123,26 125,28 125,31 C125,28 127,26 130,26 C133,26 135,28 135,31 C135,28 137,26 140,26 C143,26 145,28 145,31 C145,28 147,26 150,26 C153,26 155,28 155,31 C155,28 157,26 160,26 C163,26 165,28 165,31 C165,28 167,26 170,26 C173,26 175,28 175,31 C175,28 177,26 180,26 C183,26 185,28 185,31 C185,28 187,26 190,26 C193,26 195,28 195,31 C195,28 197,26 200,26 C203,26 205,28 205,31 C205,28 207,26 210,26 C213,26 215,28 215,31 C215,28 217,26 220,26 C223,26 225,28 225,31 C225,28 227,26 230,26 C233,26 235,28 235,31 C235,28 237,26 240,26 C243,26 245,28 245,31 C245,28 247,26 250,26 C253,26 255,28 255,31 C255,28 257,26 260,26 C263,26 265,28 265,31 C265,28 267,26 270,26 C273,26 275,28 275,31 C275,28 277,26 280,26 C283,26 285,28 285,31 C285,28 287,26 290,26 C293,26 295,28 295,31 C295,28 297,26 300,26 C303,26 305,28 305,31 C305,28 307,26 310,26 C313,26 315,28 315,31 C315,28 317,26 320,26 C323,26 325,28 325,31 C325,28 327,26 330,26 C333,26 335,28 335,31 C335,28 337,26 340,26 C343,26 345,28 345,31 C345,28 347,26 350,26 C353,26 355,28 355,31 C355,28 357,26 360,26 C363,26 365,28 365,31 C365,28 367,26 370,26 C373,26 375,28 375,31 C375,28 377,26 380,26 C383,26 385,28 385,31 C385,28 387,26 390,26 C393,26 395,28 395,31 C395,28 397,26 400,26 C403,26 405,28 405,31 C405,28 407,26 410,26 C413,26 415,28 415,31 C415,28 417,26 420,26 C423,26 425,28 425,31 C425,28 427,26 430,26 C433,26 435,28 435,31 C435,28 437,26 440,26 C443,26 445,28 445,31 C445,28 447,26 450,26 C453,26 455,28 455,31 C455,28 457,26 460,26 C463,26 465,28 465,31 C465,28 467,26 470,26 C473,26 475,28 475,31 C475,28 477,26 480,26 C483,26 485,28 485,31 C485,28 487,26 490,26 C493,26 495,28 495,31 C495,28 497,26 500,26 C503,26 505,28 505,31 C505,28 507,26 510,26 C513,26 515,28 515,31 C515,28 517,26 520,26 C523,26 525,28 525,31 C525,28 527,26 530,26 C533,26 535,28 535,31 C535,28 537,26 540,26 C543,26 545,28 545,31 C545,28 547,26 550,26 C553,26 555,28 555,31 C555,28 557,26 560,26 C563,26 565,28 565,31 C565,28 567,26 570,26 C573,26 575,28 575,31 C575,28 577,26 580,26 C583,26 585,28 585,31 C585,28 587,26 590,26 C593,26 595,28 595,31 C595,28 597,26 600,26 C603,26 605,28 605,31 C605,28 607,26 610,26 C613,26 615,28 615,31 C615,28 617,26 620,26 C623,26 625,28 625,31 C625,28 627,26 630,26 C633,26 635,28 635,31 C635,28 637,26 640,26 C643,26 645,28 645,31 C645,28 647,26 650,26 C653,26 655,28 655,31 C655,28 657,26 660,26 C663,26 665,28 665,31 C665,28 667,26 670,26 C673,26 675,28 675,31 C675,28 677,26 680,26 C683,26 685,28 685,31 C685,28 687,26 690,26 C693,26 695,28 695,31 C695,28 697,26 700,26 C703,26 705,28 705,31 C705,28 707,26 710,26 C713,26 715,28 715,31 C715,28 717,26 720,26 C723,26 725,28 725,31 C725,28 727,26 730,26 C733,26 735,28 735,31 C735,28 737,26 740,26 C743,26 745,28 745,31 C745,28 747,26 750,26 C753,26 755,28 755,31 C755,28 757,26 760,26 C763,26 765,28 765,31 C765,28 767,26 770,26 C773,26 775,28 775,31 C775,28 777,26 780,26 C783,26 785,28 785,31 C785,28 787,26 790,26 C793,26 795,28 795,31 C795,28 797,26 800,26 C803,26 805,28 805,31 C805,28 807,26 810,26 C813,26 815,28 815,31 C815,28 817,26 820,26 C823,26 825,28 825,31 C825,28 827,26 830,26 C833,26 835,28 835,31 C835,28 837,26 840,26 C843,26 845,28 845,31 C845,28 847,26 850,26 C853,26 855,28 855,31 C855,28 857,26 860,26 C863,26 865,28 865,31 C865,28 867,26 870,26 C873,26 875,28 875,31 C875,28 877,26 880,26 C883,26 885,28 885,31 C885,28 887,26 890,26 C893,26 895,28 895,31 C895,28 897,26 900,26 C903,26 905,28 905,31 C905,28 907,26 910,26 C913,26 915,28 915,31 C915,28 917,26 920,26 C923,26 925,28 925,31 C925,28 927,26 930,26 C933,26 935,28 935,31 C935,28 937,26 940,26 C943,26 945,28 945,31 C945,28 947,26 950,26 C953,26 955,28 955,31 C955,28 957,26 960,26 C963,26 965,28 965,31 C965,28 967,26 970,26 C973,26 975,28 975,31 C975,28 977,26 980,26 C983,26 985,28 985,31 C985,28 987,26 990,26 C993,26 995,28 995,31 C995,28 997,26 1000,26 C1003,26 1005,28 1005,31 C1005,28 1007,26 1010,26 C1013,26 1015,28 1015,31 C1015,28 1017,26 1020,26 C1023,26 1025,28 1025,31 C1025,28 1027,26 1030,26 C1033,26 1035,28 1035,31 C1035,28 1037,26 1040,26 C1043,26 1045,28 1045,31 C1045,28 1047,26 1050,26 C1053,26 1055,28 1055,31 C1055,28 1057,26 1060,26 C1063,26 1065,28 1065,31 C1065,28 1067,26 1070,26 C1073,26 1075,28 1075,31 C1075,28 1077,26 1080,26 C1083,26 1085,28 1085,31 C1085,28 1087,26 1090,26 C1093,26 1095,28 1095,31 C1095,28 1097,26 1100,26 C1103,26 1105,28 1105,31 C1105,28 1107,26 1110,26 C1113,26 1115,28 1115,31 C1115,28 1117,26 1120,26 C1123,26 1125,28 1125,31 C1125,28 1127,26 1130,26 C1133,26 1135,28 1135,31 C1138,31 1140,33 1140,36 C1140,39 1138,41 1135,41 C1138,41 1140,43 1140,46 C1140,49 1138,51 1135,51 C1138,51 1140,53 1140,56 C1140,59 1138,61 1135,61 C1138,61 1140,63 1140,66 C1140,69 1138,71 1135,71 C1138,71 1140,73 1140,76 C1140,79 1138,81 1135,81 C1138,81 1140,83 1140,86 C1140,89 1138,91 1135,91 C1138,91 1140,93 1140,96 C1140,99 1138,101 1135,101 C1138,101 1140,103 1140,106 C1140,109 1138,111 1135,111 C1138,111 1140,113 1140,116 C1140,119 1138,121 1135,121 C1138,121 1140,123 1140,126 C1140,129 1138,131 1135,131 C1138,131 1140,133 1140,136 C1140,139 1138,141 1135,141 C1138,141 1140,143 1140,146 C1140,149 1138,151 1135,151 C1138,151 1140,153 1140,156 C1140,159 1138,161 1135,161 C1138,161 1140,163 1140,166 C1140,169 1138,171 1135,171 C1138,171 1140,173 1140,176 C1140,179 1138,181 1135,181 C1138,181 1140,183 1140,186 C1140,189 1138,191 1135,191 C1138,191 1140,193 1140,196 C1140,199 1138,201 1135,201 C1138,201 1140,203 1140,206 C1140,209 1138,211 1135,211 C1138,211 1140,213 1140,216 C1140,219 1138,221 1135,221 C1138,221 1140,223 1140,226 C1140,229 1138,231 1135,231 C1138,231 1140,233 1140,236 C1140,239 1138,241 1135,241 C1138,241 1140,243 1140,246 C1140,249 1138,251 1135,251 C1138,251 1140,253 1140,256 C1140,259 1138,261 1135,261 C1138,261 1140,263 1140,266 C1140,269 1138,271 1135,271 C1138,271 1140,273 1140,276 C1140,279 1138,281 1135,281 C1138,281 1140,283 1140,286 C1140,289 1138,291 1135,291 C1138,291 1140,293 1140,296 C1140,299 1138,301 1135,301 C1138,301 1140,303 1140,306 C1140,309 1138,311 1135,311 C1138,311 1140,313 1140,316 C1140,319 1138,321 1135,321 C1138,321 1140,323 1140,326 C1140,329 1138,331 1135,331 C1138,331 1140,333 1140,336 C1140,339 1138,341 1135,341 C1138,341 1140,343 1140,346 C1140,349 1138,351 1135,351 C1138,351 1140,353 1140,356 C1140,359 1138,361 1135,361 C1138,361 1140,363 1140,366 C1140,369 1138,371 1135,371 C1138,371 1140,373 1140,376 C1140,379 1138,381 1135,381 C1138,381 1140,383 1140,386 C1140,389 1138,391 1135,391 C1138,391 1140,393 1140,396 C1140,399 1138,401 1135,401 C1138,401 1140,403 1140,406 C1140,409 1138,411 1135,411 C1138,411 1140,413 1140,416 C1140,419 1138,421 1135,421 C1138,421 1140,423 1140,426 C1140,429 1138,431 1135,431 C1138,431 1140,433 1140,436 C1140,439 1138,441 1135,441 C1138,441 1140,443 1140,446 C1140,449 1138,451 1135,451 C1138,451 1140,453 1140,456 C1140,459 1138,461 1135,461 C1138,461 1140,463 1140,466 C1140,469 1138,471 1135,471 C1138,471 1140,473 1140,476 C1140,479 1138,481 1135,481 C1138,481 1140,483 1140,486 C1140,489 1138,491 1135,491 C1138,491 1140,493 1140,496 C1140,499 1138,501 1135,501 C1138,501 1140,503 1140,506 C1140,509 1138,511 1135,511 C1138,511 1140,513 1140,516 C1140,519 1138,521 1135,521 C1138,521 1140,523 1140,526 C1140,529 1138,531 1135,531 C1138,531 1140,533 1140,536 C1140,539 1138,541 1135,541 C1138,541 1140,543 1140,546 C1140,549 1138,551 1135,551 C1138,551 1140,553 1140,556 C1140,559 1138,561 1135,561 C1138,561 1140,563 1140,566 C1140,569 1138,571 1135,571 C1138,571 1140,573 1140,576 C1140,579 1138,581 1135,581 C1138,581 1140,583 1140,586 C1140,589 1138,591 1135,591 C1138,591 1140,593 1140,596 C1140,599 1138,601 1135,601 C1138,601 1140,603 1140,606 C1140,609 1138,611 1135,611 C1138,611 1140,613 1140,616 C1140,619 1138,621 1135,621 C1138,621 1140,623 1140,626 C1140,629 1138,631 1135,631 C1138,631 1140,633 1140,636 C1140,639 1138,641 1135,641 C1138,641 1140,643 1140,646 C1140,649 1138,651 1135,651 C1138,651 1140,653 1140,656 C1140,659 1138,661 1135,661 C1138,661 1140,663 1140,666 C1140,669 1138,671 1135,671 C1138,671 1140,673 1140,676 C1140,679 1138,681 1135,681 C1138,681 1140,683 1140,686 C1140,689 1138,691 1135,691 C1138,691 1140,693 1140,696 C1140,699 1138,701 1135,701 C1138,701 1140,703 1140,706 C1140,709 1138,711 1135,711 C1138,711 1140,713 1140,716 C1140,719 1138,721 1135,721 C1138,721 1140,723 1140,726 C1140,729 1138,731 1135,731 C1138,731 1140,733 1140,736 C1140,739 1138,741 1135,741 C1138,741 1140,743 1140,746 C1140,749 1138,751 1135,751 C1138,751 1140,753 1140,756 C1140,759 1138,761 1135,761 C1138,761 1140,763 1140,766 C1140,769 1138,771 1135,771 C1138,771 1140,773 1140,776 C1140,779 1138,781 1135,781 C1138,781 1140,783 1140,786 C1140,789 1138,791 1135,791 C1138,791 1140,793 1140,796 C1140,799 1138,801 1135,801 C1138,801 1140,803 1140,806 C1140,809 1138,811 1135,811 C1138,811 1140,813 1140,816 C1140,819 1138,821 1135,821 C1138,821 1140,823 1140,826 C1140,829 1138,831 1135,831 C1138,831 1140,833 1140,836 C1140,839 1138,841 1135,841 C1138,841 1140,843 1140,846 C1140,849 1138,851 1135,851 C1138,851 1140,853 1140,856 C1140,859 1138,861 1135,861 C1138,861 1140,863 1140,866 C1140,869 1138,871 1135,871 C1138,871 1140,873 1140,876 C1140,879 1138,881 1135,881 C1138,881 1140,883 1140,886 C1140,889 1138,891 1135,891 C1138,891 1140,893 1140,896 C1140,899 1138,901 1135,901 C1138,901 1140,903 1140,906 C1140,909 1138,911 1135,911 C1138,911 1140,913 1140,916 C1140,919 1138,921 1135,921 C1138,921 1140,923 1140,926 C1140,929 1138,931 1135,931 C1138,931 1140,933 1140,936 C1140,939 1138,941 1135,941 C1138,941 1140,943 1140,946 C1140,949 1138,951 1135,951 C1138,951 1140,953 1140,956 C1140,959 1138,961 1135,961 C1138,961 1140,963 1140,966 C1140,969 1138,971 1135,971 C1138,971 1140,973 1140,976 C1140,979 1138,981 1135,981 C1138,981 1140,983 1140,986 C1140,989 1138,991 1135,991 C1138,991 1140,993 1140,996 C1140,999 1138,1001 1135,1001 C1138,1001 1140,1003 1140,1006 C1140,1009 1138,1011 1135,1011 C1138,1011 1140,1013 1140,1016 C1140,1019 1138,1021 1135,1021 C1138,1021 1140,1023 1140,1026 C1140,1029 1138,1031 1135,1031 C1138,1031 1140,1033 1140,1036 C1140,1039 1138,1041 1135,1041 C1138,1041 1140,1043 1140,1046 C1140,1049 1138,1051 1135,1051 C1138,1051 1140,1053 1140,1056 C1140,1059 1138,1061 1135,1061 C1138,1061 1140,1063 1140,1066 C1140,1069 1138,1071 1135,1071 C1138,1071 1140,1073 1140,1076 C1140,1079 1138,1081 1135,1081 C1138,1081 1140,1083 1140,1086 C1140,1089 1138,1091 1135,1091 C1138,1091 1140,1093 1140,1096 C1140,1099 1138,1101 1135,1101 C1138,1101 1140,1103 1140,1106 C1140,1109 1138,1111 1135,1111 C1138,1111 1140,1113 1140,1116 C1140,1119 1138,1121 1135,1121 C1138,1121 1140,1123 1140,1126 C1140,1129 1138,1131 1135,1131 C1138,1131 1140,1133 1140,1136 C1140,1139 1138,1141 1135,1141 C1138,1141 1140,1143 1140,1146 C1140,1149 1138,1151 1135,1151 C1138,1151 1140,1153 1140,1156 C1140,1159 1138,1161 1135,1161 C1138,1161 1140,1163 1140,1166 C1140,1169 1138,1171 1135,1171 C1138,1171 1140,1173 1140,1176 C1140,1179 1138,1181 1135,1181 C1138,1181 1140,1183 1140,1186 C1140,1189 1138,1191 1135,1191 C1138,1191 1140,1193 1140,1196 C1140,1199 1138,1201 1135,1201 C1138,1201 1140,1203 1140,1206 C1140,1209 1138,1211 1135,1211 C1138,1211 1140,1213 1140,1216 C1140,1219 1138,1221 1135,1221 C1138,1221 1140,1223 1140,1226 C1140,1229 1138,1231 1135,1231 C1138,1231 1140,1233 1140,1236 C1140,1239 1138,1241 1135,1241 C1138,1241 1140,1243 1140,1246 C1140,1249 1138,1251 1135,1251 C1138,1251 1140,1253 1140,1256 C1140,1259 1138,1261 1135,1261 C1138,1261 1140,1263 1140,1266 C1140,1269 1138,1271 1135,1271 C1138,1271 1140,1273 1140,1276 C1140,1279 1138,1281 1135,1281 C1138,1281 1140,1283 1140,1286 C1140,1289 1138,1291 1135,1291 C1138,1291 1140,1293 1140,1296 C1140,1299 1138,1301 1135,1301 C1138,1301 1140,1303 1140,1306 C1140,1309 1138,1311 1135,1311 C1138,1311 1140,1313 1140,1316 C1140,1319 1138,1321 1135,1321 C1138,1321 1140,1323 1140,1326 C1140,1329 1138,1331 1135,1331 C1138,1331 1140,1333 1140,1336 C1140,1339 1138,1341 1135,1341 C1138,1341 1140,1343 1140,1346 C1140,1349 1138,1351 1135,1351 C1138,1351 1140,1353 1140,1356 C1140,1359 1138,1361 1135,1361 C1138,1361 1140,1363 1140,1366 C1140,1369 1138,1371 1135,1371 C1138,1371 1140,1373 1140,1376 C1140,1379 1138,1381 1135,1381 C1138,1381 1140,1383 1140,1386 C1140,1389 1138,1391 1135,1391 C1138,1391 1140,1393 1140,1396 C1140,1399 1138,1401 1135,1401 C1138,1401 1140,1403 1140,1406 C1140,1409 1138,1411 1135,1411 C1138,1411 1140,1413 1140,1416 C1140,1419 1138,1421 1135,1421 C1138,1421 1140,1423 1140,1426 C1140,1429 1138,1431 1135,1431 C1138,1431 1140,1433 1140,1436 C1140,1439 1138,1441 1135,1441 C1138,1441 1140,1443 1140,1446 C1140,1449 1138,1451 1135,1451 C1138,1451 1140,1453 1140,1456 C1140,1459 1138,1461 1135,1461 C1138,1461 1140,1463 1140,1466 C1140,1469 1138,1471 1135,1471 C1138,1471 1140,1473 1140,1476 C1140,1479 1138,1481 1135,1481 C1138,1481 1140,1483 1140,1486 C1140,1489 1138,1491 1135,1491 C1138,1491 1140,1493 1140,1496 C1140,1499 1138,1501 1135,1501 C1138,1501 1140,1503 1140,1506 C1140,1509 1138,1511 1135,1511 C1138,1511 1140,1513 1140,1516 C1140,1519 1138,1521 1135,1521 C1138,1521 1140,1523 1140,1526 C1140,1529 1138,1531 1135,1531 C1138,1531 1140,1533 1140,1536 C1140,1539 1138,1541 1135,1541 C1138,1541 1140,1543 1140,1546 C1140,1549 1138,1551 1135,1551 C1138,1551 1140,1553 1140,1556 C1140,1559 1138,1561 1135,1561 C1138,1561 1140,1563 1140,1566 C1140,1569 1138,1571 1135,1571 C1138,1571 1140,1573 1140,1576 C1140,1579 1138,1581 1135,1581 C1138,1581 1140,1583 1140,1586 C1140,1589 1138,1591 1135,1591 C1138,1591 1140,1593 1140,1596 C1140,1599 1138,1601 1135,1601 C1138,1601 1140,1603 1140,1606 C1140,1609 1138,1611 1135,1611 C1138,1611 1140,1613 1140,1616 C1140,1619 1138,1621 1135,1621 C1138,1621 1140,1623 1140,1626 C1140,1629 1138,1631 1135,1631 C1138,1631 1140,1633 1140,1636 C1140,1639 1138,1641 1135,1641 C1138,1641 1140,1643 1140,1646 C1140,1649 1138,1651 1135,1651 C1138,1651 1140,1653 1140,1656 C1140,1659 1138,1661 1135,1661 C1138,1661 1140,1663 1140,1666 C1140,1669 1138,1671 1135,1671 C1138,1671 1140,1673 1140,1676 C1140,1679 1138,1681 1135,1681 C1138,1681 1140,1683 1140,1686 C1140,1689 1138,1691 1135,1691 C1138,1691 1140,1693 1140,1696 C1140,1699 1138,1701 1135,1701 C1138,1701 1140,1703 1140,1706 C1140,1709 1138,1711 1135,1711 C1138,1711 1140,1713 1140,1716 C1140,1719 1138,1721 1135,1721 C1138,1721 1140,1723 1140,1726 C1140,1729 1138,1731 1135,1731 C1138,1731 1140,1733 1140,1736 C1140,1739 1138,1741 1135,1741 C1138,1741 1140,1743 1140,1746 C1140,1749 1138,1751 1135,1751 C1138,1751 1140,1753 1140,1756 C1140,1759 1138,1761 1135,1761 C1138,1761 1140,1763 1140,1766 C1140,1769 1138,1771 1135,1771 C1138,1771 1140,1773 1140,1776 C1140,1779 1138,1781 1135,1781 C1138,1781 1140,1783 1140,1786 C1140,1789 1138,1791 1135,1791 C1138,1791 1140,1793 1140,1796 C1140,1799 1138,1801 1135,1801 C1138,1801 1140,1803 1140,1806 C1140,1809 1138,1811 1135,1811 C1138,1811 1140,1813 1140,1816 C1140,1819 1138,1821 1135,1821 C1138,1821 1140,1823 1140,1826 C1140,1829 1138,1831 1135,1831 C1138,1831 1140,1833 1140,1836 C1140,1839 1138,1841 1135,1841 C1138,1841 1140,1843 1140,1846 C1140,1849 1138,1851 1135,1851 C1138,1851 1140,1853 1140,1856 C1140,1859 1138,1861 1135,1861 C1138,1861 1140,1863 1140,1866 C1140,1869 1138,1871 1135,1871 C1138,1871 1140,1873 1140,1876 C1140,1879 1138,1881 1135,1881 C1138,1881 1140,1883 1140,1886 C1140,1889 1138,1891 1135,1891 C1138,1891 1140,1893 1140,1896 C1140,1899 1138,1901 1135,1901 C1138,1901 1140,1903 1140,1906 C1140,1909 1138,1911 1135,1911 C1138,1911 1140,1913 1140,1916 C1140,1919 1138,1921 1135,1921 C1138,1921 1140,1923 1140,1926 C1140,1929 1138,1931 1135,1931 C1138,1931 1140,1933 1140,1936 C1140,1939 1138,1941 1135,1941 C1138,1941 1140,1943 1140,1946 C1140,1949 1138,1951 1135,1951 C1138,1951 1140,1953 1140,1956 C1140,1959 1138,1961 1135,1961 C1138,1961 1140,1963 1140,1966 C1140,1969 1138,1971 1135,1971 C1138,1971 1140,1973 1140,1976 C1140,1979 1138,1981 1135,1981 C1138,1981 1140,1983 1140,1986 C1140,1989 1138,1991 1135,1991 C1138,1991 1140,1993 1140,1996 C1140,1999 1138,2001 1135,2001 C1135,2004 1132,2006 1130,2006 C1127,2006 1125,2004 1125,2001 C1125,2004 1122,2006 1120,2006 C1117,2006 1115,2004 1115,2001 C1115,2004 1112,2006 1110,2006 C1107,2006 1105,2004 1105,2001 C1105,2004 1102,2006 1100,2006 C1097,2006 1095,2004 1095,2001 C1095,2004 1092,2006 1090,2006 C1087,2006 1085,2004 1085,2001 C1085,2004 1082,2006 1080,2006 C1077,2006 1075,2004 1075,2001 C1075,2004 1072,2006 1070,2006 C1067,2006 1065,2004 1065,2001 C1065,2004 1062,2006 1060,2006 C1057,2006 1055,2004 1055,2001 C1055,2004 1052,2006 1050,2006 C1047,2006 1045,2004 1045,2001 C1045,2004 1042,2006 1040,2006 C1037,2006 1035,2004 1035,2001 C1035,2004 1032,2006 1030,2006 C1027,2006 1025,2004 1025,2001 C1025,2004 1022,2006 1020,2006 C1017,2006 1015,2004 1015,2001 C1015,2004 1012,2006 1010,2006 C1007,2006 1005,2004 1005,2001 C1005,2004 1002,2006 1000,2006 C997,2006 995,2004 995,2001 C995,2004 992,2006 990,2006 C987,2006 985,2004 985,2001 C985,2004 982,2006 980,2006 C977,2006 975,2004 975,2001 C975,2004 972,2006 970,2006 C967,2006 965,2004 965,2001 C965,2004 962,2006 960,2006 C957,2006 955,2004 955,2001 C955,2004 952,2006 950,2006 C947,2006 945,2004 945,2001 C945,2004 942,2006 940,2006 C937,2006 935,2004 935,2001 C935,2004 932,2006 930,2006 C927,2006 925,2004 925,2001 C925,2004 922,2006 920,2006 C917,2006 915,2004 915,2001 C915,2004 912,2006 910,2006 C907,2006 905,2004 905,2001 C905,2004 902,2006 900,2006 C897,2006 895,2004 895,2001 C895,2004 892,2006 890,2006 C887,2006 885,2004 885,2001 C885,2004 882,2006 880,2006 C877,2006 875,2004 875,2001 C875,2004 872,2006 870,2006 C867,2006 865,2004 865,2001 C865,2004 862,2006 860,2006 C857,2006 855,2004 855,2001 C855,2004 852,2006 850,2006 C847,2006 845,2004 845,2001 C845,2004 842,2006 840,2006 C837,2006 835,2004 835,2001 C835,2004 832,2006 830,2006 C827,2006 825,2004 825,2001 C825,2004 822,2006 820,2006 C817,2006 815,2004 815,2001 C815,2004 812,2006 810,2006 C807,2006 805,2004 805,2001 C805,2004 802,2006 800,2006 C797,2006 795,2004 795,2001 C795,2004 792,2006 790,2006 C787,2006 785,2004 785,2001 C785,2004 782,2006 780,2006 C777,2006 775,2004 775,2001 C775,2004 772,2006 770,2006 C767,2006 765,2004 765,2001 C765,2004 762,2006 760,2006 C757,2006 755,2004 755,2001 C755,2004 752,2006 750,2006 C747,2006 745,2004 745,2001 C745,2004 742,2006 740,2006 C737,2006 735,2004 735,2001 C735,2004 732,2006 730,2006 C727,2006 725,2004 725,2001 C725,2004 722,2006 720,2006 C717,2006 715,2004 715,2001 C715,2004 712,2006 710,2006 C707,2006 705,2004 705,2001 C705,2004 702,2006 700,2006 C697,2006 695,2004 695,2001 C695,2004 692,2006 690,2006 C687,2006 685,2004 685,2001 C685,2004 682,2006 680,2006 C677,2006 675,2004 675,2001 C675,2004 672,2006 670,2006 C667,2006 665,2004 665,2001 C665,2004 662,2006 660,2006 C657,2006 655,2004 655,2001 C655,2004 652,2006 650,2006 C647,2006 645,2004 645,2001 C645,2004 642,2006 640,2006 C637,2006 635,2004 635,2001 C635,2004 632,2006 630,2006 C627,2006 625,2004 625,2001 C625,2004 622,2006 620,2006 C617,2006 615,2004 615,2001 C615,2004 612,2006 610,2006 C607,2006 605,2004 605,2001 C605,2004 602,2006 600,2006 C597,2006 595,2004 595,2001 C595,2004 592,2006 590,2006 C587,2006 585,2004 585,2001 C585,2004 582,2006 580,2006 C577,2006 575,2004 575,2001 C575,2004 572,2006 570,2006 C567,2006 565,2004 565,2001 C565,2004 562,2006 560,2006 C557,2006 555,2004 555,2001 C555,2004 552,2006 550,2006 C547,2006 545,2004 545,2001 C545,2004 542,2006 540,2006 C537,2006 535,2004 535,2001 C535,2004 532,2006 530,2006 C527,2006 525,2004 525,2001 C525,2004 522,2006 520,2006 C517,2006 515,2004 515,2001 C515,2004 512,2006 510,2006 C507,2006 505,2004 505,2001 C505,2004 502,2006 500,2006 C497,2006 495,2004 495,2001 C495,2004 492,2006 490,2006 C487,2006 485,2004 485,2001 C485,2004 482,2006 480,2006 C477,2006 475,2004 475,2001 C475,2004 472,2006 470,2006 C467,2006 465,2004 465,2001 C465,2004 462,2006 460,2006 C457,2006 455,2004 455,2001 C455,2004 452,2006 450,2006 C447,2006 445,2004 445,2001 C445,2004 442,2006 440,2006 C437,2006 435,2004 435,2001 C435,2004 432,2006 430,2006 C427,2006 425,2004 425,2001 C425,2004 422,2006 420,2006 C417,2006 415,2004 415,2001 C415,2004 412,2006 410,2006 C407,2006 405,2004 405,2001 C405,2004 402,2006 400,2006 C397,2006 395,2004 395,2001 C395,2004 392,2006 390,2006 C387,2006 385,2004 385,2001 C385,2004 382,2006 380,2006 C377,2006 375,2004 375,2001 C375,2004 372,2006 370,2006 C367,2006 365,2004 365,2001 C365,2004 362,2006 360,2006 C357,2006 355,2004 355,2001 C355,2004 352,2006 350,2006 C347,2006 345,2004 345,2001 C345,2004 342,2006 340,2006 C337,2006 335,2004 335,2001 C335,2004 332,2006 330,2006 C327,2006 325,2004 325,2001 C325,2004 322,2006 320,2006 C317,2006 315,2004 315,2001 C315,2004 312,2006 310,2006 C307,2006 305,2004 305,2001 C305,2004 302,2006 300,2006 C297,2006 295,2004 295,2001 C295,2004 292,2006 290,2006 C287,2006 285,2004 285,2001 C285,2004 282,2006 280,2006 C277,2006 275,2004 275,2001 C275,2004 272,2006 270,2006 C267,2006 265,2004 265,2001 C265,2004 262,2006 260,2006 C257,2006 255,2004 255,2001 C255,2004 252,2006 250,2006 C247,2006 245,2004 245,2001 C245,2004 242,2006 240,2006 C237,2006 235,2004 235,2001 C235,2004 232,2006 230,2006 C227,2006 225,2004 225,2001 C225,2004 222,2006 220,2006 C217,2006 215,2004 215,2001 C215,2004 212,2006 210,2006 C207,2006 205,2004 205,2001 C205,2004 202,2006 200,2006 C197,2006 195,2004 195,2001 C195,2004 192,2006 190,2006 C187,2006 185,2004 185,2001 C185,2004 182,2006 180,2006 C177,2006 175,2004 175,2001 C175,2004 172,2006 170,2006 C167,2006 165,2004 165,2001 C165,2004 162,2006 160,2006 C157,2006 155,2004 155,2001 C155,2004 152,2006 150,2006 C147,2006 145,2004 145,2001 C145,2004 142,2006 140,2006 C137,2006 135,2004 135,2001 C135,2004 132,2006 130,2006 C127,2006 125,2004 125,2001 C125,2004 122,2006 120,2006 C117,2006 115,2004 115,2001 C115,2004 112,2006 110,2006 C107,2006 105,2004 105,2001 C105,2004 102,2006 100,2006 C97,2006 95,2004 95,2001 C95,2004 92,2006 90,2006 C87,2006 85,2004 85,2001 C85,2004 82,2006 80,2006 C77,2006 75,2004 75,2001 C75,2004 72,2006 70,2006 C67,2006 65,2004 65,2001 C65,2004 62,2006 60,2006 C57,2006 55,2004 55,2001 C55,2004 52,2006 50,2006 C47,2006 45,2004 45,2001 C45,2004 42,2006 40,2006 C37,2006 35,2004 35,2001 C35,2004 32,2006 30,2006 C27,2006 25,2004 25,2001 C22,2001 20,1999 20,1996 C20,1993 22,1991 25,1991 C22,1991 20,1989 20,1986 C20,1983 22,1981 25,1981 C22,1981 20,1979 20,1976 C20,1973 22,1971 25,1971 C22,1971 20,1969 20,1966 C20,1963 22,1961 25,1961 C22,1961 20,1959 20,1956 C20,1953 22,1951 25,1951 C22,1951 20,1949 20,1946 C20,1943 22,1941 25,1941 C22,1941 20,1939 20,1936 C20,1933 22,1931 25,1931 C22,1931 20,1929 20,1926 C20,1923 22,1921 25,1921 C22,1921 20,1919 20,1916 C20,1913 22,1911 25,1911 C22,1911 20,1909 20,1906 C20,1903 22,1901 25,1901 C22,1901 20,1899 20,1896 C20,1893 22,1891 25,1891 C22,1891 20,1889 20,1886 C20,1883 22,1881 25,1881 C22,1881 20,1879 20,1876 C20,1873 22,1871 25,1871 C22,1871 20,1869 20,1866 C20,1863 22,1861 25,1861 C22,1861 20,1859 20,1856 C20,1853 22,1851 25,1851 C22,1851 20,1849 20,1846 C20,1843 22,1841 25,1841 C22,1841 20,1839 20,1836 C20,1833 22,1831 25,1831 C22,1831 20,1829 20,1826 C20,1823 22,1821 25,1821 C22,1821 20,1819 20,1816 C20,1813 22,1811 25,1811 C22,1811 20,1809 20,1806 C20,1803 22,1801 25,1801 C22,1801 20,1799 20,1796 C20,1793 22,1791 25,1791 C22,1791 20,1789 20,1786 C20,1783 22,1781 25,1781 C22,1781 20,1779 20,1776 C20,1773 22,1771 25,1771 C22,1771 20,1769 20,1766 C20,1763 22,1761 25,1761 C22,1761 20,1759 20,1756 C20,1753 22,1751 25,1751 C22,1751 20,1749 20,1746 C20,1743 22,1741 25,1741 C22,1741 20,1739 20,1736 C20,1733 22,1731 25,1731 C22,1731 20,1729 20,1726 C20,1723 22,1721 25,1721 C22,1721 20,1719 20,1716 C20,1713 22,1711 25,1711 C22,1711 20,1709 20,1706 C20,1703 22,1701 25,1701 C22,1701 20,1699 20,1696 C20,1693 22,1691 25,1691 C22,1691 20,1689 20,1686 C20,1683 22,1681 25,1681 C22,1681 20,1679 20,1676 C20,1673 22,1671 25,1671 C22,1671 20,1669 20,1666 C20,1663 22,1661 25,1661 C22,1661 20,1659 20,1656 C20,1653 22,1651 25,1651 C22,1651 20,1649 20,1646 C20,1643 22,1641 25,1641 C22,1641 20,1639 20,1636 C20,1633 22,1631 25,1631 C22,1631 20,1629 20,1626 C20,1623 22,1621 25,1621 C22,1621 20,1619 20,1616 C20,1613 22,1611 25,1611 C22,1611 20,1609 20,1606 C20,1603 22,1601 25,1601 C22,1601 20,1599 20,1596 C20,1593 22,1591 25,1591 C22,1591 20,1589 20,1586 C20,1583 22,1581 25,1581 C22,1581 20,1579 20,1576 C20,1573 22,1571 25,1571 C22,1571 20,1569 20,1566 C20,1563 22,1561 25,1561 C22,1561 20,1559 20,1556 C20,1553 22,1551 25,1551 C22,1551 20,1549 20,1546 C20,1543 22,1541 25,1541 C22,1541 20,1539 20,1536 C20,1533 22,1531 25,1531 C22,1531 20,1529 20,1526 C20,1523 22,1521 25,1521 C22,1521 20,1519 20,1516 C20,1513 22,1511 25,1511 C22,1511 20,1509 20,1506 C20,1503 22,1501 25,1501 C22,1501 20,1499 20,1496 C20,1493 22,1491 25,1491 C22,1491 20,1489 20,1486 C20,1483 22,1481 25,1481 C22,1481 20,1479 20,1476 C20,1473 22,1471 25,1471 C22,1471 20,1469 20,1466 C20,1463 22,1461 25,1461 C22,1461 20,1459 20,1456 C20,1453 22,1451 25,1451 C22,1451 20,1449 20,1446 C20,1443 22,1441 25,1441 C22,1441 20,1439 20,1436 C20,1433 22,1431 25,1431 C22,1431 20,1429 20,1426 C20,1423 22,1421 25,1421 C22,1421 20,1419 20,1416 C20,1413 22,1411 25,1411 C22,1411 20,1409 20,1406 C20,1403 22,1401 25,1401 C22,1401 20,1399 20,1396 C20,1393 22,1391 25,1391 C22,1391 20,1389 20,1386 C20,1383 22,1381 25,1381 C22,1381 20,1379 20,1376 C20,1373 22,1371 25,1371 C22,1371 20,1369 20,1366 C20,1363 22,1361 25,1361 C22,1361 20,1359 20,1356 C20,1353 22,1351 25,1351 C22,1351 20,1349 20,1346 C20,1343 22,1341 25,1341 C22,1341 20,1339 20,1336 C20,1333 22,1331 25,1331 C22,1331 20,1329 20,1326 C20,1323 22,1321 25,1321 C22,1321 20,1319 20,1316 C20,1313 22,1311 25,1311 C22,1311 20,1309 20,1306 C20,1303 22,1301 25,1301 C22,1301 20,1299 20,1296 C20,1293 22,1291 25,1291 C22,1291 20,1289 20,1286 C20,1283 22,1281 25,1281 C22,1281 20,1279 20,1276 C20,1273 22,1271 25,1271 C22,1271 20,1269 20,1266 C20,1263 22,1261 25,1261 C22,1261 20,1259 20,1256 C20,1253 22,1251 25,1251 C22,1251 20,1249 20,1246 C20,1243 22,1241 25,1241 C22,1241 20,1239 20,1236 C20,1233 22,1231 25,1231 C22,1231 20,1229 20,1226 C20,1223 22,1221 25,1221 C22,1221 20,1219 20,1216 C20,1213 22,1211 25,1211 C22,1211 20,1209 20,1206 C20,1203 22,1201 25,1201 C22,1201 20,1199 20,1196 C20,1193 22,1191 25,1191 C22,1191 20,1189 20,1186 C20,1183 22,1181 25,1181 C22,1181 20,1179 20,1176 C20,1173 22,1171 25,1171 C22,1171 20,1169 20,1166 C20,1163 22,1161 25,1161 C22,1161 20,1159 20,1156 C20,1153 22,1151 25,1151 C22,1151 20,1149 20,1146 C20,1143 22,1141 25,1141 C22,1141 20,1139 20,1136 C20,1133 22,1131 25,1131 C22,1131 20,1129 20,1126 C20,1123 22,1121 25,1121 C22,1121 20,1119 20,1116 C20,1113 22,1111 25,1111 C22,1111 20,1109 20,1106 C20,1103 22,1101 25,1101 C22,1101 20,1099 20,1096 C20,1093 22,1091 25,1091 C22,1091 20,1089 20,1086 C20,1083 22,1081 25,1081 C22,1081 20,1079 20,1076 C20,1073 22,1071 25,1071 C22,1071 20,1069 20,1066 C20,1063 22,1061 25,1061 C22,1061 20,1059 20,1056 C20,1053 22,1051 25,1051 C22,1051 20,1049 20,1046 C20,1043 22,1041 25,1041 C22,1041 20,1039 20,1036 C20,1033 22,1031 25,1031 C22,1031 20,1029 20,1026 C20,1023 22,1021 25,1021 C22,1021 20,1019 20,1016 C20,1013 22,1011 25,1011 C22,1011 20,1009 20,1006 C20,1003 22,1001 25,1001 C22,1001 20,999 20,996 C20,993 22,991 25,991 C22,991 20,989 20,986 C20,983 22,981 25,981 C22,981 20,979 20,976 C20,973 22,971 25,971 C22,971 20,969 20,966 C20,963 22,961 25,961 C22,961 20,959 20,956 C20,953 22,951 25,951 C22,951 20,949 20,946 C20,943 22,941 25,941 C22,941 20,939 20,936 C20,933 22,931 25,931 C22,931 20,929 20,926 C20,923 22,921 25,921 C22,921 20,919 20,916 C20,913 22,911 25,911 C22,911 20,909 20,906 C20,903 22,901 25,901 C22,901 20,899 20,896 C20,893 22,891 25,891 C22,891 20,889 20,886 C20,883 22,881 25,881 C22,881 20,879 20,876 C20,873 22,871 25,871 C22,871 20,869 20,866 C20,863 22,861 25,861 C22,861 20,859 20,856 C20,853 22,851 25,851 C22,851 20,849 20,846 C20,843 22,841 25,841 C22,841 20,839 20,836 C20,833 22,831 25,831 C22,831 20,829 20,826 C20,823 22,821 25,821 C22,821 20,819 20,816 C20,813 22,811 25,811 C22,811 20,809 20,806 C20,803 22,801 25,801 C22,801 20,799 20,796 C20,793 22,791 25,791 C22,791 20,789 20,786 C20,783 22,781 25,781 C22,781 20,779 20,776 C20,773 22,771 25,771 C22,771 20,769 20,766 C20,763 22,761 25,761 C22,761 20,759 20,756 C20,753 22,751 25,751 C22,751 20,749 20,746 C20,743 22,741 25,741 C22,741 20,739 20,736 C20,733 22,731 25,731 C22,731 20,729 20,726 C20,723 22,721 25,721 C22,721 20,719 20,716 C20,713 22,711 25,711 C22,711 20,709 20,706 C20,703 22,701 25,701 C22,701 20,699 20,696 C20,693 22,691 25,691 C22,691 20,689 20,686 C20,683 22,681 25,681 C22,681 20,679 20,676 C20,673 22,671 25,671 C22,671 20,669 20,666 C20,663 22,661 25,661 C22,661 20,659 20,656 C20,653 22,651 25,651 C22,651 20,649 20,646 C20,643 22,641 25,641 C22,641 20,639 20,636 C20,633 22,631 25,631 C22,631 20,629 20,626 C20,623 22,621 25,621 C22,621 20,619 20,616 C20,613 22,611 25,611 C22,611 20,609 20,606 C20,603 22,601 25,601 C22,601 20,599 20,596 C20,593 22,591 25,591 C22,591 20,589 20,586 C20,583 22,581 25,581 C22,581 20,579 20,576 C20,573 22,571 25,571 C22,571 20,569 20,566 C20,563 22,561 25,561 C22,561 20,559 20,556 C20,553 22,551 25,551 C22,551 20,549 20,546 C20,543 22,541 25,541 C22,541 20,539 20,536 C20,533 22,531 25,531 C22,531 20,529 20,526 C20,523 22,521 25,521 C22,521 20,519 20,516 C20,513 22,511 25,511 C22,511 20,509 20,506 C20,503 22,501 25,501 C22,501 20,499 20,496 C20,493 22,491 25,491 C22,491 20,489 20,486 C20,483 22,481 25,481 C22,481 20,479 20,476 C20,473 22,471 25,471 C22,471 20,469 20,466 C20,463 22,461 25,461 C22,461 20,459 20,456 C20,453 22,451 25,451 C22,451 20,449 20,446 C20,443 22,441 25,441 C22,441 20,439 20,436 C20,433 22,431 25,431 C22,431 20,429 20,426 C20,423 22,421 25,421 C22,421 20,419 20,416 C20,413 22,411 25,411 C22,411 20,409 20,406 C20,403 22,401 25,401 C22,401 20,399 20,396 C20,393 22,391 25,391 C22,391 20,389 20,386 C20,383 22,381 25,381 C22,381 20,379 20,376 C20,373 22,371 25,371 C22,371 20,369 20,366 C20,363 22,361 25,361 C22,361 20,359 20,356 C20,353 22,351 25,351 C22,351 20,349 20,346 C20,343 22,341 25,341 C22,341 20,339 20,336 C20,333 22,331 25,331 C22,331 20,329 20,326 C20,323 22,321 25,321 C22,321 20,319 20,316 C20,313 22,311 25,311 C22,311 20,309 20,306 C20,303 22,301 25,301 C22,301 20,299 20,296 C20,293 22,291 25,291 C22,291 20,289 20,286 C20,283 22,281 25,281 C22,281 20,279 20,276 C20,273 22,271 25,271 C22,271 20,269 20,266 C20,263 22,261 25,261 C22,261 20,259 20,256 C20,253 22,251 25,251 C22,251 20,249 20,246 C20,243 22,241 25,241 C22,241 20,239 20,236 C20,233 22,231 25,231 C22,231 20,229 20,226 C20,223 22,221 25,221 C22,221 20,219 20,216 C20,213 22,211 25,211 C22,211 20,209 20,206 C20,203 22,201 25,201 C22,201 20,199 20,196 C20,193 22,191 25,191 C22,191 20,189 20,186 C20,183 22,181 25,181 C22,181 20,179 20,176 C20,173 22,171 25,171 C22,171 20,169 20,166 C20,163 22,161 25,161 C22,161 20,159 20,156 C20,153 22,151 25,151 C22,151 20,149 20,146 C20,143 22,141 25,141 C22,141 20,139 20,136 C20,133 22,131 25,131 C22,131 20,129 20,126 C20,123 22,121 25,121 C22,121 20,119 20,116 C20,113 22,111 25,111 C22,111 20,109 20,106 C20,103 22,101 25,101 C22,101 20,99 20,96 C20,93 22,91 25,91 C22,91 20,89 20,86 C20,83 22,81 25,81 C22,81 20,79 20,76 C20,73 22,71 25,71 C22,71 20,69 20,66 C20,63 22,61 25,61 C22,61 20,59 20,56 C20,53 22,51 25,51 C22,51 20,49 20,46 C20,43 22,41 25,41 C22,41 20,39 20,36 C20,33 22,31 25,31 " fill="#FFFFFF" filter="url(#f1wmne5jch5w9g)" style="stroke: #000000; stroke-width: 2.0;"/><text fill="#000000" font-family="sans-serif" font-size="14" font-weight="bold" lengthAdjust="spacingAndGlyphs" textLength="46" x="556.5" y="51.5332">DSuite</text><!--cluster Viewer--><polygon fill="#FFFFFF" filter="url(#f1wmne5jch5w9g)" points="428,1775,438,1765,628,1765,628,1975,618,1985,428,1985,428,1775" style="stroke: #000000; stroke-width: 2.0;"/><line style="stroke: #000000; stroke-width: 2.0;" x1="618" x2="627" y1="1775" y2="1766"/><line style="stroke: #000000; stroke-width: 2.0;" x1="428" x2="618" y1="1775" y2="1775"/><line style="stroke: #000000; stroke-width: 2.0;" x1="618" x2="618" y1="1775" y2="1985"/><text fill="#000000" font-family="sans-serif" font-size="14" font-weight="bold" lengthAdjust="spacingAndGlyphs" textLength="48" x="500" y="1792.5332">Viewer</text><!--cluster SP--><polygon fill="#FFFFFF" filter="url(#f1wmne5jch5w9g)" points="854,606,864,596,1090,596,1090,906,1080,916,854,916,854,606" style="stroke: #000000; stroke-width: 2.0;"/><line style="stroke: #000000; stroke-width: 2.0;" x1="1080" x2="1089" y1="606" y2="597"/><line style="stroke: #000000; stroke-width: 2.0;" x1="854" x2="1080" y1="606" y2="606"/><line style="stroke: #000000; stroke-width: 2.0;" x1="1080" x2="1080" y1="606" y2="916"/><text fill="#000000" font-family="sans-serif" font-size="14" font-weight="bold" lengthAdjust="spacingAndGlyphs" textLength="77" x="929.5" y="623.5332">SharePoint</text><!--cluster Site--><polygon fill="#FFFFFF" filter="url(#f1wmne5jch5w9g)" points="886,653,919,653,926,676.6094,1050,676.6094,1050,884,886,884,886,653" style="stroke: #000000; stroke-width: 2.0;"/><line style="stroke: #000000; stroke-width: 2.0;" x1="886" x2="926" y1="676.6094" y2="676.6094"/><text fill="#000000" font-family="sans-serif" font-size="14" font-weight="bold" lengthAdjust="spacingAndGlyphs" textLength="27" x="890" y="669.5332">Site</text><!--cluster Administration--><polygon fill="#FFFFFF" filter="url(#f1wmne5jch5w9g)" points="46,78,56,68,822,68,822,773,812,783,46,783,46,78" style="stroke: #000000; stroke-width: 2.0;"/><line style="stroke: #000000; stroke-width: 2.0;" x1="812" x2="821" y1="78" y2="69"/><line style="stroke: #000000; stroke-width: 2.0;" x1="46" x2="812" y1="78" y2="78"/><line style="stroke: #000000; stroke-width: 2.0;" x1="812" x2="812" y1="78" y2="783"/><text fill="#000000" font-family="sans-serif" font-size="14" font-weight="bold" lengthAdjust="spacingAndGlyphs" textLength="101" x="379.5" y="95.5332">Administration</text><!--cluster APP_PACK--><polygon fill="#FFFFFF" filter="url(#f1wmne5jch5w9g)" points="78,125,117,125,124,148.6094,471,148.6094,471,330,78,330,78,125" style="stroke: #000000; stroke-width: 2.0;"/><line style="stroke: #000000; stroke-width: 2.0;" x1="78" x2="124" y1="148.6094" y2="148.6094"/><text fill="#000000" font-family="sans-serif" font-size="14" font-weight="bold" lengthAdjust="spacingAndGlyphs" textLength="33" x="82" y="141.5332">Pack</text><!--cluster APP_META--><polygon fill="#FFFFFF" filter="url(#f1wmne5jch5w9g)" points="78,441,150,441,157,464.6094,195,464.6094,195,547,78,547,78,441" style="stroke: #000000; stroke-width: 2.0;"/><line style="stroke: #000000; stroke-width: 2.0;" x1="78" x2="157" y1="464.6094" y2="464.6094"/><text fill="#000000" font-family="sans-serif" font-size="14" font-weight="bold" lengthAdjust="spacingAndGlyphs" textLength="66" x="82" y="457.5332">MetaData</text><!--cluster APP_SECURITY--><polygon fill="#FFFFFF" filter="url(#f1wmne5jch5w9g)" points="235,441,298,441,305,464.6094,467,464.6094,467,751,235,751,235,441" style="stroke: #000000; stroke-width: 2.0;"/><line style="stroke: #000000; stroke-width: 2.0;" x1="235" x2="305" y1="464.6094" y2="464.6094"/><text fill="#000000" font-family="sans-serif" font-size="14" font-weight="bold" lengthAdjust="spacingAndGlyphs" textLength="57" x="239" y="457.5332">Security</text><!--cluster APP_COMMS--><polygon fill="#FFFFFF" filter="url(#f1wmne5jch5w9g)" points="507,441,564,441,571,464.6094,790,464.6094,790,547,507,547,507,441" style="stroke: #000000; stroke-width: 2.0;"/><line style="stroke: #000000; stroke-width: 2.0;" x1="507" x2="571" y1="464.6094" y2="464.6094"/><text fill="#000000" font-family="sans-serif" font-size="14" font-weight="bold" lengthAdjust="spacingAndGlyphs" textLength="51" x="511" y="457.5332">Comms</text><!--cluster Couch DB--><polygon fill="#FFFFFF" filter="url(#f1wmne5jch5w9g)" points="371,1497,381,1487,658,1487,658,1581,648,1591,371,1591,371,1497" style="stroke: #000000; stroke-width: 2.0;"/><line style="stroke: #000000; stroke-width: 2.0;" x1="648" x2="657" y1="1497" y2="1488"/><line style="stroke: #000000; stroke-width: 2.0;" x1="371" x2="648" y1="1497" y2="1497"/><line style="stroke: #000000; stroke-width: 2.0;" x1="648" x2="648" y1="1497" y2="1591"/><text fill="#000000" font-family="sans-serif" font-size="14" font-weight="bold" lengthAdjust="spacingAndGlyphs" textLength="69" x="476" y="1514.5332">Couch DB</text><!--cluster Sql Server--><polygon fill="#FFFFFF" filter="url(#f1wmne5jch5w9g)" points="131,967,141,957,788,957,788,1051,778,1061,131,1061,131,967" style="stroke: #000000; stroke-width: 2.0;"/><line style="stroke: #000000; stroke-width: 2.0;" x1="778" x2="787" y1="967" y2="958"/><line style="stroke: #000000; stroke-width: 2.0;" x1="131" x2="778" y1="967" y2="967"/><line style="stroke: #000000; stroke-width: 2.0;" x1="778" x2="778" y1="967" y2="1061"/><text fill="#000000" font-family="sans-serif" font-size="14" font-weight="bold" lengthAdjust="spacingAndGlyphs" textLength="74" x="418.5" y="984.5332">Sql Server</text><!--cluster NSB--><polygon fill="#FFFFFF" filter="url(#f1wmne5jch5w9g)" points="205,1228,215,1218,902,1218,902,1303,892,1313,205,1313,205,1228" style="stroke: #000000; stroke-width: 2.0;"/><line style="stroke: #000000; stroke-width: 2.0;" x1="892" x2="901" y1="1228" y2="1219"/><line style="stroke: #000000; stroke-width: 2.0;" x1="205" x2="892" y1="1228" y2="1228"/><line style="stroke: #000000; stroke-width: 2.0;" x1="892" x2="892" y1="1228" y2="1313"/><text fill="#000000" font-family="sans-serif" font-size="14" font-weight="bold" lengthAdjust="spacingAndGlyphs" textLength="29" x="535" y="1245.5332">NSB</text><!--cluster TBD--><polygon fill="#FFFFFF" filter="url(#f1wmne5jch5w9g)" points="967,1223,1001,1223,1008,1246.6094,1071,1246.6094,1071,1313,967,1313,967,1223" style="stroke: #000000; stroke-width: 2.0;"/><line style="stroke: #000000; stroke-width: 2.0;" x1="967" x2="1008" y1="1246.6094" y2="1246.6094"/><text fill="#000000" font-family="sans-serif" font-size="14" font-weight="bold" lengthAdjust="spacingAndGlyphs" textLength="28" x="971" y="1239.5332">TBD</text><!--entity C_APP_BROWSER--><rect fill="#FEFECE" filter="url(#f1wmne5jch5w9g)" height="37.6094" style="stroke: #A80036; stroke-width: 1.5;" width="71" x="444.5" y="1931"/><rect fill="#FEFECE" height="5" style="stroke: #A80036; stroke-width: 1.5;" width="10" x="439.5" y="1936"/><rect fill="#FEFECE" height="5" style="stroke: #A80036; stroke-width: 1.5;" width="10" x="439.5" y="1958.6094"/><text fill="#000000" font-family="sans-serif" font-size="14" lengthAdjust="spacingAndGlyphs" textLength="51" x="454.5" y="1955.5332">Browser</text><!--entity C_APP_IOS--><rect fill="#FEFECE" filter="url(#f1wmne5jch5w9g)" height="37.6094" style="stroke: #A80036; stroke-width: 1.5;" width="61" x="550.5" y="1931"/><rect fill="#FEFECE" height="5" style="stroke: #A80036; stroke-width: 1.5;" width="10" x="545.5" y="1936"/><rect fill="#FEFECE" height="5" style="stroke: #A80036; stroke-width: 1.5;" width="10" x="545.5" y="1958.6094"/><text fill="#000000" font-family="sans-serif" font-size="14" lengthAdjust="spacingAndGlyphs" textLength="41" x="560.5" y="1955.5332">Offline</text><!--entity POUCH_DB--><path d="M478,1816 C478,1806 517,1806 517,1806 C517,1806 556,1806 556,1816 L556,1842.6094 C556,1852.6094 517,1852.6094 517,1852.6094 C517,1852.6094 478,1852.6094 478,1842.6094 L478,1816 " fill="#FEFECE" filter="url(#f1wmne5jch5w9g)" style="stroke: #000000; stroke-width: 1.5;"/><path d="M478,1816 C478,1826 517,1826 517,1826 C517,1826 556,1826 556,1816 " fill="none" style="stroke: #000000; stroke-width: 1.5;"/><text fill="#000000" font-family="sans-serif" font-size="14" lengthAdjust="spacingAndGlyphs" textLength="58" x="488" y="1844.5332">PouchDb</text><!--entity C_DOCUMENTLIB--><rect fill="#FEFECE" filter="url(#f1wmne5jch5w9g)" height="37.6094" style="stroke: #A80036; stroke-width: 1.5;" width="132" x="902" y="689"/><rect fill="#FEFECE" height="5" style="stroke: #A80036; stroke-width: 1.5;" width="10" x="897" y="694"/><rect fill="#FEFECE" height="5" style="stroke: #A80036; stroke-width: 1.5;" width="10" x="897" y="716.6094"/><text fill="#000000" font-family="sans-serif" font-size="14" lengthAdjust="spacingAndGlyphs" textLength="112" x="912" y="713.5332">Document Library</text><!--entity C_EVENTBRIDGE--><rect fill="#FEFECE" filter="url(#f1wmne5jch5w9g)" height="37.6094" style="stroke: #A80036; stroke-width: 1.5;" width="101" x="906.5" y="830"/><rect fill="#FEFECE" height="5" style="stroke: #A80036; stroke-width: 1.5;" width="10" x="901.5" y="835"/><rect fill="#FEFECE" height="5" style="stroke: #A80036; stroke-width: 1.5;" width="10" x="901.5" y="857.6094"/><text fill="#000000" font-family="sans-serif" font-size="14" lengthAdjust="spacingAndGlyphs" textLength="81" x="916.5" y="854.5332">Event Bridge</text><!--entity C_APP_PACK--><rect fill="#FEFECE" filter="url(#f1wmne5jch5w9g)" height="37.6094" style="stroke: #A80036; stroke-width: 1.5;" width="51" x="102.5" y="169"/><rect fill="#FEFECE" height="5" style="stroke: #A80036; stroke-width: 1.5;" width="10" x="97.5" y="174"/><rect fill="#FEFECE" height="5" style="stroke: #A80036; stroke-width: 1.5;" width="10" x="97.5" y="196.6094"/><text fill="#000000" font-family="sans-serif" font-size="14" lengthAdjust="spacingAndGlyphs" textLength="31" x="112.5" y="193.5332">Pack</text><!--entity C_APP_NAVIGATION--><rect fill="#FEFECE" filter="url(#f1wmne5jch5w9g)" height="37.6094" style="stroke: #A80036; stroke-width: 1.5;" width="86" x="189" y="169"/><rect fill="#FEFECE" height="5" style="stroke: #A80036; stroke-width: 1.5;" width="10" x="184" y="174"/><rect fill="#FEFECE" height="5" style="stroke: #A80036; stroke-width: 1.5;" width="10" x="184" y="196.6094"/><text fill="#000000" font-family="sans-serif" font-size="14" lengthAdjust="spacingAndGlyphs" textLength="66" x="199" y="193.5332">Navigation</text><!--entity C_APP_COMMUNICATION--><rect fill="#FEFECE" filter="url(#f1wmne5jch5w9g)" height="37.6094" style="stroke: #A80036; stroke-width: 1.5;" width="117" x="310.5" y="169"/><rect fill="#FEFECE" height="5" style="stroke: #A80036; stroke-width: 1.5;" width="10" x="305.5" y="174"/><rect fill="#FEFECE" height="5" style="stroke: #A80036; stroke-width: 1.5;" width="10" x="305.5" y="196.6094"/><text fill="#000000" font-family="sans-serif" font-size="14" lengthAdjust="spacingAndGlyphs" textLength="97" x="320.5" y="193.5332">Communication</text><!--entity C_APP_DECISION--><rect fill="#FEFECE" filter="url(#f1wmne5jch5w9g)" height="37.6094" style="stroke: #A80036; stroke-width: 1.5;" width="81" x="191.5" y="268"/><rect fill="#FEFECE" height="5" style="stroke: #A80036; stroke-width: 1.5;" width="10" x="186.5" y="273"/><rect fill="#FEFECE" height="5" style="stroke: #A80036; stroke-width: 1.5;" width="10" x="186.5" y="295.6094"/><text fill="#000000" font-family="sans-serif" font-size="14" lengthAdjust="spacingAndGlyphs" textLength="61" x="201.5" y="292.5332">Decisions</text><!--entity C_APP_LISTS--><rect fill="#FEFECE" filter="url(#f1wmne5jch5w9g)" height="37.6094" style="stroke: #A80036; stroke-width: 1.5;" width="49" x="121.5" y="485"/><rect fill="#FEFECE" height="5" style="stroke: #A80036; stroke-width: 1.5;" width="10" x="116.5" y="490"/><rect fill="#FEFECE" height="5" style="stroke: #A80036; stroke-width: 1.5;" width="10" x="116.5" y="512.6094"/><text fill="#000000" font-family="sans-serif" font-size="14" lengthAdjust="spacingAndGlyphs" textLength="29" x="131.5" y="509.5332">Lists</text><!--entity C_APP_USERS--><rect fill="#FEFECE" filter="url(#f1wmne5jch5w9g)" height="37.6094" style="stroke: #A80036; stroke-width: 1.5;" width="74" x="278" y="485"/><rect fill="#FEFECE" height="5" style="stroke: #A80036; stroke-width: 1.5;" width="10" x="273" y="490"/><rect fill="#FEFECE" height="5" style="stroke: #A80036; stroke-width: 1.5;" width="10" x="273" y="512.6094"/><text fill="#000000" font-family="sans-serif" font-size="14" lengthAdjust="spacingAndGlyphs" textLength="54" x="288" y="509.5332">Readers</text><!--entity C_APP_ROLES--><rect fill="#FEFECE" filter="url(#f1wmne5jch5w9g)" height="37.6094" style="stroke: #A80036; stroke-width: 1.5;" width="56" x="387" y="485"/><rect fill="#FEFECE" height="5" style="stroke: #A80036; stroke-width: 1.5;" width="10" x="382" y="490"/><rect fill="#FEFECE" height="5" style="stroke: #A80036; stroke-width: 1.5;" width="10" x="382" y="512.6094"/><text fill="#000000" font-family="sans-serif" font-size="14" lengthAdjust="spacingAndGlyphs" textLength="36" x="397" y="509.5332">Roles</text><!--entity C_APP_OPERATIONS--><rect fill="#FEFECE" filter="url(#f1wmne5jch5w9g)" height="37.6094" style="stroke: #A80036; stroke-width: 1.5;" width="90" x="279" y="689"/><rect fill="#FEFECE" height="5" style="stroke: #A80036; stroke-width: 1.5;" width="10" x="274" y="694"/><rect fill="#FEFECE" height="5" style="stroke: #A80036; stroke-width: 1.5;" width="10" x="274" y="716.6094"/><text fill="#000000" font-family="sans-serif" font-size="14" lengthAdjust="spacingAndGlyphs" textLength="70" x="289" y="713.5332">Operations</text><!--entity C_APP_NOTIFICATION--><rect fill="#FEFECE" filter="url(#f1wmne5jch5w9g)" height="37.6094" style="stroke: #A80036; stroke-width: 1.5;" width="89" x="550.5" y="485"/><rect fill="#FEFECE" height="5" style="stroke: #A80036; stroke-width: 1.5;" width="10" x="545.5" y="490"/><rect fill="#FEFECE" height="5" style="stroke: #A80036; stroke-width: 1.5;" width="10" x="545.5" y="512.6094"/><text fill="#000000" font-family="sans-serif" font-size="14" lengthAdjust="spacingAndGlyphs" textLength="69" x="560.5" y="509.5332">Notification</text><!--entity C_APP_DISTRIBUTION--><rect fill="#FEFECE" filter="url(#f1wmne5jch5w9g)" height="37.6094" style="stroke: #A80036; stroke-width: 1.5;" width="91" x="674.5" y="485"/><rect fill="#FEFECE" height="5" style="stroke: #A80036; stroke-width: 1.5;" width="10" x="669.5" y="490"/><rect fill="#FEFECE" height="5" style="stroke: #A80036; stroke-width: 1.5;" width="10" x="669.5" y="512.6094"/><text fill="#000000" font-family="sans-serif" font-size="14" lengthAdjust="spacingAndGlyphs" textLength="71" x="684.5" y="509.5332">Distribution</text><!--entity DB_USER_INBOX--><path d="M538,1538 C538,1528 590,1528 590,1528 C590,1528 642,1528 642,1538 L642,1564.6094 C642,1574.6094 590,1574.6094 590,1574.6094 C590,1574.6094 538,1574.6094 538,1564.6094 L538,1538 " fill="#FEFECE" filter="url(#f1wmne5jch5w9g)" style="stroke: #000000; stroke-width: 1.5;"/><path d="M538,1538 C538,1548 590,1548 590,1548 C590,1548 642,1548 642,1538 " fill="none" style="stroke: #000000; stroke-width: 1.5;"/><text fill="#000000" font-family="sans-serif" font-size="14" lengthAdjust="spacingAndGlyphs" textLength="84" x="548" y="1566.5332">Reader Inbox</text><!--entity DB_USER_OUTBOX--><path d="M387,1538 C387,1528 445,1528 445,1528 C445,1528 503,1528 503,1538 L503,1564.6094 C503,1574.6094 445,1574.6094 445,1574.6094 C445,1574.6094 387,1574.6094 387,1564.6094 L387,1538 " fill="#FEFECE" filter="url(#f1wmne5jch5w9g)" style="stroke: #000000; stroke-width: 1.5;"/><path d="M387,1538 C387,1548 445,1548 445,1548 C445,1548 503,1548 503,1538 " fill="none" style="stroke: #000000; stroke-width: 1.5;"/><text fill="#000000" font-family="sans-serif" font-size="14" lengthAdjust="spacingAndGlyphs" textLength="96" x="397" y="1566.5332">Reader Outbox</text><!--entity DB_PACK--><path d="M147.5,1008 C147.5,998 173,998 173,998 C173,998 198.5,998 198.5,1008 L198.5,1034.6094 C198.5,1044.6094 173,1044.6094 173,1044.6094 C173,1044.6094 147.5,1044.6094 147.5,1034.6094 L147.5,1008 " fill="#FEFECE" filter="url(#f1wmne5jch5w9g)" style="stroke: #000000; stroke-width: 1.5;"/><path d="M147.5,1008 C147.5,1018 173,1018 173,1018 C173,1018 198.5,1018 198.5,1008 " fill="none" style="stroke: #000000; stroke-width: 1.5;"/><text fill="#000000" font-family="sans-serif" font-size="14" lengthAdjust="spacingAndGlyphs" textLength="31" x="157.5" y="1036.5332">Pack</text><!--entity DB_LISTS--><path d="M359.5,1008 C359.5,998 384,998 384,998 C384,998 408.5,998 408.5,1008 L408.5,1034.6094 C408.5,1044.6094 384,1044.6094 384,1044.6094 C384,1044.6094 359.5,1044.6094 359.5,1034.6094 L359.5,1008 " fill="#FEFECE" filter="url(#f1wmne5jch5w9g)" style="stroke: #000000; stroke-width: 1.5;"/><path d="M359.5,1008 C359.5,1018 384,1018 384,1018 C384,1018 408.5,1018 408.5,1008 " fill="none" style="stroke: #000000; stroke-width: 1.5;"/><text fill="#000000" font-family="sans-serif" font-size="14" lengthAdjust="spacingAndGlyphs" textLength="29" x="369.5" y="1036.5332">Lists</text><!--entity DB_SECURITY--><path d="M443.5,1008 C443.5,998 479,998 479,998 C479,998 514.5,998 514.5,1008 L514.5,1034.6094 C514.5,1044.6094 479,1044.6094 479,1044.6094 C479,1044.6094 443.5,1044.6094 443.5,1034.6094 L443.5,1008 " fill="#FEFECE" filter="url(#f1wmne5jch5w9g)" style="stroke: #000000; stroke-width: 1.5;"/><path d="M443.5,1008 C443.5,1018 479,1018 479,1018 C479,1018 514.5,1018 514.5,1008 " fill="none" style="stroke: #000000; stroke-width: 1.5;"/><text fill="#000000" font-family="sans-serif" font-size="14" lengthAdjust="spacingAndGlyphs" textLength="51" x="453.5" y="1036.5332">Security</text><!--entity DB_NOTIFICATION--><path d="M549.5,1008 C549.5,998 594,998 594,998 C594,998 638.5,998 638.5,1008 L638.5,1034.6094 C638.5,1044.6094 594,1044.6094 594,1044.6094 C594,1044.6094 549.5,1044.6094 549.5,1034.6094 L549.5,1008 " fill="#FEFECE" filter="url(#f1wmne5jch5w9g)" style="stroke: #000000; stroke-width: 1.5;"/><path d="M549.5,1008 C549.5,1018 594,1018 594,1018 C594,1018 638.5,1018 638.5,1008 " fill="none" style="stroke: #000000; stroke-width: 1.5;"/><text fill="#000000" font-family="sans-serif" font-size="14" lengthAdjust="spacingAndGlyphs" textLength="69" x="559.5" y="1036.5332">Notification</text><!--entity DB_SUBSCRIPTION--><path d="M674,1008 C674,998 723,998 723,998 C723,998 772,998 772,1008 L772,1034.6094 C772,1044.6094 723,1044.6094 723,1044.6094 C723,1044.6094 674,1044.6094 674,1034.6094 L674,1008 " fill="#FEFECE" filter="url(#f1wmne5jch5w9g)" style="stroke: #000000; stroke-width: 1.5;"/><path d="M674,1008 C674,1018 723,1018 723,1018 C723,1018 772,1018 772,1008 " fill="none" style="stroke: #000000; stroke-width: 1.5;"/><text fill="#000000" font-family="sans-serif" font-size="14" lengthAdjust="spacingAndGlyphs" textLength="78" x="684" y="1036.5332">Subscription</text><!--entity DB_SECURABLES--><path d="M233.5,1008 C233.5,998 279,998 279,998 C279,998 324.5,998 324.5,1008 L324.5,1034.6094 C324.5,1044.6094 279,1044.6094 279,1044.6094 C279,1044.6094 233.5,1044.6094 233.5,1034.6094 L233.5,1008 " fill="#FEFECE" filter="url(#f1wmne5jch5w9g)" style="stroke: #000000; stroke-width: 1.5;"/><path d="M233.5,1008 C233.5,1018 279,1018 279,1018 C279,1018 324.5,1018 324.5,1008 " fill="none" style="stroke: #000000; stroke-width: 1.5;"/><text fill="#000000" font-family="sans-serif" font-size="14" lengthAdjust="spacingAndGlyphs" textLength="71" x="243.5" y="1036.5332">Securables</text><!--entity EP_P2S--><rect fill="#FEFECE" filter="url(#f1wmne5jch5w9g)" height="37.6094" style="stroke: #A80036; stroke-width: 1.5;" width="135" x="221.5" y="1259"/><rect fill="#FEFECE" height="5" style="stroke: #A80036; stroke-width: 1.5;" width="10" x="216.5" y="1264"/><rect fill="#FEFECE" height="5" style="stroke: #A80036; stroke-width: 1.5;" width="10" x="216.5" y="1286.6094"/><text fill="#000000" font-family="sans-serif" font-size="14" lengthAdjust="spacingAndGlyphs" textLength="115" x="231.5" y="1283.5332">Pack to Securable</text><!--entity EP_SEC_DIST--><rect fill="#FEFECE" filter="url(#f1wmne5jch5w9g)" height="37.6094" style="stroke: #A80036; stroke-width: 1.5;" width="153" x="533.5" y="1259"/><rect fill="#FEFECE" height="5" style="stroke: #A80036; stroke-width: 1.5;" width="10" x="528.5" y="1264"/><rect fill="#FEFECE" height="5" style="stroke: #A80036; stroke-width: 1.5;" width="10" x="528.5" y="1286.6094"/><text fill="#000000" font-family="sans-serif" font-size="14" lengthAdjust="spacingAndGlyphs" textLength="133" x="543.5" y="1283.5332">Securable Distributor</text><!--entity EP_COUCHBRIDGE--><rect fill="#FEFECE" filter="url(#f1wmne5jch5w9g)" height="37.6094" style="stroke: #A80036; stroke-width: 1.5;" width="106" x="392" y="1259"/><rect fill="#FEFECE" height="5" style="stroke: #A80036; stroke-width: 1.5;" width="10" x="387" y="1264"/><rect fill="#FEFECE" height="5" style="stroke: #A80036; stroke-width: 1.5;" width="10" x="387" y="1286.6094"/><text fill="#000000" font-family="sans-serif" font-size="14" lengthAdjust="spacingAndGlyphs" textLength="86" x="402" y="1283.5332">Couch Bridge</text><!--entity EP_EVENTPUBLISHER--><rect fill="#FEFECE" filter="url(#f1wmne5jch5w9g)" height="37.6094" style="stroke: #A80036; stroke-width: 1.5;" width="164" x="722" y="1259"/><rect fill="#FEFECE" height="5" style="stroke: #A80036; stroke-width: 1.5;" width="10" x="717" y="1264"/><rect fill="#FEFECE" height="5" style="stroke: #A80036; stroke-width: 1.5;" width="10" x="717" y="1286.6094"/><text fill="#000000" font-family="sans-serif" font-size="14" lengthAdjust="spacingAndGlyphs" textLength="144" x="732" y="1283.5332">Event Publisher Bridge</text><!--entity MYSTERY--><rect fill="#FEFECE" filter="url(#f1wmne5jch5w9g)" height="37.6094" style="stroke: #A80036; stroke-width: 1.5;" width="71" x="983.5" y="1259"/><rect fill="#FEFECE" height="5" style="stroke: #A80036; stroke-width: 1.5;" width="10" x="978.5" y="1264"/><rect fill="#FEFECE" height="5" style="stroke: #A80036; stroke-width: 1.5;" width="10" x="978.5" y="1286.6094"/><text fill="#000000" font-family="sans-serif" font-size="14" lengthAdjust="spacingAndGlyphs" textLength="51" x="993.5" y="1283.5332">Process</text><!--link APP_PACK to APP_META--><path d="M471.0139,245.6489 C471.0245,245.898 471.0348,246.1476 471.0447,246.3976 C471.0844,247.3975 471.1188,248.4039 471.1474,249.4163 C472.0628,281.81 467.099,320.245 444,346 C340.702,461.16 214.937,316.16 105,425 C101.9296,428.04 99.3242,431.4875 97.1162,435.1992 C96.0123,437.0551 95.0076,438.977 94.0939,440.9471 " fill="none" id="APP_PACK-APP_META" style="stroke: #A80036; stroke-width: 1.0; stroke-dasharray: 7.0,7.0;"/><polygon fill="#A80036" points="94.0939,440.9471,101.5094,434.4656,96.1976,436.4112,94.252,431.0995,94.0939,440.9471" style="stroke: #A80036; stroke-width: 1.0;"/><!--link APP_PACK to APP_SECURITY--><path d="M471.0465,209.5512 C471.2045,209.9928 471.3639,210.4405 471.5245,210.8941 C472.1671,212.7085 472.8296,214.6177 473.5059,216.615 C478.9168,232.5931 485.2143,254.2025 489.282,277.9075 C497.4175,325.3175 496.634,381.11 462,417 C446.556,433 279.21,410.91 262,425 C258.6565,427.7363 255.8441,430.9536 253.4833,434.4954 C252.3029,436.2663 251.2354,438.1183 250.2708,440.0318 C250.1502,440.271 250.0312,440.5112 249.9139,440.7523 " fill="none" id="APP_PACK-APP_SECURITY" style="stroke: #A80036; stroke-width: 1.0; stroke-dasharray: 7.0,7.0;"/><polygon fill="#A80036" points="249.9139,440.7523,257.45,434.4115,252.1026,436.2568,250.2573,430.9094,249.9139,440.7523" style="stroke: #A80036; stroke-width: 1.0;"/><!--link APP_PACK to APP_COMMS--><path d="M471.0641,196.6647 C471.1148,196.7162 471.1656,196.7679 471.2166,196.8199 C471.3185,196.9237 471.4211,197.0285 471.5244,197.1341 C471.9372,197.5567 472.3598,197.9933 472.7908,198.4434 C474.5151,200.2437 476.3755,202.26 478.2931,204.455 C485.9635,213.235 494.549,224.875 499,237 C519.0865,291.725 523.2763,357.0175 522.3518,409.2188 C522.2362,415.7439 522.0407,422.0645 521.7864,428.1344 C521.6592,431.1693 521.5174,434.1415 521.3634,437.0453 C521.3249,437.7712 521.2857,438.4929 521.2457,439.2102 C521.2257,439.5688 521.2056,439.9264 521.1852,440.2828 " fill="none" id="APP_PACK-APP_COMMS" style="stroke: #A80036; stroke-width: 1.0; stroke-dasharray: 7.0,7.0;"/><polygon fill="#A80036" points="521.1852,440.2828,525.6912,431.5252,521.47,435.2909,517.7042,431.0697,521.1852,440.2828" style="stroke: #A80036; stroke-width: 1.0;"/><!--link APP_PACK to MYSTERY--><path d="M471.1957,189.3078 C471.5094,189.3202 471.8317,189.3329 472.1625,189.346 C477.4547,189.5558 484.9206,189.8621 494.2468,190.2714 C512.8992,191.0902 538.9929,192.3214 570.021,194.0172 C632.0772,197.4087 713.8714,202.6587 795.3498,210.185 C958.3065,225.2375 1120,249.395 1120,286 C1120,286 1120,286 1120,1171 C1120,1210.4 1082.97,1240.947 1053.76,1258.919 " fill="none" id="APP_PACK-MYSTERY" style="stroke: #A80036; stroke-width: 1.0; stroke-dasharray: 7.0,7.0;"/><polygon fill="#A80036" points="471.1957,189.3078,480.0313,193.6589,476.1919,189.5046,480.3462,185.6651,471.1957,189.3078" style="stroke: #A80036; stroke-width: 1.0;"/><!--link SP to MYSTERY--><path d="M1083,916.9536 C1083,917.4043 1083,917.8579 1083,918.3145 C1083,919.2277 1083,920.1527 1083,921.0897 C1083,922.9638 1083,924.886 1083,926.8574 C1083,942.6289 1083,961.5547 1083,984.2656 C1083,1029.6875 1083,1090.25 1083,1171 C1083,1205.825 1057.37,1239.023 1038.55,1258.707 " fill="none" id="SP-MYSTERY" style="stroke: #A80036; stroke-width: 1.0; stroke-dasharray: 7.0,7.0;"/><polygon fill="#A80036" points="1083,916.9536,1079,925.9536,1083,921.9536,1087,925.9536,1083,916.9536" style="stroke: #A80036; stroke-width: 1.0;"/><!--link C_DOCUMENTLIB to C_EVENTBRIDGE--><path d="M966.562,727.17 C964.586,752.15 961.028,797.1 958.854,824.57 " fill="none" id="C_DOCUMENTLIB-C_EVENTBRIDGE" style="stroke: #A80036; stroke-width: 1.0;"/><polygon fill="#A80036" points="958.438,829.82,963.1451,821.1688,958.838,824.836,955.1708,820.5289,958.438,829.82" style="stroke: #A80036; stroke-width: 1.0;"/><!--link POUCH_DB to C_APP_BROWSER--><path d="M506.58,1857.982 C503.668,1866.002 500.594,1874.812 498,1883 C492.907,1899.078 487.926,1917.626 484.5,1930.9573 " fill="none" id="POUCH_DB-C_APP_BROWSER" style="stroke: #A80036; stroke-width: 1.0;"/><polygon fill="#A80036" points="508.366,1853.104,501.5157,1860.1803,506.6471,1857.7992,509.0281,1862.9306,508.366,1853.104" style="stroke: #A80036; stroke-width: 1.0;"/><text fill="#000000" font-family="sans-serif" font-size="13" lengthAdjust="spacingAndGlyphs" textLength="30" x="499" y="1897.4951">Uses</text><!--link POUCH_DB to C_APP_IOS--><path d="M531.696,1857.71 C543.8,1880.123 560.629,1911.282 571.162,1930.7845 " fill="none" id="POUCH_DB-C_APP_IOS" style="stroke: #A80036; stroke-width: 1.0;"/><polygon fill="#A80036" points="529.189,1853.068,529.9466,1862.8877,531.5651,1857.4673,536.9855,1859.0859,529.189,1853.068" style="stroke: #A80036; stroke-width: 1.0;"/><text fill="#000000" font-family="sans-serif" font-size="13" lengthAdjust="spacingAndGlyphs" textLength="30" x="556" y="1897.4951">Uses</text><!--link DB_USER_INBOX to POUCH_DB--><path d="M582.682,1580.166 C568.672,1633.138 538.212,1748.302 524.252,1801.08 " fill="none" id="DB_USER_INBOX-POUCH_DB" style="stroke: #A80036; stroke-width: 1.0;"/><polygon fill="#A80036" points="522.954,1805.989,529.1228,1798.3114,524.2328,1801.1553,521.3889,1796.2653,522.954,1805.989" style="stroke: #A80036; stroke-width: 1.0;"/><polygon fill="#A80036" points="584.026,1575.086,577.8572,1582.7636,582.7472,1579.9197,585.5911,1584.8097,584.026,1575.086" style="stroke: #A80036; stroke-width: 1.0;"/><text fill="#000000" font-family="sans-serif" font-size="13" lengthAdjust="spacingAndGlyphs" textLength="61" x="561" y="1683.4951">Replicates</text><!--link DB_USER_OUTBOX to POUCH_DB--><path d="M449.973,1580.275 C455.055,1607.598 463.528,1650.417 473,1687 C483.363,1727.023 498.054,1772.558 507.556,1800.913 " fill="none" id="DB_USER_OUTBOX-POUCH_DB" style="stroke: #A80036; stroke-width: 1.0;"/><polygon fill="#A80036" points="509.151,1805.657,510.0749,1795.8516,507.5579,1800.9176,502.4918,1798.4006,509.151,1805.657" style="stroke: #A80036; stroke-width: 1.0;"/><polygon fill="#A80036" points="449.003,1575.023,446.7054,1584.6001,449.9118,1579.9397,454.5721,1583.1461,449.003,1575.023" style="stroke: #A80036; stroke-width: 1.0;"/><text fill="#000000" font-family="sans-serif" font-size="13" lengthAdjust="spacingAndGlyphs" textLength="61" x="474" y="1683.4951">Replicates</text><!--link EP_COUCHBRIDGE to DB_USER_INBOX--><path d="M457.104,1301.664 C483.622,1351.316 546.757,1469.532 575.41,1523.181 " fill="none" id="EP_COUCHBRIDGE-DB_USER_INBOX" style="stroke: #A80036; stroke-width: 1.0;"/><polygon fill="#A80036" points="577.908,1527.859,577.1957,1518.0359,575.5522,1523.4488,570.1393,1521.8053,577.908,1527.859" style="stroke: #A80036; stroke-width: 1.0;"/><polygon fill="#A80036" points="454.739,1297.235,455.4513,1307.0581,457.0948,1301.6452,462.5077,1303.2887,454.739,1297.235" style="stroke: #A80036; stroke-width: 1.0;"/><text fill="#000000" font-family="sans-serif" font-size="13" lengthAdjust="spacingAndGlyphs" textLength="42" x="516" y="1405.4951">Listens</text><!--link EP_COUCHBRIDGE to DB_USER_OUTBOX--><path d="M445,1302.285 C445,1352.1 445,1468.838 445,1522.553 " fill="none" id="EP_COUCHBRIDGE-DB_USER_OUTBOX" style="stroke: #A80036; stroke-width: 1.0;"/><polygon fill="#A80036" points="445,1527.859,449,1518.859,445,1522.859,441,1518.859,445,1527.859" style="stroke: #A80036; stroke-width: 1.0;"/><polygon fill="#A80036" points="445,1297.235,441,1306.235,445,1302.235,449,1306.235,445,1297.235" style="stroke: #A80036; stroke-width: 1.0;"/><text fill="#000000" font-family="sans-serif" font-size="13" lengthAdjust="spacingAndGlyphs" textLength="42" x="446" y="1405.4951">Listens</text><!--link EP_COUCHBRIDGE to MYSTERY--><path d="M457.281,1258.981 C472.303,1237.668 499.925,1204.296 533.5,1190.5 C569.574,1175.678 847.111,1179.408 884.5,1190.5 C927.089,1203.134 968.809,1233.981 994.217,1255.448 " fill="none" id="EP_COUCHBRIDGE-MYSTERY" style="stroke: #A80036; stroke-width: 1.0; stroke-dasharray: 7.0,7.0;"/><polygon fill="#A80036" points="998.152,1258.809,993.9067,1249.9221,994.3502,1255.5615,988.7107,1256.005,998.152,1258.809" style="stroke: #A80036; stroke-width: 1.0;"/><!--link C_EVENTBRIDGE to EP_EVENTPUBLISHER--><path d="M942.893,868.26 C921.167,898.28 882,960.67 882,1020.5 C882,1020.5 882,1020.5 882,1171 C882,1205.558 854.773,1236.282 832.491,1255.639 " fill="none" id="C_EVENTBRIDGE-EP_EVENTPUBLISHER" style="stroke: #A80036; stroke-width: 1.0; stroke-dasharray: 7.0,7.0;"/><polygon fill="#A80036" points="828.68,1258.883,838.1258,1256.0942,832.4871,1255.6416,832.9396,1250.0029,828.68,1258.883" style="stroke: #A80036; stroke-width: 1.0;"/><!--link EP_EVENTPUBLISHER to MYSTERY--><path d="M886.305,1278 C916.929,1278 947.554,1278 978.179,1278 " fill="none" id="EP_EVENTPUBLISHER-MYSTERY" style="stroke: #A80036; stroke-width: 1.0; stroke-dasharray: 7.0,7.0;"/><polygon fill="#A80036" points="983.494,1278,974.494,1274,978.494,1278,974.494,1282,983.494,1278" style="stroke: #A80036; stroke-width: 1.0;"/><!--link C_APP_PACK to DB_PACK--><path d="M102.4599,205.75 C79.7118,222.91 50,251.86 50,286 C50,286 50,286 50,850 C50,913.31 106.464,969.1 142.879,998.5 " fill="none" id="C_APP_PACK-DB_PACK" style="stroke: #A80036; stroke-width: 1.0;"/><polygon fill="#A80036" points="147.215,1001.95,142.6626,993.2164,143.3023,998.837,137.6817,999.4767,147.215,1001.95" style="stroke: #A80036; stroke-width: 1.0;"/><!--link C_APP_LISTS to DB_LISTS--><path d="M145.615,523.33 C145.29,589.49 153.564,817.99 278,932 C299.7,951.88 318.564,931.2 342,949 C356.752,960.21 367.286,978.21 374.115,993.35 " fill="none" id="C_APP_LISTS-DB_LISTS" style="stroke: #A80036; stroke-width: 1.0;"/><polygon fill="#A80036" points="376.116,997.95,376.2092,988.1016,374.1286,993.3619,368.8683,991.2814,376.116,997.95" style="stroke: #A80036; stroke-width: 1.0;"/><!--link APP_SECURITY to DB_SECURITY--><path d="M234.999,563.4195 C234.8631,564.8836 234.7296,566.3683 234.5992,567.8729 C233.5558,579.9091 232.7041,593.2131 232.2735,607.365 C230.5513,663.9725 235.567,734.145 262,791 C304.669,882.78 359.189,872.97 426,949 C438.386,963.1 450.947,979.91 460.73,993.69 " fill="none" id="APP_SECURITY-DB_SECURITY" style="stroke: #A80036; stroke-width: 1.0;"/><polygon fill="#A80036" points="463.674,997.86,461.7491,988.2011,460.7895,993.776,455.2146,992.8163,463.674,997.86" style="stroke: #A80036; stroke-width: 1.0;"/><!--link C_APP_NOTIFICATION to DB_NOTIFICATION--><path d="M594.965,523.04 C594.816,599.82 594.234,899.65 594.054,992.76 " fill="none" id="C_APP_NOTIFICATION-DB_NOTIFICATION" style="stroke: #A80036; stroke-width: 1.0;"/><polygon fill="#A80036" points="594.044,997.82,598.0697,988.8315,594.0583,992.82,590.0697,988.8086,594.044,997.82" style="stroke: #A80036; stroke-width: 1.0;"/><!--link C_APP_DISTRIBUTION to DB_SUBSCRIPTION--><path d="M720.105,523.04 C720.552,599.82 722.297,899.65 722.839,992.76 " fill="none" id="C_APP_DISTRIBUTION-DB_SUBSCRIPTION" style="stroke: #A80036; stroke-width: 1.0;"/><polygon fill="#A80036" points="722.868,997.82,726.8165,988.7973,722.8394,992.8201,718.8166,988.843,722.868,997.82" style="stroke: #A80036; stroke-width: 1.0;"/><!--link DB_PACK to EP_P2S--><path d="M183.294,1045.085 C205.273,1093.306 256.578,1205.866 278.627,1254.241 " fill="none" id="DB_PACK-EP_P2S" style="stroke: #A80036; stroke-width: 1.0;"/><polygon fill="#A80036" points="280.793,1258.993,280.7019,1249.1446,278.7201,1254.4429,273.4217,1252.4612,280.793,1258.993" style="stroke: #A80036; stroke-width: 1.0;"/><!--link EP_P2S to DB_SECURABLES--><path d="M288.292,1258.993 C286.571,1215.178 282.154,1102.765 280.091,1050.276 " fill="none" id="EP_P2S-DB_SECURABLES" style="stroke: #A80036; stroke-width: 1.0;"/><polygon fill="#A80036" points="279.887,1045.085,276.2424,1054.2347,280.0827,1050.0812,284.2363,1053.9215,279.887,1045.085" style="stroke: #A80036; stroke-width: 1.0;"/><!--link DB_SECURABLES to EP_SEC_DIST--><path d="M308.374,1045.085 C371.723,1093.793 520.45,1208.147 582.281,1255.687 " fill="none" id="DB_SECURABLES-EP_SEC_DIST" style="stroke: #A80036; stroke-width: 1.0;"/><polygon fill="#A80036" points="586.58,1258.993,581.8821,1250.3368,582.6158,1255.9459,577.0067,1256.6796,586.58,1258.993" style="stroke: #A80036; stroke-width: 1.0;"/><!--link EP_SEC_DIST to DB_USER_INBOX--><path d="M608.657,1297.235 C605.229,1343.768 596.14,1467.147 592.048,1522.7 " fill="none" id="EP_SEC_DIST-DB_USER_INBOX" style="stroke: #A80036; stroke-width: 1.0;"/><polygon fill="#A80036" points="591.668,1527.859,596.318,1519.177,592.0351,1522.8725,588.3396,1518.5896,591.668,1527.859" style="stroke: #A80036; stroke-width: 1.0;"/><!--link C_APP_NAVIGATION to C_APP_COMMUNICATION--><!--link C_APP_NAVIGATION to C_APP_DECISION--><!--link C_APP_USERS to C_APP_ROLES--><!--link C_APP_USERS to C_APP_OPERATIONS--><!--
@startuml

cloud "DSuite" {

    node "Viewer" {

        component [Browser] as C_APP_BROWSER

        component [Offline] as C_APP_IOS

        database "PouchDb" as POUCH_DB 
    }

    node "SharePoint" as SP {
        folder "Site" {
            component [Document Library] as C_DOCUMENTLIB
            component [Event Bridge] as C_EVENTBRIDGE
        }

       
    }

    node "Administration" {

        folder "Pack"  as APP_PACK {
            component [Pack] as C_APP_PACK
            component [Navigation] as C_APP_NAVIGATION
            component [Communication] as C_APP_COMMUNICATION
            component [Decisions] as C_APP_DECISION
        }

        folder "MetaData" as APP_META {
            component [Lists] as C_APP_LISTS
        }

        folder "Security"  as APP_SECURITY {
            component [Readers] as C_APP_USERS
            component [Roles] as C_APP_ROLES
            component [Operations] as C_APP_OPERATIONS
        }

        folder "Comms" as APP_COMMS {
            component [Notification] as C_APP_NOTIFICATION
            component [Distribution] as C_APP_DISTRIBUTION
        }

    }

    node "Couch DB" {
        database "Reader Inbox" as DB_USER_INBOX
        database "Reader Outbox" as DB_USER_OUTBOX
    } 

    node "Sql Server" {

        database "Pack" as DB_PACK
        database "Lists" as DB_LISTS
        database "Security" as DB_SECURITY

        database "Notification" as DB_NOTIFICATION
        database "Subscription" as DB_SUBSCRIPTION
        database "Securables" as DB_SECURABLES
    }


    node "NSB" {
        component [Pack to Securable] as EP_P2S
        component [Securable Distributor] as EP_SEC_DIST
        component [Couch Bridge] as EP_COUCHBRIDGE
        component [Event Publisher Bridge] as EP_EVENTPUBLISHER

    }


    folder "TBD" as TBD {

        component [Process] as MYSTERY

    }
}

APP_PACK ..down..> APP_META
APP_PACK ..down..> APP_SECURITY 
APP_PACK ..down..> APP_COMMS 

MYSTERY ..up..> APP_PACK
MYSTERY ..up..> SP

C_DOCUMENTLIB -down-> C_EVENTBRIDGE

C_APP_BROWSER -up-> POUCH_DB: Uses
C_APP_IOS -up-> POUCH_DB: Uses

POUCH_DB <- -up- -> DB_USER_INBOX: Replicates
POUCH_DB <- -up- -> DB_USER_OUTBOX: Replicates

EP_COUCHBRIDGE <- -down- -> DB_USER_INBOX: Listens
EP_COUCHBRIDGE <- -down- -> DB_USER_OUTBOX: Listens

EP_COUCHBRIDGE ..right..> MYSTERY
C_EVENTBRIDGE .....>  EP_EVENTPUBLISHER

EP_EVENTPUBLISHER ..right..> MYSTERY

C_APP_PACK - -down- -> DB_PACK
C_APP_LISTS - -down- -> DB_LISTS

APP_SECURITY - -down- -> DB_SECURITY

C_APP_NOTIFICATION - -down- -> DB_NOTIFICATION
C_APP_DISTRIBUTION - -down- -> DB_SUBSCRIPTION

DB_PACK - -down- -> EP_P2S
EP_P2S - -> DB_SECURABLES

DB_SECURABLES - -down- -> EP_SEC_DIST
EP_SEC_DIST - -> DB_USER_INBOX

@enduml

PlantUML version 1.2017.19(Sun Nov 12 22:46:22 AEDT 2017)
(GPL source distribution)
Java Runtime: Java(TM) SE Runtime Environment
JVM: Java HotSpot(TM) 64-Bit Server VM
Java Version: 1.8.0_151-b12
Operating System: Windows Server 2012 R2
OS Version: 6.3
Default Encoding: UTF-8
Language: en
Country: US
--></g></svg>