<?xml version="1.0" encoding="UTF-8" standalone="no"?><svg xmlns="http://www.w3.org/2000/svg" xmlns:xlink="http://www.w3.org/1999/xlink" contentScriptType="application/ecmascript" contentStyleType="text/css" height="349px" preserveAspectRatio="none" style="width:266px;height:349px;" version="1.1" viewBox="0 0 266 349" width="266px" zoomAndPan="magnify"><defs><filter height="300%" id="f1pke2r5wikc7j" width="300%" x="-1" y="-1"><feGaussianBlur result="blurOut" stdDeviation="2.0"/><feColorMatrix in="blurOut" result="blurOut2" type="matrix" values="0 0 0 0 0 0 0 0 0 0 0 0 0 0 0 0 0 0 .4 0"/><feOffset dx="4.0" dy="4.0" in="blurOut2" result="blurOut3"/><feBlend in="SourceGraphic" in2="blurOut3" mode="normal"/></filter></defs><g><text fill="#000000" font-family="sans-serif" font-size="14" font-weight="bold" lengthAdjust="spacingAndGlyphs" textLength="77" x="93.75" y="24.5332">Hello Gulp!</text><line style="stroke: #A80036; stroke-width: 1.0; stroke-dasharray: 5.0,5.0;" x1="27" x2="27" y1="119.2188" y2="260.625"/><line style="stroke: #A80036; stroke-width: 1.0; stroke-dasharray: 5.0,5.0;" x1="240.5" x2="240.5" y1="119.2188" y2="260.625"/><text fill="#000000" font-family="sans-serif" font-size="14" lengthAdjust="spacingAndGlyphs" textLength="32" x="8" y="116.1426">Greg</text><ellipse cx="27" cy="44.6094" fill="#FEFECE" filter="url(#f1pke2r5wikc7j)" rx="8" ry="8" style="stroke: #A80036; stroke-width: 2.0;"/><path d="M27,52.6094 L27,79.6094 M14,60.6094 L40,60.6094 M27,79.6094 L14,94.6094 M27,79.6094 L40,94.6094 " fill="#FEFECE" filter="url(#f1pke2r5wikc7j)" style="stroke: #A80036; stroke-width: 2.0;"/><text fill="#000000" font-family="sans-serif" font-size="14" lengthAdjust="spacingAndGlyphs" textLength="32" x="8" y="274.1582">Greg</text><ellipse cx="27" cy="287.2344" fill="#FEFECE" filter="url(#f1pke2r5wikc7j)" rx="8" ry="8" style="stroke: #A80036; stroke-width: 2.0;"/><path d="M27,295.2344 L27,322.2344 M14,303.2344 L40,303.2344 M27,322.2344 L14,337.2344 M27,322.2344 L40,337.2344 " fill="#FEFECE" filter="url(#f1pke2r5wikc7j)" style="stroke: #A80036; stroke-width: 2.0;"/><text fill="#000000" font-family="sans-serif" font-size="14" lengthAdjust="spacingAndGlyphs" textLength="25" x="225.5" y="116.1426">Bob</text><ellipse cx="241" cy="44.6094" fill="#FEFECE" filter="url(#f1pke2r5wikc7j)" rx="8" ry="8" style="stroke: #A80036; stroke-width: 2.0;"/><path d="M241,52.6094 L241,79.6094 M228,60.6094 L254,60.6094 M241,79.6094 L228,94.6094 M241,79.6094 L254,94.6094 " fill="#FEFECE" filter="url(#f1pke2r5wikc7j)" style="stroke: #A80036; stroke-width: 2.0;"/><text fill="#000000" font-family="sans-serif" font-size="14" lengthAdjust="spacingAndGlyphs" textLength="25" x="225.5" y="274.1582">Bob</text><ellipse cx="241" cy="287.2344" fill="#FEFECE" filter="url(#f1pke2r5wikc7j)" rx="8" ry="8" style="stroke: #A80036; stroke-width: 2.0;"/><path d="M241,295.2344 L241,322.2344 M228,303.2344 L254,303.2344 M241,322.2344 L228,337.2344 M241,322.2344 L254,337.2344 " fill="#FEFECE" filter="url(#f1pke2r5wikc7j)" style="stroke: #A80036; stroke-width: 2.0;"/><polygon fill="#A80036" points="229,147.2188,239,151.2188,229,155.2188,233,151.2188" style="stroke: #A80036; stroke-width: 1.0;"/><line style="stroke: #A80036; stroke-width: 1.0;" x1="27" x2="235" y1="151.2188" y2="151.2188"/><text fill="#000000" font-family="sans-serif" font-size="13" lengthAdjust="spacingAndGlyphs" textLength="135" x="34" y="146.7139">Authentication Request</text><polygon fill="#A80036" points="38,177.5703,28,181.5703,38,185.5703,34,181.5703" style="stroke: #A80036; stroke-width: 1.0;"/><line style="stroke: #A80036; stroke-width: 1.0; stroke-dasharray: 2.0,2.0;" x1="32" x2="240" y1="181.5703" y2="181.5703"/><text fill="#000000" font-family="sans-serif" font-size="13" lengthAdjust="spacingAndGlyphs" textLength="145" x="44" y="177.0654">Authentication Response</text><polygon fill="#A80036" points="229,207.9219,239,211.9219,229,215.9219,233,211.9219" style="stroke: #A80036; stroke-width: 1.0;"/><line style="stroke: #A80036; stroke-width: 1.0;" x1="27" x2="235" y1="211.9219" y2="211.9219"/><text fill="#000000" font-family="sans-serif" font-size="13" lengthAdjust="spacingAndGlyphs" textLength="182" x="34" y="207.417">Another authentication Request</text><polygon fill="#A80036" points="38,238.2734,28,242.2734,38,246.2734,34,242.2734" style="stroke: #A80036; stroke-width: 1.0;"/><line style="stroke: #A80036; stroke-width: 1.0; stroke-dasharray: 2.0,2.0;" x1="32" x2="240" y1="242.2734" y2="242.2734"/><text fill="#000000" font-family="sans-serif" font-size="13" lengthAdjust="spacingAndGlyphs" textLength="190" x="44" y="237.7686">another authentication Response</text><!--
@startuml
title Hello Gulp!
actor Greg
actor Bob

Greg -> Bob: Authentication Request
Bob - -> Greg: Authentication Response

Greg -> Bob: Another authentication Request
Greg <- - Bob: another authentication Response

@enduml

PlantUML version 1.2017.19(Sun Nov 12 22:46:22 AEDT 2017)
(GPL source distribution)
Java Runtime: Java(TM) SE Runtime Environment
JVM: Java HotSpot(TM) 64-Bit Server VM
Java Version: 1.8.0_151-b12
Operating System: Windows Server 2012 R2
OS Version: 6.3
Default Encoding: UTF-8
Language: en
Country: US
--></g></svg>