<?xml version="1.0" encoding="UTF-8" standalone="no"?><svg xmlns="http://www.w3.org/2000/svg" xmlns:xlink="http://www.w3.org/1999/xlink" contentScriptType="application/ecmascript" contentStyleType="text/css" height="288px" preserveAspectRatio="none" style="width:421px;height:288px;" version="1.1" viewBox="0 0 421 288" width="421px" zoomAndPan="magnify"><defs><filter height="300%" id="f1ohltjk62l7c6" width="300%" x="-1" y="-1"><feGaussianBlur result="blurOut" stdDeviation="2.0"/><feColorMatrix in="blurOut" result="blurOut2" type="matrix" values="0 0 0 0 0 0 0 0 0 0 0 0 0 0 0 0 0 0 .4 0"/><feOffset dx="4.0" dy="4.0" in="blurOut2" result="blurOut3"/><feBlend in="SourceGraphic" in2="blurOut3" mode="normal"/></filter></defs><g><text fill="#000000" font-family="sans-serif" font-size="18" lengthAdjust="spacingAndGlyphs" textLength="95" x="167" y="18.6855">Deployment</text><!--entity P_VIP--><ellipse cx="263.5" cy="40.6406" fill="#FEFECE" filter="url(#f1ohltjk62l7c6)" rx="8" ry="8" style="stroke: #A80036; stroke-width: 2.0;"/><path d="M263.5,48.6406 L263.5,75.6406 M250.5,56.6406 L276.5,56.6406 M263.5,75.6406 L250.5,90.6406 M263.5,75.6406 L276.5,90.6406 " fill="#FEFECE" filter="url(#f1ohltjk62l7c6)" style="stroke: #A80036; stroke-width: 2.0;"/><text fill="#000000" font-family="sans-serif" font-size="14" lengthAdjust="spacingAndGlyphs" textLength="21" x="253" y="112.1738">VIP</text><!--entity P_PMO--><ellipse cx="21.5" cy="40.6406" fill="#FEFECE" filter="url(#f1ohltjk62l7c6)" rx="8" ry="8" style="stroke: #A80036; stroke-width: 2.0;"/><path d="M21.5,48.6406 L21.5,75.6406 M8.5,56.6406 L34.5,56.6406 M21.5,75.6406 L8.5,90.6406 M21.5,75.6406 L34.5,90.6406 " fill="#FEFECE" filter="url(#f1ohltjk62l7c6)" style="stroke: #A80036; stroke-width: 2.0;"/><text fill="#000000" font-family="sans-serif" font-size="14" lengthAdjust="spacingAndGlyphs" textLength="31" x="6" y="112.1738">PMO</text><!--entity S_DIGITAL_SUITE--><rect fill="#FEFECE" filter="url(#f1ohltjk62l7c6)" height="55.2188" style="stroke: #A80036; stroke-width: 1.5;" width="141" x="72" y="45.6406"/><rect fill="#FEFECE" height="5" style="stroke: #A80036; stroke-width: 1.5;" width="10" x="67" y="50.6406"/><rect fill="#FEFECE" height="5" style="stroke: #A80036; stroke-width: 1.5;" width="10" x="67" y="90.8594"/><text fill="#000000" font-family="sans-serif" font-size="14" font-style="italic" lengthAdjust="spacingAndGlyphs" textLength="121" x="82" y="70.1738">«Software System»</text><text fill="#000000" font-family="sans-serif" font-size="14" lengthAdjust="spacingAndGlyphs" textLength="75" x="105" y="87.7832">Digital Suite</text><!--entity A1--><ellipse cx="263.5" cy="203.6406" fill="#FEFECE" filter="url(#f1ohltjk62l7c6)" rx="8" ry="8" style="stroke: #A80036; stroke-width: 2.0;"/><path d="M263.5,211.6406 L263.5,238.6406 M250.5,219.6406 L276.5,219.6406 M263.5,238.6406 L250.5,253.6406 M263.5,238.6406 L276.5,253.6406 " fill="#FEFECE" filter="url(#f1ohltjk62l7c6)" style="stroke: #A80036; stroke-width: 2.0;"/><text fill="#000000" font-family="sans-serif" font-size="14" lengthAdjust="spacingAndGlyphs" textLength="17" x="255" y="275.1738">A1</text><!--link P_VIP to A1--><path d="M263.5,116.0216 C263.5,138.1956 263.5,165.4946 263.5,188.3615 " fill="none" id="P_VIP-A1" style="stroke: #A80036; stroke-width: 1.0;"/><polygon fill="#A80036" points="263.5,193.4697,267.5,184.4697,263.5,188.4697,259.5,184.4697,263.5,193.4697" style="stroke: #A80036; stroke-width: 1.0;"/><text fill="#000000" font-family="sans-serif" font-size="13" lengthAdjust="spacingAndGlyphs" textLength="145" x="264.5" y="160.1357">Authentication Response</text><!--link P_PMO to S_DIGITAL_SUITE--><path d="M37.0977,73.1406 C46.9148,73.1406 56.7319,73.1406 66.5491,73.1406 " fill="none" id="P_PMO-S_DIGITAL_SUITE" style="stroke: #A80036; stroke-width: 1.0; stroke-dasharray: 7.0,7.0;"/><polygon fill="#A80036" points="71.6828,73.1406,62.6828,69.1406,66.6828,73.1406,62.6828,77.1406,71.6828,73.1406" style="stroke: #A80036; stroke-width: 1.0;"/><!--
@startuml
title Deployment
actor "VIP"  as P_VIP 
actor "PMO"  as P_PMO 

[Digital Suite] <<Software System>>  as S_DIGITAL_SUITE 

P_VIP - -> A1: Authentication Response
P_PMO .right..> S_DIGITAL_SUITE

@enduml

PlantUML version 1.2017.19(Sun Nov 12 22:46:22 AEDT 2017)
(GPL source distribution)
Java Runtime: Java(TM) SE Runtime Environment
JVM: Java HotSpot(TM) 64-Bit Server VM
Java Version: 1.8.0_151-b12
Operating System: Windows Server 2012 R2
OS Version: 6.3
Default Encoding: UTF-8
Language: en
Country: US
--></g></svg>