<?xml version="1.0" encoding="UTF-8" standalone="no"?><svg xmlns="http://www.w3.org/2000/svg" xmlns:xlink="http://www.w3.org/1999/xlink" contentScriptType="application/ecmascript" contentStyleType="text/css" height="872px" preserveAspectRatio="none" style="width:523px;height:872px;" version="1.1" viewBox="0 0 523 872" width="523px" zoomAndPan="magnify"><defs><filter height="300%" id="f1efjrnvsstku9" width="300%" x="-1" y="-1"><feGaussianBlur result="blurOut" stdDeviation="2.0"/><feColorMatrix in="blurOut" result="blurOut2" type="matrix" values="0 0 0 0 0 0 0 0 0 0 0 0 0 0 0 0 0 0 .4 0"/><feOffset dx="4.0" dy="4.0" in="blurOut2" result="blurOut3"/><feBlend in="SourceGraphic" in2="blurOut3" mode="normal"/></filter></defs><g><text fill="#000000" font-family="sans-serif" font-size="18" lengthAdjust="spacingAndGlyphs" textLength="53" x="241" y="18.6855">Mobile</text><!--cluster iPad--><polygon fill="#FFFFFF" filter="url(#f1efjrnvsstku9)" points="22,207.1406,32,197.1406,192,197.1406,192,546.1406,182,556.1406,22,556.1406,22,207.1406" style="stroke: #000000; stroke-width: 2.0;"/><line style="stroke: #000000; stroke-width: 2.0;" x1="182" x2="191" y1="207.1406" y2="198.1406"/><line style="stroke: #000000; stroke-width: 2.0;" x1="22" x2="182" y1="207.1406" y2="207.1406"/><line style="stroke: #000000; stroke-width: 2.0;" x1="182" x2="182" y1="207.1406" y2="556.1406"/><text fill="#000000" font-family="sans-serif" font-size="14" font-style="italic" lengthAdjust="spacingAndGlyphs" textLength="56" x="75" y="224.6738">«device»</text><text fill="#000000" font-family="sans-serif" font-size="14" font-weight="bold" lengthAdjust="spacingAndGlyphs" textLength="30" x="88" y="242.2832">iPad</text><!--cluster DSuite--><polygon fill="#FFFFFF" filter="url(#f1efjrnvsstku9)" points="46,264.1406,98,264.1406,105,287.75,168,287.75,168,532.1406,46,532.1406,46,264.1406" style="stroke: #000000; stroke-width: 2.0;"/><line style="stroke: #000000; stroke-width: 2.0;" x1="46" x2="105" y1="287.75" y2="287.75"/><text fill="#000000" font-family="sans-serif" font-size="14" font-weight="bold" lengthAdjust="spacingAndGlyphs" textLength="46" x="50" y="280.6738">DSuite</text><!--cluster SharePoint--><polygon fill="#FFFFFF" filter="url(#f1efjrnvsstku9)" points="195,754.1406,205,744.1406,348,744.1406,348,846.1406,338,856.1406,195,856.1406,195,754.1406" style="stroke: #000000; stroke-width: 2.0;"/><line style="stroke: #000000; stroke-width: 2.0;" x1="338" x2="347" y1="754.1406" y2="745.1406"/><line style="stroke: #000000; stroke-width: 2.0;" x1="195" x2="338" y1="754.1406" y2="754.1406"/><line style="stroke: #000000; stroke-width: 2.0;" x1="338" x2="338" y1="754.1406" y2="856.1406"/><text fill="#000000" font-family="sans-serif" font-size="14" font-weight="bold" lengthAdjust="spacingAndGlyphs" textLength="77" x="229" y="771.6738">SharePoint</text><!--cluster Admin Web--><polygon fill="#FFFFFF" filter="url(#f1efjrnvsstku9)" points="373,606.1406,457,606.1406,464,629.75,501,629.75,501,860.6406,373,860.6406,373,606.1406" style="stroke: #000000; stroke-width: 2.0;"/><line style="stroke: #000000; stroke-width: 2.0;" x1="373" x2="464" y1="629.75" y2="629.75"/><text fill="#000000" font-family="sans-serif" font-size="14" font-weight="bold" lengthAdjust="spacingAndGlyphs" textLength="78" x="377" y="622.6738">Admin Web</text><!--entity DS--><rect fill="#FEFECE" filter="url(#f1efjrnvsstku9)" height="55.2188" style="stroke: #A80036; stroke-width: 1.5;" width="90" x="62" y="300.1406"/><rect fill="#FEFECE" height="5" style="stroke: #A80036; stroke-width: 1.5;" width="10" x="57" y="305.1406"/><rect fill="#FEFECE" height="5" style="stroke: #A80036; stroke-width: 1.5;" width="10" x="57" y="345.3594"/><text fill="#000000" font-family="sans-serif" font-size="14" font-style="italic" lengthAdjust="spacingAndGlyphs" textLength="40" x="87" y="324.6738">«app»</text><text fill="#000000" font-family="sans-serif" font-size="14" lengthAdjust="spacingAndGlyphs" textLength="70" x="72" y="342.2832">Offline App</text><!--entity P--><path d="M65,462.1406 C65,452.1406 107,452.1406 107,452.1406 C107,452.1406 149,452.1406 149,462.1406 L149,506.3594 C149,516.3594 107,516.3594 107,516.3594 C107,516.3594 65,516.3594 65,506.3594 L65,462.1406 " fill="#FEFECE" filter="url(#f1efjrnvsstku9)" style="stroke: #000000; stroke-width: 1.5;"/><path d="M65,462.1406 C65,472.1406 107,472.1406 107,472.1406 C107,472.1406 149,472.1406 149,462.1406 " fill="none" style="stroke: #000000; stroke-width: 1.5;"/><text fill="#000000" font-family="sans-serif" font-size="14" font-style="italic" lengthAdjust="spacingAndGlyphs" textLength="64" x="75" y="490.6738">«storage»</text><text fill="#000000" font-family="sans-serif" font-size="14" lengthAdjust="spacingAndGlyphs" textLength="59" x="77.5" y="508.2832">PouchDB</text><!--entity SP--><rect fill="#FEFECE" filter="url(#f1efjrnvsstku9)" height="55.2188" style="stroke: #A80036; stroke-width: 1.5;" width="80" x="249" y="785.1406"/><rect fill="#FEFECE" height="5" style="stroke: #A80036; stroke-width: 1.5;" width="10" x="244" y="790.1406"/><rect fill="#FEFECE" height="5" style="stroke: #A80036; stroke-width: 1.5;" width="10" x="244" y="830.3594"/><text fill="#000000" font-family="sans-serif" font-size="14" font-style="italic" lengthAdjust="spacingAndGlyphs" textLength="60" x="259" y="809.6738">«system»</text><text fill="#000000" font-family="sans-serif" font-size="14" lengthAdjust="spacingAndGlyphs" textLength="24" x="277" y="827.2832">Site</text><!--entity AW--><rect fill="#FEFECE" filter="url(#f1efjrnvsstku9)" height="55.2188" style="stroke: #A80036; stroke-width: 1.5;" width="83" x="398.5" y="642.1406"/><rect fill="#FEFECE" height="5" style="stroke: #A80036; stroke-width: 1.5;" width="10" x="393.5" y="647.1406"/><rect fill="#FEFECE" height="5" style="stroke: #A80036; stroke-width: 1.5;" width="10" x="393.5" y="687.3594"/><text fill="#000000" font-family="sans-serif" font-size="14" font-style="italic" lengthAdjust="spacingAndGlyphs" textLength="63" x="408.5" y="666.6738">«website»</text><text fill="#000000" font-family="sans-serif" font-size="14" lengthAdjust="spacingAndGlyphs" textLength="39" x="420.5" y="684.2832">Admin</text><!--entity SQL--><path d="M389.5,790.6406 C389.5,780.6406 437,780.6406 437,780.6406 C437,780.6406 484.5,780.6406 484.5,790.6406 L484.5,834.8594 C484.5,844.8594 437,844.8594 437,844.8594 C437,844.8594 389.5,844.8594 389.5,834.8594 L389.5,790.6406 " fill="#FEFECE" filter="url(#f1efjrnvsstku9)" style="stroke: #000000; stroke-width: 1.5;"/><path d="M389.5,790.6406 C389.5,800.6406 437,800.6406 437,800.6406 C437,800.6406 484.5,800.6406 484.5,790.6406 " fill="none" style="stroke: #000000; stroke-width: 1.5;"/><text fill="#000000" font-family="sans-serif" font-size="14" font-style="italic" lengthAdjust="spacingAndGlyphs" textLength="75" x="399.5" y="819.1738">«database»</text><text fill="#000000" font-family="sans-serif" font-size="14" lengthAdjust="spacingAndGlyphs" textLength="74" x="400" y="836.7832">SQL Server</text><!--entity C--><path d="M247,462.1406 C247,452.1406 287,452.1406 287,452.1406 C287,452.1406 327,452.1406 327,462.1406 L327,506.3594 C327,516.3594 287,516.3594 287,516.3594 C287,516.3594 247,516.3594 247,506.3594 L247,462.1406 " fill="#FEFECE" filter="url(#f1efjrnvsstku9)" style="stroke: #000000; stroke-width: 1.5;"/><path d="M247,462.1406 C247,472.1406 287,472.1406 287,472.1406 C287,472.1406 327,472.1406 327,462.1406 " fill="none" style="stroke: #000000; stroke-width: 1.5;"/><text fill="#000000" font-family="sans-serif" font-size="14" font-style="italic" lengthAdjust="spacingAndGlyphs" textLength="60" x="257" y="490.6738">«system»</text><text fill="#000000" font-family="sans-serif" font-size="14" lengthAdjust="spacingAndGlyphs" textLength="60" x="257" y="508.2832">CouchDB</text><!--entity ESB--><path d="M250,647.1406 L324,647.1406 C329,647.1406 329,669.75 329,669.75 C329,669.75 329,692.3594 324,692.3594 L250,692.3594 C245,692.3594 245,669.75 245,669.75 C245,669.75 245,647.1406 250,647.1406 " fill="#FEFECE" filter="url(#f1efjrnvsstku9)" style="stroke: #A80036; stroke-width: 1.5;"/><path d="M324,647.1406 C319,647.1406 319,669.75 319,669.75 C319,692.3594 324,692.3594 324,692.3594 " fill="none" style="stroke: #A80036; stroke-width: 1.5;"/><text fill="#000000" font-family="sans-serif" font-size="14" font-style="italic" lengthAdjust="spacingAndGlyphs" textLength="60" x="252" y="666.6738">«service»</text><text fill="#000000" font-family="sans-serif" font-size="14" lengthAdjust="spacingAndGlyphs" textLength="64" x="250" y="684.2832">Event Bus</text><!--entity R--><ellipse cx="52" cy="58.75" fill="#FFA07A" filter="url(#f1efjrnvsstku9)" rx="8" ry="8" style="stroke: #000000; stroke-width: 2.0;"/><path d="M52,66.75 L52,93.75 M39,74.75 L65,74.75 M52,93.75 L39,108.75 M52,93.75 L65,108.75 " fill="#FFA07A" filter="url(#f1efjrnvsstku9)" style="stroke: #000000; stroke-width: 2.0;"/><text fill="#000000" font-family="sans-serif" font-size="14" lengthAdjust="spacingAndGlyphs" textLength="47" x="28.5" y="130.2832">Reader</text><text fill="#000000" font-family="sans-serif" font-size="14" font-style="italic" lengthAdjust="spacingAndGlyphs" textLength="60" x="22" y="45.6738">«person»</text><!--entity O--><ellipse cx="440" cy="460.75" fill="#FFA07A" filter="url(#f1efjrnvsstku9)" rx="8" ry="8" style="stroke: #000000; stroke-width: 2.0;"/><path d="M440,468.75 L440,495.75 M427,476.75 L453,476.75 M440,495.75 L427,510.75 M440,495.75 L453,510.75 " fill="#FFA07A" filter="url(#f1efjrnvsstku9)" style="stroke: #000000; stroke-width: 2.0;"/><text fill="#000000" font-family="sans-serif" font-size="14" lengthAdjust="spacingAndGlyphs" textLength="41" x="419.5" y="532.2832">Owner</text><text fill="#000000" font-family="sans-serif" font-size="14" font-style="italic" lengthAdjust="spacingAndGlyphs" textLength="60" x="410" y="447.6738">«person»</text><!--entity MI--><rect fill="#FEFECE" filter="url(#f1efjrnvsstku9)" height="55.2188" style="stroke: #A80036; stroke-width: 1.5;" width="89" x="117.5" y="54.6406"/><rect fill="#FEFECE" height="5" style="stroke: #A80036; stroke-width: 1.5;" width="10" x="112.5" y="59.6406"/><rect fill="#FEFECE" height="5" style="stroke: #A80036; stroke-width: 1.5;" width="10" x="112.5" y="99.8594"/><text fill="#000000" font-family="sans-serif" font-size="14" font-style="italic" lengthAdjust="spacingAndGlyphs" textLength="60" x="132" y="79.1738">«system»</text><text fill="#000000" font-family="sans-serif" font-size="14" lengthAdjust="spacingAndGlyphs" textLength="69" x="127.5" y="96.7832">Mobile Iron</text><!--link MI to DS--><path d="M156.009,109.6626 C145.828,154.7366 125.191,246.1056 114.226,294.6486 " fill="none" id="MI-DS" style="stroke: #A80036; stroke-width: 1.0;"/><polygon fill="#A80036" points="113.067,299.7806,118.9513,291.8829,114.1684,294.9034,111.1478,290.1206,113.067,299.7806" style="stroke: #A80036; stroke-width: 1.0;"/><text fill="#000000" font-family="sans-serif" font-size="13" lengthAdjust="spacingAndGlyphs" textLength="48" x="144" y="177.6357">Secures</text><!--link DS to P--><path d="M107,360.3956 C107,385.4886 107,420.5316 107,446.7536 " fill="none" id="DS-P" style="stroke: #A80036; stroke-width: 1.0;"/><polygon fill="#A80036" points="107,451.8746,111,442.8746,107,446.8746,103,442.8746,107,451.8746" style="stroke: #A80036; stroke-width: 1.0;"/><polygon fill="#A80036" points="107,355.1996,103,364.1996,107,360.1996,111,364.1996,107,355.1996" style="stroke: #A80036; stroke-width: 1.0;"/><text fill="#000000" font-family="sans-serif" font-size="13" lengthAdjust="spacingAndGlyphs" textLength="30" x="108" y="399.6357">Uses</text><!--link P to C--><path d="M154.485,484.1406 C181.469,484.1406 215.074,484.1406 241.69,484.1406 " fill="none" id="P-C" style="stroke: #A80036; stroke-width: 1.0;"/><polygon fill="#A80036" points="246.916,484.1406,237.916,480.1406,241.916,484.1406,237.916,488.1406,246.916,484.1406" style="stroke: #A80036; stroke-width: 1.0;"/><polygon fill="#A80036" points="149.202,484.1406,158.202,488.1406,154.202,484.1406,158.202,480.1406,149.202,484.1406" style="stroke: #A80036; stroke-width: 1.0;"/><text fill="#000000" font-family="sans-serif" font-size="13" lengthAdjust="spacingAndGlyphs" textLength="61" x="167.5" y="477.6357">Replicates</text><!--link R to DS--><path d="M63.3293,133.2986 C74.7444,183.8366 91.9247,259.8976 100.9574,299.8886 " fill="none" id="R-DS" style="stroke: #A80036; stroke-width: 1.0;"/><text fill="#000000" font-family="sans-serif" font-size="13" lengthAdjust="spacingAndGlyphs" textLength="30" x="74" y="177.6357">Edits</text><!--link AW to SP--><path d="M407.729,700.7746 C382.203,724.6106 346.734,757.7306 321.221,781.5539 " fill="none" id="AW-SP" style="stroke: #A80036; stroke-width: 1.0;"/><polygon fill="#A80036" points="317.531,784.9992,326.8389,781.78,321.1853,781.5866,321.3787,775.9331,317.531,784.9992" style="stroke: #A80036; stroke-width: 1.0;"/><polygon fill="#A80036" points="411.598,697.1616,402.2896,700.3794,407.9432,700.5737,407.7489,706.2272,411.598,697.1616" style="stroke: #A80036; stroke-width: 1.0;"/><!--link AW to SQL--><path d="M439.326,702.3156 C438.864,724.0466 438.249,752.9286 437.768,775.5486 " fill="none" id="AW-SQL" style="stroke: #A80036; stroke-width: 1.0;"/><polygon fill="#A80036" points="437.661,780.568,441.8529,771.6558,437.7681,775.5692,433.8548,771.4844,437.661,780.568" style="stroke: #A80036; stroke-width: 1.0;"/><polygon fill="#A80036" points="439.436,697.1616,435.2466,706.075,439.3303,702.1605,443.2448,706.2442,439.436,697.1616" style="stroke: #A80036; stroke-width: 1.0;"/><!--link AW to ESB--><path d="M393.414,669.6406 C373.702,669.6406 353.99,669.6406 334.277,669.6406 " fill="none" id="AW-ESB" style="stroke: #A80036; stroke-width: 1.0;"/><polygon fill="#A80036" points="329.135,669.6406,338.135,673.6406,334.135,669.6406,338.135,665.6406,329.135,669.6406" style="stroke: #A80036; stroke-width: 1.0;"/><polygon fill="#A80036" points="398.426,669.6406,389.426,665.6406,393.426,669.6406,389.426,673.6406,398.426,669.6406" style="stroke: #A80036; stroke-width: 1.0;"/><!--link O to AW--><path d="M440,535.2826 C440,569.7706 440,614.2086 440,642.0686 " fill="none" id="O-AW" style="stroke: #A80036; stroke-width: 1.0;"/><text fill="#000000" font-family="sans-serif" font-size="13" lengthAdjust="spacingAndGlyphs" textLength="53" x="441" y="586.6357">Manages</text><!--link ESB to SP--><path d="M287.381,697.5196 C287.713,720.9246 288.195,754.8966 288.547,779.687 " fill="none" id="ESB-SP" style="stroke: #A80036; stroke-width: 1.0;"/><polygon fill="#A80036" points="288.62,784.8306,292.4918,775.7747,288.549,779.8311,284.4926,775.8883,288.62,784.8306" style="stroke: #A80036; stroke-width: 1.0;"/><polygon fill="#A80036" points="287.308,692.3626,283.437,701.4188,287.3794,697.3621,291.4362,701.3046,287.308,692.3626" style="stroke: #A80036; stroke-width: 1.0;"/><!--link ESB to SQL--><path d="M314.041,696.0596 C338.049,718.6266 373.349,751.8086 399.976,776.8377 " fill="none" id="ESB-SQL" style="stroke: #A80036; stroke-width: 1.0;"/><polygon fill="#A80036" points="403.839,780.4691,400.021,771.3904,400.1959,777.0446,394.5417,777.2194,403.839,780.4691" style="stroke: #A80036; stroke-width: 1.0;"/><polygon fill="#A80036" points="310.109,692.3626,313.9251,701.4421,313.7514,695.7879,319.4056,695.6142,310.109,692.3626" style="stroke: #A80036; stroke-width: 1.0;"/><!--link C to ESB--><path d="M287,521.6566 C287,557.1216 287,610.1246 287,641.8506 " fill="none" id="C-ESB" style="stroke: #A80036; stroke-width: 1.0;"/><polygon fill="#A80036" points="287,647.1356,291,638.1356,287,642.1356,283,638.1356,287,647.1356" style="stroke: #A80036; stroke-width: 1.0;"/><polygon fill="#A80036" points="287,516.2686,283,525.2686,287,521.2686,291,525.2686,287,516.2686" style="stroke: #A80036; stroke-width: 1.0;"/><!--
@startuml
skinparam handwritten false
skinparam actor {
    backgroundColor<<person>> LightSalmon
    borderColor<<person>> Black
}


' uncomment the line below if you're using computer with a retina display
' skinparam dpi 300
' we use bold for primary key
' green color for unique
' and underscore for not_null
' other tags available:
' <i></i>
' <back:COLOR></color>, where color is a color name or html color code
' (#FFAACC)
' see: http://plantuml.com/classes.html#More

title Mobile


database CouchDB <<system>> as C 

queue "Event Bus" <<service>> as ESB


actor :Reader: <<person>> as R
actor :Owner: <<person>> as O
component [Mobile Iron] <<system>> as MI

node iPad <<device>> {


    package "DSuite" {
        component "Offline App" <<app>> as DS
        database PouchDB <<storage>> as P
    }
    
    
    MI - -> DS : Secures
    DS <- -> P : Uses 
    P <-right-> C : Replicates
    R - - DS: Edits
}

node SharePoint {
    component [Site] <<system>> as SP
}

package "Admin Web" {

    component [Admin] <<website>> as AW 
    database "SQL Server" <<database>> as SQL

    AW <- -> SP
    AW <- -> SQL
    AW <- -> ESB
    
    O - - AW : Manages
}

ESB <- -> SP
ESB <- -> SQL
C <- -> ESB




@enduml

PlantUML version 1.2017.19(Sun Nov 12 22:46:22 AEDT 2017)
(GPL source distribution)
Java Runtime: Java(TM) SE Runtime Environment
JVM: Java HotSpot(TM) 64-Bit Server VM
Java Version: 1.8.0_151-b12
Operating System: Windows Server 2012 R2
OS Version: 6.3
Default Encoding: UTF-8
Language: en
Country: US
--></g></svg>