<?xml version="1.0" encoding="UTF-8" standalone="no"?><svg xmlns="http://www.w3.org/2000/svg" xmlns:xlink="http://www.w3.org/1999/xlink" contentScriptType="application/ecmascript" contentStyleType="text/css" height="567px" preserveAspectRatio="none" style="width:1302px;height:567px;" version="1.1" viewBox="0 0 1302 567" width="1302px" zoomAndPan="magnify"><defs><linearGradient id="g18pjhbagaqn8v0" x1="0%" x2="100%" y1="0%" y2="100%"><stop offset="0%" stop-color="#FAEBD7"/><stop offset="100%" stop-color="#FFD700"/></linearGradient><linearGradient id="g18pjhbagaqn8v1" x1="50%" x2="50%" y1="0%" y2="100%"><stop offset="0%" stop-color="#00FFFF"/><stop offset="100%" stop-color="#5F9EA0"/></linearGradient><filter height="300%" id="f18pjhbagaqn8v" width="300%" x="-1" y="-1"><feGaussianBlur result="blurOut" stdDeviation="3.0"/><feColorMatrix in="blurOut" result="blurOut2" type="matrix" values="0 0 0 0 0 0 0 0 0 0 0 0 0 0 0 0 0 0 .4 0"/><feOffset dx="6.0" dy="6.0" in="blurOut2" result="blurOut3"/><feBlend in="SourceGraphic" in2="blurOut3" mode="normal"/></filter></defs><g><rect fill="url(#g18pjhbagaqn8v0)" height="567" style="stroke: none; stroke-width: 1.5;" width="1302" x="0" y="0"/><rect fill="url(#g18pjhbagaqn8v1)" height="48.9609" rx="11.25" ry="11.25" style="stroke: #191970; stroke-width: 3.0;" width="381" x="450.75" y="3"/><text fill="#000000" font-family="sans-serif" font-size="27" lengthAdjust="spacingAndGlyphs" textLength="357" x="462.75" y="38.5283">"Multiple inheritance example"</text><!--class Clock--><rect fill="#FFDEAD" filter="url(#f18pjhbagaqn8v)" height="155.0156" id="Clock" style="stroke: #FFD700; stroke-width: 2.25;" width="336" x="131.25" y="99.9609"/><ellipse cx="269.625" cy="123.9609" fill="#ADD1B2" rx="16.5" ry="16.5" style="stroke: #FFD700; stroke-width: 1.5;"/><path d="M273.7734,117.7734 Q274.0078,117.4453 274.2891,117.2813 Q274.5703,117.1172 274.8984,117.1172 Q275.4609,117.1172 275.8125,117.5039 Q276.1641,117.8906 276.1641,118.8047 L276.1641,120.9844 Q276.1641,121.8984 275.8125,122.2969 Q275.4609,122.6953 274.8984,122.6953 Q274.3828,122.6953 274.0781,122.3906 Q273.7734,122.1094 273.6094,121.3359 Q273.5391,120.7969 273.2578,120.5156 Q272.7656,119.9531 271.8516,119.625 Q270.9375,119.2969 270,119.2969 Q268.8516,119.2969 267.9023,119.7891 Q266.9531,120.2813 266.2148,121.4063 Q265.4766,122.5313 265.4766,124.0781 L265.4766,125.7188 Q265.4766,127.5703 266.8125,128.8008 Q268.1484,130.0313 270.5391,130.0313 Q271.9453,130.0313 272.9297,129.6563 Q273.5156,129.4219 274.1484,128.7656 Q274.5469,128.3672 274.7695,128.25 Q274.9922,128.1328 275.2969,128.1328 Q275.7891,128.1328 276.1758,128.5195 Q276.5625,128.9063 276.5625,129.4219 Q276.5625,129.9375 276.0469,130.5469 Q275.2969,131.4141 274.1016,131.9063 Q272.4844,132.5859 270.5391,132.5859 Q268.2656,132.5859 266.4609,131.6484 Q264.9844,130.8984 263.9531,129.293 Q262.9219,127.6875 262.9219,125.7656 L262.9219,124.0313 Q262.9219,122.0391 263.8477,120.3164 Q264.7734,118.5938 266.4141,117.668 Q268.0547,116.7422 269.9063,116.7422 Q271.0078,116.7422 271.9805,116.9883 Q272.9531,117.2344 273.7734,117.7734 Z "/><text fill="#000000" font-family="sans-serif" font-size="18" lengthAdjust="spacingAndGlyphs" textLength="46.5" x="300.375" y="131.3262">Clock</text><line style="stroke: #FFD700; stroke-width: 2.25;" x1="132.75" x2="465.75" y1="147.9609" y2="147.9609"/><line style="stroke: #FFD700; stroke-width: 2.25;" x1="132.75" x2="465.75" y1="159.9609" y2="159.9609"/><rect fill="#F24D5C" height="9" style="stroke: #C82930; stroke-width: 1.5;" width="9" x="143.25" y="174.0879"/><text fill="#000000" font-family="sans-serif" font-size="16.5" lengthAdjust="spacingAndGlyphs" textLength="282" x="161.25" y="183.0894">__init__(self, hours, minutes, seconds)</text><ellipse cx="147.75" cy="199.3418" fill="#84BE84" rx="4.5" ry="4.5" style="stroke: #038048; stroke-width: 1.5;"/><text fill="#000000" font-family="sans-serif" font-size="16.5" lengthAdjust="spacingAndGlyphs" textLength="297" x="161.25" y="203.8433">set_Clock(self, hours, minutes, seconds)</text><rect fill="#F24D5C" height="9" style="stroke: #C82930; stroke-width: 1.5;" width="9" x="143.25" y="215.5957"/><text fill="#000000" font-family="sans-serif" font-size="16.5" lengthAdjust="spacingAndGlyphs" textLength="94.5" x="161.25" y="224.5972">__str__(self)</text><ellipse cx="147.75" cy="240.8496" fill="#84BE84" rx="4.5" ry="4.5" style="stroke: #038048; stroke-width: 1.5;"/><text fill="#000000" font-family="sans-serif" font-size="16.5" lengthAdjust="spacingAndGlyphs" textLength="63" x="161.25" y="245.3511">tick(self)</text><!--class Calendar--><rect fill="#FFDEAD" filter="url(#f18pjhbagaqn8v)" height="217.2773" id="Calendar" style="stroke: #FFD700; stroke-width: 2.25;" width="231" x="722.25" y="68.4609"/><ellipse cx="793.125" cy="92.4609" fill="#ADD1B2" rx="16.5" ry="16.5" style="stroke: #FFD700; stroke-width: 1.5;"/><path d="M797.2734,86.2734 Q797.5078,85.9453 797.7891,85.7813 Q798.0703,85.6172 798.3984,85.6172 Q798.9609,85.6172 799.3125,86.0039 Q799.6641,86.3906 799.6641,87.3047 L799.6641,89.4844 Q799.6641,90.3984 799.3125,90.7969 Q798.9609,91.1953 798.3984,91.1953 Q797.8828,91.1953 797.5781,90.8906 Q797.2734,90.6094 797.1094,89.8359 Q797.0391,89.2969 796.7578,89.0156 Q796.2656,88.4531 795.3516,88.125 Q794.4375,87.7969 793.5,87.7969 Q792.3516,87.7969 791.4023,88.2891 Q790.4531,88.7813 789.7148,89.9063 Q788.9766,91.0313 788.9766,92.5781 L788.9766,94.2188 Q788.9766,96.0703 790.3125,97.3008 Q791.6484,98.5313 794.0391,98.5313 Q795.4453,98.5313 796.4297,98.1563 Q797.0156,97.9219 797.6484,97.2656 Q798.0469,96.8672 798.2695,96.75 Q798.4922,96.6328 798.7969,96.6328 Q799.2891,96.6328 799.6758,97.0195 Q800.0625,97.4063 800.0625,97.9219 Q800.0625,98.4375 799.5469,99.0469 Q798.7969,99.9141 797.6016,100.4063 Q795.9844,101.0859 794.0391,101.0859 Q791.7656,101.0859 789.9609,100.1484 Q788.4844,99.3984 787.4531,97.793 Q786.4219,96.1875 786.4219,94.2656 L786.4219,92.5313 Q786.4219,90.5391 787.3477,88.8164 Q788.2734,87.0938 789.9141,86.168 Q791.5547,85.2422 793.4063,85.2422 Q794.5078,85.2422 795.4805,85.4883 Q796.4531,85.7344 797.2734,86.2734 Z "/><text fill="#000000" font-family="sans-serif" font-size="18" lengthAdjust="spacingAndGlyphs" textLength="76.5" x="823.875" y="99.8262">Calendar</text><line style="stroke: #FFD700; stroke-width: 2.25;" x1="723.75" x2="951.75" y1="116.4609" y2="116.4609"/><ellipse cx="738.75" cy="135.0879" fill="none" rx="4.5" ry="4.5" style="stroke: #038048; stroke-width: 1.5;"/><text fill="#000000" font-family="sans-serif" font-size="16.5" lengthAdjust="spacingAndGlyphs" text-decoration="underline" textLength="52.5" x="752.25" y="139.5894">months</text><line style="stroke: #000000; stroke-width: 1.0;" x1="752.25" x2="804.75" y1="142.5894" y2="142.5894"/><ellipse cx="738.75" cy="155.8418" fill="none" rx="4.5" ry="4.5" style="stroke: #038048; stroke-width: 1.5;"/><text fill="#000000" font-family="sans-serif" font-size="16.5" lengthAdjust="spacingAndGlyphs" text-decoration="underline" textLength="75" x="752.25" y="160.3433">date_style</text><line style="stroke: #000000; stroke-width: 1.0;" x1="752.25" x2="827.25" y1="163.3433" y2="163.3433"/><line style="stroke: #FFD700; stroke-width: 2.25;" x1="723.75" x2="951.75" y1="169.9688" y2="169.9688"/><ellipse cx="738.75" cy="188.5957" fill="#84BE84" rx="4.5" ry="4.5" style="stroke: #038048; stroke-width: 1.5;"/><text fill="#000000" font-family="sans-serif" font-size="16.5" lengthAdjust="spacingAndGlyphs" text-decoration="underline" textLength="108" x="752.25" y="193.0972">leapyear(year)</text><line style="stroke: #000000; stroke-width: 1.0;" x1="752.25" x2="860.25" y1="196.0972" y2="196.0972"/><rect fill="#F24D5C" height="9" style="stroke: #C82930; stroke-width: 1.5;" width="9" x="734.25" y="204.8496"/><text fill="#000000" font-family="sans-serif" font-size="16.5" lengthAdjust="spacingAndGlyphs" textLength="151.5" x="752.25" y="213.8511">__init__(self, d, m, y)</text><ellipse cx="738.75" cy="230.1035" fill="#84BE84" rx="4.5" ry="4.5" style="stroke: #038048; stroke-width: 1.5;"/><text fill="#000000" font-family="sans-serif" font-size="16.5" lengthAdjust="spacingAndGlyphs" textLength="192" x="752.25" y="234.605">set_Calendar(self, d, m, y)</text><rect fill="#F24D5C" height="9" style="stroke: #C82930; stroke-width: 1.5;" width="9" x="734.25" y="246.3574"/><text fill="#000000" font-family="sans-serif" font-size="16.5" lengthAdjust="spacingAndGlyphs" textLength="94.5" x="752.25" y="255.3589">__str__(self)</text><ellipse cx="738.75" cy="271.6113" fill="#84BE84" rx="4.5" ry="4.5" style="stroke: #038048; stroke-width: 1.5;"/><text fill="#000000" font-family="sans-serif" font-size="16.5" lengthAdjust="spacingAndGlyphs" textLength="102" x="752.25" y="276.1128">advance(self)</text><!--class CalendarClock--><rect fill="#FFDEAD" filter="url(#f18pjhbagaqn8v)" height="134.2617" id="CalendarClock" style="stroke: #FFD700; stroke-width: 2.25;" width="424.5" x="438" y="375.9609"/><ellipse cx="582.375" cy="399.9609" fill="#ADD1B2" rx="16.5" ry="16.5" style="stroke: #FFD700; stroke-width: 1.5;"/><path d="M586.5234,393.7734 Q586.7578,393.4453 587.0391,393.2813 Q587.3203,393.1172 587.6484,393.1172 Q588.2109,393.1172 588.5625,393.5039 Q588.9141,393.8906 588.9141,394.8047 L588.9141,396.9844 Q588.9141,397.8984 588.5625,398.2969 Q588.2109,398.6953 587.6484,398.6953 Q587.1328,398.6953 586.8281,398.3906 Q586.5234,398.1094 586.3594,397.3359 Q586.2891,396.7969 586.0078,396.5156 Q585.5156,395.9531 584.6016,395.625 Q583.6875,395.2969 582.75,395.2969 Q581.6016,395.2969 580.6523,395.7891 Q579.7031,396.2813 578.9648,397.4063 Q578.2266,398.5313 578.2266,400.0781 L578.2266,401.7188 Q578.2266,403.5703 579.5625,404.8008 Q580.8984,406.0313 583.2891,406.0313 Q584.6953,406.0313 585.6797,405.6563 Q586.2656,405.4219 586.8984,404.7656 Q587.2969,404.3672 587.5195,404.25 Q587.7422,404.1328 588.0469,404.1328 Q588.5391,404.1328 588.9258,404.5195 Q589.3125,404.9063 589.3125,405.4219 Q589.3125,405.9375 588.7969,406.5469 Q588.0469,407.4141 586.8516,407.9063 Q585.2344,408.5859 583.2891,408.5859 Q581.0156,408.5859 579.2109,407.6484 Q577.7344,406.8984 576.7031,405.293 Q575.6719,403.6875 575.6719,401.7656 L575.6719,400.0313 Q575.6719,398.0391 576.5977,396.3164 Q577.5234,394.5938 579.1641,393.668 Q580.8047,392.7422 582.6563,392.7422 Q583.7578,392.7422 584.7305,392.9883 Q585.7031,393.2344 586.5234,393.7734 Z "/><text fill="#000000" font-family="sans-serif" font-size="18" lengthAdjust="spacingAndGlyphs" textLength="123" x="613.125" y="407.3262">CalendarClock</text><line style="stroke: #FFD700; stroke-width: 2.25;" x1="439.5" x2="861" y1="423.9609" y2="423.9609"/><line style="stroke: #FFD700; stroke-width: 2.25;" x1="439.5" x2="861" y1="435.9609" y2="435.9609"/><rect fill="#F24D5C" height="9" style="stroke: #C82930; stroke-width: 1.5;" width="9" x="450" y="450.0879"/><text fill="#000000" font-family="sans-serif" font-size="16.5" lengthAdjust="spacingAndGlyphs" textLength="385.5" x="468" y="459.0894">__init__(self, day, month, year, hour, minute, second)</text><ellipse cx="454.5" cy="475.3418" fill="#84BE84" rx="4.5" ry="4.5" style="stroke: #038048; stroke-width: 1.5;"/><text fill="#000000" font-family="sans-serif" font-size="16.5" lengthAdjust="spacingAndGlyphs" textLength="63" x="468" y="479.8433">tick(self)</text><rect fill="#F24D5C" height="9" style="stroke: #C82930; stroke-width: 1.5;" width="9" x="450" y="491.5957"/><text fill="#000000" font-family="sans-serif" font-size="16.5" lengthAdjust="spacingAndGlyphs" textLength="94.5" x="468" y="500.5972">__str__(self)</text><polygon fill="#FBFB77" filter="url(#f18pjhbagaqn8v)" points="915.75,399.2109,915.75,487.793,1134.75,487.793,1134.75,414.2109,1119.75,399.2109,915.75,399.2109" style="stroke: #A80036; stroke-width: 1.5;"/><polygon fill="#FBFB77" points="915.75,399.2109,915.75,487.793,1134.75,487.793,1134.75,414.2109,1119.75,399.2109,1000.542,399.2109,914.2845,286.1649,988.542,399.2109,915.75,399.2109" style="stroke: #A80036; stroke-width: 1.5;"/><line style="stroke: #A80036; stroke-width: 1.5;" x1="1119.75" x2="1119.75" y1="399.2109" y2="414.2109"/><line style="stroke: #A80036; stroke-width: 1.5;" x1="1134.75" x2="1119.75" y1="414.2109" y2="414.2109"/><text fill="#000000" font-family="sans-serif" font-size="19.5" lengthAdjust="spacingAndGlyphs" textLength="27" x="924.75" y="426.9536">the</text><text fill="#000000" font-family="sans-serif" font-size="19.5" font-style="italic" lengthAdjust="spacingAndGlyphs" textLength="84" x="957.75" y="426.9536">advance()</text><text fill="#000000" font-family="sans-serif" font-size="19.5" lengthAdjust="spacingAndGlyphs" textLength="64.5" x="1047.75" y="426.9536">method</text><text fill="#000000" font-family="sans-serif" font-size="19.5" lengthAdjust="spacingAndGlyphs" textLength="157.5" x="924.75" y="451.481">advances the date</text><text fill="#000000" font-family="sans-serif" font-size="19.5" lengthAdjust="spacingAndGlyphs" textLength="102" x="924.75" y="476.0083">by one day,</text><polygon fill="#FBFB77" filter="url(#f18pjhbagaqn8v)" points="186.75,399.2109,186.75,487.793,384.75,487.793,384.75,414.2109,369.75,399.2109,186.75,399.2109" style="stroke: #A80036; stroke-width: 1.5;"/><polygon fill="#FBFB77" points="186.75,399.2109,186.75,487.793,384.75,487.793,384.75,414.2109,369.75,399.2109,293.9445,399.2109,295.3455,254.8539,281.9445,399.2109,186.75,399.2109" style="stroke: #A80036; stroke-width: 1.5;"/><line style="stroke: #A80036; stroke-width: 1.5;" x1="369.75" x2="369.75" y1="399.2109" y2="414.2109"/><line style="stroke: #A80036; stroke-width: 1.5;" x1="384.75" x2="369.75" y1="414.2109" y2="414.2109"/><text fill="#000000" font-family="sans-serif" font-size="19.5" lengthAdjust="spacingAndGlyphs" textLength="27" x="195.75" y="426.9536">the</text><text fill="#000000" font-family="sans-serif" font-size="19.5" font-style="italic" lengthAdjust="spacingAndGlyphs" textLength="45" x="228.75" y="426.9536">tick()</text><text fill="#000000" font-family="sans-serif" font-size="19.5" lengthAdjust="spacingAndGlyphs" textLength="64.5" x="279.75" y="426.9536">method</text><text fill="#000000" font-family="sans-serif" font-size="19.5" lengthAdjust="spacingAndGlyphs" textLength="166.5" x="195.75" y="451.481">advances the clock</text><text fill="#000000" font-family="sans-serif" font-size="19.5" lengthAdjust="spacingAndGlyphs" textLength="133.5" x="195.75" y="476.0083">by one second,</text><!--link Clock to CalendarClock--><path d="M424.896,272.9454 C470.2125,306.9324 520.365,344.5464 561.8295,375.6461 " fill="none" id="Clock-CalendarClock" style="stroke: #191970; stroke-width: 1.5;"/><polygon fill="none" points="418.0035,280.8999,400.3035,254.4999,430.6035,264.0999,418.0035,280.8999" style="stroke: #191970; stroke-width: 1.5;"/><!--link Calendar to CalendarClock--><path d="M743.3385,311.2644 C727.4265,333.6039 711.5415,355.9089 697.5135,375.6029 " fill="none" id="Calendar-CalendarClock" style="stroke: #191970; stroke-width: 1.5;"/><polygon fill="none" points="735.2595,304.5084,761.2155,286.1649,752.364,316.6914,735.2595,304.5084" style="stroke: #191970; stroke-width: 1.5;"/><text fill="#000000" font-family="monospace" font-size="21" lengthAdjust="spacingAndGlyphs" textLength="1284" x="0" y="547.0737">(File not found: C:\Users\apgiles\DFC\Architecture\.\src\python\py2puml\examples\cal_clock3\img_footer.png)</text><!--
@startuml
scale 1.5
skinparam backgroundcolor AntiqueWhite/Gold
skinparam title {
BorderRoundCorner 15
BorderThickness 2
BorderColor MidnightBlue
BackgroundColor Aqua-CadetBlue
}
skinparam class {
BackgroundColor NavajoWhite
ArrowColor MidnightBlue
BorderColor Gold
}
title "Multiple inheritance example"
center footer <img:img_footer.png>

class Clock {
  -__init__(self, hours, minutes, seconds)
  +set_Clock(self, hours, minutes, seconds)
  -__str__(self)
  +tick(self)
}

class Calendar {
  {static} +months
  {static} +date_style
  +leapyear(year){static}
  -__init__(self, d, m, y)
  +set_Calendar(self, d, m, y)
  -__str__(self)
  +advance(self)
}

Clock <|- - CalendarClock
Calendar <|- - CalendarClock
class CalendarClock {
  -__init__(self, day, month, year, hour, minute, second)
  +tick(self)
  -__str__(self)
}

note bottom of Calendar
the <i>advance()</i> method
advances the date
by one day,
end note
''
note bottom of Clock
the <i>tick()</i> method
advances the clock
by one second,
end note

@enduml

PlantUML version 1.2017.19(Sun Nov 12 22:46:22 AEDT 2017)
(GPL source distribution)
Java Runtime: Java(TM) SE Runtime Environment
JVM: Java HotSpot(TM) 64-Bit Server VM
Java Version: 1.8.0_151-b12
Operating System: Windows Server 2012 R2
OS Version: 6.3
Default Encoding: UTF-8
Language: en
Country: US
--></g></svg>