<?xml version="1.0" encoding="UTF-8" standalone="no"?><svg xmlns="http://www.w3.org/2000/svg" xmlns:xlink="http://www.w3.org/1999/xlink" contentScriptType="application/ecmascript" contentStyleType="text/css" height="567px" preserveAspectRatio="none" style="width:1278px;height:567px;" version="1.1" viewBox="0 0 1278 567" width="1278px" zoomAndPan="magnify"><defs><linearGradient id="g18pjhbagaqn8v0" x1="0%" x2="100%" y1="0%" y2="100%"><stop offset="0%" stop-color="#FAEBD7"/><stop offset="100%" stop-color="#FFD700"/></linearGradient><linearGradient id="g18pjhbagaqn8v1" x1="50%" x2="50%" y1="0%" y2="100%"><stop offset="0%" stop-color="#00FFFF"/><stop offset="100%" stop-color="#5F9EA0"/></linearGradient><filter height="300%" id="f18pjhbagaqn8v" width="300%" x="-1" y="-1"><feGaussianBlur result="blurOut" stdDeviation="3.0"/><feColorMatrix in="blurOut" result="blurOut2" type="matrix" values="0 0 0 0 0 0 0 0 0 0 0 0 0 0 0 0 0 0 .4 0"/><feOffset dx="6.0" dy="6.0" in="blurOut2" result="blurOut3"/><feBlend in="SourceGraphic" in2="blurOut3" mode="normal"/></filter></defs><g><rect fill="url(#g18pjhbagaqn8v0)" height="567" style="stroke: none; stroke-width: 1.5;" width="1278" x="0" y="0"/><rect fill="url(#g18pjhbagaqn8v1)" height="48.9609" rx="11.25" ry="11.25" style="stroke: #191970; stroke-width: 3.0;" width="381" x="438.75" y="3"/><text fill="#000000" font-family="sans-serif" font-size="27" lengthAdjust="spacingAndGlyphs" textLength="357" x="450.75" y="38.5283">"Multiple inheritance example"</text><!--class Clock--><rect fill="#FFDEAD" filter="url(#f18pjhbagaqn8v)" height="155.0156" id="Clock" style="stroke: #FFD700; stroke-width: 2.25;" width="336" x="119.25" y="99.9609"/><ellipse cx="257.625" cy="123.9609" fill="#ADD1B2" rx="16.5" ry="16.5" style="stroke: #FFD700; stroke-width: 1.5;"/><path d="M261.7734,117.7734 Q262.0078,117.4453 262.2891,117.2813 Q262.5703,117.1172 262.8984,117.1172 Q263.4609,117.1172 263.8125,117.5039 Q264.1641,117.8906 264.1641,118.8047 L264.1641,120.9844 Q264.1641,121.8984 263.8125,122.2969 Q263.4609,122.6953 262.8984,122.6953 Q262.3828,122.6953 262.0781,122.3906 Q261.7734,122.1094 261.6094,121.3359 Q261.5391,120.7969 261.2578,120.5156 Q260.7656,119.9531 259.8516,119.625 Q258.9375,119.2969 258,119.2969 Q256.8516,119.2969 255.9023,119.7891 Q254.9531,120.2813 254.2148,121.4063 Q253.4766,122.5313 253.4766,124.0781 L253.4766,125.7188 Q253.4766,127.5703 254.8125,128.8008 Q256.1484,130.0313 258.5391,130.0313 Q259.9453,130.0313 260.9297,129.6563 Q261.5156,129.4219 262.1484,128.7656 Q262.5469,128.3672 262.7695,128.25 Q262.9922,128.1328 263.2969,128.1328 Q263.7891,128.1328 264.1758,128.5195 Q264.5625,128.9063 264.5625,129.4219 Q264.5625,129.9375 264.0469,130.5469 Q263.2969,131.4141 262.1016,131.9063 Q260.4844,132.5859 258.5391,132.5859 Q256.2656,132.5859 254.4609,131.6484 Q252.9844,130.8984 251.9531,129.293 Q250.9219,127.6875 250.9219,125.7656 L250.9219,124.0313 Q250.9219,122.0391 251.8477,120.3164 Q252.7734,118.5938 254.4141,117.668 Q256.0547,116.7422 257.9063,116.7422 Q259.0078,116.7422 259.9805,116.9883 Q260.9531,117.2344 261.7734,117.7734 Z "/><text fill="#000000" font-family="sans-serif" font-size="18" lengthAdjust="spacingAndGlyphs" textLength="46.5" x="288.375" y="131.3262">Clock</text><line style="stroke: #FFD700; stroke-width: 2.25;" x1="120.75" x2="453.75" y1="147.9609" y2="147.9609"/><line style="stroke: #FFD700; stroke-width: 2.25;" x1="120.75" x2="453.75" y1="159.9609" y2="159.9609"/><rect fill="#F24D5C" height="9" style="stroke: #C82930; stroke-width: 1.5;" width="9" x="131.25" y="174.0879"/><text fill="#000000" font-family="sans-serif" font-size="16.5" lengthAdjust="spacingAndGlyphs" textLength="282" x="149.25" y="183.0894">__init__(self, hours, minutes, seconds)</text><ellipse cx="135.75" cy="199.3418" fill="#84BE84" rx="4.5" ry="4.5" style="stroke: #038048; stroke-width: 1.5;"/><text fill="#000000" font-family="sans-serif" font-size="16.5" lengthAdjust="spacingAndGlyphs" textLength="297" x="149.25" y="203.8433">set_Clock(self, hours, minutes, seconds)</text><rect fill="#F24D5C" height="9" style="stroke: #C82930; stroke-width: 1.5;" width="9" x="131.25" y="215.5957"/><text fill="#000000" font-family="sans-serif" font-size="16.5" lengthAdjust="spacingAndGlyphs" textLength="94.5" x="149.25" y="224.5972">__str__(self)</text><ellipse cx="135.75" cy="240.8496" fill="#84BE84" rx="4.5" ry="4.5" style="stroke: #038048; stroke-width: 1.5;"/><text fill="#000000" font-family="sans-serif" font-size="16.5" lengthAdjust="spacingAndGlyphs" textLength="63" x="149.25" y="245.3511">tick(self)</text><!--class Calendar--><rect fill="#FFDEAD" filter="url(#f18pjhbagaqn8v)" height="217.2773" id="Calendar" style="stroke: #FFD700; stroke-width: 2.25;" width="231" x="710.25" y="68.4609"/><ellipse cx="781.125" cy="92.4609" fill="#ADD1B2" rx="16.5" ry="16.5" style="stroke: #FFD700; stroke-width: 1.5;"/><path d="M785.2734,86.2734 Q785.5078,85.9453 785.7891,85.7813 Q786.0703,85.6172 786.3984,85.6172 Q786.9609,85.6172 787.3125,86.0039 Q787.6641,86.3906 787.6641,87.3047 L787.6641,89.4844 Q787.6641,90.3984 787.3125,90.7969 Q786.9609,91.1953 786.3984,91.1953 Q785.8828,91.1953 785.5781,90.8906 Q785.2734,90.6094 785.1094,89.8359 Q785.0391,89.2969 784.7578,89.0156 Q784.2656,88.4531 783.3516,88.125 Q782.4375,87.7969 781.5,87.7969 Q780.3516,87.7969 779.4023,88.2891 Q778.4531,88.7813 777.7148,89.9063 Q776.9766,91.0313 776.9766,92.5781 L776.9766,94.2188 Q776.9766,96.0703 778.3125,97.3008 Q779.6484,98.5313 782.0391,98.5313 Q783.4453,98.5313 784.4297,98.1563 Q785.0156,97.9219 785.6484,97.2656 Q786.0469,96.8672 786.2695,96.75 Q786.4922,96.6328 786.7969,96.6328 Q787.2891,96.6328 787.6758,97.0195 Q788.0625,97.4063 788.0625,97.9219 Q788.0625,98.4375 787.5469,99.0469 Q786.7969,99.9141 785.6016,100.4063 Q783.9844,101.0859 782.0391,101.0859 Q779.7656,101.0859 777.9609,100.1484 Q776.4844,99.3984 775.4531,97.793 Q774.4219,96.1875 774.4219,94.2656 L774.4219,92.5313 Q774.4219,90.5391 775.3477,88.8164 Q776.2734,87.0938 777.9141,86.168 Q779.5547,85.2422 781.4063,85.2422 Q782.5078,85.2422 783.4805,85.4883 Q784.4531,85.7344 785.2734,86.2734 Z "/><text fill="#000000" font-family="sans-serif" font-size="18" lengthAdjust="spacingAndGlyphs" textLength="76.5" x="811.875" y="99.8262">Calendar</text><line style="stroke: #FFD700; stroke-width: 2.25;" x1="711.75" x2="939.75" y1="116.4609" y2="116.4609"/><ellipse cx="726.75" cy="135.0879" fill="none" rx="4.5" ry="4.5" style="stroke: #038048; stroke-width: 1.5;"/><text fill="#000000" font-family="sans-serif" font-size="16.5" lengthAdjust="spacingAndGlyphs" text-decoration="underline" textLength="52.5" x="740.25" y="139.5894">months</text><line style="stroke: #000000; stroke-width: 1.0;" x1="740.25" x2="792.75" y1="142.5894" y2="142.5894"/><ellipse cx="726.75" cy="155.8418" fill="none" rx="4.5" ry="4.5" style="stroke: #038048; stroke-width: 1.5;"/><text fill="#000000" font-family="sans-serif" font-size="16.5" lengthAdjust="spacingAndGlyphs" text-decoration="underline" textLength="75" x="740.25" y="160.3433">date_style</text><line style="stroke: #000000; stroke-width: 1.0;" x1="740.25" x2="815.25" y1="163.3433" y2="163.3433"/><line style="stroke: #FFD700; stroke-width: 2.25;" x1="711.75" x2="939.75" y1="169.9688" y2="169.9688"/><ellipse cx="726.75" cy="188.5957" fill="#84BE84" rx="4.5" ry="4.5" style="stroke: #038048; stroke-width: 1.5;"/><text fill="#000000" font-family="sans-serif" font-size="16.5" lengthAdjust="spacingAndGlyphs" text-decoration="underline" textLength="108" x="740.25" y="193.0972">leapyear(year)</text><line style="stroke: #000000; stroke-width: 1.0;" x1="740.25" x2="848.25" y1="196.0972" y2="196.0972"/><rect fill="#F24D5C" height="9" style="stroke: #C82930; stroke-width: 1.5;" width="9" x="722.25" y="204.8496"/><text fill="#000000" font-family="sans-serif" font-size="16.5" lengthAdjust="spacingAndGlyphs" textLength="151.5" x="740.25" y="213.8511">__init__(self, d, m, y)</text><ellipse cx="726.75" cy="230.1035" fill="#84BE84" rx="4.5" ry="4.5" style="stroke: #038048; stroke-width: 1.5;"/><text fill="#000000" font-family="sans-serif" font-size="16.5" lengthAdjust="spacingAndGlyphs" textLength="192" x="740.25" y="234.605">set_Calendar(self, d, m, y)</text><rect fill="#F24D5C" height="9" style="stroke: #C82930; stroke-width: 1.5;" width="9" x="722.25" y="246.3574"/><text fill="#000000" font-family="sans-serif" font-size="16.5" lengthAdjust="spacingAndGlyphs" textLength="94.5" x="740.25" y="255.3589">__str__(self)</text><ellipse cx="726.75" cy="271.6113" fill="#84BE84" rx="4.5" ry="4.5" style="stroke: #038048; stroke-width: 1.5;"/><text fill="#000000" font-family="sans-serif" font-size="16.5" lengthAdjust="spacingAndGlyphs" textLength="102" x="740.25" y="276.1128">advance(self)</text><!--class CalendarClock--><rect fill="#FFDEAD" filter="url(#f18pjhbagaqn8v)" height="134.2617" id="CalendarClock" style="stroke: #FFD700; stroke-width: 2.25;" width="424.5" x="426" y="375.9609"/><ellipse cx="570.375" cy="399.9609" fill="#ADD1B2" rx="16.5" ry="16.5" style="stroke: #FFD700; stroke-width: 1.5;"/><path d="M574.5234,393.7734 Q574.7578,393.4453 575.0391,393.2813 Q575.3203,393.1172 575.6484,393.1172 Q576.2109,393.1172 576.5625,393.5039 Q576.9141,393.8906 576.9141,394.8047 L576.9141,396.9844 Q576.9141,397.8984 576.5625,398.2969 Q576.2109,398.6953 575.6484,398.6953 Q575.1328,398.6953 574.8281,398.3906 Q574.5234,398.1094 574.3594,397.3359 Q574.2891,396.7969 574.0078,396.5156 Q573.5156,395.9531 572.6016,395.625 Q571.6875,395.2969 570.75,395.2969 Q569.6016,395.2969 568.6523,395.7891 Q567.7031,396.2813 566.9648,397.4063 Q566.2266,398.5313 566.2266,400.0781 L566.2266,401.7188 Q566.2266,403.5703 567.5625,404.8008 Q568.8984,406.0313 571.2891,406.0313 Q572.6953,406.0313 573.6797,405.6563 Q574.2656,405.4219 574.8984,404.7656 Q575.2969,404.3672 575.5195,404.25 Q575.7422,404.1328 576.0469,404.1328 Q576.5391,404.1328 576.9258,404.5195 Q577.3125,404.9063 577.3125,405.4219 Q577.3125,405.9375 576.7969,406.5469 Q576.0469,407.4141 574.8516,407.9063 Q573.2344,408.5859 571.2891,408.5859 Q569.0156,408.5859 567.2109,407.6484 Q565.7344,406.8984 564.7031,405.293 Q563.6719,403.6875 563.6719,401.7656 L563.6719,400.0313 Q563.6719,398.0391 564.5977,396.3164 Q565.5234,394.5938 567.1641,393.668 Q568.8047,392.7422 570.6563,392.7422 Q571.7578,392.7422 572.7305,392.9883 Q573.7031,393.2344 574.5234,393.7734 Z "/><text fill="#000000" font-family="sans-serif" font-size="18" lengthAdjust="spacingAndGlyphs" textLength="123" x="601.125" y="407.3262">CalendarClock</text><line style="stroke: #FFD700; stroke-width: 2.25;" x1="427.5" x2="849" y1="423.9609" y2="423.9609"/><line style="stroke: #FFD700; stroke-width: 2.25;" x1="427.5" x2="849" y1="435.9609" y2="435.9609"/><rect fill="#F24D5C" height="9" style="stroke: #C82930; stroke-width: 1.5;" width="9" x="438" y="450.0879"/><text fill="#000000" font-family="sans-serif" font-size="16.5" lengthAdjust="spacingAndGlyphs" textLength="385.5" x="456" y="459.0894">__init__(self, day, month, year, hour, minute, second)</text><ellipse cx="442.5" cy="475.3418" fill="#84BE84" rx="4.5" ry="4.5" style="stroke: #038048; stroke-width: 1.5;"/><text fill="#000000" font-family="sans-serif" font-size="16.5" lengthAdjust="spacingAndGlyphs" textLength="63" x="456" y="479.8433">tick(self)</text><rect fill="#F24D5C" height="9" style="stroke: #C82930; stroke-width: 1.5;" width="9" x="438" y="491.5957"/><text fill="#000000" font-family="sans-serif" font-size="16.5" lengthAdjust="spacingAndGlyphs" textLength="94.5" x="456" y="500.5972">__str__(self)</text><polygon fill="#FBFB77" filter="url(#f18pjhbagaqn8v)" points="903.75,399.2109,903.75,487.793,1122.75,487.793,1122.75,414.2109,1107.75,399.2109,903.75,399.2109" style="stroke: #A80036; stroke-width: 1.5;"/><polygon fill="#FBFB77" points="903.75,399.2109,903.75,487.793,1122.75,487.793,1122.75,414.2109,1107.75,399.2109,988.542,399.2109,902.2845,286.1649,976.542,399.2109,903.75,399.2109" style="stroke: #A80036; stroke-width: 1.5;"/><line style="stroke: #A80036; stroke-width: 1.5;" x1="1107.75" x2="1107.75" y1="399.2109" y2="414.2109"/><line style="stroke: #A80036; stroke-width: 1.5;" x1="1122.75" x2="1107.75" y1="414.2109" y2="414.2109"/><text fill="#000000" font-family="sans-serif" font-size="19.5" lengthAdjust="spacingAndGlyphs" textLength="27" x="912.75" y="426.9536">the</text><text fill="#000000" font-family="sans-serif" font-size="19.5" font-style="italic" lengthAdjust="spacingAndGlyphs" textLength="84" x="945.75" y="426.9536">advance()</text><text fill="#000000" font-family="sans-serif" font-size="19.5" lengthAdjust="spacingAndGlyphs" textLength="64.5" x="1035.75" y="426.9536">method</text><text fill="#000000" font-family="sans-serif" font-size="19.5" lengthAdjust="spacingAndGlyphs" textLength="157.5" x="912.75" y="451.481">advances the date</text><text fill="#000000" font-family="sans-serif" font-size="19.5" lengthAdjust="spacingAndGlyphs" textLength="102" x="912.75" y="476.0083">by one day,</text><polygon fill="#FBFB77" filter="url(#f18pjhbagaqn8v)" points="174.75,399.2109,174.75,487.793,372.75,487.793,372.75,414.2109,357.75,399.2109,174.75,399.2109" style="stroke: #A80036; stroke-width: 1.5;"/><polygon fill="#FBFB77" points="174.75,399.2109,174.75,487.793,372.75,487.793,372.75,414.2109,357.75,399.2109,281.9445,399.2109,283.3455,254.8539,269.9445,399.2109,174.75,399.2109" style="stroke: #A80036; stroke-width: 1.5;"/><line style="stroke: #A80036; stroke-width: 1.5;" x1="357.75" x2="357.75" y1="399.2109" y2="414.2109"/><line style="stroke: #A80036; stroke-width: 1.5;" x1="372.75" x2="357.75" y1="414.2109" y2="414.2109"/><text fill="#000000" font-family="sans-serif" font-size="19.5" lengthAdjust="spacingAndGlyphs" textLength="27" x="183.75" y="426.9536">the</text><text fill="#000000" font-family="sans-serif" font-size="19.5" font-style="italic" lengthAdjust="spacingAndGlyphs" textLength="45" x="216.75" y="426.9536">tick()</text><text fill="#000000" font-family="sans-serif" font-size="19.5" lengthAdjust="spacingAndGlyphs" textLength="64.5" x="267.75" y="426.9536">method</text><text fill="#000000" font-family="sans-serif" font-size="19.5" lengthAdjust="spacingAndGlyphs" textLength="166.5" x="183.75" y="451.481">advances the clock</text><text fill="#000000" font-family="sans-serif" font-size="19.5" lengthAdjust="spacingAndGlyphs" textLength="133.5" x="183.75" y="476.0083">by one second,</text><!--link Clock to CalendarClock--><path d="M412.896,272.9454 C458.2125,306.9324 508.365,344.5464 549.8295,375.6461 " fill="none" id="Clock-CalendarClock" style="stroke: #191970; stroke-width: 1.5;"/><polygon fill="none" points="406.0035,280.8999,388.3035,254.4999,418.6035,264.0999,406.0035,280.8999" style="stroke: #191970; stroke-width: 1.5;"/><!--link Calendar to CalendarClock--><path d="M731.3385,311.2644 C715.4265,333.6039 699.5415,355.9089 685.5135,375.6029 " fill="none" id="Calendar-CalendarClock" style="stroke: #191970; stroke-width: 1.5;"/><polygon fill="none" points="723.2595,304.5084,749.2155,286.1649,740.364,316.6914,723.2595,304.5084" style="stroke: #191970; stroke-width: 1.5;"/><text fill="#000000" font-family="monospace" font-size="21" lengthAdjust="spacingAndGlyphs" textLength="1260" x="0" y="547.0737">(File not found: C:\Users\apgiles\DFC\Architecture\src\python\py2puml\examples\cal_clock3\img_footer.png)</text><!--
@startuml
scale 1.5
skinparam backgroundcolor AntiqueWhite/Gold
skinparam title {
BorderRoundCorner 15
BorderThickness 2
BorderColor MidnightBlue
BackgroundColor Aqua-CadetBlue
}
skinparam class {
BackgroundColor NavajoWhite
ArrowColor MidnightBlue
BorderColor Gold
}
title "Multiple inheritance example"
center footer <img:img_footer.png>

class Clock {
  -__init__(self, hours, minutes, seconds)
  +set_Clock(self, hours, minutes, seconds)
  -__str__(self)
  +tick(self)
}

class Calendar {
  {static} +months
  {static} +date_style
  +leapyear(year){static}
  -__init__(self, d, m, y)
  +set_Calendar(self, d, m, y)
  -__str__(self)
  +advance(self)
}

Clock <|- - CalendarClock
Calendar <|- - CalendarClock
class CalendarClock {
  -__init__(self, day, month, year, hour, minute, second)
  +tick(self)
  -__str__(self)
}

note bottom of Calendar
the <i>advance()</i> method
advances the date
by one day,
end note
''
note bottom of Clock
the <i>tick()</i> method
advances the clock
by one second,
end note

@enduml

PlantUML version 1.2017.19(Sun Nov 12 22:46:22 AEDT 2017)
(GPL source distribution)
Java Runtime: Java(TM) SE Runtime Environment
JVM: Java HotSpot(TM) 64-Bit Server VM
Java Version: 1.8.0_151-b12
Operating System: Windows Server 2012 R2
OS Version: 6.3
Default Encoding: UTF-8
Language: en
Country: US
--></g></svg>