<?xml version="1.0" encoding="UTF-8" standalone="no"?><svg xmlns="http://www.w3.org/2000/svg" xmlns:xlink="http://www.w3.org/1999/xlink" contentScriptType="application/ecmascript" contentStyleType="text/css" height="792px" preserveAspectRatio="none" style="width:538px;height:792px;" version="1.1" viewBox="0 0 538 792" width="538px" zoomAndPan="magnify"><defs><filter height="300%" id="f1tetyzydlti26" width="300%" x="-1" y="-1"><feGaussianBlur result="blurOut" stdDeviation="4.0"/><feColorMatrix in="blurOut" result="blurOut2" type="matrix" values="0 0 0 0 0 0 0 0 0 0 0 0 0 0 0 0 0 0 .4 0"/><feOffset dx="8.0" dy="8.0" in="blurOut2" result="blurOut3"/><feBlend in="SourceGraphic" in2="blurOut3" mode="normal"/></filter></defs><g><!--cluster dbdia2sql--><polygon fill="#FFFFFF" filter="url(#f1tetyzydlti26)" points="44,48,192,48,206,95.2188,494,95.2188,494,768,44,768,44,48" style="stroke: #000000; stroke-width: 4.0;"/><line style="stroke: #000000; stroke-width: 4.0;" x1="44" x2="206" y1="95.2188" y2="95.2188"/><text fill="#000000" font-family="sans-serif" font-size="28" font-weight="bold" lengthAdjust="spacingAndGlyphs" textLength="136" x="52" y="81.0664">dbdia2sql</text><!--class dbdia2sql.Table--><rect fill="#F8F8F8" filter="url(#f1tetyzydlti26)" height="234.3594" id="dbdia2sql.Table" style="stroke: #383838; stroke-width: 3.0;" width="126" x="77" y="134"/><ellipse cx="107" cy="166" fill="#C2C2C2" rx="22" ry="22" style="stroke: #383838; stroke-width: 2.0;"/><path d="M112.5313,157.75 Q112.8438,157.3125 113.2188,157.0938 Q113.5938,156.875 114.0313,156.875 Q114.7813,156.875 115.25,157.3906 Q115.7188,157.9063 115.7188,159.125 L115.7188,162.0313 Q115.7188,163.25 115.25,163.7813 Q114.7813,164.3125 114.0313,164.3125 Q113.3438,164.3125 112.9375,163.9063 Q112.5313,163.5313 112.3125,162.5 Q112.2188,161.7813 111.8438,161.4063 Q111.1875,160.6563 109.9688,160.2188 Q108.75,159.7813 107.5,159.7813 Q105.9688,159.7813 104.7031,160.4375 Q103.4375,161.0938 102.4531,162.5938 Q101.4688,164.0938 101.4688,166.1563 L101.4688,168.3438 Q101.4688,170.8125 103.25,172.4531 Q105.0313,174.0938 108.2188,174.0938 Q110.0938,174.0938 111.4063,173.5938 Q112.1875,173.2813 113.0313,172.4063 Q113.5625,171.875 113.8594,171.7188 Q114.1563,171.5625 114.5625,171.5625 Q115.2188,171.5625 115.7344,172.0781 Q116.25,172.5938 116.25,173.2813 Q116.25,173.9688 115.5625,174.7813 Q114.5625,175.9375 112.9688,176.5938 Q110.8125,177.5 108.2188,177.5 Q105.1875,177.5 102.7813,176.25 Q100.8125,175.25 99.4375,173.1094 Q98.0625,170.9688 98.0625,168.4063 L98.0625,166.0938 Q98.0625,163.4375 99.2969,161.1406 Q100.5313,158.8438 102.7188,157.6094 Q104.9063,156.375 107.375,156.375 Q108.8438,156.375 110.1406,156.7031 Q111.4375,157.0313 112.5313,157.75 Z "/><text fill="#000000" font-family="sans-serif" font-size="24" lengthAdjust="spacingAndGlyphs" textLength="62" x="135" y="175.8203">Table</text><line style="stroke: #383838; stroke-width: 3.0;" x1="79" x2="201" y1="198" y2="198"/><text fill="#000000" font-family="sans-serif" font-size="22" lengthAdjust="spacingAndGlyphs" textLength="64" x="89" y="228.8379">+name</text><text fill="#000000" font-family="sans-serif" font-size="22" lengthAdjust="spacingAndGlyphs" textLength="64" x="89" y="256.5098">+fields</text><line style="stroke: #383838; stroke-width: 3.0;" x1="79" x2="201" y1="269.3438" y2="269.3438"/><text fill="#000000" font-family="sans-serif" font-size="22" lengthAdjust="spacingAndGlyphs" textLength="98" x="89" y="300.1816">-__init__()</text><text fill="#000000" font-family="sans-serif" font-size="22" lengthAdjust="spacingAndGlyphs" textLength="84" x="89" y="327.8535">+parse()</text><text fill="#000000" font-family="sans-serif" font-size="22" lengthAdjust="spacingAndGlyphs" textLength="56" x="89" y="355.5254">+sql()</text><!--class dbdia2sql.ForeignKey--><rect fill="#F8F8F8" filter="url(#f1tetyzydlti26)" height="262.0313" id="dbdia2sql.ForeignKey" style="stroke: #383838; stroke-width: 3.0;" width="188" x="274" y="120"/><ellipse cx="304" cy="152" fill="#C2C2C2" rx="22" ry="22" style="stroke: #383838; stroke-width: 2.0;"/><path d="M309.5313,143.75 Q309.8438,143.3125 310.2188,143.0938 Q310.5938,142.875 311.0313,142.875 Q311.7813,142.875 312.25,143.3906 Q312.7188,143.9063 312.7188,145.125 L312.7188,148.0313 Q312.7188,149.25 312.25,149.7813 Q311.7813,150.3125 311.0313,150.3125 Q310.3438,150.3125 309.9375,149.9063 Q309.5313,149.5313 309.3125,148.5 Q309.2188,147.7813 308.8438,147.4063 Q308.1875,146.6563 306.9688,146.2188 Q305.75,145.7813 304.5,145.7813 Q302.9688,145.7813 301.7031,146.4375 Q300.4375,147.0938 299.4531,148.5938 Q298.4688,150.0938 298.4688,152.1563 L298.4688,154.3438 Q298.4688,156.8125 300.25,158.4531 Q302.0313,160.0938 305.2188,160.0938 Q307.0938,160.0938 308.4063,159.5938 Q309.1875,159.2813 310.0313,158.4063 Q310.5625,157.875 310.8594,157.7188 Q311.1563,157.5625 311.5625,157.5625 Q312.2188,157.5625 312.7344,158.0781 Q313.25,158.5938 313.25,159.2813 Q313.25,159.9688 312.5625,160.7813 Q311.5625,161.9375 309.9688,162.5938 Q307.8125,163.5 305.2188,163.5 Q302.1875,163.5 299.7813,162.25 Q297.8125,161.25 296.4375,159.1094 Q295.0625,156.9688 295.0625,154.4063 L295.0625,152.0938 Q295.0625,149.4375 296.2969,147.1406 Q297.5313,144.8438 299.7188,143.6094 Q301.9063,142.375 304.375,142.375 Q305.8438,142.375 307.1406,142.7031 Q308.4375,143.0313 309.5313,143.75 Z "/><text fill="#000000" font-family="sans-serif" font-size="24" lengthAdjust="spacingAndGlyphs" textLength="124" x="332" y="161.8203">ForeignKey</text><line style="stroke: #383838; stroke-width: 3.0;" x1="276" x2="460" y1="184" y2="184"/><text fill="#000000" font-family="sans-serif" font-size="22" lengthAdjust="spacingAndGlyphs" textLength="138" x="286" y="214.8379">+source_table</text><text fill="#000000" font-family="sans-serif" font-size="22" lengthAdjust="spacingAndGlyphs" textLength="132" x="286" y="242.5098">+source_field</text><text fill="#000000" font-family="sans-serif" font-size="22" lengthAdjust="spacingAndGlyphs" textLength="126" x="286" y="270.1816">+target_table</text><text fill="#000000" font-family="sans-serif" font-size="22" lengthAdjust="spacingAndGlyphs" textLength="120" x="286" y="297.8535">+target_field</text><line style="stroke: #383838; stroke-width: 3.0;" x1="276" x2="460" y1="310.6875" y2="310.6875"/><text fill="#000000" font-family="sans-serif" font-size="22" lengthAdjust="spacingAndGlyphs" textLength="98" x="286" y="341.5254">-__init__()</text><text fill="#000000" font-family="sans-serif" font-size="22" lengthAdjust="spacingAndGlyphs" textLength="84" x="286" y="369.1973">+parse()</text><!--class dbdia2sql.PUMLReader--><rect fill="#F8F8F8" filter="url(#f1tetyzydlti26)" height="234.3594" id="dbdia2sql.PUMLReader" style="stroke: #383838; stroke-width: 3.0;" width="212" x="76" y="502"/><ellipse cx="106" cy="534" fill="#C2C2C2" rx="22" ry="22" style="stroke: #383838; stroke-width: 2.0;"/><path d="M111.5313,525.75 Q111.8438,525.3125 112.2188,525.0938 Q112.5938,524.875 113.0313,524.875 Q113.7813,524.875 114.25,525.3906 Q114.7188,525.9063 114.7188,527.125 L114.7188,530.0313 Q114.7188,531.25 114.25,531.7813 Q113.7813,532.3125 113.0313,532.3125 Q112.3438,532.3125 111.9375,531.9063 Q111.5313,531.5313 111.3125,530.5 Q111.2188,529.7813 110.8438,529.4063 Q110.1875,528.6563 108.9688,528.2188 Q107.75,527.7813 106.5,527.7813 Q104.9688,527.7813 103.7031,528.4375 Q102.4375,529.0938 101.4531,530.5938 Q100.4688,532.0938 100.4688,534.1563 L100.4688,536.3438 Q100.4688,538.8125 102.25,540.4531 Q104.0313,542.0938 107.2188,542.0938 Q109.0938,542.0938 110.4063,541.5938 Q111.1875,541.2813 112.0313,540.4063 Q112.5625,539.875 112.8594,539.7188 Q113.1563,539.5625 113.5625,539.5625 Q114.2188,539.5625 114.7344,540.0781 Q115.25,540.5938 115.25,541.2813 Q115.25,541.9688 114.5625,542.7813 Q113.5625,543.9375 111.9688,544.5938 Q109.8125,545.5 107.2188,545.5 Q104.1875,545.5 101.7813,544.25 Q99.8125,543.25 98.4375,541.1094 Q97.0625,538.9688 97.0625,536.4063 L97.0625,534.0938 Q97.0625,531.4375 98.2969,529.1406 Q99.5313,526.8438 101.7188,525.6094 Q103.9063,524.375 106.375,524.375 Q107.8438,524.375 109.1406,524.7031 Q110.4375,525.0313 111.5313,525.75 Z "/><text fill="#000000" font-family="sans-serif" font-size="24" lengthAdjust="spacingAndGlyphs" textLength="148" x="134" y="543.8203">PUMLReader</text><line style="stroke: #383838; stroke-width: 3.0;" x1="78" x2="286" y1="566" y2="566"/><text fill="#000000" font-family="sans-serif" font-size="22" lengthAdjust="spacingAndGlyphs" textLength="110" x="88" y="596.8379">+keywords</text><text fill="#000000" font-family="sans-serif" font-size="22" lengthAdjust="spacingAndGlyphs" textLength="70" x="88" y="624.5098">+tables</text><line style="stroke: #383838; stroke-width: 3.0;" x1="78" x2="286" y1="637.3438" y2="637.3438"/><text fill="#000000" font-family="sans-serif" font-size="22" lengthAdjust="spacingAndGlyphs" textLength="98" x="88" y="668.1816">-__init__()</text><text fill="#000000" font-family="sans-serif" font-size="22" lengthAdjust="spacingAndGlyphs" textLength="84" x="88" y="695.8535">+parse()</text><text fill="#000000" font-family="sans-serif" font-size="22" lengthAdjust="spacingAndGlyphs" textLength="56" x="88" y="723.5254">+sql()</text><!--link dbdia2sql.Table to dbdia2sql.ForeignKey--><!--link dbdia2sql.Table to dbdia2sql.PUMLReader--><!--
@startuml
skinparam monochrome true
skinparam classAttributeIconSize 0
scale 2

namespace dbdia2sql {

	class Table {
		+name
		+fields
		-__init__()
		+parse()
		+sql()
	}

	class ForeignKey {
		+source_table
		+source_field
		+target_table
		+target_field
		-__init__()
		+parse()
	}

	class PUMLReader {
		+keywords
		+tables
		-__init__()
		+parse()
		+sql()
	}

}
@enduml

PlantUML version 1.2017.19(Sun Nov 12 22:46:22 AEDT 2017)
(GPL source distribution)
Java Runtime: Java(TM) SE Runtime Environment
JVM: Java HotSpot(TM) 64-Bit Server VM
Java Version: 1.8.0_151-b12
Operating System: Windows Server 2012 R2
OS Version: 6.3
Default Encoding: UTF-8
Language: en
Country: US
--></g></svg>