<?xml version="1.0" encoding="UTF-8" standalone="no"?><svg xmlns="http://www.w3.org/2000/svg" xmlns:xlink="http://www.w3.org/1999/xlink" contentScriptType="application/ecmascript" contentStyleType="text/css" height="924px" preserveAspectRatio="none" style="width:482px;height:924px;" version="1.1" viewBox="0 0 482 924" width="482px" zoomAndPan="magnify"><defs><filter height="300%" id="f3tbvdacv17pj" width="300%" x="-1" y="-1"><feGaussianBlur result="blurOut" stdDeviation="4.0"/><feColorMatrix in="blurOut" result="blurOut2" type="matrix" values="0 0 0 0 0 0 0 0 0 0 0 0 0 0 0 0 0 0 .4 0"/><feOffset dx="8.0" dy="8.0" in="blurOut2" result="blurOut3"/><feBlend in="SourceGraphic" in2="blurOut3" mode="normal"/></filter></defs><g><!--class PUMLReader--><rect fill="#F8F8F8" filter="url(#f3tbvdacv17pj)" height="234.3594" id="PUMLReader" style="stroke: #383838; stroke-width: 3.0;" width="212" x="12" y="16"/><ellipse cx="42" cy="48" fill="#C2C2C2" rx="22" ry="22" style="stroke: #383838; stroke-width: 2.0;"/><path d="M47.5313,39.75 Q47.8438,39.3125 48.2188,39.0938 Q48.5938,38.875 49.0313,38.875 Q49.7813,38.875 50.25,39.3906 Q50.7188,39.9063 50.7188,41.125 L50.7188,44.0313 Q50.7188,45.25 50.25,45.7813 Q49.7813,46.3125 49.0313,46.3125 Q48.3438,46.3125 47.9375,45.9063 Q47.5313,45.5313 47.3125,44.5 Q47.2188,43.7813 46.8438,43.4063 Q46.1875,42.6563 44.9688,42.2188 Q43.75,41.7813 42.5,41.7813 Q40.9688,41.7813 39.7031,42.4375 Q38.4375,43.0938 37.4531,44.5938 Q36.4688,46.0938 36.4688,48.1563 L36.4688,50.3438 Q36.4688,52.8125 38.25,54.4531 Q40.0313,56.0938 43.2188,56.0938 Q45.0938,56.0938 46.4063,55.5938 Q47.1875,55.2813 48.0313,54.4063 Q48.5625,53.875 48.8594,53.7188 Q49.1563,53.5625 49.5625,53.5625 Q50.2188,53.5625 50.7344,54.0781 Q51.25,54.5938 51.25,55.2813 Q51.25,55.9688 50.5625,56.7813 Q49.5625,57.9375 47.9688,58.5938 Q45.8125,59.5 43.2188,59.5 Q40.1875,59.5 37.7813,58.25 Q35.8125,57.25 34.4375,55.1094 Q33.0625,52.9688 33.0625,50.4063 L33.0625,48.0938 Q33.0625,45.4375 34.2969,43.1406 Q35.5313,40.8438 37.7188,39.6094 Q39.9063,38.375 42.375,38.375 Q43.8438,38.375 45.1406,38.7031 Q46.4375,39.0313 47.5313,39.75 Z "/><text fill="#000000" font-family="sans-serif" font-size="24" lengthAdjust="spacingAndGlyphs" textLength="148" x="70" y="57.8203">PUMLReader</text><line style="stroke: #383838; stroke-width: 3.0;" x1="14" x2="222" y1="80" y2="80"/><text fill="#000000" font-family="sans-serif" font-size="22" lengthAdjust="spacingAndGlyphs" text-decoration="underline" textLength="110" x="24" y="110.8379">+keywords</text><line style="stroke: #000000; stroke-width: 1.0;" x1="24" x2="134" y1="114.8379" y2="114.8379"/><text fill="#000000" font-family="sans-serif" font-size="22" lengthAdjust="spacingAndGlyphs" textLength="70" x="24" y="138.5098">+tables</text><line style="stroke: #383838; stroke-width: 3.0;" x1="14" x2="222" y1="151.3438" y2="151.3438"/><text fill="#000000" font-family="sans-serif" font-size="22" lengthAdjust="spacingAndGlyphs" textLength="134" x="24" y="182.1816">-__init__(self)</text><text fill="#000000" font-family="sans-serif" font-size="22" lengthAdjust="spacingAndGlyphs" textLength="176" x="24" y="209.8535">+parse(self, lines)</text><text fill="#000000" font-family="sans-serif" font-size="22" lengthAdjust="spacingAndGlyphs" textLength="92" x="24" y="237.5254">+sql(self)</text><!--class Table--><rect fill="#F8F8F8" filter="url(#f3tbvdacv17pj)" height="234.3594" id="Table" style="stroke: #383838; stroke-width: 3.0;" width="200" x="18" y="370"/><ellipse cx="81.3" cy="402" fill="#C2C2C2" rx="22" ry="22" style="stroke: #383838; stroke-width: 2.0;"/><path d="M86.8313,393.75 Q87.1438,393.3125 87.5188,393.0938 Q87.8938,392.875 88.3313,392.875 Q89.0813,392.875 89.55,393.3906 Q90.0188,393.9063 90.0188,395.125 L90.0188,398.0313 Q90.0188,399.25 89.55,399.7813 Q89.0813,400.3125 88.3313,400.3125 Q87.6438,400.3125 87.2375,399.9063 Q86.8313,399.5313 86.6125,398.5 Q86.5188,397.7813 86.1438,397.4063 Q85.4875,396.6563 84.2688,396.2188 Q83.05,395.7813 81.8,395.7813 Q80.2688,395.7813 79.0031,396.4375 Q77.7375,397.0938 76.7531,398.5938 Q75.7688,400.0938 75.7688,402.1563 L75.7688,404.3438 Q75.7688,406.8125 77.55,408.4531 Q79.3313,410.0938 82.5188,410.0938 Q84.3938,410.0938 85.7063,409.5938 Q86.4875,409.2813 87.3313,408.4063 Q87.8625,407.875 88.1594,407.7188 Q88.4563,407.5625 88.8625,407.5625 Q89.5188,407.5625 90.0344,408.0781 Q90.55,408.5938 90.55,409.2813 Q90.55,409.9688 89.8625,410.7813 Q88.8625,411.9375 87.2688,412.5938 Q85.1125,413.5 82.5188,413.5 Q79.4875,413.5 77.0813,412.25 Q75.1125,411.25 73.7375,409.1094 Q72.3625,406.9688 72.3625,404.4063 L72.3625,402.0938 Q72.3625,399.4375 73.5969,397.1406 Q74.8313,394.8438 77.0188,393.6094 Q79.2063,392.375 81.675,392.375 Q83.1438,392.375 84.4406,392.7031 Q85.7375,393.0313 86.8313,393.75 Z "/><text fill="#000000" font-family="sans-serif" font-size="24" lengthAdjust="spacingAndGlyphs" textLength="62" x="116.7" y="411.8203">Table</text><line style="stroke: #383838; stroke-width: 3.0;" x1="20" x2="216" y1="434" y2="434"/><text fill="#000000" font-family="sans-serif" font-size="22" lengthAdjust="spacingAndGlyphs" textLength="64" x="30" y="464.8379">+name</text><text fill="#000000" font-family="sans-serif" font-size="22" lengthAdjust="spacingAndGlyphs" textLength="64" x="30" y="492.5098">+fields</text><line style="stroke: #383838; stroke-width: 3.0;" x1="20" x2="216" y1="505.3438" y2="505.3438"/><text fill="#000000" font-family="sans-serif" font-size="22" lengthAdjust="spacingAndGlyphs" textLength="134" x="30" y="536.1816">-__init__(self)</text><text fill="#000000" font-family="sans-serif" font-size="22" lengthAdjust="spacingAndGlyphs" textLength="176" x="30" y="563.8535">+parse(self, lines)</text><text fill="#000000" font-family="sans-serif" font-size="22" lengthAdjust="spacingAndGlyphs" textLength="92" x="30" y="591.5254">+sql(self)</text><!--class TestCase--><rect fill="#F8F8F8" filter="url(#f3tbvdacv17pj)" height="96" id="TestCase" style="stroke: #383838; stroke-width: 3.0;" width="172" x="288" y="439"/><ellipse cx="318" cy="471" fill="#C2C2C2" rx="22" ry="22" style="stroke: #383838; stroke-width: 2.0;"/><path d="M323.5313,462.75 Q323.8438,462.3125 324.2188,462.0938 Q324.5938,461.875 325.0313,461.875 Q325.7813,461.875 326.25,462.3906 Q326.7188,462.9063 326.7188,464.125 L326.7188,467.0313 Q326.7188,468.25 326.25,468.7813 Q325.7813,469.3125 325.0313,469.3125 Q324.3438,469.3125 323.9375,468.9063 Q323.5313,468.5313 323.3125,467.5 Q323.2188,466.7813 322.8438,466.4063 Q322.1875,465.6563 320.9688,465.2188 Q319.75,464.7813 318.5,464.7813 Q316.9688,464.7813 315.7031,465.4375 Q314.4375,466.0938 313.4531,467.5938 Q312.4688,469.0938 312.4688,471.1563 L312.4688,473.3438 Q312.4688,475.8125 314.25,477.4531 Q316.0313,479.0938 319.2188,479.0938 Q321.0938,479.0938 322.4063,478.5938 Q323.1875,478.2813 324.0313,477.4063 Q324.5625,476.875 324.8594,476.7188 Q325.1563,476.5625 325.5625,476.5625 Q326.2188,476.5625 326.7344,477.0781 Q327.25,477.5938 327.25,478.2813 Q327.25,478.9688 326.5625,479.7813 Q325.5625,480.9375 323.9688,481.5938 Q321.8125,482.5 319.2188,482.5 Q316.1875,482.5 313.7813,481.25 Q311.8125,480.25 310.4375,478.1094 Q309.0625,475.9688 309.0625,473.4063 L309.0625,471.0938 Q309.0625,468.4375 310.2969,466.1406 Q311.5313,463.8438 313.7188,462.6094 Q315.9063,461.375 318.375,461.375 Q319.8438,461.375 321.1406,461.7031 Q322.4375,462.0313 323.5313,462.75 Z "/><text fill="#000000" font-family="sans-serif" font-size="24" lengthAdjust="spacingAndGlyphs" textLength="108" x="346" y="480.8203">TestCase</text><line style="stroke: #383838; stroke-width: 3.0;" x1="290" x2="458" y1="503" y2="503"/><line style="stroke: #383838; stroke-width: 3.0;" x1="290" x2="458" y1="519" y2="519"/><!--class TestTable--><rect fill="#F8F8F8" filter="url(#f3tbvdacv17pj)" height="179.0156" id="TestTable" style="stroke: #383838; stroke-width: 3.0;" width="192" x="150" y="724"/><ellipse cx="188.1" cy="756" fill="#C2C2C2" rx="22" ry="22" style="stroke: #383838; stroke-width: 2.0;"/><path d="M193.6313,747.75 Q193.9438,747.3125 194.3188,747.0938 Q194.6938,746.875 195.1313,746.875 Q195.8813,746.875 196.35,747.3906 Q196.8188,747.9063 196.8188,749.125 L196.8188,752.0313 Q196.8188,753.25 196.35,753.7813 Q195.8813,754.3125 195.1313,754.3125 Q194.4438,754.3125 194.0375,753.9063 Q193.6313,753.5313 193.4125,752.5 Q193.3188,751.7813 192.9438,751.4063 Q192.2875,750.6563 191.0688,750.2188 Q189.85,749.7813 188.6,749.7813 Q187.0688,749.7813 185.8031,750.4375 Q184.5375,751.0938 183.5531,752.5938 Q182.5688,754.0938 182.5688,756.1563 L182.5688,758.3438 Q182.5688,760.8125 184.35,762.4531 Q186.1313,764.0938 189.3188,764.0938 Q191.1938,764.0938 192.5063,763.5938 Q193.2875,763.2813 194.1313,762.4063 Q194.6625,761.875 194.9594,761.7188 Q195.2563,761.5625 195.6625,761.5625 Q196.3188,761.5625 196.8344,762.0781 Q197.35,762.5938 197.35,763.2813 Q197.35,763.9688 196.6625,764.7813 Q195.6625,765.9375 194.0688,766.5938 Q191.9125,767.5 189.3188,767.5 Q186.2875,767.5 183.8813,766.25 Q181.9125,765.25 180.5375,763.1094 Q179.1625,760.9688 179.1625,758.4063 L179.1625,756.0938 Q179.1625,753.4375 180.3969,751.1406 Q181.6313,748.8438 183.8188,747.6094 Q186.0063,746.375 188.475,746.375 Q189.9438,746.375 191.2406,746.7031 Q192.5375,747.0313 193.6313,747.75 Z "/><text fill="#000000" font-family="sans-serif" font-size="24" lengthAdjust="spacingAndGlyphs" textLength="110" x="217.9" y="765.8203">TestTable</text><line style="stroke: #383838; stroke-width: 3.0;" x1="152" x2="340" y1="788" y2="788"/><line style="stroke: #383838; stroke-width: 3.0;" x1="152" x2="340" y1="804" y2="804"/><text fill="#000000" font-family="sans-serif" font-size="22" lengthAdjust="spacingAndGlyphs" textLength="120" x="162" y="834.8379">+setUp(self)</text><text fill="#000000" font-family="sans-serif" font-size="22" lengthAdjust="spacingAndGlyphs" textLength="168" x="162" y="862.5098">+test_parse(self)</text><text fill="#000000" font-family="sans-serif" font-size="22" lengthAdjust="spacingAndGlyphs" textLength="140" x="162" y="890.1816">+test_sql(self)</text><!--link TestCase to TestTable--><path d="M340.872,572.596 C322.488,618.99 299.632,676.662 280.962,723.7756 " fill="none" id="TestCase-TestTable" style="stroke: #383838; stroke-width: 2.0;"/><polygon fill="none" points="327.908,567.306,355.66,535.278,353.94,577.622,327.908,567.306" style="stroke: #383838; stroke-width: 2.0;"/><!--link Table to TestTable--><path d="M178.7748,642.362 C189.8712,670.362 201.0972,698.69 211.114,723.9672 " fill="none" id="Table-TestTable" style="stroke: #383838; stroke-width: 2.0;"/><polygon fill="none" points="165.5706,647.042,163.8494,604.698,191.6012,636.726,165.5706,647.042" style="stroke: #383838; stroke-width: 2.0;"/><!--link PUMLReader to Table--><path d="M118,277.118 C118,307.852 118,339.986 118,369.548 " fill="none" id="PUMLReader-Table" style="stroke: #383838; stroke-width: 2.0;"/><polygon fill="#FFFFFF" points="118,250.574,110,262.574,118,274.574,126,262.574,118,250.574" style="stroke: #383838; stroke-width: 2.0;"/><!--
@startuml
skinparam monochrome true
skinparam classAttributeIconSize 0
scale 2

class PUMLReader {
  {static} +keywords
  +tables
  -__init__(self)
  +parse(self, lines)
  +sql(self)
}

class Table {
  +name
  +fields
  -__init__(self)
  +parse(self, lines)
  +sql(self)
}

TestCase <|- - TestTable
Table <|- - TestTable
class TestTable {
  +setUp(self)
  +test_parse(self)
  +test_sql(self)
}

PUMLReader o- - Table

@enduml

PlantUML version 1.2017.19(Sun Nov 12 22:46:22 AEDT 2017)
(GPL source distribution)
Java Runtime: Java(TM) SE Runtime Environment
JVM: Java HotSpot(TM) 64-Bit Server VM
Java Version: 1.8.0_151-b12
Operating System: Windows Server 2012 R2
OS Version: 6.3
Default Encoding: UTF-8
Language: en
Country: US
--></g></svg>