<?xml version="1.0" encoding="UTF-8" standalone="no"?><svg xmlns="http://www.w3.org/2000/svg" xmlns:xlink="http://www.w3.org/1999/xlink" contentScriptType="application/ecmascript" contentStyleType="text/css" height="820px" preserveAspectRatio="none" style="width:878px;height:820px;" version="1.1" viewBox="0 0 878 820" width="878px" zoomAndPan="magnify"><defs><filter height="300%" id="fs4se7k6xidhk" width="300%" x="-1" y="-1"><feGaussianBlur result="blurOut" stdDeviation="4.0"/><feColorMatrix in="blurOut" result="blurOut2" type="matrix" values="0 0 0 0 0 0 0 0 0 0 0 0 0 0 0 0 0 0 .4 0"/><feOffset dx="8.0" dy="8.0" in="blurOut2" result="blurOut3"/><feBlend in="SourceGraphic" in2="blurOut3" mode="normal"/></filter></defs><g><!--class ValueError--><rect fill="#F8F8F8" filter="url(#fs4se7k6xidhk)" height="96" id="ValueError" style="stroke: #383838; stroke-width: 3.0;" width="180" x="54" y="127"/><ellipse cx="84" cy="159" fill="#C2C2C2" rx="22" ry="22" style="stroke: #383838; stroke-width: 2.0;"/><path d="M89.5313,150.75 Q89.8438,150.3125 90.2188,150.0938 Q90.5938,149.875 91.0313,149.875 Q91.7813,149.875 92.25,150.3906 Q92.7188,150.9063 92.7188,152.125 L92.7188,155.0313 Q92.7188,156.25 92.25,156.7813 Q91.7813,157.3125 91.0313,157.3125 Q90.3438,157.3125 89.9375,156.9063 Q89.5313,156.5313 89.3125,155.5 Q89.2188,154.7813 88.8438,154.4063 Q88.1875,153.6563 86.9688,153.2188 Q85.75,152.7813 84.5,152.7813 Q82.9688,152.7813 81.7031,153.4375 Q80.4375,154.0938 79.4531,155.5938 Q78.4688,157.0938 78.4688,159.1563 L78.4688,161.3438 Q78.4688,163.8125 80.25,165.4531 Q82.0313,167.0938 85.2188,167.0938 Q87.0938,167.0938 88.4063,166.5938 Q89.1875,166.2813 90.0313,165.4063 Q90.5625,164.875 90.8594,164.7188 Q91.1563,164.5625 91.5625,164.5625 Q92.2188,164.5625 92.7344,165.0781 Q93.25,165.5938 93.25,166.2813 Q93.25,166.9688 92.5625,167.7813 Q91.5625,168.9375 89.9688,169.5938 Q87.8125,170.5 85.2188,170.5 Q82.1875,170.5 79.7813,169.25 Q77.8125,168.25 76.4375,166.1094 Q75.0625,163.9688 75.0625,161.4063 L75.0625,159.0938 Q75.0625,156.4375 76.2969,154.1406 Q77.5313,151.8438 79.7188,150.6094 Q81.9063,149.375 84.375,149.375 Q85.8438,149.375 87.1406,149.7031 Q88.4375,150.0313 89.5313,150.75 Z "/><text fill="#000000" font-family="sans-serif" font-size="24" lengthAdjust="spacingAndGlyphs" textLength="116" x="112" y="168.8203">ValueError</text><line style="stroke: #383838; stroke-width: 3.0;" x1="56" x2="232" y1="191" y2="191"/><line style="stroke: #383838; stroke-width: 3.0;" x1="56" x2="232" y1="207" y2="207"/><!--class NoTableException--><rect fill="#F8F8F8" filter="url(#fs4se7k6xidhk)" height="96" id="NoTableException" style="stroke: #383838; stroke-width: 3.0;" width="264" x="12" y="579"/><ellipse cx="42" cy="611" fill="#C2C2C2" rx="22" ry="22" style="stroke: #383838; stroke-width: 2.0;"/><path d="M47.5313,602.75 Q47.8438,602.3125 48.2188,602.0938 Q48.5938,601.875 49.0313,601.875 Q49.7813,601.875 50.25,602.3906 Q50.7188,602.9063 50.7188,604.125 L50.7188,607.0313 Q50.7188,608.25 50.25,608.7813 Q49.7813,609.3125 49.0313,609.3125 Q48.3438,609.3125 47.9375,608.9063 Q47.5313,608.5313 47.3125,607.5 Q47.2188,606.7813 46.8438,606.4063 Q46.1875,605.6563 44.9688,605.2188 Q43.75,604.7813 42.5,604.7813 Q40.9688,604.7813 39.7031,605.4375 Q38.4375,606.0938 37.4531,607.5938 Q36.4688,609.0938 36.4688,611.1563 L36.4688,613.3438 Q36.4688,615.8125 38.25,617.4531 Q40.0313,619.0938 43.2188,619.0938 Q45.0938,619.0938 46.4063,618.5938 Q47.1875,618.2813 48.0313,617.4063 Q48.5625,616.875 48.8594,616.7188 Q49.1563,616.5625 49.5625,616.5625 Q50.2188,616.5625 50.7344,617.0781 Q51.25,617.5938 51.25,618.2813 Q51.25,618.9688 50.5625,619.7813 Q49.5625,620.9375 47.9688,621.5938 Q45.8125,622.5 43.2188,622.5 Q40.1875,622.5 37.7813,621.25 Q35.8125,620.25 34.4375,618.1094 Q33.0625,615.9688 33.0625,613.4063 L33.0625,611.0938 Q33.0625,608.4375 34.2969,606.1406 Q35.5313,603.8438 37.7188,602.6094 Q39.9063,601.375 42.375,601.375 Q43.8438,601.375 45.1406,601.7031 Q46.4375,602.0313 47.5313,602.75 Z "/><text fill="#000000" font-family="sans-serif" font-size="24" lengthAdjust="spacingAndGlyphs" textLength="200" x="70" y="620.8203">NoTableException</text><line style="stroke: #383838; stroke-width: 3.0;" x1="14" x2="274" y1="643" y2="643"/><line style="stroke: #383838; stroke-width: 3.0;" x1="14" x2="274" y1="659" y2="659"/><!--class SQLParseTables--><rect fill="#F8F8F8" filter="url(#fs4se7k6xidhk)" height="317.375" id="SQLParseTables" style="stroke: #383838; stroke-width: 3.0;" width="510" x="347" y="16"/><ellipse cx="498.5" cy="48" fill="#C2C2C2" rx="22" ry="22" style="stroke: #383838; stroke-width: 2.0;"/><path d="M504.0313,39.75 Q504.3438,39.3125 504.7188,39.0938 Q505.0938,38.875 505.5313,38.875 Q506.2813,38.875 506.75,39.3906 Q507.2188,39.9063 507.2188,41.125 L507.2188,44.0313 Q507.2188,45.25 506.75,45.7813 Q506.2813,46.3125 505.5313,46.3125 Q504.8438,46.3125 504.4375,45.9063 Q504.0313,45.5313 503.8125,44.5 Q503.7188,43.7813 503.3438,43.4063 Q502.6875,42.6563 501.4688,42.2188 Q500.25,41.7813 499,41.7813 Q497.4688,41.7813 496.2031,42.4375 Q494.9375,43.0938 493.9531,44.5938 Q492.9688,46.0938 492.9688,48.1563 L492.9688,50.3438 Q492.9688,52.8125 494.75,54.4531 Q496.5313,56.0938 499.7188,56.0938 Q501.5938,56.0938 502.9063,55.5938 Q503.6875,55.2813 504.5313,54.4063 Q505.0625,53.875 505.3594,53.7188 Q505.6563,53.5625 506.0625,53.5625 Q506.7188,53.5625 507.2344,54.0781 Q507.75,54.5938 507.75,55.2813 Q507.75,55.9688 507.0625,56.7813 Q506.0625,57.9375 504.4688,58.5938 Q502.3125,59.5 499.7188,59.5 Q496.6875,59.5 494.2813,58.25 Q492.3125,57.25 490.9375,55.1094 Q489.5625,52.9688 489.5625,50.4063 L489.5625,48.0938 Q489.5625,45.4375 490.7969,43.1406 Q492.0313,40.8438 494.2188,39.6094 Q496.4063,38.375 498.875,38.375 Q500.3438,38.375 501.6406,38.7031 Q502.9375,39.0313 504.0313,39.75 Z "/><text fill="#000000" font-family="sans-serif" font-size="24" lengthAdjust="spacingAndGlyphs" textLength="190" x="539.5" y="57.8203">SQLParseTables</text><line style="stroke: #383838; stroke-width: 3.0;" x1="349" x2="855" y1="80" y2="80"/><text fill="#000000" font-family="sans-serif" font-size="22" lengthAdjust="spacingAndGlyphs" text-decoration="underline" textLength="70" x="359" y="110.8379">+tables</text><line style="stroke: #000000; stroke-width: 1.0;" x1="359" x2="429" y1="114.8379" y2="114.8379"/><text fill="#000000" font-family="sans-serif" font-size="22" lengthAdjust="spacingAndGlyphs" text-decoration="underline" textLength="36" x="359" y="138.5098">+db</text><line style="stroke: #000000; stroke-width: 1.0;" x1="359" x2="395" y1="142.5098" y2="142.5098"/><text fill="#000000" font-family="sans-serif" font-size="22" lengthAdjust="spacingAndGlyphs" text-decoration="underline" textLength="76" x="359" y="166.1816">+cursor</text><line style="stroke: #000000; stroke-width: 1.0;" x1="359" x2="435" y1="170.1816" y2="170.1816"/><line style="stroke: #383838; stroke-width: 3.0;" x1="349" x2="855" y1="179.0156" y2="179.0156"/><text fill="#000000" font-family="sans-serif" font-size="22" lengthAdjust="spacingAndGlyphs" textLength="160" x="359" y="209.8535">+parse(self, sql)</text><text fill="#000000" font-family="sans-serif" font-size="22" lengthAdjust="spacingAndGlyphs" textLength="222" x="359" y="237.5254">+add_table(self, name)</text><text fill="#000000" font-family="sans-serif" font-size="22" lengthAdjust="spacingAndGlyphs" textLength="298" x="359" y="265.1973">+add_column(self, name, type)</text><text fill="#000000" font-family="sans-serif" font-size="22" lengthAdjust="spacingAndGlyphs" textLength="382" x="359" y="292.8691">+add_column_primary(self, name, type)</text><text fill="#000000" font-family="sans-serif" font-size="22" lengthAdjust="spacingAndGlyphs" textLength="486" x="359" y="320.541">+add_column_foreign(self, name, type, reference)</text><!--class SQL2PUML--><rect fill="#F8F8F8" filter="url(#fs4se7k6xidhk)" height="345.0469" id="SQL2PUML" style="stroke: #383838; stroke-width: 3.0;" width="510" x="347" y="454"/><ellipse cx="529.5" cy="486" fill="#C2C2C2" rx="22" ry="22" style="stroke: #383838; stroke-width: 2.0;"/><path d="M535.0313,477.75 Q535.3438,477.3125 535.7188,477.0938 Q536.0938,476.875 536.5313,476.875 Q537.2813,476.875 537.75,477.3906 Q538.2188,477.9063 538.2188,479.125 L538.2188,482.0313 Q538.2188,483.25 537.75,483.7813 Q537.2813,484.3125 536.5313,484.3125 Q535.8438,484.3125 535.4375,483.9063 Q535.0313,483.5313 534.8125,482.5 Q534.7188,481.7813 534.3438,481.4063 Q533.6875,480.6563 532.4688,480.2188 Q531.25,479.7813 530,479.7813 Q528.4688,479.7813 527.2031,480.4375 Q525.9375,481.0938 524.9531,482.5938 Q523.9688,484.0938 523.9688,486.1563 L523.9688,488.3438 Q523.9688,490.8125 525.75,492.4531 Q527.5313,494.0938 530.7188,494.0938 Q532.5938,494.0938 533.9063,493.5938 Q534.6875,493.2813 535.5313,492.4063 Q536.0625,491.875 536.3594,491.7188 Q536.6563,491.5625 537.0625,491.5625 Q537.7188,491.5625 538.2344,492.0781 Q538.75,492.5938 538.75,493.2813 Q538.75,493.9688 538.0625,494.7813 Q537.0625,495.9375 535.4688,496.5938 Q533.3125,497.5 530.7188,497.5 Q527.6875,497.5 525.2813,496.25 Q523.3125,495.25 521.9375,493.1094 Q520.5625,490.9688 520.5625,488.4063 L520.5625,486.0938 Q520.5625,483.4375 521.7969,481.1406 Q523.0313,478.8438 525.2188,477.6094 Q527.4063,476.375 529.875,476.375 Q531.3438,476.375 532.6406,476.7031 Q533.9375,477.0313 535.0313,477.75 Z "/><text fill="#000000" font-family="sans-serif" font-size="24" lengthAdjust="spacingAndGlyphs" textLength="128" x="570.5" y="495.8203">SQL2PUML</text><line style="stroke: #383838; stroke-width: 3.0;" x1="349" x2="855" y1="518" y2="518"/><text fill="#000000" font-family="sans-serif" font-size="22" lengthAdjust="spacingAndGlyphs" text-decoration="underline" textLength="148" x="359" y="548.8379">+puml_template</text><line style="stroke: #000000; stroke-width: 1.0;" x1="359" x2="507" y1="552.8379" y2="552.8379"/><text fill="#000000" font-family="sans-serif" font-size="22" lengthAdjust="spacingAndGlyphs" text-decoration="underline" textLength="126" x="359" y="576.5098">+puml_tables</text><line style="stroke: #000000; stroke-width: 1.0;" x1="359" x2="485" y1="580.5098" y2="580.5098"/><text fill="#000000" font-family="sans-serif" font-size="22" lengthAdjust="spacingAndGlyphs" text-decoration="underline" textLength="140" x="359" y="604.1816">+current_table</text><line style="stroke: #000000; stroke-width: 1.0;" x1="359" x2="499" y1="608.1816" y2="608.1816"/><line style="stroke: #383838; stroke-width: 3.0;" x1="349" x2="855" y1="617.0156" y2="617.0156"/><text fill="#000000" font-family="sans-serif" font-size="22" lengthAdjust="spacingAndGlyphs" textLength="222" x="359" y="647.8535">+add_table(self, name)</text><text fill="#000000" font-family="sans-serif" font-size="22" lengthAdjust="spacingAndGlyphs" textLength="298" x="359" y="675.5254">+add_column(self, name, type)</text><text fill="#000000" font-family="sans-serif" font-size="22" lengthAdjust="spacingAndGlyphs" textLength="382" x="359" y="703.1973">+add_column_primary(self, name, type)</text><text fill="#000000" font-family="sans-serif" font-size="22" lengthAdjust="spacingAndGlyphs" textLength="486" x="359" y="730.8691">+add_column_foreign(self, name, type, reference)</text><text fill="#000000" font-family="sans-serif" font-size="22" lengthAdjust="spacingAndGlyphs" textLength="112" x="359" y="758.541">+clear(self)</text><text fill="#000000" font-family="sans-serif" font-size="22" lengthAdjust="spacingAndGlyphs" textLength="198" x="359" y="786.2129">+transform(self, sql)</text><!--link ValueError to NoTableException--><path d="M144,263.538 C144,357.752 144,504.856 144,578.996 " fill="none" id="ValueError-NoTableException" style="stroke: #383838; stroke-width: 2.0;"/><polygon fill="none" points="130.0002,263.256,144,223.256,158.0002,263.256,130.0002,263.256" style="stroke: #383838; stroke-width: 2.0;"/><!--link SQLParseTables to SQL2PUML--><path d="M602,374.916 C602,401.14 602,427.846 602,453.572 " fill="none" id="SQLParseTables-SQL2PUML" style="stroke: #383838; stroke-width: 2.0;"/><polygon fill="none" points="588,374.318,602,334.318,616,374.318,588,374.318" style="stroke: #383838; stroke-width: 2.0;"/><!--
@startuml
skinparam monochrome true
skinparam classAttributeIconSize 0
scale 2

ValueError <|- - NoTableException
class NoTableException {
}

SQLParseTables <|- - SQL2PUML
class SQL2PUML {
  {static} +puml_template
  {static} +puml_tables
  {static} +current_table
  +add_table(self, name)
  +add_column(self, name, type)
  +add_column_primary(self, name, type)
  +add_column_foreign(self, name, type, reference)
  +clear(self)
  +transform(self, sql)
}

class SQLParseTables {
  {static} +tables
  {static} +db
  {static} +cursor
  +parse(self, sql)
  +add_table(self, name)
  +add_column(self, name, type)
  +add_column_primary(self, name, type)
  +add_column_foreign(self, name, type, reference)
}

@enduml

PlantUML version 1.2017.19(Sun Nov 12 22:46:22 AEDT 2017)
(GPL source distribution)
Java Runtime: Java(TM) SE Runtime Environment
JVM: Java HotSpot(TM) 64-Bit Server VM
Java Version: 1.8.0_151-b12
Operating System: Windows Server 2012 R2
OS Version: 6.3
Default Encoding: UTF-8
Language: en
Country: US
--></g></svg>