<?xml version="1.0" encoding="UTF-8" standalone="no"?><svg xmlns="http://www.w3.org/2000/svg" xmlns:xlink="http://www.w3.org/1999/xlink" contentScriptType="application/ecmascript" contentStyleType="text/css" height="289px" preserveAspectRatio="none" style="width:864px;height:289px;" version="1.1" viewBox="0 0 864 289" width="864px" zoomAndPan="magnify"><defs><filter height="300%" id="f1we3vjkpera3y" width="300%" x="-1" y="-1"><feGaussianBlur result="blurOut" stdDeviation="2.0"/><feColorMatrix in="blurOut" result="blurOut2" type="matrix" values="0 0 0 0 0 0 0 0 0 0 0 0 0 0 0 0 0 0 .4 0"/><feOffset dx="4.0" dy="4.0" in="blurOut2" result="blurOut3"/><feBlend in="SourceGraphic" in2="blurOut3" mode="normal"/></filter></defs><g><!--cluster ast--><polygon fill="#FFFFFF" filter="url(#f1we3vjkpera3y)" points="288.5,24.5,315.5,24.5,322.5,48.1094,416.5,48.1094,416.5,124.5,288.5,124.5,288.5,24.5" style="stroke: #000000; stroke-width: 2.0;"/><line style="stroke: #000000; stroke-width: 2.0;" x1="288.5" x2="322.5" y1="48.1094" y2="48.1094"/><text fill="#000000" font-family="sans-serif" font-size="14" font-weight="bold" lengthAdjust="spacingAndGlyphs" textLength="21" x="292.5" y="41.0332">ast</text><!--class ast.NodeVisitor--><rect fill="#FEFECE" filter="url(#f1we3vjkpera3y)" height="48" id="ast.NodeVisitor" style="stroke: #A80036; stroke-width: 1.5;" width="96" x="304.5" y="60.5"/><ellipse cx="319.5" cy="76.5" fill="#ADD1B2" rx="11" ry="11" style="stroke: #A80036; stroke-width: 1.0;"/><path d="M322.2656,72.375 Q322.4219,72.1563 322.6094,72.0469 Q322.7969,71.9375 323.0156,71.9375 Q323.3906,71.9375 323.625,72.1953 Q323.8594,72.4531 323.8594,73.0625 L323.8594,74.5156 Q323.8594,75.125 323.625,75.3906 Q323.3906,75.6563 323.0156,75.6563 Q322.6719,75.6563 322.4688,75.4531 Q322.2656,75.2656 322.1563,74.75 Q322.1094,74.3906 321.9219,74.2031 Q321.5938,73.8281 320.9844,73.6094 Q320.375,73.3906 319.75,73.3906 Q318.9844,73.3906 318.3516,73.7188 Q317.7188,74.0469 317.2266,74.7969 Q316.7344,75.5469 316.7344,76.5781 L316.7344,77.6719 Q316.7344,78.9063 317.625,79.7266 Q318.5156,80.5469 320.1094,80.5469 Q321.0469,80.5469 321.7031,80.2969 Q322.0938,80.1406 322.5156,79.7031 Q322.7813,79.4375 322.9297,79.3594 Q323.0781,79.2813 323.2813,79.2813 Q323.6094,79.2813 323.8672,79.5391 Q324.125,79.7969 324.125,80.1406 Q324.125,80.4844 323.7813,80.8906 Q323.2813,81.4688 322.4844,81.7969 Q321.4063,82.25 320.1094,82.25 Q318.5938,82.25 317.3906,81.625 Q316.4063,81.125 315.7188,80.0547 Q315.0313,78.9844 315.0313,77.7031 L315.0313,76.5469 Q315.0313,75.2188 315.6484,74.0703 Q316.2656,72.9219 317.3594,72.3047 Q318.4531,71.6875 319.6875,71.6875 Q320.4219,71.6875 321.0703,71.8516 Q321.7188,72.0156 322.2656,72.375 Z "/><text fill="#000000" font-family="sans-serif" font-size="12" lengthAdjust="spacingAndGlyphs" textLength="64" x="333.5" y="81.4102">NodeVisitor</text><line style="stroke: #A80036; stroke-width: 1.5;" x1="305.5" x2="399.5" y1="92.5" y2="92.5"/><line style="stroke: #A80036; stroke-width: 1.5;" x1="305.5" x2="399.5" y1="100.5" y2="100.5"/><!--class A--><rect fill="#FEFECE" filter="url(#f1we3vjkpera3y)" height="117.1797" id="A" style="stroke: #A80036; stroke-width: 1.5;" width="263" x="6" y="26"/><ellipse cx="129.75" cy="42" fill="#ADD1B2" rx="11" ry="11" style="stroke: #A80036; stroke-width: 1.0;"/><path d="M132.5156,37.875 Q132.6719,37.6563 132.8594,37.5469 Q133.0469,37.4375 133.2656,37.4375 Q133.6406,37.4375 133.875,37.6953 Q134.1094,37.9531 134.1094,38.5625 L134.1094,40.0156 Q134.1094,40.625 133.875,40.8906 Q133.6406,41.1563 133.2656,41.1563 Q132.9219,41.1563 132.7188,40.9531 Q132.5156,40.7656 132.4063,40.25 Q132.3594,39.8906 132.1719,39.7031 Q131.8438,39.3281 131.2344,39.1094 Q130.625,38.8906 130,38.8906 Q129.2344,38.8906 128.6016,39.2188 Q127.9688,39.5469 127.4766,40.2969 Q126.9844,41.0469 126.9844,42.0781 L126.9844,43.1719 Q126.9844,44.4063 127.875,45.2266 Q128.7656,46.0469 130.3594,46.0469 Q131.2969,46.0469 131.9531,45.7969 Q132.3438,45.6406 132.7656,45.2031 Q133.0313,44.9375 133.1797,44.8594 Q133.3281,44.7813 133.5313,44.7813 Q133.8594,44.7813 134.1172,45.0391 Q134.375,45.2969 134.375,45.6406 Q134.375,45.9844 134.0313,46.3906 Q133.5313,46.9688 132.7344,47.2969 Q131.6563,47.75 130.3594,47.75 Q128.8438,47.75 127.6406,47.125 Q126.6563,46.625 125.9688,45.5547 Q125.2813,44.4844 125.2813,43.2031 L125.2813,42.0469 Q125.2813,40.7188 125.8984,39.5703 Q126.5156,38.4219 127.6094,37.8047 Q128.7031,37.1875 129.9375,37.1875 Q130.6719,37.1875 131.3203,37.3516 Q131.9688,37.5156 132.5156,37.875 Z "/><text fill="#000000" font-family="sans-serif" font-size="12" lengthAdjust="spacingAndGlyphs" textLength="7" x="150.25" y="46.9102">A</text><line style="stroke: #A80036; stroke-width: 1.5;" x1="7" x2="268" y1="58" y2="58"/><ellipse cx="17" cy="70.418" fill="none" rx="3" ry="3" style="stroke: #038048; stroke-width: 1.0;"/><text fill="#000000" font-family="sans-serif" font-size="11" lengthAdjust="spacingAndGlyphs" textLength="26" x="26" y="73.4189">name</text><ellipse cx="17" cy="84.2539" fill="none" rx="3" ry="3" style="stroke: #038048; stroke-width: 1.0;"/><text fill="#000000" font-family="sans-serif" font-size="11" lengthAdjust="spacingAndGlyphs" textLength="31" x="26" y="87.2549">details</text><line style="stroke: #A80036; stroke-width: 1.5;" x1="7" x2="268" y1="93.6719" y2="93.6719"/><rect fill="#F24D5C" height="6" style="stroke: #C82930; stroke-width: 1.0;" width="6" x="14" y="103.0898"/><text fill="#000000" font-family="sans-serif" font-size="11" lengthAdjust="spacingAndGlyphs" textLength="197" x="26" y="109.0908">__init__(self, name, details={}, **kwargs)</text><ellipse cx="17" cy="119.9258" fill="#84BE84" rx="3" ry="3" style="stroke: #038048; stroke-width: 1.0;"/><text fill="#000000" font-family="sans-serif" font-size="11" lengthAdjust="spacingAndGlyphs" text-decoration="underline" textLength="51" x="26" y="122.9268">cls_meth()</text><line style="stroke: #000000; stroke-width: 1.0;" x1="26" x2="77" y1="124.9268" y2="124.9268"/><ellipse cx="17" cy="133.7617" fill="#84BE84" rx="3" ry="3" style="stroke: #038048; stroke-width: 1.0;"/><text fill="#000000" font-family="sans-serif" font-size="11" lengthAdjust="spacingAndGlyphs" textLength="237" x="26" y="136.7627">meth1(self, arg1, arg2='default', *args, **kwargs)</text><!--class Child--><rect fill="#FEFECE" filter="url(#f1we3vjkpera3y)" height="75.6719" id="Child" style="stroke: #A80036; stroke-width: 1.5;" width="189" x="43" y="203"/><ellipse cx="118.75" cy="219" fill="#ADD1B2" rx="11" ry="11" style="stroke: #A80036; stroke-width: 1.0;"/><path d="M121.5156,214.875 Q121.6719,214.6563 121.8594,214.5469 Q122.0469,214.4375 122.2656,214.4375 Q122.6406,214.4375 122.875,214.6953 Q123.1094,214.9531 123.1094,215.5625 L123.1094,217.0156 Q123.1094,217.625 122.875,217.8906 Q122.6406,218.1563 122.2656,218.1563 Q121.9219,218.1563 121.7188,217.9531 Q121.5156,217.7656 121.4063,217.25 Q121.3594,216.8906 121.1719,216.7031 Q120.8438,216.3281 120.2344,216.1094 Q119.625,215.8906 119,215.8906 Q118.2344,215.8906 117.6016,216.2188 Q116.9688,216.5469 116.4766,217.2969 Q115.9844,218.0469 115.9844,219.0781 L115.9844,220.1719 Q115.9844,221.4063 116.875,222.2266 Q117.7656,223.0469 119.3594,223.0469 Q120.2969,223.0469 120.9531,222.7969 Q121.3438,222.6406 121.7656,222.2031 Q122.0313,221.9375 122.1797,221.8594 Q122.3281,221.7813 122.5313,221.7813 Q122.8594,221.7813 123.1172,222.0391 Q123.375,222.2969 123.375,222.6406 Q123.375,222.9844 123.0313,223.3906 Q122.5313,223.9688 121.7344,224.2969 Q120.6563,224.75 119.3594,224.75 Q117.8438,224.75 116.6406,224.125 Q115.6563,223.625 114.9688,222.5547 Q114.2813,221.4844 114.2813,220.2031 L114.2813,219.0469 Q114.2813,217.7188 114.8984,216.5703 Q115.5156,215.4219 116.6094,214.8047 Q117.7031,214.1875 118.9375,214.1875 Q119.6719,214.1875 120.3203,214.3516 Q120.9688,214.5156 121.5156,214.875 Z "/><text fill="#000000" font-family="sans-serif" font-size="12" lengthAdjust="spacingAndGlyphs" textLength="29" x="139.25" y="223.9102">Child</text><line style="stroke: #A80036; stroke-width: 1.5;" x1="44" x2="231" y1="235" y2="235"/><ellipse cx="54" cy="247.418" fill="none" rx="3" ry="3" style="stroke: #038048; stroke-width: 1.0;"/><text fill="#000000" font-family="sans-serif" font-size="11" lengthAdjust="spacingAndGlyphs" text-decoration="underline" textLength="30" x="63" y="250.4189">clsvar</text><line style="stroke: #000000; stroke-width: 1.0;" x1="63" x2="93" y1="252.4189" y2="252.4189"/><line style="stroke: #A80036; stroke-width: 1.5;" x1="44" x2="231" y1="256.8359" y2="256.8359"/><ellipse cx="54" cy="269.2539" fill="#84BE84" rx="3" ry="3" style="stroke: #038048; stroke-width: 1.0;"/><text fill="#000000" font-family="sans-serif" font-size="11" lengthAdjust="spacingAndGlyphs" textLength="163" x="63" y="272.2549">meth1(self, arg1, arg2, arg3=888)</text><!--class MyVisitor--><rect fill="#FEFECE" filter="url(#f1we3vjkpera3y)" height="48" id="MyVisitor" style="stroke: #A80036; stroke-width: 1.5;" width="80" x="312.5" y="217"/><ellipse cx="327.5" cy="233" fill="#ADD1B2" rx="11" ry="11" style="stroke: #A80036; stroke-width: 1.0;"/><path d="M330.2656,228.875 Q330.4219,228.6563 330.6094,228.5469 Q330.7969,228.4375 331.0156,228.4375 Q331.3906,228.4375 331.625,228.6953 Q331.8594,228.9531 331.8594,229.5625 L331.8594,231.0156 Q331.8594,231.625 331.625,231.8906 Q331.3906,232.1563 331.0156,232.1563 Q330.6719,232.1563 330.4688,231.9531 Q330.2656,231.7656 330.1563,231.25 Q330.1094,230.8906 329.9219,230.7031 Q329.5938,230.3281 328.9844,230.1094 Q328.375,229.8906 327.75,229.8906 Q326.9844,229.8906 326.3516,230.2188 Q325.7188,230.5469 325.2266,231.2969 Q324.7344,232.0469 324.7344,233.0781 L324.7344,234.1719 Q324.7344,235.4063 325.625,236.2266 Q326.5156,237.0469 328.1094,237.0469 Q329.0469,237.0469 329.7031,236.7969 Q330.0938,236.6406 330.5156,236.2031 Q330.7813,235.9375 330.9297,235.8594 Q331.0781,235.7813 331.2813,235.7813 Q331.6094,235.7813 331.8672,236.0391 Q332.125,236.2969 332.125,236.6406 Q332.125,236.9844 331.7813,237.3906 Q331.2813,237.9688 330.4844,238.2969 Q329.4063,238.75 328.1094,238.75 Q326.5938,238.75 325.3906,238.125 Q324.4063,237.625 323.7188,236.5547 Q323.0313,235.4844 323.0313,234.2031 L323.0313,233.0469 Q323.0313,231.7188 323.6484,230.5703 Q324.2656,229.4219 325.3594,228.8047 Q326.4531,228.1875 327.6875,228.1875 Q328.4219,228.1875 329.0703,228.3516 Q329.7188,228.5156 330.2656,228.875 Z "/><text fill="#000000" font-family="sans-serif" font-size="12" lengthAdjust="spacingAndGlyphs" textLength="48" x="341.5" y="237.9102">MyVisitor</text><line style="stroke: #A80036; stroke-width: 1.5;" x1="313.5" x2="391.5" y1="249" y2="249"/><line style="stroke: #A80036; stroke-width: 1.5;" x1="313.5" x2="391.5" y1="257" y2="257"/><!--class C--><rect fill="#FEFECE" filter="url(#f1we3vjkpera3y)" height="75.6719" id="C" style="stroke: #A80036; stroke-width: 1.5;" width="183" x="436" y="46.5"/><ellipse cx="518.75" cy="62.5" fill="#ADD1B2" rx="11" ry="11" style="stroke: #A80036; stroke-width: 1.0;"/><path d="M521.5156,58.375 Q521.6719,58.1563 521.8594,58.0469 Q522.0469,57.9375 522.2656,57.9375 Q522.6406,57.9375 522.875,58.1953 Q523.1094,58.4531 523.1094,59.0625 L523.1094,60.5156 Q523.1094,61.125 522.875,61.3906 Q522.6406,61.6563 522.2656,61.6563 Q521.9219,61.6563 521.7188,61.4531 Q521.5156,61.2656 521.4063,60.75 Q521.3594,60.3906 521.1719,60.2031 Q520.8438,59.8281 520.2344,59.6094 Q519.625,59.3906 519,59.3906 Q518.2344,59.3906 517.6016,59.7188 Q516.9688,60.0469 516.4766,60.7969 Q515.9844,61.5469 515.9844,62.5781 L515.9844,63.6719 Q515.9844,64.9063 516.875,65.7266 Q517.7656,66.5469 519.3594,66.5469 Q520.2969,66.5469 520.9531,66.2969 Q521.3438,66.1406 521.7656,65.7031 Q522.0313,65.4375 522.1797,65.3594 Q522.3281,65.2813 522.5313,65.2813 Q522.8594,65.2813 523.1172,65.5391 Q523.375,65.7969 523.375,66.1406 Q523.375,66.4844 523.0313,66.8906 Q522.5313,67.4688 521.7344,67.7969 Q520.6563,68.25 519.3594,68.25 Q517.8438,68.25 516.6406,67.625 Q515.6563,67.125 514.9688,66.0547 Q514.2813,64.9844 514.2813,63.7031 L514.2813,62.5469 Q514.2813,61.2188 514.8984,60.0703 Q515.5156,58.9219 516.6094,58.3047 Q517.7031,57.6875 518.9375,57.6875 Q519.6719,57.6875 520.3203,57.8516 Q520.9688,58.0156 521.5156,58.375 Z "/><text fill="#000000" font-family="sans-serif" font-size="12" lengthAdjust="spacingAndGlyphs" textLength="9" x="539.25" y="67.4102">C</text><line style="stroke: #A80036; stroke-width: 1.5;" x1="437" x2="618" y1="78.5" y2="78.5"/><rect fill="none" height="6" style="stroke: #C82930; stroke-width: 1.0;" width="6" x="444" y="87.918"/><text fill="#000000" font-family="sans-serif" font-size="11" lengthAdjust="spacingAndGlyphs" text-decoration="underline" textLength="73" x="456" y="93.9189">__metaclass__</text><line style="stroke: #000000; stroke-width: 1.0;" x1="456" x2="529" y1="95.9189" y2="95.9189"/><line style="stroke: #A80036; stroke-width: 1.5;" x1="437" x2="618" y1="100.3359" y2="100.3359"/><ellipse cx="447" cy="112.7539" fill="#84BE84" rx="3" ry="3" style="stroke: #038048; stroke-width: 1.0;"/><text fill="#000000" font-family="sans-serif" font-size="11" font-style="italic" lengthAdjust="spacingAndGlyphs" textLength="157" x="456" y="115.7549">my_abstract_method(self, arg1)</text><!--class __module__--><rect fill="#FEFECE" filter="url(#f1we3vjkpera3y)" height="75.6719" id="__module__" style="stroke: #A80036; stroke-width: 1.5;" width="199" x="654" y="46.5"/><ellipse cx="714.25" cy="62.5" fill="#ADD1B2" rx="11" ry="11" style="stroke: #A80036; stroke-width: 1.0;"/><path d="M717.0156,58.375 Q717.1719,58.1563 717.3594,58.0469 Q717.5469,57.9375 717.7656,57.9375 Q718.1406,57.9375 718.375,58.1953 Q718.6094,58.4531 718.6094,59.0625 L718.6094,60.5156 Q718.6094,61.125 718.375,61.3906 Q718.1406,61.6563 717.7656,61.6563 Q717.4219,61.6563 717.2188,61.4531 Q717.0156,61.2656 716.9063,60.75 Q716.8594,60.3906 716.6719,60.2031 Q716.3438,59.8281 715.7344,59.6094 Q715.125,59.3906 714.5,59.3906 Q713.7344,59.3906 713.1016,59.7188 Q712.4688,60.0469 711.9766,60.7969 Q711.4844,61.5469 711.4844,62.5781 L711.4844,63.6719 Q711.4844,64.9063 712.375,65.7266 Q713.2656,66.5469 714.8594,66.5469 Q715.7969,66.5469 716.4531,66.2969 Q716.8438,66.1406 717.2656,65.7031 Q717.5313,65.4375 717.6797,65.3594 Q717.8281,65.2813 718.0313,65.2813 Q718.3594,65.2813 718.6172,65.5391 Q718.875,65.7969 718.875,66.1406 Q718.875,66.4844 718.5313,66.8906 Q718.0313,67.4688 717.2344,67.7969 Q716.1563,68.25 714.8594,68.25 Q713.3438,68.25 712.1406,67.625 Q711.1563,67.125 710.4688,66.0547 Q709.7813,64.9844 709.7813,63.7031 L709.7813,62.5469 Q709.7813,61.2188 710.3984,60.0703 Q711.0156,58.9219 712.1094,58.3047 Q713.2031,57.6875 714.4375,57.6875 Q715.1719,57.6875 715.8203,57.8516 Q716.4688,58.0156 717.0156,58.375 Z "/><text fill="#000000" font-family="sans-serif" font-size="12" lengthAdjust="spacingAndGlyphs" textLength="70" x="734.75" y="67.4102">__module__</text><line style="stroke: #A80036; stroke-width: 1.5;" x1="655" x2="852" y1="78.5" y2="78.5"/><ellipse cx="665" cy="90.918" fill="none" rx="3" ry="3" style="stroke: #038048; stroke-width: 1.0;"/><text fill="#000000" font-family="sans-serif" font-size="11" lengthAdjust="spacingAndGlyphs" textLength="43" x="674" y="93.9189">LOGGER</text><line style="stroke: #A80036; stroke-width: 1.5;" x1="655" x2="852" y1="100.3359" y2="100.3359"/><ellipse cx="665" cy="112.7539" fill="#84BE84" rx="3" ry="3" style="stroke: #038048; stroke-width: 1.0;"/><text fill="#000000" font-family="sans-serif" font-size="11" lengthAdjust="spacingAndGlyphs" textLength="173" x="674" y="115.7549">global_func(arg1, arg2, arg3=None)</text><!--link A to Child--><path d="M137.5,163.504 C137.5,177.124 137.5,190.7119 137.5,202.5752 " fill="none" id="A-Child" style="stroke: #A80036; stroke-width: 1.0;"/><polygon fill="none" points="130.5,163.03,137.5,143.03,144.5,163.03,130.5,163.03" style="stroke: #A80036; stroke-width: 1.0;"/><!--link ast.NodeVisitor to MyVisitor--><path d="M352.5,128.65 C352.5,157.278 352.5,193.7229 352.5,216.9643 " fill="none" id="ast.NodeVisitor-MyVisitor" style="stroke: #A80036; stroke-width: 1.0;"/><polygon fill="none" points="345.5,128.63,352.5,108.63,359.5,128.63,345.5,128.63" style="stroke: #A80036; stroke-width: 1.0;"/><!--
@startuml
class A {
  +name
  +details
  -__init__(self, name, details={}, **kwargs)
  +cls_meth(){static}
  +meth1(self, arg1, arg2='default', *args, **kwargs)
}

A <|- - Child
class Child {
  {static} +clsvar
  +meth1(self, arg1, arg2, arg3=888)
}

ast.NodeVisitor <|- - MyVisitor
class MyVisitor {
}

class C {
  {static} -__metaclass__
  +my_abstract_method(self, arg1){abstract}
}

class __module__ {
  +LOGGER
  +global_func(arg1, arg2, arg3=None)
}

@enduml

PlantUML version 1.2017.19(Sun Nov 12 22:46:22 AEDT 2017)
(GPL source distribution)
Java Runtime: Java(TM) SE Runtime Environment
JVM: Java HotSpot(TM) 64-Bit Server VM
Java Version: 1.8.0_151-b12
Operating System: Windows Server 2012 R2
OS Version: 6.3
Default Encoding: UTF-8
Language: en
Country: US
--></g></svg>