<?xml version="1.0" encoding="UTF-8" standalone="no"?><svg xmlns="http://www.w3.org/2000/svg" xmlns:xlink="http://www.w3.org/1999/xlink" contentScriptType="application/ecmascript" contentStyleType="text/css" height="533px" preserveAspectRatio="none" style="width:956px;height:533px;" version="1.1" viewBox="0 0 956 533" width="956px" zoomAndPan="magnify"><defs><filter height="300%" id="f1jundtyr1yjgx" width="300%" x="-1" y="-1"><feGaussianBlur result="blurOut" stdDeviation="2.0"/><feColorMatrix in="blurOut" result="blurOut2" type="matrix" values="0 0 0 0 0 0 0 0 0 0 0 0 0 0 0 0 0 0 .4 0"/><feOffset dx="4.0" dy="4.0" in="blurOut2" result="blurOut3"/><feBlend in="SourceGraphic" in2="blurOut3" mode="normal"/></filter></defs><g><!--cluster examples--><polygon fill="#FFFFFF" filter="url(#f1jundtyr1yjgx)" points="22,148,95,148,102,171.6094,934,171.6094,934,521,22,521,22,148" style="stroke: #000000; stroke-width: 2.0;"/><line style="stroke: #000000; stroke-width: 2.0;" x1="22" x2="102" y1="171.6094" y2="171.6094"/><text fill="#000000" font-family="sans-serif" font-size="14" font-weight="bold" lengthAdjust="spacingAndGlyphs" textLength="67" x="26" y="164.5332">examples</text><!--cluster examples.example--><polygon fill="#FFFFFF" filter="url(#f1jundtyr1yjgx)" points="46,192,111,192,118,215.6094,910,215.6094,910,497,46,497,46,192" style="stroke: #000000; stroke-width: 2.0;"/><line style="stroke: #000000; stroke-width: 2.0;" x1="46" x2="118" y1="215.6094" y2="215.6094"/><text fill="#000000" font-family="sans-serif" font-size="14" font-weight="bold" lengthAdjust="spacingAndGlyphs" textLength="59" x="50" y="208.5332">example</text><!--cluster ast--><polygon fill="#FFFFFF" filter="url(#f1jundtyr1yjgx)" points="491,24,518,24,525,47.6094,619,47.6094,619,124,491,124,491,24" style="stroke: #000000; stroke-width: 2.0;"/><line style="stroke: #000000; stroke-width: 2.0;" x1="491" x2="525" y1="47.6094" y2="47.6094"/><text fill="#000000" font-family="sans-serif" font-size="14" font-weight="bold" lengthAdjust="spacingAndGlyphs" textLength="21" x="495" y="40.5332">ast</text><!--class examples.example.A--><rect fill="#FEFECE" filter="url(#f1jundtyr1yjgx)" height="117.1797" id="examples.example.A" style="stroke: #A80036; stroke-width: 1.5;" width="263" x="630.5" y="228"/><ellipse cx="754.25" cy="244" fill="#ADD1B2" rx="11" ry="11" style="stroke: #A80036; stroke-width: 1.0;"/><path d="M757.0156,239.875 Q757.1719,239.6563 757.3594,239.5469 Q757.5469,239.4375 757.7656,239.4375 Q758.1406,239.4375 758.375,239.6953 Q758.6094,239.9531 758.6094,240.5625 L758.6094,242.0156 Q758.6094,242.625 758.375,242.8906 Q758.1406,243.1563 757.7656,243.1563 Q757.4219,243.1563 757.2188,242.9531 Q757.0156,242.7656 756.9063,242.25 Q756.8594,241.8906 756.6719,241.7031 Q756.3438,241.3281 755.7344,241.1094 Q755.125,240.8906 754.5,240.8906 Q753.7344,240.8906 753.1016,241.2188 Q752.4688,241.5469 751.9766,242.2969 Q751.4844,243.0469 751.4844,244.0781 L751.4844,245.1719 Q751.4844,246.4063 752.375,247.2266 Q753.2656,248.0469 754.8594,248.0469 Q755.7969,248.0469 756.4531,247.7969 Q756.8438,247.6406 757.2656,247.2031 Q757.5313,246.9375 757.6797,246.8594 Q757.8281,246.7813 758.0313,246.7813 Q758.3594,246.7813 758.6172,247.0391 Q758.875,247.2969 758.875,247.6406 Q758.875,247.9844 758.5313,248.3906 Q758.0313,248.9688 757.2344,249.2969 Q756.1563,249.75 754.8594,249.75 Q753.3438,249.75 752.1406,249.125 Q751.1563,248.625 750.4688,247.5547 Q749.7813,246.4844 749.7813,245.2031 L749.7813,244.0469 Q749.7813,242.7188 750.3984,241.5703 Q751.0156,240.4219 752.1094,239.8047 Q753.2031,239.1875 754.4375,239.1875 Q755.1719,239.1875 755.8203,239.3516 Q756.4688,239.5156 757.0156,239.875 Z "/><text fill="#000000" font-family="sans-serif" font-size="12" lengthAdjust="spacingAndGlyphs" textLength="7" x="774.75" y="248.9102">A</text><line style="stroke: #A80036; stroke-width: 1.5;" x1="631.5" x2="892.5" y1="260" y2="260"/><ellipse cx="641.5" cy="272.418" fill="none" rx="3" ry="3" style="stroke: #038048; stroke-width: 1.0;"/><text fill="#000000" font-family="sans-serif" font-size="11" lengthAdjust="spacingAndGlyphs" textLength="26" x="650.5" y="275.4189">name</text><ellipse cx="641.5" cy="286.2539" fill="none" rx="3" ry="3" style="stroke: #038048; stroke-width: 1.0;"/><text fill="#000000" font-family="sans-serif" font-size="11" lengthAdjust="spacingAndGlyphs" textLength="31" x="650.5" y="289.2549">details</text><line style="stroke: #A80036; stroke-width: 1.5;" x1="631.5" x2="892.5" y1="295.6719" y2="295.6719"/><rect fill="#F24D5C" height="6" style="stroke: #C82930; stroke-width: 1.0;" width="6" x="638.5" y="305.0898"/><text fill="#000000" font-family="sans-serif" font-size="11" lengthAdjust="spacingAndGlyphs" textLength="197" x="650.5" y="311.0908">__init__(self, name, details={}, **kwargs)</text><ellipse cx="641.5" cy="321.9258" fill="#84BE84" rx="3" ry="3" style="stroke: #038048; stroke-width: 1.0;"/><text fill="#000000" font-family="sans-serif" font-size="11" lengthAdjust="spacingAndGlyphs" text-decoration="underline" textLength="51" x="650.5" y="324.9268">cls_meth()</text><line style="stroke: #000000; stroke-width: 1.0;" x1="650.5" x2="701.5" y1="326.9268" y2="326.9268"/><ellipse cx="641.5" cy="335.7617" fill="#84BE84" rx="3" ry="3" style="stroke: #038048; stroke-width: 1.0;"/><text fill="#000000" font-family="sans-serif" font-size="11" lengthAdjust="spacingAndGlyphs" textLength="237" x="650.5" y="338.7627">meth1(self, arg1, arg2='default', *args, **kwargs)</text><!--class examples.example.Child--><rect fill="#FEFECE" filter="url(#f1jundtyr1yjgx)" height="75.6719" id="examples.example.Child" style="stroke: #A80036; stroke-width: 1.5;" width="189" x="667.5" y="405"/><ellipse cx="743.25" cy="421" fill="#ADD1B2" rx="11" ry="11" style="stroke: #A80036; stroke-width: 1.0;"/><path d="M746.0156,416.875 Q746.1719,416.6563 746.3594,416.5469 Q746.5469,416.4375 746.7656,416.4375 Q747.1406,416.4375 747.375,416.6953 Q747.6094,416.9531 747.6094,417.5625 L747.6094,419.0156 Q747.6094,419.625 747.375,419.8906 Q747.1406,420.1563 746.7656,420.1563 Q746.4219,420.1563 746.2188,419.9531 Q746.0156,419.7656 745.9063,419.25 Q745.8594,418.8906 745.6719,418.7031 Q745.3438,418.3281 744.7344,418.1094 Q744.125,417.8906 743.5,417.8906 Q742.7344,417.8906 742.1016,418.2188 Q741.4688,418.5469 740.9766,419.2969 Q740.4844,420.0469 740.4844,421.0781 L740.4844,422.1719 Q740.4844,423.4063 741.375,424.2266 Q742.2656,425.0469 743.8594,425.0469 Q744.7969,425.0469 745.4531,424.7969 Q745.8438,424.6406 746.2656,424.2031 Q746.5313,423.9375 746.6797,423.8594 Q746.8281,423.7813 747.0313,423.7813 Q747.3594,423.7813 747.6172,424.0391 Q747.875,424.2969 747.875,424.6406 Q747.875,424.9844 747.5313,425.3906 Q747.0313,425.9688 746.2344,426.2969 Q745.1563,426.75 743.8594,426.75 Q742.3438,426.75 741.1406,426.125 Q740.1563,425.625 739.4688,424.5547 Q738.7813,423.4844 738.7813,422.2031 L738.7813,421.0469 Q738.7813,419.7188 739.3984,418.5703 Q740.0156,417.4219 741.1094,416.8047 Q742.2031,416.1875 743.4375,416.1875 Q744.1719,416.1875 744.8203,416.3516 Q745.4688,416.5156 746.0156,416.875 Z "/><text fill="#000000" font-family="sans-serif" font-size="12" lengthAdjust="spacingAndGlyphs" textLength="29" x="763.75" y="425.9102">Child</text><line style="stroke: #A80036; stroke-width: 1.5;" x1="668.5" x2="855.5" y1="437" y2="437"/><ellipse cx="678.5" cy="449.418" fill="none" rx="3" ry="3" style="stroke: #038048; stroke-width: 1.0;"/><text fill="#000000" font-family="sans-serif" font-size="11" lengthAdjust="spacingAndGlyphs" text-decoration="underline" textLength="30" x="687.5" y="452.4189">clsvar</text><line style="stroke: #000000; stroke-width: 1.0;" x1="687.5" x2="717.5" y1="454.4189" y2="454.4189"/><line style="stroke: #A80036; stroke-width: 1.5;" x1="668.5" x2="855.5" y1="458.8359" y2="458.8359"/><ellipse cx="678.5" cy="471.2539" fill="#84BE84" rx="3" ry="3" style="stroke: #038048; stroke-width: 1.0;"/><text fill="#000000" font-family="sans-serif" font-size="11" lengthAdjust="spacingAndGlyphs" textLength="163" x="687.5" y="474.2549">meth1(self, arg1, arg2, arg3=888)</text><!--class examples.example.MyVisitor--><rect fill="#FEFECE" filter="url(#f1jundtyr1yjgx)" height="48" id="examples.example.MyVisitor" style="stroke: #A80036; stroke-width: 1.5;" width="80" x="515" y="262.5"/><ellipse cx="530" cy="278.5" fill="#ADD1B2" rx="11" ry="11" style="stroke: #A80036; stroke-width: 1.0;"/><path d="M532.7656,274.375 Q532.9219,274.1563 533.1094,274.0469 Q533.2969,273.9375 533.5156,273.9375 Q533.8906,273.9375 534.125,274.1953 Q534.3594,274.4531 534.3594,275.0625 L534.3594,276.5156 Q534.3594,277.125 534.125,277.3906 Q533.8906,277.6563 533.5156,277.6563 Q533.1719,277.6563 532.9688,277.4531 Q532.7656,277.2656 532.6563,276.75 Q532.6094,276.3906 532.4219,276.2031 Q532.0938,275.8281 531.4844,275.6094 Q530.875,275.3906 530.25,275.3906 Q529.4844,275.3906 528.8516,275.7188 Q528.2188,276.0469 527.7266,276.7969 Q527.2344,277.5469 527.2344,278.5781 L527.2344,279.6719 Q527.2344,280.9063 528.125,281.7266 Q529.0156,282.5469 530.6094,282.5469 Q531.5469,282.5469 532.2031,282.2969 Q532.5938,282.1406 533.0156,281.7031 Q533.2813,281.4375 533.4297,281.3594 Q533.5781,281.2813 533.7813,281.2813 Q534.1094,281.2813 534.3672,281.5391 Q534.625,281.7969 534.625,282.1406 Q534.625,282.4844 534.2813,282.8906 Q533.7813,283.4688 532.9844,283.7969 Q531.9063,284.25 530.6094,284.25 Q529.0938,284.25 527.8906,283.625 Q526.9063,283.125 526.2188,282.0547 Q525.5313,280.9844 525.5313,279.7031 L525.5313,278.5469 Q525.5313,277.2188 526.1484,276.0703 Q526.7656,274.9219 527.8594,274.3047 Q528.9531,273.6875 530.1875,273.6875 Q530.9219,273.6875 531.5703,273.8516 Q532.2188,274.0156 532.7656,274.375 Z "/><text fill="#000000" font-family="sans-serif" font-size="12" lengthAdjust="spacingAndGlyphs" textLength="48" x="544" y="283.4102">MyVisitor</text><line style="stroke: #A80036; stroke-width: 1.5;" x1="516" x2="594" y1="294.5" y2="294.5"/><line style="stroke: #A80036; stroke-width: 1.5;" x1="516" x2="594" y1="302.5" y2="302.5"/><!--class examples.example.C--><rect fill="#FEFECE" filter="url(#f1jundtyr1yjgx)" height="75.6719" id="examples.example.C" style="stroke: #A80036; stroke-width: 1.5;" width="183" x="296.5" y="248.5"/><ellipse cx="379.25" cy="264.5" fill="#ADD1B2" rx="11" ry="11" style="stroke: #A80036; stroke-width: 1.0;"/><path d="M382.0156,260.375 Q382.1719,260.1563 382.3594,260.0469 Q382.5469,259.9375 382.7656,259.9375 Q383.1406,259.9375 383.375,260.1953 Q383.6094,260.4531 383.6094,261.0625 L383.6094,262.5156 Q383.6094,263.125 383.375,263.3906 Q383.1406,263.6563 382.7656,263.6563 Q382.4219,263.6563 382.2188,263.4531 Q382.0156,263.2656 381.9063,262.75 Q381.8594,262.3906 381.6719,262.2031 Q381.3438,261.8281 380.7344,261.6094 Q380.125,261.3906 379.5,261.3906 Q378.7344,261.3906 378.1016,261.7188 Q377.4688,262.0469 376.9766,262.7969 Q376.4844,263.5469 376.4844,264.5781 L376.4844,265.6719 Q376.4844,266.9063 377.375,267.7266 Q378.2656,268.5469 379.8594,268.5469 Q380.7969,268.5469 381.4531,268.2969 Q381.8438,268.1406 382.2656,267.7031 Q382.5313,267.4375 382.6797,267.3594 Q382.8281,267.2813 383.0313,267.2813 Q383.3594,267.2813 383.6172,267.5391 Q383.875,267.7969 383.875,268.1406 Q383.875,268.4844 383.5313,268.8906 Q383.0313,269.4688 382.2344,269.7969 Q381.1563,270.25 379.8594,270.25 Q378.3438,270.25 377.1406,269.625 Q376.1563,269.125 375.4688,268.0547 Q374.7813,266.9844 374.7813,265.7031 L374.7813,264.5469 Q374.7813,263.2188 375.3984,262.0703 Q376.0156,260.9219 377.1094,260.3047 Q378.2031,259.6875 379.4375,259.6875 Q380.1719,259.6875 380.8203,259.8516 Q381.4688,260.0156 382.0156,260.375 Z "/><text fill="#000000" font-family="sans-serif" font-size="12" lengthAdjust="spacingAndGlyphs" textLength="9" x="399.75" y="269.4102">C</text><line style="stroke: #A80036; stroke-width: 1.5;" x1="297.5" x2="478.5" y1="280.5" y2="280.5"/><rect fill="none" height="6" style="stroke: #C82930; stroke-width: 1.0;" width="6" x="304.5" y="289.918"/><text fill="#000000" font-family="sans-serif" font-size="11" lengthAdjust="spacingAndGlyphs" text-decoration="underline" textLength="73" x="316.5" y="295.9189">__metaclass__</text><line style="stroke: #000000; stroke-width: 1.0;" x1="316.5" x2="389.5" y1="297.9189" y2="297.9189"/><line style="stroke: #A80036; stroke-width: 1.5;" x1="297.5" x2="478.5" y1="302.3359" y2="302.3359"/><ellipse cx="307.5" cy="314.7539" fill="#84BE84" rx="3" ry="3" style="stroke: #038048; stroke-width: 1.0;"/><text fill="#000000" font-family="sans-serif" font-size="11" font-style="italic" lengthAdjust="spacingAndGlyphs" textLength="157" x="316.5" y="317.7549">my_abstract_method(self, arg1)</text><!--class examples.example.__module__--><rect fill="#FEFECE" filter="url(#f1jundtyr1yjgx)" height="75.6719" id="examples.example.__module__" style="stroke: #A80036; stroke-width: 1.5;" width="199" x="62.5" y="248.5"/><ellipse cx="122.75" cy="264.5" fill="#ADD1B2" rx="11" ry="11" style="stroke: #A80036; stroke-width: 1.0;"/><path d="M125.5156,260.375 Q125.6719,260.1563 125.8594,260.0469 Q126.0469,259.9375 126.2656,259.9375 Q126.6406,259.9375 126.875,260.1953 Q127.1094,260.4531 127.1094,261.0625 L127.1094,262.5156 Q127.1094,263.125 126.875,263.3906 Q126.6406,263.6563 126.2656,263.6563 Q125.9219,263.6563 125.7188,263.4531 Q125.5156,263.2656 125.4063,262.75 Q125.3594,262.3906 125.1719,262.2031 Q124.8438,261.8281 124.2344,261.6094 Q123.625,261.3906 123,261.3906 Q122.2344,261.3906 121.6016,261.7188 Q120.9688,262.0469 120.4766,262.7969 Q119.9844,263.5469 119.9844,264.5781 L119.9844,265.6719 Q119.9844,266.9063 120.875,267.7266 Q121.7656,268.5469 123.3594,268.5469 Q124.2969,268.5469 124.9531,268.2969 Q125.3438,268.1406 125.7656,267.7031 Q126.0313,267.4375 126.1797,267.3594 Q126.3281,267.2813 126.5313,267.2813 Q126.8594,267.2813 127.1172,267.5391 Q127.375,267.7969 127.375,268.1406 Q127.375,268.4844 127.0313,268.8906 Q126.5313,269.4688 125.7344,269.7969 Q124.6563,270.25 123.3594,270.25 Q121.8438,270.25 120.6406,269.625 Q119.6563,269.125 118.9688,268.0547 Q118.2813,266.9844 118.2813,265.7031 L118.2813,264.5469 Q118.2813,263.2188 118.8984,262.0703 Q119.5156,260.9219 120.6094,260.3047 Q121.7031,259.6875 122.9375,259.6875 Q123.6719,259.6875 124.3203,259.8516 Q124.9688,260.0156 125.5156,260.375 Z "/><text fill="#000000" font-family="sans-serif" font-size="12" lengthAdjust="spacingAndGlyphs" textLength="70" x="143.25" y="269.4102">__module__</text><line style="stroke: #A80036; stroke-width: 1.5;" x1="63.5" x2="260.5" y1="280.5" y2="280.5"/><ellipse cx="73.5" cy="292.918" fill="none" rx="3" ry="3" style="stroke: #038048; stroke-width: 1.0;"/><text fill="#000000" font-family="sans-serif" font-size="11" lengthAdjust="spacingAndGlyphs" textLength="43" x="82.5" y="295.9189">LOGGER</text><line style="stroke: #A80036; stroke-width: 1.5;" x1="63.5" x2="260.5" y1="302.3359" y2="302.3359"/><ellipse cx="73.5" cy="314.7539" fill="#84BE84" rx="3" ry="3" style="stroke: #038048; stroke-width: 1.0;"/><text fill="#000000" font-family="sans-serif" font-size="11" lengthAdjust="spacingAndGlyphs" textLength="173" x="82.5" y="317.7549">global_func(arg1, arg2, arg3=None)</text><!--class ast.NodeVisitor--><rect fill="#FEFECE" filter="url(#f1jundtyr1yjgx)" height="48" id="ast.NodeVisitor" style="stroke: #A80036; stroke-width: 1.5;" width="96" x="507" y="60"/><ellipse cx="522" cy="76" fill="#ADD1B2" rx="11" ry="11" style="stroke: #A80036; stroke-width: 1.0;"/><path d="M524.7656,71.875 Q524.9219,71.6563 525.1094,71.5469 Q525.2969,71.4375 525.5156,71.4375 Q525.8906,71.4375 526.125,71.6953 Q526.3594,71.9531 526.3594,72.5625 L526.3594,74.0156 Q526.3594,74.625 526.125,74.8906 Q525.8906,75.1563 525.5156,75.1563 Q525.1719,75.1563 524.9688,74.9531 Q524.7656,74.7656 524.6563,74.25 Q524.6094,73.8906 524.4219,73.7031 Q524.0938,73.3281 523.4844,73.1094 Q522.875,72.8906 522.25,72.8906 Q521.4844,72.8906 520.8516,73.2188 Q520.2188,73.5469 519.7266,74.2969 Q519.2344,75.0469 519.2344,76.0781 L519.2344,77.1719 Q519.2344,78.4063 520.125,79.2266 Q521.0156,80.0469 522.6094,80.0469 Q523.5469,80.0469 524.2031,79.7969 Q524.5938,79.6406 525.0156,79.2031 Q525.2813,78.9375 525.4297,78.8594 Q525.5781,78.7813 525.7813,78.7813 Q526.1094,78.7813 526.3672,79.0391 Q526.625,79.2969 526.625,79.6406 Q526.625,79.9844 526.2813,80.3906 Q525.7813,80.9688 524.9844,81.2969 Q523.9063,81.75 522.6094,81.75 Q521.0938,81.75 519.8906,81.125 Q518.9063,80.625 518.2188,79.5547 Q517.5313,78.4844 517.5313,77.2031 L517.5313,76.0469 Q517.5313,74.7188 518.1484,73.5703 Q518.7656,72.4219 519.8594,71.8047 Q520.9531,71.1875 522.1875,71.1875 Q522.9219,71.1875 523.5703,71.3516 Q524.2188,71.5156 524.7656,71.875 Z "/><text fill="#000000" font-family="sans-serif" font-size="12" lengthAdjust="spacingAndGlyphs" textLength="64" x="536" y="80.9102">NodeVisitor</text><line style="stroke: #A80036; stroke-width: 1.5;" x1="508" x2="602" y1="92" y2="92"/><line style="stroke: #A80036; stroke-width: 1.5;" x1="508" x2="602" y1="100" y2="100"/><!--link examples.example.A to examples.example.Child--><path d="M762,365.504 C762,379.124 762,392.712 762,404.575 " fill="none" id="examples.example.A-examples.example.Child" style="stroke: #A80036; stroke-width: 1.0;"/><polygon fill="none" points="755,365.03,762,345.03,769,365.03,755,365.03" style="stroke: #A80036; stroke-width: 1.0;"/><!--link ast.NodeVisitor to examples.example.MyVisitor--><path d="M555,128.43 C555,169.509 555,229.591 555,262.257 " fill="none" id="ast.NodeVisitor-examples.example.MyVisitor" style="stroke: #A80036; stroke-width: 1.0;"/><polygon fill="none" points="548,128.392,555,108.392,562,128.392,548,128.392" style="stroke: #A80036; stroke-width: 1.0;"/><!--
@startuml
namespace examples {
  namespace example {
    class A {
      +name
      +details
      -__init__(self, name, details={}, **kwargs)
      +cls_meth(){static}
      +meth1(self, arg1, arg2='default', *args, **kwargs)
    }

    A <|- - Child
    class Child {
      {static} +clsvar
      +meth1(self, arg1, arg2, arg3=888)
    }

    ast.NodeVisitor <|- - MyVisitor
    class MyVisitor {
    }

    class C {
      {static} -__metaclass__
      +my_abstract_method(self, arg1){abstract}
    }

    class __module__ {
      +LOGGER
      +global_func(arg1, arg2, arg3=None)
    }

  }
}
@enduml

PlantUML version 1.2017.19(Sun Nov 12 22:46:22 AEDT 2017)
(GPL source distribution)
Java Runtime: Java(TM) SE Runtime Environment
JVM: Java HotSpot(TM) 64-Bit Server VM
Java Version: 1.8.0_151-b12
Operating System: Windows Server 2012 R2
OS Version: 6.3
Default Encoding: UTF-8
Language: en
Country: US
--></g></svg>