<?xml version="1.0" encoding="UTF-8" standalone="no"?><svg xmlns="http://www.w3.org/2000/svg" xmlns:xlink="http://www.w3.org/1999/xlink" contentScriptType="application/ecmascript" contentStyleType="text/css" height="578px" preserveAspectRatio="none" style="width:1228px;height:578px;" version="1.1" viewBox="0 0 1228 578" width="1228px" zoomAndPan="magnify"><defs><filter height="300%" id="f1kbylbgun4n36" width="300%" x="-1" y="-1"><feGaussianBlur result="blurOut" stdDeviation="4.0"/><feColorMatrix in="blurOut" result="blurOut2" type="matrix" values="0 0 0 0 0 0 0 0 0 0 0 0 0 0 0 0 0 0 .4 0"/><feOffset dx="8.0" dy="8.0" in="blurOut2" result="blurOut3"/><feBlend in="SourceGraphic" in2="blurOut3" mode="normal"/></filter></defs><g><!--cluster ast--><polygon fill="#FFFFFF" filter="url(#f1kbylbgun4n36)" points="561,49,615,49,629,96.2188,817,96.2188,817,249,561,249,561,49" style="stroke: #000000; stroke-width: 4.0;"/><line style="stroke: #000000; stroke-width: 4.0;" x1="561" x2="629" y1="96.2188" y2="96.2188"/><text fill="#000000" font-family="sans-serif" font-size="28" font-weight="bold" lengthAdjust="spacingAndGlyphs" textLength="42" x="569" y="82.0664">ast</text><!--class ast.NodeVisitor--><rect fill="#F8F8F8" filter="url(#f1kbylbgun4n36)" height="96" id="ast.NodeVisitor" style="stroke: #383838; stroke-width: 3.0;" width="192" x="593" y="121"/><ellipse cx="623" cy="153" fill="#C2C2C2" rx="22" ry="22" style="stroke: #383838; stroke-width: 2.0;"/><path d="M628.5313,144.75 Q628.8438,144.3125 629.2188,144.0938 Q629.5938,143.875 630.0313,143.875 Q630.7813,143.875 631.25,144.3906 Q631.7188,144.9063 631.7188,146.125 L631.7188,149.0313 Q631.7188,150.25 631.25,150.7813 Q630.7813,151.3125 630.0313,151.3125 Q629.3438,151.3125 628.9375,150.9063 Q628.5313,150.5313 628.3125,149.5 Q628.2188,148.7813 627.8438,148.4063 Q627.1875,147.6563 625.9688,147.2188 Q624.75,146.7813 623.5,146.7813 Q621.9688,146.7813 620.7031,147.4375 Q619.4375,148.0938 618.4531,149.5938 Q617.4688,151.0938 617.4688,153.1563 L617.4688,155.3438 Q617.4688,157.8125 619.25,159.4531 Q621.0313,161.0938 624.2188,161.0938 Q626.0938,161.0938 627.4063,160.5938 Q628.1875,160.2813 629.0313,159.4063 Q629.5625,158.875 629.8594,158.7188 Q630.1563,158.5625 630.5625,158.5625 Q631.2188,158.5625 631.7344,159.0781 Q632.25,159.5938 632.25,160.2813 Q632.25,160.9688 631.5625,161.7813 Q630.5625,162.9375 628.9688,163.5938 Q626.8125,164.5 624.2188,164.5 Q621.1875,164.5 618.7813,163.25 Q616.8125,162.25 615.4375,160.1094 Q614.0625,157.9688 614.0625,155.4063 L614.0625,153.0938 Q614.0625,150.4375 615.2969,148.1406 Q616.5313,145.8438 618.7188,144.6094 Q620.9063,143.375 623.375,143.375 Q624.8438,143.375 626.1406,143.7031 Q627.4375,144.0313 628.5313,144.75 Z "/><text fill="#000000" font-family="sans-serif" font-size="24" lengthAdjust="spacingAndGlyphs" textLength="128" x="651" y="162.8203">NodeVisitor</text><line style="stroke: #383838; stroke-width: 3.0;" x1="595" x2="783" y1="185" y2="185"/><line style="stroke: #383838; stroke-width: 3.0;" x1="595" x2="783" y1="201" y2="201"/><!--class A--><rect fill="#F8F8F8" filter="url(#f1kbylbgun4n36)" height="234.3594" id="A" style="stroke: #383838; stroke-width: 3.0;" width="510" x="12" y="52"/><ellipse cx="251.5" cy="84" fill="#C2C2C2" rx="22" ry="22" style="stroke: #383838; stroke-width: 2.0;"/><path d="M257.0313,75.75 Q257.3438,75.3125 257.7188,75.0938 Q258.0938,74.875 258.5313,74.875 Q259.2813,74.875 259.75,75.3906 Q260.2188,75.9063 260.2188,77.125 L260.2188,80.0313 Q260.2188,81.25 259.75,81.7813 Q259.2813,82.3125 258.5313,82.3125 Q257.8438,82.3125 257.4375,81.9063 Q257.0313,81.5313 256.8125,80.5 Q256.7188,79.7813 256.3438,79.4063 Q255.6875,78.6563 254.4688,78.2188 Q253.25,77.7813 252,77.7813 Q250.4688,77.7813 249.2031,78.4375 Q247.9375,79.0938 246.9531,80.5938 Q245.9688,82.0938 245.9688,84.1563 L245.9688,86.3438 Q245.9688,88.8125 247.75,90.4531 Q249.5313,92.0938 252.7188,92.0938 Q254.5938,92.0938 255.9063,91.5938 Q256.6875,91.2813 257.5313,90.4063 Q258.0625,89.875 258.3594,89.7188 Q258.6563,89.5625 259.0625,89.5625 Q259.7188,89.5625 260.2344,90.0781 Q260.75,90.5938 260.75,91.2813 Q260.75,91.9688 260.0625,92.7813 Q259.0625,93.9375 257.4688,94.5938 Q255.3125,95.5 252.7188,95.5 Q249.6875,95.5 247.2813,94.25 Q245.3125,93.25 243.9375,91.1094 Q242.5625,88.9688 242.5625,86.4063 L242.5625,84.0938 Q242.5625,81.4375 243.7969,79.1406 Q245.0313,76.8438 247.2188,75.6094 Q249.4063,74.375 251.875,74.375 Q253.3438,74.375 254.6406,74.7031 Q255.9375,75.0313 257.0313,75.75 Z "/><text fill="#000000" font-family="sans-serif" font-size="24" lengthAdjust="spacingAndGlyphs" textLength="14" x="292.5" y="93.8203">A</text><line style="stroke: #383838; stroke-width: 3.0;" x1="14" x2="520" y1="116" y2="116"/><text fill="#000000" font-family="sans-serif" font-size="22" lengthAdjust="spacingAndGlyphs" textLength="64" x="24" y="146.8379">+name</text><text fill="#000000" font-family="sans-serif" font-size="22" lengthAdjust="spacingAndGlyphs" textLength="74" x="24" y="174.5098">+details</text><line style="stroke: #383838; stroke-width: 3.0;" x1="14" x2="520" y1="187.3438" y2="187.3438"/><text fill="#000000" font-family="sans-serif" font-size="22" lengthAdjust="spacingAndGlyphs" textLength="402" x="24" y="218.1816">-__init__(self, name, details={}, **kwargs)</text><text fill="#000000" font-family="sans-serif" font-size="22" lengthAdjust="spacingAndGlyphs" text-decoration="underline" textLength="114" x="24" y="245.8535">+cls_meth()</text><line style="stroke: #000000; stroke-width: 1.0;" x1="24" x2="138" y1="249.8535" y2="249.8535"/><text fill="#000000" font-family="sans-serif" font-size="22" lengthAdjust="spacingAndGlyphs" textLength="486" x="24" y="273.5254">+meth1(self, arg1, arg2='default', *args, **kwargs)</text><!--class Child--><rect fill="#F8F8F8" filter="url(#f1kbylbgun4n36)" height="151.3438" id="Child" style="stroke: #383838; stroke-width: 3.0;" width="362" x="86" y="406"/><ellipse cx="229.5" cy="438" fill="#C2C2C2" rx="22" ry="22" style="stroke: #383838; stroke-width: 2.0;"/><path d="M235.0313,429.75 Q235.3438,429.3125 235.7188,429.0938 Q236.0938,428.875 236.5313,428.875 Q237.2813,428.875 237.75,429.3906 Q238.2188,429.9063 238.2188,431.125 L238.2188,434.0313 Q238.2188,435.25 237.75,435.7813 Q237.2813,436.3125 236.5313,436.3125 Q235.8438,436.3125 235.4375,435.9063 Q235.0313,435.5313 234.8125,434.5 Q234.7188,433.7813 234.3438,433.4063 Q233.6875,432.6563 232.4688,432.2188 Q231.25,431.7813 230,431.7813 Q228.4688,431.7813 227.2031,432.4375 Q225.9375,433.0938 224.9531,434.5938 Q223.9688,436.0938 223.9688,438.1563 L223.9688,440.3438 Q223.9688,442.8125 225.75,444.4531 Q227.5313,446.0938 230.7188,446.0938 Q232.5938,446.0938 233.9063,445.5938 Q234.6875,445.2813 235.5313,444.4063 Q236.0625,443.875 236.3594,443.7188 Q236.6563,443.5625 237.0625,443.5625 Q237.7188,443.5625 238.2344,444.0781 Q238.75,444.5938 238.75,445.2813 Q238.75,445.9688 238.0625,446.7813 Q237.0625,447.9375 235.4688,448.5938 Q233.3125,449.5 230.7188,449.5 Q227.6875,449.5 225.2813,448.25 Q223.3125,447.25 221.9375,445.1094 Q220.5625,442.9688 220.5625,440.4063 L220.5625,438.0938 Q220.5625,435.4375 221.7969,433.1406 Q223.0313,430.8438 225.2188,429.6094 Q227.4063,428.375 229.875,428.375 Q231.3438,428.375 232.6406,428.7031 Q233.9375,429.0313 235.0313,429.75 Z "/><text fill="#000000" font-family="sans-serif" font-size="24" lengthAdjust="spacingAndGlyphs" textLength="58" x="270.5" y="447.8203">Child</text><line style="stroke: #383838; stroke-width: 3.0;" x1="88" x2="446" y1="470" y2="470"/><text fill="#000000" font-family="sans-serif" font-size="22" lengthAdjust="spacingAndGlyphs" text-decoration="underline" textLength="72" x="98" y="500.8379">+clsvar</text><line style="stroke: #000000; stroke-width: 1.0;" x1="98" x2="170" y1="504.8379" y2="504.8379"/><line style="stroke: #383838; stroke-width: 3.0;" x1="88" x2="446" y1="513.6719" y2="513.6719"/><text fill="#000000" font-family="sans-serif" font-size="22" lengthAdjust="spacingAndGlyphs" textLength="338" x="98" y="544.5098">+meth1(self, arg1, arg2, arg3=888)</text><!--class MyVisitor--><rect fill="#F8F8F8" filter="url(#f1kbylbgun4n36)" height="96" id="MyVisitor" style="stroke: #383838; stroke-width: 3.0;" width="160" x="609" y="434"/><ellipse cx="639" cy="466" fill="#C2C2C2" rx="22" ry="22" style="stroke: #383838; stroke-width: 2.0;"/><path d="M644.5313,457.75 Q644.8438,457.3125 645.2188,457.0938 Q645.5938,456.875 646.0313,456.875 Q646.7813,456.875 647.25,457.3906 Q647.7188,457.9063 647.7188,459.125 L647.7188,462.0313 Q647.7188,463.25 647.25,463.7813 Q646.7813,464.3125 646.0313,464.3125 Q645.3438,464.3125 644.9375,463.9063 Q644.5313,463.5313 644.3125,462.5 Q644.2188,461.7813 643.8438,461.4063 Q643.1875,460.6563 641.9688,460.2188 Q640.75,459.7813 639.5,459.7813 Q637.9688,459.7813 636.7031,460.4375 Q635.4375,461.0938 634.4531,462.5938 Q633.4688,464.0938 633.4688,466.1563 L633.4688,468.3438 Q633.4688,470.8125 635.25,472.4531 Q637.0313,474.0938 640.2188,474.0938 Q642.0938,474.0938 643.4063,473.5938 Q644.1875,473.2813 645.0313,472.4063 Q645.5625,471.875 645.8594,471.7188 Q646.1563,471.5625 646.5625,471.5625 Q647.2188,471.5625 647.7344,472.0781 Q648.25,472.5938 648.25,473.2813 Q648.25,473.9688 647.5625,474.7813 Q646.5625,475.9375 644.9688,476.5938 Q642.8125,477.5 640.2188,477.5 Q637.1875,477.5 634.7813,476.25 Q632.8125,475.25 631.4375,473.1094 Q630.0625,470.9688 630.0625,468.4063 L630.0625,466.0938 Q630.0625,463.4375 631.2969,461.1406 Q632.5313,458.8438 634.7188,457.6094 Q636.9063,456.375 639.375,456.375 Q640.8438,456.375 642.1406,456.7031 Q643.4375,457.0313 644.5313,457.75 Z "/><text fill="#000000" font-family="sans-serif" font-size="24" lengthAdjust="spacingAndGlyphs" textLength="96" x="667" y="475.8203">MyVisitor</text><line style="stroke: #383838; stroke-width: 3.0;" x1="611" x2="767" y1="498" y2="498"/><line style="stroke: #383838; stroke-width: 3.0;" x1="611" x2="767" y1="514" y2="514"/><!--class C--><rect fill="#F8F8F8" filter="url(#f1kbylbgun4n36)" height="151.3438" id="C" style="stroke: #383838; stroke-width: 3.0;" width="350" x="856" y="93"/><ellipse cx="1013.5" cy="125" fill="#C2C2C2" rx="22" ry="22" style="stroke: #383838; stroke-width: 2.0;"/><path d="M1019.0313,116.75 Q1019.3438,116.3125 1019.7188,116.0938 Q1020.0938,115.875 1020.5313,115.875 Q1021.2813,115.875 1021.75,116.3906 Q1022.2188,116.9063 1022.2188,118.125 L1022.2188,121.0313 Q1022.2188,122.25 1021.75,122.7813 Q1021.2813,123.3125 1020.5313,123.3125 Q1019.8438,123.3125 1019.4375,122.9063 Q1019.0313,122.5313 1018.8125,121.5 Q1018.7188,120.7813 1018.3438,120.4063 Q1017.6875,119.6563 1016.4688,119.2188 Q1015.25,118.7813 1014,118.7813 Q1012.4688,118.7813 1011.2031,119.4375 Q1009.9375,120.0938 1008.9531,121.5938 Q1007.9688,123.0938 1007.9688,125.1563 L1007.9688,127.3438 Q1007.9688,129.8125 1009.75,131.4531 Q1011.5313,133.0938 1014.7188,133.0938 Q1016.5938,133.0938 1017.9063,132.5938 Q1018.6875,132.2813 1019.5313,131.4063 Q1020.0625,130.875 1020.3594,130.7188 Q1020.6563,130.5625 1021.0625,130.5625 Q1021.7188,130.5625 1022.2344,131.0781 Q1022.75,131.5938 1022.75,132.2813 Q1022.75,132.9688 1022.0625,133.7813 Q1021.0625,134.9375 1019.4688,135.5938 Q1017.3125,136.5 1014.7188,136.5 Q1011.6875,136.5 1009.2813,135.25 Q1007.3125,134.25 1005.9375,132.1094 Q1004.5625,129.9688 1004.5625,127.4063 L1004.5625,125.0938 Q1004.5625,122.4375 1005.7969,120.1406 Q1007.0313,117.8438 1009.2188,116.6094 Q1011.4063,115.375 1013.875,115.375 Q1015.3438,115.375 1016.6406,115.7031 Q1017.9375,116.0313 1019.0313,116.75 Z "/><text fill="#000000" font-family="sans-serif" font-size="24" lengthAdjust="spacingAndGlyphs" textLength="18" x="1054.5" y="134.8203">C</text><line style="stroke: #383838; stroke-width: 3.0;" x1="858" x2="1204" y1="157" y2="157"/><text fill="#000000" font-family="sans-serif" font-size="22" lengthAdjust="spacingAndGlyphs" text-decoration="underline" textLength="154" x="868" y="187.8379">-__metaclass__</text><line style="stroke: #000000; stroke-width: 1.0;" x1="868" x2="1022" y1="191.8379" y2="191.8379"/><line style="stroke: #383838; stroke-width: 3.0;" x1="858" x2="1204" y1="200.6719" y2="200.6719"/><text fill="#000000" font-family="sans-serif" font-size="22" font-style="italic" lengthAdjust="spacingAndGlyphs" textLength="326" x="868" y="231.5098">+my_abstract_method(self, arg1)</text><!--link A to Child--><path d="M267,327.008 C267,354.248 267,381.4238 267,405.1504 " fill="none" id="A-Child" style="stroke: #383838; stroke-width: 2.0;"/><polygon fill="none" points="253,326.06,267,286.06,281,326.06,253,326.06" style="stroke: #383838; stroke-width: 2.0;"/><!--link ast.NodeVisitor to MyVisitor--><path d="M689,257.3 C689,314.556 689,387.4458 689,433.9286 " fill="none" id="ast.NodeVisitor-MyVisitor" style="stroke: #383838; stroke-width: 2.0;"/><polygon fill="none" points="675,257.26,689,217.26,703,257.26,675,257.26" style="stroke: #383838; stroke-width: 2.0;"/><!--
@startuml
skinparam monochrome true
skinparam classAttributeIconSize 0
scale 2

class A {
  +name
  +details
  -__init__(self, name, details={}, **kwargs)
  +cls_meth(){static}
  +meth1(self, arg1, arg2='default', *args, **kwargs)
}

A <|- - Child
class Child {
  {static} +clsvar
  +meth1(self, arg1, arg2, arg3=888)
}

ast.NodeVisitor <|- - MyVisitor
class MyVisitor {
}

class C {
  {static} -__metaclass__
  +my_abstract_method(self, arg1){abstract}
}

@enduml

PlantUML version 1.2017.19(Sun Nov 12 22:46:22 AEDT 2017)
(GPL source distribution)
Java Runtime: Java(TM) SE Runtime Environment
JVM: Java HotSpot(TM) 64-Bit Server VM
Java Version: 1.8.0_151-b12
Operating System: Windows Server 2012 R2
OS Version: 6.3
Default Encoding: UTF-8
Language: en
Country: US
--></g></svg>