<?xml version="1.0" encoding="UTF-8" standalone="no"?><svg xmlns="http://www.w3.org/2000/svg" xmlns:xlink="http://www.w3.org/1999/xlink" contentScriptType="application/ecmascript" contentStyleType="text/css" height="1430px" preserveAspectRatio="none" style="width:1662px;height:1430px;" version="1.1" viewBox="0 0 1662 1430" width="1662px" zoomAndPan="magnify"><defs><filter height="300%" id="fikcwg1d8j4rm" width="300%" x="-1" y="-1"><feGaussianBlur result="blurOut" stdDeviation="4.0"/><feColorMatrix in="blurOut" result="blurOut2" type="matrix" values="0 0 0 0 0 0 0 0 0 0 0 0 0 0 0 0 0 0 .4 0"/><feOffset dx="8.0" dy="8.0" in="blurOut2" result="blurOut3"/><feBlend in="SourceGraphic" in2="blurOut3" mode="normal"/></filter></defs><g><!--cluster puml_generator--><polygon fill="#FFFFFF" filter="url(#fikcwg1d8j4rm)" points="206,48,442,48,456,95.2188,714,95.2188,714,1351,206,1351,206,48" style="stroke: #000000; stroke-width: 4.0;"/><line style="stroke: #000000; stroke-width: 4.0;" x1="206" x2="456" y1="95.2188" y2="95.2188"/><text fill="#000000" font-family="sans-serif" font-size="28" font-weight="bold" lengthAdjust="spacingAndGlyphs" textLength="224" x="214" y="81.0664">puml_generator</text><!--cluster code_info--><polygon fill="#FFFFFF" filter="url(#fikcwg1d8j4rm)" points="762,242,914,242,928,289.2188,1130,289.2188,1130,1364,762,1364,762,242" style="stroke: #000000; stroke-width: 4.0;"/><line style="stroke: #000000; stroke-width: 4.0;" x1="762" x2="928" y1="289.2188" y2="289.2188"/><text fill="#000000" font-family="sans-serif" font-size="28" font-weight="bold" lengthAdjust="spacingAndGlyphs" textLength="140" x="770" y="275.0664">code_info</text><!--cluster ast_visitor--><polygon fill="#FFFFFF" filter="url(#fikcwg1d8j4rm)" points="1178,846,1338,846,1352,893.2188,1618,893.2188,1618,1406,1178,1406,1178,846" style="stroke: #000000; stroke-width: 4.0;"/><line style="stroke: #000000; stroke-width: 4.0;" x1="1178" x2="1352" y1="893.2188" y2="893.2188"/><text fill="#000000" font-family="sans-serif" font-size="28" font-weight="bold" lengthAdjust="spacingAndGlyphs" textLength="148" x="1186" y="879.0664">ast_visitor</text><!--cluster ast--><polygon fill="#FFFFFF" filter="url(#fikcwg1d8j4rm)" points="1270,339,1324,339,1338,386.2188,1526,386.2188,1526,539,1270,539,1270,339" style="stroke: #000000; stroke-width: 4.0;"/><line style="stroke: #000000; stroke-width: 4.0;" x1="1270" x2="1338" y1="386.2188" y2="386.2188"/><text fill="#000000" font-family="sans-serif" font-size="28" font-weight="bold" lengthAdjust="spacingAndGlyphs" textLength="42" x="1278" y="372.0664">ast</text><polygon fill="#FFFFFF" filter="url(#fikcwg1d8j4rm)" points="12,404,140,404,154,451.2188,168,451.2188,168,514.4375,12,514.4375,12,404" style="stroke: #000000; stroke-width: 4.0;"/><line style="stroke: #000000; stroke-width: 4.0;" x1="12" x2="154" y1="451.2188" y2="451.2188"/><text fill="#000000" font-family="sans-serif" font-size="28" font-weight="bold" lengthAdjust="spacingAndGlyphs" textLength="116" x="20" y="437.0664">py2puml</text><!--class puml_generator.PUML_Generator--><rect fill="#F8F8F8" filter="url(#fikcwg1d8j4rm)" height="677.1094" id="puml_generator.PUML_Generator" style="stroke: #383838; stroke-width: 3.0;" width="442" x="239" y="120"/><ellipse cx="356.5" cy="152" fill="#C2C2C2" rx="22" ry="22" style="stroke: #383838; stroke-width: 2.0;"/><path d="M362.0313,143.75 Q362.3438,143.3125 362.7188,143.0938 Q363.0938,142.875 363.5313,142.875 Q364.2813,142.875 364.75,143.3906 Q365.2188,143.9063 365.2188,145.125 L365.2188,148.0313 Q365.2188,149.25 364.75,149.7813 Q364.2813,150.3125 363.5313,150.3125 Q362.8438,150.3125 362.4375,149.9063 Q362.0313,149.5313 361.8125,148.5 Q361.7188,147.7813 361.3438,147.4063 Q360.6875,146.6563 359.4688,146.2188 Q358.25,145.7813 357,145.7813 Q355.4688,145.7813 354.2031,146.4375 Q352.9375,147.0938 351.9531,148.5938 Q350.9688,150.0938 350.9688,152.1563 L350.9688,154.3438 Q350.9688,156.8125 352.75,158.4531 Q354.5313,160.0938 357.7188,160.0938 Q359.5938,160.0938 360.9063,159.5938 Q361.6875,159.2813 362.5313,158.4063 Q363.0625,157.875 363.3594,157.7188 Q363.6563,157.5625 364.0625,157.5625 Q364.7188,157.5625 365.2344,158.0781 Q365.75,158.5938 365.75,159.2813 Q365.75,159.9688 365.0625,160.7813 Q364.0625,161.9375 362.4688,162.5938 Q360.3125,163.5 357.7188,163.5 Q354.6875,163.5 352.2813,162.25 Q350.3125,161.25 348.9375,159.1094 Q347.5625,156.9688 347.5625,154.4063 L347.5625,152.0938 Q347.5625,149.4375 348.7969,147.1406 Q350.0313,144.8438 352.2188,143.6094 Q354.4063,142.375 356.875,142.375 Q358.3438,142.375 359.6406,142.7031 Q360.9375,143.0313 362.0313,143.75 Z "/><text fill="#000000" font-family="sans-serif" font-size="24" lengthAdjust="spacingAndGlyphs" textLength="190" x="397.5" y="161.8203">PUML_Generator</text><line style="stroke: #383838; stroke-width: 3.0;" x1="241" x2="679" y1="184" y2="184"/><text fill="#000000" font-family="sans-serif" font-size="22" lengthAdjust="spacingAndGlyphs" textLength="54" x="251" y="214.8379">+dest</text><text fill="#000000" font-family="sans-serif" font-size="22" lengthAdjust="spacingAndGlyphs" textLength="72" x="251" y="242.5098">+config</text><text fill="#000000" font-family="sans-serif" font-size="22" lengthAdjust="spacingAndGlyphs" textLength="132" x="251" y="270.1816">+sourcename</text><line style="stroke: #383838; stroke-width: 3.0;" x1="241" x2="679" y1="283.0156" y2="283.0156"/><text fill="#000000" font-family="sans-serif" font-size="22" lengthAdjust="spacingAndGlyphs" textLength="322" x="251" y="313.8535">-__init__(self, dest, config=None)</text><text fill="#000000" font-family="sans-serif" font-size="22" lengthAdjust="spacingAndGlyphs" textLength="166" x="251" y="341.5254">+opt_prolog(self)</text><text fill="#000000" font-family="sans-serif" font-size="22" lengthAdjust="spacingAndGlyphs" textLength="162" x="251" y="369.1973">+opt_epilog(self)</text><text fill="#000000" font-family="sans-serif" font-size="22" lengthAdjust="spacingAndGlyphs" textLength="174" x="251" y="396.8691">+opt_globals(self)</text><text fill="#000000" font-family="sans-serif" font-size="22" lengthAdjust="spacingAndGlyphs" textLength="192" x="251" y="424.541">+opt_omit_self(self)</text><text fill="#000000" font-family="sans-serif" font-size="22" lengthAdjust="spacingAndGlyphs" textLength="410" x="251" y="452.2129">+opt_write_arglist(self, section='methods')</text><text fill="#000000" font-family="sans-serif" font-size="22" lengthAdjust="spacingAndGlyphs" textLength="418" x="251" y="479.8848">+opt_omit_defaults(self, section='methods')</text><text fill="#000000" font-family="sans-serif" font-size="22" lengthAdjust="spacingAndGlyphs" textLength="280" x="251" y="507.5566">+start_file(self, sourcename)</text><text fill="#000000" font-family="sans-serif" font-size="22" lengthAdjust="spacingAndGlyphs" textLength="334" x="251" y="535.2285">+end_file(self, sourcename=None)</text><text fill="#000000" font-family="sans-serif" font-size="22" lengthAdjust="spacingAndGlyphs" textLength="188" x="251" y="562.9004">+output(self, *args)</text><text fill="#000000" font-family="sans-serif" font-size="22" lengthAdjust="spacingAndGlyphs" textLength="132" x="251" y="590.5723">+header(self)</text><text fill="#000000" font-family="sans-serif" font-size="22" lengthAdjust="spacingAndGlyphs" textLength="122" x="251" y="618.2441">+footer(self)</text><text fill="#000000" font-family="sans-serif" font-size="22" lengthAdjust="spacingAndGlyphs" textLength="362" x="251" y="645.916">+do_file(self, srcfile, errormsg=None)</text><text fill="#000000" font-family="sans-serif" font-size="22" lengthAdjust="spacingAndGlyphs" text-decoration="underline" textLength="198" x="251" y="673.5879">-_deco_marker(dec)</text><line style="stroke: #000000; stroke-width: 1.0;" x1="251" x2="449" y1="677.5879" y2="677.5879"/><text fill="#000000" font-family="sans-serif" font-size="22" lengthAdjust="spacingAndGlyphs" text-decoration="underline" textLength="236" x="251" y="701.2598">+is_static_method(meth)</text><line style="stroke: #000000; stroke-width: 1.0;" x1="251" x2="487" y1="705.2598" y2="705.2598"/><text fill="#000000" font-family="sans-serif" font-size="22" lengthAdjust="spacingAndGlyphs" textLength="306" x="251" y="728.9316">+print_classinfo(self, classinfo)</text><text fill="#000000" font-family="sans-serif" font-size="22" lengthAdjust="spacingAndGlyphs" textLength="298" x="251" y="756.6035">+print_codeinfo(self, codeinfo)</text><text fill="#000000" font-family="sans-serif" font-size="22" lengthAdjust="spacingAndGlyphs" textLength="336" x="251" y="784.2754">+arglist(self, fdef, ismethod=False)</text><!--class puml_generator.PUML_Generator_NS--><rect fill="#F8F8F8" filter="url(#fikcwg1d8j4rm)" height="345.0469" id="puml_generator.PUML_Generator_NS" style="stroke: #383838; stroke-width: 3.0;" width="396" x="262" y="973"/><ellipse cx="334.3" cy="1005" fill="#C2C2C2" rx="22" ry="22" style="stroke: #383838; stroke-width: 2.0;"/><path d="M339.8313,996.75 Q340.1438,996.3125 340.5188,996.0938 Q340.8938,995.875 341.3313,995.875 Q342.0813,995.875 342.55,996.3906 Q343.0188,996.9063 343.0188,998.125 L343.0188,1001.0313 Q343.0188,1002.25 342.55,1002.7813 Q342.0813,1003.3125 341.3313,1003.3125 Q340.6438,1003.3125 340.2375,1002.9063 Q339.8313,1002.5313 339.6125,1001.5 Q339.5188,1000.7813 339.1438,1000.4063 Q338.4875,999.6563 337.2688,999.2188 Q336.05,998.7813 334.8,998.7813 Q333.2688,998.7813 332.0031,999.4375 Q330.7375,1000.0938 329.7531,1001.5938 Q328.7688,1003.0938 328.7688,1005.1563 L328.7688,1007.3438 Q328.7688,1009.8125 330.55,1011.4531 Q332.3313,1013.0938 335.5188,1013.0938 Q337.3938,1013.0938 338.7063,1012.5938 Q339.4875,1012.2813 340.3313,1011.4063 Q340.8625,1010.875 341.1594,1010.7188 Q341.4563,1010.5625 341.8625,1010.5625 Q342.5188,1010.5625 343.0344,1011.0781 Q343.55,1011.5938 343.55,1012.2813 Q343.55,1012.9688 342.8625,1013.7813 Q341.8625,1014.9375 340.2688,1015.5938 Q338.1125,1016.5 335.5188,1016.5 Q332.4875,1016.5 330.0813,1015.25 Q328.1125,1014.25 326.7375,1012.1094 Q325.3625,1009.9688 325.3625,1007.4063 L325.3625,1005.0938 Q325.3625,1002.4375 326.5969,1000.1406 Q327.8313,997.8438 330.0188,996.6094 Q332.2063,995.375 334.675,995.375 Q336.1438,995.375 337.4406,995.7031 Q338.7375,996.0313 339.8313,996.75 Z "/><text fill="#000000" font-family="sans-serif" font-size="24" lengthAdjust="spacingAndGlyphs" textLength="238" x="371.7" y="1014.8203">PUML_Generator_NS</text><line style="stroke: #383838; stroke-width: 3.0;" x1="264" x2="656" y1="1037" y2="1037"/><text fill="#000000" font-family="sans-serif" font-size="22" lengthAdjust="spacingAndGlyphs" textLength="50" x="274" y="1067.8379">+root</text><text fill="#000000" font-family="sans-serif" font-size="22" lengthAdjust="spacingAndGlyphs" textLength="136" x="274" y="1095.5098">+namespaces</text><line style="stroke: #383838; stroke-width: 3.0;" x1="264" x2="656" y1="1108.3438" y2="1108.3438"/><text fill="#000000" font-family="sans-serif" font-size="22" lengthAdjust="spacingAndGlyphs" textLength="372" x="274" y="1139.1816">-__init__(self, dest, root, config=None)</text><text fill="#000000" font-family="sans-serif" font-size="22" lengthAdjust="spacingAndGlyphs" textLength="238" x="274" y="1166.8535">+depth(self){@property}</text><text fill="#000000" font-family="sans-serif" font-size="22" lengthAdjust="spacingAndGlyphs" textLength="280" x="274" y="1194.5254">+start_file(self, sourcename)</text><text fill="#000000" font-family="sans-serif" font-size="22" lengthAdjust="spacingAndGlyphs" textLength="226" x="274" y="1222.1973">+pop_ns(self, count=1)</text><text fill="#000000" font-family="sans-serif" font-size="22" lengthAdjust="spacingAndGlyphs" textLength="212" x="274" y="1249.8691">+push_ns(self, name)</text><text fill="#000000" font-family="sans-serif" font-size="22" lengthAdjust="spacingAndGlyphs" textLength="188" x="274" y="1277.541">+output(self, *args)</text><text fill="#000000" font-family="sans-serif" font-size="22" lengthAdjust="spacingAndGlyphs" textLength="122" x="274" y="1305.2129">+footer(self)</text><!--class code_info.CodeInfo--><rect fill="#F8F8F8" filter="url(#fikcwg1d8j4rm)" height="289.7031" id="code_info.CodeInfo" style="stroke: #383838; stroke-width: 3.0;" width="276" x="808" y="314"/><ellipse cx="888.4" cy="346" fill="#C2C2C2" rx="22" ry="22" style="stroke: #383838; stroke-width: 2.0;"/><path d="M893.9313,337.75 Q894.2438,337.3125 894.6188,337.0938 Q894.9938,336.875 895.4313,336.875 Q896.1813,336.875 896.65,337.3906 Q897.1188,337.9063 897.1188,339.125 L897.1188,342.0313 Q897.1188,343.25 896.65,343.7813 Q896.1813,344.3125 895.4313,344.3125 Q894.7438,344.3125 894.3375,343.9063 Q893.9313,343.5313 893.7125,342.5 Q893.6188,341.7813 893.2438,341.4063 Q892.5875,340.6563 891.3688,340.2188 Q890.15,339.7813 888.9,339.7813 Q887.3688,339.7813 886.1031,340.4375 Q884.8375,341.0938 883.8531,342.5938 Q882.8688,344.0938 882.8688,346.1563 L882.8688,348.3438 Q882.8688,350.8125 884.65,352.4531 Q886.4313,354.0938 889.6188,354.0938 Q891.4938,354.0938 892.8063,353.5938 Q893.5875,353.2813 894.4313,352.4063 Q894.9625,351.875 895.2594,351.7188 Q895.5563,351.5625 895.9625,351.5625 Q896.6188,351.5625 897.1344,352.0781 Q897.65,352.5938 897.65,353.2813 Q897.65,353.9688 896.9625,354.7813 Q895.9625,355.9375 894.3688,356.5938 Q892.2125,357.5 889.6188,357.5 Q886.5875,357.5 884.1813,356.25 Q882.2125,355.25 880.8375,353.1094 Q879.4625,350.9688 879.4625,348.4063 L879.4625,346.0938 Q879.4625,343.4375 880.6969,341.1406 Q881.9313,338.8438 884.1188,337.6094 Q886.3063,336.375 888.775,336.375 Q890.2438,336.375 891.5406,336.7031 Q892.8375,337.0313 893.9313,337.75 Z "/><text fill="#000000" font-family="sans-serif" font-size="24" lengthAdjust="spacingAndGlyphs" textLength="100" x="927.6" y="355.8203">CodeInfo</text><line style="stroke: #383838; stroke-width: 3.0;" x1="810" x2="1082" y1="378" y2="378"/><text fill="#000000" font-family="sans-serif" font-size="22" lengthAdjust="spacingAndGlyphs" textLength="100" x="820" y="408.8379">+variables</text><text fill="#000000" font-family="sans-serif" font-size="22" lengthAdjust="spacingAndGlyphs" textLength="102" x="820" y="436.5098">+functions</text><line style="stroke: #383838; stroke-width: 3.0;" x1="810" x2="1082" y1="449.3438" y2="449.3438"/><text fill="#000000" font-family="sans-serif" font-size="22" lengthAdjust="spacingAndGlyphs" textLength="134" x="820" y="480.1816">-__init__(self)</text><text fill="#000000" font-family="sans-serif" font-size="22" lengthAdjust="spacingAndGlyphs" textLength="252" x="820" y="507.8535">+add_variable(self, name)</text><text fill="#000000" font-family="sans-serif" font-size="22" lengthAdjust="spacingAndGlyphs" textLength="250" x="820" y="535.5254">+add_function(self, node)</text><text fill="#000000" font-family="sans-serif" font-size="22" lengthAdjust="spacingAndGlyphs" textLength="196" x="820" y="563.1973">+done(self, context)</text><text fill="#000000" font-family="sans-serif" font-size="22" lengthAdjust="spacingAndGlyphs" text-decoration="underline" textLength="154" x="820" y="590.8691">+visibility(name)</text><line style="stroke: #000000; stroke-width: 1.0;" x1="820" x2="974" y1="594.8691" y2="594.8691"/><!--class code_info.ClassInfo--><rect fill="#F8F8F8" filter="url(#fikcwg1d8j4rm)" height="372.7188" id="code_info.ClassInfo" style="stroke: #383838; stroke-width: 3.0;" width="304" x="794" y="960"/><ellipse cx="884.5" cy="992" fill="#C2C2C2" rx="22" ry="22" style="stroke: #383838; stroke-width: 2.0;"/><path d="M890.0313,983.75 Q890.3438,983.3125 890.7188,983.0938 Q891.0938,982.875 891.5313,982.875 Q892.2813,982.875 892.75,983.3906 Q893.2188,983.9063 893.2188,985.125 L893.2188,988.0313 Q893.2188,989.25 892.75,989.7813 Q892.2813,990.3125 891.5313,990.3125 Q890.8438,990.3125 890.4375,989.9063 Q890.0313,989.5313 889.8125,988.5 Q889.7188,987.7813 889.3438,987.4063 Q888.6875,986.6563 887.4688,986.2188 Q886.25,985.7813 885,985.7813 Q883.4688,985.7813 882.2031,986.4375 Q880.9375,987.0938 879.9531,988.5938 Q878.9688,990.0938 878.9688,992.1563 L878.9688,994.3438 Q878.9688,996.8125 880.75,998.4531 Q882.5313,1000.0938 885.7188,1000.0938 Q887.5938,1000.0938 888.9063,999.5938 Q889.6875,999.2813 890.5313,998.4063 Q891.0625,997.875 891.3594,997.7188 Q891.6563,997.5625 892.0625,997.5625 Q892.7188,997.5625 893.2344,998.0781 Q893.75,998.5938 893.75,999.2813 Q893.75,999.9688 893.0625,1000.7813 Q892.0625,1001.9375 890.4688,1002.5938 Q888.3125,1003.5 885.7188,1003.5 Q882.6875,1003.5 880.2813,1002.25 Q878.3125,1001.25 876.9375,999.1094 Q875.5625,996.9688 875.5625,994.4063 L875.5625,992.0938 Q875.5625,989.4375 876.7969,987.1406 Q878.0313,984.8438 880.2188,983.6094 Q882.4063,982.375 884.875,982.375 Q886.3438,982.375 887.6406,982.7031 Q888.9375,983.0313 890.0313,983.75 Z "/><text fill="#000000" font-family="sans-serif" font-size="24" lengthAdjust="spacingAndGlyphs" textLength="106" x="925.5" y="1001.8203">ClassInfo</text><line style="stroke: #383838; stroke-width: 3.0;" x1="796" x2="1096" y1="1024" y2="1024"/><text fill="#000000" font-family="sans-serif" font-size="22" lengthAdjust="spacingAndGlyphs" textLength="116" x="806" y="1054.8379">+classname</text><text fill="#000000" font-family="sans-serif" font-size="22" lengthAdjust="spacingAndGlyphs" textLength="72" x="806" y="1082.5098">+bases</text><text fill="#000000" font-family="sans-serif" font-size="22" lengthAdjust="spacingAndGlyphs" textLength="100" x="806" y="1110.1816">+members</text><line style="stroke: #383838; stroke-width: 3.0;" x1="796" x2="1096" y1="1123.0156" y2="1123.0156"/><text fill="#000000" font-family="sans-serif" font-size="22" lengthAdjust="spacingAndGlyphs" textLength="194" x="806" y="1153.8535">-__init__(self, node)</text><text fill="#000000" font-family="sans-serif" font-size="22" lengthAdjust="spacingAndGlyphs" textLength="280" x="806" y="1181.5254">+classvars(self){@property}</text><text fill="#000000" font-family="sans-serif" font-size="22" lengthAdjust="spacingAndGlyphs" textLength="266" x="806" y="1209.1973">+methods(self){@property}</text><text fill="#000000" font-family="sans-serif" font-size="22" lengthAdjust="spacingAndGlyphs" textLength="260" x="806" y="1236.8691">+add_classvar(self, name)</text><text fill="#000000" font-family="sans-serif" font-size="22" lengthAdjust="spacingAndGlyphs" textLength="252" x="806" y="1264.541">+add_member(self, name)</text><text fill="#000000" font-family="sans-serif" font-size="22" lengthAdjust="spacingAndGlyphs" textLength="242" x="806" y="1292.2129">+add_method(self, node)</text><text fill="#000000" font-family="sans-serif" font-size="22" lengthAdjust="spacingAndGlyphs" textLength="196" x="806" y="1319.8848">+done(self, context)</text><!--class ast_visitor.TreeVisitor--><rect fill="#F8F8F8" filter="url(#fikcwg1d8j4rm)" height="455.7344" id="ast_visitor.TreeVisitor" style="stroke: #383838; stroke-width: 3.0;" width="376" x="1210" y="918"/><ellipse cx="1330.5" cy="950" fill="#C2C2C2" rx="22" ry="22" style="stroke: #383838; stroke-width: 2.0;"/><path d="M1336.0313,941.75 Q1336.3438,941.3125 1336.7188,941.0938 Q1337.0938,940.875 1337.5313,940.875 Q1338.2813,940.875 1338.75,941.3906 Q1339.2188,941.9063 1339.2188,943.125 L1339.2188,946.0313 Q1339.2188,947.25 1338.75,947.7813 Q1338.2813,948.3125 1337.5313,948.3125 Q1336.8438,948.3125 1336.4375,947.9063 Q1336.0313,947.5313 1335.8125,946.5 Q1335.7188,945.7813 1335.3438,945.4063 Q1334.6875,944.6563 1333.4688,944.2188 Q1332.25,943.7813 1331,943.7813 Q1329.4688,943.7813 1328.2031,944.4375 Q1326.9375,945.0938 1325.9531,946.5938 Q1324.9688,948.0938 1324.9688,950.1563 L1324.9688,952.3438 Q1324.9688,954.8125 1326.75,956.4531 Q1328.5313,958.0938 1331.7188,958.0938 Q1333.5938,958.0938 1334.9063,957.5938 Q1335.6875,957.2813 1336.5313,956.4063 Q1337.0625,955.875 1337.3594,955.7188 Q1337.6563,955.5625 1338.0625,955.5625 Q1338.7188,955.5625 1339.2344,956.0781 Q1339.75,956.5938 1339.75,957.2813 Q1339.75,957.9688 1339.0625,958.7813 Q1338.0625,959.9375 1336.4688,960.5938 Q1334.3125,961.5 1331.7188,961.5 Q1328.6875,961.5 1326.2813,960.25 Q1324.3125,959.25 1322.9375,957.1094 Q1321.5625,954.9688 1321.5625,952.4063 L1321.5625,950.0938 Q1321.5625,947.4375 1322.7969,945.1406 Q1324.0313,942.8438 1326.2188,941.6094 Q1328.4063,940.375 1330.875,940.375 Q1332.3438,940.375 1333.6406,940.7031 Q1334.9375,941.0313 1336.0313,941.75 Z "/><text fill="#000000" font-family="sans-serif" font-size="24" lengthAdjust="spacingAndGlyphs" textLength="118" x="1371.5" y="959.8203">TreeVisitor</text><line style="stroke: #383838; stroke-width: 3.0;" x1="1212" x2="1584" y1="982" y2="982"/><text fill="#000000" font-family="sans-serif" font-size="22" lengthAdjust="spacingAndGlyphs" textLength="72" x="1222" y="1012.8379">+srcfile</text><text fill="#000000" font-family="sans-serif" font-size="22" lengthAdjust="spacingAndGlyphs" textLength="84" x="1222" y="1040.5098">+context</text><text fill="#000000" font-family="sans-serif" font-size="22" lengthAdjust="spacingAndGlyphs" textLength="100" x="1222" y="1068.1816">+classinfo</text><text fill="#000000" font-family="sans-serif" font-size="22" lengthAdjust="spacingAndGlyphs" textLength="116" x="1222" y="1095.8535">+moduleinfo</text><text fill="#000000" font-family="sans-serif" font-size="22" lengthAdjust="spacingAndGlyphs" textLength="124" x="1222" y="1123.5254">+constructor</text><text fill="#000000" font-family="sans-serif" font-size="22" lengthAdjust="spacingAndGlyphs" textLength="50" x="1222" y="1151.1973">+tree</text><line style="stroke: #383838; stroke-width: 3.0;" x1="1212" x2="1584" y1="1164.0313" y2="1164.0313"/><text fill="#000000" font-family="sans-serif" font-size="22" lengthAdjust="spacingAndGlyphs" textLength="352" x="1222" y="1194.8691">-__init__(self, srcfile, context=None)</text><text fill="#000000" font-family="sans-serif" font-size="22" lengthAdjust="spacingAndGlyphs" textLength="282" x="1222" y="1222.541">+parse(self, errormsg=None)</text><text fill="#000000" font-family="sans-serif" font-size="22" lengthAdjust="spacingAndGlyphs" textLength="152" x="1222" y="1250.2129">+visit_tree(self)</text><text fill="#000000" font-family="sans-serif" font-size="22" lengthAdjust="spacingAndGlyphs" textLength="242" x="1222" y="1277.8848">+visit_Module(self, node)</text><text fill="#000000" font-family="sans-serif" font-size="22" lengthAdjust="spacingAndGlyphs" textLength="262" x="1222" y="1305.5566">+visit_ClassDef(self, node)</text><text fill="#000000" font-family="sans-serif" font-size="22" lengthAdjust="spacingAndGlyphs" textLength="290" x="1222" y="1333.2285">+visit_FunctionDef(self, node)</text><text fill="#000000" font-family="sans-serif" font-size="22" lengthAdjust="spacingAndGlyphs" textLength="242" x="1222" y="1360.9004">+visit_Assign(self, node)</text><!--class ast.NodeVisitor--><rect fill="#F8F8F8" filter="url(#fikcwg1d8j4rm)" height="96" id="ast.NodeVisitor" style="stroke: #383838; stroke-width: 3.0;" width="192" x="1302" y="411"/><ellipse cx="1332" cy="443" fill="#C2C2C2" rx="22" ry="22" style="stroke: #383838; stroke-width: 2.0;"/><path d="M1337.5313,434.75 Q1337.8438,434.3125 1338.2188,434.0938 Q1338.5938,433.875 1339.0313,433.875 Q1339.7813,433.875 1340.25,434.3906 Q1340.7188,434.9063 1340.7188,436.125 L1340.7188,439.0313 Q1340.7188,440.25 1340.25,440.7813 Q1339.7813,441.3125 1339.0313,441.3125 Q1338.3438,441.3125 1337.9375,440.9063 Q1337.5313,440.5313 1337.3125,439.5 Q1337.2188,438.7813 1336.8438,438.4063 Q1336.1875,437.6563 1334.9688,437.2188 Q1333.75,436.7813 1332.5,436.7813 Q1330.9688,436.7813 1329.7031,437.4375 Q1328.4375,438.0938 1327.4531,439.5938 Q1326.4688,441.0938 1326.4688,443.1563 L1326.4688,445.3438 Q1326.4688,447.8125 1328.25,449.4531 Q1330.0313,451.0938 1333.2188,451.0938 Q1335.0938,451.0938 1336.4063,450.5938 Q1337.1875,450.2813 1338.0313,449.4063 Q1338.5625,448.875 1338.8594,448.7188 Q1339.1563,448.5625 1339.5625,448.5625 Q1340.2188,448.5625 1340.7344,449.0781 Q1341.25,449.5938 1341.25,450.2813 Q1341.25,450.9688 1340.5625,451.7813 Q1339.5625,452.9375 1337.9688,453.5938 Q1335.8125,454.5 1333.2188,454.5 Q1330.1875,454.5 1327.7813,453.25 Q1325.8125,452.25 1324.4375,450.1094 Q1323.0625,447.9688 1323.0625,445.4063 L1323.0625,443.0938 Q1323.0625,440.4375 1324.2969,438.1406 Q1325.5313,435.8438 1327.7188,434.6094 Q1329.9063,433.375 1332.375,433.375 Q1333.8438,433.375 1335.1406,433.7031 Q1336.4375,434.0313 1337.5313,434.75 Z "/><text fill="#000000" font-family="sans-serif" font-size="24" lengthAdjust="spacingAndGlyphs" textLength="128" x="1360" y="452.8203">NodeVisitor</text><line style="stroke: #383838; stroke-width: 3.0;" x1="1304" x2="1492" y1="475" y2="475"/><line style="stroke: #383838; stroke-width: 3.0;" x1="1304" x2="1492" y1="491" y2="491"/><!--link puml_generator.PUML_Generator to puml_generator.PUML_Generator_NS--><path d="M460,838.848 C460,885.638 460,931.508 460,972.89 " fill="none" id="puml_generator.PUML_Generator-puml_generator.PUML_Generator_NS" style="stroke: #383838; stroke-width: 2.0;"/><polygon fill="none" points="446,838.498,460,798.498,474,838.498,446,838.498" style="stroke: #383838; stroke-width: 2.0;"/><!--link code_info.CodeInfo to code_info.ClassInfo--><path d="M946,644.512 C946,742.074 946,861.702 946,959.424 " fill="none" id="code_info.CodeInfo-code_info.ClassInfo" style="stroke: #383838; stroke-width: 2.0;"/><polygon fill="none" points="932,644.18,946,604.18,960,644.18,932,644.18" style="stroke: #383838; stroke-width: 2.0;"/><!--link ast.NodeVisitor to ast_visitor.TreeVisitor--><path d="M1398,547.852 C1398,640.424 1398,790.792 1398,917.344 " fill="none" id="ast.NodeVisitor-ast_visitor.TreeVisitor" style="stroke: #383838; stroke-width: 2.0;"/><polygon fill="none" points="1384,547.408,1398,507.408,1412,547.408,1384,547.408" style="stroke: #383838; stroke-width: 2.0;"/><!--
@startuml
skinparam monochrome true
skinparam classAttributeIconSize 0
scale 2

namespace py2puml {
}
namespace puml_generator {
  class PUML_Generator {
    +dest
    +config
    +sourcename
    -__init__(self, dest, config=None)
    +opt_prolog(self)
    +opt_epilog(self)
    +opt_globals(self)
    +opt_omit_self(self)
    +opt_write_arglist(self, section='methods')
    +opt_omit_defaults(self, section='methods')
    +start_file(self, sourcename)
    +end_file(self, sourcename=None)
    +output(self, *args)
    +header(self)
    +footer(self)
    +do_file(self, srcfile, errormsg=None)
    -_deco_marker(dec){static}
    +is_static_method(meth){static}
    +print_classinfo(self, classinfo)
    +print_codeinfo(self, codeinfo)
    +arglist(self, fdef, ismethod=False)
  }

  PUML_Generator <|- - PUML_Generator_NS
  class PUML_Generator_NS {
    +root
    +namespaces
    -__init__(self, dest, root, config=None)
    +depth(self){@property}
    +start_file(self, sourcename)
    +pop_ns(self, count=1)
    +push_ns(self, name)
    +output(self, *args)
    +footer(self)
  }

}
namespace code_info {
  class CodeInfo {
    +variables
    +functions
    -__init__(self)
    +add_variable(self, name)
    +add_function(self, node)
    +done(self, context)
    +visibility(name){static}
  }

  CodeInfo <|- - ClassInfo
  class ClassInfo {
    +classname
    +bases
    +members
    -__init__(self, node)
    +classvars(self){@property}
    +methods(self){@property}
    +add_classvar(self, name)
    +add_member(self, name)
    +add_method(self, node)
    +done(self, context)
  }

}
namespace ast_visitor {
  ast.NodeVisitor <|- - TreeVisitor
  class TreeVisitor {
    +srcfile
    +context
    +classinfo
    +moduleinfo
    +constructor
    +tree
    -__init__(self, srcfile, context=None)
    +parse(self, errormsg=None)
    +visit_tree(self)
    +visit_Module(self, node)
    +visit_ClassDef(self, node)
    +visit_FunctionDef(self, node)
    +visit_Assign(self, node)
  }

}
@enduml

PlantUML version 1.2017.19(Sun Nov 12 22:46:22 AEDT 2017)
(GPL source distribution)
Java Runtime: Java(TM) SE Runtime Environment
JVM: Java HotSpot(TM) 64-Bit Server VM
Java Version: 1.8.0_151-b12
Operating System: Windows Server 2012 R2
OS Version: 6.3
Default Encoding: UTF-8
Language: en
Country: US
--></g></svg>