<?xml version="1.0" encoding="UTF-8" standalone="no"?><svg xmlns="http://www.w3.org/2000/svg" xmlns:xlink="http://www.w3.org/1999/xlink" contentScriptType="application/ecmascript" contentStyleType="text/css" height="1483.2px" preserveAspectRatio="none" style="width:867px;height:1483px;" version="1.1" viewBox="0 0 867 1483" width="867.6px" zoomAndPan="magnify"><defs><filter height="300%" id="f11gyrdzxw27rf" width="300%" x="-1" y="-1"><feGaussianBlur result="blurOut" stdDeviation="2.4"/><feColorMatrix in="blurOut" result="blurOut2" type="matrix" values="0 0 0 0 0 0 0 0 0 0 0 0 0 0 0 0 0 0 .4 0"/><feOffset dx="4.8" dy="4.8" in="blurOut2" result="blurOut3"/><feBlend in="SourceGraphic" in2="blurOut3" mode="normal"/></filter></defs><g><!--cluster puml_generator--><polygon fill="#FFFFFF" filter="url(#f11gyrdzxw27rf)" points="307.2,718.8,448.8,718.8,457.2,747.1313,612,747.1313,612,1468.8,307.2,1468.8,307.2,718.8" style="stroke: #000000; stroke-width: 2.4;"/><line style="stroke: #000000; stroke-width: 2.4;" x1="307.2" x2="457.2" y1="747.1313" y2="747.1313"/><text fill="#000000" font-family="sans-serif" font-size="16.8" font-weight="bold" lengthAdjust="spacingAndGlyphs" textLength="134.4" x="312" y="738.6398">puml_generator</text><!--cluster code_info--><polygon fill="#FFFFFF" filter="url(#f11gyrdzxw27rf)" points="620.4,28.8,711.6,28.8,720,57.1313,841.2,57.1313,841.2,633.6,620.4,633.6,620.4,28.8" style="stroke: #000000; stroke-width: 2.4;"/><line style="stroke: #000000; stroke-width: 2.4;" x1="620.4" x2="720" y1="57.1313" y2="57.1313"/><text fill="#000000" font-family="sans-serif" font-size="16.8" font-weight="bold" lengthAdjust="spacingAndGlyphs" textLength="84" x="625.2" y="48.6398">code_info</text><!--cluster ast_visitor--><polygon fill="#FFFFFF" filter="url(#f11gyrdzxw27rf)" points="327.6,322.8,423.6,322.8,432,351.1312,591.6,351.1312,591.6,658.8,327.6,658.8,327.6,322.8" style="stroke: #000000; stroke-width: 2.4;"/><line style="stroke: #000000; stroke-width: 2.4;" x1="327.6" x2="432" y1="351.1312" y2="351.1312"/><text fill="#000000" font-family="sans-serif" font-size="16.8" font-weight="bold" lengthAdjust="spacingAndGlyphs" textLength="88.8" x="332.4" y="342.6398">ast_visitor</text><!--cluster ast--><polygon fill="#FFFFFF" filter="url(#f11gyrdzxw27rf)" points="382.8,87,415.2,87,423.6,115.3313,536.4,115.3313,536.4,207,382.8,207,382.8,87" style="stroke: #000000; stroke-width: 2.4;"/><line style="stroke: #000000; stroke-width: 2.4;" x1="382.8" x2="423.6" y1="115.3313" y2="115.3313"/><text fill="#000000" font-family="sans-serif" font-size="16.8" font-weight="bold" lengthAdjust="spacingAndGlyphs" textLength="25.2" x="387.6" y="106.8398">ast</text><polygon fill="#FFFFFF" filter="url(#f11gyrdzxw27rf)" points="7.2,126,84,126,92.4,154.3312,100.8,154.3312,100.8,192.2625,7.2,192.2625,7.2,126" style="stroke: #000000; stroke-width: 2.4;"/><line style="stroke: #000000; stroke-width: 2.4;" x1="7.2" x2="92.4" y1="154.3312" y2="154.3312"/><text fill="#000000" font-family="sans-serif" font-size="16.8" font-weight="bold" lengthAdjust="spacingAndGlyphs" textLength="69.6" x="12" y="145.8398">py2puml</text><!--class puml_generator.PUML_Generator--><rect fill="#FEFECE" filter="url(#f11gyrdzxw27rf)" height="406.2656" id="puml_generator.PUML_Generator" style="stroke: #A80036; stroke-width: 1.7999999999999998;" width="265.2" x="327" y="762"/><ellipse cx="397.5" cy="781.2" fill="#ADD1B2" rx="13.2" ry="13.2" style="stroke: #A80036; stroke-width: 1.2;"/><path d="M400.8187,776.25 Q401.0062,775.9875 401.2313,775.8562 Q401.4563,775.725 401.7188,775.725 Q402.1688,775.725 402.45,776.0344 Q402.7313,776.3438 402.7313,777.075 L402.7313,778.8188 Q402.7313,779.55 402.45,779.8688 Q402.1688,780.1875 401.7188,780.1875 Q401.3063,780.1875 401.0625,779.9438 Q400.8187,779.7188 400.6875,779.1 Q400.6312,778.6687 400.4063,778.4438 Q400.0125,777.9938 399.2813,777.7312 Q398.55,777.4688 397.8,777.4688 Q396.8812,777.4688 396.1219,777.8625 Q395.3625,778.2563 394.7719,779.1563 Q394.1813,780.0563 394.1813,781.2937 L394.1813,782.6062 Q394.1813,784.0875 395.25,785.0719 Q396.3187,786.0563 398.2313,786.0563 Q399.3563,786.0563 400.1438,785.7563 Q400.6125,785.5688 401.1188,785.0437 Q401.4375,784.725 401.6156,784.6313 Q401.7938,784.5375 402.0375,784.5375 Q402.4313,784.5375 402.7406,784.8469 Q403.05,785.1563 403.05,785.5688 Q403.05,785.9812 402.6375,786.4688 Q402.0375,787.1625 401.0813,787.5563 Q399.7875,788.1 398.2313,788.1 Q396.4125,788.1 394.9688,787.35 Q393.7875,786.75 392.9625,785.4656 Q392.1375,784.1813 392.1375,782.6438 L392.1375,781.2563 Q392.1375,779.6625 392.8781,778.2844 Q393.6188,776.9063 394.9313,776.1656 Q396.2438,775.425 397.725,775.425 Q398.6063,775.425 399.3844,775.6219 Q400.1625,775.8188 400.8187,776.25 Z "/><text fill="#000000" font-family="sans-serif" font-size="14.4" lengthAdjust="spacingAndGlyphs" textLength="114" x="422.1" y="787.0922">PUML_Generator</text><line style="stroke: #A80036; stroke-width: 1.7999999999999998;" x1="328.2" x2="591" y1="800.4" y2="800.4"/><text fill="#000000" font-family="sans-serif" font-size="13.2" lengthAdjust="spacingAndGlyphs" textLength="32.4" x="334.2" y="818.9027">+dest</text><text fill="#000000" font-family="sans-serif" font-size="13.2" lengthAdjust="spacingAndGlyphs" textLength="43.2" x="334.2" y="835.5059">+config</text><text fill="#000000" font-family="sans-serif" font-size="13.2" lengthAdjust="spacingAndGlyphs" textLength="79.2" x="334.2" y="852.109">+sourcename</text><line style="stroke: #A80036; stroke-width: 1.7999999999999998;" x1="328.2" x2="591" y1="859.8094" y2="859.8094"/><text fill="#000000" font-family="sans-serif" font-size="13.2" lengthAdjust="spacingAndGlyphs" textLength="193.2" x="334.2" y="878.3121">-__init__(self, dest, config=None)</text><text fill="#000000" font-family="sans-serif" font-size="13.2" lengthAdjust="spacingAndGlyphs" textLength="99.6" x="334.2" y="894.9152">+opt_prolog(self)</text><text fill="#000000" font-family="sans-serif" font-size="13.2" lengthAdjust="spacingAndGlyphs" textLength="97.2" x="334.2" y="911.5184">+opt_epilog(self)</text><text fill="#000000" font-family="sans-serif" font-size="13.2" lengthAdjust="spacingAndGlyphs" textLength="104.4" x="334.2" y="928.1215">+opt_globals(self)</text><text fill="#000000" font-family="sans-serif" font-size="13.2" lengthAdjust="spacingAndGlyphs" textLength="115.2" x="334.2" y="944.7246">+opt_omit_self(self)</text><text fill="#000000" font-family="sans-serif" font-size="13.2" lengthAdjust="spacingAndGlyphs" textLength="246" x="334.2" y="961.3277">+opt_write_arglist(self, section='methods')</text><text fill="#000000" font-family="sans-serif" font-size="13.2" lengthAdjust="spacingAndGlyphs" textLength="250.8" x="334.2" y="977.9309">+opt_omit_defaults(self, section='methods')</text><text fill="#000000" font-family="sans-serif" font-size="13.2" lengthAdjust="spacingAndGlyphs" textLength="168" x="334.2" y="994.534">+start_file(self, sourcename)</text><text fill="#000000" font-family="sans-serif" font-size="13.2" lengthAdjust="spacingAndGlyphs" textLength="200.4" x="334.2" y="1011.1371">+end_file(self, sourcename=None)</text><text fill="#000000" font-family="sans-serif" font-size="13.2" lengthAdjust="spacingAndGlyphs" textLength="112.8" x="334.2" y="1027.7402">+output(self, *args)</text><text fill="#000000" font-family="sans-serif" font-size="13.2" lengthAdjust="spacingAndGlyphs" textLength="79.2" x="334.2" y="1044.3434">+header(self)</text><text fill="#000000" font-family="sans-serif" font-size="13.2" lengthAdjust="spacingAndGlyphs" textLength="73.2" x="334.2" y="1060.9465">+footer(self)</text><text fill="#000000" font-family="sans-serif" font-size="13.2" lengthAdjust="spacingAndGlyphs" textLength="217.2" x="334.2" y="1077.5496">+do_file(self, srcfile, errormsg=None)</text><text fill="#000000" font-family="sans-serif" font-size="13.2" lengthAdjust="spacingAndGlyphs" text-decoration="underline" textLength="118.8" x="334.2" y="1094.1527">-_deco_marker(dec)</text><line style="stroke: #000000; stroke-width: 1.0;" x1="334.2" x2="453" y1="1096.5527" y2="1096.5527"/><text fill="#000000" font-family="sans-serif" font-size="13.2" lengthAdjust="spacingAndGlyphs" text-decoration="underline" textLength="141.6" x="334.2" y="1110.7559">+is_static_method(meth)</text><line style="stroke: #000000; stroke-width: 1.0;" x1="334.2" x2="475.8" y1="1113.1559" y2="1113.1559"/><text fill="#000000" font-family="sans-serif" font-size="13.2" lengthAdjust="spacingAndGlyphs" textLength="183.6" x="334.2" y="1127.359">+print_classinfo(self, classinfo)</text><text fill="#000000" font-family="sans-serif" font-size="13.2" lengthAdjust="spacingAndGlyphs" textLength="178.8" x="334.2" y="1143.9621">+print_codeinfo(self, codeinfo)</text><text fill="#000000" font-family="sans-serif" font-size="13.2" lengthAdjust="spacingAndGlyphs" textLength="201.6" x="334.2" y="1160.5652">+arglist(self, fdef, ismethod=False)</text><!--class puml_generator.PUML_Generator_NS--><rect fill="#FEFECE" filter="url(#f11gyrdzxw27rf)" height="207.0281" id="puml_generator.PUML_Generator_NS" style="stroke: #A80036; stroke-width: 1.7999999999999998;" width="237.6" x="340.8" y="1242"/><ellipse cx="384.18" cy="1261.2" fill="#ADD1B2" rx="13.2" ry="13.2" style="stroke: #A80036; stroke-width: 1.2;"/><path d="M387.4988,1256.25 Q387.6863,1255.9875 387.9112,1255.8563 Q388.1362,1255.725 388.3987,1255.725 Q388.8487,1255.725 389.13,1256.0344 Q389.4112,1256.3438 389.4112,1257.075 L389.4112,1258.8188 Q389.4112,1259.55 389.13,1259.8687 Q388.8487,1260.1875 388.3987,1260.1875 Q387.9863,1260.1875 387.7425,1259.9438 Q387.4988,1259.7188 387.3675,1259.1 Q387.3113,1258.6688 387.0862,1258.4438 Q386.6925,1257.9937 385.9612,1257.7313 Q385.23,1257.4688 384.48,1257.4688 Q383.5613,1257.4688 382.8019,1257.8625 Q382.0425,1258.2563 381.4519,1259.1563 Q380.8613,1260.0562 380.8613,1261.2938 L380.8613,1262.6063 Q380.8613,1264.0875 381.93,1265.0719 Q382.9988,1266.0562 384.9112,1266.0562 Q386.0362,1266.0562 386.8237,1265.7563 Q387.2925,1265.5688 387.7988,1265.0438 Q388.1175,1264.725 388.2956,1264.6313 Q388.4737,1264.5375 388.7175,1264.5375 Q389.1113,1264.5375 389.4206,1264.8469 Q389.73,1265.1563 389.73,1265.5688 Q389.73,1265.9813 389.3175,1266.4688 Q388.7175,1267.1625 387.7612,1267.5562 Q386.4675,1268.1 384.9112,1268.1 Q383.0925,1268.1 381.6487,1267.35 Q380.4675,1266.75 379.6425,1265.4656 Q378.8175,1264.1812 378.8175,1262.6438 L378.8175,1261.2563 Q378.8175,1259.6625 379.5581,1258.2844 Q380.2988,1256.9063 381.6113,1256.1656 Q382.9238,1255.425 384.405,1255.425 Q385.2862,1255.425 386.0644,1255.6219 Q386.8425,1255.8188 387.4988,1256.25 Z "/><text fill="#000000" font-family="sans-serif" font-size="14.4" lengthAdjust="spacingAndGlyphs" textLength="142.8" x="406.62" y="1267.0922">PUML_Generator_NS</text><line style="stroke: #A80036; stroke-width: 1.7999999999999998;" x1="342" x2="577.2" y1="1280.4" y2="1280.4"/><text fill="#000000" font-family="sans-serif" font-size="13.2" lengthAdjust="spacingAndGlyphs" textLength="30" x="348" y="1298.9027">+root</text><text fill="#000000" font-family="sans-serif" font-size="13.2" lengthAdjust="spacingAndGlyphs" textLength="81.6" x="348" y="1315.5059">+namespaces</text><line style="stroke: #A80036; stroke-width: 1.7999999999999998;" x1="342" x2="577.2" y1="1323.2063" y2="1323.2063"/><text fill="#000000" font-family="sans-serif" font-size="13.2" lengthAdjust="spacingAndGlyphs" textLength="223.2" x="348" y="1341.709">-__init__(self, dest, root, config=None)</text><text fill="#000000" font-family="sans-serif" font-size="13.2" lengthAdjust="spacingAndGlyphs" textLength="142.8" x="348" y="1358.3121">+depth(self){@property}</text><text fill="#000000" font-family="sans-serif" font-size="13.2" lengthAdjust="spacingAndGlyphs" textLength="168" x="348" y="1374.9152">+start_file(self, sourcename)</text><text fill="#000000" font-family="sans-serif" font-size="13.2" lengthAdjust="spacingAndGlyphs" textLength="135.6" x="348" y="1391.5184">+pop_ns(self, count=1)</text><text fill="#000000" font-family="sans-serif" font-size="13.2" lengthAdjust="spacingAndGlyphs" textLength="127.2" x="348" y="1408.1215">+push_ns(self, name)</text><text fill="#000000" font-family="sans-serif" font-size="13.2" lengthAdjust="spacingAndGlyphs" textLength="112.8" x="348" y="1424.7246">+output(self, *args)</text><text fill="#000000" font-family="sans-serif" font-size="13.2" lengthAdjust="spacingAndGlyphs" textLength="73.2" x="348" y="1441.3277">+footer(self)</text><!--class code_info.CodeInfo--><rect fill="#FEFECE" filter="url(#f11gyrdzxw27rf)" height="173.8219" id="code_info.CodeInfo" style="stroke: #A80036; stroke-width: 1.7999999999999998;" width="165.6" x="648" y="72"/><ellipse cx="696.24" cy="91.2" fill="#ADD1B2" rx="13.2" ry="13.2" style="stroke: #A80036; stroke-width: 1.2;"/><path d="M699.5588,86.25 Q699.7463,85.9875 699.9713,85.8563 Q700.1963,85.725 700.4588,85.725 Q700.9088,85.725 701.19,86.0344 Q701.4713,86.3438 701.4713,87.075 L701.4713,88.8188 Q701.4713,89.55 701.19,89.8687 Q700.9088,90.1875 700.4588,90.1875 Q700.0463,90.1875 699.8025,89.9438 Q699.5588,89.7188 699.4275,89.1 Q699.3713,88.6688 699.1463,88.4438 Q698.7525,87.9937 698.0213,87.7313 Q697.29,87.4688 696.54,87.4688 Q695.6213,87.4688 694.8619,87.8625 Q694.1025,88.2563 693.5119,89.1563 Q692.9213,90.0562 692.9213,91.2938 L692.9213,92.6063 Q692.9213,94.0875 693.99,95.0719 Q695.0588,96.0562 696.9713,96.0562 Q698.0963,96.0562 698.8838,95.7563 Q699.3525,95.5688 699.8588,95.0438 Q700.1775,94.725 700.3556,94.6313 Q700.5338,94.5375 700.7775,94.5375 Q701.1713,94.5375 701.4806,94.8469 Q701.79,95.1563 701.79,95.5688 Q701.79,95.9813 701.3775,96.4688 Q700.7775,97.1625 699.8213,97.5562 Q698.5275,98.1 696.9713,98.1 Q695.1525,98.1 693.7088,97.35 Q692.5275,96.75 691.7025,95.4656 Q690.8775,94.1812 690.8775,92.6438 L690.8775,91.2563 Q690.8775,89.6625 691.6181,88.2844 Q692.3588,86.9063 693.6713,86.1656 Q694.9838,85.425 696.465,85.425 Q697.3463,85.425 698.1244,85.6219 Q698.9025,85.8188 699.5588,86.25 Z "/><text fill="#000000" font-family="sans-serif" font-size="14.4" lengthAdjust="spacingAndGlyphs" textLength="60" x="719.76" y="97.0922">CodeInfo</text><line style="stroke: #A80036; stroke-width: 1.7999999999999998;" x1="649.2" x2="812.4" y1="110.4" y2="110.4"/><text fill="#000000" font-family="sans-serif" font-size="13.2" lengthAdjust="spacingAndGlyphs" textLength="60" x="655.2" y="128.9027">+variables</text><text fill="#000000" font-family="sans-serif" font-size="13.2" lengthAdjust="spacingAndGlyphs" textLength="61.2" x="655.2" y="145.5059">+functions</text><line style="stroke: #A80036; stroke-width: 1.7999999999999998;" x1="649.2" x2="812.4" y1="153.2062" y2="153.2062"/><text fill="#000000" font-family="sans-serif" font-size="13.2" lengthAdjust="spacingAndGlyphs" textLength="80.4" x="655.2" y="171.709">-__init__(self)</text><text fill="#000000" font-family="sans-serif" font-size="13.2" lengthAdjust="spacingAndGlyphs" textLength="151.2" x="655.2" y="188.3121">+add_variable(self, name)</text><text fill="#000000" font-family="sans-serif" font-size="13.2" lengthAdjust="spacingAndGlyphs" textLength="150" x="655.2" y="204.9152">+add_function(self, node)</text><text fill="#000000" font-family="sans-serif" font-size="13.2" lengthAdjust="spacingAndGlyphs" textLength="117.6" x="655.2" y="221.5184">+done(self, context)</text><text fill="#000000" font-family="sans-serif" font-size="13.2" lengthAdjust="spacingAndGlyphs" text-decoration="underline" textLength="92.4" x="655.2" y="238.1215">+visibility(name)</text><line style="stroke: #000000; stroke-width: 1.0;" x1="655.2" x2="747.6" y1="240.5215" y2="240.5215"/><!--class code_info.ClassInfo--><rect fill="#FEFECE" filter="url(#f11gyrdzxw27rf)" height="223.6313" id="code_info.ClassInfo" style="stroke: #A80036; stroke-width: 1.7999999999999998;" width="182.4" x="639.6" y="391.2"/><ellipse cx="693.9" cy="410.4" fill="#ADD1B2" rx="13.2" ry="13.2" style="stroke: #A80036; stroke-width: 1.2;"/><path d="M697.2188,405.45 Q697.4063,405.1875 697.6313,405.0563 Q697.8562,404.925 698.1188,404.925 Q698.5688,404.925 698.85,405.2344 Q699.1313,405.5438 699.1313,406.275 L699.1313,408.0188 Q699.1313,408.75 698.85,409.0687 Q698.5688,409.3875 698.1188,409.3875 Q697.7063,409.3875 697.4625,409.1438 Q697.2188,408.9188 697.0875,408.3 Q697.0313,407.8688 696.8063,407.6438 Q696.4125,407.1937 695.6813,406.9313 Q694.95,406.6688 694.2,406.6688 Q693.2813,406.6688 692.5219,407.0625 Q691.7625,407.4563 691.1719,408.3563 Q690.5813,409.2562 690.5813,410.4938 L690.5813,411.8063 Q690.5813,413.2875 691.65,414.2719 Q692.7188,415.2562 694.6313,415.2562 Q695.7563,415.2562 696.5437,414.9563 Q697.0125,414.7688 697.5188,414.2438 Q697.8375,413.925 698.0156,413.8313 Q698.1938,413.7375 698.4375,413.7375 Q698.8313,413.7375 699.1406,414.0469 Q699.45,414.3563 699.45,414.7688 Q699.45,415.1813 699.0375,415.6688 Q698.4375,416.3625 697.4812,416.7562 Q696.1875,417.3 694.6313,417.3 Q692.8125,417.3 691.3688,416.55 Q690.1875,415.95 689.3625,414.6656 Q688.5375,413.3812 688.5375,411.8438 L688.5375,410.4563 Q688.5375,408.8625 689.2781,407.4844 Q690.0188,406.1063 691.3313,405.3656 Q692.6438,404.625 694.125,404.625 Q695.0063,404.625 695.7844,404.8219 Q696.5625,405.0188 697.2188,405.45 Z "/><text fill="#000000" font-family="sans-serif" font-size="14.4" lengthAdjust="spacingAndGlyphs" textLength="63.6" x="718.5" y="416.2922">ClassInfo</text><line style="stroke: #A80036; stroke-width: 1.7999999999999998;" x1="640.8" x2="820.8" y1="429.6" y2="429.6"/><text fill="#000000" font-family="sans-serif" font-size="13.2" lengthAdjust="spacingAndGlyphs" textLength="69.6" x="646.8" y="448.1027">+classname</text><text fill="#000000" font-family="sans-serif" font-size="13.2" lengthAdjust="spacingAndGlyphs" textLength="43.2" x="646.8" y="464.7059">+bases</text><text fill="#000000" font-family="sans-serif" font-size="13.2" lengthAdjust="spacingAndGlyphs" textLength="60" x="646.8" y="481.309">+members</text><line style="stroke: #A80036; stroke-width: 1.7999999999999998;" x1="640.8" x2="820.8" y1="489.0094" y2="489.0094"/><text fill="#000000" font-family="sans-serif" font-size="13.2" lengthAdjust="spacingAndGlyphs" textLength="116.4" x="646.8" y="507.5121">-__init__(self, node)</text><text fill="#000000" font-family="sans-serif" font-size="13.2" lengthAdjust="spacingAndGlyphs" textLength="168" x="646.8" y="524.1152">+classvars(self){@property}</text><text fill="#000000" font-family="sans-serif" font-size="13.2" lengthAdjust="spacingAndGlyphs" textLength="159.6" x="646.8" y="540.7184">+methods(self){@property}</text><text fill="#000000" font-family="sans-serif" font-size="13.2" lengthAdjust="spacingAndGlyphs" textLength="156" x="646.8" y="557.3215">+add_classvar(self, name)</text><text fill="#000000" font-family="sans-serif" font-size="13.2" lengthAdjust="spacingAndGlyphs" textLength="151.2" x="646.8" y="573.9246">+add_member(self, name)</text><text fill="#000000" font-family="sans-serif" font-size="13.2" lengthAdjust="spacingAndGlyphs" textLength="145.2" x="646.8" y="590.5277">+add_method(self, node)</text><text fill="#000000" font-family="sans-serif" font-size="13.2" lengthAdjust="spacingAndGlyphs" textLength="117.6" x="646.8" y="607.1309">+done(self, context)</text><!--class ast_visitor.TreeVisitor--><rect fill="#FEFECE" filter="url(#f11gyrdzxw27rf)" height="273.4406" id="ast_visitor.TreeVisitor" style="stroke: #A80036; stroke-width: 1.7999999999999998;" width="225.6" x="346.8" y="366"/><ellipse cx="419.1" cy="385.2" fill="#ADD1B2" rx="13.2" ry="13.2" style="stroke: #A80036; stroke-width: 1.2;"/><path d="M422.4188,380.25 Q422.6063,379.9875 422.8313,379.8563 Q423.0563,379.725 423.3187,379.725 Q423.7688,379.725 424.05,380.0344 Q424.3313,380.3438 424.3313,381.075 L424.3313,382.8187 Q424.3313,383.55 424.05,383.8688 Q423.7688,384.1875 423.3187,384.1875 Q422.9063,384.1875 422.6625,383.9437 Q422.4188,383.7188 422.2875,383.1 Q422.2313,382.6688 422.0062,382.4437 Q421.6125,381.9938 420.8812,381.7313 Q420.15,381.4688 419.4,381.4688 Q418.4813,381.4688 417.7219,381.8625 Q416.9625,382.2562 416.3719,383.1563 Q415.7813,384.0563 415.7813,385.2938 L415.7813,386.6063 Q415.7813,388.0875 416.85,389.0719 Q417.9188,390.0563 419.8313,390.0563 Q420.9563,390.0563 421.7438,389.7562 Q422.2125,389.5687 422.7188,389.0438 Q423.0375,388.725 423.2156,388.6312 Q423.3938,388.5375 423.6375,388.5375 Q424.0313,388.5375 424.3406,388.8469 Q424.65,389.1563 424.65,389.5687 Q424.65,389.9813 424.2375,390.4688 Q423.6375,391.1625 422.6813,391.5563 Q421.3875,392.1 419.8313,392.1 Q418.0125,392.1 416.5687,391.35 Q415.3875,390.75 414.5625,389.4656 Q413.7375,388.1813 413.7375,386.6438 L413.7375,385.2562 Q413.7375,383.6625 414.4781,382.2844 Q415.2188,380.9063 416.5313,380.1656 Q417.8438,379.425 419.325,379.425 Q420.2063,379.425 420.9844,379.6219 Q421.7625,379.8187 422.4188,380.25 Z "/><text fill="#000000" font-family="sans-serif" font-size="14.4" lengthAdjust="spacingAndGlyphs" textLength="70.8" x="443.7" y="391.0922">TreeVisitor</text><line style="stroke: #A80036; stroke-width: 1.7999999999999998;" x1="348" x2="571.2" y1="404.4" y2="404.4"/><text fill="#000000" font-family="sans-serif" font-size="13.2" lengthAdjust="spacingAndGlyphs" textLength="43.2" x="354" y="422.9027">+srcfile</text><text fill="#000000" font-family="sans-serif" font-size="13.2" lengthAdjust="spacingAndGlyphs" textLength="50.4" x="354" y="439.5059">+context</text><text fill="#000000" font-family="sans-serif" font-size="13.2" lengthAdjust="spacingAndGlyphs" textLength="60" x="354" y="456.109">+classinfo</text><text fill="#000000" font-family="sans-serif" font-size="13.2" lengthAdjust="spacingAndGlyphs" textLength="69.6" x="354" y="472.7121">+moduleinfo</text><text fill="#000000" font-family="sans-serif" font-size="13.2" lengthAdjust="spacingAndGlyphs" textLength="74.4" x="354" y="489.3152">+constructor</text><text fill="#000000" font-family="sans-serif" font-size="13.2" lengthAdjust="spacingAndGlyphs" textLength="30" x="354" y="505.9184">+tree</text><line style="stroke: #A80036; stroke-width: 1.7999999999999998;" x1="348" x2="571.2" y1="513.6188" y2="513.6188"/><text fill="#000000" font-family="sans-serif" font-size="13.2" lengthAdjust="spacingAndGlyphs" textLength="211.2" x="354" y="532.1215">-__init__(self, srcfile, context=None)</text><text fill="#000000" font-family="sans-serif" font-size="13.2" lengthAdjust="spacingAndGlyphs" textLength="169.2" x="354" y="548.7246">+parse(self, errormsg=None)</text><text fill="#000000" font-family="sans-serif" font-size="13.2" lengthAdjust="spacingAndGlyphs" textLength="91.2" x="354" y="565.3277">+visit_tree(self)</text><text fill="#000000" font-family="sans-serif" font-size="13.2" lengthAdjust="spacingAndGlyphs" textLength="145.2" x="354" y="581.9309">+visit_Module(self, node)</text><text fill="#000000" font-family="sans-serif" font-size="13.2" lengthAdjust="spacingAndGlyphs" textLength="157.2" x="354" y="598.534">+visit_ClassDef(self, node)</text><text fill="#000000" font-family="sans-serif" font-size="13.2" lengthAdjust="spacingAndGlyphs" textLength="174" x="354" y="615.1371">+visit_FunctionDef(self, node)</text><text fill="#000000" font-family="sans-serif" font-size="13.2" lengthAdjust="spacingAndGlyphs" textLength="145.2" x="354" y="631.7402">+visit_Assign(self, node)</text><!--class ast.NodeVisitor--><rect fill="#FEFECE" filter="url(#f11gyrdzxw27rf)" height="57.6" id="ast.NodeVisitor" style="stroke: #A80036; stroke-width: 1.7999999999999998;" width="115.2" x="402" y="130.2"/><ellipse cx="420" cy="149.4" fill="#ADD1B2" rx="13.2" ry="13.2" style="stroke: #A80036; stroke-width: 1.2;"/><path d="M423.3187,144.45 Q423.5062,144.1875 423.7313,144.0563 Q423.9563,143.925 424.2188,143.925 Q424.6688,143.925 424.95,144.2344 Q425.2313,144.5438 425.2313,145.275 L425.2313,147.0187 Q425.2313,147.75 424.95,148.0688 Q424.6688,148.3875 424.2188,148.3875 Q423.8063,148.3875 423.5625,148.1437 Q423.3187,147.9188 423.1875,147.3 Q423.1312,146.8688 422.9063,146.6437 Q422.5125,146.1938 421.7813,145.9313 Q421.05,145.6688 420.3,145.6688 Q419.3812,145.6688 418.6219,146.0625 Q417.8625,146.4562 417.2719,147.3563 Q416.6813,148.2563 416.6813,149.4938 L416.6813,150.8063 Q416.6813,152.2875 417.75,153.2719 Q418.8187,154.2563 420.7313,154.2563 Q421.8563,154.2563 422.6438,153.9562 Q423.1125,153.7687 423.6188,153.2438 Q423.9375,152.925 424.1156,152.8312 Q424.2938,152.7375 424.5375,152.7375 Q424.9313,152.7375 425.2406,153.0469 Q425.55,153.3563 425.55,153.7687 Q425.55,154.1813 425.1375,154.6688 Q424.5375,155.3625 423.5813,155.7563 Q422.2875,156.3 420.7313,156.3 Q418.9125,156.3 417.4688,155.55 Q416.2875,154.95 415.4625,153.6656 Q414.6375,152.3813 414.6375,150.8438 L414.6375,149.4562 Q414.6375,147.8625 415.3781,146.4844 Q416.1188,145.1063 417.4313,144.3656 Q418.7438,143.625 420.225,143.625 Q421.1063,143.625 421.8844,143.8219 Q422.6625,144.0187 423.3187,144.45 Z "/><text fill="#000000" font-family="sans-serif" font-size="14.4" lengthAdjust="spacingAndGlyphs" textLength="76.8" x="436.8" y="155.2922">NodeVisitor</text><line style="stroke: #A80036; stroke-width: 1.7999999999999998;" x1="403.2" x2="516" y1="168.6" y2="168.6"/><line style="stroke: #A80036; stroke-width: 1.7999999999999998;" x1="403.2" x2="516" y1="178.2" y2="178.2"/><!--class TreeVisitor--><rect fill="#FEFECE" filter="url(#f11gyrdzxw27rf)" height="57.6" id="TreeVisitor" style="stroke: #A80036; stroke-width: 1.7999999999999998;" width="109.2" x="143.4" y="130.2"/><ellipse cx="161.4" cy="149.4" fill="#ADD1B2" rx="13.2" ry="13.2" style="stroke: #A80036; stroke-width: 1.2;"/><path d="M164.7188,144.45 Q164.9063,144.1875 165.1313,144.0563 Q165.3563,143.925 165.6188,143.925 Q166.0688,143.925 166.35,144.2344 Q166.6313,144.5438 166.6313,145.275 L166.6313,147.0187 Q166.6313,147.75 166.35,148.0688 Q166.0688,148.3875 165.6188,148.3875 Q165.2062,148.3875 164.9625,148.1437 Q164.7188,147.9188 164.5875,147.3 Q164.5313,146.8688 164.3063,146.6437 Q163.9125,146.1938 163.1813,145.9313 Q162.45,145.6688 161.7,145.6688 Q160.7813,145.6688 160.0219,146.0625 Q159.2625,146.4562 158.6719,147.3563 Q158.0812,148.2563 158.0812,149.4938 L158.0812,150.8063 Q158.0812,152.2875 159.15,153.2719 Q160.2188,154.2563 162.1313,154.2563 Q163.2563,154.2563 164.0438,153.9562 Q164.5125,153.7687 165.0187,153.2438 Q165.3375,152.925 165.5156,152.8312 Q165.6938,152.7375 165.9375,152.7375 Q166.3312,152.7375 166.6406,153.0469 Q166.95,153.3563 166.95,153.7687 Q166.95,154.1813 166.5375,154.6688 Q165.9375,155.3625 164.9813,155.7563 Q163.6875,156.3 162.1313,156.3 Q160.3125,156.3 158.8688,155.55 Q157.6875,154.95 156.8625,153.6656 Q156.0375,152.3813 156.0375,150.8438 L156.0375,149.4562 Q156.0375,147.8625 156.7781,146.4844 Q157.5187,145.1063 158.8312,144.3656 Q160.1437,143.625 161.625,143.625 Q162.5063,143.625 163.2844,143.8219 Q164.0625,144.0187 164.7188,144.45 Z "/><text fill="#000000" font-family="sans-serif" font-size="14.4" lengthAdjust="spacingAndGlyphs" textLength="70.8" x="178.2" y="155.2922">TreeVisitor</text><line style="stroke: #A80036; stroke-width: 1.7999999999999998;" x1="144.6" x2="251.4" y1="168.6" y2="168.6"/><line style="stroke: #A80036; stroke-width: 1.7999999999999998;" x1="144.6" x2="251.4" y1="178.2" y2="178.2"/><!--class ClassInfo--><rect fill="#FEFECE" filter="url(#f11gyrdzxw27rf)" height="57.6" id="ClassInfo" style="stroke: #A80036; stroke-width: 1.7999999999999998;" width="102" x="76.2" y="474"/><ellipse cx="94.2" cy="493.2" fill="#ADD1B2" rx="13.2" ry="13.2" style="stroke: #A80036; stroke-width: 1.2;"/><path d="M97.5188,488.25 Q97.7063,487.9875 97.9312,487.8563 Q98.1563,487.725 98.4188,487.725 Q98.8687,487.725 99.15,488.0344 Q99.4312,488.3438 99.4312,489.075 L99.4312,490.8187 Q99.4312,491.55 99.15,491.8688 Q98.8687,492.1875 98.4188,492.1875 Q98.0063,492.1875 97.7625,491.9437 Q97.5188,491.7188 97.3875,491.1 Q97.3313,490.6688 97.1063,490.4437 Q96.7125,489.9938 95.9813,489.7313 Q95.25,489.4688 94.5,489.4688 Q93.5813,489.4688 92.8219,489.8625 Q92.0625,490.2562 91.4719,491.1563 Q90.8813,492.0563 90.8813,493.2938 L90.8813,494.6063 Q90.8813,496.0875 91.95,497.0719 Q93.0188,498.0563 94.9312,498.0563 Q96.0562,498.0563 96.8438,497.7562 Q97.3125,497.5687 97.8188,497.0438 Q98.1375,496.725 98.3156,496.6312 Q98.4937,496.5375 98.7375,496.5375 Q99.1313,496.5375 99.4406,496.8469 Q99.75,497.1563 99.75,497.5687 Q99.75,497.9813 99.3375,498.4688 Q98.7375,499.1625 97.7813,499.5563 Q96.4875,500.1 94.9312,500.1 Q93.1125,500.1 91.6688,499.35 Q90.4875,498.75 89.6625,497.4656 Q88.8375,496.1813 88.8375,494.6437 L88.8375,493.2562 Q88.8375,491.6625 89.5781,490.2844 Q90.3188,488.9063 91.6313,488.1656 Q92.9438,487.425 94.425,487.425 Q95.3062,487.425 96.0844,487.6219 Q96.8625,487.8187 97.5188,488.25 Z "/><text fill="#000000" font-family="sans-serif" font-size="14.4" lengthAdjust="spacingAndGlyphs" textLength="63.6" x="111" y="499.0922">ClassInfo</text><line style="stroke: #A80036; stroke-width: 1.7999999999999998;" x1="77.4" x2="177" y1="512.4" y2="512.4"/><line style="stroke: #A80036; stroke-width: 1.7999999999999998;" x1="77.4" x2="177" y1="522" y2="522"/><!--class Code--><rect fill="#FEFECE" filter="url(#f11gyrdzxw27rf)" height="57.6" id="Code" style="stroke: #A80036; stroke-width: 1.7999999999999998;" width="74.4" x="230.4" y="474"/><ellipse cx="248.4" cy="493.2" fill="#ADD1B2" rx="13.2" ry="13.2" style="stroke: #A80036; stroke-width: 1.2;"/><path d="M251.7188,488.25 Q251.9063,487.9875 252.1313,487.8563 Q252.3563,487.725 252.6187,487.725 Q253.0688,487.725 253.35,488.0344 Q253.6313,488.3438 253.6313,489.075 L253.6313,490.8187 Q253.6313,491.55 253.35,491.8688 Q253.0688,492.1875 252.6187,492.1875 Q252.2062,492.1875 251.9625,491.9437 Q251.7188,491.7188 251.5875,491.1 Q251.5313,490.6688 251.3062,490.4437 Q250.9125,489.9938 250.1812,489.7313 Q249.45,489.4688 248.7,489.4688 Q247.7813,489.4688 247.0219,489.8625 Q246.2625,490.2562 245.6719,491.1563 Q245.0812,492.0563 245.0812,493.2938 L245.0812,494.6063 Q245.0812,496.0875 246.15,497.0719 Q247.2188,498.0563 249.1313,498.0563 Q250.2563,498.0563 251.0438,497.7562 Q251.5125,497.5687 252.0187,497.0438 Q252.3375,496.725 252.5156,496.6312 Q252.6938,496.5375 252.9375,496.5375 Q253.3312,496.5375 253.6406,496.8469 Q253.95,497.1563 253.95,497.5687 Q253.95,497.9813 253.5375,498.4688 Q252.9375,499.1625 251.9813,499.5563 Q250.6875,500.1 249.1313,500.1 Q247.3125,500.1 245.8687,499.35 Q244.6875,498.75 243.8625,497.4656 Q243.0375,496.1813 243.0375,494.6437 L243.0375,493.2562 Q243.0375,491.6625 243.7781,490.2844 Q244.5187,488.9063 245.8312,488.1656 Q247.1437,487.425 248.625,487.425 Q249.5063,487.425 250.2844,487.6219 Q251.0625,487.8187 251.7188,488.25 Z "/><text fill="#000000" font-family="sans-serif" font-size="14.4" lengthAdjust="spacingAndGlyphs" textLength="36" x="265.2" y="499.0922">Code</text><line style="stroke: #A80036; stroke-width: 1.7999999999999998;" x1="231.6" x2="303.6" y1="512.4" y2="512.4"/><line style="stroke: #A80036; stroke-width: 1.7999999999999998;" x1="231.6" x2="303.6" y1="522" y2="522"/><!--link puml_generator.PUML_Generator to puml_generator.PUML_Generator_NS--><path d="M459.6,1193.0112 C459.6,1209.9252 459.6,1226.424 459.6,1241.934 " fill="none" id="puml_generator.PUML_Generator-puml_generator.PUML_Generator_NS" style="stroke: #A80036; stroke-width: 1.2;"/><polygon fill="none" points="451.2,1192.8792,459.6,1168.8792,468,1192.8792,451.2,1192.8792" style="stroke: #A80036; stroke-width: 1.2;"/><!--link code_info.CodeInfo to code_info.ClassInfo--><path d="M730.8,270.852 C730.8,309.3168 730.8,352.44 730.8,390.9048 " fill="none" id="code_info.CodeInfo-code_info.ClassInfo" style="stroke: #A80036; stroke-width: 1.2;"/><polygon fill="none" points="722.4,270.348,730.8,246.348,739.2,270.348,722.4,270.348" style="stroke: #A80036; stroke-width: 1.2;"/><!--link ast.NodeVisitor to ast_visitor.TreeVisitor--><path d="M459.6,212.148 C459.6,252.996 459.6,311.8296 459.6,365.796 " fill="none" id="ast.NodeVisitor-ast_visitor.TreeVisitor" style="stroke: #A80036; stroke-width: 1.2;"/><polygon fill="none" points="451.2,212.136,459.6,188.136,468,212.136,451.2,212.136" style="stroke: #A80036; stroke-width: 1.2;"/><!--link ast_visitor.TreeVisitor to puml_generator.PUML_Generator--><path d="M459.6,639.8964 C459.6,676.1304 459.6,716.1324 459.6,755.3064 " fill="none" id="ast_visitor.TreeVisitor-puml_generator.PUML_Generator" style="stroke: #A80036; stroke-width: 1.2; stroke-dasharray: 7.0,7.0;"/><polygon fill="#A80036" points="459.6,761.586,464.4,750.786,459.6,755.586,454.8,750.786,459.6,761.586" style="stroke: #A80036; stroke-width: 1.2;"/><text fill="#000000" font-family="sans-serif" font-size="15.6" lengthAdjust="spacingAndGlyphs" textLength="51.6" x="460.8" y="695.3941">context</text><!--link TreeVisitor to ClassInfo--><path d="M174.7488,188.088 C156.8448,211.5 133.5288,246.696 123.6,282 C105.6913,345.6732 113.7059,423.8856 120.7349,467.6976 " fill="none" id="TreeVisitor-ClassInfo" style="stroke: #A80036; stroke-width: 1.2; stroke-dasharray: 7.0,7.0;"/><polygon fill="#A80036" points="121.7615,473.9064,124.7353,462.468,120.7826,467.9868,115.2639,464.0342,121.7615,473.9064" style="stroke: #A80036; stroke-width: 1.2;"/><text fill="#000000" font-family="sans-serif" font-size="15.6" lengthAdjust="spacingAndGlyphs" textLength="90" x="124.8" y="299.3941">current class</text><!--link TreeVisitor to Code--><path d="M203.6952,188.136 C216.3708,250.308 246.8712,399.9228 260.6436,467.4792 " fill="none" id="TreeVisitor-Code" style="stroke: #A80036; stroke-width: 1.2; stroke-dasharray: 7.0,7.0;"/><polygon fill="#A80036" points="261.9228,473.754,264.4689,462.2129,260.7244,467.8749,255.0623,464.1304,261.9228,473.754" style="stroke: #A80036; stroke-width: 1.2;"/><text fill="#000000" font-family="sans-serif" font-size="15.6" lengthAdjust="spacingAndGlyphs" textLength="104.4" x="228" y="299.3941">module globals</text><!--
@startuml
skinparam classAttributeIconSize 0
scale 1.2

namespace py2puml {
}
namespace puml_generator {
  class PUML_Generator {
    +dest
    +config
    +sourcename
    -__init__(self, dest, config=None)
    +opt_prolog(self)
    +opt_epilog(self)
    +opt_globals(self)
    +opt_omit_self(self)
    +opt_write_arglist(self, section='methods')
    +opt_omit_defaults(self, section='methods')
    +start_file(self, sourcename)
    +end_file(self, sourcename=None)
    +output(self, *args)
    +header(self)
    +footer(self)
    +do_file(self, srcfile, errormsg=None)
    -_deco_marker(dec){static}
    +is_static_method(meth){static}
    +print_classinfo(self, classinfo)
    +print_codeinfo(self, codeinfo)
    +arglist(self, fdef, ismethod=False)
  }

  PUML_Generator <|- - PUML_Generator_NS
  class PUML_Generator_NS {
    +root
    +namespaces
    -__init__(self, dest, root, config=None)
    +depth(self){@property}
    +start_file(self, sourcename)
    +pop_ns(self, count=1)
    +push_ns(self, name)
    +output(self, *args)
    +footer(self)
  }

}
namespace code_info {
  class CodeInfo {
    +variables
    +functions
    -__init__(self)
    +add_variable(self, name)
    +add_function(self, node)
    +done(self, context)
    +visibility(name){static}
  }

  CodeInfo <|- - ClassInfo
  class ClassInfo {
    +classname
    +bases
    +members
    -__init__(self, node)
    +classvars(self){@property}
    +methods(self){@property}
    +add_classvar(self, name)
    +add_member(self, name)
    +add_method(self, node)
    +done(self, context)
  }

}
namespace ast_visitor {
  ast.NodeVisitor <|- - TreeVisitor
  class TreeVisitor {
    +srcfile
    +context
    +classinfo
    +moduleinfo
    +constructor
    +tree
    -__init__(self, srcfile, context=None)
    +parse(self, errormsg=None)
    +visit_tree(self)
    +visit_Module(self, node)
    +visit_ClassDef(self, node)
    +visit_FunctionDef(self, node)
    +visit_Assign(self, node)
  }

}
ast_visitor.TreeVisitor ..> puml_generator.PUML_Generator : context
TreeVisitor ..> ClassInfo : current class
TreeVisitor ..> Code : module globals

@enduml

PlantUML version 1.2017.19(Sun Nov 12 22:46:22 AEDT 2017)
(GPL source distribution)
Java Runtime: Java(TM) SE Runtime Environment
JVM: Java HotSpot(TM) 64-Bit Server VM
Java Version: 1.8.0_151-b12
Operating System: Windows Server 2012 R2
OS Version: 6.3
Default Encoding: UTF-8
Language: en
Country: US
--></g></svg>