<?xml version="1.0" encoding="UTF-8" standalone="no"?><svg xmlns="http://www.w3.org/2000/svg" xmlns:xlink="http://www.w3.org/1999/xlink" contentScriptType="application/ecmascript" contentStyleType="text/css" height="349px" preserveAspectRatio="none" style="width:265px;height:349px;" version="1.1" viewBox="0 0 265 349" width="265px" zoomAndPan="magnify"><defs><filter height="300%" id="fevhz4k2qa9k2" width="300%" x="-1" y="-1"><feGaussianBlur result="blurOut" stdDeviation="2.0"/><feColorMatrix in="blurOut" result="blurOut2" type="matrix" values="0 0 0 0 0 0 0 0 0 0 0 0 0 0 0 0 0 0 .4 0"/><feOffset dx="4.0" dy="4.0" in="blurOut2" result="blurOut3"/><feBlend in="SourceGraphic" in2="blurOut3" mode="normal"/></filter></defs><g><text fill="#000000" font-family="sans-serif" font-size="14" font-weight="bold" lengthAdjust="spacingAndGlyphs" textLength="77" x="94.5" y="24.5332">Hello Gulp!</text><line style="stroke: #A80036; stroke-width: 1.0; stroke-dasharray: 5.0,5.0;" x1="26" x2="26" y1="119.2188" y2="260.625"/><line style="stroke: #A80036; stroke-width: 1.0; stroke-dasharray: 5.0,5.0;" x1="240" x2="240" y1="119.2188" y2="260.625"/><text fill="#000000" font-family="sans-serif" font-size="14" lengthAdjust="spacingAndGlyphs" textLength="30" x="8" y="116.1426">Alice</text><ellipse cx="26" cy="44.6094" fill="#FEFECE" filter="url(#fevhz4k2qa9k2)" rx="8" ry="8" style="stroke: #A80036; stroke-width: 2.0;"/><path d="M26,52.6094 L26,79.6094 M13,60.6094 L39,60.6094 M26,79.6094 L13,94.6094 M26,79.6094 L39,94.6094 " fill="#FEFECE" filter="url(#fevhz4k2qa9k2)" style="stroke: #A80036; stroke-width: 2.0;"/><text fill="#000000" font-family="sans-serif" font-size="14" lengthAdjust="spacingAndGlyphs" textLength="30" x="8" y="274.1582">Alice</text><ellipse cx="26" cy="287.2344" fill="#FEFECE" filter="url(#fevhz4k2qa9k2)" rx="8" ry="8" style="stroke: #A80036; stroke-width: 2.0;"/><path d="M26,295.2344 L26,322.2344 M13,303.2344 L39,303.2344 M26,322.2344 L13,337.2344 M26,322.2344 L39,337.2344 " fill="#FEFECE" filter="url(#fevhz4k2qa9k2)" style="stroke: #A80036; stroke-width: 2.0;"/><text fill="#000000" font-family="sans-serif" font-size="14" lengthAdjust="spacingAndGlyphs" textLength="30" x="222" y="116.1426">Brett</text><ellipse cx="240" cy="44.6094" fill="#FEFECE" filter="url(#fevhz4k2qa9k2)" rx="8" ry="8" style="stroke: #A80036; stroke-width: 2.0;"/><path d="M240,52.6094 L240,79.6094 M227,60.6094 L253,60.6094 M240,79.6094 L227,94.6094 M240,79.6094 L253,94.6094 " fill="#FEFECE" filter="url(#fevhz4k2qa9k2)" style="stroke: #A80036; stroke-width: 2.0;"/><text fill="#000000" font-family="sans-serif" font-size="14" lengthAdjust="spacingAndGlyphs" textLength="30" x="222" y="274.1582">Brett</text><ellipse cx="240" cy="287.2344" fill="#FEFECE" filter="url(#fevhz4k2qa9k2)" rx="8" ry="8" style="stroke: #A80036; stroke-width: 2.0;"/><path d="M240,295.2344 L240,322.2344 M227,303.2344 L253,303.2344 M240,322.2344 L227,337.2344 M240,322.2344 L253,337.2344 " fill="#FEFECE" filter="url(#fevhz4k2qa9k2)" style="stroke: #A80036; stroke-width: 2.0;"/><polygon fill="#A80036" points="228,147.2188,238,151.2188,228,155.2188,232,151.2188" style="stroke: #A80036; stroke-width: 1.0;"/><line style="stroke: #A80036; stroke-width: 1.0;" x1="26" x2="234" y1="151.2188" y2="151.2188"/><text fill="#000000" font-family="sans-serif" font-size="13" lengthAdjust="spacingAndGlyphs" textLength="135" x="33" y="146.7139">Authentication Request</text><polygon fill="#A80036" points="37,177.5703,27,181.5703,37,185.5703,33,181.5703" style="stroke: #A80036; stroke-width: 1.0;"/><line style="stroke: #A80036; stroke-width: 1.0; stroke-dasharray: 2.0,2.0;" x1="31" x2="239" y1="181.5703" y2="181.5703"/><text fill="#000000" font-family="sans-serif" font-size="13" lengthAdjust="spacingAndGlyphs" textLength="145" x="43" y="177.0654">Authentication Response</text><polygon fill="#A80036" points="228,207.9219,238,211.9219,228,215.9219,232,211.9219" style="stroke: #A80036; stroke-width: 1.0;"/><line style="stroke: #A80036; stroke-width: 1.0;" x1="26" x2="234" y1="211.9219" y2="211.9219"/><text fill="#000000" font-family="sans-serif" font-size="13" lengthAdjust="spacingAndGlyphs" textLength="182" x="33" y="207.417">Another authentication Request</text><polygon fill="#A80036" points="37,238.2734,27,242.2734,37,246.2734,33,242.2734" style="stroke: #A80036; stroke-width: 1.0;"/><line style="stroke: #A80036; stroke-width: 1.0; stroke-dasharray: 2.0,2.0;" x1="31" x2="239" y1="242.2734" y2="242.2734"/><text fill="#000000" font-family="sans-serif" font-size="13" lengthAdjust="spacingAndGlyphs" textLength="190" x="43" y="237.7686">another authentication Response</text><!--
@startuml
title Hello Gulp!
actor Alice
actor Brett

Alice -> Brett: Authentication Request
Brett - -> Alice: Authentication Response

Alice -> Brett: Another authentication Request
Alice <- - Brett: another authentication Response

@enduml

PlantUML version 1.2017.19(Sun Nov 12 22:46:22 AEDT 2017)
(GPL source distribution)
Java Runtime: Java(TM) SE Runtime Environment
JVM: Java HotSpot(TM) 64-Bit Server VM
Java Version: 1.8.0_151-b12
Operating System: Windows Server 2012 R2
OS Version: 6.3
Default Encoding: UTF-8
Language: en
Country: US
--></g></svg>