<?xml version="1.0" encoding="UTF-8" standalone="no"?><svg xmlns="http://www.w3.org/2000/svg" xmlns:xlink="http://www.w3.org/1999/xlink" contentScriptType="application/ecmascript" contentStyleType="text/css" height="383px" preserveAspectRatio="none" style="width:643px;height:383px;" version="1.1" viewBox="0 0 643 383" width="643px" zoomAndPan="magnify"><defs><filter height="300%" id="fvnn4h91wel1p" width="300%" x="-1" y="-1"><feGaussianBlur result="blurOut" stdDeviation="2.0"/><feColorMatrix in="blurOut" result="blurOut2" type="matrix" values="0 0 0 0 0 0 0 0 0 0 0 0 0 0 0 0 0 0 .4 0"/><feOffset dx="4.0" dy="4.0" in="blurOut2" result="blurOut3"/><feBlend in="SourceGraphic" in2="blurOut3" mode="normal"/></filter></defs><g><text fill="#000000" font-family="sans-serif" font-size="18" lengthAdjust="spacingAndGlyphs" textLength="143" x="254" y="18.6855">Use Case: DSuite</text><!--cluster Mobile Iron--><polygon fill="#FFFFFF" filter="url(#fvnn4h91wel1p)" points="22,196.6406,108,196.6406,115,220.25,335,220.25,335,371.6406,22,371.6406,22,196.6406" style="stroke: #000000; stroke-width: 2.0;"/><line style="stroke: #000000; stroke-width: 2.0;" x1="22" x2="115" y1="220.25" y2="220.25"/><text fill="#000000" font-family="sans-serif" font-size="14" font-weight="bold" lengthAdjust="spacingAndGlyphs" textLength="80" x="26" y="213.1738">Mobile Iron</text><!--cluster iPad--><rect fill="#FFFFFF" filter="url(#fvnn4h91wel1p)" height="107" style="stroke: #000000; stroke-width: 2.0;" width="265" x="46" y="240.6406"/><path d="M86,241.6406 L86,251.25 L76,261.25 L46,261.25 " fill="none" style="stroke: #000000; stroke-width: 2.0;"/><text fill="#000000" font-family="sans-serif" font-size="14" font-weight="bold" lengthAdjust="spacingAndGlyphs" textLength="30" x="49" y="256.1738">iPad</text><!--entity C_APP_MOB--><rect fill="#FEFECE" filter="url(#fvnn4h91wel1p)" height="55.2188" style="stroke: #A80036; stroke-width: 1.5;" width="98" x="62" y="276.6406"/><rect fill="#FEFECE" height="5" style="stroke: #A80036; stroke-width: 1.5;" width="10" x="57" y="281.6406"/><rect fill="#FEFECE" height="5" style="stroke: #A80036; stroke-width: 1.5;" width="10" x="57" y="321.8594"/><text fill="#000000" font-family="sans-serif" font-size="14" font-style="italic" lengthAdjust="spacingAndGlyphs" textLength="78" x="72" y="301.1738">«Container»</text><text fill="#000000" font-family="sans-serif" font-size="14" lengthAdjust="spacingAndGlyphs" textLength="70" x="76" y="318.7832">Offline App</text><!--entity C_APP_BROWSER--><rect fill="#FEFECE" filter="url(#fvnn4h91wel1p)" height="55.2188" style="stroke: #A80036; stroke-width: 1.5;" width="100" x="195" y="276.6406"/><rect fill="#FEFECE" height="5" style="stroke: #A80036; stroke-width: 1.5;" width="10" x="190" y="281.6406"/><rect fill="#FEFECE" height="5" style="stroke: #A80036; stroke-width: 1.5;" width="10" x="190" y="321.8594"/><text fill="#000000" font-family="sans-serif" font-size="14" font-style="italic" lengthAdjust="spacingAndGlyphs" textLength="78" x="206" y="301.1738">«Container»</text><text fill="#000000" font-family="sans-serif" font-size="14" lengthAdjust="spacingAndGlyphs" textLength="80" x="205" y="318.7832">Browser App</text><!--entity P_VIP--><ellipse cx="111" cy="58.25" fill="#FEFECE" filter="url(#fvnn4h91wel1p)" rx="8" ry="8" style="stroke: #A80036; stroke-width: 2.0;"/><path d="M111,66.25 L111,93.25 M98,74.25 L124,74.25 M111,93.25 L98,108.25 M111,93.25 L124,108.25 " fill="#FEFECE" filter="url(#fvnn4h91wel1p)" style="stroke: #A80036; stroke-width: 2.0;"/><text fill="#000000" font-family="sans-serif" font-size="14" lengthAdjust="spacingAndGlyphs" textLength="21" x="100.5" y="129.7832">VIP</text><text fill="#000000" font-family="sans-serif" font-size="14" font-style="italic" lengthAdjust="spacingAndGlyphs" textLength="61" x="80.5" y="45.1738">«Person»</text><!--entity P_OFFICER--><ellipse cx="387" cy="58.25" fill="#FEFECE" filter="url(#fvnn4h91wel1p)" rx="8" ry="8" style="stroke: #A80036; stroke-width: 2.0;"/><path d="M387,66.25 L387,93.25 M374,74.25 L400,74.25 M387,93.25 L374,108.25 M387,93.25 L400,108.25 " fill="#FEFECE" filter="url(#fvnn4h91wel1p)" style="stroke: #A80036; stroke-width: 2.0;"/><text fill="#000000" font-family="sans-serif" font-size="14" lengthAdjust="spacingAndGlyphs" textLength="138" x="318" y="129.7832">Departmental Officers</text><text fill="#000000" font-family="sans-serif" font-size="14" font-style="italic" lengthAdjust="spacingAndGlyphs" textLength="61" x="356.5" y="45.1738">«Person»</text><!--entity S_DIGITAL_SUITE--><rect fill="#FEFECE" filter="url(#fvnn4h91wel1p)" height="55.2188" style="stroke: #A80036; stroke-width: 1.5;" width="141" x="491.5" y="54.1406"/><rect fill="#FEFECE" height="5" style="stroke: #A80036; stroke-width: 1.5;" width="10" x="486.5" y="59.1406"/><rect fill="#FEFECE" height="5" style="stroke: #A80036; stroke-width: 1.5;" width="10" x="486.5" y="99.3594"/><text fill="#000000" font-family="sans-serif" font-size="14" font-style="italic" lengthAdjust="spacingAndGlyphs" textLength="121" x="501.5" y="78.6738">«Software System»</text><text fill="#000000" font-family="sans-serif" font-size="14" lengthAdjust="spacingAndGlyphs" textLength="75" x="524.5" y="96.2832">Digital Suite</text><!--entity P_MEMBER--><ellipse cx="245" cy="49.1406" fill="#FEFECE" filter="url(#fvnn4h91wel1p)" rx="8" ry="8" style="stroke: #A80036; stroke-width: 2.0;"/><path d="M245,57.1406 L245,84.1406 M232,65.1406 L258,65.1406 M245,84.1406 L232,99.1406 M245,84.1406 L258,99.1406 " fill="#FEFECE" filter="url(#fvnn4h91wel1p)" style="stroke: #A80036; stroke-width: 2.0;"/><text fill="#000000" font-family="sans-serif" font-size="14" lengthAdjust="spacingAndGlyphs" textLength="76" x="207" y="120.6738">P_MEMBER</text><!--link P_VIP to C_APP_MOB--><path d="M111,132.6756 C111,175.1846 111,234.9216 111,271.2226 " fill="none" id="P_VIP-C_APP_MOB" style="stroke: #A80036; stroke-width: 1.0; stroke-dasharray: 7.0,7.0;"/><polygon fill="#A80036" points="111,276.4046,115,267.4046,111,271.4046,107,267.4046,111,276.4046" style="stroke: #A80036; stroke-width: 1.0;"/><text fill="#000000" font-family="sans-serif" font-size="13" lengthAdjust="spacingAndGlyphs" textLength="30" x="112" y="177.1357">Uses</text><!--link P_MEMBER to C_APP_BROWSER--><path d="M245,124.3746 C245,167.1516 245,232.7286 245,271.4356 " fill="none" id="P_MEMBER-C_APP_BROWSER" style="stroke: #A80036; stroke-width: 1.0; stroke-dasharray: 7.0,7.0;"/><polygon fill="#A80036" points="245,276.4826,249,267.4826,245,271.4826,241,267.4826,245,276.4826" style="stroke: #A80036; stroke-width: 1.0;"/><text fill="#000000" font-family="sans-serif" font-size="13" lengthAdjust="spacingAndGlyphs" textLength="30" x="246" y="177.1357">Uses</text><!--
@startuml
title Use Case: DSuite
actor "VIP" <<Person>>  as P_VIP 
actor "Departmental Officers" <<Person>>  as P_OFFICER 

[Digital Suite] <<Software System>>  as S_DIGITAL_SUITE 

package "Mobile Iron" {
  frame "iPad" {
    [Offline App] <<Container>>  as C_APP_MOB 
    [Browser App] <<Container>>  as C_APP_BROWSER 
  }
}

P_VIP ..> C_APP_MOB : Uses
P_MEMBER ..> C_APP_BROWSER : Uses

@enduml

PlantUML version 1.2017.19(Sun Nov 12 22:46:22 AEDT 2017)
(GPL source distribution)
Java Runtime: Java(TM) SE Runtime Environment
JVM: Java HotSpot(TM) 64-Bit Server VM
Java Version: 1.8.0_151-b12
Operating System: Windows Server 2012 R2
OS Version: 6.3
Default Encoding: UTF-8
Language: en
Country: US
--></g></svg>