<?xml version="1.0" encoding="UTF-8" standalone="no"?><svg xmlns="http://www.w3.org/2000/svg" xmlns:xlink="http://www.w3.org/1999/xlink" contentScriptType="application/ecmascript" contentStyleType="text/css" height="2118px" preserveAspectRatio="none" style="width:1392px;height:2118px;" version="1.1" viewBox="0 0 1392 2118" width="1392px" zoomAndPan="magnify"><defs><filter height="300%" id="f1ib95chbxhi6" width="300%" x="-1" y="-1"><feGaussianBlur result="blurOut" stdDeviation="2.0"/><feColorMatrix in="blurOut" result="blurOut2" type="matrix" values="0 0 0 0 0 0 0 0 0 0 0 0 0 0 0 0 0 0 .4 0"/><feOffset dx="4.0" dy="4.0" in="blurOut2" result="blurOut3"/><feBlend in="SourceGraphic" in2="blurOut3" mode="normal"/></filter></defs><g><!--cluster DSuite--><path d="M25,31 C25,28 27,26 30,26 C33,26 35,28 35,31 C35,28 37,26 40,26 C43,26 45,28 45,31 C45,28 47,26 50,26 C53,26 55,28 55,31 C55,28 57,26 60,26 C63,26 65,28 65,31 C65,28 67,26 70,26 C73,26 75,28 75,31 C75,28 77,26 80,26 C83,26 85,28 85,31 C85,28 87,26 90,26 C93,26 95,28 95,31 C95,28 97,26 100,26 C103,26 105,28 105,31 C105,28 107,26 110,26 C113,26 115,28 115,31 C115,28 117,26 120,26 C123,26 125,28 125,31 C125,28 127,26 130,26 C133,26 135,28 135,31 C135,28 137,26 140,26 C143,26 145,28 145,31 C145,28 147,26 150,26 C153,26 155,28 155,31 C155,28 157,26 160,26 C163,26 165,28 165,31 C165,28 167,26 170,26 C173,26 175,28 175,31 C175,28 177,26 180,26 C183,26 185,28 185,31 C185,28 187,26 190,26 C193,26 195,28 195,31 C195,28 197,26 200,26 C203,26 205,28 205,31 C205,28 207,26 210,26 C213,26 215,28 215,31 C215,28 217,26 220,26 C223,26 225,28 225,31 C225,28 227,26 230,26 C233,26 235,28 235,31 C235,28 237,26 240,26 C243,26 245,28 245,31 C245,28 247,26 250,26 C253,26 255,28 255,31 C255,28 257,26 260,26 C263,26 265,28 265,31 C265,28 267,26 270,26 C273,26 275,28 275,31 C275,28 277,26 280,26 C283,26 285,28 285,31 C285,28 287,26 290,26 C293,26 295,28 295,31 C295,28 297,26 300,26 C303,26 305,28 305,31 C305,28 307,26 310,26 C313,26 315,28 315,31 C315,28 317,26 320,26 C323,26 325,28 325,31 C325,28 327,26 330,26 C333,26 335,28 335,31 C335,28 337,26 340,26 C343,26 345,28 345,31 C345,28 347,26 350,26 C353,26 355,28 355,31 C355,28 357,26 360,26 C363,26 365,28 365,31 C365,28 367,26 370,26 C373,26 375,28 375,31 C375,28 377,26 380,26 C383,26 385,28 385,31 C385,28 387,26 390,26 C393,26 395,28 395,31 C395,28 397,26 400,26 C403,26 405,28 405,31 C405,28 407,26 410,26 C413,26 415,28 415,31 C415,28 417,26 420,26 C423,26 425,28 425,31 C425,28 427,26 430,26 C433,26 435,28 435,31 C435,28 437,26 440,26 C443,26 445,28 445,31 C445,28 447,26 450,26 C453,26 455,28 455,31 C455,28 457,26 460,26 C463,26 465,28 465,31 C465,28 467,26 470,26 C473,26 475,28 475,31 C475,28 477,26 480,26 C483,26 485,28 485,31 C485,28 487,26 490,26 C493,26 495,28 495,31 C495,28 497,26 500,26 C503,26 505,28 505,31 C505,28 507,26 510,26 C513,26 515,28 515,31 C515,28 517,26 520,26 C523,26 525,28 525,31 C525,28 527,26 530,26 C533,26 535,28 535,31 C535,28 537,26 540,26 C543,26 545,28 545,31 C545,28 547,26 550,26 C553,26 555,28 555,31 C555,28 557,26 560,26 C563,26 565,28 565,31 C565,28 567,26 570,26 C573,26 575,28 575,31 C575,28 577,26 580,26 C583,26 585,28 585,31 C585,28 587,26 590,26 C593,26 595,28 595,31 C595,28 597,26 600,26 C603,26 605,28 605,31 C605,28 607,26 610,26 C613,26 615,28 615,31 C615,28 617,26 620,26 C623,26 625,28 625,31 C625,28 627,26 630,26 C633,26 635,28 635,31 C635,28 637,26 640,26 C643,26 645,28 645,31 C645,28 647,26 650,26 C653,26 655,28 655,31 C655,28 657,26 660,26 C663,26 665,28 665,31 C665,28 667,26 670,26 C673,26 675,28 675,31 C675,28 677,26 680,26 C683,26 685,28 685,31 C685,28 687,26 690,26 C693,26 695,28 695,31 C695,28 697,26 700,26 C703,26 705,28 705,31 C705,28 707,26 710,26 C713,26 715,28 715,31 C715,28 717,26 720,26 C723,26 725,28 725,31 C725,28 727,26 730,26 C733,26 735,28 735,31 C735,28 737,26 740,26 C743,26 745,28 745,31 C745,28 747,26 750,26 C753,26 755,28 755,31 C755,28 757,26 760,26 C763,26 765,28 765,31 C765,28 767,26 770,26 C773,26 775,28 775,31 C775,28 777,26 780,26 C783,26 785,28 785,31 C785,28 787,26 790,26 C793,26 795,28 795,31 C795,28 797,26 800,26 C803,26 805,28 805,31 C805,28 807,26 810,26 C813,26 815,28 815,31 C815,28 817,26 820,26 C823,26 825,28 825,31 C825,28 827,26 830,26 C833,26 835,28 835,31 C835,28 837,26 840,26 C843,26 845,28 845,31 C845,28 847,26 850,26 C853,26 855,28 855,31 C855,28 857,26 860,26 C863,26 865,28 865,31 C865,28 867,26 870,26 C873,26 875,28 875,31 C875,28 877,26 880,26 C883,26 885,28 885,31 C885,28 887,26 890,26 C893,26 895,28 895,31 C895,28 897,26 900,26 C903,26 905,28 905,31 C905,28 907,26 910,26 C913,26 915,28 915,31 C915,28 917,26 920,26 C923,26 925,28 925,31 C925,28 927,26 930,26 C933,26 935,28 935,31 C935,28 937,26 940,26 C943,26 945,28 945,31 C945,28 947,26 950,26 C953,26 955,28 955,31 C955,28 957,26 960,26 C963,26 965,28 965,31 C965,28 967,26 970,26 C973,26 975,28 975,31 C975,28 977,26 980,26 C983,26 985,28 985,31 C985,28 987,26 990,26 C993,26 995,28 995,31 C995,28 997,26 1000,26 C1003,26 1005,28 1005,31 C1005,28 1007,26 1010,26 C1013,26 1015,28 1015,31 C1015,28 1017,26 1020,26 C1023,26 1025,28 1025,31 C1025,28 1027,26 1030,26 C1033,26 1035,28 1035,31 C1035,28 1037,26 1040,26 C1043,26 1045,28 1045,31 C1045,28 1047,26 1050,26 C1053,26 1055,28 1055,31 C1055,28 1057,26 1060,26 C1063,26 1065,28 1065,31 C1065,28 1067,26 1070,26 C1073,26 1075,28 1075,31 C1075,28 1077,26 1080,26 C1083,26 1085,28 1085,31 C1085,28 1087,26 1090,26 C1093,26 1095,28 1095,31 C1095,28 1097,26 1100,26 C1103,26 1105,28 1105,31 C1105,28 1107,26 1110,26 C1113,26 1115,28 1115,31 C1115,28 1117,26 1120,26 C1123,26 1125,28 1125,31 C1125,28 1127,26 1130,26 C1133,26 1135,28 1135,31 C1135,28 1137,26 1140,26 C1143,26 1145,28 1145,31 C1145,28 1147,26 1150,26 C1153,26 1155,28 1155,31 C1155,28 1157,26 1160,26 C1163,26 1165,28 1165,31 C1165,28 1167,26 1170,26 C1173,26 1175,28 1175,31 C1175,28 1177,26 1180,26 C1183,26 1185,28 1185,31 C1185,28 1187,26 1190,26 C1193,26 1195,28 1195,31 C1195,28 1197,26 1200,26 C1203,26 1205,28 1205,31 C1205,28 1207,26 1210,26 C1213,26 1215,28 1215,31 C1215,28 1217,26 1220,26 C1223,26 1225,28 1225,31 C1225,28 1227,26 1230,26 C1233,26 1235,28 1235,31 C1235,28 1237,26 1240,26 C1243,26 1245,28 1245,31 C1245,28 1247,26 1250,26 C1253,26 1255,28 1255,31 C1255,28 1257,26 1260,26 C1263,26 1265,28 1265,31 C1265,28 1267,26 1270,26 C1273,26 1275,28 1275,31 C1275,28 1277,26 1280,26 C1283,26 1285,28 1285,31 C1285,28 1287,26 1290,26 C1293,26 1295,28 1295,31 C1295,28 1297,26 1300,26 C1303,26 1305,28 1305,31 C1305,28 1307,26 1310,26 C1313,26 1315,28 1315,31 C1315,28 1317,26 1320,26 C1323,26 1325,28 1325,31 C1325,28 1327,26 1330,26 C1333,26 1335,28 1335,31 C1335,28 1337,26 1340,26 C1343,26 1345,28 1345,31 C1345,28 1347,26 1350,26 C1353,26 1355,28 1355,31 C1355,28 1357,26 1360,26 C1363,26 1365,28 1365,31 C1365,28 1367,26 1370,26 C1373,26 1375,28 1375,31 C1378,31 1380,33 1380,36 C1380,39 1378,41 1375,41 C1378,41 1380,43 1380,46 C1380,49 1378,51 1375,51 C1378,51 1380,53 1380,56 C1380,59 1378,61 1375,61 C1378,61 1380,63 1380,66 C1380,69 1378,71 1375,71 C1378,71 1380,73 1380,76 C1380,79 1378,81 1375,81 C1378,81 1380,83 1380,86 C1380,89 1378,91 1375,91 C1378,91 1380,93 1380,96 C1380,99 1378,101 1375,101 C1378,101 1380,103 1380,106 C1380,109 1378,111 1375,111 C1378,111 1380,113 1380,116 C1380,119 1378,121 1375,121 C1378,121 1380,123 1380,126 C1380,129 1378,131 1375,131 C1378,131 1380,133 1380,136 C1380,139 1378,141 1375,141 C1378,141 1380,143 1380,146 C1380,149 1378,151 1375,151 C1378,151 1380,153 1380,156 C1380,159 1378,161 1375,161 C1378,161 1380,163 1380,166 C1380,169 1378,171 1375,171 C1378,171 1380,173 1380,176 C1380,179 1378,181 1375,181 C1378,181 1380,183 1380,186 C1380,189 1378,191 1375,191 C1378,191 1380,193 1380,196 C1380,199 1378,201 1375,201 C1378,201 1380,203 1380,206 C1380,209 1378,211 1375,211 C1378,211 1380,213 1380,216 C1380,219 1378,221 1375,221 C1378,221 1380,223 1380,226 C1380,229 1378,231 1375,231 C1378,231 1380,233 1380,236 C1380,239 1378,241 1375,241 C1378,241 1380,243 1380,246 C1380,249 1378,251 1375,251 C1378,251 1380,253 1380,256 C1380,259 1378,261 1375,261 C1378,261 1380,263 1380,266 C1380,269 1378,271 1375,271 C1378,271 1380,273 1380,276 C1380,279 1378,281 1375,281 C1378,281 1380,283 1380,286 C1380,289 1378,291 1375,291 C1378,291 1380,293 1380,296 C1380,299 1378,301 1375,301 C1378,301 1380,303 1380,306 C1380,309 1378,311 1375,311 C1378,311 1380,313 1380,316 C1380,319 1378,321 1375,321 C1378,321 1380,323 1380,326 C1380,329 1378,331 1375,331 C1378,331 1380,333 1380,336 C1380,339 1378,341 1375,341 C1378,341 1380,343 1380,346 C1380,349 1378,351 1375,351 C1378,351 1380,353 1380,356 C1380,359 1378,361 1375,361 C1378,361 1380,363 1380,366 C1380,369 1378,371 1375,371 C1378,371 1380,373 1380,376 C1380,379 1378,381 1375,381 C1378,381 1380,383 1380,386 C1380,389 1378,391 1375,391 C1378,391 1380,393 1380,396 C1380,399 1378,401 1375,401 C1378,401 1380,403 1380,406 C1380,409 1378,411 1375,411 C1378,411 1380,413 1380,416 C1380,419 1378,421 1375,421 C1378,421 1380,423 1380,426 C1380,429 1378,431 1375,431 C1378,431 1380,433 1380,436 C1380,439 1378,441 1375,441 C1378,441 1380,443 1380,446 C1380,449 1378,451 1375,451 C1378,451 1380,453 1380,456 C1380,459 1378,461 1375,461 C1378,461 1380,463 1380,466 C1380,469 1378,471 1375,471 C1378,471 1380,473 1380,476 C1380,479 1378,481 1375,481 C1378,481 1380,483 1380,486 C1380,489 1378,491 1375,491 C1378,491 1380,493 1380,496 C1380,499 1378,501 1375,501 C1378,501 1380,503 1380,506 C1380,509 1378,511 1375,511 C1378,511 1380,513 1380,516 C1380,519 1378,521 1375,521 C1378,521 1380,523 1380,526 C1380,529 1378,531 1375,531 C1378,531 1380,533 1380,536 C1380,539 1378,541 1375,541 C1378,541 1380,543 1380,546 C1380,549 1378,551 1375,551 C1378,551 1380,553 1380,556 C1380,559 1378,561 1375,561 C1378,561 1380,563 1380,566 C1380,569 1378,571 1375,571 C1378,571 1380,573 1380,576 C1380,579 1378,581 1375,581 C1378,581 1380,583 1380,586 C1380,589 1378,591 1375,591 C1378,591 1380,593 1380,596 C1380,599 1378,601 1375,601 C1378,601 1380,603 1380,606 C1380,609 1378,611 1375,611 C1378,611 1380,613 1380,616 C1380,619 1378,621 1375,621 C1378,621 1380,623 1380,626 C1380,629 1378,631 1375,631 C1378,631 1380,633 1380,636 C1380,639 1378,641 1375,641 C1378,641 1380,643 1380,646 C1380,649 1378,651 1375,651 C1378,651 1380,653 1380,656 C1380,659 1378,661 1375,661 C1378,661 1380,663 1380,666 C1380,669 1378,671 1375,671 C1378,671 1380,673 1380,676 C1380,679 1378,681 1375,681 C1378,681 1380,683 1380,686 C1380,689 1378,691 1375,691 C1378,691 1380,693 1380,696 C1380,699 1378,701 1375,701 C1378,701 1380,703 1380,706 C1380,709 1378,711 1375,711 C1378,711 1380,713 1380,716 C1380,719 1378,721 1375,721 C1378,721 1380,723 1380,726 C1380,729 1378,731 1375,731 C1378,731 1380,733 1380,736 C1380,739 1378,741 1375,741 C1378,741 1380,743 1380,746 C1380,749 1378,751 1375,751 C1378,751 1380,753 1380,756 C1380,759 1378,761 1375,761 C1378,761 1380,763 1380,766 C1380,769 1378,771 1375,771 C1378,771 1380,773 1380,776 C1380,779 1378,781 1375,781 C1378,781 1380,783 1380,786 C1380,789 1378,791 1375,791 C1378,791 1380,793 1380,796 C1380,799 1378,801 1375,801 C1378,801 1380,803 1380,806 C1380,809 1378,811 1375,811 C1378,811 1380,813 1380,816 C1380,819 1378,821 1375,821 C1378,821 1380,823 1380,826 C1380,829 1378,831 1375,831 C1378,831 1380,833 1380,836 C1380,839 1378,841 1375,841 C1378,841 1380,843 1380,846 C1380,849 1378,851 1375,851 C1378,851 1380,853 1380,856 C1380,859 1378,861 1375,861 C1378,861 1380,863 1380,866 C1380,869 1378,871 1375,871 C1378,871 1380,873 1380,876 C1380,879 1378,881 1375,881 C1378,881 1380,883 1380,886 C1380,889 1378,891 1375,891 C1378,891 1380,893 1380,896 C1380,899 1378,901 1375,901 C1378,901 1380,903 1380,906 C1380,909 1378,911 1375,911 C1378,911 1380,913 1380,916 C1380,919 1378,921 1375,921 C1378,921 1380,923 1380,926 C1380,929 1378,931 1375,931 C1378,931 1380,933 1380,936 C1380,939 1378,941 1375,941 C1378,941 1380,943 1380,946 C1380,949 1378,951 1375,951 C1378,951 1380,953 1380,956 C1380,959 1378,961 1375,961 C1378,961 1380,963 1380,966 C1380,969 1378,971 1375,971 C1378,971 1380,973 1380,976 C1380,979 1378,981 1375,981 C1378,981 1380,983 1380,986 C1380,989 1378,991 1375,991 C1378,991 1380,993 1380,996 C1380,999 1378,1001 1375,1001 C1378,1001 1380,1003 1380,1006 C1380,1009 1378,1011 1375,1011 C1378,1011 1380,1013 1380,1016 C1380,1019 1378,1021 1375,1021 C1378,1021 1380,1023 1380,1026 C1380,1029 1378,1031 1375,1031 C1378,1031 1380,1033 1380,1036 C1380,1039 1378,1041 1375,1041 C1378,1041 1380,1043 1380,1046 C1380,1049 1378,1051 1375,1051 C1378,1051 1380,1053 1380,1056 C1380,1059 1378,1061 1375,1061 C1378,1061 1380,1063 1380,1066 C1380,1069 1378,1071 1375,1071 C1378,1071 1380,1073 1380,1076 C1380,1079 1378,1081 1375,1081 C1378,1081 1380,1083 1380,1086 C1380,1089 1378,1091 1375,1091 C1378,1091 1380,1093 1380,1096 C1380,1099 1378,1101 1375,1101 C1378,1101 1380,1103 1380,1106 C1380,1109 1378,1111 1375,1111 C1378,1111 1380,1113 1380,1116 C1380,1119 1378,1121 1375,1121 C1378,1121 1380,1123 1380,1126 C1380,1129 1378,1131 1375,1131 C1378,1131 1380,1133 1380,1136 C1380,1139 1378,1141 1375,1141 C1378,1141 1380,1143 1380,1146 C1380,1149 1378,1151 1375,1151 C1378,1151 1380,1153 1380,1156 C1380,1159 1378,1161 1375,1161 C1378,1161 1380,1163 1380,1166 C1380,1169 1378,1171 1375,1171 C1378,1171 1380,1173 1380,1176 C1380,1179 1378,1181 1375,1181 C1378,1181 1380,1183 1380,1186 C1380,1189 1378,1191 1375,1191 C1378,1191 1380,1193 1380,1196 C1380,1199 1378,1201 1375,1201 C1378,1201 1380,1203 1380,1206 C1380,1209 1378,1211 1375,1211 C1378,1211 1380,1213 1380,1216 C1380,1219 1378,1221 1375,1221 C1378,1221 1380,1223 1380,1226 C1380,1229 1378,1231 1375,1231 C1378,1231 1380,1233 1380,1236 C1380,1239 1378,1241 1375,1241 C1378,1241 1380,1243 1380,1246 C1380,1249 1378,1251 1375,1251 C1378,1251 1380,1253 1380,1256 C1380,1259 1378,1261 1375,1261 C1378,1261 1380,1263 1380,1266 C1380,1269 1378,1271 1375,1271 C1378,1271 1380,1273 1380,1276 C1380,1279 1378,1281 1375,1281 C1378,1281 1380,1283 1380,1286 C1380,1289 1378,1291 1375,1291 C1378,1291 1380,1293 1380,1296 C1380,1299 1378,1301 1375,1301 C1378,1301 1380,1303 1380,1306 C1380,1309 1378,1311 1375,1311 C1378,1311 1380,1313 1380,1316 C1380,1319 1378,1321 1375,1321 C1378,1321 1380,1323 1380,1326 C1380,1329 1378,1331 1375,1331 C1378,1331 1380,1333 1380,1336 C1380,1339 1378,1341 1375,1341 C1378,1341 1380,1343 1380,1346 C1380,1349 1378,1351 1375,1351 C1378,1351 1380,1353 1380,1356 C1380,1359 1378,1361 1375,1361 C1378,1361 1380,1363 1380,1366 C1380,1369 1378,1371 1375,1371 C1378,1371 1380,1373 1380,1376 C1380,1379 1378,1381 1375,1381 C1378,1381 1380,1383 1380,1386 C1380,1389 1378,1391 1375,1391 C1378,1391 1380,1393 1380,1396 C1380,1399 1378,1401 1375,1401 C1378,1401 1380,1403 1380,1406 C1380,1409 1378,1411 1375,1411 C1378,1411 1380,1413 1380,1416 C1380,1419 1378,1421 1375,1421 C1378,1421 1380,1423 1380,1426 C1380,1429 1378,1431 1375,1431 C1378,1431 1380,1433 1380,1436 C1380,1439 1378,1441 1375,1441 C1378,1441 1380,1443 1380,1446 C1380,1449 1378,1451 1375,1451 C1378,1451 1380,1453 1380,1456 C1380,1459 1378,1461 1375,1461 C1378,1461 1380,1463 1380,1466 C1380,1469 1378,1471 1375,1471 C1378,1471 1380,1473 1380,1476 C1380,1479 1378,1481 1375,1481 C1378,1481 1380,1483 1380,1486 C1380,1489 1378,1491 1375,1491 C1378,1491 1380,1493 1380,1496 C1380,1499 1378,1501 1375,1501 C1378,1501 1380,1503 1380,1506 C1380,1509 1378,1511 1375,1511 C1378,1511 1380,1513 1380,1516 C1380,1519 1378,1521 1375,1521 C1378,1521 1380,1523 1380,1526 C1380,1529 1378,1531 1375,1531 C1378,1531 1380,1533 1380,1536 C1380,1539 1378,1541 1375,1541 C1378,1541 1380,1543 1380,1546 C1380,1549 1378,1551 1375,1551 C1378,1551 1380,1553 1380,1556 C1380,1559 1378,1561 1375,1561 C1378,1561 1380,1563 1380,1566 C1380,1569 1378,1571 1375,1571 C1378,1571 1380,1573 1380,1576 C1380,1579 1378,1581 1375,1581 C1378,1581 1380,1583 1380,1586 C1380,1589 1378,1591 1375,1591 C1378,1591 1380,1593 1380,1596 C1380,1599 1378,1601 1375,1601 C1378,1601 1380,1603 1380,1606 C1380,1609 1378,1611 1375,1611 C1378,1611 1380,1613 1380,1616 C1380,1619 1378,1621 1375,1621 C1378,1621 1380,1623 1380,1626 C1380,1629 1378,1631 1375,1631 C1378,1631 1380,1633 1380,1636 C1380,1639 1378,1641 1375,1641 C1378,1641 1380,1643 1380,1646 C1380,1649 1378,1651 1375,1651 C1378,1651 1380,1653 1380,1656 C1380,1659 1378,1661 1375,1661 C1378,1661 1380,1663 1380,1666 C1380,1669 1378,1671 1375,1671 C1378,1671 1380,1673 1380,1676 C1380,1679 1378,1681 1375,1681 C1378,1681 1380,1683 1380,1686 C1380,1689 1378,1691 1375,1691 C1378,1691 1380,1693 1380,1696 C1380,1699 1378,1701 1375,1701 C1378,1701 1380,1703 1380,1706 C1380,1709 1378,1711 1375,1711 C1378,1711 1380,1713 1380,1716 C1380,1719 1378,1721 1375,1721 C1378,1721 1380,1723 1380,1726 C1380,1729 1378,1731 1375,1731 C1378,1731 1380,1733 1380,1736 C1380,1739 1378,1741 1375,1741 C1378,1741 1380,1743 1380,1746 C1380,1749 1378,1751 1375,1751 C1378,1751 1380,1753 1380,1756 C1380,1759 1378,1761 1375,1761 C1378,1761 1380,1763 1380,1766 C1380,1769 1378,1771 1375,1771 C1378,1771 1380,1773 1380,1776 C1380,1779 1378,1781 1375,1781 C1378,1781 1380,1783 1380,1786 C1380,1789 1378,1791 1375,1791 C1378,1791 1380,1793 1380,1796 C1380,1799 1378,1801 1375,1801 C1378,1801 1380,1803 1380,1806 C1380,1809 1378,1811 1375,1811 C1378,1811 1380,1813 1380,1816 C1380,1819 1378,1821 1375,1821 C1378,1821 1380,1823 1380,1826 C1380,1829 1378,1831 1375,1831 C1378,1831 1380,1833 1380,1836 C1380,1839 1378,1841 1375,1841 C1378,1841 1380,1843 1380,1846 C1380,1849 1378,1851 1375,1851 C1378,1851 1380,1853 1380,1856 C1380,1859 1378,1861 1375,1861 C1378,1861 1380,1863 1380,1866 C1380,1869 1378,1871 1375,1871 C1378,1871 1380,1873 1380,1876 C1380,1879 1378,1881 1375,1881 C1378,1881 1380,1883 1380,1886 C1380,1889 1378,1891 1375,1891 C1378,1891 1380,1893 1380,1896 C1380,1899 1378,1901 1375,1901 C1378,1901 1380,1903 1380,1906 C1380,1909 1378,1911 1375,1911 C1378,1911 1380,1913 1380,1916 C1380,1919 1378,1921 1375,1921 C1378,1921 1380,1923 1380,1926 C1380,1929 1378,1931 1375,1931 C1378,1931 1380,1933 1380,1936 C1380,1939 1378,1941 1375,1941 C1378,1941 1380,1943 1380,1946 C1380,1949 1378,1951 1375,1951 C1378,1951 1380,1953 1380,1956 C1380,1959 1378,1961 1375,1961 C1378,1961 1380,1963 1380,1966 C1380,1969 1378,1971 1375,1971 C1378,1971 1380,1973 1380,1976 C1380,1979 1378,1981 1375,1981 C1378,1981 1380,1983 1380,1986 C1380,1989 1378,1991 1375,1991 C1378,1991 1380,1993 1380,1996 C1380,1999 1378,2001 1375,2001 C1378,2001 1380,2003 1380,2006 C1380,2009 1378,2011 1375,2011 C1378,2011 1380,2013 1380,2016 C1380,2019 1378,2021 1375,2021 C1378,2021 1380,2023 1380,2026 C1380,2029 1378,2031 1375,2031 C1378,2031 1380,2033 1380,2036 C1380,2039 1378,2041 1375,2041 C1378,2041 1380,2043 1380,2046 C1380,2049 1378,2051 1375,2051 C1378,2051 1380,2053 1380,2056 C1380,2059 1378,2061 1375,2061 C1378,2061 1380,2063 1380,2066 C1380,2069 1378,2071 1375,2071 C1378,2071 1380,2073 1380,2076 C1380,2079 1378,2081 1375,2081 C1378,2081 1380,2083 1380,2086 C1380,2089 1378,2091 1375,2091 C1378,2091 1380,2093 1380,2096 C1380,2099 1378,2101 1375,2101 C1375,2104 1372,2106 1370,2106 C1367,2106 1365,2104 1365,2101 C1365,2104 1362,2106 1360,2106 C1357,2106 1355,2104 1355,2101 C1355,2104 1352,2106 1350,2106 C1347,2106 1345,2104 1345,2101 C1345,2104 1342,2106 1340,2106 C1337,2106 1335,2104 1335,2101 C1335,2104 1332,2106 1330,2106 C1327,2106 1325,2104 1325,2101 C1325,2104 1322,2106 1320,2106 C1317,2106 1315,2104 1315,2101 C1315,2104 1312,2106 1310,2106 C1307,2106 1305,2104 1305,2101 C1305,2104 1302,2106 1300,2106 C1297,2106 1295,2104 1295,2101 C1295,2104 1292,2106 1290,2106 C1287,2106 1285,2104 1285,2101 C1285,2104 1282,2106 1280,2106 C1277,2106 1275,2104 1275,2101 C1275,2104 1272,2106 1270,2106 C1267,2106 1265,2104 1265,2101 C1265,2104 1262,2106 1260,2106 C1257,2106 1255,2104 1255,2101 C1255,2104 1252,2106 1250,2106 C1247,2106 1245,2104 1245,2101 C1245,2104 1242,2106 1240,2106 C1237,2106 1235,2104 1235,2101 C1235,2104 1232,2106 1230,2106 C1227,2106 1225,2104 1225,2101 C1225,2104 1222,2106 1220,2106 C1217,2106 1215,2104 1215,2101 C1215,2104 1212,2106 1210,2106 C1207,2106 1205,2104 1205,2101 C1205,2104 1202,2106 1200,2106 C1197,2106 1195,2104 1195,2101 C1195,2104 1192,2106 1190,2106 C1187,2106 1185,2104 1185,2101 C1185,2104 1182,2106 1180,2106 C1177,2106 1175,2104 1175,2101 C1175,2104 1172,2106 1170,2106 C1167,2106 1165,2104 1165,2101 C1165,2104 1162,2106 1160,2106 C1157,2106 1155,2104 1155,2101 C1155,2104 1152,2106 1150,2106 C1147,2106 1145,2104 1145,2101 C1145,2104 1142,2106 1140,2106 C1137,2106 1135,2104 1135,2101 C1135,2104 1132,2106 1130,2106 C1127,2106 1125,2104 1125,2101 C1125,2104 1122,2106 1120,2106 C1117,2106 1115,2104 1115,2101 C1115,2104 1112,2106 1110,2106 C1107,2106 1105,2104 1105,2101 C1105,2104 1102,2106 1100,2106 C1097,2106 1095,2104 1095,2101 C1095,2104 1092,2106 1090,2106 C1087,2106 1085,2104 1085,2101 C1085,2104 1082,2106 1080,2106 C1077,2106 1075,2104 1075,2101 C1075,2104 1072,2106 1070,2106 C1067,2106 1065,2104 1065,2101 C1065,2104 1062,2106 1060,2106 C1057,2106 1055,2104 1055,2101 C1055,2104 1052,2106 1050,2106 C1047,2106 1045,2104 1045,2101 C1045,2104 1042,2106 1040,2106 C1037,2106 1035,2104 1035,2101 C1035,2104 1032,2106 1030,2106 C1027,2106 1025,2104 1025,2101 C1025,2104 1022,2106 1020,2106 C1017,2106 1015,2104 1015,2101 C1015,2104 1012,2106 1010,2106 C1007,2106 1005,2104 1005,2101 C1005,2104 1002,2106 1000,2106 C997,2106 995,2104 995,2101 C995,2104 992,2106 990,2106 C987,2106 985,2104 985,2101 C985,2104 982,2106 980,2106 C977,2106 975,2104 975,2101 C975,2104 972,2106 970,2106 C967,2106 965,2104 965,2101 C965,2104 962,2106 960,2106 C957,2106 955,2104 955,2101 C955,2104 952,2106 950,2106 C947,2106 945,2104 945,2101 C945,2104 942,2106 940,2106 C937,2106 935,2104 935,2101 C935,2104 932,2106 930,2106 C927,2106 925,2104 925,2101 C925,2104 922,2106 920,2106 C917,2106 915,2104 915,2101 C915,2104 912,2106 910,2106 C907,2106 905,2104 905,2101 C905,2104 902,2106 900,2106 C897,2106 895,2104 895,2101 C895,2104 892,2106 890,2106 C887,2106 885,2104 885,2101 C885,2104 882,2106 880,2106 C877,2106 875,2104 875,2101 C875,2104 872,2106 870,2106 C867,2106 865,2104 865,2101 C865,2104 862,2106 860,2106 C857,2106 855,2104 855,2101 C855,2104 852,2106 850,2106 C847,2106 845,2104 845,2101 C845,2104 842,2106 840,2106 C837,2106 835,2104 835,2101 C835,2104 832,2106 830,2106 C827,2106 825,2104 825,2101 C825,2104 822,2106 820,2106 C817,2106 815,2104 815,2101 C815,2104 812,2106 810,2106 C807,2106 805,2104 805,2101 C805,2104 802,2106 800,2106 C797,2106 795,2104 795,2101 C795,2104 792,2106 790,2106 C787,2106 785,2104 785,2101 C785,2104 782,2106 780,2106 C777,2106 775,2104 775,2101 C775,2104 772,2106 770,2106 C767,2106 765,2104 765,2101 C765,2104 762,2106 760,2106 C757,2106 755,2104 755,2101 C755,2104 752,2106 750,2106 C747,2106 745,2104 745,2101 C745,2104 742,2106 740,2106 C737,2106 735,2104 735,2101 C735,2104 732,2106 730,2106 C727,2106 725,2104 725,2101 C725,2104 722,2106 720,2106 C717,2106 715,2104 715,2101 C715,2104 712,2106 710,2106 C707,2106 705,2104 705,2101 C705,2104 702,2106 700,2106 C697,2106 695,2104 695,2101 C695,2104 692,2106 690,2106 C687,2106 685,2104 685,2101 C685,2104 682,2106 680,2106 C677,2106 675,2104 675,2101 C675,2104 672,2106 670,2106 C667,2106 665,2104 665,2101 C665,2104 662,2106 660,2106 C657,2106 655,2104 655,2101 C655,2104 652,2106 650,2106 C647,2106 645,2104 645,2101 C645,2104 642,2106 640,2106 C637,2106 635,2104 635,2101 C635,2104 632,2106 630,2106 C627,2106 625,2104 625,2101 C625,2104 622,2106 620,2106 C617,2106 615,2104 615,2101 C615,2104 612,2106 610,2106 C607,2106 605,2104 605,2101 C605,2104 602,2106 600,2106 C597,2106 595,2104 595,2101 C595,2104 592,2106 590,2106 C587,2106 585,2104 585,2101 C585,2104 582,2106 580,2106 C577,2106 575,2104 575,2101 C575,2104 572,2106 570,2106 C567,2106 565,2104 565,2101 C565,2104 562,2106 560,2106 C557,2106 555,2104 555,2101 C555,2104 552,2106 550,2106 C547,2106 545,2104 545,2101 C545,2104 542,2106 540,2106 C537,2106 535,2104 535,2101 C535,2104 532,2106 530,2106 C527,2106 525,2104 525,2101 C525,2104 522,2106 520,2106 C517,2106 515,2104 515,2101 C515,2104 512,2106 510,2106 C507,2106 505,2104 505,2101 C505,2104 502,2106 500,2106 C497,2106 495,2104 495,2101 C495,2104 492,2106 490,2106 C487,2106 485,2104 485,2101 C485,2104 482,2106 480,2106 C477,2106 475,2104 475,2101 C475,2104 472,2106 470,2106 C467,2106 465,2104 465,2101 C465,2104 462,2106 460,2106 C457,2106 455,2104 455,2101 C455,2104 452,2106 450,2106 C447,2106 445,2104 445,2101 C445,2104 442,2106 440,2106 C437,2106 435,2104 435,2101 C435,2104 432,2106 430,2106 C427,2106 425,2104 425,2101 C425,2104 422,2106 420,2106 C417,2106 415,2104 415,2101 C415,2104 412,2106 410,2106 C407,2106 405,2104 405,2101 C405,2104 402,2106 400,2106 C397,2106 395,2104 395,2101 C395,2104 392,2106 390,2106 C387,2106 385,2104 385,2101 C385,2104 382,2106 380,2106 C377,2106 375,2104 375,2101 C375,2104 372,2106 370,2106 C367,2106 365,2104 365,2101 C365,2104 362,2106 360,2106 C357,2106 355,2104 355,2101 C355,2104 352,2106 350,2106 C347,2106 345,2104 345,2101 C345,2104 342,2106 340,2106 C337,2106 335,2104 335,2101 C335,2104 332,2106 330,2106 C327,2106 325,2104 325,2101 C325,2104 322,2106 320,2106 C317,2106 315,2104 315,2101 C315,2104 312,2106 310,2106 C307,2106 305,2104 305,2101 C305,2104 302,2106 300,2106 C297,2106 295,2104 295,2101 C295,2104 292,2106 290,2106 C287,2106 285,2104 285,2101 C285,2104 282,2106 280,2106 C277,2106 275,2104 275,2101 C275,2104 272,2106 270,2106 C267,2106 265,2104 265,2101 C265,2104 262,2106 260,2106 C257,2106 255,2104 255,2101 C255,2104 252,2106 250,2106 C247,2106 245,2104 245,2101 C245,2104 242,2106 240,2106 C237,2106 235,2104 235,2101 C235,2104 232,2106 230,2106 C227,2106 225,2104 225,2101 C225,2104 222,2106 220,2106 C217,2106 215,2104 215,2101 C215,2104 212,2106 210,2106 C207,2106 205,2104 205,2101 C205,2104 202,2106 200,2106 C197,2106 195,2104 195,2101 C195,2104 192,2106 190,2106 C187,2106 185,2104 185,2101 C185,2104 182,2106 180,2106 C177,2106 175,2104 175,2101 C175,2104 172,2106 170,2106 C167,2106 165,2104 165,2101 C165,2104 162,2106 160,2106 C157,2106 155,2104 155,2101 C155,2104 152,2106 150,2106 C147,2106 145,2104 145,2101 C145,2104 142,2106 140,2106 C137,2106 135,2104 135,2101 C135,2104 132,2106 130,2106 C127,2106 125,2104 125,2101 C125,2104 122,2106 120,2106 C117,2106 115,2104 115,2101 C115,2104 112,2106 110,2106 C107,2106 105,2104 105,2101 C105,2104 102,2106 100,2106 C97,2106 95,2104 95,2101 C95,2104 92,2106 90,2106 C87,2106 85,2104 85,2101 C85,2104 82,2106 80,2106 C77,2106 75,2104 75,2101 C75,2104 72,2106 70,2106 C67,2106 65,2104 65,2101 C65,2104 62,2106 60,2106 C57,2106 55,2104 55,2101 C55,2104 52,2106 50,2106 C47,2106 45,2104 45,2101 C45,2104 42,2106 40,2106 C37,2106 35,2104 35,2101 C35,2104 32,2106 30,2106 C27,2106 25,2104 25,2101 C22,2101 20,2099 20,2096 C20,2093 22,2091 25,2091 C22,2091 20,2089 20,2086 C20,2083 22,2081 25,2081 C22,2081 20,2079 20,2076 C20,2073 22,2071 25,2071 C22,2071 20,2069 20,2066 C20,2063 22,2061 25,2061 C22,2061 20,2059 20,2056 C20,2053 22,2051 25,2051 C22,2051 20,2049 20,2046 C20,2043 22,2041 25,2041 C22,2041 20,2039 20,2036 C20,2033 22,2031 25,2031 C22,2031 20,2029 20,2026 C20,2023 22,2021 25,2021 C22,2021 20,2019 20,2016 C20,2013 22,2011 25,2011 C22,2011 20,2009 20,2006 C20,2003 22,2001 25,2001 C22,2001 20,1999 20,1996 C20,1993 22,1991 25,1991 C22,1991 20,1989 20,1986 C20,1983 22,1981 25,1981 C22,1981 20,1979 20,1976 C20,1973 22,1971 25,1971 C22,1971 20,1969 20,1966 C20,1963 22,1961 25,1961 C22,1961 20,1959 20,1956 C20,1953 22,1951 25,1951 C22,1951 20,1949 20,1946 C20,1943 22,1941 25,1941 C22,1941 20,1939 20,1936 C20,1933 22,1931 25,1931 C22,1931 20,1929 20,1926 C20,1923 22,1921 25,1921 C22,1921 20,1919 20,1916 C20,1913 22,1911 25,1911 C22,1911 20,1909 20,1906 C20,1903 22,1901 25,1901 C22,1901 20,1899 20,1896 C20,1893 22,1891 25,1891 C22,1891 20,1889 20,1886 C20,1883 22,1881 25,1881 C22,1881 20,1879 20,1876 C20,1873 22,1871 25,1871 C22,1871 20,1869 20,1866 C20,1863 22,1861 25,1861 C22,1861 20,1859 20,1856 C20,1853 22,1851 25,1851 C22,1851 20,1849 20,1846 C20,1843 22,1841 25,1841 C22,1841 20,1839 20,1836 C20,1833 22,1831 25,1831 C22,1831 20,1829 20,1826 C20,1823 22,1821 25,1821 C22,1821 20,1819 20,1816 C20,1813 22,1811 25,1811 C22,1811 20,1809 20,1806 C20,1803 22,1801 25,1801 C22,1801 20,1799 20,1796 C20,1793 22,1791 25,1791 C22,1791 20,1789 20,1786 C20,1783 22,1781 25,1781 C22,1781 20,1779 20,1776 C20,1773 22,1771 25,1771 C22,1771 20,1769 20,1766 C20,1763 22,1761 25,1761 C22,1761 20,1759 20,1756 C20,1753 22,1751 25,1751 C22,1751 20,1749 20,1746 C20,1743 22,1741 25,1741 C22,1741 20,1739 20,1736 C20,1733 22,1731 25,1731 C22,1731 20,1729 20,1726 C20,1723 22,1721 25,1721 C22,1721 20,1719 20,1716 C20,1713 22,1711 25,1711 C22,1711 20,1709 20,1706 C20,1703 22,1701 25,1701 C22,1701 20,1699 20,1696 C20,1693 22,1691 25,1691 C22,1691 20,1689 20,1686 C20,1683 22,1681 25,1681 C22,1681 20,1679 20,1676 C20,1673 22,1671 25,1671 C22,1671 20,1669 20,1666 C20,1663 22,1661 25,1661 C22,1661 20,1659 20,1656 C20,1653 22,1651 25,1651 C22,1651 20,1649 20,1646 C20,1643 22,1641 25,1641 C22,1641 20,1639 20,1636 C20,1633 22,1631 25,1631 C22,1631 20,1629 20,1626 C20,1623 22,1621 25,1621 C22,1621 20,1619 20,1616 C20,1613 22,1611 25,1611 C22,1611 20,1609 20,1606 C20,1603 22,1601 25,1601 C22,1601 20,1599 20,1596 C20,1593 22,1591 25,1591 C22,1591 20,1589 20,1586 C20,1583 22,1581 25,1581 C22,1581 20,1579 20,1576 C20,1573 22,1571 25,1571 C22,1571 20,1569 20,1566 C20,1563 22,1561 25,1561 C22,1561 20,1559 20,1556 C20,1553 22,1551 25,1551 C22,1551 20,1549 20,1546 C20,1543 22,1541 25,1541 C22,1541 20,1539 20,1536 C20,1533 22,1531 25,1531 C22,1531 20,1529 20,1526 C20,1523 22,1521 25,1521 C22,1521 20,1519 20,1516 C20,1513 22,1511 25,1511 C22,1511 20,1509 20,1506 C20,1503 22,1501 25,1501 C22,1501 20,1499 20,1496 C20,1493 22,1491 25,1491 C22,1491 20,1489 20,1486 C20,1483 22,1481 25,1481 C22,1481 20,1479 20,1476 C20,1473 22,1471 25,1471 C22,1471 20,1469 20,1466 C20,1463 22,1461 25,1461 C22,1461 20,1459 20,1456 C20,1453 22,1451 25,1451 C22,1451 20,1449 20,1446 C20,1443 22,1441 25,1441 C22,1441 20,1439 20,1436 C20,1433 22,1431 25,1431 C22,1431 20,1429 20,1426 C20,1423 22,1421 25,1421 C22,1421 20,1419 20,1416 C20,1413 22,1411 25,1411 C22,1411 20,1409 20,1406 C20,1403 22,1401 25,1401 C22,1401 20,1399 20,1396 C20,1393 22,1391 25,1391 C22,1391 20,1389 20,1386 C20,1383 22,1381 25,1381 C22,1381 20,1379 20,1376 C20,1373 22,1371 25,1371 C22,1371 20,1369 20,1366 C20,1363 22,1361 25,1361 C22,1361 20,1359 20,1356 C20,1353 22,1351 25,1351 C22,1351 20,1349 20,1346 C20,1343 22,1341 25,1341 C22,1341 20,1339 20,1336 C20,1333 22,1331 25,1331 C22,1331 20,1329 20,1326 C20,1323 22,1321 25,1321 C22,1321 20,1319 20,1316 C20,1313 22,1311 25,1311 C22,1311 20,1309 20,1306 C20,1303 22,1301 25,1301 C22,1301 20,1299 20,1296 C20,1293 22,1291 25,1291 C22,1291 20,1289 20,1286 C20,1283 22,1281 25,1281 C22,1281 20,1279 20,1276 C20,1273 22,1271 25,1271 C22,1271 20,1269 20,1266 C20,1263 22,1261 25,1261 C22,1261 20,1259 20,1256 C20,1253 22,1251 25,1251 C22,1251 20,1249 20,1246 C20,1243 22,1241 25,1241 C22,1241 20,1239 20,1236 C20,1233 22,1231 25,1231 C22,1231 20,1229 20,1226 C20,1223 22,1221 25,1221 C22,1221 20,1219 20,1216 C20,1213 22,1211 25,1211 C22,1211 20,1209 20,1206 C20,1203 22,1201 25,1201 C22,1201 20,1199 20,1196 C20,1193 22,1191 25,1191 C22,1191 20,1189 20,1186 C20,1183 22,1181 25,1181 C22,1181 20,1179 20,1176 C20,1173 22,1171 25,1171 C22,1171 20,1169 20,1166 C20,1163 22,1161 25,1161 C22,1161 20,1159 20,1156 C20,1153 22,1151 25,1151 C22,1151 20,1149 20,1146 C20,1143 22,1141 25,1141 C22,1141 20,1139 20,1136 C20,1133 22,1131 25,1131 C22,1131 20,1129 20,1126 C20,1123 22,1121 25,1121 C22,1121 20,1119 20,1116 C20,1113 22,1111 25,1111 C22,1111 20,1109 20,1106 C20,1103 22,1101 25,1101 C22,1101 20,1099 20,1096 C20,1093 22,1091 25,1091 C22,1091 20,1089 20,1086 C20,1083 22,1081 25,1081 C22,1081 20,1079 20,1076 C20,1073 22,1071 25,1071 C22,1071 20,1069 20,1066 C20,1063 22,1061 25,1061 C22,1061 20,1059 20,1056 C20,1053 22,1051 25,1051 C22,1051 20,1049 20,1046 C20,1043 22,1041 25,1041 C22,1041 20,1039 20,1036 C20,1033 22,1031 25,1031 C22,1031 20,1029 20,1026 C20,1023 22,1021 25,1021 C22,1021 20,1019 20,1016 C20,1013 22,1011 25,1011 C22,1011 20,1009 20,1006 C20,1003 22,1001 25,1001 C22,1001 20,999 20,996 C20,993 22,991 25,991 C22,991 20,989 20,986 C20,983 22,981 25,981 C22,981 20,979 20,976 C20,973 22,971 25,971 C22,971 20,969 20,966 C20,963 22,961 25,961 C22,961 20,959 20,956 C20,953 22,951 25,951 C22,951 20,949 20,946 C20,943 22,941 25,941 C22,941 20,939 20,936 C20,933 22,931 25,931 C22,931 20,929 20,926 C20,923 22,921 25,921 C22,921 20,919 20,916 C20,913 22,911 25,911 C22,911 20,909 20,906 C20,903 22,901 25,901 C22,901 20,899 20,896 C20,893 22,891 25,891 C22,891 20,889 20,886 C20,883 22,881 25,881 C22,881 20,879 20,876 C20,873 22,871 25,871 C22,871 20,869 20,866 C20,863 22,861 25,861 C22,861 20,859 20,856 C20,853 22,851 25,851 C22,851 20,849 20,846 C20,843 22,841 25,841 C22,841 20,839 20,836 C20,833 22,831 25,831 C22,831 20,829 20,826 C20,823 22,821 25,821 C22,821 20,819 20,816 C20,813 22,811 25,811 C22,811 20,809 20,806 C20,803 22,801 25,801 C22,801 20,799 20,796 C20,793 22,791 25,791 C22,791 20,789 20,786 C20,783 22,781 25,781 C22,781 20,779 20,776 C20,773 22,771 25,771 C22,771 20,769 20,766 C20,763 22,761 25,761 C22,761 20,759 20,756 C20,753 22,751 25,751 C22,751 20,749 20,746 C20,743 22,741 25,741 C22,741 20,739 20,736 C20,733 22,731 25,731 C22,731 20,729 20,726 C20,723 22,721 25,721 C22,721 20,719 20,716 C20,713 22,711 25,711 C22,711 20,709 20,706 C20,703 22,701 25,701 C22,701 20,699 20,696 C20,693 22,691 25,691 C22,691 20,689 20,686 C20,683 22,681 25,681 C22,681 20,679 20,676 C20,673 22,671 25,671 C22,671 20,669 20,666 C20,663 22,661 25,661 C22,661 20,659 20,656 C20,653 22,651 25,651 C22,651 20,649 20,646 C20,643 22,641 25,641 C22,641 20,639 20,636 C20,633 22,631 25,631 C22,631 20,629 20,626 C20,623 22,621 25,621 C22,621 20,619 20,616 C20,613 22,611 25,611 C22,611 20,609 20,606 C20,603 22,601 25,601 C22,601 20,599 20,596 C20,593 22,591 25,591 C22,591 20,589 20,586 C20,583 22,581 25,581 C22,581 20,579 20,576 C20,573 22,571 25,571 C22,571 20,569 20,566 C20,563 22,561 25,561 C22,561 20,559 20,556 C20,553 22,551 25,551 C22,551 20,549 20,546 C20,543 22,541 25,541 C22,541 20,539 20,536 C20,533 22,531 25,531 C22,531 20,529 20,526 C20,523 22,521 25,521 C22,521 20,519 20,516 C20,513 22,511 25,511 C22,511 20,509 20,506 C20,503 22,501 25,501 C22,501 20,499 20,496 C20,493 22,491 25,491 C22,491 20,489 20,486 C20,483 22,481 25,481 C22,481 20,479 20,476 C20,473 22,471 25,471 C22,471 20,469 20,466 C20,463 22,461 25,461 C22,461 20,459 20,456 C20,453 22,451 25,451 C22,451 20,449 20,446 C20,443 22,441 25,441 C22,441 20,439 20,436 C20,433 22,431 25,431 C22,431 20,429 20,426 C20,423 22,421 25,421 C22,421 20,419 20,416 C20,413 22,411 25,411 C22,411 20,409 20,406 C20,403 22,401 25,401 C22,401 20,399 20,396 C20,393 22,391 25,391 C22,391 20,389 20,386 C20,383 22,381 25,381 C22,381 20,379 20,376 C20,373 22,371 25,371 C22,371 20,369 20,366 C20,363 22,361 25,361 C22,361 20,359 20,356 C20,353 22,351 25,351 C22,351 20,349 20,346 C20,343 22,341 25,341 C22,341 20,339 20,336 C20,333 22,331 25,331 C22,331 20,329 20,326 C20,323 22,321 25,321 C22,321 20,319 20,316 C20,313 22,311 25,311 C22,311 20,309 20,306 C20,303 22,301 25,301 C22,301 20,299 20,296 C20,293 22,291 25,291 C22,291 20,289 20,286 C20,283 22,281 25,281 C22,281 20,279 20,276 C20,273 22,271 25,271 C22,271 20,269 20,266 C20,263 22,261 25,261 C22,261 20,259 20,256 C20,253 22,251 25,251 C22,251 20,249 20,246 C20,243 22,241 25,241 C22,241 20,239 20,236 C20,233 22,231 25,231 C22,231 20,229 20,226 C20,223 22,221 25,221 C22,221 20,219 20,216 C20,213 22,211 25,211 C22,211 20,209 20,206 C20,203 22,201 25,201 C22,201 20,199 20,196 C20,193 22,191 25,191 C22,191 20,189 20,186 C20,183 22,181 25,181 C22,181 20,179 20,176 C20,173 22,171 25,171 C22,171 20,169 20,166 C20,163 22,161 25,161 C22,161 20,159 20,156 C20,153 22,151 25,151 C22,151 20,149 20,146 C20,143 22,141 25,141 C22,141 20,139 20,136 C20,133 22,131 25,131 C22,131 20,129 20,126 C20,123 22,121 25,121 C22,121 20,119 20,116 C20,113 22,111 25,111 C22,111 20,109 20,106 C20,103 22,101 25,101 C22,101 20,99 20,96 C20,93 22,91 25,91 C22,91 20,89 20,86 C20,83 22,81 25,81 C22,81 20,79 20,76 C20,73 22,71 25,71 C22,71 20,69 20,66 C20,63 22,61 25,61 C22,61 20,59 20,56 C20,53 22,51 25,51 C22,51 20,49 20,46 C20,43 22,41 25,41 C22,41 20,39 20,36 C20,33 22,31 25,31 " fill="#FFFFFF" filter="url(#f1ib95chbxhi6)" style="stroke: #000000; stroke-width: 2.0;"/><text fill="#000000" font-family="sans-serif" font-size="14" font-weight="bold" lengthAdjust="spacingAndGlyphs" textLength="46" x="675.5" y="51.5332">DSuite</text><!--cluster Viewer--><polygon fill="#FFFFFF" filter="url(#f1ib95chbxhi6)" points="1090,1878,1100,1868,1290,1868,1290,2078,1280,2088,1090,2088,1090,1878" style="stroke: #000000; stroke-width: 2.0;"/><line style="stroke: #000000; stroke-width: 2.0;" x1="1280" x2="1289" y1="1878" y2="1869"/><line style="stroke: #000000; stroke-width: 2.0;" x1="1090" x2="1280" y1="1878" y2="1878"/><line style="stroke: #000000; stroke-width: 2.0;" x1="1280" x2="1280" y1="1878" y2="2088"/><text fill="#000000" font-family="sans-serif" font-size="14" font-weight="bold" lengthAdjust="spacingAndGlyphs" textLength="48" x="1162" y="1895.5332">Viewer</text><!--cluster SP--><polygon fill="#FFFFFF" filter="url(#f1ib95chbxhi6)" points="54,809,64,799,367,799,367,1090.5,357,1100.5,54,1100.5,54,809" style="stroke: #000000; stroke-width: 2.0;"/><line style="stroke: #000000; stroke-width: 2.0;" x1="357" x2="366" y1="809" y2="800"/><line style="stroke: #000000; stroke-width: 2.0;" x1="54" x2="357" y1="809" y2="809"/><line style="stroke: #000000; stroke-width: 2.0;" x1="357" x2="357" y1="809" y2="1100.5"/><text fill="#000000" font-family="sans-serif" font-size="14" font-weight="bold" lengthAdjust="spacingAndGlyphs" textLength="77" x="168" y="826.5332">SharePoint</text><!--cluster Site--><polygon fill="#FFFFFF" filter="url(#f1ib95chbxhi6)" points="86,856,119,856,126,879.6094,327,879.6094,327,1068.5,86,1068.5,86,856" style="stroke: #000000; stroke-width: 2.0;"/><line style="stroke: #000000; stroke-width: 2.0;" x1="86" x2="126" y1="879.6094" y2="879.6094"/><text fill="#000000" font-family="sans-serif" font-size="14" font-weight="bold" lengthAdjust="spacingAndGlyphs" textLength="27" x="90" y="872.5332">Site</text><!--cluster Administration--><polygon fill="#FFFFFF" filter="url(#f1ib95chbxhi6)" points="213,78,223,68,989,68,989,686,979,696,213,696,213,78" style="stroke: #000000; stroke-width: 2.0;"/><line style="stroke: #000000; stroke-width: 2.0;" x1="979" x2="988" y1="78" y2="69"/><line style="stroke: #000000; stroke-width: 2.0;" x1="213" x2="979" y1="78" y2="78"/><line style="stroke: #000000; stroke-width: 2.0;" x1="979" x2="979" y1="78" y2="696"/><text fill="#000000" font-family="sans-serif" font-size="14" font-weight="bold" lengthAdjust="spacingAndGlyphs" textLength="101" x="546.5" y="95.5332">Administration</text><!--cluster APP_PACK--><polygon fill="#FFFFFF" filter="url(#f1ib95chbxhi6)" points="285,125,324,125,331,148.6094,677,148.6094,677,330,285,330,285,125" style="stroke: #000000; stroke-width: 2.0;"/><line style="stroke: #000000; stroke-width: 2.0;" x1="285" x2="331" y1="148.6094" y2="148.6094"/><text fill="#000000" font-family="sans-serif" font-size="14" font-weight="bold" lengthAdjust="spacingAndGlyphs" textLength="33" x="289" y="141.5332">Pack</text><!--cluster APP_META--><polygon fill="#FFFFFF" filter="url(#f1ib95chbxhi6)" points="245,441,317,441,324,464.6094,362,464.6094,362,547,245,547,245,441" style="stroke: #000000; stroke-width: 2.0;"/><line style="stroke: #000000; stroke-width: 2.0;" x1="245" x2="324" y1="464.6094" y2="464.6094"/><text fill="#000000" font-family="sans-serif" font-size="14" font-weight="bold" lengthAdjust="spacingAndGlyphs" textLength="66" x="249" y="457.5332">MetaData</text><!--cluster APP_SECURITY--><polygon fill="#FFFFFF" filter="url(#f1ib95chbxhi6)" points="725,441,788,441,795,464.6094,957,464.6094,957,664,725,664,725,441" style="stroke: #000000; stroke-width: 2.0;"/><line style="stroke: #000000; stroke-width: 2.0;" x1="725" x2="795" y1="464.6094" y2="464.6094"/><text fill="#000000" font-family="sans-serif" font-size="14" font-weight="bold" lengthAdjust="spacingAndGlyphs" textLength="57" x="729" y="457.5332">Security</text><!--cluster APP_COMMS--><polygon fill="#FFFFFF" filter="url(#f1ib95chbxhi6)" points="402,441,459,441,466,464.6094,685,464.6094,685,547,402,547,402,441" style="stroke: #000000; stroke-width: 2.0;"/><line style="stroke: #000000; stroke-width: 2.0;" x1="402" x2="466" y1="464.6094" y2="464.6094"/><text fill="#000000" font-family="sans-serif" font-size="14" font-weight="bold" lengthAdjust="spacingAndGlyphs" textLength="51" x="406" y="457.5332">Comms</text><!--cluster Couch DB--><polygon fill="#FFFFFF" filter="url(#f1ib95chbxhi6)" points="1064,1580.5,1074,1570.5,1351,1570.5,1351,1664.5,1341,1674.5,1064,1674.5,1064,1580.5" style="stroke: #000000; stroke-width: 2.0;"/><line style="stroke: #000000; stroke-width: 2.0;" x1="1341" x2="1350" y1="1580.5" y2="1571.5"/><line style="stroke: #000000; stroke-width: 2.0;" x1="1064" x2="1341" y1="1580.5" y2="1580.5"/><line style="stroke: #000000; stroke-width: 2.0;" x1="1341" x2="1341" y1="1580.5" y2="1674.5"/><text fill="#000000" font-family="sans-serif" font-size="14" font-weight="bold" lengthAdjust="spacingAndGlyphs" textLength="69" x="1169" y="1598.0332">Couch DB</text><!--cluster Sql Server--><polygon fill="#FFFFFF" filter="url(#f1ib95chbxhi6)" points="399,856.5,409,846.5,1057,846.5,1057,940.5,1047,950.5,399,950.5,399,856.5" style="stroke: #000000; stroke-width: 2.0;"/><line style="stroke: #000000; stroke-width: 2.0;" x1="1047" x2="1056" y1="856.5" y2="847.5"/><line style="stroke: #000000; stroke-width: 2.0;" x1="399" x2="1047" y1="856.5" y2="856.5"/><line style="stroke: #000000; stroke-width: 2.0;" x1="1047" x2="1047" y1="856.5" y2="950.5"/><text fill="#000000" font-family="sans-serif" font-size="14" font-weight="bold" lengthAdjust="spacingAndGlyphs" textLength="74" x="687" y="874.0332">Sql Server</text><!--cluster Enterprise Service Bus--><polygon fill="#FFFFFF" filter="url(#f1ib95chbxhi6)" points="46,1213.5,56,1203.5,1040,1203.5,1040,1684,1030,1694,46,1694,46,1213.5" style="stroke: #000000; stroke-width: 2.0;"/><line style="stroke: #000000; stroke-width: 2.0;" x1="1030" x2="1039" y1="1213.5" y2="1204.5"/><line style="stroke: #000000; stroke-width: 2.0;" x1="46" x2="1030" y1="1213.5" y2="1213.5"/><line style="stroke: #000000; stroke-width: 2.0;" x1="1030" x2="1030" y1="1213.5" y2="1694"/><text fill="#000000" font-family="sans-serif" font-size="14" font-weight="bold" lengthAdjust="spacingAndGlyphs" textLength="163" x="457.5" y="1231.0332">Enterprise Service Bus</text><!--cluster Replication (Offline)--><polygon fill="#FFFFFF" filter="url(#f1ib95chbxhi6)" points="323,1252.5,469,1252.5,476,1276.1094,820,1276.1094,820,1342.5,323,1342.5,323,1252.5" style="stroke: #000000; stroke-width: 2.0;"/><line style="stroke: #000000; stroke-width: 2.0;" x1="323" x2="476" y1="1276.1094" y2="1276.1094"/><text fill="#000000" font-family="sans-serif" font-size="14" font-weight="bold" lengthAdjust="spacingAndGlyphs" textLength="140" x="327" y="1269.0332">Replication (Offline)</text><!--cluster Platform Integration--><polygon fill="#FFFFFF" filter="url(#f1ib95chbxhi6)" points="70,1252.5,215,1252.5,222,1276.1094,299,1276.1094,299,1670,70,1670,70,1252.5" style="stroke: #000000; stroke-width: 2.0;"/><line style="stroke: #000000; stroke-width: 2.0;" x1="70" x2="222" y1="1276.1094" y2="1276.1094"/><text fill="#000000" font-family="sans-serif" font-size="14" font-weight="bold" lengthAdjust="spacingAndGlyphs" textLength="139" x="74" y="1269.0332">Platform Integration</text><!--cluster TBD--><polygon fill="#FFFFFF" filter="url(#f1ib95chbxhi6)" points="844,1252.5,1006,1252.5,1013,1276.1094,1016,1276.1094,1016,1342.5,844,1342.5,844,1252.5" style="stroke: #000000; stroke-width: 2.0;"/><line style="stroke: #000000; stroke-width: 2.0;" x1="844" x2="1013" y1="1276.1094" y2="1276.1094"/><text fill="#000000" font-family="sans-serif" font-size="14" font-weight="bold" lengthAdjust="spacingAndGlyphs" textLength="156" x="848" y="1269.0332">Undefined Processing</text><!--entity C_APP_BROWSER--><rect fill="#FEFECE" filter="url(#f1ib95chbxhi6)" height="37.6094" style="stroke: #A80036; stroke-width: 1.5;" width="71" x="1106.5" y="2034"/><rect fill="#FEFECE" height="5" style="stroke: #A80036; stroke-width: 1.5;" width="10" x="1101.5" y="2039"/><rect fill="#FEFECE" height="5" style="stroke: #A80036; stroke-width: 1.5;" width="10" x="1101.5" y="2061.6094"/><text fill="#000000" font-family="sans-serif" font-size="14" lengthAdjust="spacingAndGlyphs" textLength="51" x="1116.5" y="2058.5332">Browser</text><!--entity C_APP_IOS--><rect fill="#FEFECE" filter="url(#f1ib95chbxhi6)" height="37.6094" style="stroke: #A80036; stroke-width: 1.5;" width="61" x="1212.5" y="2034"/><rect fill="#FEFECE" height="5" style="stroke: #A80036; stroke-width: 1.5;" width="10" x="1207.5" y="2039"/><rect fill="#FEFECE" height="5" style="stroke: #A80036; stroke-width: 1.5;" width="10" x="1207.5" y="2061.6094"/><text fill="#000000" font-family="sans-serif" font-size="14" lengthAdjust="spacingAndGlyphs" textLength="41" x="1222.5" y="2058.5332">Offline</text><!--entity POUCH_DB--><path d="M1140,1919 C1140,1909 1179,1909 1179,1909 C1179,1909 1218,1909 1218,1919 L1218,1945.6094 C1218,1955.6094 1179,1955.6094 1179,1955.6094 C1179,1955.6094 1140,1955.6094 1140,1945.6094 L1140,1919 " fill="#FEFECE" filter="url(#f1ib95chbxhi6)" style="stroke: #000000; stroke-width: 1.5;"/><path d="M1140,1919 C1140,1929 1179,1929 1179,1929 C1179,1929 1218,1929 1218,1919 " fill="none" style="stroke: #000000; stroke-width: 1.5;"/><text fill="#000000" font-family="sans-serif" font-size="14" lengthAdjust="spacingAndGlyphs" textLength="58" x="1150" y="1947.5332">PouchDb</text><!--entity C_DOCUMENTLIB--><rect fill="#FEFECE" filter="url(#f1ib95chbxhi6)" height="37.6094" style="stroke: #A80036; stroke-width: 1.5;" width="132" x="102" y="892"/><rect fill="#FEFECE" height="5" style="stroke: #A80036; stroke-width: 1.5;" width="10" x="97" y="897"/><rect fill="#FEFECE" height="5" style="stroke: #A80036; stroke-width: 1.5;" width="10" x="97" y="919.6094"/><text fill="#000000" font-family="sans-serif" font-size="14" lengthAdjust="spacingAndGlyphs" textLength="112" x="112" y="916.5332">Document Library</text><!--entity C_SP_LIST--><rect fill="#FEFECE" filter="url(#f1ib95chbxhi6)" height="37.6094" style="stroke: #A80036; stroke-width: 1.5;" width="42" x="269" y="892"/><rect fill="#FEFECE" height="5" style="stroke: #A80036; stroke-width: 1.5;" width="10" x="264" y="897"/><rect fill="#FEFECE" height="5" style="stroke: #A80036; stroke-width: 1.5;" width="10" x="264" y="919.6094"/><text fill="#000000" font-family="sans-serif" font-size="14" lengthAdjust="spacingAndGlyphs" textLength="22" x="279" y="916.5332">List</text><!--entity C_EVENTBRIDGE--><rect fill="#FEFECE" filter="url(#f1ib95chbxhi6)" height="37.6094" style="stroke: #A80036; stroke-width: 1.5;" width="101" x="117.5" y="1014.5"/><rect fill="#FEFECE" height="5" style="stroke: #A80036; stroke-width: 1.5;" width="10" x="112.5" y="1019.5"/><rect fill="#FEFECE" height="5" style="stroke: #A80036; stroke-width: 1.5;" width="10" x="112.5" y="1042.1094"/><text fill="#000000" font-family="sans-serif" font-size="14" lengthAdjust="spacingAndGlyphs" textLength="81" x="127.5" y="1039.0332">Event Bridge</text><!--entity C_APP_PACK--><rect fill="#FEFECE" filter="url(#f1ib95chbxhi6)" height="37.6094" style="stroke: #A80036; stroke-width: 1.5;" width="51" x="582.5" y="169"/><rect fill="#FEFECE" height="5" style="stroke: #A80036; stroke-width: 1.5;" width="10" x="577.5" y="174"/><rect fill="#FEFECE" height="5" style="stroke: #A80036; stroke-width: 1.5;" width="10" x="577.5" y="196.6094"/><text fill="#000000" font-family="sans-serif" font-size="14" lengthAdjust="spacingAndGlyphs" textLength="31" x="592.5" y="193.5332">Pack</text><!--entity C_APP_NAVIGATION--><rect fill="#FEFECE" filter="url(#f1ib95chbxhi6)" height="37.6094" style="stroke: #A80036; stroke-width: 1.5;" width="86" x="309" y="169"/><rect fill="#FEFECE" height="5" style="stroke: #A80036; stroke-width: 1.5;" width="10" x="304" y="174"/><rect fill="#FEFECE" height="5" style="stroke: #A80036; stroke-width: 1.5;" width="10" x="304" y="196.6094"/><text fill="#000000" font-family="sans-serif" font-size="14" lengthAdjust="spacingAndGlyphs" textLength="66" x="319" y="193.5332">Navigation</text><!--entity C_APP_COMMUNICATION--><rect fill="#FEFECE" filter="url(#f1ib95chbxhi6)" height="37.6094" style="stroke: #A80036; stroke-width: 1.5;" width="117" x="430.5" y="169"/><rect fill="#FEFECE" height="5" style="stroke: #A80036; stroke-width: 1.5;" width="10" x="425.5" y="174"/><rect fill="#FEFECE" height="5" style="stroke: #A80036; stroke-width: 1.5;" width="10" x="425.5" y="196.6094"/><text fill="#000000" font-family="sans-serif" font-size="14" lengthAdjust="spacingAndGlyphs" textLength="97" x="440.5" y="193.5332">Communication</text><!--entity C_APP_DECISION--><rect fill="#FEFECE" filter="url(#f1ib95chbxhi6)" height="37.6094" style="stroke: #A80036; stroke-width: 1.5;" width="81" x="311.5" y="268"/><rect fill="#FEFECE" height="5" style="stroke: #A80036; stroke-width: 1.5;" width="10" x="306.5" y="273"/><rect fill="#FEFECE" height="5" style="stroke: #A80036; stroke-width: 1.5;" width="10" x="306.5" y="295.6094"/><text fill="#000000" font-family="sans-serif" font-size="14" lengthAdjust="spacingAndGlyphs" textLength="61" x="321.5" y="292.5332">Decisions</text><!--entity C_APP_LISTS--><rect fill="#FEFECE" filter="url(#f1ib95chbxhi6)" height="37.6094" style="stroke: #A80036; stroke-width: 1.5;" width="49" x="288.5" y="485"/><rect fill="#FEFECE" height="5" style="stroke: #A80036; stroke-width: 1.5;" width="10" x="283.5" y="490"/><rect fill="#FEFECE" height="5" style="stroke: #A80036; stroke-width: 1.5;" width="10" x="283.5" y="512.6094"/><text fill="#000000" font-family="sans-serif" font-size="14" lengthAdjust="spacingAndGlyphs" textLength="29" x="298.5" y="509.5332">Lists</text><!--entity C_APP_USERS--><rect fill="#FEFECE" filter="url(#f1ib95chbxhi6)" height="37.6094" style="stroke: #A80036; stroke-width: 1.5;" width="74" x="768" y="485"/><rect fill="#FEFECE" height="5" style="stroke: #A80036; stroke-width: 1.5;" width="10" x="763" y="490"/><rect fill="#FEFECE" height="5" style="stroke: #A80036; stroke-width: 1.5;" width="10" x="763" y="512.6094"/><text fill="#000000" font-family="sans-serif" font-size="14" lengthAdjust="spacingAndGlyphs" textLength="54" x="778" y="509.5332">Readers</text><!--entity C_APP_ROLES--><rect fill="#FEFECE" filter="url(#f1ib95chbxhi6)" height="37.6094" style="stroke: #A80036; stroke-width: 1.5;" width="56" x="877" y="485"/><rect fill="#FEFECE" height="5" style="stroke: #A80036; stroke-width: 1.5;" width="10" x="872" y="490"/><rect fill="#FEFECE" height="5" style="stroke: #A80036; stroke-width: 1.5;" width="10" x="872" y="512.6094"/><text fill="#000000" font-family="sans-serif" font-size="14" lengthAdjust="spacingAndGlyphs" textLength="36" x="887" y="509.5332">Roles</text><!--entity C_APP_OPERATIONS--><rect fill="#FEFECE" filter="url(#f1ib95chbxhi6)" height="37.6094" style="stroke: #A80036; stroke-width: 1.5;" width="90" x="768" y="602"/><rect fill="#FEFECE" height="5" style="stroke: #A80036; stroke-width: 1.5;" width="10" x="763" y="607"/><rect fill="#FEFECE" height="5" style="stroke: #A80036; stroke-width: 1.5;" width="10" x="763" y="629.6094"/><text fill="#000000" font-family="sans-serif" font-size="14" lengthAdjust="spacingAndGlyphs" textLength="70" x="778" y="626.5332">Operations</text><!--entity C_APP_NOTIFICATION--><rect fill="#FEFECE" filter="url(#f1ib95chbxhi6)" height="37.6094" style="stroke: #A80036; stroke-width: 1.5;" width="89" x="571.5" y="485"/><rect fill="#FEFECE" height="5" style="stroke: #A80036; stroke-width: 1.5;" width="10" x="566.5" y="490"/><rect fill="#FEFECE" height="5" style="stroke: #A80036; stroke-width: 1.5;" width="10" x="566.5" y="512.6094"/><text fill="#000000" font-family="sans-serif" font-size="14" lengthAdjust="spacingAndGlyphs" textLength="69" x="581.5" y="509.5332">Notification</text><!--entity C_APP_DISTRIBUTION--><rect fill="#FEFECE" filter="url(#f1ib95chbxhi6)" height="37.6094" style="stroke: #A80036; stroke-width: 1.5;" width="91" x="445.5" y="485"/><rect fill="#FEFECE" height="5" style="stroke: #A80036; stroke-width: 1.5;" width="10" x="440.5" y="490"/><rect fill="#FEFECE" height="5" style="stroke: #A80036; stroke-width: 1.5;" width="10" x="440.5" y="512.6094"/><text fill="#000000" font-family="sans-serif" font-size="14" lengthAdjust="spacingAndGlyphs" textLength="71" x="455.5" y="509.5332">Distribution</text><!--entity DB_USER_INBOX--><path d="M1080,1621.5 C1080,1611.5 1132,1611.5 1132,1611.5 C1132,1611.5 1184,1611.5 1184,1621.5 L1184,1648.1094 C1184,1658.1094 1132,1658.1094 1132,1658.1094 C1132,1658.1094 1080,1658.1094 1080,1648.1094 L1080,1621.5 " fill="#FEFECE" filter="url(#f1ib95chbxhi6)" style="stroke: #000000; stroke-width: 1.5;"/><path d="M1080,1621.5 C1080,1631.5 1132,1631.5 1132,1631.5 C1132,1631.5 1184,1631.5 1184,1621.5 " fill="none" style="stroke: #000000; stroke-width: 1.5;"/><text fill="#000000" font-family="sans-serif" font-size="14" lengthAdjust="spacingAndGlyphs" textLength="84" x="1090" y="1650.0332">Reader Inbox</text><!--entity DB_USER_OUTBOX--><path d="M1219,1621.5 C1219,1611.5 1277,1611.5 1277,1611.5 C1277,1611.5 1335,1611.5 1335,1621.5 L1335,1648.1094 C1335,1658.1094 1277,1658.1094 1277,1658.1094 C1277,1658.1094 1219,1658.1094 1219,1648.1094 L1219,1621.5 " fill="#FEFECE" filter="url(#f1ib95chbxhi6)" style="stroke: #000000; stroke-width: 1.5;"/><path d="M1219,1621.5 C1219,1631.5 1277,1631.5 1277,1631.5 C1277,1631.5 1335,1631.5 1335,1621.5 " fill="none" style="stroke: #000000; stroke-width: 1.5;"/><text fill="#000000" font-family="sans-serif" font-size="14" lengthAdjust="spacingAndGlyphs" textLength="96" x="1229" y="1650.0332">Reader Outbox</text><!--entity DB_PACK--><path d="M863.5,897.5 C863.5,887.5 889,887.5 889,887.5 C889,887.5 914.5,887.5 914.5,897.5 L914.5,924.1094 C914.5,934.1094 889,934.1094 889,934.1094 C889,934.1094 863.5,934.1094 863.5,924.1094 L863.5,897.5 " fill="#FEFECE" filter="url(#f1ib95chbxhi6)" style="stroke: #000000; stroke-width: 1.5;"/><path d="M863.5,897.5 C863.5,907.5 889,907.5 889,907.5 C889,907.5 914.5,907.5 914.5,897.5 " fill="none" style="stroke: #000000; stroke-width: 1.5;"/><text fill="#000000" font-family="sans-serif" font-size="14" lengthAdjust="spacingAndGlyphs" textLength="31" x="873.5" y="926.0332">Pack</text><!--entity DB_LISTS--><path d="M415.5,897.5 C415.5,887.5 440,887.5 440,887.5 C440,887.5 464.5,887.5 464.5,897.5 L464.5,924.1094 C464.5,934.1094 440,934.1094 440,934.1094 C440,934.1094 415.5,934.1094 415.5,924.1094 L415.5,897.5 " fill="#FEFECE" filter="url(#f1ib95chbxhi6)" style="stroke: #000000; stroke-width: 1.5;"/><path d="M415.5,897.5 C415.5,907.5 440,907.5 440,907.5 C440,907.5 464.5,907.5 464.5,897.5 " fill="none" style="stroke: #000000; stroke-width: 1.5;"/><text fill="#000000" font-family="sans-serif" font-size="14" lengthAdjust="spacingAndGlyphs" textLength="29" x="425.5" y="926.0332">Lists</text><!--entity DB_SECURITY--><path d="M633.5,897.5 C633.5,887.5 669,887.5 669,887.5 C669,887.5 704.5,887.5 704.5,897.5 L704.5,924.1094 C704.5,934.1094 669,934.1094 669,934.1094 C669,934.1094 633.5,934.1094 633.5,924.1094 L633.5,897.5 " fill="#FEFECE" filter="url(#f1ib95chbxhi6)" style="stroke: #000000; stroke-width: 1.5;"/><path d="M633.5,897.5 C633.5,907.5 669,907.5 669,907.5 C669,907.5 704.5,907.5 704.5,897.5 " fill="none" style="stroke: #000000; stroke-width: 1.5;"/><text fill="#000000" font-family="sans-serif" font-size="14" lengthAdjust="spacingAndGlyphs" textLength="51" x="643.5" y="926.0332">Security</text><!--entity DB_NOTIFICATION--><path d="M739.5,897.5 C739.5,887.5 784,887.5 784,887.5 C784,887.5 828.5,887.5 828.5,897.5 L828.5,924.1094 C828.5,934.1094 784,934.1094 784,934.1094 C784,934.1094 739.5,934.1094 739.5,924.1094 L739.5,897.5 " fill="#FEFECE" filter="url(#f1ib95chbxhi6)" style="stroke: #000000; stroke-width: 1.5;"/><path d="M739.5,897.5 C739.5,907.5 784,907.5 784,907.5 C784,907.5 828.5,907.5 828.5,897.5 " fill="none" style="stroke: #000000; stroke-width: 1.5;"/><text fill="#000000" font-family="sans-serif" font-size="14" lengthAdjust="spacingAndGlyphs" textLength="69" x="749.5" y="926.0332">Notification</text><!--entity DB_SUBSCRIPTION--><path d="M500,897.5 C500,887.5 549,887.5 549,887.5 C549,887.5 598,887.5 598,897.5 L598,924.1094 C598,934.1094 549,934.1094 549,934.1094 C549,934.1094 500,934.1094 500,924.1094 L500,897.5 " fill="#FEFECE" filter="url(#f1ib95chbxhi6)" style="stroke: #000000; stroke-width: 1.5;"/><path d="M500,897.5 C500,907.5 549,907.5 549,907.5 C549,907.5 598,907.5 598,897.5 " fill="none" style="stroke: #000000; stroke-width: 1.5;"/><text fill="#000000" font-family="sans-serif" font-size="14" lengthAdjust="spacingAndGlyphs" textLength="78" x="510" y="926.0332">Subscription</text><!--entity DB_SECURABLES--><path d="M949.5,897.5 C949.5,887.5 995,887.5 995,887.5 C995,887.5 1040.5,887.5 1040.5,897.5 L1040.5,924.1094 C1040.5,934.1094 995,934.1094 995,934.1094 C995,934.1094 949.5,934.1094 949.5,924.1094 L949.5,897.5 " fill="#FEFECE" filter="url(#f1ib95chbxhi6)" style="stroke: #000000; stroke-width: 1.5;"/><path d="M949.5,897.5 C949.5,907.5 995,907.5 995,907.5 C995,907.5 1040.5,907.5 1040.5,897.5 " fill="none" style="stroke: #000000; stroke-width: 1.5;"/><text fill="#000000" font-family="sans-serif" font-size="14" lengthAdjust="spacingAndGlyphs" textLength="71" x="959.5" y="926.0332">Securables</text><!--entity EP_P2S--><rect fill="#FEFECE" filter="url(#f1ib95chbxhi6)" height="37.6094" style="stroke: #A80036; stroke-width: 1.5;" width="135" x="339.5" y="1288.5"/><rect fill="#FEFECE" height="5" style="stroke: #A80036; stroke-width: 1.5;" width="10" x="334.5" y="1293.5"/><rect fill="#FEFECE" height="5" style="stroke: #A80036; stroke-width: 1.5;" width="10" x="334.5" y="1316.1094"/><text fill="#000000" font-family="sans-serif" font-size="14" lengthAdjust="spacingAndGlyphs" textLength="115" x="349.5" y="1313.0332">Pack to Securable</text><!--entity EP_SEC_DIST--><rect fill="#FEFECE" filter="url(#f1ib95chbxhi6)" height="37.6094" style="stroke: #A80036; stroke-width: 1.5;" width="153" x="509.5" y="1288.5"/><rect fill="#FEFECE" height="5" style="stroke: #A80036; stroke-width: 1.5;" width="10" x="504.5" y="1293.5"/><rect fill="#FEFECE" height="5" style="stroke: #A80036; stroke-width: 1.5;" width="10" x="504.5" y="1316.1094"/><text fill="#000000" font-family="sans-serif" font-size="14" lengthAdjust="spacingAndGlyphs" textLength="133" x="519.5" y="1313.0332">Securable Distributor</text><!--entity EP_COUCHBRIDGE--><rect fill="#FEFECE" filter="url(#f1ib95chbxhi6)" height="37.6094" style="stroke: #A80036; stroke-width: 1.5;" width="106" x="698" y="1288.5"/><rect fill="#FEFECE" height="5" style="stroke: #A80036; stroke-width: 1.5;" width="10" x="693" y="1293.5"/><rect fill="#FEFECE" height="5" style="stroke: #A80036; stroke-width: 1.5;" width="10" x="693" y="1316.1094"/><text fill="#000000" font-family="sans-serif" font-size="14" lengthAdjust="spacingAndGlyphs" textLength="86" x="708" y="1313.0332">Couch Bridge</text><!--entity EP_EVENTPUBLISHER--><rect fill="#FEFECE" filter="url(#f1ib95chbxhi6)" height="37.6094" style="stroke: #A80036; stroke-width: 1.5;" width="119" x="106.5" y="1616"/><rect fill="#FEFECE" height="5" style="stroke: #A80036; stroke-width: 1.5;" width="10" x="101.5" y="1621"/><rect fill="#FEFECE" height="5" style="stroke: #A80036; stroke-width: 1.5;" width="10" x="101.5" y="1643.6094"/><text fill="#000000" font-family="sans-serif" font-size="14" lengthAdjust="spacingAndGlyphs" textLength="99" x="116.5" y="1640.5332">Event Publisher</text><!--entity EP_DOCUMENT--><rect fill="#FEFECE" filter="url(#f1ib95chbxhi6)" height="37.6094" style="stroke: #A80036; stroke-width: 1.5;" width="160" x="86" y="1485.5"/><rect fill="#FEFECE" height="5" style="stroke: #A80036; stroke-width: 1.5;" width="10" x="81" y="1490.5"/><rect fill="#FEFECE" height="5" style="stroke: #A80036; stroke-width: 1.5;" width="10" x="81" y="1513.1094"/><text fill="#000000" font-family="sans-serif" font-size="14" lengthAdjust="spacingAndGlyphs" textLength="140" x="96" y="1510.0332">Document Conversion</text><!--entity EP_PACK_BUILD--><rect fill="#FEFECE" filter="url(#f1ib95chbxhi6)" height="37.6094" style="stroke: #A80036; stroke-width: 1.5;" width="99" x="183.5" y="1288.5"/><rect fill="#FEFECE" height="5" style="stroke: #A80036; stroke-width: 1.5;" width="10" x="178.5" y="1293.5"/><rect fill="#FEFECE" height="5" style="stroke: #A80036; stroke-width: 1.5;" width="10" x="178.5" y="1316.1094"/><text fill="#000000" font-family="sans-serif" font-size="14" lengthAdjust="spacingAndGlyphs" textLength="79" x="193.5" y="1313.0332">Pack Builder</text><!--entity MYSTERY--><rect fill="#FEFECE" filter="url(#f1ib95chbxhi6)" height="37.6094" style="stroke: #A80036; stroke-width: 1.5;" width="111" x="860.5" y="1288.5"/><rect fill="#FEFECE" height="5" style="stroke: #A80036; stroke-width: 1.5;" width="10" x="855.5" y="1293.5"/><rect fill="#FEFECE" height="5" style="stroke: #A80036; stroke-width: 1.5;" width="10" x="855.5" y="1316.1094"/><text fill="#000000" font-family="sans-serif" font-size="14" lengthAdjust="spacingAndGlyphs" textLength="91" x="870.5" y="1313.0332">Some Process</text><!--link APP_PACK to APP_META--><path d="M677.0403,242.1371 C677.0691,242.6279 677.0966,243.1205 677.1229,243.6148 C677.228,245.5922 677.313,247.5976 677.3746,249.6262 C678.3613,282.085 673.393,320.515 650,346 C533.943,472.44 395.341,305.65 272,425 C268.895,428.005 266.2634,431.4259 264.036,435.118 C262.9223,436.9641 261.9097,438.8779 260.9895,440.8414 " fill="none" id="APP_PACK-APP_META" style="stroke: #A80036; stroke-width: 1.0; stroke-dasharray: 7.0,7.0;"/><polygon fill="#A80036" points="260.9895,440.8414,268.4307,434.3894,263.1113,436.3139,261.1867,430.9945,260.9895,440.8414" style="stroke: #A80036; stroke-width: 1.0;"/><!--link APP_PACK to APP_SECURITY--><path d="M677.08,196.8693 C677.1806,196.9737 677.2818,197.0789 677.3836,197.1851 C677.7908,197.6097 678.2078,198.0484 678.6334,198.5005 C680.3359,200.309 682.176,202.3328 684.0777,204.5338 C691.6848,213.3375 700.2785,224.975 705,237 C726.386,291.46 733.503,356.75 735.2164,409.0163 C735.4305,415.5495 735.5603,421.8793 735.6229,427.959 C735.6542,430.9989 735.6688,433.9762 735.6687,436.8852 C735.6687,437.6124 735.6677,438.3354 735.6659,439.054 C735.665,439.4133 735.6639,439.7715 735.6625,440.1286 " fill="none" id="APP_PACK-APP_SECURITY" style="stroke: #A80036; stroke-width: 1.0; stroke-dasharray: 7.0,7.0;"/><polygon fill="#A80036" points="735.6625,440.1286,739.6963,431.1437,735.6813,435.1287,731.6964,431.1137,735.6625,440.1286" style="stroke: #A80036; stroke-width: 1.0;"/><!--link APP_PACK to APP_COMMS--><path d="M677.0739,209.5754 C677.2324,210.0176 677.3924,210.4657 677.5536,210.9199 C678.1983,212.7364 678.8631,214.6478 679.5418,216.6473 C684.9712,232.6434 691.2904,254.2744 695.3724,277.9938 C703.5363,325.4325 702.751,381.225 668,417 C649.487,436.06 449.616,408.24 429,425 C425.6476,427.7263 422.8285,430.9359 420.4628,434.472 C419.2799,436.24 418.2103,438.0897 417.2441,440.0013 C417.1233,440.2402 417.0041,440.4801 416.8865,440.721 " fill="none" id="APP_PACK-APP_COMMS" style="stroke: #A80036; stroke-width: 1.0; stroke-dasharray: 7.0,7.0;"/><polygon fill="#A80036" points="416.8865,440.721,424.4292,434.3879,419.0799,436.2278,417.2401,430.8785,416.8865,440.721" style="stroke: #A80036; stroke-width: 1.0;"/><!--link APP_PACK to MYSTERY--><path d="M677.4044,189.1347 C678.3917,189.1543 679.4604,189.1767 680.6073,189.202 C682.9012,189.2527 685.5082,189.3153 688.404,189.3925 C699.9872,189.7011 716.1915,190.2418 735.4601,191.178 C773.9974,193.0503 824.792,196.5044 875.3905,202.8462 C976.5875,215.53 1077,239.765 1077,286 C1077,286 1077,286 1077,1156.5 C1077,1220.872 1007.25,1265.489 959.569,1288.468 " fill="none" id="APP_PACK-MYSTERY" style="stroke: #A80036; stroke-width: 1.0; stroke-dasharray: 7.0,7.0;"/><polygon fill="#A80036" points="677.4044,189.1347,686.3229,193.3132,682.4034,189.2343,686.4823,185.3148,677.4044,189.1347" style="stroke: #A80036; stroke-width: 1.0;"/><!--link SP to MYSTERY--><path d="M367.086,923.4943 C367.1807,923.6218 367.276,923.75 367.372,923.8789 C367.5641,924.1368 367.7589,924.3975 367.9564,924.6608 C368.3514,925.1876 368.7573,925.7251 369.1735,926.2722 C370.0058,927.3665 370.8796,928.4992 371.7911,929.6613 C379.083,938.9575 388.787,950.13 399,958.5 C565.072,1094.61 653.746,1059.61 820,1195.5 C854.325,1223.556 886.339,1264.752 903.326,1288.266 " fill="none" id="SP-MYSTERY" style="stroke: #A80036; stroke-width: 1.0; stroke-dasharray: 7.0,7.0;"/><polygon fill="#A80036" points="367.086,923.4943,369.2383,933.1051,370.0661,927.5091,375.6621,928.337,367.086,923.4943" style="stroke: #A80036; stroke-width: 1.0;"/><!--link EP_DOCUMENT to EP_EVENTPUBLISHER--><path d="M166,1528.756 C166,1553.807 166,1593.134 166,1615.954 " fill="none" id="EP_DOCUMENT-EP_EVENTPUBLISHER" style="stroke: #A80036; stroke-width: 1.0; stroke-dasharray: 7.0,7.0;"/><polygon fill="#A80036" points="166,1523.638,162,1532.638,166,1528.638,170,1532.638,166,1523.638" style="stroke: #A80036; stroke-width: 1.0;"/><!--link EP_PACK_BUILD to EP_EVENTPUBLISHER--><path d="M243.295,1331.386 C259.843,1371.579 288.084,1456.903 263,1523.5 C248.424,1562.2 213.452,1596.17 189.735,1615.899 " fill="none" id="EP_PACK_BUILD-EP_EVENTPUBLISHER" style="stroke: #A80036; stroke-width: 1.0; stroke-dasharray: 7.0,7.0;"/><polygon fill="#A80036" points="241.339,1326.713,241.1264,1336.5596,243.2706,1331.3248,248.5053,1333.469,241.339,1326.713" style="stroke: #A80036; stroke-width: 1.0;"/><!--link C_DOCUMENTLIB to C_EVENTBRIDGE--><path d="M168,930.04 C168,951.16 168,986.18 168,1009.31 " fill="none" id="C_DOCUMENTLIB-C_EVENTBRIDGE" style="stroke: #A80036; stroke-width: 1.0;"/><polygon fill="#A80036" points="168,1014.34,172,1005.34,168,1009.34,164,1005.34,168,1014.34" style="stroke: #A80036; stroke-width: 1.0;"/><text fill="#000000" font-family="sans-serif" font-size="13" lengthAdjust="spacingAndGlyphs" textLength="100" x="169" y="980.9951">SharePoint Event</text><!--link C_SP_LIST to C_EVENTBRIDGE--><path d="M291.56,930.29 C291.938,946.21 289.994,969.1 278,984.5 C264.488,1001.85 243.421,1013.05 223.326,1020.23 " fill="none" id="C_SP_LIST-C_EVENTBRIDGE" style="stroke: #A80036; stroke-width: 1.0;"/><polygon fill="#A80036" points="218.516,1021.88,228.3268,1022.7445,223.2457,1020.2582,225.732,1015.177,218.516,1021.88" style="stroke: #A80036; stroke-width: 1.0;"/><!--link POUCH_DB to C_APP_BROWSER--><path d="M1168.58,1960.982 C1165.67,1969.002 1162.59,1977.812 1160,1986 C1154.91,2002.078 1149.93,2020.626 1146.5,2033.9573 " fill="none" id="POUCH_DB-C_APP_BROWSER" style="stroke: #A80036; stroke-width: 1.0;"/><polygon fill="#A80036" points="1170.37,1956.104,1163.5225,1963.183,1168.6529,1960.7999,1171.036,1965.9303,1170.37,1956.104" style="stroke: #A80036; stroke-width: 1.0;"/><text fill="#000000" font-family="sans-serif" font-size="13" lengthAdjust="spacingAndGlyphs" textLength="30" x="1161" y="2000.4951">Uses</text><!--link POUCH_DB to C_APP_IOS--><path d="M1193.7,1960.71 C1205.8,1983.123 1222.63,2014.282 1233.16,2033.7845 " fill="none" id="POUCH_DB-C_APP_IOS" style="stroke: #A80036; stroke-width: 1.0;"/><polygon fill="#A80036" points="1191.19,1956.068,1191.9462,1965.8878,1193.5655,1960.4676,1198.9857,1962.0869,1191.19,1956.068" style="stroke: #A80036; stroke-width: 1.0;"/><text fill="#000000" font-family="sans-serif" font-size="13" lengthAdjust="spacingAndGlyphs" textLength="30" x="1217" y="2000.4951">Uses</text><!--link DB_USER_INBOX to POUCH_DB--><path d="M1136.41,1663.746 C1145.36,1720.013 1165.56,1846.99 1174.54,1903.484 " fill="none" id="DB_USER_INBOX-POUCH_DB" style="stroke: #A80036; stroke-width: 1.0;"/><polygon fill="#A80036" points="1175.38,1908.726,1177.9175,1899.2096,1174.5951,1903.788,1170.0167,1900.4656,1175.38,1908.726" style="stroke: #A80036; stroke-width: 1.0;"/><polygon fill="#A80036" points="1135.61,1658.697,1133.0768,1668.2145,1136.3972,1663.6346,1140.977,1666.955,1135.61,1658.697" style="stroke: #A80036; stroke-width: 1.0;"/><text fill="#000000" font-family="sans-serif" font-size="13" lengthAdjust="spacingAndGlyphs" textLength="61" x="1157" y="1786.4951">Replicates</text><!--link DB_USER_OUTBOX to POUCH_DB--><path d="M1268.19,1663.499 C1258.29,1694.333 1241.67,1745.81 1227,1790 C1213.79,1829.798 1198.12,1875.754 1188.37,1904.223 " fill="none" id="DB_USER_OUTBOX-POUCH_DB" style="stroke: #A80036; stroke-width: 1.0;"/><polygon fill="#A80036" points="1186.74,1908.984,1193.443,1901.768,1188.3618,1904.2543,1185.8755,1899.1732,1186.74,1908.984" style="stroke: #A80036; stroke-width: 1.0;"/><polygon fill="#A80036" points="1269.72,1658.732,1263.1585,1666.0769,1268.1904,1663.4923,1270.775,1668.5242,1269.72,1658.732" style="stroke: #A80036; stroke-width: 1.0;"/><text fill="#000000" font-family="sans-serif" font-size="13" lengthAdjust="spacingAndGlyphs" textLength="61" x="1233" y="1786.4951">Replicates</text><!--link EP_COUCHBRIDGE to DB_USER_INBOX--><path d="M776.264,1330.084 C843.827,1387.805 1028.49,1545.566 1101.61,1608.034 " fill="none" id="EP_COUCHBRIDGE-DB_USER_INBOX" style="stroke: #A80036; stroke-width: 1.0;"/><polygon fill="#A80036" points="1105.42,1611.294,1101.1882,1602.4006,1101.6231,1608.0407,1095.983,1608.4757,1105.42,1611.294" style="stroke: #A80036; stroke-width: 1.0;"/><polygon fill="#A80036" points="772.301,1326.698,776.5444,1335.5858,776.1021,1329.9463,781.7417,1329.5041,772.301,1326.698" style="stroke: #A80036; stroke-width: 1.0;"/><text fill="#000000" font-family="sans-serif" font-size="13" lengthAdjust="spacingAndGlyphs" textLength="42" x="922" y="1451.9951">Listens</text><!--link EP_COUCHBRIDGE to DB_USER_OUTBOX--><path d="M795.243,1328.835 C878.644,1368.135 1063.2,1459.757 1202,1562.5 C1219.97,1575.805 1238.18,1593.049 1252.15,1607.268 " fill="none" id="EP_COUCHBRIDGE-DB_USER_OUTBOX" style="stroke: #A80036; stroke-width: 1.0;"/><polygon fill="#A80036" points="1255.97,1611.192,1252.5591,1601.9526,1252.4826,1607.609,1246.8263,1607.5325,1255.97,1611.192" style="stroke: #A80036; stroke-width: 1.0;"/><polygon fill="#A80036" points="790.38,1326.549,796.8237,1333.9974,794.9051,1328.6759,800.2267,1326.7573,790.38,1326.549" style="stroke: #A80036; stroke-width: 1.0;"/><text fill="#000000" font-family="sans-serif" font-size="13" lengthAdjust="spacingAndGlyphs" textLength="42" x="1038" y="1451.9951">Listens</text><!--link EP_COUCHBRIDGE to MYSTERY--><path d="M804.174,1307.5 C821.064,1307.5 837.955,1307.5 854.845,1307.5 " fill="none" id="EP_COUCHBRIDGE-MYSTERY" style="stroke: #A80036; stroke-width: 1.0; stroke-dasharray: 7.0,7.0;"/><polygon fill="#A80036" points="860.087,1307.5,851.087,1303.5,855.087,1307.5,851.087,1311.5,860.087,1307.5" style="stroke: #A80036; stroke-width: 1.0;"/><!--link C_EVENTBRIDGE to EP_EVENTPUBLISHER--><path d="M157.099,1052.85 C119.522,1118.58 1.2743,1347.701 68,1523.5 C81.9344,1560.212 114.267,1592.544 137.999,1612.599 " fill="none" id="C_EVENTBRIDGE-EP_EVENTPUBLISHER" style="stroke: #A80036; stroke-width: 1.0; stroke-dasharray: 7.0,7.0;"/><polygon fill="#A80036" points="142.027,1615.954,137.6741,1607.1193,138.186,1612.7529,132.5524,1613.2649,142.027,1615.954" style="stroke: #A80036; stroke-width: 1.0;"/><text fill="#000000" font-family="sans-serif" font-size="13" lengthAdjust="spacingAndGlyphs" textLength="80" x="52" y="1372.9951">Domain Event</text><!--link DB_SECURABLES to EP_DOCUMENT--><path d="M967.167,937.74 C956.857,945.8 944.593,953.8 932,958.5 C889.395,974.39 875.08,960.54 830,966.5 C714.805,981.73 679.527,968.09 573,1014.5 C496.967,1047.62 497.625,1089.31 423,1125.5 C316.479,1177.152 237.873,1101.43 166,1195.5 C131.182,1241.07 154.711,1426.509 163.255,1485.435 " fill="none" id="DB_SECURABLES-EP_DOCUMENT" style="stroke: #A80036; stroke-width: 1.0; stroke-dasharray: 7.0,7.0;"/><polygon fill="#A80036" points="971.165,934.54,961.6412,937.0494,967.2641,937.6678,966.6457,943.2908,971.165,934.54" style="stroke: #A80036; stroke-width: 1.0;"/><!--link DB_PACK to EP_PACK_BUILD--><path d="M870.943,938.66 C864.128,946.52 855.655,954.17 846,958.5 C825.216,967.83 455.818,955.26 436,966.5 C403.258,985.07 277.975,1220.688 242.444,1288.41 " fill="none" id="DB_PACK-EP_PACK_BUILD" style="stroke: #A80036; stroke-width: 1.0; stroke-dasharray: 7.0,7.0;"/><polygon fill="#A80036" points="874.154,934.8,865.3218,939.1581,870.9552,938.6429,871.4704,944.2762,874.154,934.8" style="stroke: #A80036; stroke-width: 1.0;"/><!--link C_APP_PACK to DB_PACK--><path d="M633.69,205.57 C634.794,206.08 635.899,206.56 637,207 C717.511,239.13 1019,199.31 1019,286 C1019,286 1019,286 1019,744 C1019,786.37 960.507,751.65 932,783 C906.79,810.73 896.282,853.8 891.955,881.96 " fill="none" id="C_APP_PACK-DB_PACK" style="stroke: #A80036; stroke-width: 1.0;"/><polygon fill="#A80036" points="891.217,887.03,896.4853,878.7086,891.9453,882.0833,888.5706,877.5434,891.217,887.03" style="stroke: #A80036; stroke-width: 1.0;"/><!--link C_APP_LISTS to DB_LISTS--><path d="M318.704,523.19 C338.894,587.58 407.061,804.96 431.331,882.35 " fill="none" id="C_APP_LISTS-DB_LISTS" style="stroke: #A80036; stroke-width: 1.0;"/><polygon fill="#A80036" points="432.865,887.25,433.9818,877.4647,431.3655,882.4801,426.35,879.8639,432.865,887.25" style="stroke: #A80036; stroke-width: 1.0;"/><!--link APP_SECURITY to DB_SECURITY--><path d="M724.9136,556.1701 C724.7697,557.0808 724.6243,558.0009 724.4775,558.9304 C724.1837,560.7893 723.8841,562.6853 723.5789,564.6167 C722.9685,568.4795 722.3358,572.4836 721.6829,576.615 C720.3772,584.8776 718.9912,593.6489 717.5427,602.8149 C714.6459,621.1469 711.4995,641.0575 708.2478,661.635 C695.2407,743.945 680.5475,836.925 673.39,882.22 " fill="none" id="APP_SECURITY-DB_SECURITY" style="stroke: #A80036; stroke-width: 1.0;"/><polygon fill="#A80036" points="672.571,887.4,677.9354,879.1403,673.3566,882.4621,670.0348,877.8833,672.571,887.4" style="stroke: #A80036; stroke-width: 1.0;"/><!--link C_APP_NOTIFICATION to DB_NOTIFICATION--><path d="M641.752,523.23 C661.453,536.3 689.778,553.25 717,563 C815.435,598.25 881.472,522.17 949,602 C978.278,636.61 969.055,663.34 949,704 C923.478,755.74 882.515,738.33 846,783 C821.293,813.22 803.349,854.93 793.305,882.18 " fill="none" id="C_APP_NOTIFICATION-DB_NOTIFICATION" style="stroke: #A80036; stroke-width: 1.0;"/><polygon fill="#A80036" points="791.522,887.09,798.3638,880.0055,793.2353,882.3927,790.8481,877.2642,791.522,887.09" style="stroke: #A80036; stroke-width: 1.0;"/><!--link C_APP_DISTRIBUTION to DB_SUBSCRIPTION--><path d="M493.605,523.19 C502.807,587.45 533.833,804.09 544.974,881.89 " fill="none" id="C_APP_DISTRIBUTION-DB_SUBSCRIPTION" style="stroke: #A80036; stroke-width: 1.0;"/><polygon fill="#A80036" points="545.741,887.25,548.4146,877.771,545.0269,882.3013,540.4966,878.9135,545.741,887.25" style="stroke: #A80036; stroke-width: 1.0;"/><!--link DB_PACK to EP_P2S--><path d="M874.151,934.79 C866.866,943.92 857.232,953.45 846,958.5 C826.285,967.36 473.213,952.2 457,966.5 C409.68,1008.23 406.42,1213.059 406.717,1283.024 " fill="none" id="DB_PACK-EP_P2S" style="stroke: #A80036; stroke-width: 1.0;"/><polygon fill="#A80036" points="406.747,1288.212,410.6929,1279.1882,406.717,1283.2121,402.6931,1279.2362,406.747,1288.212" style="stroke: #A80036; stroke-width: 1.0;"/><!--link EP_P2S to DB_SECURABLES--><path d="M418.421,1288.193 C433.463,1264.968 461.59,1224.456 492,1195.5 C642.594,1052.11 700.23,1024.23 900,966.5 C914.084,962.43 918.739,964.75 932,958.5 C943.513,953.07 955.031,945.4 965.011,937.84 " fill="none" id="EP_P2S-DB_SECURABLES" style="stroke: #A80036; stroke-width: 1.0;"/><polygon fill="#A80036" points="969.19,934.62,959.6213,936.9526,965.2319,937.675,964.5094,943.2856,969.19,934.62" style="stroke: #A80036; stroke-width: 1.0;"/><!--link DB_SECURABLES to EP_SEC_DIST--><path d="M967.319,934.72 C911.049,981.37 780.164,1092.27 680,1195.5 C651.692,1224.675 621.815,1261.05 603.537,1284.034 " fill="none" id="DB_SECURABLES-EP_SEC_DIST" style="stroke: #A80036; stroke-width: 1.0;"/><polygon fill="#A80036" points="600.262,1288.165,608.988,1283.5982,603.3686,1284.2472,602.7195,1278.6277,600.262,1288.165" style="stroke: #A80036; stroke-width: 1.0;"/><!--link EP_SEC_DIST to DB_USER_INBOX--><path d="M615.768,1326.519 C683.26,1367.34 853.153,1469.898 996,1554.5 C1026.81,1572.747 1061.68,1593.124 1088.39,1608.679 " fill="none" id="EP_SEC_DIST-DB_USER_INBOX" style="stroke: #A80036; stroke-width: 1.0;"/><polygon fill="#A80036" points="1092.95,1611.329,1087.2021,1603.3314,1088.6345,1608.8039,1083.162,1610.2362,1092.95,1611.329" style="stroke: #A80036; stroke-width: 1.0;"/><!--link C_APP_NAVIGATION to C_APP_COMMUNICATION--><!--link C_APP_NAVIGATION to C_APP_DECISION--><!--link C_APP_USERS to C_APP_ROLES--><!--link C_APP_USERS to C_APP_OPERATIONS--><!--
@startuml

cloud "DSuite" {

    node "Viewer" {

        component [Browser] as C_APP_BROWSER

        component [Offline] as C_APP_IOS

        database "PouchDb" as POUCH_DB 
    }

    node "SharePoint" as SP {
        folder "Site" {
            component [Document Library] as C_DOCUMENTLIB
            component [List] as C_SP_LIST
            component [Event Bridge] as C_EVENTBRIDGE
        }

       
    }

    node "Administration" {

        folder "Pack"  as APP_PACK {
            component [Pack] as C_APP_PACK
            component [Navigation] as C_APP_NAVIGATION
            component [Communication] as C_APP_COMMUNICATION
            component [Decisions] as C_APP_DECISION
        }

        folder "MetaData" as APP_META {
            component [Lists] as C_APP_LISTS
        }

        folder "Security"  as APP_SECURITY {
            component [Readers] as C_APP_USERS
            component [Roles] as C_APP_ROLES
            component [Operations] as C_APP_OPERATIONS
        }

        folder "Comms" as APP_COMMS {
            component [Notification] as C_APP_NOTIFICATION
            component [Distribution] as C_APP_DISTRIBUTION
        }

    }

    node "Couch DB" {
        database "Reader Inbox" as DB_USER_INBOX
        database "Reader Outbox" as DB_USER_OUTBOX
    } 

    node "Sql Server" {

        database "Pack" as DB_PACK
        database "Lists" as DB_LISTS
        database "Security" as DB_SECURITY

        database "Notification" as DB_NOTIFICATION
        database "Subscription" as DB_SUBSCRIPTION
        database "Securables" as DB_SECURABLES
    }


    node "Enterprise Service Bus" {
        
        folder "Replication (Offline)" {
            component [Pack to Securable] as EP_P2S
            component [Securable Distributor] as EP_SEC_DIST
            component [Couch Bridge] as EP_COUCHBRIDGE
        }

        folder "Platform Integration" {
            component [Event Publisher] as EP_EVENTPUBLISHER
            component [Document Conversion] as EP_DOCUMENT
            component [Pack Builder] as EP_PACK_BUILD
        }

        folder "Undefined Processing" as TBD {
            component [Some Process] as MYSTERY
        }
        
    }

}

APP_PACK ..down..> APP_META
APP_PACK ..down..> APP_SECURITY 
APP_PACK ..down..> APP_COMMS 

MYSTERY ..up..> APP_PACK
MYSTERY ..up..> SP

EP_EVENTPUBLISHER .up.> EP_DOCUMENT
EP_EVENTPUBLISHER ..up..> EP_PACK_BUILD

C_DOCUMENTLIB -down-> C_EVENTBRIDGE: SharePoint Event
C_SP_LIST -down-> C_EVENTBRIDGE

C_APP_BROWSER -up-> POUCH_DB: Uses
C_APP_IOS -up-> POUCH_DB: Uses

POUCH_DB <- -up- -> DB_USER_INBOX: Replicates
POUCH_DB <- -up- -> DB_USER_OUTBOX: Replicates

EP_COUCHBRIDGE <- -down- -> DB_USER_INBOX: Listens
EP_COUCHBRIDGE <- -down- -> DB_USER_OUTBOX: Listens

EP_COUCHBRIDGE ..right..> MYSTERY
C_EVENTBRIDGE .....>  EP_EVENTPUBLISHER : Domain Event

EP_DOCUMENT ..up..> DB_SECURABLES
EP_PACK_BUILD ..up..> DB_PACK

C_APP_PACK - -down- -> DB_PACK
C_APP_LISTS - -down- -> DB_LISTS

APP_SECURITY - -down- -> DB_SECURITY

C_APP_NOTIFICATION - -down- -> DB_NOTIFICATION
C_APP_DISTRIBUTION - -down- -> DB_SUBSCRIPTION

DB_PACK - -down- -> EP_P2S
EP_P2S - -> DB_SECURABLES

DB_SECURABLES - -down- -> EP_SEC_DIST
EP_SEC_DIST - -> DB_USER_INBOX

@enduml

PlantUML version 1.2017.19(Sun Nov 12 22:46:22 AEDT 2017)
(GPL source distribution)
Java Runtime: Java(TM) SE Runtime Environment
JVM: Java HotSpot(TM) 64-Bit Server VM
Java Version: 1.8.0_151-b12
Operating System: Windows Server 2012 R2
OS Version: 6.3
Default Encoding: UTF-8
Language: en
Country: US
--></g></svg>