<?xml version="1.0" encoding="UTF-8" standalone="no"?><svg xmlns="http://www.w3.org/2000/svg" xmlns:xlink="http://www.w3.org/1999/xlink" contentScriptType="application/ecmascript" contentStyleType="text/css" height="610px" preserveAspectRatio="none" style="width:1271px;height:610px;" version="1.1" viewBox="0 0 1271 610" width="1271px" zoomAndPan="magnify"><defs><filter height="300%" id="fyejgt23zmps9" width="300%" x="-1" y="-1"><feGaussianBlur result="blurOut" stdDeviation="2.0"/><feColorMatrix in="blurOut" result="blurOut2" type="matrix" values="0 0 0 0 0 0 0 0 0 0 0 0 0 0 0 0 0 0 .4 0"/><feOffset dx="4.0" dy="4.0" in="blurOut2" result="blurOut3"/><feBlend in="SourceGraphic" in2="blurOut3" mode="normal"/></filter></defs><g><!--cluster RECT_BRIEF--><rect fill="#FFFFFF" filter="url(#fyejgt23zmps9)" height="282" style="stroke: #000000; stroke-width: 2.0;" width="1131" x="129" y="126"/><text fill="#000000" font-family="sans-serif" font-size="14" font-weight="bold" lengthAdjust="spacingAndGlyphs" textLength="144" x="622.5" y="142.5332">Brief and Pack CRUA</text><ellipse cx="905.105" cy="220.221" fill="#FEFECE" filter="url(#fyejgt23zmps9)" rx="89.105" ry="20.221" style="stroke: #A80036; stroke-width: 1.5;"/><text fill="#000000" font-family="sans-serif" font-size="14" lengthAdjust="spacingAndGlyphs" textLength="148" x="831.105" y="225.5257">Read Recommendation</text><ellipse cx="1170.4209" cy="220.0467" fill="#FEFECE" filter="url(#fyejgt23zmps9)" rx="73.4209" ry="25.5467" style="stroke: #A80036; stroke-width: 1.5;"/><text fill="#000000" font-family="sans-serif" font-size="14" lengthAdjust="spacingAndGlyphs" textLength="49" x="1145.9209" y="213.0179">Choose</text><text fill="#000000" font-family="sans-serif" font-size="14" lengthAdjust="spacingAndGlyphs" textLength="110" x="1115.4209" y="230.6273">Recommendation</text><ellipse cx="636.669" cy="321.9517" fill="#FEFECE" filter="url(#fyejgt23zmps9)" rx="49.669" ry="15.4517" style="stroke: #A80036; stroke-width: 1.5;"/><text fill="#000000" font-family="sans-serif" font-size="14" lengthAdjust="spacingAndGlyphs" textLength="66" x="603.669" y="327.2564">Read brief</text><polygon fill="#FBFB77" filter="url(#fyejgt23zmps9)" points="560,228.5,560,271.2031,713,271.2031,713,238.5,703,228.5,560,228.5" style="stroke: #A80036; stroke-width: 1.0;"/><polygon fill="#FBFB77" points="560,228.5,560,257.652,452.329,278.116,560,265.652,560,271.2031,713,271.2031,713,238.5,703,228.5,560,228.5" style="stroke: #A80036; stroke-width: 1.0;"/><line style="stroke: #A80036; stroke-width: 1.0;" x1="703" x2="703" y1="228.5" y2="238.5"/><line style="stroke: #A80036; stroke-width: 1.0;" x1="713" x2="703" y1="238.5" y2="238.5"/><text fill="#000000" font-family="sans-serif" font-size="13" lengthAdjust="spacingAndGlyphs" textLength="126" x="566" y="246.9951">May add attachments</text><text fill="#000000" font-family="sans-serif" font-size="13" lengthAdjust="spacingAndGlyphs" textLength="132" x="566" y="263.3467">and recommendations.</text><ellipse cx="413.098" cy="283.9517" fill="#FEFECE" filter="url(#fyejgt23zmps9)" rx="42.598" ry="15.4517" style="stroke: #A80036; stroke-width: 1.5;"/><text fill="#000000" font-family="sans-serif" font-size="14" lengthAdjust="spacingAndGlyphs" textLength="56" x="385.098" y="289.2564">Edit brief</text><ellipse cx="205.533" cy="243.9517" fill="#FEFECE" filter="url(#fyejgt23zmps9)" rx="56.033" ry="15.4517" style="stroke: #A80036; stroke-width: 1.5;"/><text fill="#000000" font-family="sans-serif" font-size="14" lengthAdjust="spacingAndGlyphs" textLength="75" x="168.033" y="249.2564">Create brief</text><ellipse cx="205.3614" cy="375.9517" fill="#FEFECE" filter="url(#fyejgt23zmps9)" rx="58.8614" ry="15.4517" style="stroke: #A80036; stroke-width: 1.5;"/><text fill="#000000" font-family="sans-serif" font-size="14" lengthAdjust="spacingAndGlyphs" textLength="79" x="165.8614" y="381.2564">Archive brief</text><ellipse cx="904.7756" cy="321.9517" fill="#FEFECE" filter="url(#fyejgt23zmps9)" rx="60.2756" ry="15.4517" style="stroke: #A80036; stroke-width: 1.5;"/><text fill="#000000" font-family="sans-serif" font-size="14" lengthAdjust="spacingAndGlyphs" textLength="81" x="864.2756" y="327.2564">Discuss brief</text><ellipse cx="636.5833" cy="177.9517" fill="#FEFECE" filter="url(#fyejgt23zmps9)" rx="51.0833" ry="15.4517" style="stroke: #A80036; stroke-width: 1.5;"/><text fill="#000000" font-family="sans-serif" font-size="14" lengthAdjust="spacingAndGlyphs" textLength="68" x="602.5833" y="183.2564">Read pack</text><ellipse cx="413.0122" cy="375.9517" fill="#FEFECE" filter="url(#fyejgt23zmps9)" rx="44.0122" ry="15.4517" style="stroke: #A80036; stroke-width: 1.5;"/><text fill="#000000" font-family="sans-serif" font-size="14" lengthAdjust="spacingAndGlyphs" textLength="58" x="384.0122" y="381.2564">Edit pack</text><ellipse cx="205.4472" cy="177.9517" fill="#FEFECE" filter="url(#fyejgt23zmps9)" rx="57.4472" ry="15.4517" style="stroke: #A80036; stroke-width: 1.5;"/><text fill="#000000" font-family="sans-serif" font-size="14" lengthAdjust="spacingAndGlyphs" textLength="77" x="166.9472" y="183.2564">Create pack</text><ellipse cx="205.2756" cy="309.9517" fill="#FEFECE" filter="url(#fyejgt23zmps9)" rx="60.2756" ry="15.4517" style="stroke: #A80036; stroke-width: 1.5;"/><text fill="#000000" font-family="sans-serif" font-size="14" lengthAdjust="spacingAndGlyphs" textLength="81" x="164.7756" y="315.2564">Archive pack</text><!--entity A_VIP--><ellipse cx="413" cy="35.6094" fill="#FFA07A" filter="url(#fyejgt23zmps9)" rx="8" ry="8" style="stroke: #000000; stroke-width: 2.0;"/><path d="M413,43.6094 L413,70.6094 M400,51.6094 L426,51.6094 M413,70.6094 L400,85.6094 M413,70.6094 L426,85.6094 " fill="#FFA07A" filter="url(#fyejgt23zmps9)" style="stroke: #000000; stroke-width: 2.0;"/><text fill="#000000" font-family="sans-serif" font-size="14" lengthAdjust="spacingAndGlyphs" textLength="21" x="402.5" y="107.1426">VIP</text><text fill="#000000" font-family="sans-serif" font-size="14" font-style="italic" lengthAdjust="spacingAndGlyphs" textLength="60" x="383" y="22.5332">«person»</text><!--entity A_PMO--><ellipse cx="205.5" cy="525.6094" fill="#FFA07A" filter="url(#fyejgt23zmps9)" rx="8" ry="8" style="stroke: #000000; stroke-width: 2.0;"/><path d="M205.5,533.6094 L205.5,560.6094 M192.5,541.6094 L218.5,541.6094 M205.5,560.6094 L192.5,575.6094 M205.5,560.6094 L218.5,575.6094 " fill="#FFA07A" filter="url(#fyejgt23zmps9)" style="stroke: #000000; stroke-width: 2.0;"/><text fill="#000000" font-family="sans-serif" font-size="14" lengthAdjust="spacingAndGlyphs" textLength="31" x="190" y="597.1426">PMO</text><text fill="#000000" font-family="sans-serif" font-size="14" font-style="italic" lengthAdjust="spacingAndGlyphs" textLength="60" x="175.5" y="512.5332">«person»</text><!--entity A_OWNER--><ellipse cx="44" cy="286.6094" fill="#FFA07A" filter="url(#fyejgt23zmps9)" rx="8" ry="8" style="stroke: #000000; stroke-width: 2.0;"/><path d="M44,294.6094 L44,321.6094 M31,302.6094 L57,302.6094 M44,321.6094 L31,336.6094 M44,321.6094 L57,336.6094 " fill="#FFA07A" filter="url(#fyejgt23zmps9)" style="stroke: #000000; stroke-width: 2.0;"/><text fill="#000000" font-family="sans-serif" font-size="14" lengthAdjust="spacingAndGlyphs" textLength="76" x="6" y="358.1426">Pack\Owner</text><text fill="#000000" font-family="sans-serif" font-size="14" font-style="italic" lengthAdjust="spacingAndGlyphs" textLength="60" x="14" y="273.5332">«person»</text><!--link A_VIP to RR--><path d="M443.145,66.406 C496.948,80.294 615.303,111.851 713,145 C765.121,162.685 823.899,186.341 862.314,202.319 " fill="none" id="A_VIP-RR" style="stroke: #A80036; stroke-width: 1.0;"/><!--link RR to Choose\nRecommendation--><path d="M994.108,220 C1025.65,220 1060.95,220 1091.57,220 " fill="none" id="RR-Choose\nRecommendation" style="stroke: #A80036; stroke-width: 1.0; stroke-dasharray: 7.0,7.0;"/><polygon fill="#A80036" points="1096.83,220,1087.83,216,1091.83,220,1087.83,224,1096.83,220" style="stroke: #A80036; stroke-width: 1.0;"/><text fill="#000000" font-family="sans-serif" font-size="13" lengthAdjust="spacingAndGlyphs" textLength="41" x="1025" y="216.4951">include</text><!--link Read brief to RR--><path d="M668.593,310.1 C714.175,292.654 799.616,259.952 854.064,239.112 " fill="none" id="Read brief-RR" style="stroke: #A80036; stroke-width: 1.0; stroke-dasharray: 7.0,7.0;"/><polygon fill="#A80036" points="858.907,237.259,849.0718,236.7409,854.2374,239.0465,851.9318,244.2122,858.907,237.259" style="stroke: #A80036; stroke-width: 1.0;"/><text fill="#000000" font-family="sans-serif" font-size="13" lengthAdjust="spacingAndGlyphs" textLength="41" x="744" y="264.4951">include</text><!--link Read brief to Discuss brief--><path d="M686.07,322 C728.947,322 791.797,322 838.998,322 " fill="none" id="Read brief-Discuss brief" style="stroke: #A80036; stroke-width: 1.0; stroke-dasharray: 7.0,7.0;"/><polygon fill="#A80036" points="844.094,322,835.094,318,839.094,322,835.094,326,844.094,322" style="stroke: #A80036; stroke-width: 1.0;"/><text fill="#000000" font-family="sans-serif" font-size="13" lengthAdjust="spacingAndGlyphs" textLength="41" x="744" y="318.4951">include</text><!--link Edit brief to Read brief--><path d="M449.949,291.751 C461.731,294.194 474.903,296.822 487,299 C519.873,304.919 557.008,310.671 585.92,314.942 " fill="none" id="Edit brief-Read brief" style="stroke: #A80036; stroke-width: 1.0; stroke-dasharray: 7.0,7.0;"/><polygon fill="#A80036" points="591.22,315.722,582.8988,310.4534,586.2734,314.9935,581.7332,318.368,591.22,315.722" style="stroke: #A80036; stroke-width: 1.0;"/><text fill="#000000" font-family="sans-serif" font-size="13" lengthAdjust="spacingAndGlyphs" textLength="41" x="488" y="295.4951">include</text><!--link Create brief to Edit brief--><path d="M251.852,252.828 C287.114,259.691 335.655,269.14 370.029,275.83 " fill="none" id="Create brief-Edit brief" style="stroke: #A80036; stroke-width: 1.0; stroke-dasharray: 7.0,7.0;"/><polygon fill="#A80036" points="374.994,276.797,366.9247,271.1503,370.0862,275.8412,365.3953,279.0027,374.994,276.797" style="stroke: #A80036; stroke-width: 1.0;"/><text fill="#000000" font-family="sans-serif" font-size="13" lengthAdjust="spacingAndGlyphs" textLength="41" x="297" y="258.4951">include</text><!--link Read brief to Read pack--><path d="M596.622,309.13 C548.645,291.501 478.054,257.383 508,217 C525.775,193.03 557.9,183.28 585.581,179.522 " fill="none" id="Read brief-Read pack" style="stroke: #A80036; stroke-width: 1.0; stroke-dasharray: 7.0,7.0;"/><polygon fill="#A80036" points="601.48,310.888,594.3783,304.0641,596.7784,309.1865,591.6559,311.5866,601.48,310.888" style="stroke: #A80036; stroke-width: 1.0;"/><text fill="#000000" font-family="sans-serif" font-size="13" lengthAdjust="spacingAndGlyphs" textLength="41" x="488" y="231.4951">include</text><!--link A_VIP to Read pack--><path d="M443.041,81.095 C456.119,90.566 471.97,101.402 487,110 C526.135,132.387 573.942,153.197 604.552,165.752 " fill="none" id="A_VIP-Read pack" style="stroke: #A80036; stroke-width: 1.0;"/><!--link A_PMO to Edit pack--><path d="M235.724,535.8687 C264.061,522.2432 307.299,499.02 339,471 C366.274,446.894 390.372,411.352 402.891,391.274 " fill="none" id="A_PMO-Edit pack" style="stroke: #A80036; stroke-width: 1.0;"/><!--link Edit brief to Edit pack--><path d="M413,304.965 C413,323.373 413,341.78 413,360.187 " fill="none" id="Edit brief-Edit pack" style="stroke: #A80036; stroke-width: 1.0; stroke-dasharray: 7.0,7.0;"/><polygon fill="#A80036" points="413,299.773,409,308.773,413,304.773,417,308.773,413,299.773" style="stroke: #A80036; stroke-width: 1.0;"/><!--link A_OWNER to Edit pack--><path d="M71.1342,361.153 C83.5164,379.771 100.2051,398.748 121,409 C209.927,452.842 332.222,410.746 385.454,388.196 " fill="none" id="A_OWNER-Edit pack" style="stroke: #A80036; stroke-width: 1.0;"/><!--link Create brief to Create pack--><path d="M205.5,223.143 C205.5,213.332 205.5,203.521 205.5,193.71 " fill="none" id="Create brief-Create pack" style="stroke: #A80036; stroke-width: 1.0; stroke-dasharray: 7.0,7.0;"/><polygon fill="#A80036" points="205.5,228.273,209.5,219.273,205.5,223.273,201.5,219.273,205.5,228.273" style="stroke: #A80036; stroke-width: 1.0;"/><!--link A_OWNER to Create pack--><path d="M76.1836,258.797 C88.4741,241.829 103.7875,223.983 121,211 C133.818,201.332 149.838,194.102 164.409,188.912 " fill="none" id="A_OWNER-Create pack" style="stroke: #A80036; stroke-width: 1.0;"/><!--link Archive brief to Archive pack--><path d="M205.5,355.143 C205.5,345.332 205.5,335.521 205.5,325.71 " fill="none" id="Archive brief-Archive pack" style="stroke: #A80036; stroke-width: 1.0; stroke-dasharray: 7.0,7.0;"/><polygon fill="#A80036" points="205.5,360.273,209.5,351.273,205.5,355.273,201.5,351.273,205.5,360.273" style="stroke: #A80036; stroke-width: 1.0;"/><!--link A_OWNER to Archive pack--><path d="M82.3957,310 C100.9952,310 123.925,310 144.872,310 " fill="none" id="A_OWNER-Archive pack" style="stroke: #A80036; stroke-width: 1.0;"/><!--
@startuml
skinparam handwritten false
skinparam actor {
    backgroundColor<<person>> LightSalmon
    borderColor<<person>> Black
}


' uncomment the line below if you're using computer with a retina display
' skinparam dpi 300
' we use bold for primary key
' green color for unique
' and underscore for not_null
' other tags available:
' <i></i>
' <back:COLOR></color>, where color is a color name or html color code
' (#FFAACC)
' see: http://plantuml.com/classes.html#More
left to right direction

actor :VIP: <<person>> as A_VIP
actor :PMO: <<person>> as A_PMO
actor :Pack\Owner: <<person>> as A_OWNER

rectangle "Brief and Pack CRUA" as RECT_BRIEF {
    
    usecase (Read Recommendation) as RR

    A_VIP - - RR
    RR ..> (Choose\nRecommendation) : include

    (Read brief)
    (Read brief) ..> RR : include

    note "May add attachments\nand recommendations." as N1
    (Edit brief) .. N1
    (Create brief)
    (Archive brief)
    
    (Read brief) ..> (Discuss brief) : include    
    (Edit brief) ..> (Read brief) : include
    (Create brief) ..> (Edit brief) : include

    (Read pack) .left.> (Read brief) : include
    A_VIP - - (Read pack)
    A_PMO - - (Edit pack)
    (Edit pack) .left.> (Edit brief)
    A_OWNER - - (Edit pack)
    (Create pack) .left.> (Create brief)
    A_OWNER - - (Create pack)
    (Archive pack) .left.> (Archive brief)
    A_OWNER - - (Archive pack)
}

@enduml

PlantUML version 1.2017.19(Sun Nov 12 22:46:22 AEDT 2017)
(GPL source distribution)
Java Runtime: Java(TM) SE Runtime Environment
JVM: Java HotSpot(TM) 64-Bit Server VM
Java Version: 1.8.0_151-b12
Operating System: Windows Server 2012 R2
OS Version: 6.3
Default Encoding: UTF-8
Language: en
Country: US
--></g></svg>