<?xml version="1.0" encoding="UTF-8" standalone="no"?><svg xmlns="http://www.w3.org/2000/svg" xmlns:xlink="http://www.w3.org/1999/xlink" contentScriptType="application/ecmascript" contentStyleType="text/css" height="579px" preserveAspectRatio="none" style="width:770px;height:579px;" version="1.1" viewBox="0 0 770 579" width="770px" zoomAndPan="magnify"><defs><filter height="300%" id="f16" width="300%" x="-1" y="-1"><feGaussianBlur result="blurOut" stdDeviation="2.0"/><feColorMatrix in="blurOut" result="blurOut2" type="matrix" values="0 0 0 0 0 0 0 0 0 0 0 0 0 0 0 0 0 0 .4 0"/><feOffset dx="4.0" dy="4.0" in="blurOut2" result="blurOut3"/><feBlend in="SourceGraphic" in2="blurOut3" mode="normal"/></filter></defs><g><!--entity A_VIP--><ellipse cx="77" cy="18" fill="#FEFECE" filter="url(#f16)" rx="8" ry="8" style="stroke: #A80036; stroke-width: 2.0;"/><path d="M77,26 L77,53 M64,34 L90,34 M77,53 L64,68 M77,53 L90,68 " fill="#FEFECE" filter="url(#f16)" style="stroke: #A80036; stroke-width: 2.0;"/><text fill="#000000" font-family="sans-serif" font-size="14" lengthAdjust="spacingAndGlyphs" textLength="21" x="66.5" y="89.5332">VIP</text><!--entity A_PMO--><ellipse cx="143" cy="18" fill="#FEFECE" filter="url(#f16)" rx="8" ry="8" style="stroke: #A80036; stroke-width: 2.0;"/><path d="M143,26 L143,53 M130,34 L156,34 M143,53 L130,68 M143,53 L156,68 " fill="#FEFECE" filter="url(#f16)" style="stroke: #A80036; stroke-width: 2.0;"/><text fill="#000000" font-family="sans-serif" font-size="14" lengthAdjust="spacingAndGlyphs" textLength="31" x="127.5" y="89.5332">PMO</text><!--entity A_OWNER--><ellipse cx="232" cy="18" fill="#FEFECE" filter="url(#f16)" rx="8" ry="8" style="stroke: #A80036; stroke-width: 2.0;"/><path d="M232,26 L232,53 M219,34 L245,34 M232,53 L219,68 M232,53 L245,68 " fill="#FEFECE" filter="url(#f16)" style="stroke: #A80036; stroke-width: 2.0;"/><text fill="#000000" font-family="sans-serif" font-size="14" lengthAdjust="spacingAndGlyphs" textLength="76" x="194" y="89.5332">Pack\Owner</text><!--entity A_OFFICER--><ellipse cx="374" cy="18" fill="#FEFECE" filter="url(#f16)" rx="8" ry="8" style="stroke: #A80036; stroke-width: 2.0;"/><path d="M374,26 L374,53 M361,34 L387,34 M374,53 L361,68 M374,53 L387,68 " fill="#FEFECE" filter="url(#f16)" style="stroke: #A80036; stroke-width: 2.0;"/><text fill="#000000" font-family="sans-serif" font-size="14" lengthAdjust="spacingAndGlyphs" textLength="138" x="305" y="89.5332">Departmental\Officers</text><!--entity A_EXTERNAL--><ellipse cx="507" cy="18" fill="#FEFECE" filter="url(#f16)" rx="8" ry="8" style="stroke: #A80036; stroke-width: 2.0;"/><path d="M507,26 L507,53 M494,34 L520,34 M507,53 L494,68 M507,53 L520,68 " fill="#FEFECE" filter="url(#f16)" style="stroke: #A80036; stroke-width: 2.0;"/><text fill="#000000" font-family="sans-serif" font-size="14" lengthAdjust="spacingAndGlyphs" textLength="58" x="478" y="89.5332">Externals</text><!--entity A_ADMIN--><ellipse cx="77" cy="163" fill="#FEFECE" filter="url(#f16)" rx="8" ry="8" style="stroke: #A80036; stroke-width: 2.0;"/><path d="M77,171 L77,198 M64,179 L90,179 M77,198 L64,213 M77,198 L90,213 " fill="#FEFECE" filter="url(#f16)" style="stroke: #A80036; stroke-width: 2.0;"/><text fill="#000000" font-family="sans-serif" font-size="14" lengthAdjust="spacingAndGlyphs" textLength="125" x="14.5" y="234.5332">Super\Administrator</text><!--entity ROLE_BRIEF_READER--><ellipse cx="215" cy="163" fill="#FEFECE" filter="url(#f16)" rx="8" ry="8" style="stroke: #A80036; stroke-width: 2.0;"/><path d="M215,171 L215,198 M202,179 L228,179 M215,198 L202,213 M215,198 L228,213 " fill="#FEFECE" filter="url(#f16)" style="stroke: #A80036; stroke-width: 2.0;"/><text fill="#000000" font-family="sans-serif" font-size="14" lengthAdjust="spacingAndGlyphs" textLength="80" x="175" y="234.5332">Brief Reader</text><!--entity ROLE_BRIEF_EDITOR--><ellipse cx="325" cy="163" fill="#FEFECE" filter="url(#f16)" rx="8" ry="8" style="stroke: #A80036; stroke-width: 2.0;"/><path d="M325,171 L325,198 M312,179 L338,179 M325,198 L312,213 M325,198 L338,213 " fill="#FEFECE" filter="url(#f16)" style="stroke: #A80036; stroke-width: 2.0;"/><text fill="#000000" font-family="sans-serif" font-size="14" lengthAdjust="spacingAndGlyphs" textLength="70" x="290" y="234.5332">Brief Editor</text><!--entity ROLE_BRIEF_ARCHIVE--><ellipse cx="435" cy="163" fill="#FEFECE" filter="url(#f16)" rx="8" ry="8" style="stroke: #A80036; stroke-width: 2.0;"/><path d="M435,171 L435,198 M422,179 L448,179 M435,198 L422,213 M435,198 L448,213 " fill="#FEFECE" filter="url(#f16)" style="stroke: #A80036; stroke-width: 2.0;"/><text fill="#000000" font-family="sans-serif" font-size="14" lengthAdjust="spacingAndGlyphs" textLength="80" x="395" y="234.5332">Brief Archive</text><!--entity ROLE_BRIEF_CREATOR--><ellipse cx="551" cy="163" fill="#FEFECE" filter="url(#f16)" rx="8" ry="8" style="stroke: #A80036; stroke-width: 2.0;"/><path d="M551,171 L551,198 M538,179 L564,179 M551,198 L538,213 M551,198 L564,213 " fill="#FEFECE" filter="url(#f16)" style="stroke: #A80036; stroke-width: 2.0;"/><text fill="#000000" font-family="sans-serif" font-size="14" lengthAdjust="spacingAndGlyphs" textLength="81" x="510.5" y="234.5332">Brief Creator</text><!--entity ROLE_PACK_READER--><ellipse cx="77" cy="308" fill="#FEFECE" filter="url(#f16)" rx="8" ry="8" style="stroke: #A80036; stroke-width: 2.0;"/><path d="M77,316 L77,343 M64,324 L90,324 M77,343 L64,358 M77,343 L90,358 " fill="#FEFECE" filter="url(#f16)" style="stroke: #A80036; stroke-width: 2.0;"/><text fill="#000000" font-family="sans-serif" font-size="14" lengthAdjust="spacingAndGlyphs" textLength="82" x="36" y="379.5332">Pack Reader</text><!--entity ROLE_PACK_EDITOR--><ellipse cx="189" cy="308" fill="#FEFECE" filter="url(#f16)" rx="8" ry="8" style="stroke: #A80036; stroke-width: 2.0;"/><path d="M189,316 L189,343 M176,324 L202,324 M189,343 L176,358 M189,343 L202,358 " fill="#FEFECE" filter="url(#f16)" style="stroke: #A80036; stroke-width: 2.0;"/><text fill="#000000" font-family="sans-serif" font-size="14" lengthAdjust="spacingAndGlyphs" textLength="72" x="153" y="379.5332">Pack Editor</text><!--entity ROLE_PACK_ARCHIVE--><ellipse cx="301" cy="308" fill="#FEFECE" filter="url(#f16)" rx="8" ry="8" style="stroke: #A80036; stroke-width: 2.0;"/><path d="M301,316 L301,343 M288,324 L314,324 M301,343 L288,358 M301,343 L314,358 " fill="#FEFECE" filter="url(#f16)" style="stroke: #A80036; stroke-width: 2.0;"/><text fill="#000000" font-family="sans-serif" font-size="14" lengthAdjust="spacingAndGlyphs" textLength="82" x="260" y="379.5332">Pack Archive</text><!--entity ROLE_PACK_CREATOR--><ellipse cx="419" cy="308" fill="#FEFECE" filter="url(#f16)" rx="8" ry="8" style="stroke: #A80036; stroke-width: 2.0;"/><path d="M419,316 L419,343 M406,324 L432,324 M419,343 L406,358 M419,343 L432,358 " fill="#FEFECE" filter="url(#f16)" style="stroke: #A80036; stroke-width: 2.0;"/><text fill="#000000" font-family="sans-serif" font-size="14" lengthAdjust="spacingAndGlyphs" textLength="83" x="377.5" y="379.5332">Pack Creator</text><ellipse cx="547.0833" cy="340.4517" fill="#FEFECE" filter="url(#f16)" rx="51.0833" ry="15.4517" style="stroke: #A80036; stroke-width: 1.5;"/><text fill="#000000" font-family="sans-serif" font-size="14" lengthAdjust="spacingAndGlyphs" textLength="68" x="513.0833" y="345.7564">Be Notified</text><ellipse cx="77.1327" cy="460.6265" fill="#FEFECE" filter="url(#f16)" rx="71.1327" ry="16.6265" style="stroke: #A80036; stroke-width: 1.5;"/><text fill="#000000" font-family="sans-serif" font-size="14" lengthAdjust="spacingAndGlyphs" textLength="104" x="25.1327" y="465.9312">Search\Discover</text><ellipse cx="252.2443" cy="460.7489" fill="#FEFECE" filter="url(#f16)" rx="69.2443" ry="16.2489" style="stroke: #A80036; stroke-width: 1.5;"/><text fill="#000000" font-family="sans-serif" font-size="14" lengthAdjust="spacingAndGlyphs" textLength="99" x="202.7443" y="466.0536">Make Decisions</text><ellipse cx="394.1482" cy="460.4517" fill="#FEFECE" filter="url(#f16)" rx="37.6482" ry="15.4517" style="stroke: #A80036; stroke-width: 1.5;"/><text fill="#000000" font-family="sans-serif" font-size="14" lengthAdjust="spacingAndGlyphs" textLength="49" x="369.6482" y="465.7564">Discuss</text><ellipse cx="520.2046" cy="460.4517" fill="#FEFECE" filter="url(#f16)" rx="53.2046" ry="15.4517" style="stroke: #A80036; stroke-width: 1.5;"/><text fill="#000000" font-family="sans-serif" font-size="14" lengthAdjust="spacingAndGlyphs" textLength="71" x="484.7046" y="465.7564">Brief CRUA</text><ellipse cx="683.9176" cy="460.4835" fill="#FEFECE" filter="url(#f16)" rx="75.4176" ry="17.4835" style="stroke: #A80036; stroke-width: 1.5;"/><text fill="#000000" font-family="sans-serif" font-size="14" lengthAdjust="spacingAndGlyphs" textLength="115" x="626.4176" y="465.7882">Status Flow CRUA</text><ellipse cx="77.1188" cy="553.4517" fill="#FEFECE" filter="url(#f16)" rx="54.6188" ry="15.4517" style="stroke: #A80036; stroke-width: 1.5;"/><text fill="#000000" font-family="sans-serif" font-size="14" lengthAdjust="spacingAndGlyphs" textLength="73" x="40.6188" y="558.7564">Pack CRUA</text><ellipse cx="223.2401" cy="553.4517" fill="#FEFECE" filter="url(#f16)" rx="56.7401" ry="15.4517" style="stroke: #A80036; stroke-width: 1.5;"/><text fill="#000000" font-family="sans-serif" font-size="14" lengthAdjust="spacingAndGlyphs" textLength="76" x="185.2401" y="558.7564">Permissions</text><ellipse cx="354.0624" cy="553.4517" fill="#FEFECE" filter="url(#f16)" rx="39.0624" ry="15.4517" style="stroke: #A80036; stroke-width: 1.5;"/><text fill="#000000" font-family="sans-serif" font-size="14" lengthAdjust="spacingAndGlyphs" textLength="51" x="328.5624" y="558.7564">Security</text><!--link A_VIP to A_PMO--><!--link A_PMO to A_OWNER--><!--link A_OWNER to A_OFFICER--><!--link A_OFFICER to A_EXTERNAL--><!--link A_VIP to A_ADMIN--><!--link A_ADMIN to ROLE_BRIEF_READER--><!--link ROLE_BRIEF_READER to ROLE_BRIEF_EDITOR--><!--link ROLE_BRIEF_EDITOR to ROLE_BRIEF_ARCHIVE--><!--link ROLE_BRIEF_ARCHIVE to ROLE_BRIEF_CREATOR--><!--link A_ADMIN to ROLE_PACK_READER--><!--link ROLE_PACK_READER to ROLE_PACK_EDITOR--><!--link ROLE_PACK_EDITOR to ROLE_PACK_ARCHIVE--><!--link ROLE_PACK_ARCHIVE to ROLE_PACK_CREATOR--><!--link ROLE_PACK_CREATOR to UC_NOTIFY--><!--link ROLE_PACK_READER to UC_SEARCH--><!--link UC_SEARCH to UC_DECIDE--><!--link UC_DECIDE to UC_DISCUSS--><!--link UC_DISCUSS to UC_CRUA_BRIEF--><!--link UC_CRUA_BRIEF to UC_CRUA_STATUS--><!--link UC_SEARCH to UC_CRUA_PACK--><!--link UC_CRUA_PACK to UC_EDIT_PACK_PERMS--><!--link UC_EDIT_PACK_PERMS to UC_EDIT_PACK_Security--><!--
PlantUML version 1.2017.19(Sun Nov 12 22:46:22 AEDT 2017)
(GPL source distribution)
Java Runtime: Java(TM) SE Runtime Environment
JVM: Java HotSpot(TM) 64-Bit Server VM
Java Version: 1.8.0_151-b12
Operating System: Windows Server 2012 R2
OS Version: 6.3
Default Encoding: UTF-8
Language: en
Country: US
--></g></svg>