<?xml version="1.0" encoding="UTF-8" standalone="no"?><svg xmlns="http://www.w3.org/2000/svg" xmlns:xlink="http://www.w3.org/1999/xlink" contentScriptType="application/ecmascript" contentStyleType="text/css" height="710px" preserveAspectRatio="none" style="width:709px;height:710px;" version="1.1" viewBox="0 0 709 710" width="709px" zoomAndPan="magnify"><defs><filter height="300%" id="f1t2on15d52mcz" width="300%" x="-1" y="-1"><feGaussianBlur result="blurOut" stdDeviation="2.0"/><feColorMatrix in="blurOut" result="blurOut2" type="matrix" values="0 0 0 0 0 0 0 0 0 0 0 0 0 0 0 0 0 0 .4 0"/><feOffset dx="4.0" dy="4.0" in="blurOut2" result="blurOut3"/><feBlend in="SourceGraphic" in2="blurOut3" mode="normal"/></filter></defs><g><!--cluster SOL--><polygon fill="#FFFFFF" filter="url(#f1t2on15d52mcz)" points="60,42,70,32,555,32,555,688,545,698,60,698,60,42" style="stroke: #000000; stroke-width: 2.0;"/><line style="stroke: #000000; stroke-width: 2.0;" x1="545" x2="554" y1="42" y2="33"/><line style="stroke: #000000; stroke-width: 2.0;" x1="60" x2="545" y1="42" y2="42"/><line style="stroke: #000000; stroke-width: 2.0;" x1="545" x2="545" y1="42" y2="698"/><text fill="#000000" font-family="sans-serif" font-size="14" font-weight="bold" lengthAdjust="spacingAndGlyphs" textLength="58" x="274.5" y="59.5332">Solution</text><!--entity DS--><rect fill="#FEFECE" filter="url(#f1t2on15d52mcz)" height="55.2188" style="stroke: #A80036; stroke-width: 1.5;" width="80" x="213" y="81"/><rect fill="#FEFECE" height="5" style="stroke: #A80036; stroke-width: 1.5;" width="10" x="208" y="86"/><rect fill="#FEFECE" height="5" style="stroke: #A80036; stroke-width: 1.5;" width="10" x="208" y="126.2188"/><text fill="#000000" font-family="sans-serif" font-size="14" font-style="italic" lengthAdjust="spacingAndGlyphs" textLength="60" x="223" y="105.5332">«system»</text><text fill="#000000" font-family="sans-serif" font-size="14" lengthAdjust="spacingAndGlyphs" textLength="42" x="232" y="123.1426">DSuite</text><!--entity SP--><rect fill="#FEFECE" filter="url(#f1t2on15d52mcz)" height="55.2188" style="stroke: #A80036; stroke-width: 1.5;" width="90" x="84" y="353"/><rect fill="#FEFECE" height="5" style="stroke: #A80036; stroke-width: 1.5;" width="10" x="79" y="358"/><rect fill="#FEFECE" height="5" style="stroke: #A80036; stroke-width: 1.5;" width="10" x="79" y="398.2188"/><text fill="#000000" font-family="sans-serif" font-size="14" font-style="italic" lengthAdjust="spacingAndGlyphs" textLength="67" x="95.5" y="377.5332">«platform»</text><text fill="#000000" font-family="sans-serif" font-size="14" lengthAdjust="spacingAndGlyphs" textLength="70" x="94" y="395.1426">SharePoint</text><!--entity CDB--><rect fill="#FEFECE" filter="url(#f1t2on15d52mcz)" height="55.2188" style="stroke: #A80036; stroke-width: 1.5;" width="87" x="209.5" y="353"/><rect fill="#FEFECE" height="5" style="stroke: #A80036; stroke-width: 1.5;" width="10" x="204.5" y="358"/><rect fill="#FEFECE" height="5" style="stroke: #A80036; stroke-width: 1.5;" width="10" x="204.5" y="398.2188"/><text fill="#000000" font-family="sans-serif" font-size="14" font-style="italic" lengthAdjust="spacingAndGlyphs" textLength="67" x="219.5" y="377.5332">«platform»</text><text fill="#000000" font-family="sans-serif" font-size="14" lengthAdjust="spacingAndGlyphs" textLength="64" x="221" y="395.1426">Couch DB</text><!--entity MI--><rect fill="#FEFECE" filter="url(#f1t2on15d52mcz)" height="55.2188" style="stroke: #A80036; stroke-width: 1.5;" width="89" x="331.5" y="353"/><rect fill="#FEFECE" height="5" style="stroke: #A80036; stroke-width: 1.5;" width="10" x="326.5" y="358"/><rect fill="#FEFECE" height="5" style="stroke: #A80036; stroke-width: 1.5;" width="10" x="326.5" y="398.2188"/><text fill="#000000" font-family="sans-serif" font-size="14" font-style="italic" lengthAdjust="spacingAndGlyphs" textLength="67" x="342.5" y="377.5332">«platform»</text><text fill="#000000" font-family="sans-serif" font-size="14" lengthAdjust="spacingAndGlyphs" textLength="69" x="341.5" y="395.1426">Mobile Iron</text><!--entity SQL--><path d="M341.5,620 C341.5,610 385,610 385,610 C385,610 428.5,610 428.5,620 L428.5,664.2188 C428.5,674.2188 385,674.2188 385,674.2188 C385,674.2188 341.5,674.2188 341.5,664.2188 L341.5,620 " fill="#FEFECE" filter="url(#f1t2on15d52mcz)" style="stroke: #000000; stroke-width: 1.5;"/><path d="M341.5,620 C341.5,630 385,630 385,630 C385,630 428.5,630 428.5,620 " fill="none" style="stroke: #000000; stroke-width: 1.5;"/><text fill="#000000" font-family="sans-serif" font-size="14" font-style="italic" lengthAdjust="spacingAndGlyphs" textLength="67" x="351.5" y="648.5332">«platform»</text><text fill="#000000" font-family="sans-serif" font-size="14" lengthAdjust="spacingAndGlyphs" textLength="28" x="371" y="666.1426">SQL</text><!--entity User--><ellipse cx="21" cy="76" fill="#FEFECE" filter="url(#f1t2on15d52mcz)" rx="8" ry="8" style="stroke: #A80036; stroke-width: 2.0;"/><path d="M21,84 L21,111 M8,92 L34,92 M21,111 L8,126 M21,111 L34,126 " fill="#FEFECE" filter="url(#f1t2on15d52mcz)" style="stroke: #A80036; stroke-width: 2.0;"/><text fill="#000000" font-family="sans-serif" font-size="14" lengthAdjust="spacingAndGlyphs" textLength="29" x="6.5" y="147.5332">User</text><!--entity AD--><rect fill="#FEFECE" filter="url(#f1t2on15d52mcz)" height="55.2188" style="stroke: #A80036; stroke-width: 1.5;" width="119" x="579.5" y="353"/><rect fill="#FEFECE" height="5" style="stroke: #A80036; stroke-width: 1.5;" width="10" x="574.5" y="358"/><rect fill="#FEFECE" height="5" style="stroke: #A80036; stroke-width: 1.5;" width="10" x="574.5" y="398.2188"/><text fill="#000000" font-family="sans-serif" font-size="14" font-style="italic" lengthAdjust="spacingAndGlyphs" textLength="60" x="609" y="377.5332">«system»</text><text fill="#000000" font-family="sans-serif" font-size="14" lengthAdjust="spacingAndGlyphs" textLength="99" x="589.5" y="395.1426">Active Directory</text><!--link User to DS--><path d="M36.2222,108.5 C70.5001,108.5 154.861,108.5 207.663,108.5 " fill="none" id="User-DS" style="stroke: #A80036; stroke-width: 1.0;"/><polygon fill="#A80036" points="212.672,108.5,203.672,104.5,207.672,108.5,203.672,112.5,212.672,108.5" style="stroke: #A80036; stroke-width: 1.0;"/><text fill="#000000" font-family="sans-serif" font-size="13" lengthAdjust="spacingAndGlyphs" textLength="30" x="109.5" y="101.9951">Uses</text><!--link DS to SP--><path d="M240.657,136.376 C217.585,186.613 168.037,294.5 143.45,348.037 " fill="none" id="DS-SP" style="stroke: #A80036; stroke-width: 1.0;"/><polygon fill="#A80036" points="141.293,352.733,148.6851,346.2248,143.3804,348.1896,141.4156,342.8849,141.293,352.733" style="stroke: #A80036; stroke-width: 1.0;"/><text fill="#000000" font-family="sans-serif" font-size="13" lengthAdjust="spacingAndGlyphs" textLength="30" x="192" y="257.4951">Uses</text><!--link DS to CDB--><path d="M253,136.376 C253,186.512 253,294.066 253,347.713 " fill="none" id="DS-CDB" style="stroke: #A80036; stroke-width: 1.0;"/><polygon fill="#A80036" points="253,352.733,257,343.733,253,347.733,249,343.733,253,352.733" style="stroke: #A80036; stroke-width: 1.0;"/><text fill="#000000" font-family="sans-serif" font-size="13" lengthAdjust="spacingAndGlyphs" textLength="30" x="254" y="257.4951">Uses</text><!--link DS to MI--><path d="M265.243,136.376 C288.129,186.613 337.278,294.5 361.667,348.037 " fill="none" id="DS-MI" style="stroke: #A80036; stroke-width: 1.0;"/><polygon fill="#A80036" points="363.806,352.733,363.7149,342.8846,361.7331,348.1829,356.4347,346.2012,363.806,352.733" style="stroke: #A80036; stroke-width: 1.0;"/><text fill="#000000" font-family="sans-serif" font-size="13" lengthAdjust="spacingAndGlyphs" textLength="30" x="323" y="257.4951">Uses</text><!--link DS to SQL--><path d="M277.459,136.211 C283.442,141.665 290.116,146.963 297,151 C374.965,196.724 491,121.616 491,212 C491,212 491,212 491,549 C491,582.076 461.199,605.941 433.2,621.065 " fill="none" id="DS-SQL" style="stroke: #A80036; stroke-width: 1.0;"/><polygon fill="#A80036" points="428.726,623.4168,438.5535,622.768,433.1514,621.0895,434.8299,615.6874,428.726,623.4168" style="stroke: #A80036; stroke-width: 1.0;"/><text fill="#000000" font-family="sans-serif" font-size="13" lengthAdjust="spacingAndGlyphs" textLength="30" x="492" y="385.9951">Uses</text><!--link SP to SQL--><path d="M155.432,408.294 C202.091,455.59 299.001,553.825 350.726,606.257 " fill="none" id="SP-SQL" style="stroke: #A80036; stroke-width: 1.0;"/><polygon fill="#A80036" points="354.371,609.952,350.8968,600.7363,350.8591,606.393,345.2024,606.3553,354.371,609.952" style="stroke: #A80036; stroke-width: 1.0;"/><text fill="#000000" font-family="sans-serif" font-size="13" lengthAdjust="spacingAndGlyphs" textLength="30" x="264" y="514.4951">Uses</text><!--link SOL to AD--><path d="M555.0363,133.0843 C555.7183,135.0855 556.4364,137.1932 557.188,139.3989 C563.2004,157.0443 571.3509,180.9642 580.1868,206.8956 C597.8585,258.7585 618.272,318.6675 629.807,352.519 " fill="none" id="SOL-AD" style="stroke: #A80036; stroke-width: 1.0;"/><polygon fill="#A80036" points="555.0363,133.0843,554.1529,142.8934,556.649,137.8171,561.7253,140.3132,555.0363,133.0843" style="stroke: #A80036; stroke-width: 1.0;"/><text fill="#000000" font-family="sans-serif" font-size="13" lengthAdjust="spacingAndGlyphs" textLength="66" x="599" y="257.4951">Secured by</text><!--
@startuml
skinparam handwritten false
skinparam actor {
    backgroundColor<<person>> LightSalmon
    borderColor<<person>> Black
}


' uncomment the line below if you're using computer with a retina display
' skinparam dpi 300
' we use bold for primary key
' green color for unique
' and underscore for not_null
' other tags available:
' <i></i>
' <back:COLOR></color>, where color is a color name or html color code
' (#FFAACC)
' see: http://plantuml.com/classes.html#More
actor :User:

node "Solution" as SOL{

    component "DSuite" <<system>> as DS
    component "SharePoint" <<platform>> as SP
    component "Couch DB" <<platform>> as CDB
    component "Mobile Iron" <<platform>> as MI
    database "SQL" <<platform>> as SQL

    :User: -> DS : Uses
    DS - -down- -> SP : Uses
    DS - -down- -> CDB : Uses
    DS - -down- -> MI : Uses
    DS - -down- -> SQL : Uses
    SP - -down- -> SQL : Uses
}

component "Active Directory" <<system>> as AD
AD - -up- -> SOL: Secured by

@enduml

PlantUML version 1.2017.19(Sun Nov 12 22:46:22 AEDT 2017)
(GPL source distribution)
Java Runtime: Java(TM) SE Runtime Environment
JVM: Java HotSpot(TM) 64-Bit Server VM
Java Version: 1.8.0_151-b12
Operating System: Windows Server 2012 R2
OS Version: 6.3
Default Encoding: UTF-8
Language: en
Country: US
--></g></svg>