<?xml version="1.0" encoding="UTF-8" standalone="no"?><svg xmlns="http://www.w3.org/2000/svg" xmlns:xlink="http://www.w3.org/1999/xlink" contentScriptType="application/ecmascript" contentStyleType="text/css" height="451px" preserveAspectRatio="none" style="width:512px;height:451px;" version="1.1" viewBox="0 0 512 451" width="512px" zoomAndPan="magnify"><defs><filter height="300%" id="fdfbs3be0p97h" width="300%" x="-1" y="-1"><feGaussianBlur result="blurOut" stdDeviation="2.0"/><feColorMatrix in="blurOut" result="blurOut2" type="matrix" values="0 0 0 0 0 0 0 0 0 0 0 0 0 0 0 0 0 0 .4 0"/><feOffset dx="4.0" dy="4.0" in="blurOut2" result="blurOut3"/><feBlend in="SourceGraphic" in2="blurOut3" mode="normal"/></filter></defs><g><text fill="#000000" font-family="sans-serif" font-size="18" lengthAdjust="spacingAndGlyphs" textLength="82" x="223" y="18.6855">Enterprise</text><!--cluster Internal Domain--><path d="M55,53.6406 C55,50.6406 57,48.6406 60,48.6406 C63,48.6406 65,50.6406 65,53.6406 C65,50.6406 67,48.6406 70,48.6406 C73,48.6406 75,50.6406 75,53.6406 C75,50.6406 77,48.6406 80,48.6406 C83,48.6406 85,50.6406 85,53.6406 C85,50.6406 87,48.6406 90,48.6406 C93,48.6406 95,50.6406 95,53.6406 C95,50.6406 97,48.6406 100,48.6406 C103,48.6406 105,50.6406 105,53.6406 C105,50.6406 107,48.6406 110,48.6406 C113,48.6406 115,50.6406 115,53.6406 C115,50.6406 117,48.6406 120,48.6406 C123,48.6406 125,50.6406 125,53.6406 C125,50.6406 127,48.6406 130,48.6406 C133,48.6406 135,50.6406 135,53.6406 C135,50.6406 137,48.6406 140,48.6406 C143,48.6406 145,50.6406 145,53.6406 C145,50.6406 147,48.6406 150,48.6406 C153,48.6406 155,50.6406 155,53.6406 C155,50.6406 157,48.6406 160,48.6406 C163,48.6406 165,50.6406 165,53.6406 C165,50.6406 167,48.6406 170,48.6406 C173,48.6406 175,50.6406 175,53.6406 C175,50.6406 177,48.6406 180,48.6406 C183,48.6406 185,50.6406 185,53.6406 C185,50.6406 187,48.6406 190,48.6406 C193,48.6406 195,50.6406 195,53.6406 C195,50.6406 197,48.6406 200,48.6406 C203,48.6406 205,50.6406 205,53.6406 C205,50.6406 207,48.6406 210,48.6406 C213,48.6406 215,50.6406 215,53.6406 C215,50.6406 217,48.6406 220,48.6406 C223,48.6406 225,50.6406 225,53.6406 C225,50.6406 227,48.6406 230,48.6406 C233,48.6406 235,50.6406 235,53.6406 C235,50.6406 237,48.6406 240,48.6406 C243,48.6406 245,50.6406 245,53.6406 C245,50.6406 247,48.6406 250,48.6406 C253,48.6406 255,50.6406 255,53.6406 C255,50.6406 257,48.6406 260,48.6406 C263,48.6406 265,50.6406 265,53.6406 C265,50.6406 267,48.6406 270,48.6406 C273,48.6406 275,50.6406 275,53.6406 C275,50.6406 277,48.6406 280,48.6406 C283,48.6406 285,50.6406 285,53.6406 C285,50.6406 287,48.6406 290,48.6406 C293,48.6406 295,50.6406 295,53.6406 C295,50.6406 297,48.6406 300,48.6406 C303,48.6406 305,50.6406 305,53.6406 C305,50.6406 307,48.6406 310,48.6406 C313,48.6406 315,50.6406 315,53.6406 C315,50.6406 317,48.6406 320,48.6406 C323,48.6406 325,50.6406 325,53.6406 C325,50.6406 327,48.6406 330,48.6406 C333,48.6406 335,50.6406 335,53.6406 C335,50.6406 337,48.6406 340,48.6406 C343,48.6406 345,50.6406 345,53.6406 C345,50.6406 347,48.6406 350,48.6406 C353,48.6406 355,50.6406 355,53.6406 C355,50.6406 357,48.6406 360,48.6406 C363,48.6406 365,50.6406 365,53.6406 C365,50.6406 367,48.6406 370,48.6406 C373,48.6406 375,50.6406 375,53.6406 C375,50.6406 377,48.6406 380,48.6406 C383,48.6406 385,50.6406 385,53.6406 C385,50.6406 387,48.6406 390,48.6406 C393,48.6406 395,50.6406 395,53.6406 C395,50.6406 397,48.6406 400,48.6406 C403,48.6406 405,50.6406 405,53.6406 C405,50.6406 407,48.6406 410,48.6406 C413,48.6406 415,50.6406 415,53.6406 C415,50.6406 417,48.6406 420,48.6406 C423,48.6406 425,50.6406 425,53.6406 C425,50.6406 427,48.6406 430,48.6406 C433,48.6406 435,50.6406 435,53.6406 C435,50.6406 437,48.6406 440,48.6406 C443,48.6406 445,50.6406 445,53.6406 C445,50.6406 447,48.6406 450,48.6406 C453,48.6406 455,50.6406 455,53.6406 C455,50.6406 457,48.6406 460,48.6406 C463,48.6406 465,50.6406 465,53.6406 C465,50.6406 467,48.6406 470,48.6406 C473,48.6406 475,50.6406 475,53.6406 C475,50.6406 477,48.6406 480,48.6406 C483,48.6406 485,50.6406 485,53.6406 C485,50.6406 487,48.6406 490,48.6406 C493,48.6406 495,50.6406 495,53.6406 C498,53.6406 500,55.6406 500,58.6406 C500,61.6406 498,63.6406 495,63.6406 C498,63.6406 500,65.6406 500,68.6406 C500,71.6406 498,73.6406 495,73.6406 C498,73.6406 500,75.6406 500,78.6406 C500,81.6406 498,83.6406 495,83.6406 C498,83.6406 500,85.6406 500,88.6406 C500,91.6406 498,93.6406 495,93.6406 C498,93.6406 500,95.6406 500,98.6406 C500,101.6406 498,103.6406 495,103.6406 C498,103.6406 500,105.6406 500,108.6406 C500,111.6406 498,113.6406 495,113.6406 C498,113.6406 500,115.6406 500,118.6406 C500,121.6406 498,123.6406 495,123.6406 C498,123.6406 500,125.6406 500,128.6406 C500,131.6406 498,133.6406 495,133.6406 C498,133.6406 500,135.6406 500,138.6406 C500,141.6406 498,143.6406 495,143.6406 C498,143.6406 500,145.6406 500,148.6406 C500,151.6406 498,153.6406 495,153.6406 C498,153.6406 500,155.6406 500,158.6406 C500,161.6406 498,163.6406 495,163.6406 C498,163.6406 500,165.6406 500,168.6406 C500,171.6406 498,173.6406 495,173.6406 C498,173.6406 500,175.6406 500,178.6406 C500,181.6406 498,183.6406 495,183.6406 C498,183.6406 500,185.6406 500,188.6406 C500,191.6406 498,193.6406 495,193.6406 C498,193.6406 500,195.6406 500,198.6406 C500,201.6406 498,203.6406 495,203.6406 C498,203.6406 500,205.6406 500,208.6406 C500,211.6406 498,213.6406 495,213.6406 C498,213.6406 500,215.6406 500,218.6406 C500,221.6406 498,223.6406 495,223.6406 C498,223.6406 500,225.6406 500,228.6406 C500,231.6406 498,233.6406 495,233.6406 C498,233.6406 500,235.6406 500,238.6406 C500,241.6406 498,243.6406 495,243.6406 C498,243.6406 500,245.6406 500,248.6406 C500,251.6406 498,253.6406 495,253.6406 C498,253.6406 500,255.6406 500,258.6406 C500,261.6406 498,263.6406 495,263.6406 C498,263.6406 500,265.6406 500,268.6406 C500,271.6406 498,273.6406 495,273.6406 C498,273.6406 500,275.6406 500,278.6406 C500,281.6406 498,283.6406 495,283.6406 C495,286.6406 492,288.6406 490,288.6406 C487,288.6406 485,286.6406 485,283.6406 C485,286.6406 482,288.6406 480,288.6406 C477,288.6406 475,286.6406 475,283.6406 C475,286.6406 472,288.6406 470,288.6406 C467,288.6406 465,286.6406 465,283.6406 C465,286.6406 462,288.6406 460,288.6406 C457,288.6406 455,286.6406 455,283.6406 C455,286.6406 452,288.6406 450,288.6406 C447,288.6406 445,286.6406 445,283.6406 C445,286.6406 442,288.6406 440,288.6406 C437,288.6406 435,286.6406 435,283.6406 C435,286.6406 432,288.6406 430,288.6406 C427,288.6406 425,286.6406 425,283.6406 C425,286.6406 422,288.6406 420,288.6406 C417,288.6406 415,286.6406 415,283.6406 C415,286.6406 412,288.6406 410,288.6406 C407,288.6406 405,286.6406 405,283.6406 C405,286.6406 402,288.6406 400,288.6406 C397,288.6406 395,286.6406 395,283.6406 C395,286.6406 392,288.6406 390,288.6406 C387,288.6406 385,286.6406 385,283.6406 C385,286.6406 382,288.6406 380,288.6406 C377,288.6406 375,286.6406 375,283.6406 C375,286.6406 372,288.6406 370,288.6406 C367,288.6406 365,286.6406 365,283.6406 C365,286.6406 362,288.6406 360,288.6406 C357,288.6406 355,286.6406 355,283.6406 C355,286.6406 352,288.6406 350,288.6406 C347,288.6406 345,286.6406 345,283.6406 C345,286.6406 342,288.6406 340,288.6406 C337,288.6406 335,286.6406 335,283.6406 C335,286.6406 332,288.6406 330,288.6406 C327,288.6406 325,286.6406 325,283.6406 C325,286.6406 322,288.6406 320,288.6406 C317,288.6406 315,286.6406 315,283.6406 C315,286.6406 312,288.6406 310,288.6406 C307,288.6406 305,286.6406 305,283.6406 C305,286.6406 302,288.6406 300,288.6406 C297,288.6406 295,286.6406 295,283.6406 C295,286.6406 292,288.6406 290,288.6406 C287,288.6406 285,286.6406 285,283.6406 C285,286.6406 282,288.6406 280,288.6406 C277,288.6406 275,286.6406 275,283.6406 C275,286.6406 272,288.6406 270,288.6406 C267,288.6406 265,286.6406 265,283.6406 C265,286.6406 262,288.6406 260,288.6406 C257,288.6406 255,286.6406 255,283.6406 C255,286.6406 252,288.6406 250,288.6406 C247,288.6406 245,286.6406 245,283.6406 C245,286.6406 242,288.6406 240,288.6406 C237,288.6406 235,286.6406 235,283.6406 C235,286.6406 232,288.6406 230,288.6406 C227,288.6406 225,286.6406 225,283.6406 C225,286.6406 222,288.6406 220,288.6406 C217,288.6406 215,286.6406 215,283.6406 C215,286.6406 212,288.6406 210,288.6406 C207,288.6406 205,286.6406 205,283.6406 C205,286.6406 202,288.6406 200,288.6406 C197,288.6406 195,286.6406 195,283.6406 C195,286.6406 192,288.6406 190,288.6406 C187,288.6406 185,286.6406 185,283.6406 C185,286.6406 182,288.6406 180,288.6406 C177,288.6406 175,286.6406 175,283.6406 C175,286.6406 172,288.6406 170,288.6406 C167,288.6406 165,286.6406 165,283.6406 C165,286.6406 162,288.6406 160,288.6406 C157,288.6406 155,286.6406 155,283.6406 C155,286.6406 152,288.6406 150,288.6406 C147,288.6406 145,286.6406 145,283.6406 C145,286.6406 142,288.6406 140,288.6406 C137,288.6406 135,286.6406 135,283.6406 C135,286.6406 132,288.6406 130,288.6406 C127,288.6406 125,286.6406 125,283.6406 C125,286.6406 122,288.6406 120,288.6406 C117,288.6406 115,286.6406 115,283.6406 C115,286.6406 112,288.6406 110,288.6406 C107,288.6406 105,286.6406 105,283.6406 C105,286.6406 102,288.6406 100,288.6406 C97,288.6406 95,286.6406 95,283.6406 C95,286.6406 92,288.6406 90,288.6406 C87,288.6406 85,286.6406 85,283.6406 C85,286.6406 82,288.6406 80,288.6406 C77,288.6406 75,286.6406 75,283.6406 C75,286.6406 72,288.6406 70,288.6406 C67,288.6406 65,286.6406 65,283.6406 C65,286.6406 62,288.6406 60,288.6406 C57,288.6406 55,286.6406 55,283.6406 C52,283.6406 50,281.6406 50,278.6406 C50,275.6406 52,273.6406 55,273.6406 C52,273.6406 50,271.6406 50,268.6406 C50,265.6406 52,263.6406 55,263.6406 C52,263.6406 50,261.6406 50,258.6406 C50,255.6406 52,253.6406 55,253.6406 C52,253.6406 50,251.6406 50,248.6406 C50,245.6406 52,243.6406 55,243.6406 C52,243.6406 50,241.6406 50,238.6406 C50,235.6406 52,233.6406 55,233.6406 C52,233.6406 50,231.6406 50,228.6406 C50,225.6406 52,223.6406 55,223.6406 C52,223.6406 50,221.6406 50,218.6406 C50,215.6406 52,213.6406 55,213.6406 C52,213.6406 50,211.6406 50,208.6406 C50,205.6406 52,203.6406 55,203.6406 C52,203.6406 50,201.6406 50,198.6406 C50,195.6406 52,193.6406 55,193.6406 C52,193.6406 50,191.6406 50,188.6406 C50,185.6406 52,183.6406 55,183.6406 C52,183.6406 50,181.6406 50,178.6406 C50,175.6406 52,173.6406 55,173.6406 C52,173.6406 50,171.6406 50,168.6406 C50,165.6406 52,163.6406 55,163.6406 C52,163.6406 50,161.6406 50,158.6406 C50,155.6406 52,153.6406 55,153.6406 C52,153.6406 50,151.6406 50,148.6406 C50,145.6406 52,143.6406 55,143.6406 C52,143.6406 50,141.6406 50,138.6406 C50,135.6406 52,133.6406 55,133.6406 C52,133.6406 50,131.6406 50,128.6406 C50,125.6406 52,123.6406 55,123.6406 C52,123.6406 50,121.6406 50,118.6406 C50,115.6406 52,113.6406 55,113.6406 C52,113.6406 50,111.6406 50,108.6406 C50,105.6406 52,103.6406 55,103.6406 C52,103.6406 50,101.6406 50,98.6406 C50,95.6406 52,93.6406 55,93.6406 C52,93.6406 50,91.6406 50,88.6406 C50,85.6406 52,83.6406 55,83.6406 C52,83.6406 50,81.6406 50,78.6406 C50,75.6406 52,73.6406 55,73.6406 C52,73.6406 50,71.6406 50,68.6406 C50,65.6406 52,63.6406 55,63.6406 C52,63.6406 50,61.6406 50,58.6406 C50,55.6406 52,53.6406 55,53.6406 " fill="#FFFFFF" filter="url(#fdfbs3be0p97h)" style="stroke: #000000; stroke-width: 2.0;"/><text fill="#000000" font-family="sans-serif" font-size="14" font-weight="bold" lengthAdjust="spacingAndGlyphs" textLength="110" x="218" y="74.1738">Internal Domain</text><!--cluster Mobile Iron--><polygon fill="#FFFFFF" filter="url(#fdfbs3be0p97h)" points="76,110.6406,162,110.6406,169,134.25,214,134.25,214,268.6406,76,268.6406,76,110.6406" style="stroke: #000000; stroke-width: 2.0;"/><line style="stroke: #000000; stroke-width: 2.0;" x1="76" x2="169" y1="134.25" y2="134.25"/><text fill="#000000" font-family="sans-serif" font-size="14" font-weight="bold" lengthAdjust="spacingAndGlyphs" textLength="80" x="80" y="127.1738">Mobile Iron</text><!--cluster iPad--><rect fill="#FFFFFF" filter="url(#fdfbs3be0p97h)" height="90" style="stroke: #000000; stroke-width: 2.0;" width="90" x="100" y="154.6406"/><path d="M140,155.6406 L140,165.25 L130,175.25 L100,175.25 " fill="none" style="stroke: #000000; stroke-width: 2.0;"/><text fill="#000000" font-family="sans-serif" font-size="14" font-weight="bold" lengthAdjust="spacingAndGlyphs" textLength="30" x="103" y="170.1738">iPad</text><!--cluster S_COUCHDB--><polygon fill="#FFFFFF" filter="url(#fdfbs3be0p97h)" points="238,100.6406,248,90.6406,470,90.6406,470,258.6406,460,268.6406,238,268.6406,238,100.6406" style="stroke: #000000; stroke-width: 2.0;"/><line style="stroke: #000000; stroke-width: 2.0;" x1="460" x2="469" y1="100.6406" y2="91.6406"/><line style="stroke: #000000; stroke-width: 2.0;" x1="238" x2="460" y1="100.6406" y2="100.6406"/><line style="stroke: #000000; stroke-width: 2.0;" x1="460" x2="460" y1="100.6406" y2="268.6406"/><text fill="#000000" font-family="sans-serif" font-size="14" font-weight="bold" lengthAdjust="spacingAndGlyphs" textLength="88" x="306" y="118.1738">S_COUCHDB</text><!--cluster Database--><path d="M262,149.6406 C262,139.6406 304,139.6406 304,139.6406 C304,139.6406 346,139.6406 346,149.6406 L346,234.6406 C346,244.6406 304,244.6406 304,244.6406 C304,244.6406 262,244.6406 262,234.6406 L262,149.6406 " fill="#FFFFFF" filter="url(#fdfbs3be0p97h)" style="stroke: #000000; stroke-width: 2.0;"/><path d="M262,149.6406 C262,159.6406 304,159.6406 304,159.6406 C304,159.6406 346,159.6406 346,149.6406 " fill="none" style="stroke: #000000; stroke-width: 2.0;"/><text fill="#000000" font-family="sans-serif" font-size="14" font-weight="bold" lengthAdjust="spacingAndGlyphs" textLength="65" x="271.5" y="175.1738">Database</text><!--cluster Folder--><polygon fill="#FFFFFF" filter="url(#fdfbs3be0p97h)" points="370,154.6406,422,154.6406,429,178.25,446,178.25,446,244.6406,370,244.6406,370,154.6406" style="stroke: #000000; stroke-width: 2.0;"/><line style="stroke: #000000; stroke-width: 2.0;" x1="370" x2="429" y1="178.25" y2="178.25"/><text fill="#000000" font-family="sans-serif" font-size="14" font-weight="bold" lengthAdjust="spacingAndGlyphs" textLength="46" x="374" y="171.1738">Folder</text><!--entity dsuite--><rect fill="#FEFECE" filter="url(#fdfbs3be0p97h)" height="37.6094" style="stroke: #A80036; stroke-width: 1.5;" width="58" x="116" y="190.6406"/><rect fill="#FEFECE" height="5" style="stroke: #A80036; stroke-width: 1.5;" width="10" x="111" y="195.6406"/><rect fill="#FEFECE" height="5" style="stroke: #A80036; stroke-width: 1.5;" width="10" x="111" y="218.25"/><text fill="#000000" font-family="sans-serif" font-size="14" lengthAdjust="spacingAndGlyphs" textLength="38" x="126" y="215.1738">dsuite</text><!--entity store--><rect fill="#FEFECE" filter="url(#fdfbs3be0p97h)" height="37.6094" style="stroke: #A80036; stroke-width: 1.5;" width="52" x="278" y="190.6406"/><rect fill="#FEFECE" height="5" style="stroke: #A80036; stroke-width: 1.5;" width="10" x="273" y="195.6406"/><rect fill="#FEFECE" height="5" style="stroke: #A80036; stroke-width: 1.5;" width="10" x="273" y="218.25"/><text fill="#000000" font-family="sans-serif" font-size="14" lengthAdjust="spacingAndGlyphs" textLength="32" x="288" y="215.1738">store</text><!--entity File--><rect fill="#FEFECE" filter="url(#fdfbs3be0p97h)" height="37.6094" style="stroke: #A80036; stroke-width: 1.5;" width="43" x="386.5" y="190.6406"/><rect fill="#FEFECE" height="5" style="stroke: #A80036; stroke-width: 1.5;" width="10" x="381.5" y="195.6406"/><rect fill="#FEFECE" height="5" style="stroke: #A80036; stroke-width: 1.5;" width="10" x="381.5" y="218.25"/><text fill="#000000" font-family="sans-serif" font-size="14" lengthAdjust="spacingAndGlyphs" textLength="23" x="396.5" y="215.1738">File</text><!--entity P_VIP--><ellipse cx="21" cy="177.1406" fill="#FEFECE" filter="url(#fdfbs3be0p97h)" rx="8" ry="8" style="stroke: #A80036; stroke-width: 2.0;"/><path d="M21,185.1406 L21,212.1406 M8,193.1406 L34,193.1406 M21,212.1406 L8,227.1406 M21,212.1406 L34,227.1406 " fill="#FEFECE" filter="url(#fdfbs3be0p97h)" style="stroke: #A80036; stroke-width: 2.0;"/><text fill="#000000" font-family="sans-serif" font-size="14" lengthAdjust="spacingAndGlyphs" textLength="21" x="10.5" y="248.6738">VIP</text><!--entity A1--><ellipse cx="21" cy="366.6406" fill="#FEFECE" filter="url(#fdfbs3be0p97h)" rx="8" ry="8" style="stroke: #A80036; stroke-width: 2.0;"/><path d="M21,374.6406 L21,401.6406 M8,382.6406 L34,382.6406 M21,401.6406 L8,416.6406 M21,401.6406 L34,416.6406 " fill="#FEFECE" filter="url(#fdfbs3be0p97h)" style="stroke: #A80036; stroke-width: 2.0;"/><text fill="#000000" font-family="sans-serif" font-size="14" lengthAdjust="spacingAndGlyphs" textLength="17" x="12.5" y="438.1738">A1</text><!--link P_VIP to A1--><path d="M21,252.2526 C21,281.5236 21,320.7366 21,351.1369 " fill="none" id="P_VIP-A1" style="stroke: #A80036; stroke-width: 1.0;"/><polygon fill="#A80036" points="21,356.3208,25,347.3208,21,351.3208,17,347.3208,21,356.3208" style="stroke: #A80036; stroke-width: 1.0;"/><text fill="#000000" font-family="sans-serif" font-size="13" lengthAdjust="spacingAndGlyphs" textLength="145" x="22" y="323.1357">Authentication Response</text><!--
@startuml
title Enterprise
actor "VIP"  as P_VIP 



cloud "Internal Domain" {
  package "Mobile Iron" {
    frame "iPad" {
      [dsuite]
    }
  }

  node S_COUCHDB {
    database "Database" {
        [store]
    }
    folder "Folder" {
        [File]
    }
    }
}


P_VIP - -> A1: Authentication Response

@enduml

PlantUML version 1.2017.19(Sun Nov 12 22:46:22 AEDT 2017)
(GPL source distribution)
Java Runtime: Java(TM) SE Runtime Environment
JVM: Java HotSpot(TM) 64-Bit Server VM
Java Version: 1.8.0_151-b12
Operating System: Windows Server 2012 R2
OS Version: 6.3
Default Encoding: UTF-8
Language: en
Country: US
--></g></svg>