<?xml version="1.0" encoding="UTF-8" standalone="no"?><svg xmlns="http://www.w3.org/2000/svg" xmlns:xlink="http://www.w3.org/1999/xlink" contentScriptType="application/ecmascript" contentStyleType="text/css" height="372px" preserveAspectRatio="none" style="width:404px;height:372px;" version="1.1" viewBox="0 0 404 372" width="404px" zoomAndPan="magnify"><defs><filter height="300%" id="fg258b7vdg18p" width="300%" x="-1" y="-1"><feGaussianBlur result="blurOut" stdDeviation="4.0"/><feColorMatrix in="blurOut" result="blurOut2" type="matrix" values="0 0 0 0 0 0 0 0 0 0 0 0 0 0 0 0 0 0 .4 0"/><feOffset dx="8.0" dy="8.0" in="blurOut2" result="blurOut3"/><feBlend in="SourceGraphic" in2="blurOut3" mode="normal"/></filter></defs><g><!--class Table--><rect fill="#F8F8F8" filter="url(#fg258b7vdg18p)" height="107.6719" id="Table" style="stroke: #383838; stroke-width: 3.0;" width="150" x="12" y="16"/><ellipse cx="52.8" cy="48" fill="#C3C3C3" rx="22" ry="22" style="stroke: #383838; stroke-width: 2.0;"/><path d="M54.6438,42.7813 L54.6438,56.0938 L56.9563,56.0938 Q58.175,56.0938 58.6906,56.5625 Q59.2063,57.0313 59.2063,57.8125 Q59.2063,58.5625 58.6906,59.0313 Q58.175,59.5 56.9563,59.5 L48.9875,59.5 Q47.7375,59.5 47.2219,59.0313 Q46.7063,58.5625 46.7063,57.7813 Q46.7063,57.0313 47.2219,56.5625 Q47.7375,56.0938 48.9875,56.0938 L51.2375,56.0938 L51.2375,42.7813 L47.55,42.7813 L47.55,46 Q47.55,47.2188 47.0813,47.75 Q46.6125,48.2813 45.8625,48.2813 Q45.1125,48.2813 44.6438,47.75 Q44.175,47.2188 44.175,46 L44.175,39.375 L61.8,39.375 L61.8,46 Q61.8,47.2188 61.3156,47.75 Q60.8313,48.2813 60.0813,48.2813 Q59.3313,48.2813 58.8625,47.75 Q58.3938,47.2188 58.3938,46 L58.3938,42.7813 L54.6438,42.7813 Z "/><text fill="#000000" font-family="sans-serif" font-size="24" lengthAdjust="spacingAndGlyphs" textLength="62" x="83.2" y="57.8203">Table</text><line style="stroke: #383838; stroke-width: 3.0;" x1="14" x2="160" y1="80" y2="80"/><text fill="#000000" font-family="sans-serif" font-size="22" lengthAdjust="spacingAndGlyphs" textLength="126" x="24" y="110.8379">column TYPE</text><!--class View--><rect fill="#F8F8F8" filter="url(#fg258b7vdg18p)" height="107.6719" id="View" style="stroke: #383838; stroke-width: 3.0;" width="150" x="232" y="16"/><ellipse cx="277.3" cy="48" fill="#C3C3C3" rx="22" ry="22" style="stroke: #383838; stroke-width: 2.0;"/><path d="M279.1438,42.7813 L279.1438,56.0938 L281.4563,56.0938 Q282.675,56.0938 283.1906,56.5625 Q283.7063,57.0313 283.7063,57.8125 Q283.7063,58.5625 283.1906,59.0313 Q282.675,59.5 281.4563,59.5 L273.4875,59.5 Q272.2375,59.5 271.7219,59.0313 Q271.2063,58.5625 271.2063,57.7813 Q271.2063,57.0313 271.7219,56.5625 Q272.2375,56.0938 273.4875,56.0938 L275.7375,56.0938 L275.7375,42.7813 L272.05,42.7813 L272.05,46 Q272.05,47.2188 271.5813,47.75 Q271.1125,48.2813 270.3625,48.2813 Q269.6125,48.2813 269.1438,47.75 Q268.675,47.2188 268.675,46 L268.675,39.375 L286.3,39.375 L286.3,46 Q286.3,47.2188 285.8156,47.75 Q285.3313,48.2813 284.5813,48.2813 Q283.8313,48.2813 283.3625,47.75 Q282.8938,47.2188 282.8938,46 L282.8938,42.7813 L279.1438,42.7813 Z "/><text fill="#000000" font-family="sans-serif" font-size="24" lengthAdjust="spacingAndGlyphs" textLength="52" x="308.7" y="57.8203">View</text><line style="stroke: #383838; stroke-width: 3.0;" x1="234" x2="380" y1="80" y2="80"/><text fill="#000000" font-family="sans-serif" font-size="22" lengthAdjust="spacingAndGlyphs" textLength="126" x="244" y="110.8379">column TYPE</text><!--class Entity--><rect fill="#F8F8F8" filter="url(#fg258b7vdg18p)" height="107.6719" id="Entity" style="stroke: #383838; stroke-width: 3.0;" width="150" x="12" y="244"/><ellipse cx="54.6" cy="276" fill="#C3C3C3" rx="22" ry="22" style="stroke: #383838; stroke-width: 2.0;"/><path d="M56.4438,270.7813 L56.4438,284.0938 L58.7563,284.0938 Q59.975,284.0938 60.4906,284.5625 Q61.0063,285.0313 61.0063,285.8125 Q61.0063,286.5625 60.4906,287.0313 Q59.975,287.5 58.7563,287.5 L50.7875,287.5 Q49.5375,287.5 49.0219,287.0313 Q48.5063,286.5625 48.5063,285.7813 Q48.5063,285.0313 49.0219,284.5625 Q49.5375,284.0938 50.7875,284.0938 L53.0375,284.0938 L53.0375,270.7813 L49.35,270.7813 L49.35,274 Q49.35,275.2188 48.8813,275.75 Q48.4125,276.2813 47.6625,276.2813 Q46.9125,276.2813 46.4438,275.75 Q45.975,275.2188 45.975,274 L45.975,267.375 L63.6,267.375 L63.6,274 Q63.6,275.2188 63.1156,275.75 Q62.6313,276.2813 61.8813,276.2813 Q61.1313,276.2813 60.6625,275.75 Q60.1938,275.2188 60.1938,274 L60.1938,270.7813 L56.4438,270.7813 Z "/><text fill="#000000" font-family="sans-serif" font-size="24" lengthAdjust="spacingAndGlyphs" textLength="58" x="85.4" y="285.8203">Entity</text><line style="stroke: #383838; stroke-width: 3.0;" x1="14" x2="160" y1="308" y2="308"/><text fill="#000000" font-family="sans-serif" font-size="22" lengthAdjust="spacingAndGlyphs" textLength="126" x="24" y="338.8379">column TYPE</text><!--link Table to View--><!--link Table to Entity--><!--
@startuml

skinparam monochrome true
skinparam linetype ortho
scale 2


hide methods
hide stereotypes

class Table << (T,#FFAAAA) >> {
    column TYPE
}

class View << (T,#FFAAAA) >> {
    column TYPE
}

class Entity << (T,#FFAAAA) >> {
    column TYPE
}

@enduml

PlantUML version 1.2017.19(Sun Nov 12 22:46:22 AEDT 2017)
(GPL source distribution)
Java Runtime: Java(TM) SE Runtime Environment
JVM: Java HotSpot(TM) 64-Bit Server VM
Java Version: 1.8.0_151-b12
Operating System: Windows Server 2012 R2
OS Version: 6.3
Default Encoding: UTF-8
Language: en
Country: US
--></g></svg>